  0
SECTION
  2
BLOCKS
  0
ENDSEC
  0
SECTION
  2
ENTITIES
  0
LINE
  8
0
 10
36.6267
 20
-33.4606
 11
37.2435
 21
-33.3429
  0
LINE
  8
0
 10
37.2435
 20
-33.3429
 11
37.8406
 21
-33.1489
  0
LINE
  8
0
 10
37.8406
 20
-33.1489
 11
38.4088
 21
-32.8815
  0
LINE
  8
0
 10
38.4088
 20
-32.8815
 11
38.9389
 21
-32.5451
  0
LINE
  8
0
 10
38.9389
 20
-32.5451
 11
39.4227
 21
-32.1448
  0
LINE
  8
0
 10
39.4227
 20
-32.1448
 11
39.8526
 21
-31.6871
  0
LINE
  8
0
 10
39.8526
 20
-31.6871
 11
40.2216
 21
-31.1791
  0
LINE
  8
0
 10
40.2216
 20
-31.1791
 11
40.5241
 21
-30.6289
  0
LINE
  8
0
 10
40.5241
 20
-30.6289
 11
40.7553
 21
-30.0451
  0
LINE
  8
0
 10
40.7553
 20
-30.0451
 11
40.9114
 21
-29.4369
  0
LINE
  8
0
 10
40.9114
 20
-29.4369
 11
41
 21
-28.5
  0
LINE
  8
0
 10
41
 20
-28.5
 11
41
 21
28.5
  0
LINE
  8
0
 10
41
 20
28.5
 11
40.9606
 21
29.1267
  0
LINE
  8
0
 10
40.9606
 20
29.1267
 11
40.8429
 21
29.7435
  0
LINE
  8
0
 10
40.8429
 20
29.7435
 11
40.6489
 21
30.3406
  0
LINE
  8
0
 10
40.6489
 20
30.3406
 11
40.3815
 21
30.9088
  0
LINE
  8
0
 10
40.3815
 20
30.9088
 11
40.0451
 21
31.4389
  0
LINE
  8
0
 10
40.0451
 20
31.4389
 11
39.6448
 21
31.9227
  0
LINE
  8
0
 10
39.6448
 20
31.9227
 11
39.1871
 21
32.3526
  0
LINE
  8
0
 10
39.1871
 20
32.3526
 11
38.6791
 21
32.7216
  0
LINE
  8
0
 10
38.6791
 20
32.7216
 11
38.1289
 21
33.0241
  0
LINE
  8
0
 10
38.1289
 20
33.0241
 11
37.5451
 21
33.2553
  0
LINE
  8
0
 10
37.5451
 20
33.2553
 11
36.9369
 21
33.4114
  0
LINE
  8
0
 10
36.9369
 20
33.4114
 11
36
 21
33.5
  0
LINE
  8
0
 10
36
 20
33.5
 11
-36
 21
33.5
  0
LINE
  8
0
 10
-36
 20
33.5
 11
-36.6267
 21
33.4606
  0
LINE
  8
0
 10
-36.6267
 20
33.4606
 11
-37.2435
 21
33.3429
  0
LINE
  8
0
 10
-37.2435
 20
33.3429
 11
-37.8406
 21
33.1489
  0
LINE
  8
0
 10
-37.8406
 20
33.1489
 11
-38.4088
 21
32.8815
  0
LINE
  8
0
 10
-38.4088
 20
32.8815
 11
-38.9389
 21
32.5451
  0
LINE
  8
0
 10
-38.9389
 20
32.5451
 11
-39.4227
 21
32.1448
  0
LINE
  8
0
 10
-39.4227
 20
32.1448
 11
-39.8526
 21
31.6871
  0
LINE
  8
0
 10
-39.8526
 20
31.6871
 11
-40.2216
 21
31.1791
  0
LINE
  8
0
 10
-40.2216
 20
31.1791
 11
-40.5241
 21
30.6289
  0
LINE
  8
0
 10
-40.5241
 20
30.6289
 11
-40.7553
 21
30.0451
  0
LINE
  8
0
 10
-40.7553
 20
30.0451
 11
-40.9114
 21
29.4369
  0
LINE
  8
0
 10
-40.9114
 20
29.4369
 11
-41
 21
28.5
  0
LINE
  8
0
 10
-41
 20
28.5
 11
-41
 21
-28.5
  0
LINE
  8
0
 10
-41
 20
-28.5
 11
-40.9606
 21
-29.1267
  0
LINE
  8
0
 10
-40.9606
 20
-29.1267
 11
-40.8429
 21
-29.7435
  0
LINE
  8
0
 10
-40.8429
 20
-29.7435
 11
-40.6489
 21
-30.3406
  0
LINE
  8
0
 10
-40.6489
 20
-30.3406
 11
-40.3815
 21
-30.9088
  0
LINE
  8
0
 10
-40.3815
 20
-30.9088
 11
-40.0451
 21
-31.4389
  0
LINE
  8
0
 10
-40.0451
 20
-31.4389
 11
-39.6448
 21
-31.9227
  0
LINE
  8
0
 10
-39.6448
 20
-31.9227
 11
-39.1871
 21
-32.3526
  0
LINE
  8
0
 10
-39.1871
 20
-32.3526
 11
-38.6791
 21
-32.7216
  0
LINE
  8
0
 10
-38.6791
 20
-32.7216
 11
-38.1289
 21
-33.0241
  0
LINE
  8
0
 10
-38.1289
 20
-33.0241
 11
-37.5451
 21
-33.2553
  0
LINE
  8
0
 10
-37.5451
 20
-33.2553
 11
-36.9369
 21
-33.4114
  0
LINE
  8
0
 10
-36.9369
 20
-33.4114
 11
-36
 21
-33.5
  0
LINE
  8
0
 10
-36
 20
-33.5
 11
36
 21
-33.5
  0
LINE
  8
0
 10
36
 20
-33.5
 11
36.6267
 21
-33.4606
  0
LINE
  8
0
 10
20.1672
 20
14.7605
 11
19.5069
 21
14.8439
  0
LINE
  8
0
 10
19.5069
 20
14.8439
 11
18.8622
 21
15.0094
  0
LINE
  8
0
 10
18.8622
 20
15.0094
 11
18.2434
 21
15.2544
  0
LINE
  8
0
 10
18.2434
 20
15.2544
 11
17.6601
 21
15.5751
  0
LINE
  8
0
 10
17.6601
 20
15.5751
 11
17.1216
 21
15.9663
  0
LINE
  8
0
 10
17.1216
 20
15.9663
 11
16.6365
 21
16.4219
  0
LINE
  8
0
 10
16.6365
 20
16.4219
 11
16.2122
 21
16.9347
  0
LINE
  8
0
 10
16.2122
 20
16.9347
 11
15.8556
 21
17.4967
  0
LINE
  8
0
 10
15.8556
 20
17.4967
 11
15.5722
 21
18.0989
  0
LINE
  8
0
 10
15.5722
 20
18.0989
 11
15.3665
 21
18.7319
  0
LINE
  8
0
 10
15.3665
 20
18.7319
 11
15.2418
 21
19.3857
  0
LINE
  8
0
 10
15.2418
 20
19.3857
 11
15.2
 21
20.05
  0
LINE
  8
0
 10
15.2
 20
20.05
 11
15.2418
 21
20.7143
  0
LINE
  8
0
 10
15.2418
 20
20.7143
 11
15.3665
 21
21.3681
  0
LINE
  8
0
 10
15.3665
 20
21.3681
 11
15.5722
 21
22.0011
  0
LINE
  8
0
 10
15.5722
 20
22.0011
 11
15.8556
 21
22.6033
  0
LINE
  8
0
 10
15.8556
 20
22.6033
 11
16.2122
 21
23.1653
  0
LINE
  8
0
 10
16.2122
 20
23.1653
 11
16.6365
 21
23.6781
  0
LINE
  8
0
 10
16.6365
 20
23.6781
 11
17.1216
 21
24.1337
  0
LINE
  8
0
 10
17.1216
 20
24.1337
 11
17.6601
 21
24.5249
  0
LINE
  8
0
 10
17.6601
 20
24.5249
 11
18.2434
 21
24.8456
  0
LINE
  8
0
 10
18.2434
 20
24.8456
 11
18.8622
 21
25.0906
  0
LINE
  8
0
 10
18.8622
 20
25.0906
 11
19.5069
 21
25.2561
  0
LINE
  8
0
 10
19.5069
 20
25.2561
 11
20.1672
 21
25.3395
  0
LINE
  8
0
 10
20.1672
 20
25.3395
 11
20.8328
 21
25.3395
  0
LINE
  8
0
 10
20.8328
 20
25.3395
 11
21.4931
 21
25.2561
  0
LINE
  8
0
 10
21.4931
 20
25.2561
 11
22.1378
 21
25.0906
  0
LINE
  8
0
 10
22.1378
 20
25.0906
 11
22.7566
 21
24.8456
  0
LINE
  8
0
 10
22.7566
 20
24.8456
 11
23.3399
 21
24.5249
  0
LINE
  8
0
 10
23.3399
 20
24.5249
 11
23.8783
 21
24.1337
  0
LINE
  8
0
 10
23.8783
 20
24.1337
 11
24.3635
 21
23.6781
  0
LINE
  8
0
 10
24.3635
 20
23.6781
 11
24.7878
 21
23.1653
  0
LINE
  8
0
 10
24.7878
 20
23.1653
 11
25.1444
 21
22.6033
  0
LINE
  8
0
 10
25.1444
 20
22.6033
 11
25.4278
 21
22.0011
  0
LINE
  8
0
 10
25.4278
 20
22.0011
 11
25.6335
 21
21.3681
  0
LINE
  8
0
 10
25.6335
 20
21.3681
 11
25.7582
 21
20.7143
  0
LINE
  8
0
 10
25.7582
 20
20.7143
 11
25.8
 21
20.05
  0
LINE
  8
0
 10
25.8
 20
20.05
 11
25.7582
 21
19.3857
  0
LINE
  8
0
 10
25.7582
 20
19.3857
 11
25.6335
 21
18.7319
  0
LINE
  8
0
 10
25.6335
 20
18.7319
 11
25.4278
 21
18.0989
  0
LINE
  8
0
 10
25.4278
 20
18.0989
 11
25.1444
 21
17.4967
  0
LINE
  8
0
 10
25.1444
 20
17.4967
 11
24.7878
 21
16.9347
  0
LINE
  8
0
 10
24.7878
 20
16.9347
 11
24.3635
 21
16.4219
  0
LINE
  8
0
 10
24.3635
 20
16.4219
 11
23.8783
 21
15.9663
  0
LINE
  8
0
 10
23.8783
 20
15.9663
 11
23.3399
 21
15.5751
  0
LINE
  8
0
 10
23.3399
 20
15.5751
 11
22.7566
 21
15.2544
  0
LINE
  8
0
 10
22.7566
 20
15.2544
 11
22.1378
 21
15.0094
  0
LINE
  8
0
 10
22.1378
 20
15.0094
 11
21.4931
 21
14.8439
  0
LINE
  8
0
 10
21.4931
 20
14.8439
 11
20.8328
 21
14.7605
  0
LINE
  8
0
 10
20.8328
 20
14.7605
 11
20.1672
 21
14.7605
  0
LINE
  8
0
 10
-19.8328
 20
14.7605
 11
-20.4931
 21
14.8439
  0
LINE
  8
0
 10
-20.4931
 20
14.8439
 11
-21.1378
 21
15.0094
  0
LINE
  8
0
 10
-21.1378
 20
15.0094
 11
-21.7566
 21
15.2544
  0
LINE
  8
0
 10
-21.7566
 20
15.2544
 11
-22.3399
 21
15.5751
  0
LINE
  8
0
 10
-22.3399
 20
15.5751
 11
-22.8783
 21
15.9663
  0
LINE
  8
0
 10
-22.8783
 20
15.9663
 11
-23.3635
 21
16.4219
  0
LINE
  8
0
 10
-23.3635
 20
16.4219
 11
-23.7878
 21
16.9347
  0
LINE
  8
0
 10
-23.7878
 20
16.9347
 11
-24.1444
 21
17.4967
  0
LINE
  8
0
 10
-24.1444
 20
17.4967
 11
-24.4278
 21
18.0989
  0
LINE
  8
0
 10
-24.4278
 20
18.0989
 11
-24.6335
 21
18.7319
  0
LINE
  8
0
 10
-24.6335
 20
18.7319
 11
-24.7582
 21
19.3857
  0
LINE
  8
0
 10
-24.7582
 20
19.3857
 11
-24.8
 21
20.05
  0
LINE
  8
0
 10
-24.8
 20
20.05
 11
-24.7582
 21
20.7143
  0
LINE
  8
0
 10
-24.7582
 20
20.7143
 11
-24.6335
 21
21.3681
  0
LINE
  8
0
 10
-24.6335
 20
21.3681
 11
-24.4278
 21
22.0011
  0
LINE
  8
0
 10
-24.4278
 20
22.0011
 11
-24.1444
 21
22.6033
  0
LINE
  8
0
 10
-24.1444
 20
22.6033
 11
-23.7878
 21
23.1653
  0
LINE
  8
0
 10
-23.7878
 20
23.1653
 11
-23.3635
 21
23.6781
  0
LINE
  8
0
 10
-23.3635
 20
23.6781
 11
-22.8783
 21
24.1337
  0
LINE
  8
0
 10
-22.8783
 20
24.1337
 11
-22.3399
 21
24.5249
  0
LINE
  8
0
 10
-22.3399
 20
24.5249
 11
-21.7566
 21
24.8456
  0
LINE
  8
0
 10
-21.7566
 20
24.8456
 11
-21.1378
 21
25.0906
  0
LINE
  8
0
 10
-21.1378
 20
25.0906
 11
-20.4931
 21
25.2561
  0
LINE
  8
0
 10
-20.4931
 20
25.2561
 11
-19.8328
 21
25.3395
  0
LINE
  8
0
 10
-19.8328
 20
25.3395
 11
-19.1672
 21
25.3395
  0
LINE
  8
0
 10
-19.1672
 20
25.3395
 11
-18.5069
 21
25.2561
  0
LINE
  8
0
 10
-18.5069
 20
25.2561
 11
-17.8622
 21
25.0906
  0
LINE
  8
0
 10
-17.8622
 20
25.0906
 11
-17.2434
 21
24.8456
  0
LINE
  8
0
 10
-17.2434
 20
24.8456
 11
-16.6601
 21
24.5249
  0
LINE
  8
0
 10
-16.6601
 20
24.5249
 11
-16.1216
 21
24.1337
  0
LINE
  8
0
 10
-16.1216
 20
24.1337
 11
-15.6365
 21
23.6781
  0
LINE
  8
0
 10
-15.6365
 20
23.6781
 11
-15.2122
 21
23.1653
  0
LINE
  8
0
 10
-15.2122
 20
23.1653
 11
-14.8556
 21
22.6033
  0
LINE
  8
0
 10
-14.8556
 20
22.6033
 11
-14.5722
 21
22.0011
  0
LINE
  8
0
 10
-14.5722
 20
22.0011
 11
-14.3665
 21
21.3681
  0
LINE
  8
0
 10
-14.3665
 20
21.3681
 11
-14.2418
 21
20.7143
  0
LINE
  8
0
 10
-14.2418
 20
20.7143
 11
-14.2
 21
20.05
  0
LINE
  8
0
 10
-14.2
 20
20.05
 11
-14.2418
 21
19.3857
  0
LINE
  8
0
 10
-14.2418
 20
19.3857
 11
-14.3665
 21
18.7319
  0
LINE
  8
0
 10
-14.3665
 20
18.7319
 11
-14.5722
 21
18.0989
  0
LINE
  8
0
 10
-14.5722
 20
18.0989
 11
-14.8556
 21
17.4967
  0
LINE
  8
0
 10
-14.8556
 20
17.4967
 11
-15.2122
 21
16.9347
  0
LINE
  8
0
 10
-15.2122
 20
16.9347
 11
-15.6365
 21
16.4219
  0
LINE
  8
0
 10
-15.6365
 20
16.4219
 11
-16.1216
 21
15.9663
  0
LINE
  8
0
 10
-16.1216
 20
15.9663
 11
-16.6601
 21
15.5751
  0
LINE
  8
0
 10
-16.6601
 20
15.5751
 11
-17.2434
 21
15.2544
  0
LINE
  8
0
 10
-17.2434
 20
15.2544
 11
-17.8622
 21
15.0094
  0
LINE
  8
0
 10
-17.8622
 20
15.0094
 11
-18.5069
 21
14.8439
  0
LINE
  8
0
 10
-18.5069
 20
14.8439
 11
-19.1672
 21
14.7605
  0
LINE
  8
0
 10
-19.1672
 20
14.7605
 11
-19.8328
 21
14.7605
  0
LINE
  8
0
 10
0.89325
 20
15.9034
 11
0.681442
 21
15.9301
  0
LINE
  8
0
 10
0.681442
 20
15.9301
 11
0.47467
 21
15.9832
  0
LINE
  8
0
 10
0.47467
 20
15.9832
 11
0.276169
 21
16.0618
  0
LINE
  8
0
 10
0.276169
 20
16.0618
 11
0.0890808
 21
16.1646
  0
LINE
  8
0
 10
0.0890808
 20
16.1646
 11
-0.0836182
 21
16.2901
  0
LINE
  8
0
 10
-0.0836182
 20
16.2901
 11
-0.239243
 21
16.4363
  0
LINE
  8
0
 10
-0.239243
 20
16.4363
 11
-0.37532
 21
16.6008
  0
LINE
  8
0
 10
-0.37532
 20
16.6008
 11
-0.489716
 21
16.781
  0
LINE
  8
0
 10
-0.489716
 20
16.781
 11
-0.580612
 21
16.9742
  0
LINE
  8
0
 10
-0.580612
 20
16.9742
 11
-0.646591
 21
17.1772
  0
LINE
  8
0
 10
-0.646591
 20
17.1772
 11
-0.686584
 21
17.3869
  0
LINE
  8
0
 10
-0.686584
 20
17.3869
 11
-0.699997
 21
17.6
  0
LINE
  8
0
 10
-0.699997
 20
17.6
 11
-0.686584
 21
17.8131
  0
LINE
  8
0
 10
-0.686584
 20
17.8131
 11
-0.646591
 21
18.0228
  0
LINE
  8
0
 10
-0.646591
 20
18.0228
 11
-0.580612
 21
18.2258
  0
LINE
  8
0
 10
-0.580612
 20
18.2258
 11
-0.489716
 21
18.419
  0
LINE
  8
0
 10
-0.489716
 20
18.419
 11
-0.37532
 21
18.5992
  0
LINE
  8
0
 10
-0.37532
 20
18.5992
 11
-0.239243
 21
18.7637
  0
LINE
  8
0
 10
-0.239243
 20
18.7637
 11
-0.0836182
 21
18.9099
  0
LINE
  8
0
 10
-0.0836182
 20
18.9099
 11
0.0890808
 21
19.0354
  0
LINE
  8
0
 10
0.0890808
 20
19.0354
 11
0.276169
 21
19.1382
  0
LINE
  8
0
 10
0.276169
 20
19.1382
 11
0.47467
 21
19.2168
  0
LINE
  8
0
 10
0.47467
 20
19.2168
 11
0.681442
 21
19.2699
  0
LINE
  8
0
 10
0.681442
 20
19.2699
 11
0.89325
 21
19.2966
  0
LINE
  8
0
 10
0.89325
 20
19.2966
 11
1.10674
 21
19.2966
  0
LINE
  8
0
 10
1.10674
 20
19.2966
 11
1.31854
 21
19.2699
  0
LINE
  8
0
 10
1.31854
 20
19.2699
 11
1.52531
 21
19.2168
  0
LINE
  8
0
 10
1.52531
 20
19.2168
 11
1.72382
 21
19.1382
  0
LINE
  8
0
 10
1.72382
 20
19.1382
 11
1.9109
 21
19.0354
  0
LINE
  8
0
 10
1.9109
 20
19.0354
 11
2.08362
 21
18.9099
  0
LINE
  8
0
 10
2.08362
 20
18.9099
 11
2.23924
 21
18.7637
  0
LINE
  8
0
 10
2.23924
 20
18.7637
 11
2.37532
 21
18.5992
  0
LINE
  8
0
 10
2.37532
 20
18.5992
 11
2.48972
 21
18.419
  0
LINE
  8
0
 10
2.48972
 20
18.419
 11
2.58061
 21
18.2258
  0
LINE
  8
0
 10
2.58061
 20
18.2258
 11
2.64659
 21
18.0228
  0
LINE
  8
0
 10
2.64659
 20
18.0228
 11
2.68658
 21
17.8131
  0
LINE
  8
0
 10
2.68658
 20
17.8131
 11
2.7
 21
17.6
  0
LINE
  8
0
 10
2.7
 20
17.6
 11
2.68658
 21
17.3869
  0
LINE
  8
0
 10
2.68658
 20
17.3869
 11
2.64659
 21
17.1772
  0
LINE
  8
0
 10
2.64659
 20
17.1772
 11
2.58061
 21
16.9742
  0
LINE
  8
0
 10
2.58061
 20
16.9742
 11
2.48972
 21
16.781
  0
LINE
  8
0
 10
2.48972
 20
16.781
 11
2.37532
 21
16.6008
  0
LINE
  8
0
 10
2.37532
 20
16.6008
 11
2.23924
 21
16.4363
  0
LINE
  8
0
 10
2.23924
 20
16.4363
 11
2.08362
 21
16.2901
  0
LINE
  8
0
 10
2.08362
 20
16.2901
 11
1.9109
 21
16.1646
  0
LINE
  8
0
 10
1.9109
 20
16.1646
 11
1.72382
 21
16.0618
  0
LINE
  8
0
 10
1.72382
 20
16.0618
 11
1.52531
 21
15.9832
  0
LINE
  8
0
 10
1.52531
 20
15.9832
 11
1.31854
 21
15.9301
  0
LINE
  8
0
 10
1.31854
 20
15.9301
 11
1.10674
 21
15.9034
  0
LINE
  8
0
 10
1.10674
 20
15.9034
 11
0.89325
 21
15.9034
  0
LINE
  8
0
 10
23.8932
 20
5.80334
 11
23.6814
 21
5.83011
  0
LINE
  8
0
 10
23.6814
 20
5.83011
 11
23.4747
 21
5.88319
  0
LINE
  8
0
 10
23.4747
 20
5.88319
 11
23.2762
 21
5.96179
  0
LINE
  8
0
 10
23.2762
 20
5.96179
 11
23.0891
 21
6.06464
  0
LINE
  8
0
 10
23.0891
 20
6.06464
 11
22.9164
 21
6.19012
  0
LINE
  8
0
 10
22.9164
 20
6.19012
 11
22.7607
 21
6.33626
  0
LINE
  8
0
 10
22.7607
 20
6.33626
 11
22.6247
 21
6.50076
  0
LINE
  8
0
 10
22.6247
 20
6.50076
 11
22.5103
 21
6.68102
  0
LINE
  8
0
 10
22.5103
 20
6.68102
 11
22.4194
 21
6.87418
  0
LINE
  8
0
 10
22.4194
 20
6.87418
 11
22.3534
 21
7.07722
  0
LINE
  8
0
 10
22.3534
 20
7.07722
 11
22.3134
 21
7.28693
  0
LINE
  8
0
 10
22.3134
 20
7.28693
 11
22.3
 21
7.5
  0
LINE
  8
0
 10
22.3
 20
7.5
 11
22.3134
 21
7.71306
  0
LINE
  8
0
 10
22.3134
 20
7.71306
 11
22.3534
 21
7.92276
  0
LINE
  8
0
 10
22.3534
 20
7.92276
 11
22.4194
 21
8.12581
  0
LINE
  8
0
 10
22.4194
 20
8.12581
 11
22.5103
 21
8.31897
  0
LINE
  8
0
 10
22.5103
 20
8.31897
 11
22.6247
 21
8.49922
  0
LINE
  8
0
 10
22.6247
 20
8.49922
 11
22.7607
 21
8.66373
  0
LINE
  8
0
 10
22.7607
 20
8.66373
 11
22.9164
 21
8.80986
  0
LINE
  8
0
 10
22.9164
 20
8.80986
 11
23.0891
 21
8.93535
  0
LINE
  8
0
 10
23.0891
 20
8.93535
 11
23.2762
 21
9.03819
  0
LINE
  8
0
 10
23.2762
 20
9.03819
 11
23.4747
 21
9.11679
  0
LINE
  8
0
 10
23.4747
 20
9.11679
 11
23.6814
 21
9.16988
  0
LINE
  8
0
 10
23.6814
 20
9.16988
 11
23.8932
 21
9.19664
  0
LINE
  8
0
 10
23.8932
 20
9.19664
 11
24.1067
 21
9.19664
  0
LINE
  8
0
 10
24.1067
 20
9.19664
 11
24.3185
 21
9.16988
  0
LINE
  8
0
 10
24.3185
 20
9.16988
 11
24.5253
 21
9.11679
  0
LINE
  8
0
 10
24.5253
 20
9.11679
 11
24.7238
 21
9.03819
  0
LINE
  8
0
 10
24.7238
 20
9.03819
 11
24.9109
 21
8.93535
  0
LINE
  8
0
 10
24.9109
 20
8.93535
 11
25.0836
 21
8.80986
  0
LINE
  8
0
 10
25.0836
 20
8.80986
 11
25.2392
 21
8.66373
  0
LINE
  8
0
 10
25.2392
 20
8.66373
 11
25.3753
 21
8.49922
  0
LINE
  8
0
 10
25.3753
 20
8.49922
 11
25.4897
 21
8.31897
  0
LINE
  8
0
 10
25.4897
 20
8.31897
 11
25.5806
 21
8.12581
  0
LINE
  8
0
 10
25.5806
 20
8.12581
 11
25.6466
 21
7.92276
  0
LINE
  8
0
 10
25.6466
 20
7.92276
 11
25.6866
 21
7.71306
  0
LINE
  8
0
 10
25.6866
 20
7.71306
 11
25.7
 21
7.5
  0
LINE
  8
0
 10
25.7
 20
7.5
 11
25.6866
 21
7.28693
  0
LINE
  8
0
 10
25.6866
 20
7.28693
 11
25.6466
 21
7.07722
  0
LINE
  8
0
 10
25.6466
 20
7.07722
 11
25.5806
 21
6.87418
  0
LINE
  8
0
 10
25.5806
 20
6.87418
 11
25.4897
 21
6.68102
  0
LINE
  8
0
 10
25.4897
 20
6.68102
 11
25.3753
 21
6.50076
  0
LINE
  8
0
 10
25.3753
 20
6.50076
 11
25.2392
 21
6.33626
  0
LINE
  8
0
 10
25.2392
 20
6.33626
 11
25.0836
 21
6.19012
  0
LINE
  8
0
 10
25.0836
 20
6.19012
 11
24.9109
 21
6.06464
  0
LINE
  8
0
 10
24.9109
 20
6.06464
 11
24.7238
 21
5.96179
  0
LINE
  8
0
 10
24.7238
 20
5.96179
 11
24.5253
 21
5.88319
  0
LINE
  8
0
 10
24.5253
 20
5.88319
 11
24.3185
 21
5.83011
  0
LINE
  8
0
 10
24.3185
 20
5.83011
 11
24.1067
 21
5.80334
  0
LINE
  8
0
 10
24.1067
 20
5.80334
 11
23.8932
 21
5.80334
  0
LINE
  8
0
 10
9.89325
 20
5.80334
 11
9.68144
 21
5.83011
  0
LINE
  8
0
 10
9.68144
 20
5.83011
 11
9.47467
 21
5.88319
  0
LINE
  8
0
 10
9.47467
 20
5.88319
 11
9.27617
 21
5.96179
  0
LINE
  8
0
 10
9.27617
 20
5.96179
 11
9.08908
 21
6.06464
  0
LINE
  8
0
 10
9.08908
 20
6.06464
 11
8.91637
 21
6.19012
  0
LINE
  8
0
 10
8.91637
 20
6.19012
 11
8.76074
 21
6.33626
  0
LINE
  8
0
 10
8.76074
 20
6.33626
 11
8.62466
 21
6.50076
  0
LINE
  8
0
 10
8.62466
 20
6.50076
 11
8.51027
 21
6.68102
  0
LINE
  8
0
 10
8.51027
 20
6.68102
 11
8.41937
 21
6.87418
  0
LINE
  8
0
 10
8.41937
 20
6.87418
 11
8.35339
 21
7.07722
  0
LINE
  8
0
 10
8.35339
 20
7.07722
 11
8.3134
 21
7.28693
  0
LINE
  8
0
 10
8.3134
 20
7.28693
 11
8.29999
 21
7.5
  0
LINE
  8
0
 10
8.29999
 20
7.5
 11
8.3134
 21
7.71306
  0
LINE
  8
0
 10
8.3134
 20
7.71306
 11
8.35339
 21
7.92276
  0
LINE
  8
0
 10
8.35339
 20
7.92276
 11
8.41937
 21
8.12581
  0
LINE
  8
0
 10
8.41937
 20
8.12581
 11
8.51027
 21
8.31897
  0
LINE
  8
0
 10
8.51027
 20
8.31897
 11
8.62466
 21
8.49922
  0
LINE
  8
0
 10
8.62466
 20
8.49922
 11
8.76074
 21
8.66373
  0
LINE
  8
0
 10
8.76074
 20
8.66373
 11
8.91637
 21
8.80986
  0
LINE
  8
0
 10
8.91637
 20
8.80986
 11
9.08908
 21
8.93535
  0
LINE
  8
0
 10
9.08908
 20
8.93535
 11
9.27617
 21
9.03819
  0
LINE
  8
0
 10
9.27617
 20
9.03819
 11
9.47467
 21
9.11679
  0
LINE
  8
0
 10
9.47467
 20
9.11679
 11
9.68144
 21
9.16988
  0
LINE
  8
0
 10
9.68144
 20
9.16988
 11
9.89325
 21
9.19664
  0
LINE
  8
0
 10
9.89325
 20
9.19664
 11
10.1067
 21
9.19664
  0
LINE
  8
0
 10
10.1067
 20
9.19664
 11
10.3185
 21
9.16988
  0
LINE
  8
0
 10
10.3185
 20
9.16988
 11
10.5253
 21
9.11679
  0
LINE
  8
0
 10
10.5253
 20
9.11679
 11
10.7238
 21
9.03819
  0
LINE
  8
0
 10
10.7238
 20
9.03819
 11
10.9109
 21
8.93535
  0
LINE
  8
0
 10
10.9109
 20
8.93535
 11
11.0836
 21
8.80986
  0
LINE
  8
0
 10
11.0836
 20
8.80986
 11
11.2392
 21
8.66373
  0
LINE
  8
0
 10
11.2392
 20
8.66373
 11
11.3753
 21
8.49922
  0
LINE
  8
0
 10
11.3753
 20
8.49922
 11
11.4897
 21
8.31897
  0
LINE
  8
0
 10
11.4897
 20
8.31897
 11
11.5806
 21
8.12581
  0
LINE
  8
0
 10
11.5806
 20
8.12581
 11
11.6466
 21
7.92276
  0
LINE
  8
0
 10
11.6466
 20
7.92276
 11
11.6866
 21
7.71306
  0
LINE
  8
0
 10
11.6866
 20
7.71306
 11
11.7
 21
7.5
  0
LINE
  8
0
 10
11.7
 20
7.5
 11
11.6866
 21
7.28693
  0
LINE
  8
0
 10
11.6866
 20
7.28693
 11
11.6466
 21
7.07722
  0
LINE
  8
0
 10
11.6466
 20
7.07722
 11
11.5806
 21
6.87418
  0
LINE
  8
0
 10
11.5806
 20
6.87418
 11
11.4897
 21
6.68102
  0
LINE
  8
0
 10
11.4897
 20
6.68102
 11
11.3753
 21
6.50076
  0
LINE
  8
0
 10
11.3753
 20
6.50076
 11
11.2392
 21
6.33626
  0
LINE
  8
0
 10
11.2392
 20
6.33626
 11
11.0836
 21
6.19012
  0
LINE
  8
0
 10
11.0836
 20
6.19012
 11
10.9109
 21
6.06464
  0
LINE
  8
0
 10
10.9109
 20
6.06464
 11
10.7238
 21
5.96179
  0
LINE
  8
0
 10
10.7238
 20
5.96179
 11
10.5253
 21
5.88319
  0
LINE
  8
0
 10
10.5253
 20
5.88319
 11
10.3185
 21
5.83011
  0
LINE
  8
0
 10
10.3185
 20
5.83011
 11
10.1067
 21
5.80334
  0
LINE
  8
0
 10
10.1067
 20
5.80334
 11
9.89325
 21
5.80334
  0
LINE
  8
0
 10
-18.6067
 20
-2.99664
 11
-18.8185
 21
-2.96988
  0
LINE
  8
0
 10
-18.8185
 20
-2.96988
 11
-19.0253
 21
-2.91679
  0
LINE
  8
0
 10
-19.0253
 20
-2.91679
 11
-19.2238
 21
-2.8382
  0
LINE
  8
0
 10
-19.2238
 20
-2.8382
 11
-19.4109
 21
-2.73535
  0
LINE
  8
0
 10
-19.4109
 20
-2.73535
 11
-19.5836
 21
-2.60986
  0
LINE
  8
0
 10
-19.5836
 20
-2.60986
 11
-19.7392
 21
-2.46373
  0
LINE
  8
0
 10
-19.7392
 20
-2.46373
 11
-19.8753
 21
-2.29922
  0
LINE
  8
0
 10
-19.8753
 20
-2.29922
 11
-19.9897
 21
-2.11897
  0
LINE
  8
0
 10
-19.9897
 20
-2.11897
 11
-20.0806
 21
-1.9258
  0
LINE
  8
0
 10
-20.0806
 20
-1.9258
 11
-20.1466
 21
-1.72276
  0
LINE
  8
0
 10
-20.1466
 20
-1.72276
 11
-20.1866
 21
-1.51306
  0
LINE
  8
0
 10
-20.1866
 20
-1.51306
 11
-20.2
 21
-1.29999
  0
LINE
  8
0
 10
-20.2
 20
-1.29999
 11
-20.1866
 21
-1.08693
  0
LINE
  8
0
 10
-20.1866
 20
-1.08693
 11
-20.1466
 21
-0.877213
  0
LINE
  8
0
 10
-20.1466
 20
-0.877213
 11
-20.0806
 21
-0.674179
  0
LINE
  8
0
 10
-20.0806
 20
-0.674179
 11
-19.9897
 21
-0.481018
  0
LINE
  8
0
 10
-19.9897
 20
-0.481018
 11
-19.8753
 21
-0.300751
  0
LINE
  8
0
 10
-19.8753
 20
-0.300751
 11
-19.7392
 21
-0.136261
  0
LINE
  8
0
 10
-19.7392
 20
-0.136261
 11
-19.5836
 21
0.00987244
  0
LINE
  8
0
 10
-19.5836
 20
0.00987244
 11
-19.4109
 21
0.135345
  0
LINE
  8
0
 10
-19.4109
 20
0.135345
 11
-19.2238
 21
0.238205
  0
LINE
  8
0
 10
-19.2238
 20
0.238205
 11
-19.0253
 21
0.316788
  0
LINE
  8
0
 10
-19.0253
 20
0.316788
 11
-18.8185
 21
0.369888
  0
LINE
  8
0
 10
-18.8185
 20
0.369888
 11
-18.6067
 21
0.396637
  0
LINE
  8
0
 10
-18.6067
 20
0.396637
 11
-18.3932
 21
0.396637
  0
LINE
  8
0
 10
-18.3932
 20
0.396637
 11
-18.1814
 21
0.369888
  0
LINE
  8
0
 10
-18.1814
 20
0.369888
 11
-17.9747
 21
0.316788
  0
LINE
  8
0
 10
-17.9747
 20
0.316788
 11
-17.7762
 21
0.238205
  0
LINE
  8
0
 10
-17.7762
 20
0.238205
 11
-17.5891
 21
0.135345
  0
LINE
  8
0
 10
-17.5891
 20
0.135345
 11
-17.4164
 21
0.00987244
  0
LINE
  8
0
 10
-17.4164
 20
0.00987244
 11
-17.2607
 21
-0.136261
  0
LINE
  8
0
 10
-17.2607
 20
-0.136261
 11
-17.1247
 21
-0.300751
  0
LINE
  8
0
 10
-17.1247
 20
-0.300751
 11
-17.0103
 21
-0.481018
  0
LINE
  8
0
 10
-17.0103
 20
-0.481018
 11
-16.9194
 21
-0.674179
  0
LINE
  8
0
 10
-16.9194
 20
-0.674179
 11
-16.8534
 21
-0.877213
  0
LINE
  8
0
 10
-16.8534
 20
-0.877213
 11
-16.8134
 21
-1.08693
  0
LINE
  8
0
 10
-16.8134
 20
-1.08693
 11
-16.8
 21
-1.29999
  0
LINE
  8
0
 10
-16.8
 20
-1.29999
 11
-16.8134
 21
-1.51306
  0
LINE
  8
0
 10
-16.8134
 20
-1.51306
 11
-16.8534
 21
-1.72276
  0
LINE
  8
0
 10
-16.8534
 20
-1.72276
 11
-16.9194
 21
-1.9258
  0
LINE
  8
0
 10
-16.9194
 20
-1.9258
 11
-17.0103
 21
-2.11897
  0
LINE
  8
0
 10
-17.0103
 20
-2.11897
 11
-17.1247
 21
-2.29922
  0
LINE
  8
0
 10
-17.1247
 20
-2.29922
 11
-17.2607
 21
-2.46373
  0
LINE
  8
0
 10
-17.2607
 20
-2.46373
 11
-17.4164
 21
-2.60986
  0
LINE
  8
0
 10
-17.4164
 20
-2.60986
 11
-17.5891
 21
-2.73535
  0
LINE
  8
0
 10
-17.5891
 20
-2.73535
 11
-17.7762
 21
-2.8382
  0
LINE
  8
0
 10
-17.7762
 20
-2.8382
 11
-17.9747
 21
-2.91679
  0
LINE
  8
0
 10
-17.9747
 20
-2.91679
 11
-18.1814
 21
-2.96988
  0
LINE
  8
0
 10
-18.1814
 20
-2.96988
 11
-18.3932
 21
-2.99664
  0
LINE
  8
0
 10
-18.3932
 20
-2.99664
 11
-18.6067
 21
-2.99664
  0
LINE
  8
0
 10
0.167206
 20
-25.4395
 11
-0.493118
 21
-25.3561
  0
LINE
  8
0
 10
-0.493118
 20
-25.3561
 11
-1.13779
 21
-25.1906
  0
LINE
  8
0
 10
-1.13779
 20
-25.1906
 11
-1.75662
 21
-24.9456
  0
LINE
  8
0
 10
-1.75662
 20
-24.9456
 11
-2.33987
 21
-24.6249
  0
LINE
  8
0
 10
-2.33987
 20
-24.6249
 11
-2.87834
 21
-24.2337
  0
LINE
  8
0
 10
-2.87834
 20
-24.2337
 11
-3.36353
 21
-23.7781
  0
LINE
  8
0
 10
-3.36353
 20
-23.7781
 11
-3.78778
 21
-23.2653
  0
LINE
  8
0
 10
-3.78778
 20
-23.2653
 11
-4.14442
 21
-22.7033
  0
LINE
  8
0
 10
-4.14442
 20
-22.7033
 11
-4.42781
 21
-22.1011
  0
LINE
  8
0
 10
-4.42781
 20
-22.1011
 11
-4.63348
 21
-21.468
  0
LINE
  8
0
 10
-4.63348
 20
-21.468
 11
-4.75819
 21
-20.8143
  0
LINE
  8
0
 10
-4.75819
 20
-20.8143
 11
-4.79999
 21
-20.15
  0
LINE
  8
0
 10
-4.79999
 20
-20.15
 11
-4.75819
 21
-19.4857
  0
LINE
  8
0
 10
-4.75819
 20
-19.4857
 11
-4.63348
 21
-18.8319
  0
LINE
  8
0
 10
-4.63348
 20
-18.8319
 11
-4.42781
 21
-18.1989
  0
LINE
  8
0
 10
-4.42781
 20
-18.1989
 11
-4.14442
 21
-17.5967
  0
LINE
  8
0
 10
-4.14442
 20
-17.5967
 11
-3.78778
 21
-17.0347
  0
LINE
  8
0
 10
-3.78778
 20
-17.0347
 11
-3.36353
 21
-16.5219
  0
LINE
  8
0
 10
-3.36353
 20
-16.5219
 11
-2.87834
 21
-16.0663
  0
LINE
  8
0
 10
-2.87834
 20
-16.0663
 11
-2.33987
 21
-15.675
  0
LINE
  8
0
 10
-2.33987
 20
-15.675
 11
-1.75662
 21
-15.3544
  0
LINE
  8
0
 10
-1.75662
 20
-15.3544
 11
-1.13779
 21
-15.1094
  0
LINE
  8
0
 10
-1.13779
 20
-15.1094
 11
-0.493118
 21
-14.9439
  0
LINE
  8
0
 10
-0.493118
 20
-14.9439
 11
0.167206
 21
-14.8604
  0
LINE
  8
0
 10
0.167206
 20
-14.8604
 11
0.832779
 21
-14.8604
  0
LINE
  8
0
 10
0.832779
 20
-14.8604
 11
1.49312
 21
-14.9439
  0
LINE
  8
0
 10
1.49312
 20
-14.9439
 11
2.13779
 21
-15.1094
  0
LINE
  8
0
 10
2.13779
 20
-15.1094
 11
2.75662
 21
-15.3544
  0
LINE
  8
0
 10
2.75662
 20
-15.3544
 11
3.33987
 21
-15.675
  0
LINE
  8
0
 10
3.33987
 20
-15.675
 11
3.87834
 21
-16.0663
  0
LINE
  8
0
 10
3.87834
 20
-16.0663
 11
4.36353
 21
-16.5219
  0
LINE
  8
0
 10
4.36353
 20
-16.5219
 11
4.78778
 21
-17.0347
  0
LINE
  8
0
 10
4.78778
 20
-17.0347
 11
5.14442
 21
-17.5967
  0
LINE
  8
0
 10
5.14442
 20
-17.5967
 11
5.42781
 21
-18.1989
  0
LINE
  8
0
 10
5.42781
 20
-18.1989
 11
5.63348
 21
-18.8319
  0
LINE
  8
0
 10
5.63348
 20
-18.8319
 11
5.75819
 21
-19.4857
  0
LINE
  8
0
 10
5.75819
 20
-19.4857
 11
5.79999
 21
-20.15
  0
LINE
  8
0
 10
5.79999
 20
-20.15
 11
5.75819
 21
-20.8143
  0
LINE
  8
0
 10
5.75819
 20
-20.8143
 11
5.63348
 21
-21.468
  0
LINE
  8
0
 10
5.63348
 20
-21.468
 11
5.42781
 21
-22.1011
  0
LINE
  8
0
 10
5.42781
 20
-22.1011
 11
5.14442
 21
-22.7033
  0
LINE
  8
0
 10
5.14442
 20
-22.7033
 11
4.78778
 21
-23.2653
  0
LINE
  8
0
 10
4.78778
 20
-23.2653
 11
4.36353
 21
-23.7781
  0
LINE
  8
0
 10
4.36353
 20
-23.7781
 11
3.87834
 21
-24.2337
  0
LINE
  8
0
 10
3.87834
 20
-24.2337
 11
3.33987
 21
-24.6249
  0
LINE
  8
0
 10
3.33987
 20
-24.6249
 11
2.75662
 21
-24.9456
  0
LINE
  8
0
 10
2.75662
 20
-24.9456
 11
2.13779
 21
-25.1906
  0
LINE
  8
0
 10
2.13779
 20
-25.1906
 11
1.49312
 21
-25.3561
  0
LINE
  8
0
 10
1.49312
 20
-25.3561
 11
0.832779
 21
-25.4395
  0
LINE
  8
0
 10
0.832779
 20
-25.4395
 11
0.167206
 21
-25.4395
  0
LINE
  8
0
 10
14.7959
 20
-25.7436
 11
14.391
 21
-25.6924
  0
LINE
  8
0
 10
14.391
 20
-25.6924
 11
13.9957
 21
-25.5909
  0
LINE
  8
0
 10
13.9957
 20
-25.5909
 11
13.6162
 21
-25.4407
  0
LINE
  8
0
 10
13.6162
 20
-25.4407
 11
13.2586
 21
-25.2441
  0
LINE
  8
0
 10
13.2586
 20
-25.2441
 11
12.9284
 21
-25.0042
  0
LINE
  8
0
 10
12.9284
 20
-25.0042
 11
12.6308
 21
-24.7248
  0
LINE
  8
0
 10
12.6308
 20
-24.7248
 11
12.3707
 21
-24.4103
  0
LINE
  8
0
 10
12.3707
 20
-24.4103
 11
12.152
 21
-24.0657
  0
LINE
  8
0
 10
12.152
 20
-24.0657
 11
11.9782
 21
-23.6964
  0
LINE
  8
0
 10
11.9782
 20
-23.6964
 11
11.8521
 21
-23.3082
  0
LINE
  8
0
 10
11.8521
 20
-23.3082
 11
11.7756
 21
-22.9073
  0
LINE
  8
0
 10
11.7756
 20
-22.9073
 11
11.75
 21
-22.5
  0
LINE
  8
0
 10
11.75
 20
-22.5
 11
11.7756
 21
-22.0927
  0
LINE
  8
0
 10
11.7756
 20
-22.0927
 11
11.8521
 21
-21.6918
  0
LINE
  8
0
 10
11.8521
 20
-21.6918
 11
11.9782
 21
-21.3036
  0
LINE
  8
0
 10
11.9782
 20
-21.3036
 11
12.152
 21
-20.9343
  0
LINE
  8
0
 10
12.152
 20
-20.9343
 11
12.3707
 21
-20.5897
  0
LINE
  8
0
 10
12.3707
 20
-20.5897
 11
12.6308
 21
-20.2752
  0
LINE
  8
0
 10
12.6308
 20
-20.2752
 11
12.9284
 21
-19.9958
  0
LINE
  8
0
 10
12.9284
 20
-19.9958
 11
13.2586
 21
-19.7559
  0
LINE
  8
0
 10
13.2586
 20
-19.7559
 11
13.6162
 21
-19.5593
  0
LINE
  8
0
 10
13.6162
 20
-19.5593
 11
13.9957
 21
-19.4091
  0
LINE
  8
0
 10
13.9957
 20
-19.4091
 11
14.391
 21
-19.3076
  0
LINE
  8
0
 10
14.391
 20
-19.3076
 11
14.7959
 21
-19.2564
  0
LINE
  8
0
 10
14.7959
 20
-19.2564
 11
15.2041
 21
-19.2564
  0
LINE
  8
0
 10
15.2041
 20
-19.2564
 11
15.609
 21
-19.3076
  0
LINE
  8
0
 10
15.609
 20
-19.3076
 11
16.0043
 21
-19.4091
  0
LINE
  8
0
 10
16.0043
 20
-19.4091
 11
16.3838
 21
-19.5593
  0
LINE
  8
0
 10
16.3838
 20
-19.5593
 11
16.7414
 21
-19.7559
  0
LINE
  8
0
 10
16.7414
 20
-19.7559
 11
17.0716
 21
-19.9958
  0
LINE
  8
0
 10
17.0716
 20
-19.9958
 11
17.3691
 21
-20.2752
  0
LINE
  8
0
 10
17.3691
 20
-20.2752
 11
17.6293
 21
-20.5897
  0
LINE
  8
0
 10
17.6293
 20
-20.5897
 11
17.848
 21
-20.9343
  0
LINE
  8
0
 10
17.848
 20
-20.9343
 11
18.0218
 21
-21.3036
  0
LINE
  8
0
 10
18.0218
 20
-21.3036
 11
18.1479
 21
-21.6918
  0
LINE
  8
0
 10
18.1479
 20
-21.6918
 11
18.2244
 21
-22.0927
  0
LINE
  8
0
 10
18.2244
 20
-22.0927
 11
18.25
 21
-22.5
  0
LINE
  8
0
 10
18.25
 20
-22.5
 11
18.2244
 21
-22.9073
  0
LINE
  8
0
 10
18.2244
 20
-22.9073
 11
18.1479
 21
-23.3082
  0
LINE
  8
0
 10
18.1479
 20
-23.3082
 11
18.0218
 21
-23.6964
  0
LINE
  8
0
 10
18.0218
 20
-23.6964
 11
17.848
 21
-24.0657
  0
LINE
  8
0
 10
17.848
 20
-24.0657
 11
17.6293
 21
-24.4103
  0
LINE
  8
0
 10
17.6293
 20
-24.4103
 11
17.3691
 21
-24.7248
  0
LINE
  8
0
 10
17.3691
 20
-24.7248
 11
17.0716
 21
-25.0042
  0
LINE
  8
0
 10
17.0716
 20
-25.0042
 11
16.7414
 21
-25.2441
  0
LINE
  8
0
 10
16.7414
 20
-25.2441
 11
16.3838
 21
-25.4407
  0
LINE
  8
0
 10
16.3838
 20
-25.4407
 11
16.0043
 21
-25.5909
  0
LINE
  8
0
 10
16.0043
 20
-25.5909
 11
15.609
 21
-25.6924
  0
LINE
  8
0
 10
15.609
 20
-25.6924
 11
15.2041
 21
-25.7436
  0
LINE
  8
0
 10
15.2041
 20
-25.7436
 11
14.7959
 21
-25.7436
  0
LINE
  8
0
 10
29.7959
 20
-25.7436
 11
29.391
 21
-25.6924
  0
LINE
  8
0
 10
29.391
 20
-25.6924
 11
28.9957
 21
-25.5909
  0
LINE
  8
0
 10
28.9957
 20
-25.5909
 11
28.6162
 21
-25.4407
  0
LINE
  8
0
 10
28.6162
 20
-25.4407
 11
28.2586
 21
-25.2441
  0
LINE
  8
0
 10
28.2586
 20
-25.2441
 11
27.9284
 21
-25.0042
  0
LINE
  8
0
 10
27.9284
 20
-25.0042
 11
27.6308
 21
-24.7248
  0
LINE
  8
0
 10
27.6308
 20
-24.7248
 11
27.3707
 21
-24.4103
  0
LINE
  8
0
 10
27.3707
 20
-24.4103
 11
27.152
 21
-24.0657
  0
LINE
  8
0
 10
27.152
 20
-24.0657
 11
26.9782
 21
-23.6964
  0
LINE
  8
0
 10
26.9782
 20
-23.6964
 11
26.8521
 21
-23.3082
  0
LINE
  8
0
 10
26.8521
 20
-23.3082
 11
26.7756
 21
-22.9073
  0
LINE
  8
0
 10
26.7756
 20
-22.9073
 11
26.75
 21
-22.5
  0
LINE
  8
0
 10
26.75
 20
-22.5
 11
26.7756
 21
-22.0927
  0
LINE
  8
0
 10
26.7756
 20
-22.0927
 11
26.8521
 21
-21.6918
  0
LINE
  8
0
 10
26.8521
 20
-21.6918
 11
26.9782
 21
-21.3036
  0
LINE
  8
0
 10
26.9782
 20
-21.3036
 11
27.152
 21
-20.9343
  0
LINE
  8
0
 10
27.152
 20
-20.9343
 11
27.3707
 21
-20.5897
  0
LINE
  8
0
 10
27.3707
 20
-20.5897
 11
27.6308
 21
-20.2752
  0
LINE
  8
0
 10
27.6308
 20
-20.2752
 11
27.9284
 21
-19.9958
  0
LINE
  8
0
 10
27.9284
 20
-19.9958
 11
28.2586
 21
-19.7559
  0
LINE
  8
0
 10
28.2586
 20
-19.7559
 11
28.6162
 21
-19.5593
  0
LINE
  8
0
 10
28.6162
 20
-19.5593
 11
28.9957
 21
-19.4091
  0
LINE
  8
0
 10
28.9957
 20
-19.4091
 11
29.391
 21
-19.3076
  0
LINE
  8
0
 10
29.391
 20
-19.3076
 11
29.7959
 21
-19.2564
  0
LINE
  8
0
 10
29.7959
 20
-19.2564
 11
30.2041
 21
-19.2564
  0
LINE
  8
0
 10
30.2041
 20
-19.2564
 11
30.609
 21
-19.3076
  0
LINE
  8
0
 10
30.609
 20
-19.3076
 11
31.0043
 21
-19.4091
  0
LINE
  8
0
 10
31.0043
 20
-19.4091
 11
31.3838
 21
-19.5593
  0
LINE
  8
0
 10
31.3838
 20
-19.5593
 11
31.7414
 21
-19.7559
  0
LINE
  8
0
 10
31.7414
 20
-19.7559
 11
32.0716
 21
-19.9958
  0
LINE
  8
0
 10
32.0716
 20
-19.9958
 11
32.3691
 21
-20.2752
  0
LINE
  8
0
 10
32.3691
 20
-20.2752
 11
32.6293
 21
-20.5897
  0
LINE
  8
0
 10
32.6293
 20
-20.5897
 11
32.848
 21
-20.9343
  0
LINE
  8
0
 10
32.848
 20
-20.9343
 11
33.0218
 21
-21.3036
  0
LINE
  8
0
 10
33.0218
 20
-21.3036
 11
33.1479
 21
-21.6918
  0
LINE
  8
0
 10
33.1479
 20
-21.6918
 11
33.2244
 21
-22.0927
  0
LINE
  8
0
 10
33.2244
 20
-22.0927
 11
33.25
 21
-22.5
  0
LINE
  8
0
 10
33.25
 20
-22.5
 11
33.2244
 21
-22.9073
  0
LINE
  8
0
 10
33.2244
 20
-22.9073
 11
33.1479
 21
-23.3082
  0
LINE
  8
0
 10
33.1479
 20
-23.3082
 11
33.0218
 21
-23.6964
  0
LINE
  8
0
 10
33.0218
 20
-23.6964
 11
32.848
 21
-24.0657
  0
LINE
  8
0
 10
32.848
 20
-24.0657
 11
32.6293
 21
-24.4103
  0
LINE
  8
0
 10
32.6293
 20
-24.4103
 11
32.3691
 21
-24.7248
  0
LINE
  8
0
 10
32.3691
 20
-24.7248
 11
32.0716
 21
-25.0042
  0
LINE
  8
0
 10
32.0716
 20
-25.0042
 11
31.7414
 21
-25.2441
  0
LINE
  8
0
 10
31.7414
 20
-25.2441
 11
31.3838
 21
-25.4407
  0
LINE
  8
0
 10
31.3838
 20
-25.4407
 11
31.0043
 21
-25.5909
  0
LINE
  8
0
 10
31.0043
 20
-25.5909
 11
30.609
 21
-25.6924
  0
LINE
  8
0
 10
30.609
 20
-25.6924
 11
30.2041
 21
-25.7436
  0
LINE
  8
0
 10
30.2041
 20
-25.7436
 11
29.7959
 21
-25.7436
  0
LINE
  8
0
 10
-15.2041
 20
-25.7436
 11
-15.609
 21
-25.6924
  0
LINE
  8
0
 10
-15.609
 20
-25.6924
 11
-16.0043
 21
-25.5909
  0
LINE
  8
0
 10
-16.0043
 20
-25.5909
 11
-16.3838
 21
-25.4407
  0
LINE
  8
0
 10
-16.3838
 20
-25.4407
 11
-16.7414
 21
-25.2441
  0
LINE
  8
0
 10
-16.7414
 20
-25.2441
 11
-17.0716
 21
-25.0042
  0
LINE
  8
0
 10
-17.0716
 20
-25.0042
 11
-17.3691
 21
-24.7248
  0
LINE
  8
0
 10
-17.3691
 20
-24.7248
 11
-17.6293
 21
-24.4103
  0
LINE
  8
0
 10
-17.6293
 20
-24.4103
 11
-17.848
 21
-24.0657
  0
LINE
  8
0
 10
-17.848
 20
-24.0657
 11
-18.0218
 21
-23.6964
  0
LINE
  8
0
 10
-18.0218
 20
-23.6964
 11
-18.1479
 21
-23.3082
  0
LINE
  8
0
 10
-18.1479
 20
-23.3082
 11
-18.2244
 21
-22.9073
  0
LINE
  8
0
 10
-18.2244
 20
-22.9073
 11
-18.25
 21
-22.5
  0
LINE
  8
0
 10
-18.25
 20
-22.5
 11
-18.2244
 21
-22.0927
  0
LINE
  8
0
 10
-18.2244
 20
-22.0927
 11
-18.1479
 21
-21.6918
  0
LINE
  8
0
 10
-18.1479
 20
-21.6918
 11
-18.0218
 21
-21.3036
  0
LINE
  8
0
 10
-18.0218
 20
-21.3036
 11
-17.848
 21
-20.9343
  0
LINE
  8
0
 10
-17.848
 20
-20.9343
 11
-17.6293
 21
-20.5897
  0
LINE
  8
0
 10
-17.6293
 20
-20.5897
 11
-17.3691
 21
-20.2752
  0
LINE
  8
0
 10
-17.3691
 20
-20.2752
 11
-17.0716
 21
-19.9958
  0
LINE
  8
0
 10
-17.0716
 20
-19.9958
 11
-16.7414
 21
-19.7559
  0
LINE
  8
0
 10
-16.7414
 20
-19.7559
 11
-16.3838
 21
-19.5593
  0
LINE
  8
0
 10
-16.3838
 20
-19.5593
 11
-16.0043
 21
-19.4091
  0
LINE
  8
0
 10
-16.0043
 20
-19.4091
 11
-15.609
 21
-19.3076
  0
LINE
  8
0
 10
-15.609
 20
-19.3076
 11
-15.2041
 21
-19.2564
  0
LINE
  8
0
 10
-15.2041
 20
-19.2564
 11
-14.7959
 21
-19.2564
  0
LINE
  8
0
 10
-14.7959
 20
-19.2564
 11
-14.391
 21
-19.3076
  0
LINE
  8
0
 10
-14.391
 20
-19.3076
 11
-13.9957
 21
-19.4091
  0
LINE
  8
0
 10
-13.9957
 20
-19.4091
 11
-13.6162
 21
-19.5593
  0
LINE
  8
0
 10
-13.6162
 20
-19.5593
 11
-13.2586
 21
-19.7559
  0
LINE
  8
0
 10
-13.2586
 20
-19.7559
 11
-12.9284
 21
-19.9958
  0
LINE
  8
0
 10
-12.9284
 20
-19.9958
 11
-12.6308
 21
-20.2752
  0
LINE
  8
0
 10
-12.6308
 20
-20.2752
 11
-12.3707
 21
-20.5897
  0
LINE
  8
0
 10
-12.3707
 20
-20.5897
 11
-12.152
 21
-20.9343
  0
LINE
  8
0
 10
-12.152
 20
-20.9343
 11
-11.9782
 21
-21.3036
  0
LINE
  8
0
 10
-11.9782
 20
-21.3036
 11
-11.8521
 21
-21.6918
  0
LINE
  8
0
 10
-11.8521
 20
-21.6918
 11
-11.7756
 21
-22.0927
  0
LINE
  8
0
 10
-11.7756
 20
-22.0927
 11
-11.75
 21
-22.5
  0
LINE
  8
0
 10
-11.75
 20
-22.5
 11
-11.7756
 21
-22.9073
  0
LINE
  8
0
 10
-11.7756
 20
-22.9073
 11
-11.8521
 21
-23.3082
  0
LINE
  8
0
 10
-11.8521
 20
-23.3082
 11
-11.9782
 21
-23.6964
  0
LINE
  8
0
 10
-11.9782
 20
-23.6964
 11
-12.152
 21
-24.0657
  0
LINE
  8
0
 10
-12.152
 20
-24.0657
 11
-12.3707
 21
-24.4103
  0
LINE
  8
0
 10
-12.3707
 20
-24.4103
 11
-12.6308
 21
-24.7248
  0
LINE
  8
0
 10
-12.6308
 20
-24.7248
 11
-12.9284
 21
-25.0042
  0
LINE
  8
0
 10
-12.9284
 20
-25.0042
 11
-13.2586
 21
-25.2441
  0
LINE
  8
0
 10
-13.2586
 20
-25.2441
 11
-13.6162
 21
-25.4407
  0
LINE
  8
0
 10
-13.6162
 20
-25.4407
 11
-13.9957
 21
-25.5909
  0
LINE
  8
0
 10
-13.9957
 20
-25.5909
 11
-14.391
 21
-25.6924
  0
LINE
  8
0
 10
-14.391
 20
-25.6924
 11
-14.7959
 21
-25.7436
  0
LINE
  8
0
 10
-14.7959
 20
-25.7436
 11
-15.2041
 21
-25.7436
  0
LINE
  8
0
 10
-30.2041
 20
-25.7436
 11
-30.609
 21
-25.6924
  0
LINE
  8
0
 10
-30.609
 20
-25.6924
 11
-31.0043
 21
-25.5909
  0
LINE
  8
0
 10
-31.0043
 20
-25.5909
 11
-31.3838
 21
-25.4407
  0
LINE
  8
0
 10
-31.3838
 20
-25.4407
 11
-31.7414
 21
-25.2441
  0
LINE
  8
0
 10
-31.7414
 20
-25.2441
 11
-32.0716
 21
-25.0042
  0
LINE
  8
0
 10
-32.0716
 20
-25.0042
 11
-32.3691
 21
-24.7248
  0
LINE
  8
0
 10
-32.3691
 20
-24.7248
 11
-32.6293
 21
-24.4103
  0
LINE
  8
0
 10
-32.6293
 20
-24.4103
 11
-32.848
 21
-24.0657
  0
LINE
  8
0
 10
-32.848
 20
-24.0657
 11
-33.0218
 21
-23.6964
  0
LINE
  8
0
 10
-33.0218
 20
-23.6964
 11
-33.1479
 21
-23.3082
  0
LINE
  8
0
 10
-33.1479
 20
-23.3082
 11
-33.2244
 21
-22.9073
  0
LINE
  8
0
 10
-33.2244
 20
-22.9073
 11
-33.25
 21
-22.5
  0
LINE
  8
0
 10
-33.25
 20
-22.5
 11
-33.2244
 21
-22.0927
  0
LINE
  8
0
 10
-33.2244
 20
-22.0927
 11
-33.1479
 21
-21.6918
  0
LINE
  8
0
 10
-33.1479
 20
-21.6918
 11
-33.0218
 21
-21.3036
  0
LINE
  8
0
 10
-33.0218
 20
-21.3036
 11
-32.848
 21
-20.9343
  0
LINE
  8
0
 10
-32.848
 20
-20.9343
 11
-32.6293
 21
-20.5897
  0
LINE
  8
0
 10
-32.6293
 20
-20.5897
 11
-32.3691
 21
-20.2752
  0
LINE
  8
0
 10
-32.3691
 20
-20.2752
 11
-32.0716
 21
-19.9958
  0
LINE
  8
0
 10
-32.0716
 20
-19.9958
 11
-31.7414
 21
-19.7559
  0
LINE
  8
0
 10
-31.7414
 20
-19.7559
 11
-31.3838
 21
-19.5593
  0
LINE
  8
0
 10
-31.3838
 20
-19.5593
 11
-31.0043
 21
-19.4091
  0
LINE
  8
0
 10
-31.0043
 20
-19.4091
 11
-30.609
 21
-19.3076
  0
LINE
  8
0
 10
-30.609
 20
-19.3076
 11
-30.2041
 21
-19.2564
  0
LINE
  8
0
 10
-30.2041
 20
-19.2564
 11
-29.7959
 21
-19.2564
  0
LINE
  8
0
 10
-29.7959
 20
-19.2564
 11
-29.391
 21
-19.3076
  0
LINE
  8
0
 10
-29.391
 20
-19.3076
 11
-28.9957
 21
-19.4091
  0
LINE
  8
0
 10
-28.9957
 20
-19.4091
 11
-28.6162
 21
-19.5593
  0
LINE
  8
0
 10
-28.6162
 20
-19.5593
 11
-28.2586
 21
-19.7559
  0
LINE
  8
0
 10
-28.2586
 20
-19.7559
 11
-27.9284
 21
-19.9958
  0
LINE
  8
0
 10
-27.9284
 20
-19.9958
 11
-27.6308
 21
-20.2752
  0
LINE
  8
0
 10
-27.6308
 20
-20.2752
 11
-27.3707
 21
-20.5897
  0
LINE
  8
0
 10
-27.3707
 20
-20.5897
 11
-27.152
 21
-20.9343
  0
LINE
  8
0
 10
-27.152
 20
-20.9343
 11
-26.9782
 21
-21.3036
  0
LINE
  8
0
 10
-26.9782
 20
-21.3036
 11
-26.8521
 21
-21.6918
  0
LINE
  8
0
 10
-26.8521
 20
-21.6918
 11
-26.7756
 21
-22.0927
  0
LINE
  8
0
 10
-26.7756
 20
-22.0927
 11
-26.75
 21
-22.5
  0
LINE
  8
0
 10
-26.75
 20
-22.5
 11
-26.7756
 21
-22.9073
  0
LINE
  8
0
 10
-26.7756
 20
-22.9073
 11
-26.8521
 21
-23.3082
  0
LINE
  8
0
 10
-26.8521
 20
-23.3082
 11
-26.9782
 21
-23.6964
  0
LINE
  8
0
 10
-26.9782
 20
-23.6964
 11
-27.152
 21
-24.0657
  0
LINE
  8
0
 10
-27.152
 20
-24.0657
 11
-27.3707
 21
-24.4103
  0
LINE
  8
0
 10
-27.3707
 20
-24.4103
 11
-27.6308
 21
-24.7248
  0
LINE
  8
0
 10
-27.6308
 20
-24.7248
 11
-27.9284
 21
-25.0042
  0
LINE
  8
0
 10
-27.9284
 20
-25.0042
 11
-28.2586
 21
-25.2441
  0
LINE
  8
0
 10
-28.2586
 20
-25.2441
 11
-28.6162
 21
-25.4407
  0
LINE
  8
0
 10
-28.6162
 20
-25.4407
 11
-28.9957
 21
-25.5909
  0
LINE
  8
0
 10
-28.9957
 20
-25.5909
 11
-29.391
 21
-25.6924
  0
LINE
  8
0
 10
-29.391
 20
-25.6924
 11
-29.7959
 21
-25.7436
  0
LINE
  8
0
 10
-29.7959
 20
-25.7436
 11
-30.2041
 21
-25.7436
  0
ENDSEC
  0
SECTION
  2
OBJECTS
  0
DICTIONARY
  0
ENDSEC
  0
EOF
