  0
SECTION
  2
BLOCKS
  0
ENDSEC
  0
SECTION
  2
ENTITIES
  0
LINE
  8
0
 10
136.627
 20
-33.4606
 11
137.243
 21
-33.3429
  0
LINE
  8
0
 10
137.243
 20
-33.3429
 11
137.841
 21
-33.1489
  0
LINE
  8
0
 10
137.841
 20
-33.1489
 11
138.409
 21
-32.8815
  0
LINE
  8
0
 10
138.409
 20
-32.8815
 11
138.939
 21
-32.5451
  0
LINE
  8
0
 10
138.939
 20
-32.5451
 11
139.423
 21
-32.1448
  0
LINE
  8
0
 10
139.423
 20
-32.1448
 11
139.853
 21
-31.6871
  0
LINE
  8
0
 10
139.853
 20
-31.6871
 11
140.222
 21
-31.1791
  0
LINE
  8
0
 10
140.222
 20
-31.1791
 11
140.524
 21
-30.6289
  0
LINE
  8
0
 10
140.524
 20
-30.6289
 11
140.755
 21
-30.0451
  0
LINE
  8
0
 10
140.755
 20
-30.0451
 11
140.911
 21
-29.4369
  0
LINE
  8
0
 10
140.911
 20
-29.4369
 11
141
 21
-28.5
  0
LINE
  8
0
 10
141
 20
-28.5
 11
141
 21
28.5
  0
LINE
  8
0
 10
141
 20
28.5
 11
140.961
 21
29.1267
  0
LINE
  8
0
 10
140.961
 20
29.1267
 11
140.843
 21
29.7435
  0
LINE
  8
0
 10
140.843
 20
29.7435
 11
140.649
 21
30.3406
  0
LINE
  8
0
 10
140.649
 20
30.3406
 11
140.382
 21
30.9088
  0
LINE
  8
0
 10
140.382
 20
30.9088
 11
140.045
 21
31.4389
  0
LINE
  8
0
 10
140.045
 20
31.4389
 11
139.645
 21
31.9227
  0
LINE
  8
0
 10
139.645
 20
31.9227
 11
139.187
 21
32.3526
  0
LINE
  8
0
 10
139.187
 20
32.3526
 11
138.679
 21
32.7216
  0
LINE
  8
0
 10
138.679
 20
32.7216
 11
138.129
 21
33.0241
  0
LINE
  8
0
 10
138.129
 20
33.0241
 11
137.545
 21
33.2553
  0
LINE
  8
0
 10
137.545
 20
33.2553
 11
136.937
 21
33.4114
  0
LINE
  8
0
 10
136.937
 20
33.4114
 11
136
 21
33.5
  0
LINE
  8
0
 10
136
 20
33.5
 11
64
 21
33.5
  0
LINE
  8
0
 10
64
 20
33.5
 11
63.3733
 21
33.4606
  0
LINE
  8
0
 10
63.3733
 20
33.4606
 11
62.7565
 21
33.3429
  0
LINE
  8
0
 10
62.7565
 20
33.3429
 11
62.1594
 21
33.1489
  0
LINE
  8
0
 10
62.1594
 20
33.1489
 11
61.5912
 21
32.8815
  0
LINE
  8
0
 10
61.5912
 20
32.8815
 11
61.0611
 21
32.5451
  0
LINE
  8
0
 10
61.0611
 20
32.5451
 11
60.5773
 21
32.1448
  0
LINE
  8
0
 10
60.5773
 20
32.1448
 11
60.1474
 21
31.6871
  0
LINE
  8
0
 10
60.1474
 20
31.6871
 11
59.7784
 21
31.1791
  0
LINE
  8
0
 10
59.7784
 20
31.1791
 11
59.4759
 21
30.6289
  0
LINE
  8
0
 10
59.4759
 20
30.6289
 11
59.2447
 21
30.0451
  0
LINE
  8
0
 10
59.2447
 20
30.0451
 11
59.0886
 21
29.4369
  0
LINE
  8
0
 10
59.0886
 20
29.4369
 11
59
 21
28.5
  0
LINE
  8
0
 10
59
 20
28.5
 11
59
 21
-28.5
  0
LINE
  8
0
 10
59
 20
-28.5
 11
59.0394
 21
-29.1267
  0
LINE
  8
0
 10
59.0394
 20
-29.1267
 11
59.1571
 21
-29.7435
  0
LINE
  8
0
 10
59.1571
 20
-29.7435
 11
59.3511
 21
-30.3406
  0
LINE
  8
0
 10
59.3511
 20
-30.3406
 11
59.6185
 21
-30.9088
  0
LINE
  8
0
 10
59.6185
 20
-30.9088
 11
59.9549
 21
-31.4389
  0
LINE
  8
0
 10
59.9549
 20
-31.4389
 11
60.3552
 21
-31.9227
  0
LINE
  8
0
 10
60.3552
 20
-31.9227
 11
60.8129
 21
-32.3526
  0
LINE
  8
0
 10
60.8129
 20
-32.3526
 11
61.3209
 21
-32.7216
  0
LINE
  8
0
 10
61.3209
 20
-32.7216
 11
61.8711
 21
-33.0241
  0
LINE
  8
0
 10
61.8711
 20
-33.0241
 11
62.4549
 21
-33.2553
  0
LINE
  8
0
 10
62.4549
 20
-33.2553
 11
63.0631
 21
-33.4114
  0
LINE
  8
0
 10
63.0631
 20
-33.4114
 11
64
 21
-33.5
  0
LINE
  8
0
 10
64
 20
-33.5
 11
136
 21
-33.5
  0
LINE
  8
0
 10
136
 20
-33.5
 11
136.627
 21
-33.4606
  0
LINE
  8
0
 10
80.1672
 20
14.7605
 11
79.5069
 21
14.8439
  0
LINE
  8
0
 10
79.5069
 20
14.8439
 11
78.8622
 21
15.0094
  0
LINE
  8
0
 10
78.8622
 20
15.0094
 11
78.2434
 21
15.2544
  0
LINE
  8
0
 10
78.2434
 20
15.2544
 11
77.6601
 21
15.5751
  0
LINE
  8
0
 10
77.6601
 20
15.5751
 11
77.1216
 21
15.9663
  0
LINE
  8
0
 10
77.1216
 20
15.9663
 11
76.6365
 21
16.4219
  0
LINE
  8
0
 10
76.6365
 20
16.4219
 11
76.2122
 21
16.9347
  0
LINE
  8
0
 10
76.2122
 20
16.9347
 11
75.8556
 21
17.4967
  0
LINE
  8
0
 10
75.8556
 20
17.4967
 11
75.5722
 21
18.0989
  0
LINE
  8
0
 10
75.5722
 20
18.0989
 11
75.3665
 21
18.7319
  0
LINE
  8
0
 10
75.3665
 20
18.7319
 11
75.2418
 21
19.3857
  0
LINE
  8
0
 10
75.2418
 20
19.3857
 11
75.2
 21
20.05
  0
LINE
  8
0
 10
75.2
 20
20.05
 11
75.2418
 21
20.7143
  0
LINE
  8
0
 10
75.2418
 20
20.7143
 11
75.3665
 21
21.3681
  0
LINE
  8
0
 10
75.3665
 20
21.3681
 11
75.5722
 21
22.0011
  0
LINE
  8
0
 10
75.5722
 20
22.0011
 11
75.8556
 21
22.6033
  0
LINE
  8
0
 10
75.8556
 20
22.6033
 11
76.2122
 21
23.1653
  0
LINE
  8
0
 10
76.2122
 20
23.1653
 11
76.6365
 21
23.6781
  0
LINE
  8
0
 10
76.6365
 20
23.6781
 11
77.1216
 21
24.1337
  0
LINE
  8
0
 10
77.1216
 20
24.1337
 11
77.6601
 21
24.5249
  0
LINE
  8
0
 10
77.6601
 20
24.5249
 11
78.2434
 21
24.8456
  0
LINE
  8
0
 10
78.2434
 20
24.8456
 11
78.8622
 21
25.0906
  0
LINE
  8
0
 10
78.8622
 20
25.0906
 11
79.5069
 21
25.2561
  0
LINE
  8
0
 10
79.5069
 20
25.2561
 11
80.1672
 21
25.3395
  0
LINE
  8
0
 10
80.1672
 20
25.3395
 11
80.8328
 21
25.3395
  0
LINE
  8
0
 10
80.8328
 20
25.3395
 11
81.4931
 21
25.2561
  0
LINE
  8
0
 10
81.4931
 20
25.2561
 11
82.1378
 21
25.0906
  0
LINE
  8
0
 10
82.1378
 20
25.0906
 11
82.7566
 21
24.8456
  0
LINE
  8
0
 10
82.7566
 20
24.8456
 11
83.3399
 21
24.5249
  0
LINE
  8
0
 10
83.3399
 20
24.5249
 11
83.8783
 21
24.1337
  0
LINE
  8
0
 10
83.8783
 20
24.1337
 11
84.3635
 21
23.6781
  0
LINE
  8
0
 10
84.3635
 20
23.6781
 11
84.7878
 21
23.1653
  0
LINE
  8
0
 10
84.7878
 20
23.1653
 11
85.1444
 21
22.6033
  0
LINE
  8
0
 10
85.1444
 20
22.6033
 11
85.4278
 21
22.0011
  0
LINE
  8
0
 10
85.4278
 20
22.0011
 11
85.6335
 21
21.3681
  0
LINE
  8
0
 10
85.6335
 20
21.3681
 11
85.7582
 21
20.7143
  0
LINE
  8
0
 10
85.7582
 20
20.7143
 11
85.8
 21
20.05
  0
LINE
  8
0
 10
85.8
 20
20.05
 11
85.7582
 21
19.3857
  0
LINE
  8
0
 10
85.7582
 20
19.3857
 11
85.6335
 21
18.7319
  0
LINE
  8
0
 10
85.6335
 20
18.7319
 11
85.4278
 21
18.0989
  0
LINE
  8
0
 10
85.4278
 20
18.0989
 11
85.1444
 21
17.4967
  0
LINE
  8
0
 10
85.1444
 20
17.4967
 11
84.7878
 21
16.9347
  0
LINE
  8
0
 10
84.7878
 20
16.9347
 11
84.3635
 21
16.4219
  0
LINE
  8
0
 10
84.3635
 20
16.4219
 11
83.8783
 21
15.9663
  0
LINE
  8
0
 10
83.8783
 20
15.9663
 11
83.3399
 21
15.5751
  0
LINE
  8
0
 10
83.3399
 20
15.5751
 11
82.7566
 21
15.2544
  0
LINE
  8
0
 10
82.7566
 20
15.2544
 11
82.1378
 21
15.0094
  0
LINE
  8
0
 10
82.1378
 20
15.0094
 11
81.4931
 21
14.8439
  0
LINE
  8
0
 10
81.4931
 20
14.8439
 11
80.8328
 21
14.7605
  0
LINE
  8
0
 10
80.8328
 20
14.7605
 11
80.1672
 21
14.7605
  0
LINE
  8
0
 10
120.167
 20
14.7605
 11
119.507
 21
14.8439
  0
LINE
  8
0
 10
119.507
 20
14.8439
 11
118.862
 21
15.0094
  0
LINE
  8
0
 10
118.862
 20
15.0094
 11
118.243
 21
15.2544
  0
LINE
  8
0
 10
118.243
 20
15.2544
 11
117.66
 21
15.5751
  0
LINE
  8
0
 10
117.66
 20
15.5751
 11
117.122
 21
15.9663
  0
LINE
  8
0
 10
117.122
 20
15.9663
 11
116.636
 21
16.4219
  0
LINE
  8
0
 10
116.636
 20
16.4219
 11
116.212
 21
16.9347
  0
LINE
  8
0
 10
116.212
 20
16.9347
 11
115.856
 21
17.4967
  0
LINE
  8
0
 10
115.856
 20
17.4967
 11
115.572
 21
18.0989
  0
LINE
  8
0
 10
115.572
 20
18.0989
 11
115.367
 21
18.7319
  0
LINE
  8
0
 10
115.367
 20
18.7319
 11
115.242
 21
19.3857
  0
LINE
  8
0
 10
115.242
 20
19.3857
 11
115.2
 21
20.05
  0
LINE
  8
0
 10
115.2
 20
20.05
 11
115.242
 21
20.7143
  0
LINE
  8
0
 10
115.242
 20
20.7143
 11
115.367
 21
21.3681
  0
LINE
  8
0
 10
115.367
 20
21.3681
 11
115.572
 21
22.0011
  0
LINE
  8
0
 10
115.572
 20
22.0011
 11
115.856
 21
22.6033
  0
LINE
  8
0
 10
115.856
 20
22.6033
 11
116.212
 21
23.1653
  0
LINE
  8
0
 10
116.212
 20
23.1653
 11
116.636
 21
23.6781
  0
LINE
  8
0
 10
116.636
 20
23.6781
 11
117.122
 21
24.1337
  0
LINE
  8
0
 10
117.122
 20
24.1337
 11
117.66
 21
24.5249
  0
LINE
  8
0
 10
117.66
 20
24.5249
 11
118.243
 21
24.8456
  0
LINE
  8
0
 10
118.243
 20
24.8456
 11
118.862
 21
25.0906
  0
LINE
  8
0
 10
118.862
 20
25.0906
 11
119.507
 21
25.2561
  0
LINE
  8
0
 10
119.507
 20
25.2561
 11
120.167
 21
25.3395
  0
LINE
  8
0
 10
120.167
 20
25.3395
 11
120.833
 21
25.3395
  0
LINE
  8
0
 10
120.833
 20
25.3395
 11
121.493
 21
25.2561
  0
LINE
  8
0
 10
121.493
 20
25.2561
 11
122.138
 21
25.0906
  0
LINE
  8
0
 10
122.138
 20
25.0906
 11
122.757
 21
24.8456
  0
LINE
  8
0
 10
122.757
 20
24.8456
 11
123.34
 21
24.5249
  0
LINE
  8
0
 10
123.34
 20
24.5249
 11
123.878
 21
24.1337
  0
LINE
  8
0
 10
123.878
 20
24.1337
 11
124.364
 21
23.6781
  0
LINE
  8
0
 10
124.364
 20
23.6781
 11
124.788
 21
23.1653
  0
LINE
  8
0
 10
124.788
 20
23.1653
 11
125.144
 21
22.6033
  0
LINE
  8
0
 10
125.144
 20
22.6033
 11
125.428
 21
22.0011
  0
LINE
  8
0
 10
125.428
 20
22.0011
 11
125.633
 21
21.3681
  0
LINE
  8
0
 10
125.633
 20
21.3681
 11
125.758
 21
20.7143
  0
LINE
  8
0
 10
125.758
 20
20.7143
 11
125.8
 21
20.05
  0
LINE
  8
0
 10
125.8
 20
20.05
 11
125.758
 21
19.3857
  0
LINE
  8
0
 10
125.758
 20
19.3857
 11
125.633
 21
18.7319
  0
LINE
  8
0
 10
125.633
 20
18.7319
 11
125.428
 21
18.0989
  0
LINE
  8
0
 10
125.428
 20
18.0989
 11
125.144
 21
17.4967
  0
LINE
  8
0
 10
125.144
 20
17.4967
 11
124.788
 21
16.9347
  0
LINE
  8
0
 10
124.788
 20
16.9347
 11
124.364
 21
16.4219
  0
LINE
  8
0
 10
124.364
 20
16.4219
 11
123.878
 21
15.9663
  0
LINE
  8
0
 10
123.878
 20
15.9663
 11
123.34
 21
15.5751
  0
LINE
  8
0
 10
123.34
 20
15.5751
 11
122.757
 21
15.2544
  0
LINE
  8
0
 10
122.757
 20
15.2544
 11
122.138
 21
15.0094
  0
LINE
  8
0
 10
122.138
 20
15.0094
 11
121.493
 21
14.8439
  0
LINE
  8
0
 10
121.493
 20
14.8439
 11
120.833
 21
14.7605
  0
LINE
  8
0
 10
120.833
 20
14.7605
 11
120.167
 21
14.7605
  0
LINE
  8
0
 10
100.893
 20
15.9034
 11
100.681
 21
15.9301
  0
LINE
  8
0
 10
100.681
 20
15.9301
 11
100.475
 21
15.9832
  0
LINE
  8
0
 10
100.475
 20
15.9832
 11
100.276
 21
16.0618
  0
LINE
  8
0
 10
100.276
 20
16.0618
 11
100.089
 21
16.1646
  0
LINE
  8
0
 10
100.089
 20
16.1646
 11
99.9164
 21
16.2901
  0
LINE
  8
0
 10
99.9164
 20
16.2901
 11
99.7608
 21
16.4363
  0
LINE
  8
0
 10
99.7608
 20
16.4363
 11
99.6247
 21
16.6008
  0
LINE
  8
0
 10
99.6247
 20
16.6008
 11
99.5103
 21
16.781
  0
LINE
  8
0
 10
99.5103
 20
16.781
 11
99.4194
 21
16.9742
  0
LINE
  8
0
 10
99.4194
 20
16.9742
 11
99.3534
 21
17.1772
  0
LINE
  8
0
 10
99.3534
 20
17.1772
 11
99.3134
 21
17.3869
  0
LINE
  8
0
 10
99.3134
 20
17.3869
 11
99.3
 21
17.6
  0
LINE
  8
0
 10
99.3
 20
17.6
 11
99.3134
 21
17.8131
  0
LINE
  8
0
 10
99.3134
 20
17.8131
 11
99.3534
 21
18.0228
  0
LINE
  8
0
 10
99.3534
 20
18.0228
 11
99.4194
 21
18.2258
  0
LINE
  8
0
 10
99.4194
 20
18.2258
 11
99.5103
 21
18.419
  0
LINE
  8
0
 10
99.5103
 20
18.419
 11
99.6247
 21
18.5992
  0
LINE
  8
0
 10
99.6247
 20
18.5992
 11
99.7608
 21
18.7637
  0
LINE
  8
0
 10
99.7608
 20
18.7637
 11
99.9164
 21
18.9099
  0
LINE
  8
0
 10
99.9164
 20
18.9099
 11
100.089
 21
19.0354
  0
LINE
  8
0
 10
100.089
 20
19.0354
 11
100.276
 21
19.1382
  0
LINE
  8
0
 10
100.276
 20
19.1382
 11
100.475
 21
19.2168
  0
LINE
  8
0
 10
100.475
 20
19.2168
 11
100.681
 21
19.2699
  0
LINE
  8
0
 10
100.681
 20
19.2699
 11
100.893
 21
19.2966
  0
LINE
  8
0
 10
100.893
 20
19.2966
 11
101.107
 21
19.2966
  0
LINE
  8
0
 10
101.107
 20
19.2966
 11
101.319
 21
19.2699
  0
LINE
  8
0
 10
101.319
 20
19.2699
 11
101.525
 21
19.2168
  0
LINE
  8
0
 10
101.525
 20
19.2168
 11
101.724
 21
19.1382
  0
LINE
  8
0
 10
101.724
 20
19.1382
 11
101.911
 21
19.0354
  0
LINE
  8
0
 10
101.911
 20
19.0354
 11
102.084
 21
18.9099
  0
LINE
  8
0
 10
102.084
 20
18.9099
 11
102.239
 21
18.7637
  0
LINE
  8
0
 10
102.239
 20
18.7637
 11
102.375
 21
18.5992
  0
LINE
  8
0
 10
102.375
 20
18.5992
 11
102.49
 21
18.419
  0
LINE
  8
0
 10
102.49
 20
18.419
 11
102.581
 21
18.2258
  0
LINE
  8
0
 10
102.581
 20
18.2258
 11
102.647
 21
18.0228
  0
LINE
  8
0
 10
102.647
 20
18.0228
 11
102.687
 21
17.8131
  0
LINE
  8
0
 10
102.687
 20
17.8131
 11
102.7
 21
17.6
  0
LINE
  8
0
 10
102.7
 20
17.6
 11
102.687
 21
17.3869
  0
LINE
  8
0
 10
102.687
 20
17.3869
 11
102.647
 21
17.1772
  0
LINE
  8
0
 10
102.647
 20
17.1772
 11
102.581
 21
16.9742
  0
LINE
  8
0
 10
102.581
 20
16.9742
 11
102.49
 21
16.781
  0
LINE
  8
0
 10
102.49
 20
16.781
 11
102.375
 21
16.6008
  0
LINE
  8
0
 10
102.375
 20
16.6008
 11
102.239
 21
16.4363
  0
LINE
  8
0
 10
102.239
 20
16.4363
 11
102.084
 21
16.2901
  0
LINE
  8
0
 10
102.084
 20
16.2901
 11
101.911
 21
16.1646
  0
LINE
  8
0
 10
101.911
 20
16.1646
 11
101.724
 21
16.0618
  0
LINE
  8
0
 10
101.724
 20
16.0618
 11
101.525
 21
15.9832
  0
LINE
  8
0
 10
101.525
 20
15.9832
 11
101.319
 21
15.9301
  0
LINE
  8
0
 10
101.319
 20
15.9301
 11
101.107
 21
15.9034
  0
LINE
  8
0
 10
101.107
 20
15.9034
 11
100.893
 21
15.9034
  0
LINE
  8
0
 10
123.893
 20
5.80334
 11
123.681
 21
5.83011
  0
LINE
  8
0
 10
123.681
 20
5.83011
 11
123.475
 21
5.88319
  0
LINE
  8
0
 10
123.475
 20
5.88319
 11
123.276
 21
5.96179
  0
LINE
  8
0
 10
123.276
 20
5.96179
 11
123.089
 21
6.06464
  0
LINE
  8
0
 10
123.089
 20
6.06464
 11
122.916
 21
6.19012
  0
LINE
  8
0
 10
122.916
 20
6.19012
 11
122.761
 21
6.33626
  0
LINE
  8
0
 10
122.761
 20
6.33626
 11
122.625
 21
6.50076
  0
LINE
  8
0
 10
122.625
 20
6.50076
 11
122.51
 21
6.68102
  0
LINE
  8
0
 10
122.51
 20
6.68102
 11
122.419
 21
6.87418
  0
LINE
  8
0
 10
122.419
 20
6.87418
 11
122.353
 21
7.07722
  0
LINE
  8
0
 10
122.353
 20
7.07722
 11
122.313
 21
7.28693
  0
LINE
  8
0
 10
122.313
 20
7.28693
 11
122.3
 21
7.5
  0
LINE
  8
0
 10
122.3
 20
7.5
 11
122.313
 21
7.71306
  0
LINE
  8
0
 10
122.313
 20
7.71306
 11
122.353
 21
7.92276
  0
LINE
  8
0
 10
122.353
 20
7.92276
 11
122.419
 21
8.12581
  0
LINE
  8
0
 10
122.419
 20
8.12581
 11
122.51
 21
8.31897
  0
LINE
  8
0
 10
122.51
 20
8.31897
 11
122.625
 21
8.49922
  0
LINE
  8
0
 10
122.625
 20
8.49922
 11
122.761
 21
8.66373
  0
LINE
  8
0
 10
122.761
 20
8.66373
 11
122.916
 21
8.80986
  0
LINE
  8
0
 10
122.916
 20
8.80986
 11
123.089
 21
8.93535
  0
LINE
  8
0
 10
123.089
 20
8.93535
 11
123.276
 21
9.03819
  0
LINE
  8
0
 10
123.276
 20
9.03819
 11
123.475
 21
9.11679
  0
LINE
  8
0
 10
123.475
 20
9.11679
 11
123.681
 21
9.16988
  0
LINE
  8
0
 10
123.681
 20
9.16988
 11
123.893
 21
9.19664
  0
LINE
  8
0
 10
123.893
 20
9.19664
 11
124.107
 21
9.19664
  0
LINE
  8
0
 10
124.107
 20
9.19664
 11
124.319
 21
9.16988
  0
LINE
  8
0
 10
124.319
 20
9.16988
 11
124.525
 21
9.11679
  0
LINE
  8
0
 10
124.525
 20
9.11679
 11
124.724
 21
9.03819
  0
LINE
  8
0
 10
124.724
 20
9.03819
 11
124.911
 21
8.93535
  0
LINE
  8
0
 10
124.911
 20
8.93535
 11
125.084
 21
8.80986
  0
LINE
  8
0
 10
125.084
 20
8.80986
 11
125.239
 21
8.66373
  0
LINE
  8
0
 10
125.239
 20
8.66373
 11
125.375
 21
8.49922
  0
LINE
  8
0
 10
125.375
 20
8.49922
 11
125.49
 21
8.31897
  0
LINE
  8
0
 10
125.49
 20
8.31897
 11
125.581
 21
8.12581
  0
LINE
  8
0
 10
125.581
 20
8.12581
 11
125.647
 21
7.92276
  0
LINE
  8
0
 10
125.647
 20
7.92276
 11
125.687
 21
7.71306
  0
LINE
  8
0
 10
125.687
 20
7.71306
 11
125.7
 21
7.5
  0
LINE
  8
0
 10
125.7
 20
7.5
 11
125.687
 21
7.28693
  0
LINE
  8
0
 10
125.687
 20
7.28693
 11
125.647
 21
7.07722
  0
LINE
  8
0
 10
125.647
 20
7.07722
 11
125.581
 21
6.87418
  0
LINE
  8
0
 10
125.581
 20
6.87418
 11
125.49
 21
6.68102
  0
LINE
  8
0
 10
125.49
 20
6.68102
 11
125.375
 21
6.50076
  0
LINE
  8
0
 10
125.375
 20
6.50076
 11
125.239
 21
6.33626
  0
LINE
  8
0
 10
125.239
 20
6.33626
 11
125.084
 21
6.19012
  0
LINE
  8
0
 10
125.084
 20
6.19012
 11
124.911
 21
6.06464
  0
LINE
  8
0
 10
124.911
 20
6.06464
 11
124.724
 21
5.96179
  0
LINE
  8
0
 10
124.724
 20
5.96179
 11
124.525
 21
5.88319
  0
LINE
  8
0
 10
124.525
 20
5.88319
 11
124.319
 21
5.83011
  0
LINE
  8
0
 10
124.319
 20
5.83011
 11
124.107
 21
5.80334
  0
LINE
  8
0
 10
124.107
 20
5.80334
 11
123.893
 21
5.80334
  0
LINE
  8
0
 10
109.893
 20
5.80334
 11
109.681
 21
5.83011
  0
LINE
  8
0
 10
109.681
 20
5.83011
 11
109.475
 21
5.88319
  0
LINE
  8
0
 10
109.475
 20
5.88319
 11
109.276
 21
5.96179
  0
LINE
  8
0
 10
109.276
 20
5.96179
 11
109.089
 21
6.06464
  0
LINE
  8
0
 10
109.089
 20
6.06464
 11
108.916
 21
6.19012
  0
LINE
  8
0
 10
108.916
 20
6.19012
 11
108.761
 21
6.33626
  0
LINE
  8
0
 10
108.761
 20
6.33626
 11
108.625
 21
6.50076
  0
LINE
  8
0
 10
108.625
 20
6.50076
 11
108.51
 21
6.68102
  0
LINE
  8
0
 10
108.51
 20
6.68102
 11
108.419
 21
6.87418
  0
LINE
  8
0
 10
108.419
 20
6.87418
 11
108.353
 21
7.07722
  0
LINE
  8
0
 10
108.353
 20
7.07722
 11
108.313
 21
7.28693
  0
LINE
  8
0
 10
108.313
 20
7.28693
 11
108.3
 21
7.5
  0
LINE
  8
0
 10
108.3
 20
7.5
 11
108.313
 21
7.71306
  0
LINE
  8
0
 10
108.313
 20
7.71306
 11
108.353
 21
7.92276
  0
LINE
  8
0
 10
108.353
 20
7.92276
 11
108.419
 21
8.12581
  0
LINE
  8
0
 10
108.419
 20
8.12581
 11
108.51
 21
8.31897
  0
LINE
  8
0
 10
108.51
 20
8.31897
 11
108.625
 21
8.49922
  0
LINE
  8
0
 10
108.625
 20
8.49922
 11
108.761
 21
8.66373
  0
LINE
  8
0
 10
108.761
 20
8.66373
 11
108.916
 21
8.80986
  0
LINE
  8
0
 10
108.916
 20
8.80986
 11
109.089
 21
8.93535
  0
LINE
  8
0
 10
109.089
 20
8.93535
 11
109.276
 21
9.03819
  0
LINE
  8
0
 10
109.276
 20
9.03819
 11
109.475
 21
9.11679
  0
LINE
  8
0
 10
109.475
 20
9.11679
 11
109.681
 21
9.16988
  0
LINE
  8
0
 10
109.681
 20
9.16988
 11
109.893
 21
9.19664
  0
LINE
  8
0
 10
109.893
 20
9.19664
 11
110.107
 21
9.19664
  0
LINE
  8
0
 10
110.107
 20
9.19664
 11
110.319
 21
9.16988
  0
LINE
  8
0
 10
110.319
 20
9.16988
 11
110.525
 21
9.11679
  0
LINE
  8
0
 10
110.525
 20
9.11679
 11
110.724
 21
9.03819
  0
LINE
  8
0
 10
110.724
 20
9.03819
 11
110.911
 21
8.93535
  0
LINE
  8
0
 10
110.911
 20
8.93535
 11
111.084
 21
8.80986
  0
LINE
  8
0
 10
111.084
 20
8.80986
 11
111.239
 21
8.66373
  0
LINE
  8
0
 10
111.239
 20
8.66373
 11
111.375
 21
8.49922
  0
LINE
  8
0
 10
111.375
 20
8.49922
 11
111.49
 21
8.31897
  0
LINE
  8
0
 10
111.49
 20
8.31897
 11
111.581
 21
8.12581
  0
LINE
  8
0
 10
111.581
 20
8.12581
 11
111.647
 21
7.92276
  0
LINE
  8
0
 10
111.647
 20
7.92276
 11
111.687
 21
7.71306
  0
LINE
  8
0
 10
111.687
 20
7.71306
 11
111.7
 21
7.5
  0
LINE
  8
0
 10
111.7
 20
7.5
 11
111.687
 21
7.28693
  0
LINE
  8
0
 10
111.687
 20
7.28693
 11
111.647
 21
7.07722
  0
LINE
  8
0
 10
111.647
 20
7.07722
 11
111.581
 21
6.87418
  0
LINE
  8
0
 10
111.581
 20
6.87418
 11
111.49
 21
6.68102
  0
LINE
  8
0
 10
111.49
 20
6.68102
 11
111.375
 21
6.50076
  0
LINE
  8
0
 10
111.375
 20
6.50076
 11
111.239
 21
6.33626
  0
LINE
  8
0
 10
111.239
 20
6.33626
 11
111.084
 21
6.19012
  0
LINE
  8
0
 10
111.084
 20
6.19012
 11
110.911
 21
6.06464
  0
LINE
  8
0
 10
110.911
 20
6.06464
 11
110.724
 21
5.96179
  0
LINE
  8
0
 10
110.724
 20
5.96179
 11
110.525
 21
5.88319
  0
LINE
  8
0
 10
110.525
 20
5.88319
 11
110.319
 21
5.83011
  0
LINE
  8
0
 10
110.319
 20
5.83011
 11
110.107
 21
5.80334
  0
LINE
  8
0
 10
110.107
 20
5.80334
 11
109.893
 21
5.80334
  0
LINE
  8
0
 10
81.3932
 20
-2.99664
 11
81.1814
 21
-2.96988
  0
LINE
  8
0
 10
81.1814
 20
-2.96988
 11
80.9747
 21
-2.91679
  0
LINE
  8
0
 10
80.9747
 20
-2.91679
 11
80.7762
 21
-2.8382
  0
LINE
  8
0
 10
80.7762
 20
-2.8382
 11
80.5891
 21
-2.73535
  0
LINE
  8
0
 10
80.5891
 20
-2.73535
 11
80.4164
 21
-2.60986
  0
LINE
  8
0
 10
80.4164
 20
-2.60986
 11
80.2608
 21
-2.46373
  0
LINE
  8
0
 10
80.2608
 20
-2.46373
 11
80.1247
 21
-2.29922
  0
LINE
  8
0
 10
80.1247
 20
-2.29922
 11
80.0103
 21
-2.11897
  0
LINE
  8
0
 10
80.0103
 20
-2.11897
 11
79.9194
 21
-1.9258
  0
LINE
  8
0
 10
79.9194
 20
-1.9258
 11
79.8534
 21
-1.72276
  0
LINE
  8
0
 10
79.8534
 20
-1.72276
 11
79.8134
 21
-1.51306
  0
LINE
  8
0
 10
79.8134
 20
-1.51306
 11
79.8
 21
-1.29999
  0
LINE
  8
0
 10
79.8
 20
-1.29999
 11
79.8134
 21
-1.08693
  0
LINE
  8
0
 10
79.8134
 20
-1.08693
 11
79.8534
 21
-0.877213
  0
LINE
  8
0
 10
79.8534
 20
-0.877213
 11
79.9194
 21
-0.674179
  0
LINE
  8
0
 10
79.9194
 20
-0.674179
 11
80.0103
 21
-0.481018
  0
LINE
  8
0
 10
80.0103
 20
-0.481018
 11
80.1247
 21
-0.300751
  0
LINE
  8
0
 10
80.1247
 20
-0.300751
 11
80.2608
 21
-0.136261
  0
LINE
  8
0
 10
80.2608
 20
-0.136261
 11
80.4164
 21
0.00987244
  0
LINE
  8
0
 10
80.4164
 20
0.00987244
 11
80.5891
 21
0.135345
  0
LINE
  8
0
 10
80.5891
 20
0.135345
 11
80.7762
 21
0.238205
  0
LINE
  8
0
 10
80.7762
 20
0.238205
 11
80.9747
 21
0.316788
  0
LINE
  8
0
 10
80.9747
 20
0.316788
 11
81.1814
 21
0.369888
  0
LINE
  8
0
 10
81.1814
 20
0.369888
 11
81.3932
 21
0.396637
  0
LINE
  8
0
 10
81.3932
 20
0.396637
 11
81.6067
 21
0.396637
  0
LINE
  8
0
 10
81.6067
 20
0.396637
 11
81.8185
 21
0.369888
  0
LINE
  8
0
 10
81.8185
 20
0.369888
 11
82.0253
 21
0.316788
  0
LINE
  8
0
 10
82.0253
 20
0.316788
 11
82.2238
 21
0.238205
  0
LINE
  8
0
 10
82.2238
 20
0.238205
 11
82.4109
 21
0.135345
  0
LINE
  8
0
 10
82.4109
 20
0.135345
 11
82.5836
 21
0.00987244
  0
LINE
  8
0
 10
82.5836
 20
0.00987244
 11
82.7392
 21
-0.136261
  0
LINE
  8
0
 10
82.7392
 20
-0.136261
 11
82.8753
 21
-0.300751
  0
LINE
  8
0
 10
82.8753
 20
-0.300751
 11
82.9897
 21
-0.481018
  0
LINE
  8
0
 10
82.9897
 20
-0.481018
 11
83.0806
 21
-0.674179
  0
LINE
  8
0
 10
83.0806
 20
-0.674179
 11
83.1466
 21
-0.877213
  0
LINE
  8
0
 10
83.1466
 20
-0.877213
 11
83.1866
 21
-1.08693
  0
LINE
  8
0
 10
83.1866
 20
-1.08693
 11
83.2
 21
-1.29999
  0
LINE
  8
0
 10
83.2
 20
-1.29999
 11
83.1866
 21
-1.51306
  0
LINE
  8
0
 10
83.1866
 20
-1.51306
 11
83.1466
 21
-1.72276
  0
LINE
  8
0
 10
83.1466
 20
-1.72276
 11
83.0806
 21
-1.9258
  0
LINE
  8
0
 10
83.0806
 20
-1.9258
 11
82.9897
 21
-2.11897
  0
LINE
  8
0
 10
82.9897
 20
-2.11897
 11
82.8753
 21
-2.29922
  0
LINE
  8
0
 10
82.8753
 20
-2.29922
 11
82.7392
 21
-2.46373
  0
LINE
  8
0
 10
82.7392
 20
-2.46373
 11
82.5836
 21
-2.60986
  0
LINE
  8
0
 10
82.5836
 20
-2.60986
 11
82.4109
 21
-2.73535
  0
LINE
  8
0
 10
82.4109
 20
-2.73535
 11
82.2238
 21
-2.8382
  0
LINE
  8
0
 10
82.2238
 20
-2.8382
 11
82.0253
 21
-2.91679
  0
LINE
  8
0
 10
82.0253
 20
-2.91679
 11
81.8185
 21
-2.96988
  0
LINE
  8
0
 10
81.8185
 20
-2.96988
 11
81.6067
 21
-2.99664
  0
LINE
  8
0
 10
81.6067
 20
-2.99664
 11
81.3932
 21
-2.99664
  0
LINE
  8
0
 10
100.167
 20
-25.4395
 11
99.5069
 21
-25.3561
  0
LINE
  8
0
 10
99.5069
 20
-25.3561
 11
98.8622
 21
-25.1906
  0
LINE
  8
0
 10
98.8622
 20
-25.1906
 11
98.2434
 21
-24.9456
  0
LINE
  8
0
 10
98.2434
 20
-24.9456
 11
97.6601
 21
-24.6249
  0
LINE
  8
0
 10
97.6601
 20
-24.6249
 11
97.1216
 21
-24.2337
  0
LINE
  8
0
 10
97.1216
 20
-24.2337
 11
96.6365
 21
-23.7781
  0
LINE
  8
0
 10
96.6365
 20
-23.7781
 11
96.2122
 21
-23.2653
  0
LINE
  8
0
 10
96.2122
 20
-23.2653
 11
95.8556
 21
-22.7033
  0
LINE
  8
0
 10
95.8556
 20
-22.7033
 11
95.5722
 21
-22.1011
  0
LINE
  8
0
 10
95.5722
 20
-22.1011
 11
95.3665
 21
-21.468
  0
LINE
  8
0
 10
95.3665
 20
-21.468
 11
95.2418
 21
-20.8143
  0
LINE
  8
0
 10
95.2418
 20
-20.8143
 11
95.2
 21
-20.15
  0
LINE
  8
0
 10
95.2
 20
-20.15
 11
95.2418
 21
-19.4857
  0
LINE
  8
0
 10
95.2418
 20
-19.4857
 11
95.3665
 21
-18.8319
  0
LINE
  8
0
 10
95.3665
 20
-18.8319
 11
95.5722
 21
-18.1989
  0
LINE
  8
0
 10
95.5722
 20
-18.1989
 11
95.8556
 21
-17.5967
  0
LINE
  8
0
 10
95.8556
 20
-17.5967
 11
96.2122
 21
-17.0347
  0
LINE
  8
0
 10
96.2122
 20
-17.0347
 11
96.6365
 21
-16.5219
  0
LINE
  8
0
 10
96.6365
 20
-16.5219
 11
97.1216
 21
-16.0663
  0
LINE
  8
0
 10
97.1216
 20
-16.0663
 11
97.6601
 21
-15.675
  0
LINE
  8
0
 10
97.6601
 20
-15.675
 11
98.2434
 21
-15.3544
  0
LINE
  8
0
 10
98.2434
 20
-15.3544
 11
98.8622
 21
-15.1094
  0
LINE
  8
0
 10
98.8622
 20
-15.1094
 11
99.5069
 21
-14.9439
  0
LINE
  8
0
 10
99.5069
 20
-14.9439
 11
100.167
 21
-14.8604
  0
LINE
  8
0
 10
100.167
 20
-14.8604
 11
100.833
 21
-14.8604
  0
LINE
  8
0
 10
100.833
 20
-14.8604
 11
101.493
 21
-14.9439
  0
LINE
  8
0
 10
101.493
 20
-14.9439
 11
102.138
 21
-15.1094
  0
LINE
  8
0
 10
102.138
 20
-15.1094
 11
102.757
 21
-15.3544
  0
LINE
  8
0
 10
102.757
 20
-15.3544
 11
103.34
 21
-15.675
  0
LINE
  8
0
 10
103.34
 20
-15.675
 11
103.878
 21
-16.0663
  0
LINE
  8
0
 10
103.878
 20
-16.0663
 11
104.364
 21
-16.5219
  0
LINE
  8
0
 10
104.364
 20
-16.5219
 11
104.788
 21
-17.0347
  0
LINE
  8
0
 10
104.788
 20
-17.0347
 11
105.144
 21
-17.5967
  0
LINE
  8
0
 10
105.144
 20
-17.5967
 11
105.428
 21
-18.1989
  0
LINE
  8
0
 10
105.428
 20
-18.1989
 11
105.633
 21
-18.8319
  0
LINE
  8
0
 10
105.633
 20
-18.8319
 11
105.758
 21
-19.4857
  0
LINE
  8
0
 10
105.758
 20
-19.4857
 11
105.8
 21
-20.15
  0
LINE
  8
0
 10
105.8
 20
-20.15
 11
105.758
 21
-20.8143
  0
LINE
  8
0
 10
105.758
 20
-20.8143
 11
105.633
 21
-21.468
  0
LINE
  8
0
 10
105.633
 20
-21.468
 11
105.428
 21
-22.1011
  0
LINE
  8
0
 10
105.428
 20
-22.1011
 11
105.144
 21
-22.7033
  0
LINE
  8
0
 10
105.144
 20
-22.7033
 11
104.788
 21
-23.2653
  0
LINE
  8
0
 10
104.788
 20
-23.2653
 11
104.364
 21
-23.7781
  0
LINE
  8
0
 10
104.364
 20
-23.7781
 11
103.878
 21
-24.2337
  0
LINE
  8
0
 10
103.878
 20
-24.2337
 11
103.34
 21
-24.6249
  0
LINE
  8
0
 10
103.34
 20
-24.6249
 11
102.757
 21
-24.9456
  0
LINE
  8
0
 10
102.757
 20
-24.9456
 11
102.138
 21
-25.1906
  0
LINE
  8
0
 10
102.138
 20
-25.1906
 11
101.493
 21
-25.3561
  0
LINE
  8
0
 10
101.493
 20
-25.3561
 11
100.833
 21
-25.4395
  0
LINE
  8
0
 10
100.833
 20
-25.4395
 11
100.167
 21
-25.4395
  0
LINE
  8
0
 10
129.796
 20
-25.7436
 11
129.391
 21
-25.6924
  0
LINE
  8
0
 10
129.391
 20
-25.6924
 11
128.996
 21
-25.5909
  0
LINE
  8
0
 10
128.996
 20
-25.5909
 11
128.616
 21
-25.4407
  0
LINE
  8
0
 10
128.616
 20
-25.4407
 11
128.259
 21
-25.2441
  0
LINE
  8
0
 10
128.259
 20
-25.2441
 11
127.928
 21
-25.0042
  0
LINE
  8
0
 10
127.928
 20
-25.0042
 11
127.631
 21
-24.7248
  0
LINE
  8
0
 10
127.631
 20
-24.7248
 11
127.371
 21
-24.4103
  0
LINE
  8
0
 10
127.371
 20
-24.4103
 11
127.152
 21
-24.0657
  0
LINE
  8
0
 10
127.152
 20
-24.0657
 11
126.978
 21
-23.6964
  0
LINE
  8
0
 10
126.978
 20
-23.6964
 11
126.852
 21
-23.3082
  0
LINE
  8
0
 10
126.852
 20
-23.3082
 11
126.776
 21
-22.9073
  0
LINE
  8
0
 10
126.776
 20
-22.9073
 11
126.75
 21
-22.5
  0
LINE
  8
0
 10
126.75
 20
-22.5
 11
126.776
 21
-22.0927
  0
LINE
  8
0
 10
126.776
 20
-22.0927
 11
126.852
 21
-21.6918
  0
LINE
  8
0
 10
126.852
 20
-21.6918
 11
126.978
 21
-21.3036
  0
LINE
  8
0
 10
126.978
 20
-21.3036
 11
127.152
 21
-20.9343
  0
LINE
  8
0
 10
127.152
 20
-20.9343
 11
127.371
 21
-20.5897
  0
LINE
  8
0
 10
127.371
 20
-20.5897
 11
127.631
 21
-20.2752
  0
LINE
  8
0
 10
127.631
 20
-20.2752
 11
127.928
 21
-19.9958
  0
LINE
  8
0
 10
127.928
 20
-19.9958
 11
128.259
 21
-19.7559
  0
LINE
  8
0
 10
128.259
 20
-19.7559
 11
128.616
 21
-19.5593
  0
LINE
  8
0
 10
128.616
 20
-19.5593
 11
128.996
 21
-19.4091
  0
LINE
  8
0
 10
128.996
 20
-19.4091
 11
129.391
 21
-19.3076
  0
LINE
  8
0
 10
129.391
 20
-19.3076
 11
129.796
 21
-19.2564
  0
LINE
  8
0
 10
129.796
 20
-19.2564
 11
130.204
 21
-19.2564
  0
LINE
  8
0
 10
130.204
 20
-19.2564
 11
130.609
 21
-19.3076
  0
LINE
  8
0
 10
130.609
 20
-19.3076
 11
131.004
 21
-19.4091
  0
LINE
  8
0
 10
131.004
 20
-19.4091
 11
131.384
 21
-19.5593
  0
LINE
  8
0
 10
131.384
 20
-19.5593
 11
131.741
 21
-19.7559
  0
LINE
  8
0
 10
131.741
 20
-19.7559
 11
132.072
 21
-19.9958
  0
LINE
  8
0
 10
132.072
 20
-19.9958
 11
132.369
 21
-20.2752
  0
LINE
  8
0
 10
132.369
 20
-20.2752
 11
132.629
 21
-20.5897
  0
LINE
  8
0
 10
132.629
 20
-20.5897
 11
132.848
 21
-20.9343
  0
LINE
  8
0
 10
132.848
 20
-20.9343
 11
133.022
 21
-21.3036
  0
LINE
  8
0
 10
133.022
 20
-21.3036
 11
133.148
 21
-21.6918
  0
LINE
  8
0
 10
133.148
 20
-21.6918
 11
133.224
 21
-22.0927
  0
LINE
  8
0
 10
133.224
 20
-22.0927
 11
133.25
 21
-22.5
  0
LINE
  8
0
 10
133.25
 20
-22.5
 11
133.224
 21
-22.9073
  0
LINE
  8
0
 10
133.224
 20
-22.9073
 11
133.148
 21
-23.3082
  0
LINE
  8
0
 10
133.148
 20
-23.3082
 11
133.022
 21
-23.6964
  0
LINE
  8
0
 10
133.022
 20
-23.6964
 11
132.848
 21
-24.0657
  0
LINE
  8
0
 10
132.848
 20
-24.0657
 11
132.629
 21
-24.4103
  0
LINE
  8
0
 10
132.629
 20
-24.4103
 11
132.369
 21
-24.7248
  0
LINE
  8
0
 10
132.369
 20
-24.7248
 11
132.072
 21
-25.0042
  0
LINE
  8
0
 10
132.072
 20
-25.0042
 11
131.741
 21
-25.2441
  0
LINE
  8
0
 10
131.741
 20
-25.2441
 11
131.384
 21
-25.4407
  0
LINE
  8
0
 10
131.384
 20
-25.4407
 11
131.004
 21
-25.5909
  0
LINE
  8
0
 10
131.004
 20
-25.5909
 11
130.609
 21
-25.6924
  0
LINE
  8
0
 10
130.609
 20
-25.6924
 11
130.204
 21
-25.7436
  0
LINE
  8
0
 10
130.204
 20
-25.7436
 11
129.796
 21
-25.7436
  0
LINE
  8
0
 10
69.7959
 20
-25.7436
 11
69.391
 21
-25.6924
  0
LINE
  8
0
 10
69.391
 20
-25.6924
 11
68.9957
 21
-25.5909
  0
LINE
  8
0
 10
68.9957
 20
-25.5909
 11
68.6162
 21
-25.4407
  0
LINE
  8
0
 10
68.6162
 20
-25.4407
 11
68.2586
 21
-25.2441
  0
LINE
  8
0
 10
68.2586
 20
-25.2441
 11
67.9284
 21
-25.0042
  0
LINE
  8
0
 10
67.9284
 20
-25.0042
 11
67.6308
 21
-24.7248
  0
LINE
  8
0
 10
67.6308
 20
-24.7248
 11
67.3707
 21
-24.4103
  0
LINE
  8
0
 10
67.3707
 20
-24.4103
 11
67.152
 21
-24.0657
  0
LINE
  8
0
 10
67.152
 20
-24.0657
 11
66.9782
 21
-23.6964
  0
LINE
  8
0
 10
66.9782
 20
-23.6964
 11
66.8521
 21
-23.3082
  0
LINE
  8
0
 10
66.8521
 20
-23.3082
 11
66.7756
 21
-22.9073
  0
LINE
  8
0
 10
66.7756
 20
-22.9073
 11
66.75
 21
-22.5
  0
LINE
  8
0
 10
66.75
 20
-22.5
 11
66.7756
 21
-22.0927
  0
LINE
  8
0
 10
66.7756
 20
-22.0927
 11
66.8521
 21
-21.6918
  0
LINE
  8
0
 10
66.8521
 20
-21.6918
 11
66.9782
 21
-21.3036
  0
LINE
  8
0
 10
66.9782
 20
-21.3036
 11
67.152
 21
-20.9343
  0
LINE
  8
0
 10
67.152
 20
-20.9343
 11
67.3707
 21
-20.5897
  0
LINE
  8
0
 10
67.3707
 20
-20.5897
 11
67.6308
 21
-20.2752
  0
LINE
  8
0
 10
67.6308
 20
-20.2752
 11
67.9284
 21
-19.9958
  0
LINE
  8
0
 10
67.9284
 20
-19.9958
 11
68.2586
 21
-19.7559
  0
LINE
  8
0
 10
68.2586
 20
-19.7559
 11
68.6162
 21
-19.5593
  0
LINE
  8
0
 10
68.6162
 20
-19.5593
 11
68.9957
 21
-19.4091
  0
LINE
  8
0
 10
68.9957
 20
-19.4091
 11
69.391
 21
-19.3076
  0
LINE
  8
0
 10
69.391
 20
-19.3076
 11
69.7959
 21
-19.2564
  0
LINE
  8
0
 10
69.7959
 20
-19.2564
 11
70.2041
 21
-19.2564
  0
LINE
  8
0
 10
70.2041
 20
-19.2564
 11
70.609
 21
-19.3076
  0
LINE
  8
0
 10
70.609
 20
-19.3076
 11
71.0043
 21
-19.4091
  0
LINE
  8
0
 10
71.0043
 20
-19.4091
 11
71.3838
 21
-19.5593
  0
LINE
  8
0
 10
71.3838
 20
-19.5593
 11
71.7414
 21
-19.7559
  0
LINE
  8
0
 10
71.7414
 20
-19.7559
 11
72.0716
 21
-19.9958
  0
LINE
  8
0
 10
72.0716
 20
-19.9958
 11
72.3691
 21
-20.2752
  0
LINE
  8
0
 10
72.3691
 20
-20.2752
 11
72.6293
 21
-20.5897
  0
LINE
  8
0
 10
72.6293
 20
-20.5897
 11
72.848
 21
-20.9343
  0
LINE
  8
0
 10
72.848
 20
-20.9343
 11
73.0218
 21
-21.3036
  0
LINE
  8
0
 10
73.0218
 20
-21.3036
 11
73.1479
 21
-21.6918
  0
LINE
  8
0
 10
73.1479
 20
-21.6918
 11
73.2244
 21
-22.0927
  0
LINE
  8
0
 10
73.2244
 20
-22.0927
 11
73.25
 21
-22.5
  0
LINE
  8
0
 10
73.25
 20
-22.5
 11
73.2244
 21
-22.9073
  0
LINE
  8
0
 10
73.2244
 20
-22.9073
 11
73.1479
 21
-23.3082
  0
LINE
  8
0
 10
73.1479
 20
-23.3082
 11
73.0218
 21
-23.6964
  0
LINE
  8
0
 10
73.0218
 20
-23.6964
 11
72.848
 21
-24.0657
  0
LINE
  8
0
 10
72.848
 20
-24.0657
 11
72.6293
 21
-24.4103
  0
LINE
  8
0
 10
72.6293
 20
-24.4103
 11
72.3691
 21
-24.7248
  0
LINE
  8
0
 10
72.3691
 20
-24.7248
 11
72.0716
 21
-25.0042
  0
LINE
  8
0
 10
72.0716
 20
-25.0042
 11
71.7414
 21
-25.2441
  0
LINE
  8
0
 10
71.7414
 20
-25.2441
 11
71.3838
 21
-25.4407
  0
LINE
  8
0
 10
71.3838
 20
-25.4407
 11
71.0043
 21
-25.5909
  0
LINE
  8
0
 10
71.0043
 20
-25.5909
 11
70.609
 21
-25.6924
  0
LINE
  8
0
 10
70.609
 20
-25.6924
 11
70.2041
 21
-25.7436
  0
LINE
  8
0
 10
70.2041
 20
-25.7436
 11
69.7959
 21
-25.7436
  0
LINE
  8
0
 10
114.796
 20
-25.7436
 11
114.391
 21
-25.6924
  0
LINE
  8
0
 10
114.391
 20
-25.6924
 11
113.996
 21
-25.5909
  0
LINE
  8
0
 10
113.996
 20
-25.5909
 11
113.616
 21
-25.4407
  0
LINE
  8
0
 10
113.616
 20
-25.4407
 11
113.259
 21
-25.2441
  0
LINE
  8
0
 10
113.259
 20
-25.2441
 11
112.928
 21
-25.0042
  0
LINE
  8
0
 10
112.928
 20
-25.0042
 11
112.631
 21
-24.7248
  0
LINE
  8
0
 10
112.631
 20
-24.7248
 11
112.371
 21
-24.4103
  0
LINE
  8
0
 10
112.371
 20
-24.4103
 11
112.152
 21
-24.0657
  0
LINE
  8
0
 10
112.152
 20
-24.0657
 11
111.978
 21
-23.6964
  0
LINE
  8
0
 10
111.978
 20
-23.6964
 11
111.852
 21
-23.3082
  0
LINE
  8
0
 10
111.852
 20
-23.3082
 11
111.776
 21
-22.9073
  0
LINE
  8
0
 10
111.776
 20
-22.9073
 11
111.75
 21
-22.5
  0
LINE
  8
0
 10
111.75
 20
-22.5
 11
111.776
 21
-22.0927
  0
LINE
  8
0
 10
111.776
 20
-22.0927
 11
111.852
 21
-21.6918
  0
LINE
  8
0
 10
111.852
 20
-21.6918
 11
111.978
 21
-21.3036
  0
LINE
  8
0
 10
111.978
 20
-21.3036
 11
112.152
 21
-20.9343
  0
LINE
  8
0
 10
112.152
 20
-20.9343
 11
112.371
 21
-20.5897
  0
LINE
  8
0
 10
112.371
 20
-20.5897
 11
112.631
 21
-20.2752
  0
LINE
  8
0
 10
112.631
 20
-20.2752
 11
112.928
 21
-19.9958
  0
LINE
  8
0
 10
112.928
 20
-19.9958
 11
113.259
 21
-19.7559
  0
LINE
  8
0
 10
113.259
 20
-19.7559
 11
113.616
 21
-19.5593
  0
LINE
  8
0
 10
113.616
 20
-19.5593
 11
113.996
 21
-19.4091
  0
LINE
  8
0
 10
113.996
 20
-19.4091
 11
114.391
 21
-19.3076
  0
LINE
  8
0
 10
114.391
 20
-19.3076
 11
114.796
 21
-19.2564
  0
LINE
  8
0
 10
114.796
 20
-19.2564
 11
115.204
 21
-19.2564
  0
LINE
  8
0
 10
115.204
 20
-19.2564
 11
115.609
 21
-19.3076
  0
LINE
  8
0
 10
115.609
 20
-19.3076
 11
116.004
 21
-19.4091
  0
LINE
  8
0
 10
116.004
 20
-19.4091
 11
116.384
 21
-19.5593
  0
LINE
  8
0
 10
116.384
 20
-19.5593
 11
116.741
 21
-19.7559
  0
LINE
  8
0
 10
116.741
 20
-19.7559
 11
117.072
 21
-19.9958
  0
LINE
  8
0
 10
117.072
 20
-19.9958
 11
117.369
 21
-20.2752
  0
LINE
  8
0
 10
117.369
 20
-20.2752
 11
117.629
 21
-20.5897
  0
LINE
  8
0
 10
117.629
 20
-20.5897
 11
117.848
 21
-20.9343
  0
LINE
  8
0
 10
117.848
 20
-20.9343
 11
118.022
 21
-21.3036
  0
LINE
  8
0
 10
118.022
 20
-21.3036
 11
118.148
 21
-21.6918
  0
LINE
  8
0
 10
118.148
 20
-21.6918
 11
118.224
 21
-22.0927
  0
LINE
  8
0
 10
118.224
 20
-22.0927
 11
118.25
 21
-22.5
  0
LINE
  8
0
 10
118.25
 20
-22.5
 11
118.224
 21
-22.9073
  0
LINE
  8
0
 10
118.224
 20
-22.9073
 11
118.148
 21
-23.3082
  0
LINE
  8
0
 10
118.148
 20
-23.3082
 11
118.022
 21
-23.6964
  0
LINE
  8
0
 10
118.022
 20
-23.6964
 11
117.848
 21
-24.0657
  0
LINE
  8
0
 10
117.848
 20
-24.0657
 11
117.629
 21
-24.4103
  0
LINE
  8
0
 10
117.629
 20
-24.4103
 11
117.369
 21
-24.7248
  0
LINE
  8
0
 10
117.369
 20
-24.7248
 11
117.072
 21
-25.0042
  0
LINE
  8
0
 10
117.072
 20
-25.0042
 11
116.741
 21
-25.2441
  0
LINE
  8
0
 10
116.741
 20
-25.2441
 11
116.384
 21
-25.4407
  0
LINE
  8
0
 10
116.384
 20
-25.4407
 11
116.004
 21
-25.5909
  0
LINE
  8
0
 10
116.004
 20
-25.5909
 11
115.609
 21
-25.6924
  0
LINE
  8
0
 10
115.609
 20
-25.6924
 11
115.204
 21
-25.7436
  0
LINE
  8
0
 10
115.204
 20
-25.7436
 11
114.796
 21
-25.7436
  0
LINE
  8
0
 10
84.7959
 20
-25.7436
 11
84.391
 21
-25.6924
  0
LINE
  8
0
 10
84.391
 20
-25.6924
 11
83.9957
 21
-25.5909
  0
LINE
  8
0
 10
83.9957
 20
-25.5909
 11
83.6162
 21
-25.4407
  0
LINE
  8
0
 10
83.6162
 20
-25.4407
 11
83.2586
 21
-25.2441
  0
LINE
  8
0
 10
83.2586
 20
-25.2441
 11
82.9284
 21
-25.0042
  0
LINE
  8
0
 10
82.9284
 20
-25.0042
 11
82.6308
 21
-24.7248
  0
LINE
  8
0
 10
82.6308
 20
-24.7248
 11
82.3707
 21
-24.4103
  0
LINE
  8
0
 10
82.3707
 20
-24.4103
 11
82.152
 21
-24.0657
  0
LINE
  8
0
 10
82.152
 20
-24.0657
 11
81.9782
 21
-23.6964
  0
LINE
  8
0
 10
81.9782
 20
-23.6964
 11
81.8521
 21
-23.3082
  0
LINE
  8
0
 10
81.8521
 20
-23.3082
 11
81.7756
 21
-22.9073
  0
LINE
  8
0
 10
81.7756
 20
-22.9073
 11
81.75
 21
-22.5
  0
LINE
  8
0
 10
81.75
 20
-22.5
 11
81.7756
 21
-22.0927
  0
LINE
  8
0
 10
81.7756
 20
-22.0927
 11
81.8521
 21
-21.6918
  0
LINE
  8
0
 10
81.8521
 20
-21.6918
 11
81.9782
 21
-21.3036
  0
LINE
  8
0
 10
81.9782
 20
-21.3036
 11
82.152
 21
-20.9343
  0
LINE
  8
0
 10
82.152
 20
-20.9343
 11
82.3707
 21
-20.5897
  0
LINE
  8
0
 10
82.3707
 20
-20.5897
 11
82.6308
 21
-20.2752
  0
LINE
  8
0
 10
82.6308
 20
-20.2752
 11
82.9284
 21
-19.9958
  0
LINE
  8
0
 10
82.9284
 20
-19.9958
 11
83.2586
 21
-19.7559
  0
LINE
  8
0
 10
83.2586
 20
-19.7559
 11
83.6162
 21
-19.5593
  0
LINE
  8
0
 10
83.6162
 20
-19.5593
 11
83.9957
 21
-19.4091
  0
LINE
  8
0
 10
83.9957
 20
-19.4091
 11
84.391
 21
-19.3076
  0
LINE
  8
0
 10
84.391
 20
-19.3076
 11
84.7959
 21
-19.2564
  0
LINE
  8
0
 10
84.7959
 20
-19.2564
 11
85.2041
 21
-19.2564
  0
LINE
  8
0
 10
85.2041
 20
-19.2564
 11
85.609
 21
-19.3076
  0
LINE
  8
0
 10
85.609
 20
-19.3076
 11
86.0043
 21
-19.4091
  0
LINE
  8
0
 10
86.0043
 20
-19.4091
 11
86.3838
 21
-19.5593
  0
LINE
  8
0
 10
86.3838
 20
-19.5593
 11
86.7414
 21
-19.7559
  0
LINE
  8
0
 10
86.7414
 20
-19.7559
 11
87.0716
 21
-19.9958
  0
LINE
  8
0
 10
87.0716
 20
-19.9958
 11
87.3691
 21
-20.2752
  0
LINE
  8
0
 10
87.3691
 20
-20.2752
 11
87.6293
 21
-20.5897
  0
LINE
  8
0
 10
87.6293
 20
-20.5897
 11
87.848
 21
-20.9343
  0
LINE
  8
0
 10
87.848
 20
-20.9343
 11
88.0218
 21
-21.3036
  0
LINE
  8
0
 10
88.0218
 20
-21.3036
 11
88.1479
 21
-21.6918
  0
LINE
  8
0
 10
88.1479
 20
-21.6918
 11
88.2244
 21
-22.0927
  0
LINE
  8
0
 10
88.2244
 20
-22.0927
 11
88.25
 21
-22.5
  0
LINE
  8
0
 10
88.25
 20
-22.5
 11
88.2244
 21
-22.9073
  0
LINE
  8
0
 10
88.2244
 20
-22.9073
 11
88.1479
 21
-23.3082
  0
LINE
  8
0
 10
88.1479
 20
-23.3082
 11
88.0218
 21
-23.6964
  0
LINE
  8
0
 10
88.0218
 20
-23.6964
 11
87.848
 21
-24.0657
  0
LINE
  8
0
 10
87.848
 20
-24.0657
 11
87.6293
 21
-24.4103
  0
LINE
  8
0
 10
87.6293
 20
-24.4103
 11
87.3691
 21
-24.7248
  0
LINE
  8
0
 10
87.3691
 20
-24.7248
 11
87.0716
 21
-25.0042
  0
LINE
  8
0
 10
87.0716
 20
-25.0042
 11
86.7414
 21
-25.2441
  0
LINE
  8
0
 10
86.7414
 20
-25.2441
 11
86.3838
 21
-25.4407
  0
LINE
  8
0
 10
86.3838
 20
-25.4407
 11
86.0043
 21
-25.5909
  0
LINE
  8
0
 10
86.0043
 20
-25.5909
 11
85.609
 21
-25.6924
  0
LINE
  8
0
 10
85.609
 20
-25.6924
 11
85.2041
 21
-25.7436
  0
LINE
  8
0
 10
85.2041
 20
-25.7436
 11
84.7959
 21
-25.7436
  0
LINE
  8
0
 10
5.62143
 20
-29.4686
 11
9.27051
 21
-28.5317
  0
LINE
  8
0
 10
9.27051
 20
-28.5317
 11
12.7734
 21
-27.1448
  0
LINE
  8
0
 10
12.7734
 20
-27.1448
 11
16.0748
 21
-25.3298
  0
LINE
  8
0
 10
16.0748
 20
-25.3298
 11
19.1227
 21
-23.1154
  0
LINE
  8
0
 10
19.1227
 20
-23.1154
 11
21.869
 21
-20.5364
  0
LINE
  8
0
 10
21.869
 20
-20.5364
 11
24.2705
 21
-17.6335
  0
LINE
  8
0
 10
24.2705
 20
-17.6335
 11
26.2892
 21
-14.4526
  0
LINE
  8
0
 10
26.2892
 20
-14.4526
 11
27.8933
 21
-11.0437
  0
LINE
  8
0
 10
27.8933
 20
-11.0437
 11
29.0575
 21
-7.46069
  0
LINE
  8
0
 10
29.0575
 20
-7.46069
 11
29.7634
 21
-3.75999
  0
LINE
  8
0
 10
29.7634
 20
-3.75999
 11
30
 21
0
  0
LINE
  8
0
 10
30
 20
0
 11
29.7634
 21
3.75999
  0
LINE
  8
0
 10
29.7634
 20
3.75999
 11
29.0575
 21
7.46069
  0
LINE
  8
0
 10
29.0575
 20
7.46069
 11
27.8933
 21
11.0437
  0
LINE
  8
0
 10
27.8933
 20
11.0437
 11
26.2892
 21
14.4526
  0
LINE
  8
0
 10
26.2892
 20
14.4526
 11
24.2705
 21
17.6335
  0
LINE
  8
0
 10
24.2705
 20
17.6335
 11
21.869
 21
20.5364
  0
LINE
  8
0
 10
21.869
 20
20.5364
 11
19.1227
 21
23.1154
  0
LINE
  8
0
 10
19.1227
 20
23.1154
 11
16.0748
 21
25.3298
  0
LINE
  8
0
 10
16.0748
 20
25.3298
 11
12.7734
 21
27.1448
  0
LINE
  8
0
 10
12.7734
 20
27.1448
 11
9.27051
 21
28.5317
  0
LINE
  8
0
 10
9.27051
 20
28.5317
 11
5.62143
 21
29.4686
  0
LINE
  8
0
 10
5.62143
 20
29.4686
 11
1.88371
 21
29.9408
  0
LINE
  8
0
 10
1.88371
 20
29.9408
 11
-1.88371
 21
29.9408
  0
LINE
  8
0
 10
-1.88371
 20
29.9408
 11
-5.62143
 21
29.4686
  0
LINE
  8
0
 10
-5.62143
 20
29.4686
 11
-9.27051
 21
28.5317
  0
LINE
  8
0
 10
-9.27051
 20
28.5317
 11
-12.7734
 21
27.1448
  0
LINE
  8
0
 10
-12.7734
 20
27.1448
 11
-16.0748
 21
25.3298
  0
LINE
  8
0
 10
-16.0748
 20
25.3298
 11
-19.1227
 21
23.1154
  0
LINE
  8
0
 10
-19.1227
 20
23.1154
 11
-21.869
 21
20.5364
  0
LINE
  8
0
 10
-21.869
 20
20.5364
 11
-24.2705
 21
17.6335
  0
LINE
  8
0
 10
-24.2705
 20
17.6335
 11
-26.2892
 21
14.4526
  0
LINE
  8
0
 10
-26.2892
 20
14.4526
 11
-27.8933
 21
11.0437
  0
LINE
  8
0
 10
-27.8933
 20
11.0437
 11
-29.0575
 21
7.46069
  0
LINE
  8
0
 10
-29.0575
 20
7.46069
 11
-29.7634
 21
3.75999
  0
LINE
  8
0
 10
-29.7634
 20
3.75999
 11
-30
 21
0
  0
LINE
  8
0
 10
-30
 20
0
 11
-29.7634
 21
-3.75999
  0
LINE
  8
0
 10
-29.7634
 20
-3.75999
 11
-29.0575
 21
-7.46069
  0
LINE
  8
0
 10
-29.0575
 20
-7.46069
 11
-27.8933
 21
-11.0437
  0
LINE
  8
0
 10
-27.8933
 20
-11.0437
 11
-26.2892
 21
-14.4526
  0
LINE
  8
0
 10
-26.2892
 20
-14.4526
 11
-24.2705
 21
-17.6335
  0
LINE
  8
0
 10
-24.2705
 20
-17.6335
 11
-21.869
 21
-20.5364
  0
LINE
  8
0
 10
-21.869
 20
-20.5364
 11
-19.1227
 21
-23.1154
  0
LINE
  8
0
 10
-19.1227
 20
-23.1154
 11
-16.0748
 21
-25.3298
  0
LINE
  8
0
 10
-16.0748
 20
-25.3298
 11
-12.7734
 21
-27.1448
  0
LINE
  8
0
 10
-12.7734
 20
-27.1448
 11
-9.27051
 21
-28.5317
  0
LINE
  8
0
 10
-9.27051
 20
-28.5317
 11
-5.62143
 21
-29.4686
  0
LINE
  8
0
 10
-5.62143
 20
-29.4686
 11
-1.88371
 21
-29.9408
  0
LINE
  8
0
 10
-1.88371
 20
-29.9408
 11
1.88371
 21
-29.9408
  0
LINE
  8
0
 10
1.88371
 20
-29.9408
 11
5.62143
 21
-29.4686
  0
LINE
  8
0
 10
5.39091
 20
3.97778
 11
5.18256
 21
4.02435
  0
LINE
  8
0
 10
5.18256
 20
4.02435
 11
4.98169
 21
4.09666
  0
LINE
  8
0
 10
4.98169
 20
4.09666
 11
4.79147
 21
4.19359
  0
LINE
  8
0
 10
4.79147
 20
4.19359
 11
4.6149
 21
4.31358
  0
LINE
  8
0
 10
4.6149
 20
4.31358
 11
4.45476
 21
4.45476
  0
LINE
  8
0
 10
4.45476
 20
4.45476
 11
4.31358
 21
4.6149
  0
LINE
  8
0
 10
4.31358
 20
4.6149
 11
4.19359
 21
4.79147
  0
LINE
  8
0
 10
4.19359
 20
4.79147
 11
4.09666
 21
4.98169
  0
LINE
  8
0
 10
4.09666
 20
4.98169
 11
4.02435
 21
5.18256
  0
LINE
  8
0
 10
4.02435
 20
5.18256
 11
3.97778
 21
5.39091
  0
LINE
  8
0
 10
3.97778
 20
5.39091
 11
3.95769
 21
5.60345
  0
LINE
  8
0
 10
3.95769
 20
5.60345
 11
3.96439
 21
5.81683
  0
LINE
  8
0
 10
3.96439
 20
5.81683
 11
3.99779
 21
6.02769
  0
LINE
  8
0
 10
3.99779
 20
6.02769
 11
4.05734
 21
6.2327
  0
LINE
  8
0
 10
4.05734
 20
6.2327
 11
4.14214
 21
6.42863
  0
LINE
  8
0
 10
4.14214
 20
6.42863
 11
4.25081
 21
6.61238
  0
LINE
  8
0
 10
4.25081
 20
6.61238
 11
4.38165
 21
6.78108
  0
LINE
  8
0
 10
4.38165
 20
6.78108
 11
4.53262
 21
6.93204
  0
LINE
  8
0
 10
4.53262
 20
6.93204
 11
4.70131
 21
7.06288
  0
LINE
  8
0
 10
4.70131
 20
7.06288
 11
4.88507
 21
7.17155
  0
LINE
  8
0
 10
4.88507
 20
7.17155
 11
5.08099
 21
7.25635
  0
LINE
  8
0
 10
5.08099
 20
7.25635
 11
5.28601
 21
7.3159
  0
LINE
  8
0
 10
5.28601
 20
7.3159
 11
5.49686
 21
7.3493
  0
LINE
  8
0
 10
5.49686
 20
7.3493
 11
5.71025
 21
7.356
  0
LINE
  8
0
 10
5.71025
 20
7.356
 11
5.92279
 21
7.33592
  0
LINE
  8
0
 10
5.92279
 20
7.33592
 11
6.13113
 21
7.28935
  0
LINE
  8
0
 10
6.13113
 20
7.28935
 11
6.332
 21
7.21703
  0
LINE
  8
0
 10
6.332
 20
7.21703
 11
6.52222
 21
7.1201
  0
LINE
  8
0
 10
6.52222
 20
7.1201
 11
6.69879
 21
7.00011
  0
LINE
  8
0
 10
6.69879
 20
7.00011
 11
6.85893
 21
6.85893
  0
LINE
  8
0
 10
6.85893
 20
6.85893
 11
7.00011
 21
6.69879
  0
LINE
  8
0
 10
7.00011
 20
6.69879
 11
7.1201
 21
6.52222
  0
LINE
  8
0
 10
7.1201
 20
6.52222
 11
7.21703
 21
6.332
  0
LINE
  8
0
 10
7.21703
 20
6.332
 11
7.28935
 21
6.13113
  0
LINE
  8
0
 10
7.28935
 20
6.13113
 11
7.33592
 21
5.92279
  0
LINE
  8
0
 10
7.33592
 20
5.92279
 11
7.356
 21
5.71025
  0
LINE
  8
0
 10
7.356
 20
5.71025
 11
7.3493
 21
5.49686
  0
LINE
  8
0
 10
7.3493
 20
5.49686
 11
7.3159
 21
5.28601
  0
LINE
  8
0
 10
7.3159
 20
5.28601
 11
7.25635
 21
5.08099
  0
LINE
  8
0
 10
7.25635
 20
5.08099
 11
7.17155
 21
4.88507
  0
LINE
  8
0
 10
7.17155
 20
4.88507
 11
7.06288
 21
4.70131
  0
LINE
  8
0
 10
7.06288
 20
4.70131
 11
6.93204
 21
4.53262
  0
LINE
  8
0
 10
6.93204
 20
4.53262
 11
6.78108
 21
4.38165
  0
LINE
  8
0
 10
6.78108
 20
4.38165
 11
6.61238
 21
4.25081
  0
LINE
  8
0
 10
6.61238
 20
4.25081
 11
6.42863
 21
4.14214
  0
LINE
  8
0
 10
6.42863
 20
4.14214
 11
6.2327
 21
4.05734
  0
LINE
  8
0
 10
6.2327
 20
4.05734
 11
6.02769
 21
3.99779
  0
LINE
  8
0
 10
6.02769
 20
3.99779
 11
5.81683
 21
3.96439
  0
LINE
  8
0
 10
5.81683
 20
3.96439
 11
5.60345
 21
3.95769
  0
LINE
  8
0
 10
5.60345
 20
3.95769
 11
5.39091
 21
3.97778
  0
LINE
  8
0
 10
-5.92279
 20
3.97778
 11
-6.13113
 21
4.02435
  0
LINE
  8
0
 10
-6.13113
 20
4.02435
 11
-6.332
 21
4.09666
  0
LINE
  8
0
 10
-6.332
 20
4.09666
 11
-6.52222
 21
4.19359
  0
LINE
  8
0
 10
-6.52222
 20
4.19359
 11
-6.69879
 21
4.31358
  0
LINE
  8
0
 10
-6.69879
 20
4.31358
 11
-6.85893
 21
4.45477
  0
LINE
  8
0
 10
-6.85893
 20
4.45477
 11
-7.00011
 21
4.6149
  0
LINE
  8
0
 10
-7.00011
 20
4.6149
 11
-7.1201
 21
4.79147
  0
LINE
  8
0
 10
-7.1201
 20
4.79147
 11
-7.21703
 21
4.98169
  0
LINE
  8
0
 10
-7.21703
 20
4.98169
 11
-7.28935
 21
5.18256
  0
LINE
  8
0
 10
-7.28935
 20
5.18256
 11
-7.33592
 21
5.39091
  0
LINE
  8
0
 10
-7.33592
 20
5.39091
 11
-7.356
 21
5.60345
  0
LINE
  8
0
 10
-7.356
 20
5.60345
 11
-7.3493
 21
5.81683
  0
LINE
  8
0
 10
-7.3493
 20
5.81683
 11
-7.3159
 21
6.02769
  0
LINE
  8
0
 10
-7.3159
 20
6.02769
 11
-7.25635
 21
6.2327
  0
LINE
  8
0
 10
-7.25635
 20
6.2327
 11
-7.17155
 21
6.42863
  0
LINE
  8
0
 10
-7.17155
 20
6.42863
 11
-7.06288
 21
6.61238
  0
LINE
  8
0
 10
-7.06288
 20
6.61238
 11
-6.93204
 21
6.78108
  0
LINE
  8
0
 10
-6.93204
 20
6.78108
 11
-6.78108
 21
6.93204
  0
LINE
  8
0
 10
-6.78108
 20
6.93204
 11
-6.61238
 21
7.06288
  0
LINE
  8
0
 10
-6.61238
 20
7.06288
 11
-6.42863
 21
7.17155
  0
LINE
  8
0
 10
-6.42863
 20
7.17155
 11
-6.2327
 21
7.25635
  0
LINE
  8
0
 10
-6.2327
 20
7.25635
 11
-6.02769
 21
7.3159
  0
LINE
  8
0
 10
-6.02769
 20
7.3159
 11
-5.81683
 21
7.3493
  0
LINE
  8
0
 10
-5.81683
 20
7.3493
 11
-5.60345
 21
7.356
  0
LINE
  8
0
 10
-5.60345
 20
7.356
 11
-5.39091
 21
7.33592
  0
LINE
  8
0
 10
-5.39091
 20
7.33592
 11
-5.18256
 21
7.28935
  0
LINE
  8
0
 10
-5.18256
 20
7.28935
 11
-4.98169
 21
7.21703
  0
LINE
  8
0
 10
-4.98169
 20
7.21703
 11
-4.79147
 21
7.1201
  0
LINE
  8
0
 10
-4.79147
 20
7.1201
 11
-4.6149
 21
7.00011
  0
LINE
  8
0
 10
-4.6149
 20
7.00011
 11
-4.45477
 21
6.85893
  0
LINE
  8
0
 10
-4.45477
 20
6.85893
 11
-4.31358
 21
6.69879
  0
LINE
  8
0
 10
-4.31358
 20
6.69879
 11
-4.19359
 21
6.52222
  0
LINE
  8
0
 10
-4.19359
 20
6.52222
 11
-4.09666
 21
6.332
  0
LINE
  8
0
 10
-4.09666
 20
6.332
 11
-4.02435
 21
6.13113
  0
LINE
  8
0
 10
-4.02435
 20
6.13113
 11
-3.97778
 21
5.92279
  0
LINE
  8
0
 10
-3.97778
 20
5.92279
 11
-3.95769
 21
5.71025
  0
LINE
  8
0
 10
-3.95769
 20
5.71025
 11
-3.96439
 21
5.49686
  0
LINE
  8
0
 10
-3.96439
 20
5.49686
 11
-3.99779
 21
5.286
  0
LINE
  8
0
 10
-3.99779
 20
5.286
 11
-4.05734
 21
5.08099
  0
LINE
  8
0
 10
-4.05734
 20
5.08099
 11
-4.14214
 21
4.88506
  0
LINE
  8
0
 10
-4.14214
 20
4.88506
 11
-4.25081
 21
4.70131
  0
LINE
  8
0
 10
-4.25081
 20
4.70131
 11
-4.38165
 21
4.53262
  0
LINE
  8
0
 10
-4.38165
 20
4.53262
 11
-4.53262
 21
4.38165
  0
LINE
  8
0
 10
-4.53262
 20
4.38165
 11
-4.70131
 21
4.25081
  0
LINE
  8
0
 10
-4.70131
 20
4.25081
 11
-4.88506
 21
4.14214
  0
LINE
  8
0
 10
-4.88506
 20
4.14214
 11
-5.08099
 21
4.05734
  0
LINE
  8
0
 10
-5.08099
 20
4.05734
 11
-5.286
 21
3.99779
  0
LINE
  8
0
 10
-5.286
 20
3.99779
 11
-5.49686
 21
3.96439
  0
LINE
  8
0
 10
-5.49686
 20
3.96439
 11
-5.71025
 21
3.95769
  0
LINE
  8
0
 10
-5.71025
 20
3.95769
 11
-5.92279
 21
3.97778
  0
LINE
  8
0
 10
-0.508408
 20
-3.20998
 11
-0.906708
 21
-3.12094
  0
LINE
  8
0
 10
-0.906708
 20
-3.12094
 11
-1.29073
 21
-2.9827
  0
LINE
  8
0
 10
-1.29073
 20
-2.9827
 11
-1.65437
 21
-2.79741
  0
LINE
  8
0
 10
-1.65437
 20
-2.79741
 11
-1.99194
 21
-2.56799
  0
LINE
  8
0
 10
-1.99194
 20
-2.56799
 11
-2.2981
 21
-2.2981
  0
LINE
  8
0
 10
-2.2981
 20
-2.2981
 11
-2.56799
 21
-1.99194
  0
LINE
  8
0
 10
-2.56799
 20
-1.99194
 11
-2.79741
 21
-1.65437
  0
LINE
  8
0
 10
-2.79741
 20
-1.65437
 11
-2.9827
 21
-1.29073
  0
LINE
  8
0
 10
-2.9827
 20
-1.29073
 11
-3.12094
 21
-0.906708
  0
LINE
  8
0
 10
-3.12094
 20
-0.906708
 11
-3.20998
 21
-0.508408
  0
LINE
  8
0
 10
-3.20998
 20
-0.508408
 11
-3.24838
 21
-0.102081
  0
LINE
  8
0
 10
-3.24838
 20
-0.102081
 11
-3.23557
 21
0.305847
  0
LINE
  8
0
 10
-3.23557
 20
0.305847
 11
-3.17172
 21
0.708954
  0
LINE
  8
0
 10
-3.17172
 20
0.708954
 11
-3.05786
 21
1.10089
  0
LINE
  8
0
 10
-3.05786
 20
1.10089
 11
-2.89577
 21
1.47546
  0
LINE
  8
0
 10
-2.89577
 20
1.47546
 11
-2.688
 21
1.82677
  0
LINE
  8
0
 10
-2.688
 20
1.82677
 11
-2.43785
 21
2.14926
  0
LINE
  8
0
 10
-2.43785
 20
2.14926
 11
-2.14926
 21
2.43785
  0
LINE
  8
0
 10
-2.14926
 20
2.43785
 11
-1.82677
 21
2.688
  0
LINE
  8
0
 10
-1.82677
 20
2.688
 11
-1.47546
 21
2.89577
  0
LINE
  8
0
 10
-1.47546
 20
2.89577
 11
-1.10089
 21
3.05786
  0
LINE
  8
0
 10
-1.10089
 20
3.05786
 11
-0.708954
 21
3.17172
  0
LINE
  8
0
 10
-0.708954
 20
3.17172
 11
-0.305847
 21
3.23557
  0
LINE
  8
0
 10
-0.305847
 20
3.23557
 11
0.102081
 21
3.24838
  0
LINE
  8
0
 10
0.102081
 20
3.24838
 11
0.508408
 21
3.20998
  0
LINE
  8
0
 10
0.508408
 20
3.20998
 11
0.906708
 21
3.12094
  0
LINE
  8
0
 10
0.906708
 20
3.12094
 11
1.29073
 21
2.9827
  0
LINE
  8
0
 10
1.29073
 20
2.9827
 11
1.65437
 21
2.79741
  0
LINE
  8
0
 10
1.65437
 20
2.79741
 11
1.99194
 21
2.56799
  0
LINE
  8
0
 10
1.99194
 20
2.56799
 11
2.2981
 21
2.2981
  0
LINE
  8
0
 10
2.2981
 20
2.2981
 11
2.56799
 21
1.99194
  0
LINE
  8
0
 10
2.56799
 20
1.99194
 11
2.79741
 21
1.65437
  0
LINE
  8
0
 10
2.79741
 20
1.65437
 11
2.9827
 21
1.29073
  0
LINE
  8
0
 10
2.9827
 20
1.29073
 11
3.12094
 21
0.906708
  0
LINE
  8
0
 10
3.12094
 20
0.906708
 11
3.20998
 21
0.508408
  0
LINE
  8
0
 10
3.20998
 20
0.508408
 11
3.24838
 21
0.102081
  0
LINE
  8
0
 10
3.24838
 20
0.102081
 11
3.23557
 21
-0.305847
  0
LINE
  8
0
 10
3.23557
 20
-0.305847
 11
3.17172
 21
-0.708954
  0
LINE
  8
0
 10
3.17172
 20
-0.708954
 11
3.05786
 21
-1.10089
  0
LINE
  8
0
 10
3.05786
 20
-1.10089
 11
2.89577
 21
-1.47546
  0
LINE
  8
0
 10
2.89577
 20
-1.47546
 11
2.688
 21
-1.82677
  0
LINE
  8
0
 10
2.688
 20
-1.82677
 11
2.43785
 21
-2.14926
  0
LINE
  8
0
 10
2.43785
 20
-2.14926
 11
2.14926
 21
-2.43785
  0
LINE
  8
0
 10
2.14926
 20
-2.43785
 11
1.82677
 21
-2.688
  0
LINE
  8
0
 10
1.82677
 20
-2.688
 11
1.47546
 21
-2.89577
  0
LINE
  8
0
 10
1.47546
 20
-2.89577
 11
1.10089
 21
-3.05786
  0
LINE
  8
0
 10
1.10089
 20
-3.05786
 11
0.708954
 21
-3.17172
  0
LINE
  8
0
 10
0.708954
 20
-3.17172
 11
0.305847
 21
-3.23557
  0
LINE
  8
0
 10
0.305847
 20
-3.23557
 11
-0.102081
 21
-3.24838
  0
LINE
  8
0
 10
-0.102081
 20
-3.24838
 11
-0.508408
 21
-3.20998
  0
LINE
  8
0
 10
5.5
 20
-2.5
 11
5.5
 21
2.5
  0
LINE
  8
0
 10
5.5
 20
2.5
 11
8.5
 21
2.5
  0
LINE
  8
0
 10
8.5
 20
2.5
 11
8.5
 21
-2.5
  0
LINE
  8
0
 10
8.5
 20
-2.5
 11
5.5
 21
-2.5
  0
LINE
  8
0
 10
21.5
 20
-2.5
 11
21.5
 21
2.5
  0
LINE
  8
0
 10
21.5
 20
2.5
 11
24.5
 21
2.5
  0
LINE
  8
0
 10
24.5
 20
2.5
 11
24.5
 21
-2.5
  0
LINE
  8
0
 10
24.5
 20
-2.5
 11
21.5
 21
-2.5
  0
LINE
  8
0
 10
-5.92279
 20
-7.33592
 11
-6.13113
 21
-7.28935
  0
LINE
  8
0
 10
-6.13113
 20
-7.28935
 11
-6.332
 21
-7.21703
  0
LINE
  8
0
 10
-6.332
 20
-7.21703
 11
-6.52222
 21
-7.1201
  0
LINE
  8
0
 10
-6.52222
 20
-7.1201
 11
-6.69879
 21
-7.00011
  0
LINE
  8
0
 10
-6.69879
 20
-7.00011
 11
-6.85893
 21
-6.85893
  0
LINE
  8
0
 10
-6.85893
 20
-6.85893
 11
-7.00011
 21
-6.69879
  0
LINE
  8
0
 10
-7.00011
 20
-6.69879
 11
-7.1201
 21
-6.52222
  0
LINE
  8
0
 10
-7.1201
 20
-6.52222
 11
-7.21703
 21
-6.332
  0
LINE
  8
0
 10
-7.21703
 20
-6.332
 11
-7.28935
 21
-6.13113
  0
LINE
  8
0
 10
-7.28935
 20
-6.13113
 11
-7.33592
 21
-5.92279
  0
LINE
  8
0
 10
-7.33592
 20
-5.92279
 11
-7.356
 21
-5.71025
  0
LINE
  8
0
 10
-7.356
 20
-5.71025
 11
-7.3493
 21
-5.49686
  0
LINE
  8
0
 10
-7.3493
 20
-5.49686
 11
-7.3159
 21
-5.28601
  0
LINE
  8
0
 10
-7.3159
 20
-5.28601
 11
-7.25635
 21
-5.08099
  0
LINE
  8
0
 10
-7.25635
 20
-5.08099
 11
-7.17155
 21
-4.88507
  0
LINE
  8
0
 10
-7.17155
 20
-4.88507
 11
-7.06288
 21
-4.70131
  0
LINE
  8
0
 10
-7.06288
 20
-4.70131
 11
-6.93204
 21
-4.53262
  0
LINE
  8
0
 10
-6.93204
 20
-4.53262
 11
-6.78108
 21
-4.38165
  0
LINE
  8
0
 10
-6.78108
 20
-4.38165
 11
-6.61238
 21
-4.25081
  0
LINE
  8
0
 10
-6.61238
 20
-4.25081
 11
-6.42863
 21
-4.14214
  0
LINE
  8
0
 10
-6.42863
 20
-4.14214
 11
-6.2327
 21
-4.05734
  0
LINE
  8
0
 10
-6.2327
 20
-4.05734
 11
-6.02769
 21
-3.99779
  0
LINE
  8
0
 10
-6.02769
 20
-3.99779
 11
-5.81683
 21
-3.96439
  0
LINE
  8
0
 10
-5.81683
 20
-3.96439
 11
-5.60345
 21
-3.95769
  0
LINE
  8
0
 10
-5.60345
 20
-3.95769
 11
-5.39091
 21
-3.97778
  0
LINE
  8
0
 10
-5.39091
 20
-3.97778
 11
-5.18256
 21
-4.02435
  0
LINE
  8
0
 10
-5.18256
 20
-4.02435
 11
-4.98169
 21
-4.09666
  0
LINE
  8
0
 10
-4.98169
 20
-4.09666
 11
-4.79147
 21
-4.19359
  0
LINE
  8
0
 10
-4.79147
 20
-4.19359
 11
-4.6149
 21
-4.31358
  0
LINE
  8
0
 10
-4.6149
 20
-4.31358
 11
-4.45476
 21
-4.45476
  0
LINE
  8
0
 10
-4.45476
 20
-4.45476
 11
-4.31358
 21
-4.6149
  0
LINE
  8
0
 10
-4.31358
 20
-4.6149
 11
-4.19359
 21
-4.79147
  0
LINE
  8
0
 10
-4.19359
 20
-4.79147
 11
-4.09666
 21
-4.98169
  0
LINE
  8
0
 10
-4.09666
 20
-4.98169
 11
-4.02435
 21
-5.18256
  0
LINE
  8
0
 10
-4.02435
 20
-5.18256
 11
-3.97778
 21
-5.39091
  0
LINE
  8
0
 10
-3.97778
 20
-5.39091
 11
-3.95769
 21
-5.60345
  0
LINE
  8
0
 10
-3.95769
 20
-5.60345
 11
-3.96439
 21
-5.81683
  0
LINE
  8
0
 10
-3.96439
 20
-5.81683
 11
-3.99779
 21
-6.02769
  0
LINE
  8
0
 10
-3.99779
 20
-6.02769
 11
-4.05734
 21
-6.2327
  0
LINE
  8
0
 10
-4.05734
 20
-6.2327
 11
-4.14214
 21
-6.42863
  0
LINE
  8
0
 10
-4.14214
 20
-6.42863
 11
-4.25081
 21
-6.61238
  0
LINE
  8
0
 10
-4.25081
 20
-6.61238
 11
-4.38165
 21
-6.78108
  0
LINE
  8
0
 10
-4.38165
 20
-6.78108
 11
-4.53262
 21
-6.93204
  0
LINE
  8
0
 10
-4.53262
 20
-6.93204
 11
-4.70131
 21
-7.06288
  0
LINE
  8
0
 10
-4.70131
 20
-7.06288
 11
-4.88507
 21
-7.17155
  0
LINE
  8
0
 10
-4.88507
 20
-7.17155
 11
-5.08099
 21
-7.25635
  0
LINE
  8
0
 10
-5.08099
 20
-7.25635
 11
-5.28601
 21
-7.3159
  0
LINE
  8
0
 10
-5.28601
 20
-7.3159
 11
-5.49686
 21
-7.3493
  0
LINE
  8
0
 10
-5.49686
 20
-7.3493
 11
-5.71025
 21
-7.356
  0
LINE
  8
0
 10
-5.71025
 20
-7.356
 11
-5.92279
 21
-7.33592
  0
LINE
  8
0
 10
5.39091
 20
-7.33592
 11
5.18256
 21
-7.28935
  0
LINE
  8
0
 10
5.18256
 20
-7.28935
 11
4.98169
 21
-7.21703
  0
LINE
  8
0
 10
4.98169
 20
-7.21703
 11
4.79147
 21
-7.1201
  0
LINE
  8
0
 10
4.79147
 20
-7.1201
 11
4.6149
 21
-7.00011
  0
LINE
  8
0
 10
4.6149
 20
-7.00011
 11
4.45477
 21
-6.85893
  0
LINE
  8
0
 10
4.45477
 20
-6.85893
 11
4.31358
 21
-6.69879
  0
LINE
  8
0
 10
4.31358
 20
-6.69879
 11
4.19359
 21
-6.52222
  0
LINE
  8
0
 10
4.19359
 20
-6.52222
 11
4.09666
 21
-6.332
  0
LINE
  8
0
 10
4.09666
 20
-6.332
 11
4.02435
 21
-6.13113
  0
LINE
  8
0
 10
4.02435
 20
-6.13113
 11
3.97778
 21
-5.92279
  0
LINE
  8
0
 10
3.97778
 20
-5.92279
 11
3.95769
 21
-5.71025
  0
LINE
  8
0
 10
3.95769
 20
-5.71025
 11
3.96439
 21
-5.49686
  0
LINE
  8
0
 10
3.96439
 20
-5.49686
 11
3.99779
 21
-5.286
  0
LINE
  8
0
 10
3.99779
 20
-5.286
 11
4.05734
 21
-5.08099
  0
LINE
  8
0
 10
4.05734
 20
-5.08099
 11
4.14214
 21
-4.88506
  0
LINE
  8
0
 10
4.14214
 20
-4.88506
 11
4.25081
 21
-4.70131
  0
LINE
  8
0
 10
4.25081
 20
-4.70131
 11
4.38165
 21
-4.53262
  0
LINE
  8
0
 10
4.38165
 20
-4.53262
 11
4.53262
 21
-4.38165
  0
LINE
  8
0
 10
4.53262
 20
-4.38165
 11
4.70131
 21
-4.25081
  0
LINE
  8
0
 10
4.70131
 20
-4.25081
 11
4.88506
 21
-4.14214
  0
LINE
  8
0
 10
4.88506
 20
-4.14214
 11
5.08099
 21
-4.05734
  0
LINE
  8
0
 10
5.08099
 20
-4.05734
 11
5.286
 21
-3.99779
  0
LINE
  8
0
 10
5.286
 20
-3.99779
 11
5.49686
 21
-3.96439
  0
LINE
  8
0
 10
5.49686
 20
-3.96439
 11
5.71025
 21
-3.95769
  0
LINE
  8
0
 10
5.71025
 20
-3.95769
 11
5.92279
 21
-3.97778
  0
LINE
  8
0
 10
5.92279
 20
-3.97778
 11
6.13113
 21
-4.02435
  0
LINE
  8
0
 10
6.13113
 20
-4.02435
 11
6.332
 21
-4.09666
  0
LINE
  8
0
 10
6.332
 20
-4.09666
 11
6.52222
 21
-4.19359
  0
LINE
  8
0
 10
6.52222
 20
-4.19359
 11
6.69879
 21
-4.31358
  0
LINE
  8
0
 10
6.69879
 20
-4.31358
 11
6.85893
 21
-4.45477
  0
LINE
  8
0
 10
6.85893
 20
-4.45477
 11
7.00011
 21
-4.6149
  0
LINE
  8
0
 10
7.00011
 20
-4.6149
 11
7.1201
 21
-4.79147
  0
LINE
  8
0
 10
7.1201
 20
-4.79147
 11
7.21703
 21
-4.98169
  0
LINE
  8
0
 10
7.21703
 20
-4.98169
 11
7.28935
 21
-5.18256
  0
LINE
  8
0
 10
7.28935
 20
-5.18256
 11
7.33592
 21
-5.39091
  0
LINE
  8
0
 10
7.33592
 20
-5.39091
 11
7.356
 21
-5.60345
  0
LINE
  8
0
 10
7.356
 20
-5.60345
 11
7.3493
 21
-5.81683
  0
LINE
  8
0
 10
7.3493
 20
-5.81683
 11
7.3159
 21
-6.02769
  0
LINE
  8
0
 10
7.3159
 20
-6.02769
 11
7.25635
 21
-6.2327
  0
LINE
  8
0
 10
7.25635
 20
-6.2327
 11
7.17155
 21
-6.42863
  0
LINE
  8
0
 10
7.17155
 20
-6.42863
 11
7.06288
 21
-6.61238
  0
LINE
  8
0
 10
7.06288
 20
-6.61238
 11
6.93204
 21
-6.78108
  0
LINE
  8
0
 10
6.93204
 20
-6.78108
 11
6.78108
 21
-6.93204
  0
LINE
  8
0
 10
6.78108
 20
-6.93204
 11
6.61238
 21
-7.06288
  0
LINE
  8
0
 10
6.61238
 20
-7.06288
 11
6.42863
 21
-7.17155
  0
LINE
  8
0
 10
6.42863
 20
-7.17155
 11
6.2327
 21
-7.25635
  0
LINE
  8
0
 10
6.2327
 20
-7.25635
 11
6.02769
 21
-7.3159
  0
LINE
  8
0
 10
6.02769
 20
-7.3159
 11
5.81683
 21
-7.3493
  0
LINE
  8
0
 10
5.81683
 20
-7.3493
 11
5.60345
 21
-7.356
  0
LINE
  8
0
 10
5.60345
 20
-7.356
 11
5.39091
 21
-7.33592
  0
ENDSEC
  0
SECTION
  2
OBJECTS
  0
DICTIONARY
  0
ENDSEC
  0
EOF
