  0
SECTION
  2
BLOCKS
  0
ENDSEC
  0
SECTION
  2
ENTITIES
  0
LINE
  8
0
 10
136.627
 20
-33.4606
 11
137.243
 21
-33.3429
  0
LINE
  8
0
 10
137.243
 20
-33.3429
 11
137.841
 21
-33.1489
  0
LINE
  8
0
 10
137.841
 20
-33.1489
 11
138.409
 21
-32.8815
  0
LINE
  8
0
 10
138.409
 20
-32.8815
 11
138.939
 21
-32.5451
  0
LINE
  8
0
 10
138.939
 20
-32.5451
 11
139.423
 21
-32.1448
  0
LINE
  8
0
 10
139.423
 20
-32.1448
 11
139.853
 21
-31.6871
  0
LINE
  8
0
 10
139.853
 20
-31.6871
 11
140.222
 21
-31.1791
  0
LINE
  8
0
 10
140.222
 20
-31.1791
 11
140.524
 21
-30.6289
  0
LINE
  8
0
 10
140.524
 20
-30.6289
 11
140.755
 21
-30.0451
  0
LINE
  8
0
 10
140.755
 20
-30.0451
 11
140.911
 21
-29.4369
  0
LINE
  8
0
 10
140.911
 20
-29.4369
 11
141
 21
-28.5
  0
LINE
  8
0
 10
141
 20
-28.5
 11
141
 21
43.5
  0
LINE
  8
0
 10
141
 20
43.5
 11
140.961
 21
44.1267
  0
LINE
  8
0
 10
140.961
 20
44.1267
 11
140.843
 21
44.7435
  0
LINE
  8
0
 10
140.843
 20
44.7435
 11
140.649
 21
45.3406
  0
LINE
  8
0
 10
140.649
 20
45.3406
 11
140.382
 21
45.9088
  0
LINE
  8
0
 10
140.382
 20
45.9088
 11
140.045
 21
46.4389
  0
LINE
  8
0
 10
140.045
 20
46.4389
 11
139.645
 21
46.9227
  0
LINE
  8
0
 10
139.645
 20
46.9227
 11
139.187
 21
47.3526
  0
LINE
  8
0
 10
139.187
 20
47.3526
 11
138.679
 21
47.7216
  0
LINE
  8
0
 10
138.679
 20
47.7216
 11
138.129
 21
48.0241
  0
LINE
  8
0
 10
138.129
 20
48.0241
 11
137.545
 21
48.2553
  0
LINE
  8
0
 10
137.545
 20
48.2553
 11
136.937
 21
48.4114
  0
LINE
  8
0
 10
136.937
 20
48.4114
 11
136
 21
48.5
  0
LINE
  8
0
 10
136
 20
48.5
 11
64
 21
48.5
  0
LINE
  8
0
 10
64
 20
48.5
 11
63.3733
 21
48.4606
  0
LINE
  8
0
 10
63.3733
 20
48.4606
 11
62.7565
 21
48.3429
  0
LINE
  8
0
 10
62.7565
 20
48.3429
 11
62.1594
 21
48.1489
  0
LINE
  8
0
 10
62.1594
 20
48.1489
 11
61.5912
 21
47.8815
  0
LINE
  8
0
 10
61.5912
 20
47.8815
 11
61.0611
 21
47.5451
  0
LINE
  8
0
 10
61.0611
 20
47.5451
 11
60.5773
 21
47.1448
  0
LINE
  8
0
 10
60.5773
 20
47.1448
 11
60.1474
 21
46.6871
  0
LINE
  8
0
 10
60.1474
 20
46.6871
 11
59.7784
 21
46.1791
  0
LINE
  8
0
 10
59.7784
 20
46.1791
 11
59.4759
 21
45.6289
  0
LINE
  8
0
 10
59.4759
 20
45.6289
 11
59.2447
 21
45.0451
  0
LINE
  8
0
 10
59.2447
 20
45.0451
 11
59.0886
 21
44.4369
  0
LINE
  8
0
 10
59.0886
 20
44.4369
 11
59
 21
43.5
  0
LINE
  8
0
 10
59
 20
43.5
 11
59
 21
-28.5
  0
LINE
  8
0
 10
59
 20
-28.5
 11
59.0394
 21
-29.1267
  0
LINE
  8
0
 10
59.0394
 20
-29.1267
 11
59.1571
 21
-29.7435
  0
LINE
  8
0
 10
59.1571
 20
-29.7435
 11
59.3511
 21
-30.3406
  0
LINE
  8
0
 10
59.3511
 20
-30.3406
 11
59.6185
 21
-30.9088
  0
LINE
  8
0
 10
59.6185
 20
-30.9088
 11
59.9549
 21
-31.4389
  0
LINE
  8
0
 10
59.9549
 20
-31.4389
 11
60.3552
 21
-31.9227
  0
LINE
  8
0
 10
60.3552
 20
-31.9227
 11
60.8129
 21
-32.3526
  0
LINE
  8
0
 10
60.8129
 20
-32.3526
 11
61.3209
 21
-32.7216
  0
LINE
  8
0
 10
61.3209
 20
-32.7216
 11
61.8711
 21
-33.0241
  0
LINE
  8
0
 10
61.8711
 20
-33.0241
 11
62.4549
 21
-33.2553
  0
LINE
  8
0
 10
62.4549
 20
-33.2553
 11
63.0631
 21
-33.4114
  0
LINE
  8
0
 10
63.0631
 20
-33.4114
 11
64
 21
-33.5
  0
LINE
  8
0
 10
64
 20
-33.5
 11
136
 21
-33.5
  0
LINE
  8
0
 10
136
 20
-33.5
 11
136.627
 21
-33.4606
  0
LINE
  8
0
 10
84.7959
 20
34.2564
 11
84.391
 21
34.3076
  0
LINE
  8
0
 10
84.391
 20
34.3076
 11
83.9957
 21
34.4091
  0
LINE
  8
0
 10
83.9957
 20
34.4091
 11
83.6162
 21
34.5593
  0
LINE
  8
0
 10
83.6162
 20
34.5593
 11
83.2586
 21
34.7559
  0
LINE
  8
0
 10
83.2586
 20
34.7559
 11
82.9284
 21
34.9958
  0
LINE
  8
0
 10
82.9284
 20
34.9958
 11
82.6308
 21
35.2752
  0
LINE
  8
0
 10
82.6308
 20
35.2752
 11
82.3707
 21
35.5897
  0
LINE
  8
0
 10
82.3707
 20
35.5897
 11
82.152
 21
35.9343
  0
LINE
  8
0
 10
82.152
 20
35.9343
 11
81.9782
 21
36.3036
  0
LINE
  8
0
 10
81.9782
 20
36.3036
 11
81.8521
 21
36.6918
  0
LINE
  8
0
 10
81.8521
 20
36.6918
 11
81.7756
 21
37.0927
  0
LINE
  8
0
 10
81.7756
 20
37.0927
 11
81.75
 21
37.5
  0
LINE
  8
0
 10
81.75
 20
37.5
 11
81.7756
 21
37.9073
  0
LINE
  8
0
 10
81.7756
 20
37.9073
 11
81.8521
 21
38.3082
  0
LINE
  8
0
 10
81.8521
 20
38.3082
 11
81.9782
 21
38.6964
  0
LINE
  8
0
 10
81.9782
 20
38.6964
 11
82.152
 21
39.0657
  0
LINE
  8
0
 10
82.152
 20
39.0657
 11
82.3707
 21
39.4103
  0
LINE
  8
0
 10
82.3707
 20
39.4103
 11
82.6308
 21
39.7248
  0
LINE
  8
0
 10
82.6308
 20
39.7248
 11
82.9284
 21
40.0042
  0
LINE
  8
0
 10
82.9284
 20
40.0042
 11
83.2586
 21
40.2441
  0
LINE
  8
0
 10
83.2586
 20
40.2441
 11
83.6162
 21
40.4407
  0
LINE
  8
0
 10
83.6162
 20
40.4407
 11
83.9957
 21
40.5909
  0
LINE
  8
0
 10
83.9957
 20
40.5909
 11
84.391
 21
40.6924
  0
LINE
  8
0
 10
84.391
 20
40.6924
 11
84.7959
 21
40.7436
  0
LINE
  8
0
 10
84.7959
 20
40.7436
 11
85.2041
 21
40.7436
  0
LINE
  8
0
 10
85.2041
 20
40.7436
 11
85.609
 21
40.6924
  0
LINE
  8
0
 10
85.609
 20
40.6924
 11
86.0043
 21
40.5909
  0
LINE
  8
0
 10
86.0043
 20
40.5909
 11
86.3838
 21
40.4407
  0
LINE
  8
0
 10
86.3838
 20
40.4407
 11
86.7414
 21
40.2441
  0
LINE
  8
0
 10
86.7414
 20
40.2441
 11
87.0716
 21
40.0042
  0
LINE
  8
0
 10
87.0716
 20
40.0042
 11
87.3691
 21
39.7248
  0
LINE
  8
0
 10
87.3691
 20
39.7248
 11
87.6293
 21
39.4103
  0
LINE
  8
0
 10
87.6293
 20
39.4103
 11
87.848
 21
39.0657
  0
LINE
  8
0
 10
87.848
 20
39.0657
 11
88.0218
 21
38.6964
  0
LINE
  8
0
 10
88.0218
 20
38.6964
 11
88.1479
 21
38.3082
  0
LINE
  8
0
 10
88.1479
 20
38.3082
 11
88.2244
 21
37.9073
  0
LINE
  8
0
 10
88.2244
 20
37.9073
 11
88.25
 21
37.5
  0
LINE
  8
0
 10
88.25
 20
37.5
 11
88.2244
 21
37.0927
  0
LINE
  8
0
 10
88.2244
 20
37.0927
 11
88.1479
 21
36.6918
  0
LINE
  8
0
 10
88.1479
 20
36.6918
 11
88.0218
 21
36.3036
  0
LINE
  8
0
 10
88.0218
 20
36.3036
 11
87.848
 21
35.9343
  0
LINE
  8
0
 10
87.848
 20
35.9343
 11
87.6293
 21
35.5897
  0
LINE
  8
0
 10
87.6293
 20
35.5897
 11
87.3691
 21
35.2752
  0
LINE
  8
0
 10
87.3691
 20
35.2752
 11
87.0716
 21
34.9958
  0
LINE
  8
0
 10
87.0716
 20
34.9958
 11
86.7414
 21
34.7559
  0
LINE
  8
0
 10
86.7414
 20
34.7559
 11
86.3838
 21
34.5593
  0
LINE
  8
0
 10
86.3838
 20
34.5593
 11
86.0043
 21
34.4091
  0
LINE
  8
0
 10
86.0043
 20
34.4091
 11
85.609
 21
34.3076
  0
LINE
  8
0
 10
85.609
 20
34.3076
 11
85.2041
 21
34.2564
  0
LINE
  8
0
 10
85.2041
 20
34.2564
 11
84.7959
 21
34.2564
  0
LINE
  8
0
 10
114.796
 20
34.2564
 11
114.391
 21
34.3076
  0
LINE
  8
0
 10
114.391
 20
34.3076
 11
113.996
 21
34.4091
  0
LINE
  8
0
 10
113.996
 20
34.4091
 11
113.616
 21
34.5593
  0
LINE
  8
0
 10
113.616
 20
34.5593
 11
113.259
 21
34.7559
  0
LINE
  8
0
 10
113.259
 20
34.7559
 11
112.928
 21
34.9958
  0
LINE
  8
0
 10
112.928
 20
34.9958
 11
112.631
 21
35.2752
  0
LINE
  8
0
 10
112.631
 20
35.2752
 11
112.371
 21
35.5897
  0
LINE
  8
0
 10
112.371
 20
35.5897
 11
112.152
 21
35.9343
  0
LINE
  8
0
 10
112.152
 20
35.9343
 11
111.978
 21
36.3036
  0
LINE
  8
0
 10
111.978
 20
36.3036
 11
111.852
 21
36.6918
  0
LINE
  8
0
 10
111.852
 20
36.6918
 11
111.776
 21
37.0927
  0
LINE
  8
0
 10
111.776
 20
37.0927
 11
111.75
 21
37.5
  0
LINE
  8
0
 10
111.75
 20
37.5
 11
111.776
 21
37.9073
  0
LINE
  8
0
 10
111.776
 20
37.9073
 11
111.852
 21
38.3082
  0
LINE
  8
0
 10
111.852
 20
38.3082
 11
111.978
 21
38.6964
  0
LINE
  8
0
 10
111.978
 20
38.6964
 11
112.152
 21
39.0657
  0
LINE
  8
0
 10
112.152
 20
39.0657
 11
112.371
 21
39.4103
  0
LINE
  8
0
 10
112.371
 20
39.4103
 11
112.631
 21
39.7248
  0
LINE
  8
0
 10
112.631
 20
39.7248
 11
112.928
 21
40.0042
  0
LINE
  8
0
 10
112.928
 20
40.0042
 11
113.259
 21
40.2441
  0
LINE
  8
0
 10
113.259
 20
40.2441
 11
113.616
 21
40.4407
  0
LINE
  8
0
 10
113.616
 20
40.4407
 11
113.996
 21
40.5909
  0
LINE
  8
0
 10
113.996
 20
40.5909
 11
114.391
 21
40.6924
  0
LINE
  8
0
 10
114.391
 20
40.6924
 11
114.796
 21
40.7436
  0
LINE
  8
0
 10
114.796
 20
40.7436
 11
115.204
 21
40.7436
  0
LINE
  8
0
 10
115.204
 20
40.7436
 11
115.609
 21
40.6924
  0
LINE
  8
0
 10
115.609
 20
40.6924
 11
116.004
 21
40.5909
  0
LINE
  8
0
 10
116.004
 20
40.5909
 11
116.384
 21
40.4407
  0
LINE
  8
0
 10
116.384
 20
40.4407
 11
116.741
 21
40.2441
  0
LINE
  8
0
 10
116.741
 20
40.2441
 11
117.072
 21
40.0042
  0
LINE
  8
0
 10
117.072
 20
40.0042
 11
117.369
 21
39.7248
  0
LINE
  8
0
 10
117.369
 20
39.7248
 11
117.629
 21
39.4103
  0
LINE
  8
0
 10
117.629
 20
39.4103
 11
117.848
 21
39.0657
  0
LINE
  8
0
 10
117.848
 20
39.0657
 11
118.022
 21
38.6964
  0
LINE
  8
0
 10
118.022
 20
38.6964
 11
118.148
 21
38.3082
  0
LINE
  8
0
 10
118.148
 20
38.3082
 11
118.224
 21
37.9073
  0
LINE
  8
0
 10
118.224
 20
37.9073
 11
118.25
 21
37.5
  0
LINE
  8
0
 10
118.25
 20
37.5
 11
118.224
 21
37.0927
  0
LINE
  8
0
 10
118.224
 20
37.0927
 11
118.148
 21
36.6918
  0
LINE
  8
0
 10
118.148
 20
36.6918
 11
118.022
 21
36.3036
  0
LINE
  8
0
 10
118.022
 20
36.3036
 11
117.848
 21
35.9343
  0
LINE
  8
0
 10
117.848
 20
35.9343
 11
117.629
 21
35.5897
  0
LINE
  8
0
 10
117.629
 20
35.5897
 11
117.369
 21
35.2752
  0
LINE
  8
0
 10
117.369
 20
35.2752
 11
117.072
 21
34.9958
  0
LINE
  8
0
 10
117.072
 20
34.9958
 11
116.741
 21
34.7559
  0
LINE
  8
0
 10
116.741
 20
34.7559
 11
116.384
 21
34.5593
  0
LINE
  8
0
 10
116.384
 20
34.5593
 11
116.004
 21
34.4091
  0
LINE
  8
0
 10
116.004
 20
34.4091
 11
115.609
 21
34.3076
  0
LINE
  8
0
 10
115.609
 20
34.3076
 11
115.204
 21
34.2564
  0
LINE
  8
0
 10
115.204
 20
34.2564
 11
114.796
 21
34.2564
  0
LINE
  8
0
 10
99.7959
 20
34.2564
 11
99.391
 21
34.3076
  0
LINE
  8
0
 10
99.391
 20
34.3076
 11
98.9957
 21
34.4091
  0
LINE
  8
0
 10
98.9957
 20
34.4091
 11
98.6162
 21
34.5593
  0
LINE
  8
0
 10
98.6162
 20
34.5593
 11
98.2586
 21
34.7559
  0
LINE
  8
0
 10
98.2586
 20
34.7559
 11
97.9284
 21
34.9958
  0
LINE
  8
0
 10
97.9284
 20
34.9958
 11
97.6308
 21
35.2752
  0
LINE
  8
0
 10
97.6308
 20
35.2752
 11
97.3707
 21
35.5897
  0
LINE
  8
0
 10
97.3707
 20
35.5897
 11
97.152
 21
35.9343
  0
LINE
  8
0
 10
97.152
 20
35.9343
 11
96.9782
 21
36.3036
  0
LINE
  8
0
 10
96.9782
 20
36.3036
 11
96.8521
 21
36.6918
  0
LINE
  8
0
 10
96.8521
 20
36.6918
 11
96.7756
 21
37.0927
  0
LINE
  8
0
 10
96.7756
 20
37.0927
 11
96.75
 21
37.5
  0
LINE
  8
0
 10
96.75
 20
37.5
 11
96.7756
 21
37.9073
  0
LINE
  8
0
 10
96.7756
 20
37.9073
 11
96.8521
 21
38.3082
  0
LINE
  8
0
 10
96.8521
 20
38.3082
 11
96.9782
 21
38.6964
  0
LINE
  8
0
 10
96.9782
 20
38.6964
 11
97.152
 21
39.0657
  0
LINE
  8
0
 10
97.152
 20
39.0657
 11
97.3707
 21
39.4103
  0
LINE
  8
0
 10
97.3707
 20
39.4103
 11
97.6308
 21
39.7248
  0
LINE
  8
0
 10
97.6308
 20
39.7248
 11
97.9284
 21
40.0042
  0
LINE
  8
0
 10
97.9284
 20
40.0042
 11
98.2586
 21
40.2441
  0
LINE
  8
0
 10
98.2586
 20
40.2441
 11
98.6162
 21
40.4407
  0
LINE
  8
0
 10
98.6162
 20
40.4407
 11
98.9957
 21
40.5909
  0
LINE
  8
0
 10
98.9957
 20
40.5909
 11
99.391
 21
40.6924
  0
LINE
  8
0
 10
99.391
 20
40.6924
 11
99.7959
 21
40.7436
  0
LINE
  8
0
 10
99.7959
 20
40.7436
 11
100.204
 21
40.7436
  0
LINE
  8
0
 10
100.204
 20
40.7436
 11
100.609
 21
40.6924
  0
LINE
  8
0
 10
100.609
 20
40.6924
 11
101.004
 21
40.5909
  0
LINE
  8
0
 10
101.004
 20
40.5909
 11
101.384
 21
40.4407
  0
LINE
  8
0
 10
101.384
 20
40.4407
 11
101.741
 21
40.2441
  0
LINE
  8
0
 10
101.741
 20
40.2441
 11
102.072
 21
40.0042
  0
LINE
  8
0
 10
102.072
 20
40.0042
 11
102.369
 21
39.7248
  0
LINE
  8
0
 10
102.369
 20
39.7248
 11
102.629
 21
39.4103
  0
LINE
  8
0
 10
102.629
 20
39.4103
 11
102.848
 21
39.0657
  0
LINE
  8
0
 10
102.848
 20
39.0657
 11
103.022
 21
38.6964
  0
LINE
  8
0
 10
103.022
 20
38.6964
 11
103.148
 21
38.3082
  0
LINE
  8
0
 10
103.148
 20
38.3082
 11
103.224
 21
37.9073
  0
LINE
  8
0
 10
103.224
 20
37.9073
 11
103.25
 21
37.5
  0
LINE
  8
0
 10
103.25
 20
37.5
 11
103.224
 21
37.0927
  0
LINE
  8
0
 10
103.224
 20
37.0927
 11
103.148
 21
36.6918
  0
LINE
  8
0
 10
103.148
 20
36.6918
 11
103.022
 21
36.3036
  0
LINE
  8
0
 10
103.022
 20
36.3036
 11
102.848
 21
35.9343
  0
LINE
  8
0
 10
102.848
 20
35.9343
 11
102.629
 21
35.5897
  0
LINE
  8
0
 10
102.629
 20
35.5897
 11
102.369
 21
35.2752
  0
LINE
  8
0
 10
102.369
 20
35.2752
 11
102.072
 21
34.9958
  0
LINE
  8
0
 10
102.072
 20
34.9958
 11
101.741
 21
34.7559
  0
LINE
  8
0
 10
101.741
 20
34.7559
 11
101.384
 21
34.5593
  0
LINE
  8
0
 10
101.384
 20
34.5593
 11
101.004
 21
34.4091
  0
LINE
  8
0
 10
101.004
 20
34.4091
 11
100.609
 21
34.3076
  0
LINE
  8
0
 10
100.609
 20
34.3076
 11
100.204
 21
34.2564
  0
LINE
  8
0
 10
100.204
 20
34.2564
 11
99.7959
 21
34.2564
  0
LINE
  8
0
 10
69.7959
 20
34.2564
 11
69.391
 21
34.3076
  0
LINE
  8
0
 10
69.391
 20
34.3076
 11
68.9957
 21
34.4091
  0
LINE
  8
0
 10
68.9957
 20
34.4091
 11
68.6162
 21
34.5593
  0
LINE
  8
0
 10
68.6162
 20
34.5593
 11
68.2586
 21
34.7559
  0
LINE
  8
0
 10
68.2586
 20
34.7559
 11
67.9284
 21
34.9958
  0
LINE
  8
0
 10
67.9284
 20
34.9958
 11
67.6308
 21
35.2752
  0
LINE
  8
0
 10
67.6308
 20
35.2752
 11
67.3707
 21
35.5897
  0
LINE
  8
0
 10
67.3707
 20
35.5897
 11
67.152
 21
35.9343
  0
LINE
  8
0
 10
67.152
 20
35.9343
 11
66.9782
 21
36.3036
  0
LINE
  8
0
 10
66.9782
 20
36.3036
 11
66.8521
 21
36.6918
  0
LINE
  8
0
 10
66.8521
 20
36.6918
 11
66.7756
 21
37.0927
  0
LINE
  8
0
 10
66.7756
 20
37.0927
 11
66.75
 21
37.5
  0
LINE
  8
0
 10
66.75
 20
37.5
 11
66.7756
 21
37.9073
  0
LINE
  8
0
 10
66.7756
 20
37.9073
 11
66.8521
 21
38.3082
  0
LINE
  8
0
 10
66.8521
 20
38.3082
 11
66.9782
 21
38.6964
  0
LINE
  8
0
 10
66.9782
 20
38.6964
 11
67.152
 21
39.0657
  0
LINE
  8
0
 10
67.152
 20
39.0657
 11
67.3707
 21
39.4103
  0
LINE
  8
0
 10
67.3707
 20
39.4103
 11
67.6308
 21
39.7248
  0
LINE
  8
0
 10
67.6308
 20
39.7248
 11
67.9284
 21
40.0042
  0
LINE
  8
0
 10
67.9284
 20
40.0042
 11
68.2586
 21
40.2441
  0
LINE
  8
0
 10
68.2586
 20
40.2441
 11
68.6162
 21
40.4407
  0
LINE
  8
0
 10
68.6162
 20
40.4407
 11
68.9957
 21
40.5909
  0
LINE
  8
0
 10
68.9957
 20
40.5909
 11
69.391
 21
40.6924
  0
LINE
  8
0
 10
69.391
 20
40.6924
 11
69.7959
 21
40.7436
  0
LINE
  8
0
 10
69.7959
 20
40.7436
 11
70.2041
 21
40.7436
  0
LINE
  8
0
 10
70.2041
 20
40.7436
 11
70.609
 21
40.6924
  0
LINE
  8
0
 10
70.609
 20
40.6924
 11
71.0043
 21
40.5909
  0
LINE
  8
0
 10
71.0043
 20
40.5909
 11
71.3838
 21
40.4407
  0
LINE
  8
0
 10
71.3838
 20
40.4407
 11
71.7414
 21
40.2441
  0
LINE
  8
0
 10
71.7414
 20
40.2441
 11
72.0716
 21
40.0042
  0
LINE
  8
0
 10
72.0716
 20
40.0042
 11
72.3691
 21
39.7248
  0
LINE
  8
0
 10
72.3691
 20
39.7248
 11
72.6293
 21
39.4103
  0
LINE
  8
0
 10
72.6293
 20
39.4103
 11
72.848
 21
39.0657
  0
LINE
  8
0
 10
72.848
 20
39.0657
 11
73.0218
 21
38.6964
  0
LINE
  8
0
 10
73.0218
 20
38.6964
 11
73.1479
 21
38.3082
  0
LINE
  8
0
 10
73.1479
 20
38.3082
 11
73.2244
 21
37.9073
  0
LINE
  8
0
 10
73.2244
 20
37.9073
 11
73.25
 21
37.5
  0
LINE
  8
0
 10
73.25
 20
37.5
 11
73.2244
 21
37.0927
  0
LINE
  8
0
 10
73.2244
 20
37.0927
 11
73.1479
 21
36.6918
  0
LINE
  8
0
 10
73.1479
 20
36.6918
 11
73.0218
 21
36.3036
  0
LINE
  8
0
 10
73.0218
 20
36.3036
 11
72.848
 21
35.9343
  0
LINE
  8
0
 10
72.848
 20
35.9343
 11
72.6293
 21
35.5897
  0
LINE
  8
0
 10
72.6293
 20
35.5897
 11
72.3691
 21
35.2752
  0
LINE
  8
0
 10
72.3691
 20
35.2752
 11
72.0716
 21
34.9958
  0
LINE
  8
0
 10
72.0716
 20
34.9958
 11
71.7414
 21
34.7559
  0
LINE
  8
0
 10
71.7414
 20
34.7559
 11
71.3838
 21
34.5593
  0
LINE
  8
0
 10
71.3838
 20
34.5593
 11
71.0043
 21
34.4091
  0
LINE
  8
0
 10
71.0043
 20
34.4091
 11
70.609
 21
34.3076
  0
LINE
  8
0
 10
70.609
 20
34.3076
 11
70.2041
 21
34.2564
  0
LINE
  8
0
 10
70.2041
 20
34.2564
 11
69.7959
 21
34.2564
  0
LINE
  8
0
 10
129.796
 20
34.2564
 11
129.391
 21
34.3076
  0
LINE
  8
0
 10
129.391
 20
34.3076
 11
128.996
 21
34.4091
  0
LINE
  8
0
 10
128.996
 20
34.4091
 11
128.616
 21
34.5593
  0
LINE
  8
0
 10
128.616
 20
34.5593
 11
128.259
 21
34.7559
  0
LINE
  8
0
 10
128.259
 20
34.7559
 11
127.928
 21
34.9958
  0
LINE
  8
0
 10
127.928
 20
34.9958
 11
127.631
 21
35.2752
  0
LINE
  8
0
 10
127.631
 20
35.2752
 11
127.371
 21
35.5897
  0
LINE
  8
0
 10
127.371
 20
35.5897
 11
127.152
 21
35.9343
  0
LINE
  8
0
 10
127.152
 20
35.9343
 11
126.978
 21
36.3036
  0
LINE
  8
0
 10
126.978
 20
36.3036
 11
126.852
 21
36.6918
  0
LINE
  8
0
 10
126.852
 20
36.6918
 11
126.776
 21
37.0927
  0
LINE
  8
0
 10
126.776
 20
37.0927
 11
126.75
 21
37.5
  0
LINE
  8
0
 10
126.75
 20
37.5
 11
126.776
 21
37.9073
  0
LINE
  8
0
 10
126.776
 20
37.9073
 11
126.852
 21
38.3082
  0
LINE
  8
0
 10
126.852
 20
38.3082
 11
126.978
 21
38.6964
  0
LINE
  8
0
 10
126.978
 20
38.6964
 11
127.152
 21
39.0657
  0
LINE
  8
0
 10
127.152
 20
39.0657
 11
127.371
 21
39.4103
  0
LINE
  8
0
 10
127.371
 20
39.4103
 11
127.631
 21
39.7248
  0
LINE
  8
0
 10
127.631
 20
39.7248
 11
127.928
 21
40.0042
  0
LINE
  8
0
 10
127.928
 20
40.0042
 11
128.259
 21
40.2441
  0
LINE
  8
0
 10
128.259
 20
40.2441
 11
128.616
 21
40.4407
  0
LINE
  8
0
 10
128.616
 20
40.4407
 11
128.996
 21
40.5909
  0
LINE
  8
0
 10
128.996
 20
40.5909
 11
129.391
 21
40.6924
  0
LINE
  8
0
 10
129.391
 20
40.6924
 11
129.796
 21
40.7436
  0
LINE
  8
0
 10
129.796
 20
40.7436
 11
130.204
 21
40.7436
  0
LINE
  8
0
 10
130.204
 20
40.7436
 11
130.609
 21
40.6924
  0
LINE
  8
0
 10
130.609
 20
40.6924
 11
131.004
 21
40.5909
  0
LINE
  8
0
 10
131.004
 20
40.5909
 11
131.384
 21
40.4407
  0
LINE
  8
0
 10
131.384
 20
40.4407
 11
131.741
 21
40.2441
  0
LINE
  8
0
 10
131.741
 20
40.2441
 11
132.072
 21
40.0042
  0
LINE
  8
0
 10
132.072
 20
40.0042
 11
132.369
 21
39.7248
  0
LINE
  8
0
 10
132.369
 20
39.7248
 11
132.629
 21
39.4103
  0
LINE
  8
0
 10
132.629
 20
39.4103
 11
132.848
 21
39.0657
  0
LINE
  8
0
 10
132.848
 20
39.0657
 11
133.022
 21
38.6964
  0
LINE
  8
0
 10
133.022
 20
38.6964
 11
133.148
 21
38.3082
  0
LINE
  8
0
 10
133.148
 20
38.3082
 11
133.224
 21
37.9073
  0
LINE
  8
0
 10
133.224
 20
37.9073
 11
133.25
 21
37.5
  0
LINE
  8
0
 10
133.25
 20
37.5
 11
133.224
 21
37.0927
  0
LINE
  8
0
 10
133.224
 20
37.0927
 11
133.148
 21
36.6918
  0
LINE
  8
0
 10
133.148
 20
36.6918
 11
133.022
 21
36.3036
  0
LINE
  8
0
 10
133.022
 20
36.3036
 11
132.848
 21
35.9343
  0
LINE
  8
0
 10
132.848
 20
35.9343
 11
132.629
 21
35.5897
  0
LINE
  8
0
 10
132.629
 20
35.5897
 11
132.369
 21
35.2752
  0
LINE
  8
0
 10
132.369
 20
35.2752
 11
132.072
 21
34.9958
  0
LINE
  8
0
 10
132.072
 20
34.9958
 11
131.741
 21
34.7559
  0
LINE
  8
0
 10
131.741
 20
34.7559
 11
131.384
 21
34.5593
  0
LINE
  8
0
 10
131.384
 20
34.5593
 11
131.004
 21
34.4091
  0
LINE
  8
0
 10
131.004
 20
34.4091
 11
130.609
 21
34.3076
  0
LINE
  8
0
 10
130.609
 20
34.3076
 11
130.204
 21
34.2564
  0
LINE
  8
0
 10
130.204
 20
34.2564
 11
129.796
 21
34.2564
  0
LINE
  8
0
 10
120.167
 20
14.7605
 11
119.507
 21
14.8439
  0
LINE
  8
0
 10
119.507
 20
14.8439
 11
118.862
 21
15.0094
  0
LINE
  8
0
 10
118.862
 20
15.0094
 11
118.243
 21
15.2544
  0
LINE
  8
0
 10
118.243
 20
15.2544
 11
117.66
 21
15.5751
  0
LINE
  8
0
 10
117.66
 20
15.5751
 11
117.122
 21
15.9663
  0
LINE
  8
0
 10
117.122
 20
15.9663
 11
116.636
 21
16.4219
  0
LINE
  8
0
 10
116.636
 20
16.4219
 11
116.212
 21
16.9347
  0
LINE
  8
0
 10
116.212
 20
16.9347
 11
115.856
 21
17.4967
  0
LINE
  8
0
 10
115.856
 20
17.4967
 11
115.572
 21
18.0989
  0
LINE
  8
0
 10
115.572
 20
18.0989
 11
115.367
 21
18.7319
  0
LINE
  8
0
 10
115.367
 20
18.7319
 11
115.242
 21
19.3857
  0
LINE
  8
0
 10
115.242
 20
19.3857
 11
115.2
 21
20.05
  0
LINE
  8
0
 10
115.2
 20
20.05
 11
115.242
 21
20.7143
  0
LINE
  8
0
 10
115.242
 20
20.7143
 11
115.367
 21
21.3681
  0
LINE
  8
0
 10
115.367
 20
21.3681
 11
115.572
 21
22.0011
  0
LINE
  8
0
 10
115.572
 20
22.0011
 11
115.856
 21
22.6033
  0
LINE
  8
0
 10
115.856
 20
22.6033
 11
116.212
 21
23.1653
  0
LINE
  8
0
 10
116.212
 20
23.1653
 11
116.636
 21
23.6781
  0
LINE
  8
0
 10
116.636
 20
23.6781
 11
117.122
 21
24.1337
  0
LINE
  8
0
 10
117.122
 20
24.1337
 11
117.66
 21
24.5249
  0
LINE
  8
0
 10
117.66
 20
24.5249
 11
118.243
 21
24.8456
  0
LINE
  8
0
 10
118.243
 20
24.8456
 11
118.862
 21
25.0906
  0
LINE
  8
0
 10
118.862
 20
25.0906
 11
119.507
 21
25.2561
  0
LINE
  8
0
 10
119.507
 20
25.2561
 11
120.167
 21
25.3395
  0
LINE
  8
0
 10
120.167
 20
25.3395
 11
120.833
 21
25.3395
  0
LINE
  8
0
 10
120.833
 20
25.3395
 11
121.493
 21
25.2561
  0
LINE
  8
0
 10
121.493
 20
25.2561
 11
122.138
 21
25.0906
  0
LINE
  8
0
 10
122.138
 20
25.0906
 11
122.757
 21
24.8456
  0
LINE
  8
0
 10
122.757
 20
24.8456
 11
123.34
 21
24.5249
  0
LINE
  8
0
 10
123.34
 20
24.5249
 11
123.878
 21
24.1337
  0
LINE
  8
0
 10
123.878
 20
24.1337
 11
124.364
 21
23.6781
  0
LINE
  8
0
 10
124.364
 20
23.6781
 11
124.788
 21
23.1653
  0
LINE
  8
0
 10
124.788
 20
23.1653
 11
125.144
 21
22.6033
  0
LINE
  8
0
 10
125.144
 20
22.6033
 11
125.428
 21
22.0011
  0
LINE
  8
0
 10
125.428
 20
22.0011
 11
125.633
 21
21.3681
  0
LINE
  8
0
 10
125.633
 20
21.3681
 11
125.758
 21
20.7143
  0
LINE
  8
0
 10
125.758
 20
20.7143
 11
125.8
 21
20.05
  0
LINE
  8
0
 10
125.8
 20
20.05
 11
125.758
 21
19.3857
  0
LINE
  8
0
 10
125.758
 20
19.3857
 11
125.633
 21
18.7319
  0
LINE
  8
0
 10
125.633
 20
18.7319
 11
125.428
 21
18.0989
  0
LINE
  8
0
 10
125.428
 20
18.0989
 11
125.144
 21
17.4967
  0
LINE
  8
0
 10
125.144
 20
17.4967
 11
124.788
 21
16.9347
  0
LINE
  8
0
 10
124.788
 20
16.9347
 11
124.364
 21
16.4219
  0
LINE
  8
0
 10
124.364
 20
16.4219
 11
123.878
 21
15.9663
  0
LINE
  8
0
 10
123.878
 20
15.9663
 11
123.34
 21
15.5751
  0
LINE
  8
0
 10
123.34
 20
15.5751
 11
122.757
 21
15.2544
  0
LINE
  8
0
 10
122.757
 20
15.2544
 11
122.138
 21
15.0094
  0
LINE
  8
0
 10
122.138
 20
15.0094
 11
121.493
 21
14.8439
  0
LINE
  8
0
 10
121.493
 20
14.8439
 11
120.833
 21
14.7605
  0
LINE
  8
0
 10
120.833
 20
14.7605
 11
120.167
 21
14.7605
  0
LINE
  8
0
 10
80.1672
 20
14.7605
 11
79.5069
 21
14.8439
  0
LINE
  8
0
 10
79.5069
 20
14.8439
 11
78.8622
 21
15.0094
  0
LINE
  8
0
 10
78.8622
 20
15.0094
 11
78.2434
 21
15.2544
  0
LINE
  8
0
 10
78.2434
 20
15.2544
 11
77.6601
 21
15.5751
  0
LINE
  8
0
 10
77.6601
 20
15.5751
 11
77.1216
 21
15.9663
  0
LINE
  8
0
 10
77.1216
 20
15.9663
 11
76.6365
 21
16.4219
  0
LINE
  8
0
 10
76.6365
 20
16.4219
 11
76.2122
 21
16.9347
  0
LINE
  8
0
 10
76.2122
 20
16.9347
 11
75.8556
 21
17.4967
  0
LINE
  8
0
 10
75.8556
 20
17.4967
 11
75.5722
 21
18.0989
  0
LINE
  8
0
 10
75.5722
 20
18.0989
 11
75.3665
 21
18.7319
  0
LINE
  8
0
 10
75.3665
 20
18.7319
 11
75.2418
 21
19.3857
  0
LINE
  8
0
 10
75.2418
 20
19.3857
 11
75.2
 21
20.05
  0
LINE
  8
0
 10
75.2
 20
20.05
 11
75.2418
 21
20.7143
  0
LINE
  8
0
 10
75.2418
 20
20.7143
 11
75.3665
 21
21.3681
  0
LINE
  8
0
 10
75.3665
 20
21.3681
 11
75.5722
 21
22.0011
  0
LINE
  8
0
 10
75.5722
 20
22.0011
 11
75.8556
 21
22.6033
  0
LINE
  8
0
 10
75.8556
 20
22.6033
 11
76.2122
 21
23.1653
  0
LINE
  8
0
 10
76.2122
 20
23.1653
 11
76.6365
 21
23.6781
  0
LINE
  8
0
 10
76.6365
 20
23.6781
 11
77.1216
 21
24.1337
  0
LINE
  8
0
 10
77.1216
 20
24.1337
 11
77.6601
 21
24.5249
  0
LINE
  8
0
 10
77.6601
 20
24.5249
 11
78.2434
 21
24.8456
  0
LINE
  8
0
 10
78.2434
 20
24.8456
 11
78.8622
 21
25.0906
  0
LINE
  8
0
 10
78.8622
 20
25.0906
 11
79.5069
 21
25.2561
  0
LINE
  8
0
 10
79.5069
 20
25.2561
 11
80.1672
 21
25.3395
  0
LINE
  8
0
 10
80.1672
 20
25.3395
 11
80.8328
 21
25.3395
  0
LINE
  8
0
 10
80.8328
 20
25.3395
 11
81.4931
 21
25.2561
  0
LINE
  8
0
 10
81.4931
 20
25.2561
 11
82.1378
 21
25.0906
  0
LINE
  8
0
 10
82.1378
 20
25.0906
 11
82.7566
 21
24.8456
  0
LINE
  8
0
 10
82.7566
 20
24.8456
 11
83.3399
 21
24.5249
  0
LINE
  8
0
 10
83.3399
 20
24.5249
 11
83.8783
 21
24.1337
  0
LINE
  8
0
 10
83.8783
 20
24.1337
 11
84.3635
 21
23.6781
  0
LINE
  8
0
 10
84.3635
 20
23.6781
 11
84.7878
 21
23.1653
  0
LINE
  8
0
 10
84.7878
 20
23.1653
 11
85.1444
 21
22.6033
  0
LINE
  8
0
 10
85.1444
 20
22.6033
 11
85.4278
 21
22.0011
  0
LINE
  8
0
 10
85.4278
 20
22.0011
 11
85.6335
 21
21.3681
  0
LINE
  8
0
 10
85.6335
 20
21.3681
 11
85.7582
 21
20.7143
  0
LINE
  8
0
 10
85.7582
 20
20.7143
 11
85.8
 21
20.05
  0
LINE
  8
0
 10
85.8
 20
20.05
 11
85.7582
 21
19.3857
  0
LINE
  8
0
 10
85.7582
 20
19.3857
 11
85.6335
 21
18.7319
  0
LINE
  8
0
 10
85.6335
 20
18.7319
 11
85.4278
 21
18.0989
  0
LINE
  8
0
 10
85.4278
 20
18.0989
 11
85.1444
 21
17.4967
  0
LINE
  8
0
 10
85.1444
 20
17.4967
 11
84.7878
 21
16.9347
  0
LINE
  8
0
 10
84.7878
 20
16.9347
 11
84.3635
 21
16.4219
  0
LINE
  8
0
 10
84.3635
 20
16.4219
 11
83.8783
 21
15.9663
  0
LINE
  8
0
 10
83.8783
 20
15.9663
 11
83.3399
 21
15.5751
  0
LINE
  8
0
 10
83.3399
 20
15.5751
 11
82.7566
 21
15.2544
  0
LINE
  8
0
 10
82.7566
 20
15.2544
 11
82.1378
 21
15.0094
  0
LINE
  8
0
 10
82.1378
 20
15.0094
 11
81.4931
 21
14.8439
  0
LINE
  8
0
 10
81.4931
 20
14.8439
 11
80.8328
 21
14.7605
  0
LINE
  8
0
 10
80.8328
 20
14.7605
 11
80.1672
 21
14.7605
  0
LINE
  8
0
 10
98.8932
 20
15.9034
 11
98.6814
 21
15.9301
  0
LINE
  8
0
 10
98.6814
 20
15.9301
 11
98.4747
 21
15.9832
  0
LINE
  8
0
 10
98.4747
 20
15.9832
 11
98.2762
 21
16.0618
  0
LINE
  8
0
 10
98.2762
 20
16.0618
 11
98.0891
 21
16.1646
  0
LINE
  8
0
 10
98.0891
 20
16.1646
 11
97.9164
 21
16.2901
  0
LINE
  8
0
 10
97.9164
 20
16.2901
 11
97.7608
 21
16.4363
  0
LINE
  8
0
 10
97.7608
 20
16.4363
 11
97.6247
 21
16.6008
  0
LINE
  8
0
 10
97.6247
 20
16.6008
 11
97.5103
 21
16.781
  0
LINE
  8
0
 10
97.5103
 20
16.781
 11
97.4194
 21
16.9742
  0
LINE
  8
0
 10
97.4194
 20
16.9742
 11
97.3534
 21
17.1772
  0
LINE
  8
0
 10
97.3534
 20
17.1772
 11
97.3134
 21
17.3869
  0
LINE
  8
0
 10
97.3134
 20
17.3869
 11
97.3
 21
17.6
  0
LINE
  8
0
 10
97.3
 20
17.6
 11
97.3134
 21
17.8131
  0
LINE
  8
0
 10
97.3134
 20
17.8131
 11
97.3534
 21
18.0228
  0
LINE
  8
0
 10
97.3534
 20
18.0228
 11
97.4194
 21
18.2258
  0
LINE
  8
0
 10
97.4194
 20
18.2258
 11
97.5103
 21
18.419
  0
LINE
  8
0
 10
97.5103
 20
18.419
 11
97.6247
 21
18.5992
  0
LINE
  8
0
 10
97.6247
 20
18.5992
 11
97.7608
 21
18.7637
  0
LINE
  8
0
 10
97.7608
 20
18.7637
 11
97.9164
 21
18.9099
  0
LINE
  8
0
 10
97.9164
 20
18.9099
 11
98.0891
 21
19.0354
  0
LINE
  8
0
 10
98.0891
 20
19.0354
 11
98.2762
 21
19.1382
  0
LINE
  8
0
 10
98.2762
 20
19.1382
 11
98.4747
 21
19.2168
  0
LINE
  8
0
 10
98.4747
 20
19.2168
 11
98.6814
 21
19.2699
  0
LINE
  8
0
 10
98.6814
 20
19.2699
 11
98.8932
 21
19.2966
  0
LINE
  8
0
 10
98.8932
 20
19.2966
 11
99.1067
 21
19.2966
  0
LINE
  8
0
 10
99.1067
 20
19.2966
 11
99.3185
 21
19.2699
  0
LINE
  8
0
 10
99.3185
 20
19.2699
 11
99.5253
 21
19.2168
  0
LINE
  8
0
 10
99.5253
 20
19.2168
 11
99.7238
 21
19.1382
  0
LINE
  8
0
 10
99.7238
 20
19.1382
 11
99.9109
 21
19.0354
  0
LINE
  8
0
 10
99.9109
 20
19.0354
 11
100.084
 21
18.9099
  0
LINE
  8
0
 10
100.084
 20
18.9099
 11
100.239
 21
18.7637
  0
LINE
  8
0
 10
100.239
 20
18.7637
 11
100.375
 21
18.5992
  0
LINE
  8
0
 10
100.375
 20
18.5992
 11
100.49
 21
18.419
  0
LINE
  8
0
 10
100.49
 20
18.419
 11
100.581
 21
18.2258
  0
LINE
  8
0
 10
100.581
 20
18.2258
 11
100.647
 21
18.0228
  0
LINE
  8
0
 10
100.647
 20
18.0228
 11
100.687
 21
17.8131
  0
LINE
  8
0
 10
100.687
 20
17.8131
 11
100.7
 21
17.6
  0
LINE
  8
0
 10
100.7
 20
17.6
 11
100.687
 21
17.3869
  0
LINE
  8
0
 10
100.687
 20
17.3869
 11
100.647
 21
17.1772
  0
LINE
  8
0
 10
100.647
 20
17.1772
 11
100.581
 21
16.9742
  0
LINE
  8
0
 10
100.581
 20
16.9742
 11
100.49
 21
16.781
  0
LINE
  8
0
 10
100.49
 20
16.781
 11
100.375
 21
16.6008
  0
LINE
  8
0
 10
100.375
 20
16.6008
 11
100.239
 21
16.4363
  0
LINE
  8
0
 10
100.239
 20
16.4363
 11
100.084
 21
16.2901
  0
LINE
  8
0
 10
100.084
 20
16.2901
 11
99.9109
 21
16.1646
  0
LINE
  8
0
 10
99.9109
 20
16.1646
 11
99.7238
 21
16.0618
  0
LINE
  8
0
 10
99.7238
 20
16.0618
 11
99.5253
 21
15.9832
  0
LINE
  8
0
 10
99.5253
 20
15.9832
 11
99.3185
 21
15.9301
  0
LINE
  8
0
 10
99.3185
 20
15.9301
 11
99.1067
 21
15.9034
  0
LINE
  8
0
 10
99.1067
 20
15.9034
 11
98.8932
 21
15.9034
  0
LINE
  8
0
 10
109.796
 20
4.25641
 11
109.391
 21
4.30756
  0
LINE
  8
0
 10
109.391
 20
4.30756
 11
108.996
 21
4.40906
  0
LINE
  8
0
 10
108.996
 20
4.40906
 11
108.616
 21
4.55931
  0
LINE
  8
0
 10
108.616
 20
4.55931
 11
108.259
 21
4.75592
  0
LINE
  8
0
 10
108.259
 20
4.75592
 11
107.928
 21
4.99582
  0
LINE
  8
0
 10
107.928
 20
4.99582
 11
107.631
 21
5.27521
  0
LINE
  8
0
 10
107.631
 20
5.27521
 11
107.371
 21
5.58969
  0
LINE
  8
0
 10
107.371
 20
5.58969
 11
107.152
 21
5.9343
  0
LINE
  8
0
 10
107.152
 20
5.9343
 11
106.978
 21
6.30359
  0
LINE
  8
0
 10
106.978
 20
6.30359
 11
106.852
 21
6.69176
  0
LINE
  8
0
 10
106.852
 20
6.69176
 11
106.776
 21
7.09267
  0
LINE
  8
0
 10
106.776
 20
7.09267
 11
106.75
 21
7.5
  0
LINE
  8
0
 10
106.75
 20
7.5
 11
106.776
 21
7.90732
  0
LINE
  8
0
 10
106.776
 20
7.90732
 11
106.852
 21
8.30823
  0
LINE
  8
0
 10
106.852
 20
8.30823
 11
106.978
 21
8.6964
  0
LINE
  8
0
 10
106.978
 20
8.6964
 11
107.152
 21
9.06569
  0
LINE
  8
0
 10
107.152
 20
9.06569
 11
107.371
 21
9.41029
  0
LINE
  8
0
 10
107.371
 20
9.41029
 11
107.631
 21
9.72478
  0
LINE
  8
0
 10
107.631
 20
9.72478
 11
107.928
 21
10.0042
  0
LINE
  8
0
 10
107.928
 20
10.0042
 11
108.259
 21
10.2441
  0
LINE
  8
0
 10
108.259
 20
10.2441
 11
108.616
 21
10.4407
  0
LINE
  8
0
 10
108.616
 20
10.4407
 11
108.996
 21
10.5909
  0
LINE
  8
0
 10
108.996
 20
10.5909
 11
109.391
 21
10.6924
  0
LINE
  8
0
 10
109.391
 20
10.6924
 11
109.796
 21
10.7436
  0
LINE
  8
0
 10
109.796
 20
10.7436
 11
110.204
 21
10.7436
  0
LINE
  8
0
 10
110.204
 20
10.7436
 11
110.609
 21
10.6924
  0
LINE
  8
0
 10
110.609
 20
10.6924
 11
111.004
 21
10.5909
  0
LINE
  8
0
 10
111.004
 20
10.5909
 11
111.384
 21
10.4407
  0
LINE
  8
0
 10
111.384
 20
10.4407
 11
111.741
 21
10.2441
  0
LINE
  8
0
 10
111.741
 20
10.2441
 11
112.072
 21
10.0042
  0
LINE
  8
0
 10
112.072
 20
10.0042
 11
112.369
 21
9.72478
  0
LINE
  8
0
 10
112.369
 20
9.72478
 11
112.629
 21
9.41029
  0
LINE
  8
0
 10
112.629
 20
9.41029
 11
112.848
 21
9.06569
  0
LINE
  8
0
 10
112.848
 20
9.06569
 11
113.022
 21
8.6964
  0
LINE
  8
0
 10
113.022
 20
8.6964
 11
113.148
 21
8.30823
  0
LINE
  8
0
 10
113.148
 20
8.30823
 11
113.224
 21
7.90732
  0
LINE
  8
0
 10
113.224
 20
7.90732
 11
113.25
 21
7.5
  0
LINE
  8
0
 10
113.25
 20
7.5
 11
113.224
 21
7.09267
  0
LINE
  8
0
 10
113.224
 20
7.09267
 11
113.148
 21
6.69176
  0
LINE
  8
0
 10
113.148
 20
6.69176
 11
113.022
 21
6.30359
  0
LINE
  8
0
 10
113.022
 20
6.30359
 11
112.848
 21
5.9343
  0
LINE
  8
0
 10
112.848
 20
5.9343
 11
112.629
 21
5.58969
  0
LINE
  8
0
 10
112.629
 20
5.58969
 11
112.369
 21
5.27521
  0
LINE
  8
0
 10
112.369
 20
5.27521
 11
112.072
 21
4.99582
  0
LINE
  8
0
 10
112.072
 20
4.99582
 11
111.741
 21
4.75592
  0
LINE
  8
0
 10
111.741
 20
4.75592
 11
111.384
 21
4.55931
  0
LINE
  8
0
 10
111.384
 20
4.55931
 11
111.004
 21
4.40906
  0
LINE
  8
0
 10
111.004
 20
4.40906
 11
110.609
 21
4.30756
  0
LINE
  8
0
 10
110.609
 20
4.30756
 11
110.204
 21
4.25641
  0
LINE
  8
0
 10
110.204
 20
4.25641
 11
109.796
 21
4.25641
  0
LINE
  8
0
 10
123.796
 20
4.25641
 11
123.391
 21
4.30756
  0
LINE
  8
0
 10
123.391
 20
4.30756
 11
122.996
 21
4.40906
  0
LINE
  8
0
 10
122.996
 20
4.40906
 11
122.616
 21
4.55931
  0
LINE
  8
0
 10
122.616
 20
4.55931
 11
122.259
 21
4.75592
  0
LINE
  8
0
 10
122.259
 20
4.75592
 11
121.928
 21
4.99582
  0
LINE
  8
0
 10
121.928
 20
4.99582
 11
121.631
 21
5.27521
  0
LINE
  8
0
 10
121.631
 20
5.27521
 11
121.371
 21
5.58969
  0
LINE
  8
0
 10
121.371
 20
5.58969
 11
121.152
 21
5.9343
  0
LINE
  8
0
 10
121.152
 20
5.9343
 11
120.978
 21
6.30359
  0
LINE
  8
0
 10
120.978
 20
6.30359
 11
120.852
 21
6.69176
  0
LINE
  8
0
 10
120.852
 20
6.69176
 11
120.776
 21
7.09267
  0
LINE
  8
0
 10
120.776
 20
7.09267
 11
120.75
 21
7.5
  0
LINE
  8
0
 10
120.75
 20
7.5
 11
120.776
 21
7.90732
  0
LINE
  8
0
 10
120.776
 20
7.90732
 11
120.852
 21
8.30823
  0
LINE
  8
0
 10
120.852
 20
8.30823
 11
120.978
 21
8.6964
  0
LINE
  8
0
 10
120.978
 20
8.6964
 11
121.152
 21
9.06569
  0
LINE
  8
0
 10
121.152
 20
9.06569
 11
121.371
 21
9.41029
  0
LINE
  8
0
 10
121.371
 20
9.41029
 11
121.631
 21
9.72478
  0
LINE
  8
0
 10
121.631
 20
9.72478
 11
121.928
 21
10.0042
  0
LINE
  8
0
 10
121.928
 20
10.0042
 11
122.259
 21
10.2441
  0
LINE
  8
0
 10
122.259
 20
10.2441
 11
122.616
 21
10.4407
  0
LINE
  8
0
 10
122.616
 20
10.4407
 11
122.996
 21
10.5909
  0
LINE
  8
0
 10
122.996
 20
10.5909
 11
123.391
 21
10.6924
  0
LINE
  8
0
 10
123.391
 20
10.6924
 11
123.796
 21
10.7436
  0
LINE
  8
0
 10
123.796
 20
10.7436
 11
124.204
 21
10.7436
  0
LINE
  8
0
 10
124.204
 20
10.7436
 11
124.609
 21
10.6924
  0
LINE
  8
0
 10
124.609
 20
10.6924
 11
125.004
 21
10.5909
  0
LINE
  8
0
 10
125.004
 20
10.5909
 11
125.384
 21
10.4407
  0
LINE
  8
0
 10
125.384
 20
10.4407
 11
125.741
 21
10.2441
  0
LINE
  8
0
 10
125.741
 20
10.2441
 11
126.072
 21
10.0042
  0
LINE
  8
0
 10
126.072
 20
10.0042
 11
126.369
 21
9.72478
  0
LINE
  8
0
 10
126.369
 20
9.72478
 11
126.629
 21
9.41029
  0
LINE
  8
0
 10
126.629
 20
9.41029
 11
126.848
 21
9.06569
  0
LINE
  8
0
 10
126.848
 20
9.06569
 11
127.022
 21
8.6964
  0
LINE
  8
0
 10
127.022
 20
8.6964
 11
127.148
 21
8.30823
  0
LINE
  8
0
 10
127.148
 20
8.30823
 11
127.224
 21
7.90732
  0
LINE
  8
0
 10
127.224
 20
7.90732
 11
127.25
 21
7.5
  0
LINE
  8
0
 10
127.25
 20
7.5
 11
127.224
 21
7.09267
  0
LINE
  8
0
 10
127.224
 20
7.09267
 11
127.148
 21
6.69176
  0
LINE
  8
0
 10
127.148
 20
6.69176
 11
127.022
 21
6.30359
  0
LINE
  8
0
 10
127.022
 20
6.30359
 11
126.848
 21
5.9343
  0
LINE
  8
0
 10
126.848
 20
5.9343
 11
126.629
 21
5.58969
  0
LINE
  8
0
 10
126.629
 20
5.58969
 11
126.369
 21
5.27521
  0
LINE
  8
0
 10
126.369
 20
5.27521
 11
126.072
 21
4.99582
  0
LINE
  8
0
 10
126.072
 20
4.99582
 11
125.741
 21
4.75592
  0
LINE
  8
0
 10
125.741
 20
4.75592
 11
125.384
 21
4.55931
  0
LINE
  8
0
 10
125.384
 20
4.55931
 11
125.004
 21
4.40906
  0
LINE
  8
0
 10
125.004
 20
4.40906
 11
124.609
 21
4.30756
  0
LINE
  8
0
 10
124.609
 20
4.30756
 11
124.204
 21
4.25641
  0
LINE
  8
0
 10
124.204
 20
4.25641
 11
123.796
 21
4.25641
  0
LINE
  8
0
 10
81.3932
 20
-2.99664
 11
81.1814
 21
-2.96988
  0
LINE
  8
0
 10
81.1814
 20
-2.96988
 11
80.9747
 21
-2.91679
  0
LINE
  8
0
 10
80.9747
 20
-2.91679
 11
80.7762
 21
-2.8382
  0
LINE
  8
0
 10
80.7762
 20
-2.8382
 11
80.5891
 21
-2.73535
  0
LINE
  8
0
 10
80.5891
 20
-2.73535
 11
80.4164
 21
-2.60986
  0
LINE
  8
0
 10
80.4164
 20
-2.60986
 11
80.2608
 21
-2.46373
  0
LINE
  8
0
 10
80.2608
 20
-2.46373
 11
80.1247
 21
-2.29922
  0
LINE
  8
0
 10
80.1247
 20
-2.29922
 11
80.0103
 21
-2.11897
  0
LINE
  8
0
 10
80.0103
 20
-2.11897
 11
79.9194
 21
-1.9258
  0
LINE
  8
0
 10
79.9194
 20
-1.9258
 11
79.8534
 21
-1.72276
  0
LINE
  8
0
 10
79.8534
 20
-1.72276
 11
79.8134
 21
-1.51306
  0
LINE
  8
0
 10
79.8134
 20
-1.51306
 11
79.8
 21
-1.29999
  0
LINE
  8
0
 10
79.8
 20
-1.29999
 11
79.8134
 21
-1.08693
  0
LINE
  8
0
 10
79.8134
 20
-1.08693
 11
79.8534
 21
-0.877213
  0
LINE
  8
0
 10
79.8534
 20
-0.877213
 11
79.9194
 21
-0.674179
  0
LINE
  8
0
 10
79.9194
 20
-0.674179
 11
80.0103
 21
-0.481018
  0
LINE
  8
0
 10
80.0103
 20
-0.481018
 11
80.1247
 21
-0.300751
  0
LINE
  8
0
 10
80.1247
 20
-0.300751
 11
80.2608
 21
-0.136261
  0
LINE
  8
0
 10
80.2608
 20
-0.136261
 11
80.4164
 21
0.00987244
  0
LINE
  8
0
 10
80.4164
 20
0.00987244
 11
80.5891
 21
0.135345
  0
LINE
  8
0
 10
80.5891
 20
0.135345
 11
80.7762
 21
0.238205
  0
LINE
  8
0
 10
80.7762
 20
0.238205
 11
80.9747
 21
0.316788
  0
LINE
  8
0
 10
80.9747
 20
0.316788
 11
81.1814
 21
0.369888
  0
LINE
  8
0
 10
81.1814
 20
0.369888
 11
81.3932
 21
0.396637
  0
LINE
  8
0
 10
81.3932
 20
0.396637
 11
81.6067
 21
0.396637
  0
LINE
  8
0
 10
81.6067
 20
0.396637
 11
81.8185
 21
0.369888
  0
LINE
  8
0
 10
81.8185
 20
0.369888
 11
82.0253
 21
0.316788
  0
LINE
  8
0
 10
82.0253
 20
0.316788
 11
82.2238
 21
0.238205
  0
LINE
  8
0
 10
82.2238
 20
0.238205
 11
82.4109
 21
0.135345
  0
LINE
  8
0
 10
82.4109
 20
0.135345
 11
82.5836
 21
0.00987244
  0
LINE
  8
0
 10
82.5836
 20
0.00987244
 11
82.7392
 21
-0.136261
  0
LINE
  8
0
 10
82.7392
 20
-0.136261
 11
82.8753
 21
-0.300751
  0
LINE
  8
0
 10
82.8753
 20
-0.300751
 11
82.9897
 21
-0.481018
  0
LINE
  8
0
 10
82.9897
 20
-0.481018
 11
83.0806
 21
-0.674179
  0
LINE
  8
0
 10
83.0806
 20
-0.674179
 11
83.1466
 21
-0.877213
  0
LINE
  8
0
 10
83.1466
 20
-0.877213
 11
83.1866
 21
-1.08693
  0
LINE
  8
0
 10
83.1866
 20
-1.08693
 11
83.2
 21
-1.29999
  0
LINE
  8
0
 10
83.2
 20
-1.29999
 11
83.1866
 21
-1.51306
  0
LINE
  8
0
 10
83.1866
 20
-1.51306
 11
83.1466
 21
-1.72276
  0
LINE
  8
0
 10
83.1466
 20
-1.72276
 11
83.0806
 21
-1.9258
  0
LINE
  8
0
 10
83.0806
 20
-1.9258
 11
82.9897
 21
-2.11897
  0
LINE
  8
0
 10
82.9897
 20
-2.11897
 11
82.8753
 21
-2.29922
  0
LINE
  8
0
 10
82.8753
 20
-2.29922
 11
82.7392
 21
-2.46373
  0
LINE
  8
0
 10
82.7392
 20
-2.46373
 11
82.5836
 21
-2.60986
  0
LINE
  8
0
 10
82.5836
 20
-2.60986
 11
82.4109
 21
-2.73535
  0
LINE
  8
0
 10
82.4109
 20
-2.73535
 11
82.2238
 21
-2.8382
  0
LINE
  8
0
 10
82.2238
 20
-2.8382
 11
82.0253
 21
-2.91679
  0
LINE
  8
0
 10
82.0253
 20
-2.91679
 11
81.8185
 21
-2.96988
  0
LINE
  8
0
 10
81.8185
 20
-2.96988
 11
81.6067
 21
-2.99664
  0
LINE
  8
0
 10
81.6067
 20
-2.99664
 11
81.3932
 21
-2.99664
  0
LINE
  8
0
 10
100.167
 20
-25.4395
 11
99.5069
 21
-25.3561
  0
LINE
  8
0
 10
99.5069
 20
-25.3561
 11
98.8622
 21
-25.1906
  0
LINE
  8
0
 10
98.8622
 20
-25.1906
 11
98.2434
 21
-24.9456
  0
LINE
  8
0
 10
98.2434
 20
-24.9456
 11
97.6601
 21
-24.6249
  0
LINE
  8
0
 10
97.6601
 20
-24.6249
 11
97.1216
 21
-24.2337
  0
LINE
  8
0
 10
97.1216
 20
-24.2337
 11
96.6365
 21
-23.7781
  0
LINE
  8
0
 10
96.6365
 20
-23.7781
 11
96.2122
 21
-23.2653
  0
LINE
  8
0
 10
96.2122
 20
-23.2653
 11
95.8556
 21
-22.7033
  0
LINE
  8
0
 10
95.8556
 20
-22.7033
 11
95.5722
 21
-22.1011
  0
LINE
  8
0
 10
95.5722
 20
-22.1011
 11
95.3665
 21
-21.468
  0
LINE
  8
0
 10
95.3665
 20
-21.468
 11
95.2418
 21
-20.8143
  0
LINE
  8
0
 10
95.2418
 20
-20.8143
 11
95.2
 21
-20.15
  0
LINE
  8
0
 10
95.2
 20
-20.15
 11
95.2418
 21
-19.4857
  0
LINE
  8
0
 10
95.2418
 20
-19.4857
 11
95.3665
 21
-18.8319
  0
LINE
  8
0
 10
95.3665
 20
-18.8319
 11
95.5722
 21
-18.1989
  0
LINE
  8
0
 10
95.5722
 20
-18.1989
 11
95.8556
 21
-17.5967
  0
LINE
  8
0
 10
95.8556
 20
-17.5967
 11
96.2122
 21
-17.0347
  0
LINE
  8
0
 10
96.2122
 20
-17.0347
 11
96.6365
 21
-16.5219
  0
LINE
  8
0
 10
96.6365
 20
-16.5219
 11
97.1216
 21
-16.0663
  0
LINE
  8
0
 10
97.1216
 20
-16.0663
 11
97.6601
 21
-15.675
  0
LINE
  8
0
 10
97.6601
 20
-15.675
 11
98.2434
 21
-15.3544
  0
LINE
  8
0
 10
98.2434
 20
-15.3544
 11
98.8622
 21
-15.1094
  0
LINE
  8
0
 10
98.8622
 20
-15.1094
 11
99.5069
 21
-14.9439
  0
LINE
  8
0
 10
99.5069
 20
-14.9439
 11
100.167
 21
-14.8604
  0
LINE
  8
0
 10
100.167
 20
-14.8604
 11
100.833
 21
-14.8604
  0
LINE
  8
0
 10
100.833
 20
-14.8604
 11
101.493
 21
-14.9439
  0
LINE
  8
0
 10
101.493
 20
-14.9439
 11
102.138
 21
-15.1094
  0
LINE
  8
0
 10
102.138
 20
-15.1094
 11
102.757
 21
-15.3544
  0
LINE
  8
0
 10
102.757
 20
-15.3544
 11
103.34
 21
-15.675
  0
LINE
  8
0
 10
103.34
 20
-15.675
 11
103.878
 21
-16.0663
  0
LINE
  8
0
 10
103.878
 20
-16.0663
 11
104.364
 21
-16.5219
  0
LINE
  8
0
 10
104.364
 20
-16.5219
 11
104.788
 21
-17.0347
  0
LINE
  8
0
 10
104.788
 20
-17.0347
 11
105.144
 21
-17.5967
  0
LINE
  8
0
 10
105.144
 20
-17.5967
 11
105.428
 21
-18.1989
  0
LINE
  8
0
 10
105.428
 20
-18.1989
 11
105.633
 21
-18.8319
  0
LINE
  8
0
 10
105.633
 20
-18.8319
 11
105.758
 21
-19.4857
  0
LINE
  8
0
 10
105.758
 20
-19.4857
 11
105.8
 21
-20.15
  0
LINE
  8
0
 10
105.8
 20
-20.15
 11
105.758
 21
-20.8143
  0
LINE
  8
0
 10
105.758
 20
-20.8143
 11
105.633
 21
-21.468
  0
LINE
  8
0
 10
105.633
 20
-21.468
 11
105.428
 21
-22.1011
  0
LINE
  8
0
 10
105.428
 20
-22.1011
 11
105.144
 21
-22.7033
  0
LINE
  8
0
 10
105.144
 20
-22.7033
 11
104.788
 21
-23.2653
  0
LINE
  8
0
 10
104.788
 20
-23.2653
 11
104.364
 21
-23.7781
  0
LINE
  8
0
 10
104.364
 20
-23.7781
 11
103.878
 21
-24.2337
  0
LINE
  8
0
 10
103.878
 20
-24.2337
 11
103.34
 21
-24.6249
  0
LINE
  8
0
 10
103.34
 20
-24.6249
 11
102.757
 21
-24.9456
  0
LINE
  8
0
 10
102.757
 20
-24.9456
 11
102.138
 21
-25.1906
  0
LINE
  8
0
 10
102.138
 20
-25.1906
 11
101.493
 21
-25.3561
  0
LINE
  8
0
 10
101.493
 20
-25.3561
 11
100.833
 21
-25.4395
  0
LINE
  8
0
 10
100.833
 20
-25.4395
 11
100.167
 21
-25.4395
  0
LINE
  8
0
 10
114.796
 20
-25.7436
 11
114.391
 21
-25.6924
  0
LINE
  8
0
 10
114.391
 20
-25.6924
 11
113.996
 21
-25.5909
  0
LINE
  8
0
 10
113.996
 20
-25.5909
 11
113.616
 21
-25.4407
  0
LINE
  8
0
 10
113.616
 20
-25.4407
 11
113.259
 21
-25.2441
  0
LINE
  8
0
 10
113.259
 20
-25.2441
 11
112.928
 21
-25.0042
  0
LINE
  8
0
 10
112.928
 20
-25.0042
 11
112.631
 21
-24.7248
  0
LINE
  8
0
 10
112.631
 20
-24.7248
 11
112.371
 21
-24.4103
  0
LINE
  8
0
 10
112.371
 20
-24.4103
 11
112.152
 21
-24.0657
  0
LINE
  8
0
 10
112.152
 20
-24.0657
 11
111.978
 21
-23.6964
  0
LINE
  8
0
 10
111.978
 20
-23.6964
 11
111.852
 21
-23.3082
  0
LINE
  8
0
 10
111.852
 20
-23.3082
 11
111.776
 21
-22.9073
  0
LINE
  8
0
 10
111.776
 20
-22.9073
 11
111.75
 21
-22.5
  0
LINE
  8
0
 10
111.75
 20
-22.5
 11
111.776
 21
-22.0927
  0
LINE
  8
0
 10
111.776
 20
-22.0927
 11
111.852
 21
-21.6918
  0
LINE
  8
0
 10
111.852
 20
-21.6918
 11
111.978
 21
-21.3036
  0
LINE
  8
0
 10
111.978
 20
-21.3036
 11
112.152
 21
-20.9343
  0
LINE
  8
0
 10
112.152
 20
-20.9343
 11
112.371
 21
-20.5897
  0
LINE
  8
0
 10
112.371
 20
-20.5897
 11
112.631
 21
-20.2752
  0
LINE
  8
0
 10
112.631
 20
-20.2752
 11
112.928
 21
-19.9958
  0
LINE
  8
0
 10
112.928
 20
-19.9958
 11
113.259
 21
-19.7559
  0
LINE
  8
0
 10
113.259
 20
-19.7559
 11
113.616
 21
-19.5593
  0
LINE
  8
0
 10
113.616
 20
-19.5593
 11
113.996
 21
-19.4091
  0
LINE
  8
0
 10
113.996
 20
-19.4091
 11
114.391
 21
-19.3076
  0
LINE
  8
0
 10
114.391
 20
-19.3076
 11
114.796
 21
-19.2564
  0
LINE
  8
0
 10
114.796
 20
-19.2564
 11
115.204
 21
-19.2564
  0
LINE
  8
0
 10
115.204
 20
-19.2564
 11
115.609
 21
-19.3076
  0
LINE
  8
0
 10
115.609
 20
-19.3076
 11
116.004
 21
-19.4091
  0
LINE
  8
0
 10
116.004
 20
-19.4091
 11
116.384
 21
-19.5593
  0
LINE
  8
0
 10
116.384
 20
-19.5593
 11
116.741
 21
-19.7559
  0
LINE
  8
0
 10
116.741
 20
-19.7559
 11
117.072
 21
-19.9958
  0
LINE
  8
0
 10
117.072
 20
-19.9958
 11
117.369
 21
-20.2752
  0
LINE
  8
0
 10
117.369
 20
-20.2752
 11
117.629
 21
-20.5897
  0
LINE
  8
0
 10
117.629
 20
-20.5897
 11
117.848
 21
-20.9343
  0
LINE
  8
0
 10
117.848
 20
-20.9343
 11
118.022
 21
-21.3036
  0
LINE
  8
0
 10
118.022
 20
-21.3036
 11
118.148
 21
-21.6918
  0
LINE
  8
0
 10
118.148
 20
-21.6918
 11
118.224
 21
-22.0927
  0
LINE
  8
0
 10
118.224
 20
-22.0927
 11
118.25
 21
-22.5
  0
LINE
  8
0
 10
118.25
 20
-22.5
 11
118.224
 21
-22.9073
  0
LINE
  8
0
 10
118.224
 20
-22.9073
 11
118.148
 21
-23.3082
  0
LINE
  8
0
 10
118.148
 20
-23.3082
 11
118.022
 21
-23.6964
  0
LINE
  8
0
 10
118.022
 20
-23.6964
 11
117.848
 21
-24.0657
  0
LINE
  8
0
 10
117.848
 20
-24.0657
 11
117.629
 21
-24.4103
  0
LINE
  8
0
 10
117.629
 20
-24.4103
 11
117.369
 21
-24.7248
  0
LINE
  8
0
 10
117.369
 20
-24.7248
 11
117.072
 21
-25.0042
  0
LINE
  8
0
 10
117.072
 20
-25.0042
 11
116.741
 21
-25.2441
  0
LINE
  8
0
 10
116.741
 20
-25.2441
 11
116.384
 21
-25.4407
  0
LINE
  8
0
 10
116.384
 20
-25.4407
 11
116.004
 21
-25.5909
  0
LINE
  8
0
 10
116.004
 20
-25.5909
 11
115.609
 21
-25.6924
  0
LINE
  8
0
 10
115.609
 20
-25.6924
 11
115.204
 21
-25.7436
  0
LINE
  8
0
 10
115.204
 20
-25.7436
 11
114.796
 21
-25.7436
  0
LINE
  8
0
 10
129.796
 20
-25.7436
 11
129.391
 21
-25.6924
  0
LINE
  8
0
 10
129.391
 20
-25.6924
 11
128.996
 21
-25.5909
  0
LINE
  8
0
 10
128.996
 20
-25.5909
 11
128.616
 21
-25.4407
  0
LINE
  8
0
 10
128.616
 20
-25.4407
 11
128.259
 21
-25.2441
  0
LINE
  8
0
 10
128.259
 20
-25.2441
 11
127.928
 21
-25.0042
  0
LINE
  8
0
 10
127.928
 20
-25.0042
 11
127.631
 21
-24.7248
  0
LINE
  8
0
 10
127.631
 20
-24.7248
 11
127.371
 21
-24.4103
  0
LINE
  8
0
 10
127.371
 20
-24.4103
 11
127.152
 21
-24.0657
  0
LINE
  8
0
 10
127.152
 20
-24.0657
 11
126.978
 21
-23.6964
  0
LINE
  8
0
 10
126.978
 20
-23.6964
 11
126.852
 21
-23.3082
  0
LINE
  8
0
 10
126.852
 20
-23.3082
 11
126.776
 21
-22.9073
  0
LINE
  8
0
 10
126.776
 20
-22.9073
 11
126.75
 21
-22.5
  0
LINE
  8
0
 10
126.75
 20
-22.5
 11
126.776
 21
-22.0927
  0
LINE
  8
0
 10
126.776
 20
-22.0927
 11
126.852
 21
-21.6918
  0
LINE
  8
0
 10
126.852
 20
-21.6918
 11
126.978
 21
-21.3036
  0
LINE
  8
0
 10
126.978
 20
-21.3036
 11
127.152
 21
-20.9343
  0
LINE
  8
0
 10
127.152
 20
-20.9343
 11
127.371
 21
-20.5897
  0
LINE
  8
0
 10
127.371
 20
-20.5897
 11
127.631
 21
-20.2752
  0
LINE
  8
0
 10
127.631
 20
-20.2752
 11
127.928
 21
-19.9958
  0
LINE
  8
0
 10
127.928
 20
-19.9958
 11
128.259
 21
-19.7559
  0
LINE
  8
0
 10
128.259
 20
-19.7559
 11
128.616
 21
-19.5593
  0
LINE
  8
0
 10
128.616
 20
-19.5593
 11
128.996
 21
-19.4091
  0
LINE
  8
0
 10
128.996
 20
-19.4091
 11
129.391
 21
-19.3076
  0
LINE
  8
0
 10
129.391
 20
-19.3076
 11
129.796
 21
-19.2564
  0
LINE
  8
0
 10
129.796
 20
-19.2564
 11
130.204
 21
-19.2564
  0
LINE
  8
0
 10
130.204
 20
-19.2564
 11
130.609
 21
-19.3076
  0
LINE
  8
0
 10
130.609
 20
-19.3076
 11
131.004
 21
-19.4091
  0
LINE
  8
0
 10
131.004
 20
-19.4091
 11
131.384
 21
-19.5593
  0
LINE
  8
0
 10
131.384
 20
-19.5593
 11
131.741
 21
-19.7559
  0
LINE
  8
0
 10
131.741
 20
-19.7559
 11
132.072
 21
-19.9958
  0
LINE
  8
0
 10
132.072
 20
-19.9958
 11
132.369
 21
-20.2752
  0
LINE
  8
0
 10
132.369
 20
-20.2752
 11
132.629
 21
-20.5897
  0
LINE
  8
0
 10
132.629
 20
-20.5897
 11
132.848
 21
-20.9343
  0
LINE
  8
0
 10
132.848
 20
-20.9343
 11
133.022
 21
-21.3036
  0
LINE
  8
0
 10
133.022
 20
-21.3036
 11
133.148
 21
-21.6918
  0
LINE
  8
0
 10
133.148
 20
-21.6918
 11
133.224
 21
-22.0927
  0
LINE
  8
0
 10
133.224
 20
-22.0927
 11
133.25
 21
-22.5
  0
LINE
  8
0
 10
133.25
 20
-22.5
 11
133.224
 21
-22.9073
  0
LINE
  8
0
 10
133.224
 20
-22.9073
 11
133.148
 21
-23.3082
  0
LINE
  8
0
 10
133.148
 20
-23.3082
 11
133.022
 21
-23.6964
  0
LINE
  8
0
 10
133.022
 20
-23.6964
 11
132.848
 21
-24.0657
  0
LINE
  8
0
 10
132.848
 20
-24.0657
 11
132.629
 21
-24.4103
  0
LINE
  8
0
 10
132.629
 20
-24.4103
 11
132.369
 21
-24.7248
  0
LINE
  8
0
 10
132.369
 20
-24.7248
 11
132.072
 21
-25.0042
  0
LINE
  8
0
 10
132.072
 20
-25.0042
 11
131.741
 21
-25.2441
  0
LINE
  8
0
 10
131.741
 20
-25.2441
 11
131.384
 21
-25.4407
  0
LINE
  8
0
 10
131.384
 20
-25.4407
 11
131.004
 21
-25.5909
  0
LINE
  8
0
 10
131.004
 20
-25.5909
 11
130.609
 21
-25.6924
  0
LINE
  8
0
 10
130.609
 20
-25.6924
 11
130.204
 21
-25.7436
  0
LINE
  8
0
 10
130.204
 20
-25.7436
 11
129.796
 21
-25.7436
  0
LINE
  8
0
 10
84.7959
 20
-25.7436
 11
84.391
 21
-25.6924
  0
LINE
  8
0
 10
84.391
 20
-25.6924
 11
83.9957
 21
-25.5909
  0
LINE
  8
0
 10
83.9957
 20
-25.5909
 11
83.6162
 21
-25.4407
  0
LINE
  8
0
 10
83.6162
 20
-25.4407
 11
83.2586
 21
-25.2441
  0
LINE
  8
0
 10
83.2586
 20
-25.2441
 11
82.9284
 21
-25.0042
  0
LINE
  8
0
 10
82.9284
 20
-25.0042
 11
82.6308
 21
-24.7248
  0
LINE
  8
0
 10
82.6308
 20
-24.7248
 11
82.3707
 21
-24.4103
  0
LINE
  8
0
 10
82.3707
 20
-24.4103
 11
82.152
 21
-24.0657
  0
LINE
  8
0
 10
82.152
 20
-24.0657
 11
81.9782
 21
-23.6964
  0
LINE
  8
0
 10
81.9782
 20
-23.6964
 11
81.8521
 21
-23.3082
  0
LINE
  8
0
 10
81.8521
 20
-23.3082
 11
81.7756
 21
-22.9073
  0
LINE
  8
0
 10
81.7756
 20
-22.9073
 11
81.75
 21
-22.5
  0
LINE
  8
0
 10
81.75
 20
-22.5
 11
81.7756
 21
-22.0927
  0
LINE
  8
0
 10
81.7756
 20
-22.0927
 11
81.8521
 21
-21.6918
  0
LINE
  8
0
 10
81.8521
 20
-21.6918
 11
81.9782
 21
-21.3036
  0
LINE
  8
0
 10
81.9782
 20
-21.3036
 11
82.152
 21
-20.9343
  0
LINE
  8
0
 10
82.152
 20
-20.9343
 11
82.3707
 21
-20.5897
  0
LINE
  8
0
 10
82.3707
 20
-20.5897
 11
82.6308
 21
-20.2752
  0
LINE
  8
0
 10
82.6308
 20
-20.2752
 11
82.9284
 21
-19.9958
  0
LINE
  8
0
 10
82.9284
 20
-19.9958
 11
83.2586
 21
-19.7559
  0
LINE
  8
0
 10
83.2586
 20
-19.7559
 11
83.6162
 21
-19.5593
  0
LINE
  8
0
 10
83.6162
 20
-19.5593
 11
83.9957
 21
-19.4091
  0
LINE
  8
0
 10
83.9957
 20
-19.4091
 11
84.391
 21
-19.3076
  0
LINE
  8
0
 10
84.391
 20
-19.3076
 11
84.7959
 21
-19.2564
  0
LINE
  8
0
 10
84.7959
 20
-19.2564
 11
85.2041
 21
-19.2564
  0
LINE
  8
0
 10
85.2041
 20
-19.2564
 11
85.609
 21
-19.3076
  0
LINE
  8
0
 10
85.609
 20
-19.3076
 11
86.0043
 21
-19.4091
  0
LINE
  8
0
 10
86.0043
 20
-19.4091
 11
86.3838
 21
-19.5593
  0
LINE
  8
0
 10
86.3838
 20
-19.5593
 11
86.7414
 21
-19.7559
  0
LINE
  8
0
 10
86.7414
 20
-19.7559
 11
87.0716
 21
-19.9958
  0
LINE
  8
0
 10
87.0716
 20
-19.9958
 11
87.3691
 21
-20.2752
  0
LINE
  8
0
 10
87.3691
 20
-20.2752
 11
87.6293
 21
-20.5897
  0
LINE
  8
0
 10
87.6293
 20
-20.5897
 11
87.848
 21
-20.9343
  0
LINE
  8
0
 10
87.848
 20
-20.9343
 11
88.0218
 21
-21.3036
  0
LINE
  8
0
 10
88.0218
 20
-21.3036
 11
88.1479
 21
-21.6918
  0
LINE
  8
0
 10
88.1479
 20
-21.6918
 11
88.2244
 21
-22.0927
  0
LINE
  8
0
 10
88.2244
 20
-22.0927
 11
88.25
 21
-22.5
  0
LINE
  8
0
 10
88.25
 20
-22.5
 11
88.2244
 21
-22.9073
  0
LINE
  8
0
 10
88.2244
 20
-22.9073
 11
88.1479
 21
-23.3082
  0
LINE
  8
0
 10
88.1479
 20
-23.3082
 11
88.0218
 21
-23.6964
  0
LINE
  8
0
 10
88.0218
 20
-23.6964
 11
87.848
 21
-24.0657
  0
LINE
  8
0
 10
87.848
 20
-24.0657
 11
87.6293
 21
-24.4103
  0
LINE
  8
0
 10
87.6293
 20
-24.4103
 11
87.3691
 21
-24.7248
  0
LINE
  8
0
 10
87.3691
 20
-24.7248
 11
87.0716
 21
-25.0042
  0
LINE
  8
0
 10
87.0716
 20
-25.0042
 11
86.7414
 21
-25.2441
  0
LINE
  8
0
 10
86.7414
 20
-25.2441
 11
86.3838
 21
-25.4407
  0
LINE
  8
0
 10
86.3838
 20
-25.4407
 11
86.0043
 21
-25.5909
  0
LINE
  8
0
 10
86.0043
 20
-25.5909
 11
85.609
 21
-25.6924
  0
LINE
  8
0
 10
85.609
 20
-25.6924
 11
85.2041
 21
-25.7436
  0
LINE
  8
0
 10
85.2041
 20
-25.7436
 11
84.7959
 21
-25.7436
  0
LINE
  8
0
 10
69.7959
 20
-25.7436
 11
69.391
 21
-25.6924
  0
LINE
  8
0
 10
69.391
 20
-25.6924
 11
68.9957
 21
-25.5909
  0
LINE
  8
0
 10
68.9957
 20
-25.5909
 11
68.6162
 21
-25.4407
  0
LINE
  8
0
 10
68.6162
 20
-25.4407
 11
68.2586
 21
-25.2441
  0
LINE
  8
0
 10
68.2586
 20
-25.2441
 11
67.9284
 21
-25.0042
  0
LINE
  8
0
 10
67.9284
 20
-25.0042
 11
67.6308
 21
-24.7248
  0
LINE
  8
0
 10
67.6308
 20
-24.7248
 11
67.3707
 21
-24.4103
  0
LINE
  8
0
 10
67.3707
 20
-24.4103
 11
67.152
 21
-24.0657
  0
LINE
  8
0
 10
67.152
 20
-24.0657
 11
66.9782
 21
-23.6964
  0
LINE
  8
0
 10
66.9782
 20
-23.6964
 11
66.8521
 21
-23.3082
  0
LINE
  8
0
 10
66.8521
 20
-23.3082
 11
66.7756
 21
-22.9073
  0
LINE
  8
0
 10
66.7756
 20
-22.9073
 11
66.75
 21
-22.5
  0
LINE
  8
0
 10
66.75
 20
-22.5
 11
66.7756
 21
-22.0927
  0
LINE
  8
0
 10
66.7756
 20
-22.0927
 11
66.8521
 21
-21.6918
  0
LINE
  8
0
 10
66.8521
 20
-21.6918
 11
66.9782
 21
-21.3036
  0
LINE
  8
0
 10
66.9782
 20
-21.3036
 11
67.152
 21
-20.9343
  0
LINE
  8
0
 10
67.152
 20
-20.9343
 11
67.3707
 21
-20.5897
  0
LINE
  8
0
 10
67.3707
 20
-20.5897
 11
67.6308
 21
-20.2752
  0
LINE
  8
0
 10
67.6308
 20
-20.2752
 11
67.9284
 21
-19.9958
  0
LINE
  8
0
 10
67.9284
 20
-19.9958
 11
68.2586
 21
-19.7559
  0
LINE
  8
0
 10
68.2586
 20
-19.7559
 11
68.6162
 21
-19.5593
  0
LINE
  8
0
 10
68.6162
 20
-19.5593
 11
68.9957
 21
-19.4091
  0
LINE
  8
0
 10
68.9957
 20
-19.4091
 11
69.391
 21
-19.3076
  0
LINE
  8
0
 10
69.391
 20
-19.3076
 11
69.7959
 21
-19.2564
  0
LINE
  8
0
 10
69.7959
 20
-19.2564
 11
70.2041
 21
-19.2564
  0
LINE
  8
0
 10
70.2041
 20
-19.2564
 11
70.609
 21
-19.3076
  0
LINE
  8
0
 10
70.609
 20
-19.3076
 11
71.0043
 21
-19.4091
  0
LINE
  8
0
 10
71.0043
 20
-19.4091
 11
71.3838
 21
-19.5593
  0
LINE
  8
0
 10
71.3838
 20
-19.5593
 11
71.7414
 21
-19.7559
  0
LINE
  8
0
 10
71.7414
 20
-19.7559
 11
72.0716
 21
-19.9958
  0
LINE
  8
0
 10
72.0716
 20
-19.9958
 11
72.3691
 21
-20.2752
  0
LINE
  8
0
 10
72.3691
 20
-20.2752
 11
72.6293
 21
-20.5897
  0
LINE
  8
0
 10
72.6293
 20
-20.5897
 11
72.848
 21
-20.9343
  0
LINE
  8
0
 10
72.848
 20
-20.9343
 11
73.0218
 21
-21.3036
  0
LINE
  8
0
 10
73.0218
 20
-21.3036
 11
73.1479
 21
-21.6918
  0
LINE
  8
0
 10
73.1479
 20
-21.6918
 11
73.2244
 21
-22.0927
  0
LINE
  8
0
 10
73.2244
 20
-22.0927
 11
73.25
 21
-22.5
  0
LINE
  8
0
 10
73.25
 20
-22.5
 11
73.2244
 21
-22.9073
  0
LINE
  8
0
 10
73.2244
 20
-22.9073
 11
73.1479
 21
-23.3082
  0
LINE
  8
0
 10
73.1479
 20
-23.3082
 11
73.0218
 21
-23.6964
  0
LINE
  8
0
 10
73.0218
 20
-23.6964
 11
72.848
 21
-24.0657
  0
LINE
  8
0
 10
72.848
 20
-24.0657
 11
72.6293
 21
-24.4103
  0
LINE
  8
0
 10
72.6293
 20
-24.4103
 11
72.3691
 21
-24.7248
  0
LINE
  8
0
 10
72.3691
 20
-24.7248
 11
72.0716
 21
-25.0042
  0
LINE
  8
0
 10
72.0716
 20
-25.0042
 11
71.7414
 21
-25.2441
  0
LINE
  8
0
 10
71.7414
 20
-25.2441
 11
71.3838
 21
-25.4407
  0
LINE
  8
0
 10
71.3838
 20
-25.4407
 11
71.0043
 21
-25.5909
  0
LINE
  8
0
 10
71.0043
 20
-25.5909
 11
70.609
 21
-25.6924
  0
LINE
  8
0
 10
70.609
 20
-25.6924
 11
70.2041
 21
-25.7436
  0
LINE
  8
0
 10
70.2041
 20
-25.7436
 11
69.7959
 21
-25.7436
  0
LINE
  8
0
 10
221.627
 20
-40.9606
 11
222.243
 21
-40.8429
  0
LINE
  8
0
 10
222.243
 20
-40.8429
 11
222.841
 21
-40.6489
  0
LINE
  8
0
 10
222.841
 20
-40.6489
 11
223.409
 21
-40.3815
  0
LINE
  8
0
 10
223.409
 20
-40.3815
 11
223.939
 21
-40.0451
  0
LINE
  8
0
 10
223.939
 20
-40.0451
 11
224.423
 21
-39.6448
  0
LINE
  8
0
 10
224.423
 20
-39.6448
 11
224.853
 21
-39.1871
  0
LINE
  8
0
 10
224.853
 20
-39.1871
 11
225.222
 21
-38.6791
  0
LINE
  8
0
 10
225.222
 20
-38.6791
 11
225.524
 21
-38.1289
  0
LINE
  8
0
 10
225.524
 20
-38.1289
 11
225.755
 21
-37.5451
  0
LINE
  8
0
 10
225.755
 20
-37.5451
 11
225.911
 21
-36.9369
  0
LINE
  8
0
 10
225.911
 20
-36.9369
 11
226
 21
-36
  0
LINE
  8
0
 10
226
 20
-36
 11
226
 21
36
  0
LINE
  8
0
 10
226
 20
36
 11
225.961
 21
36.6267
  0
LINE
  8
0
 10
225.961
 20
36.6267
 11
225.843
 21
37.2435
  0
LINE
  8
0
 10
225.843
 20
37.2435
 11
225.649
 21
37.8406
  0
LINE
  8
0
 10
225.649
 20
37.8406
 11
225.382
 21
38.4088
  0
LINE
  8
0
 10
225.382
 20
38.4088
 11
225.045
 21
38.9389
  0
LINE
  8
0
 10
225.045
 20
38.9389
 11
224.645
 21
39.4227
  0
LINE
  8
0
 10
224.645
 20
39.4227
 11
224.187
 21
39.8526
  0
LINE
  8
0
 10
224.187
 20
39.8526
 11
223.679
 21
40.2216
  0
LINE
  8
0
 10
223.679
 20
40.2216
 11
223.129
 21
40.5241
  0
LINE
  8
0
 10
223.129
 20
40.5241
 11
222.545
 21
40.7553
  0
LINE
  8
0
 10
222.545
 20
40.7553
 11
221.937
 21
40.9114
  0
LINE
  8
0
 10
221.937
 20
40.9114
 11
221
 21
41
  0
LINE
  8
0
 10
221
 20
41
 11
179
 21
41
  0
LINE
  8
0
 10
179
 20
41
 11
178.373
 21
40.9606
  0
LINE
  8
0
 10
178.373
 20
40.9606
 11
177.757
 21
40.8429
  0
LINE
  8
0
 10
177.757
 20
40.8429
 11
177.159
 21
40.6489
  0
LINE
  8
0
 10
177.159
 20
40.6489
 11
176.591
 21
40.3815
  0
LINE
  8
0
 10
176.591
 20
40.3815
 11
176.061
 21
40.0451
  0
LINE
  8
0
 10
176.061
 20
40.0451
 11
175.577
 21
39.6448
  0
LINE
  8
0
 10
175.577
 20
39.6448
 11
175.147
 21
39.1871
  0
LINE
  8
0
 10
175.147
 20
39.1871
 11
174.778
 21
38.6791
  0
LINE
  8
0
 10
174.778
 20
38.6791
 11
174.476
 21
38.1289
  0
LINE
  8
0
 10
174.476
 20
38.1289
 11
174.245
 21
37.5451
  0
LINE
  8
0
 10
174.245
 20
37.5451
 11
174.089
 21
36.9369
  0
LINE
  8
0
 10
174.089
 20
36.9369
 11
174
 21
36
  0
LINE
  8
0
 10
174
 20
36
 11
174
 21
-36
  0
LINE
  8
0
 10
174
 20
-36
 11
174.039
 21
-36.6267
  0
LINE
  8
0
 10
174.039
 20
-36.6267
 11
174.157
 21
-37.2435
  0
LINE
  8
0
 10
174.157
 20
-37.2435
 11
174.351
 21
-37.8406
  0
LINE
  8
0
 10
174.351
 20
-37.8406
 11
174.618
 21
-38.4088
  0
LINE
  8
0
 10
174.618
 20
-38.4088
 11
174.955
 21
-38.9389
  0
LINE
  8
0
 10
174.955
 20
-38.9389
 11
175.355
 21
-39.4227
  0
LINE
  8
0
 10
175.355
 20
-39.4227
 11
175.813
 21
-39.8526
  0
LINE
  8
0
 10
175.813
 20
-39.8526
 11
176.321
 21
-40.2216
  0
LINE
  8
0
 10
176.321
 20
-40.2216
 11
176.871
 21
-40.5241
  0
LINE
  8
0
 10
176.871
 20
-40.5241
 11
177.455
 21
-40.7553
  0
LINE
  8
0
 10
177.455
 20
-40.7553
 11
178.063
 21
-40.9114
  0
LINE
  8
0
 10
178.063
 20
-40.9114
 11
179
 21
-41
  0
LINE
  8
0
 10
179
 20
-41
 11
221
 21
-41
  0
LINE
  8
0
 10
221
 20
-41
 11
221.627
 21
-40.9606
  0
LINE
  8
0
 10
195
 20
15
 11
195
 21
25
  0
LINE
  8
0
 10
195
 20
25
 11
205
 21
25
  0
LINE
  8
0
 10
205
 20
25
 11
205
 21
15
  0
LINE
  8
0
 10
205
 20
15
 11
195
 21
15
  0
LINE
  8
0
 10
207.893
 20
18.3033
 11
207.681
 21
18.3301
  0
LINE
  8
0
 10
207.681
 20
18.3301
 11
207.475
 21
18.3832
  0
LINE
  8
0
 10
207.475
 20
18.3832
 11
207.276
 21
18.4618
  0
LINE
  8
0
 10
207.276
 20
18.4618
 11
207.089
 21
18.5646
  0
LINE
  8
0
 10
207.089
 20
18.5646
 11
206.916
 21
18.6901
  0
LINE
  8
0
 10
206.916
 20
18.6901
 11
206.761
 21
18.8363
  0
LINE
  8
0
 10
206.761
 20
18.8363
 11
206.625
 21
19.0008
  0
LINE
  8
0
 10
206.625
 20
19.0008
 11
206.51
 21
19.181
  0
LINE
  8
0
 10
206.51
 20
19.181
 11
206.419
 21
19.3742
  0
LINE
  8
0
 10
206.419
 20
19.3742
 11
206.353
 21
19.5772
  0
LINE
  8
0
 10
206.353
 20
19.5772
 11
206.313
 21
19.7869
  0
LINE
  8
0
 10
206.313
 20
19.7869
 11
206.3
 21
20
  0
LINE
  8
0
 10
206.3
 20
20
 11
206.313
 21
20.2131
  0
LINE
  8
0
 10
206.313
 20
20.2131
 11
206.353
 21
20.4228
  0
LINE
  8
0
 10
206.353
 20
20.4228
 11
206.419
 21
20.6258
  0
LINE
  8
0
 10
206.419
 20
20.6258
 11
206.51
 21
20.819
  0
LINE
  8
0
 10
206.51
 20
20.819
 11
206.625
 21
20.9992
  0
LINE
  8
0
 10
206.625
 20
20.9992
 11
206.761
 21
21.1637
  0
LINE
  8
0
 10
206.761
 20
21.1637
 11
206.916
 21
21.3099
  0
LINE
  8
0
 10
206.916
 20
21.3099
 11
207.089
 21
21.4353
  0
LINE
  8
0
 10
207.089
 20
21.4353
 11
207.276
 21
21.5382
  0
LINE
  8
0
 10
207.276
 20
21.5382
 11
207.475
 21
21.6168
  0
LINE
  8
0
 10
207.475
 20
21.6168
 11
207.681
 21
21.6699
  0
LINE
  8
0
 10
207.681
 20
21.6699
 11
207.893
 21
21.6966
  0
LINE
  8
0
 10
207.893
 20
21.6966
 11
208.107
 21
21.6966
  0
LINE
  8
0
 10
208.107
 20
21.6966
 11
208.319
 21
21.6699
  0
LINE
  8
0
 10
208.319
 20
21.6699
 11
208.525
 21
21.6168
  0
LINE
  8
0
 10
208.525
 20
21.6168
 11
208.724
 21
21.5382
  0
LINE
  8
0
 10
208.724
 20
21.5382
 11
208.911
 21
21.4353
  0
LINE
  8
0
 10
208.911
 20
21.4353
 11
209.084
 21
21.3099
  0
LINE
  8
0
 10
209.084
 20
21.3099
 11
209.239
 21
21.1637
  0
LINE
  8
0
 10
209.239
 20
21.1637
 11
209.375
 21
20.9992
  0
LINE
  8
0
 10
209.375
 20
20.9992
 11
209.49
 21
20.819
  0
LINE
  8
0
 10
209.49
 20
20.819
 11
209.581
 21
20.6258
  0
LINE
  8
0
 10
209.581
 20
20.6258
 11
209.647
 21
20.4228
  0
LINE
  8
0
 10
209.647
 20
20.4228
 11
209.687
 21
20.2131
  0
LINE
  8
0
 10
209.687
 20
20.2131
 11
209.7
 21
20
  0
LINE
  8
0
 10
209.7
 20
20
 11
209.687
 21
19.7869
  0
LINE
  8
0
 10
209.687
 20
19.7869
 11
209.647
 21
19.5772
  0
LINE
  8
0
 10
209.647
 20
19.5772
 11
209.581
 21
19.3742
  0
LINE
  8
0
 10
209.581
 20
19.3742
 11
209.49
 21
19.181
  0
LINE
  8
0
 10
209.49
 20
19.181
 11
209.375
 21
19.0008
  0
LINE
  8
0
 10
209.375
 20
19.0008
 11
209.239
 21
18.8363
  0
LINE
  8
0
 10
209.239
 20
18.8363
 11
209.084
 21
18.6901
  0
LINE
  8
0
 10
209.084
 20
18.6901
 11
208.911
 21
18.5646
  0
LINE
  8
0
 10
208.911
 20
18.5646
 11
208.724
 21
18.4618
  0
LINE
  8
0
 10
208.724
 20
18.4618
 11
208.525
 21
18.3832
  0
LINE
  8
0
 10
208.525
 20
18.3832
 11
208.319
 21
18.3301
  0
LINE
  8
0
 10
208.319
 20
18.3301
 11
208.107
 21
18.3033
  0
LINE
  8
0
 10
208.107
 20
18.3033
 11
207.893
 21
18.3033
  0
LINE
  8
0
 10
191.893
 20
18.3033
 11
191.681
 21
18.3301
  0
LINE
  8
0
 10
191.681
 20
18.3301
 11
191.475
 21
18.3832
  0
LINE
  8
0
 10
191.475
 20
18.3832
 11
191.276
 21
18.4618
  0
LINE
  8
0
 10
191.276
 20
18.4618
 11
191.089
 21
18.5646
  0
LINE
  8
0
 10
191.089
 20
18.5646
 11
190.916
 21
18.6901
  0
LINE
  8
0
 10
190.916
 20
18.6901
 11
190.761
 21
18.8363
  0
LINE
  8
0
 10
190.761
 20
18.8363
 11
190.625
 21
19.0008
  0
LINE
  8
0
 10
190.625
 20
19.0008
 11
190.51
 21
19.181
  0
LINE
  8
0
 10
190.51
 20
19.181
 11
190.419
 21
19.3742
  0
LINE
  8
0
 10
190.419
 20
19.3742
 11
190.353
 21
19.5772
  0
LINE
  8
0
 10
190.353
 20
19.5772
 11
190.313
 21
19.7869
  0
LINE
  8
0
 10
190.313
 20
19.7869
 11
190.3
 21
20
  0
LINE
  8
0
 10
190.3
 20
20
 11
190.313
 21
20.2131
  0
LINE
  8
0
 10
190.313
 20
20.2131
 11
190.353
 21
20.4228
  0
LINE
  8
0
 10
190.353
 20
20.4228
 11
190.419
 21
20.6258
  0
LINE
  8
0
 10
190.419
 20
20.6258
 11
190.51
 21
20.819
  0
LINE
  8
0
 10
190.51
 20
20.819
 11
190.625
 21
20.9992
  0
LINE
  8
0
 10
190.625
 20
20.9992
 11
190.761
 21
21.1637
  0
LINE
  8
0
 10
190.761
 20
21.1637
 11
190.916
 21
21.3099
  0
LINE
  8
0
 10
190.916
 20
21.3099
 11
191.089
 21
21.4353
  0
LINE
  8
0
 10
191.089
 20
21.4353
 11
191.276
 21
21.5382
  0
LINE
  8
0
 10
191.276
 20
21.5382
 11
191.475
 21
21.6168
  0
LINE
  8
0
 10
191.475
 20
21.6168
 11
191.681
 21
21.6699
  0
LINE
  8
0
 10
191.681
 20
21.6699
 11
191.893
 21
21.6966
  0
LINE
  8
0
 10
191.893
 20
21.6966
 11
192.107
 21
21.6966
  0
LINE
  8
0
 10
192.107
 20
21.6966
 11
192.319
 21
21.6699
  0
LINE
  8
0
 10
192.319
 20
21.6699
 11
192.525
 21
21.6168
  0
LINE
  8
0
 10
192.525
 20
21.6168
 11
192.724
 21
21.5382
  0
LINE
  8
0
 10
192.724
 20
21.5382
 11
192.911
 21
21.4353
  0
LINE
  8
0
 10
192.911
 20
21.4353
 11
193.084
 21
21.3099
  0
LINE
  8
0
 10
193.084
 20
21.3099
 11
193.239
 21
21.1637
  0
LINE
  8
0
 10
193.239
 20
21.1637
 11
193.375
 21
20.9992
  0
LINE
  8
0
 10
193.375
 20
20.9992
 11
193.49
 21
20.819
  0
LINE
  8
0
 10
193.49
 20
20.819
 11
193.581
 21
20.6258
  0
LINE
  8
0
 10
193.581
 20
20.6258
 11
193.647
 21
20.4228
  0
LINE
  8
0
 10
193.647
 20
20.4228
 11
193.687
 21
20.2131
  0
LINE
  8
0
 10
193.687
 20
20.2131
 11
193.7
 21
20
  0
LINE
  8
0
 10
193.7
 20
20
 11
193.687
 21
19.7869
  0
LINE
  8
0
 10
193.687
 20
19.7869
 11
193.647
 21
19.5772
  0
LINE
  8
0
 10
193.647
 20
19.5772
 11
193.581
 21
19.3742
  0
LINE
  8
0
 10
193.581
 20
19.3742
 11
193.49
 21
19.181
  0
LINE
  8
0
 10
193.49
 20
19.181
 11
193.375
 21
19.0008
  0
LINE
  8
0
 10
193.375
 20
19.0008
 11
193.239
 21
18.8363
  0
LINE
  8
0
 10
193.239
 20
18.8363
 11
193.084
 21
18.6901
  0
LINE
  8
0
 10
193.084
 20
18.6901
 11
192.911
 21
18.5646
  0
LINE
  8
0
 10
192.911
 20
18.5646
 11
192.724
 21
18.4618
  0
LINE
  8
0
 10
192.724
 20
18.4618
 11
192.525
 21
18.3832
  0
LINE
  8
0
 10
192.525
 20
18.3832
 11
192.319
 21
18.3301
  0
LINE
  8
0
 10
192.319
 20
18.3301
 11
192.107
 21
18.3033
  0
LINE
  8
0
 10
192.107
 20
18.3033
 11
191.893
 21
18.3033
  0
LINE
  8
0
 10
199.667
 20
-0.289536
 11
199.007
 21
-0.206116
  0
LINE
  8
0
 10
199.007
 20
-0.206116
 11
198.362
 21
-0.0405884
  0
LINE
  8
0
 10
198.362
 20
-0.0405884
 11
197.743
 21
0.204407
  0
LINE
  8
0
 10
197.743
 20
0.204407
 11
197.16
 21
0.525055
  0
LINE
  8
0
 10
197.16
 20
0.525055
 11
196.622
 21
0.916275
  0
LINE
  8
0
 10
196.622
 20
0.916275
 11
196.136
 21
1.37189
  0
LINE
  8
0
 10
196.136
 20
1.37189
 11
195.712
 21
1.88474
  0
LINE
  8
0
 10
195.712
 20
1.88474
 11
195.356
 21
2.4467
  0
LINE
  8
0
 10
195.356
 20
2.4467
 11
195.072
 21
3.04893
  0
LINE
  8
0
 10
195.072
 20
3.04893
 11
194.867
 21
3.68193
  0
LINE
  8
0
 10
194.867
 20
3.68193
 11
194.742
 21
4.33572
  0
LINE
  8
0
 10
194.742
 20
4.33572
 11
194.7
 21
5
  0
LINE
  8
0
 10
194.7
 20
5
 11
194.742
 21
5.66426
  0
LINE
  8
0
 10
194.742
 20
5.66426
 11
194.867
 21
6.31805
  0
LINE
  8
0
 10
194.867
 20
6.31805
 11
195.072
 21
6.95105
  0
LINE
  8
0
 10
195.072
 20
6.95105
 11
195.356
 21
7.55328
  0
LINE
  8
0
 10
195.356
 20
7.55328
 11
195.712
 21
8.11525
  0
LINE
  8
0
 10
195.712
 20
8.11525
 11
196.136
 21
8.6281
  0
LINE
  8
0
 10
196.136
 20
8.6281
 11
196.622
 21
9.08371
  0
LINE
  8
0
 10
196.622
 20
9.08371
 11
197.16
 21
9.47493
  0
LINE
  8
0
 10
197.16
 20
9.47493
 11
197.743
 21
9.79558
  0
LINE
  8
0
 10
197.743
 20
9.79558
 11
198.362
 21
10.0406
  0
LINE
  8
0
 10
198.362
 20
10.0406
 11
199.007
 21
10.2061
  0
LINE
  8
0
 10
199.007
 20
10.2061
 11
199.667
 21
10.2895
  0
LINE
  8
0
 10
199.667
 20
10.2895
 11
200.333
 21
10.2895
  0
LINE
  8
0
 10
200.333
 20
10.2895
 11
200.993
 21
10.2061
  0
LINE
  8
0
 10
200.993
 20
10.2061
 11
201.638
 21
10.0406
  0
LINE
  8
0
 10
201.638
 20
10.0406
 11
202.257
 21
9.79558
  0
LINE
  8
0
 10
202.257
 20
9.79558
 11
202.84
 21
9.47493
  0
LINE
  8
0
 10
202.84
 20
9.47493
 11
203.378
 21
9.08371
  0
LINE
  8
0
 10
203.378
 20
9.08371
 11
203.864
 21
8.6281
  0
LINE
  8
0
 10
203.864
 20
8.6281
 11
204.288
 21
8.11525
  0
LINE
  8
0
 10
204.288
 20
8.11525
 11
204.644
 21
7.55328
  0
LINE
  8
0
 10
204.644
 20
7.55328
 11
204.928
 21
6.95105
  0
LINE
  8
0
 10
204.928
 20
6.95105
 11
205.133
 21
6.31805
  0
LINE
  8
0
 10
205.133
 20
6.31805
 11
205.258
 21
5.66426
  0
LINE
  8
0
 10
205.258
 20
5.66426
 11
205.3
 21
5
  0
LINE
  8
0
 10
205.3
 20
5
 11
205.258
 21
4.33572
  0
LINE
  8
0
 10
205.258
 20
4.33572
 11
205.133
 21
3.68193
  0
LINE
  8
0
 10
205.133
 20
3.68193
 11
204.928
 21
3.04893
  0
LINE
  8
0
 10
204.928
 20
3.04893
 11
204.644
 21
2.4467
  0
LINE
  8
0
 10
204.644
 20
2.4467
 11
204.288
 21
1.88474
  0
LINE
  8
0
 10
204.288
 20
1.88474
 11
203.864
 21
1.37189
  0
LINE
  8
0
 10
203.864
 20
1.37189
 11
203.378
 21
0.916275
  0
LINE
  8
0
 10
203.378
 20
0.916275
 11
202.84
 21
0.525055
  0
LINE
  8
0
 10
202.84
 20
0.525055
 11
202.257
 21
0.204407
  0
LINE
  8
0
 10
202.257
 20
0.204407
 11
201.638
 21
-0.0405884
  0
LINE
  8
0
 10
201.638
 20
-0.0405884
 11
200.993
 21
-0.206116
  0
LINE
  8
0
 10
200.993
 20
-0.206116
 11
200.333
 21
-0.289536
  0
LINE
  8
0
 10
200.333
 20
-0.289536
 11
199.667
 21
-0.289536
  0
LINE
  8
0
 10
190
 20
-26.5
 11
190
 21
-3.5
  0
LINE
  8
0
 10
190
 20
-3.5
 11
210
 21
-3.5
  0
LINE
  8
0
 10
210
 20
-3.5
 11
210
 21
-26.5
  0
LINE
  8
0
 10
210
 20
-26.5
 11
190
 21
-26.5
  0
LINE
  8
0
 10
186.787
 20
-9.68658
 11
186.577
 21
-9.64659
  0
LINE
  8
0
 10
186.577
 20
-9.64659
 11
186.374
 21
-9.58061
  0
LINE
  8
0
 10
186.374
 20
-9.58061
 11
186.181
 21
-9.48972
  0
LINE
  8
0
 10
186.181
 20
-9.48972
 11
186.001
 21
-9.37532
  0
LINE
  8
0
 10
186.001
 20
-9.37532
 11
185.836
 21
-9.23924
  0
LINE
  8
0
 10
185.836
 20
-9.23924
 11
185.69
 21
-9.08362
  0
LINE
  8
0
 10
185.69
 20
-9.08362
 11
185.565
 21
-8.9109
  0
LINE
  8
0
 10
185.565
 20
-8.9109
 11
185.462
 21
-8.72382
  0
LINE
  8
0
 10
185.462
 20
-8.72382
 11
185.383
 21
-8.52533
  0
LINE
  8
0
 10
185.383
 20
-8.52533
 11
185.33
 21
-8.31854
  0
LINE
  8
0
 10
185.33
 20
-8.31854
 11
185.303
 21
-8.10674
  0
LINE
  8
0
 10
185.303
 20
-8.10674
 11
185.303
 21
-7.89325
  0
LINE
  8
0
 10
185.303
 20
-7.89325
 11
185.33
 21
-7.68144
  0
LINE
  8
0
 10
185.33
 20
-7.68144
 11
185.383
 21
-7.47467
  0
LINE
  8
0
 10
185.383
 20
-7.47467
 11
185.462
 21
-7.27617
  0
LINE
  8
0
 10
185.462
 20
-7.27617
 11
185.565
 21
-7.08908
  0
LINE
  8
0
 10
185.565
 20
-7.08908
 11
185.69
 21
-6.91637
  0
LINE
  8
0
 10
185.69
 20
-6.91637
 11
185.836
 21
-6.76074
  0
LINE
  8
0
 10
185.836
 20
-6.76074
 11
186.001
 21
-6.62466
  0
LINE
  8
0
 10
186.001
 20
-6.62466
 11
186.181
 21
-6.51027
  0
LINE
  8
0
 10
186.181
 20
-6.51027
 11
186.374
 21
-6.41937
  0
LINE
  8
0
 10
186.374
 20
-6.41937
 11
186.577
 21
-6.35341
  0
LINE
  8
0
 10
186.577
 20
-6.35341
 11
186.787
 21
-6.3134
  0
LINE
  8
0
 10
186.787
 20
-6.3134
 11
187
 21
-6.29999
  0
LINE
  8
0
 10
187
 20
-6.29999
 11
187.213
 21
-6.3134
  0
LINE
  8
0
 10
187.213
 20
-6.3134
 11
187.423
 21
-6.35341
  0
LINE
  8
0
 10
187.423
 20
-6.35341
 11
187.626
 21
-6.41937
  0
LINE
  8
0
 10
187.626
 20
-6.41937
 11
187.819
 21
-6.51027
  0
LINE
  8
0
 10
187.819
 20
-6.51027
 11
187.999
 21
-6.62466
  0
LINE
  8
0
 10
187.999
 20
-6.62466
 11
188.164
 21
-6.76074
  0
LINE
  8
0
 10
188.164
 20
-6.76074
 11
188.31
 21
-6.91637
  0
LINE
  8
0
 10
188.31
 20
-6.91637
 11
188.435
 21
-7.08908
  0
LINE
  8
0
 10
188.435
 20
-7.08908
 11
188.538
 21
-7.27617
  0
LINE
  8
0
 10
188.538
 20
-7.27617
 11
188.617
 21
-7.47467
  0
LINE
  8
0
 10
188.617
 20
-7.47467
 11
188.67
 21
-7.68144
  0
LINE
  8
0
 10
188.67
 20
-7.68144
 11
188.697
 21
-7.89325
  0
LINE
  8
0
 10
188.697
 20
-7.89325
 11
188.697
 21
-8.10674
  0
LINE
  8
0
 10
188.697
 20
-8.10674
 11
188.67
 21
-8.31854
  0
LINE
  8
0
 10
188.67
 20
-8.31854
 11
188.617
 21
-8.52533
  0
LINE
  8
0
 10
188.617
 20
-8.52533
 11
188.538
 21
-8.72382
  0
LINE
  8
0
 10
188.538
 20
-8.72382
 11
188.435
 21
-8.9109
  0
LINE
  8
0
 10
188.435
 20
-8.9109
 11
188.31
 21
-9.08362
  0
LINE
  8
0
 10
188.31
 20
-9.08362
 11
188.164
 21
-9.23924
  0
LINE
  8
0
 10
188.164
 20
-9.23924
 11
187.999
 21
-9.37532
  0
LINE
  8
0
 10
187.999
 20
-9.37532
 11
187.819
 21
-9.48972
  0
LINE
  8
0
 10
187.819
 20
-9.48972
 11
187.626
 21
-9.58061
  0
LINE
  8
0
 10
187.626
 20
-9.58061
 11
187.423
 21
-9.64659
  0
LINE
  8
0
 10
187.423
 20
-9.64659
 11
187.213
 21
-9.68658
  0
LINE
  8
0
 10
187.213
 20
-9.68658
 11
187
 21
-9.7
  0
LINE
  8
0
 10
187
 20
-9.7
 11
186.787
 21
-9.68658
  0
LINE
  8
0
 10
212.787
 20
-9.68658
 11
212.577
 21
-9.64659
  0
LINE
  8
0
 10
212.577
 20
-9.64659
 11
212.374
 21
-9.58061
  0
LINE
  8
0
 10
212.374
 20
-9.58061
 11
212.181
 21
-9.48972
  0
LINE
  8
0
 10
212.181
 20
-9.48972
 11
212.001
 21
-9.37532
  0
LINE
  8
0
 10
212.001
 20
-9.37532
 11
211.836
 21
-9.23924
  0
LINE
  8
0
 10
211.836
 20
-9.23924
 11
211.69
 21
-9.08362
  0
LINE
  8
0
 10
211.69
 20
-9.08362
 11
211.565
 21
-8.9109
  0
LINE
  8
0
 10
211.565
 20
-8.9109
 11
211.462
 21
-8.72382
  0
LINE
  8
0
 10
211.462
 20
-8.72382
 11
211.383
 21
-8.52533
  0
LINE
  8
0
 10
211.383
 20
-8.52533
 11
211.33
 21
-8.31854
  0
LINE
  8
0
 10
211.33
 20
-8.31854
 11
211.303
 21
-8.10674
  0
LINE
  8
0
 10
211.303
 20
-8.10674
 11
211.303
 21
-7.89325
  0
LINE
  8
0
 10
211.303
 20
-7.89325
 11
211.33
 21
-7.68144
  0
LINE
  8
0
 10
211.33
 20
-7.68144
 11
211.383
 21
-7.47467
  0
LINE
  8
0
 10
211.383
 20
-7.47467
 11
211.462
 21
-7.27617
  0
LINE
  8
0
 10
211.462
 20
-7.27617
 11
211.565
 21
-7.08908
  0
LINE
  8
0
 10
211.565
 20
-7.08908
 11
211.69
 21
-6.91637
  0
LINE
  8
0
 10
211.69
 20
-6.91637
 11
211.836
 21
-6.76074
  0
LINE
  8
0
 10
211.836
 20
-6.76074
 11
212.001
 21
-6.62466
  0
LINE
  8
0
 10
212.001
 20
-6.62466
 11
212.181
 21
-6.51027
  0
LINE
  8
0
 10
212.181
 20
-6.51027
 11
212.374
 21
-6.41937
  0
LINE
  8
0
 10
212.374
 20
-6.41937
 11
212.577
 21
-6.35341
  0
LINE
  8
0
 10
212.577
 20
-6.35341
 11
212.787
 21
-6.3134
  0
LINE
  8
0
 10
212.787
 20
-6.3134
 11
213
 21
-6.29999
  0
LINE
  8
0
 10
213
 20
-6.29999
 11
213.213
 21
-6.3134
  0
LINE
  8
0
 10
213.213
 20
-6.3134
 11
213.423
 21
-6.35341
  0
LINE
  8
0
 10
213.423
 20
-6.35341
 11
213.626
 21
-6.41937
  0
LINE
  8
0
 10
213.626
 20
-6.41937
 11
213.819
 21
-6.51027
  0
LINE
  8
0
 10
213.819
 20
-6.51027
 11
213.999
 21
-6.62466
  0
LINE
  8
0
 10
213.999
 20
-6.62466
 11
214.164
 21
-6.76074
  0
LINE
  8
0
 10
214.164
 20
-6.76074
 11
214.31
 21
-6.91637
  0
LINE
  8
0
 10
214.31
 20
-6.91637
 11
214.435
 21
-7.08908
  0
LINE
  8
0
 10
214.435
 20
-7.08908
 11
214.538
 21
-7.27617
  0
LINE
  8
0
 10
214.538
 20
-7.27617
 11
214.617
 21
-7.47467
  0
LINE
  8
0
 10
214.617
 20
-7.47467
 11
214.67
 21
-7.68144
  0
LINE
  8
0
 10
214.67
 20
-7.68144
 11
214.697
 21
-7.89325
  0
LINE
  8
0
 10
214.697
 20
-7.89325
 11
214.697
 21
-8.10674
  0
LINE
  8
0
 10
214.697
 20
-8.10674
 11
214.67
 21
-8.31854
  0
LINE
  8
0
 10
214.67
 20
-8.31854
 11
214.617
 21
-8.52533
  0
LINE
  8
0
 10
214.617
 20
-8.52533
 11
214.538
 21
-8.72382
  0
LINE
  8
0
 10
214.538
 20
-8.72382
 11
214.435
 21
-8.9109
  0
LINE
  8
0
 10
214.435
 20
-8.9109
 11
214.31
 21
-9.08362
  0
LINE
  8
0
 10
214.31
 20
-9.08362
 11
214.164
 21
-9.23924
  0
LINE
  8
0
 10
214.164
 20
-9.23924
 11
213.999
 21
-9.37532
  0
LINE
  8
0
 10
213.999
 20
-9.37532
 11
213.819
 21
-9.48972
  0
LINE
  8
0
 10
213.819
 20
-9.48972
 11
213.626
 21
-9.58061
  0
LINE
  8
0
 10
213.626
 20
-9.58061
 11
213.423
 21
-9.64659
  0
LINE
  8
0
 10
213.423
 20
-9.64659
 11
213.213
 21
-9.68658
  0
LINE
  8
0
 10
213.213
 20
-9.68658
 11
213
 21
-9.7
  0
LINE
  8
0
 10
213
 20
-9.7
 11
212.787
 21
-9.68658
  0
LINE
  8
0
 10
186.787
 20
-23.6866
 11
186.577
 21
-23.6466
  0
LINE
  8
0
 10
186.577
 20
-23.6466
 11
186.374
 21
-23.5806
  0
LINE
  8
0
 10
186.374
 20
-23.5806
 11
186.181
 21
-23.4897
  0
LINE
  8
0
 10
186.181
 20
-23.4897
 11
186.001
 21
-23.3753
  0
LINE
  8
0
 10
186.001
 20
-23.3753
 11
185.836
 21
-23.2392
  0
LINE
  8
0
 10
185.836
 20
-23.2392
 11
185.69
 21
-23.0836
  0
LINE
  8
0
 10
185.69
 20
-23.0836
 11
185.565
 21
-22.9109
  0
LINE
  8
0
 10
185.565
 20
-22.9109
 11
185.462
 21
-22.7238
  0
LINE
  8
0
 10
185.462
 20
-22.7238
 11
185.383
 21
-22.5253
  0
LINE
  8
0
 10
185.383
 20
-22.5253
 11
185.33
 21
-22.3185
  0
LINE
  8
0
 10
185.33
 20
-22.3185
 11
185.303
 21
-22.1067
  0
LINE
  8
0
 10
185.303
 20
-22.1067
 11
185.303
 21
-21.8932
  0
LINE
  8
0
 10
185.303
 20
-21.8932
 11
185.33
 21
-21.6814
  0
LINE
  8
0
 10
185.33
 20
-21.6814
 11
185.383
 21
-21.4747
  0
LINE
  8
0
 10
185.383
 20
-21.4747
 11
185.462
 21
-21.2762
  0
LINE
  8
0
 10
185.462
 20
-21.2762
 11
185.565
 21
-21.0891
  0
LINE
  8
0
 10
185.565
 20
-21.0891
 11
185.69
 21
-20.9164
  0
LINE
  8
0
 10
185.69
 20
-20.9164
 11
185.836
 21
-20.7607
  0
LINE
  8
0
 10
185.836
 20
-20.7607
 11
186.001
 21
-20.6247
  0
LINE
  8
0
 10
186.001
 20
-20.6247
 11
186.181
 21
-20.5103
  0
LINE
  8
0
 10
186.181
 20
-20.5103
 11
186.374
 21
-20.4194
  0
LINE
  8
0
 10
186.374
 20
-20.4194
 11
186.577
 21
-20.3534
  0
LINE
  8
0
 10
186.577
 20
-20.3534
 11
186.787
 21
-20.3134
  0
LINE
  8
0
 10
186.787
 20
-20.3134
 11
187
 21
-20.3
  0
LINE
  8
0
 10
187
 20
-20.3
 11
187.213
 21
-20.3134
  0
LINE
  8
0
 10
187.213
 20
-20.3134
 11
187.423
 21
-20.3534
  0
LINE
  8
0
 10
187.423
 20
-20.3534
 11
187.626
 21
-20.4194
  0
LINE
  8
0
 10
187.626
 20
-20.4194
 11
187.819
 21
-20.5103
  0
LINE
  8
0
 10
187.819
 20
-20.5103
 11
187.999
 21
-20.6247
  0
LINE
  8
0
 10
187.999
 20
-20.6247
 11
188.164
 21
-20.7607
  0
LINE
  8
0
 10
188.164
 20
-20.7607
 11
188.31
 21
-20.9164
  0
LINE
  8
0
 10
188.31
 20
-20.9164
 11
188.435
 21
-21.0891
  0
LINE
  8
0
 10
188.435
 20
-21.0891
 11
188.538
 21
-21.2762
  0
LINE
  8
0
 10
188.538
 20
-21.2762
 11
188.617
 21
-21.4747
  0
LINE
  8
0
 10
188.617
 20
-21.4747
 11
188.67
 21
-21.6814
  0
LINE
  8
0
 10
188.67
 20
-21.6814
 11
188.697
 21
-21.8932
  0
LINE
  8
0
 10
188.697
 20
-21.8932
 11
188.697
 21
-22.1067
  0
LINE
  8
0
 10
188.697
 20
-22.1067
 11
188.67
 21
-22.3185
  0
LINE
  8
0
 10
188.67
 20
-22.3185
 11
188.617
 21
-22.5253
  0
LINE
  8
0
 10
188.617
 20
-22.5253
 11
188.538
 21
-22.7238
  0
LINE
  8
0
 10
188.538
 20
-22.7238
 11
188.435
 21
-22.9109
  0
LINE
  8
0
 10
188.435
 20
-22.9109
 11
188.31
 21
-23.0836
  0
LINE
  8
0
 10
188.31
 20
-23.0836
 11
188.164
 21
-23.2392
  0
LINE
  8
0
 10
188.164
 20
-23.2392
 11
187.999
 21
-23.3753
  0
LINE
  8
0
 10
187.999
 20
-23.3753
 11
187.819
 21
-23.4897
  0
LINE
  8
0
 10
187.819
 20
-23.4897
 11
187.626
 21
-23.5806
  0
LINE
  8
0
 10
187.626
 20
-23.5806
 11
187.423
 21
-23.6466
  0
LINE
  8
0
 10
187.423
 20
-23.6466
 11
187.213
 21
-23.6866
  0
LINE
  8
0
 10
187.213
 20
-23.6866
 11
187
 21
-23.7
  0
LINE
  8
0
 10
187
 20
-23.7
 11
186.787
 21
-23.6866
  0
LINE
  8
0
 10
212.787
 20
-23.6866
 11
212.577
 21
-23.6466
  0
LINE
  8
0
 10
212.577
 20
-23.6466
 11
212.374
 21
-23.5806
  0
LINE
  8
0
 10
212.374
 20
-23.5806
 11
212.181
 21
-23.4897
  0
LINE
  8
0
 10
212.181
 20
-23.4897
 11
212.001
 21
-23.3753
  0
LINE
  8
0
 10
212.001
 20
-23.3753
 11
211.836
 21
-23.2392
  0
LINE
  8
0
 10
211.836
 20
-23.2392
 11
211.69
 21
-23.0836
  0
LINE
  8
0
 10
211.69
 20
-23.0836
 11
211.565
 21
-22.9109
  0
LINE
  8
0
 10
211.565
 20
-22.9109
 11
211.462
 21
-22.7238
  0
LINE
  8
0
 10
211.462
 20
-22.7238
 11
211.383
 21
-22.5253
  0
LINE
  8
0
 10
211.383
 20
-22.5253
 11
211.33
 21
-22.3185
  0
LINE
  8
0
 10
211.33
 20
-22.3185
 11
211.303
 21
-22.1067
  0
LINE
  8
0
 10
211.303
 20
-22.1067
 11
211.303
 21
-21.8932
  0
LINE
  8
0
 10
211.303
 20
-21.8932
 11
211.33
 21
-21.6814
  0
LINE
  8
0
 10
211.33
 20
-21.6814
 11
211.383
 21
-21.4747
  0
LINE
  8
0
 10
211.383
 20
-21.4747
 11
211.462
 21
-21.2762
  0
LINE
  8
0
 10
211.462
 20
-21.2762
 11
211.565
 21
-21.0891
  0
LINE
  8
0
 10
211.565
 20
-21.0891
 11
211.69
 21
-20.9164
  0
LINE
  8
0
 10
211.69
 20
-20.9164
 11
211.836
 21
-20.7607
  0
LINE
  8
0
 10
211.836
 20
-20.7607
 11
212.001
 21
-20.6247
  0
LINE
  8
0
 10
212.001
 20
-20.6247
 11
212.181
 21
-20.5103
  0
LINE
  8
0
 10
212.181
 20
-20.5103
 11
212.374
 21
-20.4194
  0
LINE
  8
0
 10
212.374
 20
-20.4194
 11
212.577
 21
-20.3534
  0
LINE
  8
0
 10
212.577
 20
-20.3534
 11
212.787
 21
-20.3134
  0
LINE
  8
0
 10
212.787
 20
-20.3134
 11
213
 21
-20.3
  0
LINE
  8
0
 10
213
 20
-20.3
 11
213.213
 21
-20.3134
  0
LINE
  8
0
 10
213.213
 20
-20.3134
 11
213.423
 21
-20.3534
  0
LINE
  8
0
 10
213.423
 20
-20.3534
 11
213.626
 21
-20.4194
  0
LINE
  8
0
 10
213.626
 20
-20.4194
 11
213.819
 21
-20.5103
  0
LINE
  8
0
 10
213.819
 20
-20.5103
 11
213.999
 21
-20.6247
  0
LINE
  8
0
 10
213.999
 20
-20.6247
 11
214.164
 21
-20.7607
  0
LINE
  8
0
 10
214.164
 20
-20.7607
 11
214.31
 21
-20.9164
  0
LINE
  8
0
 10
214.31
 20
-20.9164
 11
214.435
 21
-21.0891
  0
LINE
  8
0
 10
214.435
 20
-21.0891
 11
214.538
 21
-21.2762
  0
LINE
  8
0
 10
214.538
 20
-21.2762
 11
214.617
 21
-21.4747
  0
LINE
  8
0
 10
214.617
 20
-21.4747
 11
214.67
 21
-21.6814
  0
LINE
  8
0
 10
214.67
 20
-21.6814
 11
214.697
 21
-21.8932
  0
LINE
  8
0
 10
214.697
 20
-21.8932
 11
214.697
 21
-22.1067
  0
LINE
  8
0
 10
214.697
 20
-22.1067
 11
214.67
 21
-22.3185
  0
LINE
  8
0
 10
214.67
 20
-22.3185
 11
214.617
 21
-22.5253
  0
LINE
  8
0
 10
214.617
 20
-22.5253
 11
214.538
 21
-22.7238
  0
LINE
  8
0
 10
214.538
 20
-22.7238
 11
214.435
 21
-22.9109
  0
LINE
  8
0
 10
214.435
 20
-22.9109
 11
214.31
 21
-23.0836
  0
LINE
  8
0
 10
214.31
 20
-23.0836
 11
214.164
 21
-23.2392
  0
LINE
  8
0
 10
214.164
 20
-23.2392
 11
213.999
 21
-23.3753
  0
LINE
  8
0
 10
213.999
 20
-23.3753
 11
213.819
 21
-23.4897
  0
LINE
  8
0
 10
213.819
 20
-23.4897
 11
213.626
 21
-23.5806
  0
LINE
  8
0
 10
213.626
 20
-23.5806
 11
213.423
 21
-23.6466
  0
LINE
  8
0
 10
213.423
 20
-23.6466
 11
213.213
 21
-23.6866
  0
LINE
  8
0
 10
213.213
 20
-23.6866
 11
213
 21
-23.7
  0
LINE
  8
0
 10
213
 20
-23.7
 11
212.787
 21
-23.6866
  0
LINE
  8
0
 10
5.62143
 20
-29.4686
 11
9.27051
 21
-28.5317
  0
LINE
  8
0
 10
9.27051
 20
-28.5317
 11
12.7734
 21
-27.1448
  0
LINE
  8
0
 10
12.7734
 20
-27.1448
 11
16.0748
 21
-25.3298
  0
LINE
  8
0
 10
16.0748
 20
-25.3298
 11
19.1227
 21
-23.1154
  0
LINE
  8
0
 10
19.1227
 20
-23.1154
 11
21.869
 21
-20.5364
  0
LINE
  8
0
 10
21.869
 20
-20.5364
 11
24.2705
 21
-17.6335
  0
LINE
  8
0
 10
24.2705
 20
-17.6335
 11
26.2892
 21
-14.4526
  0
LINE
  8
0
 10
26.2892
 20
-14.4526
 11
27.8933
 21
-11.0437
  0
LINE
  8
0
 10
27.8933
 20
-11.0437
 11
29.0575
 21
-7.46069
  0
LINE
  8
0
 10
29.0575
 20
-7.46069
 11
29.7634
 21
-3.75999
  0
LINE
  8
0
 10
29.7634
 20
-3.75999
 11
30
 21
0
  0
LINE
  8
0
 10
30
 20
0
 11
29.7634
 21
3.75999
  0
LINE
  8
0
 10
29.7634
 20
3.75999
 11
29.0575
 21
7.46069
  0
LINE
  8
0
 10
29.0575
 20
7.46069
 11
27.8933
 21
11.0437
  0
LINE
  8
0
 10
27.8933
 20
11.0437
 11
26.2892
 21
14.4526
  0
LINE
  8
0
 10
26.2892
 20
14.4526
 11
24.2705
 21
17.6335
  0
LINE
  8
0
 10
24.2705
 20
17.6335
 11
21.869
 21
20.5364
  0
LINE
  8
0
 10
21.869
 20
20.5364
 11
19.1227
 21
23.1154
  0
LINE
  8
0
 10
19.1227
 20
23.1154
 11
16.0748
 21
25.3298
  0
LINE
  8
0
 10
16.0748
 20
25.3298
 11
12.7734
 21
27.1448
  0
LINE
  8
0
 10
12.7734
 20
27.1448
 11
9.27051
 21
28.5317
  0
LINE
  8
0
 10
9.27051
 20
28.5317
 11
5.62143
 21
29.4686
  0
LINE
  8
0
 10
5.62143
 20
29.4686
 11
1.88371
 21
29.9408
  0
LINE
  8
0
 10
1.88371
 20
29.9408
 11
-1.88371
 21
29.9408
  0
LINE
  8
0
 10
-1.88371
 20
29.9408
 11
-5.62143
 21
29.4686
  0
LINE
  8
0
 10
-5.62143
 20
29.4686
 11
-9.27051
 21
28.5317
  0
LINE
  8
0
 10
-9.27051
 20
28.5317
 11
-12.7734
 21
27.1448
  0
LINE
  8
0
 10
-12.7734
 20
27.1448
 11
-16.0748
 21
25.3298
  0
LINE
  8
0
 10
-16.0748
 20
25.3298
 11
-19.1227
 21
23.1154
  0
LINE
  8
0
 10
-19.1227
 20
23.1154
 11
-21.869
 21
20.5364
  0
LINE
  8
0
 10
-21.869
 20
20.5364
 11
-24.2705
 21
17.6335
  0
LINE
  8
0
 10
-24.2705
 20
17.6335
 11
-26.2892
 21
14.4526
  0
LINE
  8
0
 10
-26.2892
 20
14.4526
 11
-27.8933
 21
11.0437
  0
LINE
  8
0
 10
-27.8933
 20
11.0437
 11
-29.0575
 21
7.46069
  0
LINE
  8
0
 10
-29.0575
 20
7.46069
 11
-29.7634
 21
3.75999
  0
LINE
  8
0
 10
-29.7634
 20
3.75999
 11
-30
 21
0
  0
LINE
  8
0
 10
-30
 20
0
 11
-29.7634
 21
-3.75999
  0
LINE
  8
0
 10
-29.7634
 20
-3.75999
 11
-29.0575
 21
-7.46069
  0
LINE
  8
0
 10
-29.0575
 20
-7.46069
 11
-27.8933
 21
-11.0437
  0
LINE
  8
0
 10
-27.8933
 20
-11.0437
 11
-26.2892
 21
-14.4526
  0
LINE
  8
0
 10
-26.2892
 20
-14.4526
 11
-24.2705
 21
-17.6335
  0
LINE
  8
0
 10
-24.2705
 20
-17.6335
 11
-21.869
 21
-20.5364
  0
LINE
  8
0
 10
-21.869
 20
-20.5364
 11
-19.1227
 21
-23.1154
  0
LINE
  8
0
 10
-19.1227
 20
-23.1154
 11
-16.0748
 21
-25.3298
  0
LINE
  8
0
 10
-16.0748
 20
-25.3298
 11
-12.7734
 21
-27.1448
  0
LINE
  8
0
 10
-12.7734
 20
-27.1448
 11
-9.27051
 21
-28.5317
  0
LINE
  8
0
 10
-9.27051
 20
-28.5317
 11
-5.62143
 21
-29.4686
  0
LINE
  8
0
 10
-5.62143
 20
-29.4686
 11
-1.88371
 21
-29.9408
  0
LINE
  8
0
 10
-1.88371
 20
-29.9408
 11
1.88371
 21
-29.9408
  0
LINE
  8
0
 10
1.88371
 20
-29.9408
 11
5.62143
 21
-29.4686
  0
LINE
  8
0
 10
5.39091
 20
3.97778
 11
5.18256
 21
4.02435
  0
LINE
  8
0
 10
5.18256
 20
4.02435
 11
4.98169
 21
4.09666
  0
LINE
  8
0
 10
4.98169
 20
4.09666
 11
4.79147
 21
4.19359
  0
LINE
  8
0
 10
4.79147
 20
4.19359
 11
4.6149
 21
4.31358
  0
LINE
  8
0
 10
4.6149
 20
4.31358
 11
4.45476
 21
4.45476
  0
LINE
  8
0
 10
4.45476
 20
4.45476
 11
4.31358
 21
4.6149
  0
LINE
  8
0
 10
4.31358
 20
4.6149
 11
4.19359
 21
4.79147
  0
LINE
  8
0
 10
4.19359
 20
4.79147
 11
4.09666
 21
4.98169
  0
LINE
  8
0
 10
4.09666
 20
4.98169
 11
4.02435
 21
5.18256
  0
LINE
  8
0
 10
4.02435
 20
5.18256
 11
3.97778
 21
5.39091
  0
LINE
  8
0
 10
3.97778
 20
5.39091
 11
3.95769
 21
5.60345
  0
LINE
  8
0
 10
3.95769
 20
5.60345
 11
3.96439
 21
5.81683
  0
LINE
  8
0
 10
3.96439
 20
5.81683
 11
3.99779
 21
6.02769
  0
LINE
  8
0
 10
3.99779
 20
6.02769
 11
4.05734
 21
6.2327
  0
LINE
  8
0
 10
4.05734
 20
6.2327
 11
4.14214
 21
6.42863
  0
LINE
  8
0
 10
4.14214
 20
6.42863
 11
4.25081
 21
6.61238
  0
LINE
  8
0
 10
4.25081
 20
6.61238
 11
4.38165
 21
6.78108
  0
LINE
  8
0
 10
4.38165
 20
6.78108
 11
4.53262
 21
6.93204
  0
LINE
  8
0
 10
4.53262
 20
6.93204
 11
4.70131
 21
7.06288
  0
LINE
  8
0
 10
4.70131
 20
7.06288
 11
4.88507
 21
7.17155
  0
LINE
  8
0
 10
4.88507
 20
7.17155
 11
5.08099
 21
7.25635
  0
LINE
  8
0
 10
5.08099
 20
7.25635
 11
5.28601
 21
7.3159
  0
LINE
  8
0
 10
5.28601
 20
7.3159
 11
5.49686
 21
7.3493
  0
LINE
  8
0
 10
5.49686
 20
7.3493
 11
5.71025
 21
7.356
  0
LINE
  8
0
 10
5.71025
 20
7.356
 11
5.92279
 21
7.33592
  0
LINE
  8
0
 10
5.92279
 20
7.33592
 11
6.13113
 21
7.28935
  0
LINE
  8
0
 10
6.13113
 20
7.28935
 11
6.332
 21
7.21703
  0
LINE
  8
0
 10
6.332
 20
7.21703
 11
6.52222
 21
7.1201
  0
LINE
  8
0
 10
6.52222
 20
7.1201
 11
6.69879
 21
7.00011
  0
LINE
  8
0
 10
6.69879
 20
7.00011
 11
6.85893
 21
6.85893
  0
LINE
  8
0
 10
6.85893
 20
6.85893
 11
7.00011
 21
6.69879
  0
LINE
  8
0
 10
7.00011
 20
6.69879
 11
7.1201
 21
6.52222
  0
LINE
  8
0
 10
7.1201
 20
6.52222
 11
7.21703
 21
6.332
  0
LINE
  8
0
 10
7.21703
 20
6.332
 11
7.28935
 21
6.13113
  0
LINE
  8
0
 10
7.28935
 20
6.13113
 11
7.33592
 21
5.92279
  0
LINE
  8
0
 10
7.33592
 20
5.92279
 11
7.356
 21
5.71025
  0
LINE
  8
0
 10
7.356
 20
5.71025
 11
7.3493
 21
5.49686
  0
LINE
  8
0
 10
7.3493
 20
5.49686
 11
7.3159
 21
5.28601
  0
LINE
  8
0
 10
7.3159
 20
5.28601
 11
7.25635
 21
5.08099
  0
LINE
  8
0
 10
7.25635
 20
5.08099
 11
7.17155
 21
4.88507
  0
LINE
  8
0
 10
7.17155
 20
4.88507
 11
7.06288
 21
4.70131
  0
LINE
  8
0
 10
7.06288
 20
4.70131
 11
6.93204
 21
4.53262
  0
LINE
  8
0
 10
6.93204
 20
4.53262
 11
6.78108
 21
4.38165
  0
LINE
  8
0
 10
6.78108
 20
4.38165
 11
6.61238
 21
4.25081
  0
LINE
  8
0
 10
6.61238
 20
4.25081
 11
6.42863
 21
4.14214
  0
LINE
  8
0
 10
6.42863
 20
4.14214
 11
6.2327
 21
4.05734
  0
LINE
  8
0
 10
6.2327
 20
4.05734
 11
6.02769
 21
3.99779
  0
LINE
  8
0
 10
6.02769
 20
3.99779
 11
5.81683
 21
3.96439
  0
LINE
  8
0
 10
5.81683
 20
3.96439
 11
5.60345
 21
3.95769
  0
LINE
  8
0
 10
5.60345
 20
3.95769
 11
5.39091
 21
3.97778
  0
LINE
  8
0
 10
-5.92279
 20
3.97778
 11
-6.13113
 21
4.02435
  0
LINE
  8
0
 10
-6.13113
 20
4.02435
 11
-6.332
 21
4.09666
  0
LINE
  8
0
 10
-6.332
 20
4.09666
 11
-6.52222
 21
4.19359
  0
LINE
  8
0
 10
-6.52222
 20
4.19359
 11
-6.69879
 21
4.31358
  0
LINE
  8
0
 10
-6.69879
 20
4.31358
 11
-6.85893
 21
4.45477
  0
LINE
  8
0
 10
-6.85893
 20
4.45477
 11
-7.00011
 21
4.6149
  0
LINE
  8
0
 10
-7.00011
 20
4.6149
 11
-7.1201
 21
4.79147
  0
LINE
  8
0
 10
-7.1201
 20
4.79147
 11
-7.21703
 21
4.98169
  0
LINE
  8
0
 10
-7.21703
 20
4.98169
 11
-7.28935
 21
5.18256
  0
LINE
  8
0
 10
-7.28935
 20
5.18256
 11
-7.33592
 21
5.39091
  0
LINE
  8
0
 10
-7.33592
 20
5.39091
 11
-7.356
 21
5.60345
  0
LINE
  8
0
 10
-7.356
 20
5.60345
 11
-7.3493
 21
5.81683
  0
LINE
  8
0
 10
-7.3493
 20
5.81683
 11
-7.3159
 21
6.02769
  0
LINE
  8
0
 10
-7.3159
 20
6.02769
 11
-7.25635
 21
6.2327
  0
LINE
  8
0
 10
-7.25635
 20
6.2327
 11
-7.17155
 21
6.42863
  0
LINE
  8
0
 10
-7.17155
 20
6.42863
 11
-7.06288
 21
6.61238
  0
LINE
  8
0
 10
-7.06288
 20
6.61238
 11
-6.93204
 21
6.78108
  0
LINE
  8
0
 10
-6.93204
 20
6.78108
 11
-6.78108
 21
6.93204
  0
LINE
  8
0
 10
-6.78108
 20
6.93204
 11
-6.61238
 21
7.06288
  0
LINE
  8
0
 10
-6.61238
 20
7.06288
 11
-6.42863
 21
7.17155
  0
LINE
  8
0
 10
-6.42863
 20
7.17155
 11
-6.2327
 21
7.25635
  0
LINE
  8
0
 10
-6.2327
 20
7.25635
 11
-6.02769
 21
7.3159
  0
LINE
  8
0
 10
-6.02769
 20
7.3159
 11
-5.81683
 21
7.3493
  0
LINE
  8
0
 10
-5.81683
 20
7.3493
 11
-5.60345
 21
7.356
  0
LINE
  8
0
 10
-5.60345
 20
7.356
 11
-5.39091
 21
7.33592
  0
LINE
  8
0
 10
-5.39091
 20
7.33592
 11
-5.18256
 21
7.28935
  0
LINE
  8
0
 10
-5.18256
 20
7.28935
 11
-4.98169
 21
7.21703
  0
LINE
  8
0
 10
-4.98169
 20
7.21703
 11
-4.79147
 21
7.1201
  0
LINE
  8
0
 10
-4.79147
 20
7.1201
 11
-4.6149
 21
7.00011
  0
LINE
  8
0
 10
-4.6149
 20
7.00011
 11
-4.45477
 21
6.85893
  0
LINE
  8
0
 10
-4.45477
 20
6.85893
 11
-4.31358
 21
6.69879
  0
LINE
  8
0
 10
-4.31358
 20
6.69879
 11
-4.19359
 21
6.52222
  0
LINE
  8
0
 10
-4.19359
 20
6.52222
 11
-4.09666
 21
6.332
  0
LINE
  8
0
 10
-4.09666
 20
6.332
 11
-4.02435
 21
6.13113
  0
LINE
  8
0
 10
-4.02435
 20
6.13113
 11
-3.97778
 21
5.92279
  0
LINE
  8
0
 10
-3.97778
 20
5.92279
 11
-3.95769
 21
5.71025
  0
LINE
  8
0
 10
-3.95769
 20
5.71025
 11
-3.96439
 21
5.49686
  0
LINE
  8
0
 10
-3.96439
 20
5.49686
 11
-3.99779
 21
5.286
  0
LINE
  8
0
 10
-3.99779
 20
5.286
 11
-4.05734
 21
5.08099
  0
LINE
  8
0
 10
-4.05734
 20
5.08099
 11
-4.14214
 21
4.88506
  0
LINE
  8
0
 10
-4.14214
 20
4.88506
 11
-4.25081
 21
4.70131
  0
LINE
  8
0
 10
-4.25081
 20
4.70131
 11
-4.38165
 21
4.53262
  0
LINE
  8
0
 10
-4.38165
 20
4.53262
 11
-4.53262
 21
4.38165
  0
LINE
  8
0
 10
-4.53262
 20
4.38165
 11
-4.70131
 21
4.25081
  0
LINE
  8
0
 10
-4.70131
 20
4.25081
 11
-4.88506
 21
4.14214
  0
LINE
  8
0
 10
-4.88506
 20
4.14214
 11
-5.08099
 21
4.05734
  0
LINE
  8
0
 10
-5.08099
 20
4.05734
 11
-5.286
 21
3.99779
  0
LINE
  8
0
 10
-5.286
 20
3.99779
 11
-5.49686
 21
3.96439
  0
LINE
  8
0
 10
-5.49686
 20
3.96439
 11
-5.71025
 21
3.95769
  0
LINE
  8
0
 10
-5.71025
 20
3.95769
 11
-5.92279
 21
3.97778
  0
LINE
  8
0
 10
-0.508408
 20
-3.20998
 11
-0.906708
 21
-3.12094
  0
LINE
  8
0
 10
-0.906708
 20
-3.12094
 11
-1.29073
 21
-2.9827
  0
LINE
  8
0
 10
-1.29073
 20
-2.9827
 11
-1.65437
 21
-2.79741
  0
LINE
  8
0
 10
-1.65437
 20
-2.79741
 11
-1.99194
 21
-2.56799
  0
LINE
  8
0
 10
-1.99194
 20
-2.56799
 11
-2.2981
 21
-2.2981
  0
LINE
  8
0
 10
-2.2981
 20
-2.2981
 11
-2.56799
 21
-1.99194
  0
LINE
  8
0
 10
-2.56799
 20
-1.99194
 11
-2.79741
 21
-1.65437
  0
LINE
  8
0
 10
-2.79741
 20
-1.65437
 11
-2.9827
 21
-1.29073
  0
LINE
  8
0
 10
-2.9827
 20
-1.29073
 11
-3.12094
 21
-0.906708
  0
LINE
  8
0
 10
-3.12094
 20
-0.906708
 11
-3.20998
 21
-0.508408
  0
LINE
  8
0
 10
-3.20998
 20
-0.508408
 11
-3.24838
 21
-0.102081
  0
LINE
  8
0
 10
-3.24838
 20
-0.102081
 11
-3.23557
 21
0.305847
  0
LINE
  8
0
 10
-3.23557
 20
0.305847
 11
-3.17172
 21
0.708954
  0
LINE
  8
0
 10
-3.17172
 20
0.708954
 11
-3.05786
 21
1.10089
  0
LINE
  8
0
 10
-3.05786
 20
1.10089
 11
-2.89577
 21
1.47546
  0
LINE
  8
0
 10
-2.89577
 20
1.47546
 11
-2.688
 21
1.82677
  0
LINE
  8
0
 10
-2.688
 20
1.82677
 11
-2.43785
 21
2.14926
  0
LINE
  8
0
 10
-2.43785
 20
2.14926
 11
-2.14926
 21
2.43785
  0
LINE
  8
0
 10
-2.14926
 20
2.43785
 11
-1.82677
 21
2.688
  0
LINE
  8
0
 10
-1.82677
 20
2.688
 11
-1.47546
 21
2.89577
  0
LINE
  8
0
 10
-1.47546
 20
2.89577
 11
-1.10089
 21
3.05786
  0
LINE
  8
0
 10
-1.10089
 20
3.05786
 11
-0.708954
 21
3.17172
  0
LINE
  8
0
 10
-0.708954
 20
3.17172
 11
-0.305847
 21
3.23557
  0
LINE
  8
0
 10
-0.305847
 20
3.23557
 11
0.102081
 21
3.24838
  0
LINE
  8
0
 10
0.102081
 20
3.24838
 11
0.508408
 21
3.20998
  0
LINE
  8
0
 10
0.508408
 20
3.20998
 11
0.906708
 21
3.12094
  0
LINE
  8
0
 10
0.906708
 20
3.12094
 11
1.29073
 21
2.9827
  0
LINE
  8
0
 10
1.29073
 20
2.9827
 11
1.65437
 21
2.79741
  0
LINE
  8
0
 10
1.65437
 20
2.79741
 11
1.99194
 21
2.56799
  0
LINE
  8
0
 10
1.99194
 20
2.56799
 11
2.2981
 21
2.2981
  0
LINE
  8
0
 10
2.2981
 20
2.2981
 11
2.56799
 21
1.99194
  0
LINE
  8
0
 10
2.56799
 20
1.99194
 11
2.79741
 21
1.65437
  0
LINE
  8
0
 10
2.79741
 20
1.65437
 11
2.9827
 21
1.29073
  0
LINE
  8
0
 10
2.9827
 20
1.29073
 11
3.12094
 21
0.906708
  0
LINE
  8
0
 10
3.12094
 20
0.906708
 11
3.20998
 21
0.508408
  0
LINE
  8
0
 10
3.20998
 20
0.508408
 11
3.24838
 21
0.102081
  0
LINE
  8
0
 10
3.24838
 20
0.102081
 11
3.23557
 21
-0.305847
  0
LINE
  8
0
 10
3.23557
 20
-0.305847
 11
3.17172
 21
-0.708954
  0
LINE
  8
0
 10
3.17172
 20
-0.708954
 11
3.05786
 21
-1.10089
  0
LINE
  8
0
 10
3.05786
 20
-1.10089
 11
2.89577
 21
-1.47546
  0
LINE
  8
0
 10
2.89577
 20
-1.47546
 11
2.688
 21
-1.82677
  0
LINE
  8
0
 10
2.688
 20
-1.82677
 11
2.43785
 21
-2.14926
  0
LINE
  8
0
 10
2.43785
 20
-2.14926
 11
2.14926
 21
-2.43785
  0
LINE
  8
0
 10
2.14926
 20
-2.43785
 11
1.82677
 21
-2.688
  0
LINE
  8
0
 10
1.82677
 20
-2.688
 11
1.47546
 21
-2.89577
  0
LINE
  8
0
 10
1.47546
 20
-2.89577
 11
1.10089
 21
-3.05786
  0
LINE
  8
0
 10
1.10089
 20
-3.05786
 11
0.708954
 21
-3.17172
  0
LINE
  8
0
 10
0.708954
 20
-3.17172
 11
0.305847
 21
-3.23557
  0
LINE
  8
0
 10
0.305847
 20
-3.23557
 11
-0.102081
 21
-3.24838
  0
LINE
  8
0
 10
-0.102081
 20
-3.24838
 11
-0.508408
 21
-3.20998
  0
LINE
  8
0
 10
21.5
 20
-2.5
 11
21.5
 21
2.5
  0
LINE
  8
0
 10
21.5
 20
2.5
 11
24.5
 21
2.5
  0
LINE
  8
0
 10
24.5
 20
2.5
 11
24.5
 21
-2.5
  0
LINE
  8
0
 10
24.5
 20
-2.5
 11
21.5
 21
-2.5
  0
LINE
  8
0
 10
5.5
 20
-2.5
 11
5.5
 21
2.5
  0
LINE
  8
0
 10
5.5
 20
2.5
 11
8.5
 21
2.5
  0
LINE
  8
0
 10
8.5
 20
2.5
 11
8.5
 21
-2.5
  0
LINE
  8
0
 10
8.5
 20
-2.5
 11
5.5
 21
-2.5
  0
LINE
  8
0
 10
-5.92279
 20
-7.33592
 11
-6.13113
 21
-7.28935
  0
LINE
  8
0
 10
-6.13113
 20
-7.28935
 11
-6.332
 21
-7.21703
  0
LINE
  8
0
 10
-6.332
 20
-7.21703
 11
-6.52222
 21
-7.1201
  0
LINE
  8
0
 10
-6.52222
 20
-7.1201
 11
-6.69879
 21
-7.00011
  0
LINE
  8
0
 10
-6.69879
 20
-7.00011
 11
-6.85893
 21
-6.85893
  0
LINE
  8
0
 10
-6.85893
 20
-6.85893
 11
-7.00011
 21
-6.69879
  0
LINE
  8
0
 10
-7.00011
 20
-6.69879
 11
-7.1201
 21
-6.52222
  0
LINE
  8
0
 10
-7.1201
 20
-6.52222
 11
-7.21703
 21
-6.332
  0
LINE
  8
0
 10
-7.21703
 20
-6.332
 11
-7.28935
 21
-6.13113
  0
LINE
  8
0
 10
-7.28935
 20
-6.13113
 11
-7.33592
 21
-5.92279
  0
LINE
  8
0
 10
-7.33592
 20
-5.92279
 11
-7.356
 21
-5.71025
  0
LINE
  8
0
 10
-7.356
 20
-5.71025
 11
-7.3493
 21
-5.49686
  0
LINE
  8
0
 10
-7.3493
 20
-5.49686
 11
-7.3159
 21
-5.28601
  0
LINE
  8
0
 10
-7.3159
 20
-5.28601
 11
-7.25635
 21
-5.08099
  0
LINE
  8
0
 10
-7.25635
 20
-5.08099
 11
-7.17155
 21
-4.88507
  0
LINE
  8
0
 10
-7.17155
 20
-4.88507
 11
-7.06288
 21
-4.70131
  0
LINE
  8
0
 10
-7.06288
 20
-4.70131
 11
-6.93204
 21
-4.53262
  0
LINE
  8
0
 10
-6.93204
 20
-4.53262
 11
-6.78108
 21
-4.38165
  0
LINE
  8
0
 10
-6.78108
 20
-4.38165
 11
-6.61238
 21
-4.25081
  0
LINE
  8
0
 10
-6.61238
 20
-4.25081
 11
-6.42863
 21
-4.14214
  0
LINE
  8
0
 10
-6.42863
 20
-4.14214
 11
-6.2327
 21
-4.05734
  0
LINE
  8
0
 10
-6.2327
 20
-4.05734
 11
-6.02769
 21
-3.99779
  0
LINE
  8
0
 10
-6.02769
 20
-3.99779
 11
-5.81683
 21
-3.96439
  0
LINE
  8
0
 10
-5.81683
 20
-3.96439
 11
-5.60345
 21
-3.95769
  0
LINE
  8
0
 10
-5.60345
 20
-3.95769
 11
-5.39091
 21
-3.97778
  0
LINE
  8
0
 10
-5.39091
 20
-3.97778
 11
-5.18256
 21
-4.02435
  0
LINE
  8
0
 10
-5.18256
 20
-4.02435
 11
-4.98169
 21
-4.09666
  0
LINE
  8
0
 10
-4.98169
 20
-4.09666
 11
-4.79147
 21
-4.19359
  0
LINE
  8
0
 10
-4.79147
 20
-4.19359
 11
-4.6149
 21
-4.31358
  0
LINE
  8
0
 10
-4.6149
 20
-4.31358
 11
-4.45476
 21
-4.45476
  0
LINE
  8
0
 10
-4.45476
 20
-4.45476
 11
-4.31358
 21
-4.6149
  0
LINE
  8
0
 10
-4.31358
 20
-4.6149
 11
-4.19359
 21
-4.79147
  0
LINE
  8
0
 10
-4.19359
 20
-4.79147
 11
-4.09666
 21
-4.98169
  0
LINE
  8
0
 10
-4.09666
 20
-4.98169
 11
-4.02435
 21
-5.18256
  0
LINE
  8
0
 10
-4.02435
 20
-5.18256
 11
-3.97778
 21
-5.39091
  0
LINE
  8
0
 10
-3.97778
 20
-5.39091
 11
-3.95769
 21
-5.60345
  0
LINE
  8
0
 10
-3.95769
 20
-5.60345
 11
-3.96439
 21
-5.81683
  0
LINE
  8
0
 10
-3.96439
 20
-5.81683
 11
-3.99779
 21
-6.02769
  0
LINE
  8
0
 10
-3.99779
 20
-6.02769
 11
-4.05734
 21
-6.2327
  0
LINE
  8
0
 10
-4.05734
 20
-6.2327
 11
-4.14214
 21
-6.42863
  0
LINE
  8
0
 10
-4.14214
 20
-6.42863
 11
-4.25081
 21
-6.61238
  0
LINE
  8
0
 10
-4.25081
 20
-6.61238
 11
-4.38165
 21
-6.78108
  0
LINE
  8
0
 10
-4.38165
 20
-6.78108
 11
-4.53262
 21
-6.93204
  0
LINE
  8
0
 10
-4.53262
 20
-6.93204
 11
-4.70131
 21
-7.06288
  0
LINE
  8
0
 10
-4.70131
 20
-7.06288
 11
-4.88507
 21
-7.17155
  0
LINE
  8
0
 10
-4.88507
 20
-7.17155
 11
-5.08099
 21
-7.25635
  0
LINE
  8
0
 10
-5.08099
 20
-7.25635
 11
-5.28601
 21
-7.3159
  0
LINE
  8
0
 10
-5.28601
 20
-7.3159
 11
-5.49686
 21
-7.3493
  0
LINE
  8
0
 10
-5.49686
 20
-7.3493
 11
-5.71025
 21
-7.356
  0
LINE
  8
0
 10
-5.71025
 20
-7.356
 11
-5.92279
 21
-7.33592
  0
LINE
  8
0
 10
5.39091
 20
-7.33592
 11
5.18256
 21
-7.28935
  0
LINE
  8
0
 10
5.18256
 20
-7.28935
 11
4.98169
 21
-7.21703
  0
LINE
  8
0
 10
4.98169
 20
-7.21703
 11
4.79147
 21
-7.1201
  0
LINE
  8
0
 10
4.79147
 20
-7.1201
 11
4.6149
 21
-7.00011
  0
LINE
  8
0
 10
4.6149
 20
-7.00011
 11
4.45477
 21
-6.85893
  0
LINE
  8
0
 10
4.45477
 20
-6.85893
 11
4.31358
 21
-6.69879
  0
LINE
  8
0
 10
4.31358
 20
-6.69879
 11
4.19359
 21
-6.52222
  0
LINE
  8
0
 10
4.19359
 20
-6.52222
 11
4.09666
 21
-6.332
  0
LINE
  8
0
 10
4.09666
 20
-6.332
 11
4.02435
 21
-6.13113
  0
LINE
  8
0
 10
4.02435
 20
-6.13113
 11
3.97778
 21
-5.92279
  0
LINE
  8
0
 10
3.97778
 20
-5.92279
 11
3.95769
 21
-5.71025
  0
LINE
  8
0
 10
3.95769
 20
-5.71025
 11
3.96439
 21
-5.49686
  0
LINE
  8
0
 10
3.96439
 20
-5.49686
 11
3.99779
 21
-5.286
  0
LINE
  8
0
 10
3.99779
 20
-5.286
 11
4.05734
 21
-5.08099
  0
LINE
  8
0
 10
4.05734
 20
-5.08099
 11
4.14214
 21
-4.88506
  0
LINE
  8
0
 10
4.14214
 20
-4.88506
 11
4.25081
 21
-4.70131
  0
LINE
  8
0
 10
4.25081
 20
-4.70131
 11
4.38165
 21
-4.53262
  0
LINE
  8
0
 10
4.38165
 20
-4.53262
 11
4.53262
 21
-4.38165
  0
LINE
  8
0
 10
4.53262
 20
-4.38165
 11
4.70131
 21
-4.25081
  0
LINE
  8
0
 10
4.70131
 20
-4.25081
 11
4.88506
 21
-4.14214
  0
LINE
  8
0
 10
4.88506
 20
-4.14214
 11
5.08099
 21
-4.05734
  0
LINE
  8
0
 10
5.08099
 20
-4.05734
 11
5.286
 21
-3.99779
  0
LINE
  8
0
 10
5.286
 20
-3.99779
 11
5.49686
 21
-3.96439
  0
LINE
  8
0
 10
5.49686
 20
-3.96439
 11
5.71025
 21
-3.95769
  0
LINE
  8
0
 10
5.71025
 20
-3.95769
 11
5.92279
 21
-3.97778
  0
LINE
  8
0
 10
5.92279
 20
-3.97778
 11
6.13113
 21
-4.02435
  0
LINE
  8
0
 10
6.13113
 20
-4.02435
 11
6.332
 21
-4.09666
  0
LINE
  8
0
 10
6.332
 20
-4.09666
 11
6.52222
 21
-4.19359
  0
LINE
  8
0
 10
6.52222
 20
-4.19359
 11
6.69879
 21
-4.31358
  0
LINE
  8
0
 10
6.69879
 20
-4.31358
 11
6.85893
 21
-4.45477
  0
LINE
  8
0
 10
6.85893
 20
-4.45477
 11
7.00011
 21
-4.6149
  0
LINE
  8
0
 10
7.00011
 20
-4.6149
 11
7.1201
 21
-4.79147
  0
LINE
  8
0
 10
7.1201
 20
-4.79147
 11
7.21703
 21
-4.98169
  0
LINE
  8
0
 10
7.21703
 20
-4.98169
 11
7.28935
 21
-5.18256
  0
LINE
  8
0
 10
7.28935
 20
-5.18256
 11
7.33592
 21
-5.39091
  0
LINE
  8
0
 10
7.33592
 20
-5.39091
 11
7.356
 21
-5.60345
  0
LINE
  8
0
 10
7.356
 20
-5.60345
 11
7.3493
 21
-5.81683
  0
LINE
  8
0
 10
7.3493
 20
-5.81683
 11
7.3159
 21
-6.02769
  0
LINE
  8
0
 10
7.3159
 20
-6.02769
 11
7.25635
 21
-6.2327
  0
LINE
  8
0
 10
7.25635
 20
-6.2327
 11
7.17155
 21
-6.42863
  0
LINE
  8
0
 10
7.17155
 20
-6.42863
 11
7.06288
 21
-6.61238
  0
LINE
  8
0
 10
7.06288
 20
-6.61238
 11
6.93204
 21
-6.78108
  0
LINE
  8
0
 10
6.93204
 20
-6.78108
 11
6.78108
 21
-6.93204
  0
LINE
  8
0
 10
6.78108
 20
-6.93204
 11
6.61238
 21
-7.06288
  0
LINE
  8
0
 10
6.61238
 20
-7.06288
 11
6.42863
 21
-7.17155
  0
LINE
  8
0
 10
6.42863
 20
-7.17155
 11
6.2327
 21
-7.25635
  0
LINE
  8
0
 10
6.2327
 20
-7.25635
 11
6.02769
 21
-7.3159
  0
LINE
  8
0
 10
6.02769
 20
-7.3159
 11
5.81683
 21
-7.3493
  0
LINE
  8
0
 10
5.81683
 20
-7.3493
 11
5.60345
 21
-7.356
  0
LINE
  8
0
 10
5.60345
 20
-7.356
 11
5.39091
 21
-7.33592
  0
ENDSEC
  0
SECTION
  2
OBJECTS
  0
DICTIONARY
  0
ENDSEC
  0
EOF
