  0
SECTION
  2
BLOCKS
  0
ENDSEC
  0
SECTION
  2
ENTITIES
  0
LINE
  8
0
 10
21.6267
 20
-40.9606
 11
22.2435
 21
-40.8429
  0
LINE
  8
0
 10
22.2435
 20
-40.8429
 11
22.8406
 21
-40.6489
  0
LINE
  8
0
 10
22.8406
 20
-40.6489
 11
23.4088
 21
-40.3815
  0
LINE
  8
0
 10
23.4088
 20
-40.3815
 11
23.9389
 21
-40.0451
  0
LINE
  8
0
 10
23.9389
 20
-40.0451
 11
24.4227
 21
-39.6448
  0
LINE
  8
0
 10
24.4227
 20
-39.6448
 11
24.8526
 21
-39.1871
  0
LINE
  8
0
 10
24.8526
 20
-39.1871
 11
25.2216
 21
-38.6791
  0
LINE
  8
0
 10
25.2216
 20
-38.6791
 11
25.5241
 21
-38.1289
  0
LINE
  8
0
 10
25.5241
 20
-38.1289
 11
25.7553
 21
-37.5451
  0
LINE
  8
0
 10
25.7553
 20
-37.5451
 11
25.9114
 21
-36.9369
  0
LINE
  8
0
 10
25.9114
 20
-36.9369
 11
26
 21
-36
  0
LINE
  8
0
 10
26
 20
-36
 11
26
 21
36
  0
LINE
  8
0
 10
26
 20
36
 11
25.9606
 21
36.6267
  0
LINE
  8
0
 10
25.9606
 20
36.6267
 11
25.8429
 21
37.2435
  0
LINE
  8
0
 10
25.8429
 20
37.2435
 11
25.6489
 21
37.8406
  0
LINE
  8
0
 10
25.6489
 20
37.8406
 11
25.3815
 21
38.4088
  0
LINE
  8
0
 10
25.3815
 20
38.4088
 11
25.0451
 21
38.9389
  0
LINE
  8
0
 10
25.0451
 20
38.9389
 11
24.6448
 21
39.4227
  0
LINE
  8
0
 10
24.6448
 20
39.4227
 11
24.1871
 21
39.8526
  0
LINE
  8
0
 10
24.1871
 20
39.8526
 11
23.6791
 21
40.2216
  0
LINE
  8
0
 10
23.6791
 20
40.2216
 11
23.1289
 21
40.5241
  0
LINE
  8
0
 10
23.1289
 20
40.5241
 11
22.5451
 21
40.7553
  0
LINE
  8
0
 10
22.5451
 20
40.7553
 11
21.9369
 21
40.9114
  0
LINE
  8
0
 10
21.9369
 20
40.9114
 11
21
 21
41
  0
LINE
  8
0
 10
21
 20
41
 11
-21
 21
41
  0
LINE
  8
0
 10
-21
 20
41
 11
-21.6267
 21
40.9606
  0
LINE
  8
0
 10
-21.6267
 20
40.9606
 11
-22.2435
 21
40.8429
  0
LINE
  8
0
 10
-22.2435
 20
40.8429
 11
-22.8406
 21
40.6489
  0
LINE
  8
0
 10
-22.8406
 20
40.6489
 11
-23.4088
 21
40.3815
  0
LINE
  8
0
 10
-23.4088
 20
40.3815
 11
-23.9389
 21
40.0451
  0
LINE
  8
0
 10
-23.9389
 20
40.0451
 11
-24.4227
 21
39.6448
  0
LINE
  8
0
 10
-24.4227
 20
39.6448
 11
-24.8526
 21
39.1871
  0
LINE
  8
0
 10
-24.8526
 20
39.1871
 11
-25.2216
 21
38.6791
  0
LINE
  8
0
 10
-25.2216
 20
38.6791
 11
-25.5241
 21
38.1289
  0
LINE
  8
0
 10
-25.5241
 20
38.1289
 11
-25.7553
 21
37.5451
  0
LINE
  8
0
 10
-25.7553
 20
37.5451
 11
-25.9114
 21
36.9369
  0
LINE
  8
0
 10
-25.9114
 20
36.9369
 11
-26
 21
36
  0
LINE
  8
0
 10
-26
 20
36
 11
-26
 21
-36
  0
LINE
  8
0
 10
-26
 20
-36
 11
-25.9606
 21
-36.6267
  0
LINE
  8
0
 10
-25.9606
 20
-36.6267
 11
-25.8429
 21
-37.2435
  0
LINE
  8
0
 10
-25.8429
 20
-37.2435
 11
-25.6489
 21
-37.8406
  0
LINE
  8
0
 10
-25.6489
 20
-37.8406
 11
-25.3815
 21
-38.4088
  0
LINE
  8
0
 10
-25.3815
 20
-38.4088
 11
-25.0451
 21
-38.9389
  0
LINE
  8
0
 10
-25.0451
 20
-38.9389
 11
-24.6448
 21
-39.4227
  0
LINE
  8
0
 10
-24.6448
 20
-39.4227
 11
-24.1871
 21
-39.8526
  0
LINE
  8
0
 10
-24.1871
 20
-39.8526
 11
-23.6791
 21
-40.2216
  0
LINE
  8
0
 10
-23.6791
 20
-40.2216
 11
-23.1289
 21
-40.5241
  0
LINE
  8
0
 10
-23.1289
 20
-40.5241
 11
-22.5451
 21
-40.7553
  0
LINE
  8
0
 10
-22.5451
 20
-40.7553
 11
-21.9369
 21
-40.9114
  0
LINE
  8
0
 10
-21.9369
 20
-40.9114
 11
-21
 21
-41
  0
LINE
  8
0
 10
-21
 20
-41
 11
21
 21
-41
  0
LINE
  8
0
 10
21
 20
-41
 11
21.6267
 21
-40.9606
  0
LINE
  8
0
 10
-5
 20
15
 11
-5
 21
25
  0
LINE
  8
0
 10
-5
 20
25
 11
5
 21
25
  0
LINE
  8
0
 10
5
 20
25
 11
5
 21
15
  0
LINE
  8
0
 10
5
 20
15
 11
-5
 21
15
  0
LINE
  8
0
 10
7.89325
 20
18.3033
 11
7.68144
 21
18.3301
  0
LINE
  8
0
 10
7.68144
 20
18.3301
 11
7.47467
 21
18.3832
  0
LINE
  8
0
 10
7.47467
 20
18.3832
 11
7.27617
 21
18.4618
  0
LINE
  8
0
 10
7.27617
 20
18.4618
 11
7.08908
 21
18.5646
  0
LINE
  8
0
 10
7.08908
 20
18.5646
 11
6.91637
 21
18.6901
  0
LINE
  8
0
 10
6.91637
 20
18.6901
 11
6.76074
 21
18.8363
  0
LINE
  8
0
 10
6.76074
 20
18.8363
 11
6.62466
 21
19.0008
  0
LINE
  8
0
 10
6.62466
 20
19.0008
 11
6.51027
 21
19.181
  0
LINE
  8
0
 10
6.51027
 20
19.181
 11
6.41937
 21
19.3742
  0
LINE
  8
0
 10
6.41937
 20
19.3742
 11
6.35341
 21
19.5772
  0
LINE
  8
0
 10
6.35341
 20
19.5772
 11
6.3134
 21
19.7869
  0
LINE
  8
0
 10
6.3134
 20
19.7869
 11
6.29999
 21
20
  0
LINE
  8
0
 10
6.29999
 20
20
 11
6.3134
 21
20.2131
  0
LINE
  8
0
 10
6.3134
 20
20.2131
 11
6.35341
 21
20.4228
  0
LINE
  8
0
 10
6.35341
 20
20.4228
 11
6.41937
 21
20.6258
  0
LINE
  8
0
 10
6.41937
 20
20.6258
 11
6.51027
 21
20.819
  0
LINE
  8
0
 10
6.51027
 20
20.819
 11
6.62466
 21
20.9992
  0
LINE
  8
0
 10
6.62466
 20
20.9992
 11
6.76074
 21
21.1637
  0
LINE
  8
0
 10
6.76074
 20
21.1637
 11
6.91637
 21
21.3099
  0
LINE
  8
0
 10
6.91637
 20
21.3099
 11
7.08908
 21
21.4353
  0
LINE
  8
0
 10
7.08908
 20
21.4353
 11
7.27617
 21
21.5382
  0
LINE
  8
0
 10
7.27617
 20
21.5382
 11
7.47467
 21
21.6168
  0
LINE
  8
0
 10
7.47467
 20
21.6168
 11
7.68144
 21
21.6699
  0
LINE
  8
0
 10
7.68144
 20
21.6699
 11
7.89325
 21
21.6966
  0
LINE
  8
0
 10
7.89325
 20
21.6966
 11
8.10674
 21
21.6966
  0
LINE
  8
0
 10
8.10674
 20
21.6966
 11
8.31854
 21
21.6699
  0
LINE
  8
0
 10
8.31854
 20
21.6699
 11
8.52531
 21
21.6168
  0
LINE
  8
0
 10
8.52531
 20
21.6168
 11
8.72382
 21
21.5382
  0
LINE
  8
0
 10
8.72382
 20
21.5382
 11
8.9109
 21
21.4353
  0
LINE
  8
0
 10
8.9109
 20
21.4353
 11
9.08362
 21
21.3099
  0
LINE
  8
0
 10
9.08362
 20
21.3099
 11
9.23924
 21
21.1637
  0
LINE
  8
0
 10
9.23924
 20
21.1637
 11
9.37532
 21
20.9992
  0
LINE
  8
0
 10
9.37532
 20
20.9992
 11
9.48972
 21
20.819
  0
LINE
  8
0
 10
9.48972
 20
20.819
 11
9.58061
 21
20.6258
  0
LINE
  8
0
 10
9.58061
 20
20.6258
 11
9.64659
 21
20.4228
  0
LINE
  8
0
 10
9.64659
 20
20.4228
 11
9.68658
 21
20.2131
  0
LINE
  8
0
 10
9.68658
 20
20.2131
 11
9.7
 21
20
  0
LINE
  8
0
 10
9.7
 20
20
 11
9.68658
 21
19.7869
  0
LINE
  8
0
 10
9.68658
 20
19.7869
 11
9.64659
 21
19.5772
  0
LINE
  8
0
 10
9.64659
 20
19.5772
 11
9.58061
 21
19.3742
  0
LINE
  8
0
 10
9.58061
 20
19.3742
 11
9.48972
 21
19.181
  0
LINE
  8
0
 10
9.48972
 20
19.181
 11
9.37532
 21
19.0008
  0
LINE
  8
0
 10
9.37532
 20
19.0008
 11
9.23924
 21
18.8363
  0
LINE
  8
0
 10
9.23924
 20
18.8363
 11
9.08362
 21
18.6901
  0
LINE
  8
0
 10
9.08362
 20
18.6901
 11
8.9109
 21
18.5646
  0
LINE
  8
0
 10
8.9109
 20
18.5646
 11
8.72382
 21
18.4618
  0
LINE
  8
0
 10
8.72382
 20
18.4618
 11
8.52531
 21
18.3832
  0
LINE
  8
0
 10
8.52531
 20
18.3832
 11
8.31854
 21
18.3301
  0
LINE
  8
0
 10
8.31854
 20
18.3301
 11
8.10674
 21
18.3033
  0
LINE
  8
0
 10
8.10674
 20
18.3033
 11
7.89325
 21
18.3033
  0
LINE
  8
0
 10
-8.10674
 20
18.3033
 11
-8.31854
 21
18.3301
  0
LINE
  8
0
 10
-8.31854
 20
18.3301
 11
-8.52531
 21
18.3832
  0
LINE
  8
0
 10
-8.52531
 20
18.3832
 11
-8.72382
 21
18.4618
  0
LINE
  8
0
 10
-8.72382
 20
18.4618
 11
-8.9109
 21
18.5646
  0
LINE
  8
0
 10
-8.9109
 20
18.5646
 11
-9.08362
 21
18.6901
  0
LINE
  8
0
 10
-9.08362
 20
18.6901
 11
-9.23924
 21
18.8363
  0
LINE
  8
0
 10
-9.23924
 20
18.8363
 11
-9.37532
 21
19.0008
  0
LINE
  8
0
 10
-9.37532
 20
19.0008
 11
-9.48972
 21
19.181
  0
LINE
  8
0
 10
-9.48972
 20
19.181
 11
-9.58061
 21
19.3742
  0
LINE
  8
0
 10
-9.58061
 20
19.3742
 11
-9.64659
 21
19.5772
  0
LINE
  8
0
 10
-9.64659
 20
19.5772
 11
-9.68658
 21
19.7869
  0
LINE
  8
0
 10
-9.68658
 20
19.7869
 11
-9.7
 21
20
  0
LINE
  8
0
 10
-9.7
 20
20
 11
-9.68658
 21
20.2131
  0
LINE
  8
0
 10
-9.68658
 20
20.2131
 11
-9.64659
 21
20.4228
  0
LINE
  8
0
 10
-9.64659
 20
20.4228
 11
-9.58061
 21
20.6258
  0
LINE
  8
0
 10
-9.58061
 20
20.6258
 11
-9.48972
 21
20.819
  0
LINE
  8
0
 10
-9.48972
 20
20.819
 11
-9.37532
 21
20.9992
  0
LINE
  8
0
 10
-9.37532
 20
20.9992
 11
-9.23924
 21
21.1637
  0
LINE
  8
0
 10
-9.23924
 20
21.1637
 11
-9.08362
 21
21.3099
  0
LINE
  8
0
 10
-9.08362
 20
21.3099
 11
-8.9109
 21
21.4353
  0
LINE
  8
0
 10
-8.9109
 20
21.4353
 11
-8.72382
 21
21.5382
  0
LINE
  8
0
 10
-8.72382
 20
21.5382
 11
-8.52531
 21
21.6168
  0
LINE
  8
0
 10
-8.52531
 20
21.6168
 11
-8.31854
 21
21.6699
  0
LINE
  8
0
 10
-8.31854
 20
21.6699
 11
-8.10674
 21
21.6966
  0
LINE
  8
0
 10
-8.10674
 20
21.6966
 11
-7.89325
 21
21.6966
  0
LINE
  8
0
 10
-7.89325
 20
21.6966
 11
-7.68144
 21
21.6699
  0
LINE
  8
0
 10
-7.68144
 20
21.6699
 11
-7.47467
 21
21.6168
  0
LINE
  8
0
 10
-7.47467
 20
21.6168
 11
-7.27617
 21
21.5382
  0
LINE
  8
0
 10
-7.27617
 20
21.5382
 11
-7.08908
 21
21.4353
  0
LINE
  8
0
 10
-7.08908
 20
21.4353
 11
-6.91637
 21
21.3099
  0
LINE
  8
0
 10
-6.91637
 20
21.3099
 11
-6.76074
 21
21.1637
  0
LINE
  8
0
 10
-6.76074
 20
21.1637
 11
-6.62466
 21
20.9992
  0
LINE
  8
0
 10
-6.62466
 20
20.9992
 11
-6.51027
 21
20.819
  0
LINE
  8
0
 10
-6.51027
 20
20.819
 11
-6.41937
 21
20.6258
  0
LINE
  8
0
 10
-6.41937
 20
20.6258
 11
-6.35341
 21
20.4228
  0
LINE
  8
0
 10
-6.35341
 20
20.4228
 11
-6.3134
 21
20.2131
  0
LINE
  8
0
 10
-6.3134
 20
20.2131
 11
-6.29999
 21
20
  0
LINE
  8
0
 10
-6.29999
 20
20
 11
-6.3134
 21
19.7869
  0
LINE
  8
0
 10
-6.3134
 20
19.7869
 11
-6.35341
 21
19.5772
  0
LINE
  8
0
 10
-6.35341
 20
19.5772
 11
-6.41937
 21
19.3742
  0
LINE
  8
0
 10
-6.41937
 20
19.3742
 11
-6.51027
 21
19.181
  0
LINE
  8
0
 10
-6.51027
 20
19.181
 11
-6.62466
 21
19.0008
  0
LINE
  8
0
 10
-6.62466
 20
19.0008
 11
-6.76074
 21
18.8363
  0
LINE
  8
0
 10
-6.76074
 20
18.8363
 11
-6.91637
 21
18.6901
  0
LINE
  8
0
 10
-6.91637
 20
18.6901
 11
-7.08908
 21
18.5646
  0
LINE
  8
0
 10
-7.08908
 20
18.5646
 11
-7.27617
 21
18.4618
  0
LINE
  8
0
 10
-7.27617
 20
18.4618
 11
-7.47467
 21
18.3832
  0
LINE
  8
0
 10
-7.47467
 20
18.3832
 11
-7.68144
 21
18.3301
  0
LINE
  8
0
 10
-7.68144
 20
18.3301
 11
-7.89325
 21
18.3033
  0
LINE
  8
0
 10
-7.89325
 20
18.3033
 11
-8.10674
 21
18.3033
  0
LINE
  8
0
 10
-0.332779
 20
-0.289536
 11
-0.993118
 21
-0.206116
  0
LINE
  8
0
 10
-0.993118
 20
-0.206116
 11
-1.63779
 21
-0.0405884
  0
LINE
  8
0
 10
-1.63779
 20
-0.0405884
 11
-2.25662
 21
0.204407
  0
LINE
  8
0
 10
-2.25662
 20
0.204407
 11
-2.83987
 21
0.525055
  0
LINE
  8
0
 10
-2.83987
 20
0.525055
 11
-3.37834
 21
0.916275
  0
LINE
  8
0
 10
-3.37834
 20
0.916275
 11
-3.86353
 21
1.37189
  0
LINE
  8
0
 10
-3.86353
 20
1.37189
 11
-4.28778
 21
1.88474
  0
LINE
  8
0
 10
-4.28778
 20
1.88474
 11
-4.64442
 21
2.4467
  0
LINE
  8
0
 10
-4.64442
 20
2.4467
 11
-4.92781
 21
3.04893
  0
LINE
  8
0
 10
-4.92781
 20
3.04893
 11
-5.13348
 21
3.68193
  0
LINE
  8
0
 10
-5.13348
 20
3.68193
 11
-5.25819
 21
4.33572
  0
LINE
  8
0
 10
-5.25819
 20
4.33572
 11
-5.29999
 21
5
  0
LINE
  8
0
 10
-5.29999
 20
5
 11
-5.25819
 21
5.66426
  0
LINE
  8
0
 10
-5.25819
 20
5.66426
 11
-5.13348
 21
6.31805
  0
LINE
  8
0
 10
-5.13348
 20
6.31805
 11
-4.92781
 21
6.95105
  0
LINE
  8
0
 10
-4.92781
 20
6.95105
 11
-4.64442
 21
7.55328
  0
LINE
  8
0
 10
-4.64442
 20
7.55328
 11
-4.28778
 21
8.11525
  0
LINE
  8
0
 10
-4.28778
 20
8.11525
 11
-3.86353
 21
8.6281
  0
LINE
  8
0
 10
-3.86353
 20
8.6281
 11
-3.37834
 21
9.08371
  0
LINE
  8
0
 10
-3.37834
 20
9.08371
 11
-2.83987
 21
9.47493
  0
LINE
  8
0
 10
-2.83987
 20
9.47493
 11
-2.25662
 21
9.79558
  0
LINE
  8
0
 10
-2.25662
 20
9.79558
 11
-1.63779
 21
10.0406
  0
LINE
  8
0
 10
-1.63779
 20
10.0406
 11
-0.993118
 21
10.2061
  0
LINE
  8
0
 10
-0.993118
 20
10.2061
 11
-0.332779
 21
10.2895
  0
LINE
  8
0
 10
-0.332779
 20
10.2895
 11
0.332779
 21
10.2895
  0
LINE
  8
0
 10
0.332779
 20
10.2895
 11
0.993118
 21
10.2061
  0
LINE
  8
0
 10
0.993118
 20
10.2061
 11
1.63779
 21
10.0406
  0
LINE
  8
0
 10
1.63779
 20
10.0406
 11
2.25662
 21
9.79558
  0
LINE
  8
0
 10
2.25662
 20
9.79558
 11
2.83987
 21
9.47493
  0
LINE
  8
0
 10
2.83987
 20
9.47493
 11
3.37834
 21
9.08371
  0
LINE
  8
0
 10
3.37834
 20
9.08371
 11
3.86353
 21
8.6281
  0
LINE
  8
0
 10
3.86353
 20
8.6281
 11
4.28778
 21
8.11525
  0
LINE
  8
0
 10
4.28778
 20
8.11525
 11
4.64442
 21
7.55328
  0
LINE
  8
0
 10
4.64442
 20
7.55328
 11
4.92781
 21
6.95105
  0
LINE
  8
0
 10
4.92781
 20
6.95105
 11
5.13348
 21
6.31805
  0
LINE
  8
0
 10
5.13348
 20
6.31805
 11
5.25819
 21
5.66426
  0
LINE
  8
0
 10
5.25819
 20
5.66426
 11
5.29999
 21
5
  0
LINE
  8
0
 10
5.29999
 20
5
 11
5.25819
 21
4.33572
  0
LINE
  8
0
 10
5.25819
 20
4.33572
 11
5.13348
 21
3.68193
  0
LINE
  8
0
 10
5.13348
 20
3.68193
 11
4.92781
 21
3.04893
  0
LINE
  8
0
 10
4.92781
 20
3.04893
 11
4.64442
 21
2.4467
  0
LINE
  8
0
 10
4.64442
 20
2.4467
 11
4.28778
 21
1.88474
  0
LINE
  8
0
 10
4.28778
 20
1.88474
 11
3.86353
 21
1.37189
  0
LINE
  8
0
 10
3.86353
 20
1.37189
 11
3.37834
 21
0.916275
  0
LINE
  8
0
 10
3.37834
 20
0.916275
 11
2.83987
 21
0.525055
  0
LINE
  8
0
 10
2.83987
 20
0.525055
 11
2.25662
 21
0.204407
  0
LINE
  8
0
 10
2.25662
 20
0.204407
 11
1.63779
 21
-0.0405884
  0
LINE
  8
0
 10
1.63779
 20
-0.0405884
 11
0.993118
 21
-0.206116
  0
LINE
  8
0
 10
0.993118
 20
-0.206116
 11
0.332779
 21
-0.289536
  0
LINE
  8
0
 10
0.332779
 20
-0.289536
 11
-0.332779
 21
-0.289536
  0
LINE
  8
0
 10
2.7592
 20
-6.55525
 11
2.82047
 21
-6.47093
  0
LINE
  8
0
 10
2.82047
 20
-6.47093
 11
2.89182
 21
-6.39494
  0
LINE
  8
0
 10
2.89182
 20
-6.39494
 11
2.97214
 21
-6.32851
  0
LINE
  8
0
 10
2.97214
 20
-6.32851
 11
3.06013
 21
-6.27266
  0
LINE
  8
0
 10
3.06013
 20
-6.27266
 11
3.15445
 21
-6.22827
  0
LINE
  8
0
 10
3.15445
 20
-6.22827
 11
3.25359
 21
-6.19608
  0
LINE
  8
0
 10
3.25359
 20
-6.19608
 11
3.35597
 21
-6.17654
  0
LINE
  8
0
 10
3.35597
 20
-6.17654
 11
3.45999
 21
-6.17
  0
LINE
  8
0
 10
3.45999
 20
-6.17
 11
3.56403
 21
-6.17654
  0
LINE
  8
0
 10
3.56403
 20
-6.17654
 11
3.66641
 21
-6.19608
  0
LINE
  8
0
 10
3.66641
 20
-6.19608
 11
3.76553
 21
-6.22827
  0
LINE
  8
0
 10
3.76553
 20
-6.22827
 11
3.85985
 21
-6.27266
  0
LINE
  8
0
 10
3.85985
 20
-6.27266
 11
3.94786
 21
-6.32851
  0
LINE
  8
0
 10
3.94786
 20
-6.32851
 11
4.02817
 21
-6.39494
  0
LINE
  8
0
 10
4.02817
 20
-6.39494
 11
4.09952
 21
-6.47093
  0
LINE
  8
0
 10
4.09952
 20
-6.47093
 11
4.16078
 21
-6.55525
  0
LINE
  8
0
 10
4.16078
 20
-6.55525
 11
4.211
 21
-6.64659
  0
LINE
  8
0
 10
4.211
 20
-6.64659
 11
4.24937
 21
-6.74352
  0
LINE
  8
0
 10
4.24937
 20
-6.74352
 11
4.27528
 21
-6.84447
  0
LINE
  8
0
 10
4.27528
 20
-6.84447
 11
4.28836
 21
-6.94788
  0
LINE
  8
0
 10
4.28836
 20
-6.94788
 11
4.28836
 21
-7.05211
  0
LINE
  8
0
 10
4.28836
 20
-7.05211
 11
4.27528
 21
-7.15552
  0
LINE
  8
0
 10
4.27528
 20
-7.15552
 11
4.24937
 21
-7.25647
  0
LINE
  8
0
 10
4.24937
 20
-7.25647
 11
4.211
 21
-7.35339
  0
LINE
  8
0
 10
4.211
 20
-7.35339
 11
4.16078
 21
-7.44473
  0
LINE
  8
0
 10
4.16078
 20
-7.44473
 11
4.09952
 21
-7.52905
  0
LINE
  8
0
 10
4.09952
 20
-7.52905
 11
4.02817
 21
-7.60504
  0
LINE
  8
0
 10
4.02817
 20
-7.60504
 11
3.94786
 21
-7.67148
  0
LINE
  8
0
 10
3.94786
 20
-7.67148
 11
3.85985
 21
-7.72733
  0
LINE
  8
0
 10
3.85985
 20
-7.72733
 11
3.76553
 21
-7.77171
  0
LINE
  8
0
 10
3.76553
 20
-7.77171
 11
3.66641
 21
-7.80391
  0
LINE
  8
0
 10
3.66641
 20
-7.80391
 11
3.56403
 21
-7.82344
  0
LINE
  8
0
 10
3.56403
 20
-7.82344
 11
3.45999
 21
-7.82999
  0
LINE
  8
0
 10
3.45999
 20
-7.82999
 11
3.35597
 21
-7.82344
  0
LINE
  8
0
 10
3.35597
 20
-7.82344
 11
3.25359
 21
-7.80391
  0
LINE
  8
0
 10
3.25359
 20
-7.80391
 11
3.15445
 21
-7.77171
  0
LINE
  8
0
 10
3.15445
 20
-7.77171
 11
3.06013
 21
-7.72733
  0
LINE
  8
0
 10
3.06013
 20
-7.72733
 11
2.97214
 21
-7.67148
  0
LINE
  8
0
 10
2.97214
 20
-7.67148
 11
2.89182
 21
-7.60504
  0
LINE
  8
0
 10
2.89182
 20
-7.60504
 11
2.82047
 21
-7.52905
  0
LINE
  8
0
 10
2.82047
 20
-7.52905
 11
2.7592
 21
-7.44473
  0
LINE
  8
0
 10
2.7592
 20
-7.44473
 11
2.70898
 21
-7.35339
  0
LINE
  8
0
 10
2.70898
 20
-7.35339
 11
2.67062
 21
-7.25647
  0
LINE
  8
0
 10
2.67062
 20
-7.25647
 11
2.6447
 21
-7.15552
  0
LINE
  8
0
 10
2.6447
 20
-7.15552
 11
2.63164
 21
-7.05211
  0
LINE
  8
0
 10
2.63164
 20
-7.05211
 11
2.63164
 21
-6.94788
  0
LINE
  8
0
 10
2.63164
 20
-6.94788
 11
2.6447
 21
-6.84447
  0
LINE
  8
0
 10
2.6447
 20
-6.84447
 11
2.67062
 21
-6.74352
  0
LINE
  8
0
 10
2.67062
 20
-6.74352
 11
2.70898
 21
-6.64659
  0
LINE
  8
0
 10
2.70898
 20
-6.64659
 11
2.7592
 21
-6.55525
  0
LINE
  8
0
 10
5.89597
 20
-7.82344
 11
5.79358
 21
-7.80391
  0
LINE
  8
0
 10
5.79358
 20
-7.80391
 11
5.69444
 21
-7.77171
  0
LINE
  8
0
 10
5.69444
 20
-7.77171
 11
5.60014
 21
-7.72733
  0
LINE
  8
0
 10
5.60014
 20
-7.72733
 11
5.51213
 21
-7.67148
  0
LINE
  8
0
 10
5.51213
 20
-7.67148
 11
5.43182
 21
-7.60504
  0
LINE
  8
0
 10
5.43182
 20
-7.60504
 11
5.36047
 21
-7.52905
  0
LINE
  8
0
 10
5.36047
 20
-7.52905
 11
5.29919
 21
-7.44473
  0
LINE
  8
0
 10
5.29919
 20
-7.44473
 11
5.24899
 21
-7.35339
  0
LINE
  8
0
 10
5.24899
 20
-7.35339
 11
5.21062
 21
-7.25647
  0
LINE
  8
0
 10
5.21062
 20
-7.25647
 11
5.18469
 21
-7.15552
  0
LINE
  8
0
 10
5.18469
 20
-7.15552
 11
5.17163
 21
-7.05211
  0
LINE
  8
0
 10
5.17163
 20
-7.05211
 11
5.17163
 21
-6.94788
  0
LINE
  8
0
 10
5.17163
 20
-6.94788
 11
5.18469
 21
-6.84447
  0
LINE
  8
0
 10
5.18469
 20
-6.84447
 11
5.21062
 21
-6.74352
  0
LINE
  8
0
 10
5.21062
 20
-6.74352
 11
5.24899
 21
-6.64659
  0
LINE
  8
0
 10
5.24899
 20
-6.64659
 11
5.29919
 21
-6.55525
  0
LINE
  8
0
 10
5.29919
 20
-6.55525
 11
5.36047
 21
-6.47093
  0
LINE
  8
0
 10
5.36047
 20
-6.47093
 11
5.43182
 21
-6.39494
  0
LINE
  8
0
 10
5.43182
 20
-6.39494
 11
5.51213
 21
-6.32851
  0
LINE
  8
0
 10
5.51213
 20
-6.32851
 11
5.60014
 21
-6.27266
  0
LINE
  8
0
 10
5.60014
 20
-6.27266
 11
5.69444
 21
-6.22827
  0
LINE
  8
0
 10
5.69444
 20
-6.22827
 11
5.79358
 21
-6.19608
  0
LINE
  8
0
 10
5.79358
 20
-6.19608
 11
5.89597
 21
-6.17654
  0
LINE
  8
0
 10
5.89597
 20
-6.17654
 11
6
 21
-6.17
  0
LINE
  8
0
 10
6
 20
-6.17
 11
6.10402
 21
-6.17654
  0
LINE
  8
0
 10
6.10402
 20
-6.17654
 11
6.20641
 21
-6.19608
  0
LINE
  8
0
 10
6.20641
 20
-6.19608
 11
6.30554
 21
-6.22827
  0
LINE
  8
0
 10
6.30554
 20
-6.22827
 11
6.39984
 21
-6.27266
  0
LINE
  8
0
 10
6.39984
 20
-6.27266
 11
6.48785
 21
-6.32851
  0
LINE
  8
0
 10
6.48785
 20
-6.32851
 11
6.56816
 21
-6.39494
  0
LINE
  8
0
 10
6.56816
 20
-6.39494
 11
6.63951
 21
-6.47093
  0
LINE
  8
0
 10
6.63951
 20
-6.47093
 11
6.70079
 21
-6.55525
  0
LINE
  8
0
 10
6.70079
 20
-6.55525
 11
6.75099
 21
-6.64659
  0
LINE
  8
0
 10
6.75099
 20
-6.64659
 11
6.78937
 21
-6.74352
  0
LINE
  8
0
 10
6.78937
 20
-6.74352
 11
6.81529
 21
-6.84447
  0
LINE
  8
0
 10
6.81529
 20
-6.84447
 11
6.82835
 21
-6.94788
  0
LINE
  8
0
 10
6.82835
 20
-6.94788
 11
6.82835
 21
-7.05211
  0
LINE
  8
0
 10
6.82835
 20
-7.05211
 11
6.81529
 21
-7.15552
  0
LINE
  8
0
 10
6.81529
 20
-7.15552
 11
6.78937
 21
-7.25647
  0
LINE
  8
0
 10
6.78937
 20
-7.25647
 11
6.75099
 21
-7.35339
  0
LINE
  8
0
 10
6.75099
 20
-7.35339
 11
6.70079
 21
-7.44473
  0
LINE
  8
0
 10
6.70079
 20
-7.44473
 11
6.63951
 21
-7.52905
  0
LINE
  8
0
 10
6.63951
 20
-7.52905
 11
6.56816
 21
-7.60504
  0
LINE
  8
0
 10
6.56816
 20
-7.60504
 11
6.48785
 21
-7.67148
  0
LINE
  8
0
 10
6.48785
 20
-7.67148
 11
6.39984
 21
-7.72733
  0
LINE
  8
0
 10
6.39984
 20
-7.72733
 11
6.30554
 21
-7.77171
  0
LINE
  8
0
 10
6.30554
 20
-7.77171
 11
6.20641
 21
-7.80391
  0
LINE
  8
0
 10
6.20641
 20
-7.80391
 11
6.10402
 21
-7.82344
  0
LINE
  8
0
 10
6.10402
 20
-7.82344
 11
6
 21
-7.82999
  0
LINE
  8
0
 10
6
 20
-7.82999
 11
5.89597
 21
-7.82344
  0
LINE
  8
0
 10
-4.26402
 20
-7.82344
 11
-4.36641
 21
-7.80391
  0
LINE
  8
0
 10
-4.36641
 20
-7.80391
 11
-4.46553
 21
-7.77171
  0
LINE
  8
0
 10
-4.46553
 20
-7.77171
 11
-4.55984
 21
-7.72733
  0
LINE
  8
0
 10
-4.55984
 20
-7.72733
 11
-4.64786
 21
-7.67148
  0
LINE
  8
0
 10
-4.64786
 20
-7.67148
 11
-4.72816
 21
-7.60504
  0
LINE
  8
0
 10
-4.72816
 20
-7.60504
 11
-4.79951
 21
-7.52905
  0
LINE
  8
0
 10
-4.79951
 20
-7.52905
 11
-4.86078
 21
-7.44473
  0
LINE
  8
0
 10
-4.86078
 20
-7.44473
 11
-4.911
 21
-7.35339
  0
LINE
  8
0
 10
-4.911
 20
-7.35339
 11
-4.94937
 21
-7.25647
  0
LINE
  8
0
 10
-4.94937
 20
-7.25647
 11
-4.9753
 21
-7.15552
  0
LINE
  8
0
 10
-4.9753
 20
-7.15552
 11
-4.98836
 21
-7.05211
  0
LINE
  8
0
 10
-4.98836
 20
-7.05211
 11
-4.98836
 21
-6.94788
  0
LINE
  8
0
 10
-4.98836
 20
-6.94788
 11
-4.9753
 21
-6.84447
  0
LINE
  8
0
 10
-4.9753
 20
-6.84447
 11
-4.94937
 21
-6.74352
  0
LINE
  8
0
 10
-4.94937
 20
-6.74352
 11
-4.911
 21
-6.64659
  0
LINE
  8
0
 10
-4.911
 20
-6.64659
 11
-4.86078
 21
-6.55525
  0
LINE
  8
0
 10
-4.86078
 20
-6.55525
 11
-4.79951
 21
-6.47093
  0
LINE
  8
0
 10
-4.79951
 20
-6.47093
 11
-4.72816
 21
-6.39494
  0
LINE
  8
0
 10
-4.72816
 20
-6.39494
 11
-4.64786
 21
-6.32851
  0
LINE
  8
0
 10
-4.64786
 20
-6.32851
 11
-4.55984
 21
-6.27266
  0
LINE
  8
0
 10
-4.55984
 20
-6.27266
 11
-4.46553
 21
-6.22827
  0
LINE
  8
0
 10
-4.46553
 20
-6.22827
 11
-4.36641
 21
-6.19608
  0
LINE
  8
0
 10
-4.36641
 20
-6.19608
 11
-4.26402
 21
-6.17654
  0
LINE
  8
0
 10
-4.26402
 20
-6.17654
 11
-4.15999
 21
-6.17
  0
LINE
  8
0
 10
-4.15999
 20
-6.17
 11
-4.05597
 21
-6.17654
  0
LINE
  8
0
 10
-4.05597
 20
-6.17654
 11
-3.95358
 21
-6.19608
  0
LINE
  8
0
 10
-3.95358
 20
-6.19608
 11
-3.85445
 21
-6.22827
  0
LINE
  8
0
 10
-3.85445
 20
-6.22827
 11
-3.76013
 21
-6.27266
  0
LINE
  8
0
 10
-3.76013
 20
-6.27266
 11
-3.67213
 21
-6.32851
  0
LINE
  8
0
 10
-3.67213
 20
-6.32851
 11
-3.59181
 21
-6.39494
  0
LINE
  8
0
 10
-3.59181
 20
-6.39494
 11
-3.52046
 21
-6.47093
  0
LINE
  8
0
 10
-3.52046
 20
-6.47093
 11
-3.4592
 21
-6.55525
  0
LINE
  8
0
 10
-3.4592
 20
-6.55525
 11
-3.40898
 21
-6.64659
  0
LINE
  8
0
 10
-3.40898
 20
-6.64659
 11
-3.37062
 21
-6.74352
  0
LINE
  8
0
 10
-3.37062
 20
-6.74352
 11
-3.3447
 21
-6.84447
  0
LINE
  8
0
 10
-3.3447
 20
-6.84447
 11
-3.33163
 21
-6.94788
  0
LINE
  8
0
 10
-3.33163
 20
-6.94788
 11
-3.33163
 21
-7.05211
  0
LINE
  8
0
 10
-3.33163
 20
-7.05211
 11
-3.3447
 21
-7.15552
  0
LINE
  8
0
 10
-3.3447
 20
-7.15552
 11
-3.37062
 21
-7.25647
  0
LINE
  8
0
 10
-3.37062
 20
-7.25647
 11
-3.40898
 21
-7.35339
  0
LINE
  8
0
 10
-3.40898
 20
-7.35339
 11
-3.4592
 21
-7.44473
  0
LINE
  8
0
 10
-3.4592
 20
-7.44473
 11
-3.52046
 21
-7.52905
  0
LINE
  8
0
 10
-3.52046
 20
-7.52905
 11
-3.59181
 21
-7.60504
  0
LINE
  8
0
 10
-3.59181
 20
-7.60504
 11
-3.67213
 21
-7.67148
  0
LINE
  8
0
 10
-3.67213
 20
-7.67148
 11
-3.76013
 21
-7.72733
  0
LINE
  8
0
 10
-3.76013
 20
-7.72733
 11
-3.85445
 21
-7.77171
  0
LINE
  8
0
 10
-3.85445
 20
-7.77171
 11
-3.95358
 21
-7.80391
  0
LINE
  8
0
 10
-3.95358
 20
-7.80391
 11
-4.05597
 21
-7.82344
  0
LINE
  8
0
 10
-4.05597
 20
-7.82344
 11
-4.15999
 21
-7.82999
  0
LINE
  8
0
 10
-4.15999
 20
-7.82999
 11
-4.26402
 21
-7.82344
  0
LINE
  8
0
 10
-13.2131
 20
-9.68658
 11
-13.4228
 21
-9.64659
  0
LINE
  8
0
 10
-13.4228
 20
-9.64659
 11
-13.6258
 21
-9.58061
  0
LINE
  8
0
 10
-13.6258
 20
-9.58061
 11
-13.819
 21
-9.48972
  0
LINE
  8
0
 10
-13.819
 20
-9.48972
 11
-13.9992
 21
-9.37532
  0
LINE
  8
0
 10
-13.9992
 20
-9.37532
 11
-14.1637
 21
-9.23924
  0
LINE
  8
0
 10
-14.1637
 20
-9.23924
 11
-14.3099
 21
-9.08362
  0
LINE
  8
0
 10
-14.3099
 20
-9.08362
 11
-14.4353
 21
-8.9109
  0
LINE
  8
0
 10
-14.4353
 20
-8.9109
 11
-14.5382
 21
-8.72382
  0
LINE
  8
0
 10
-14.5382
 20
-8.72382
 11
-14.6168
 21
-8.52531
  0
LINE
  8
0
 10
-14.6168
 20
-8.52531
 11
-14.6699
 21
-8.31854
  0
LINE
  8
0
 10
-14.6699
 20
-8.31854
 11
-14.6966
 21
-8.10674
  0
LINE
  8
0
 10
-14.6966
 20
-8.10674
 11
-14.6966
 21
-7.89325
  0
LINE
  8
0
 10
-14.6966
 20
-7.89325
 11
-14.6699
 21
-7.68144
  0
LINE
  8
0
 10
-14.6699
 20
-7.68144
 11
-14.6168
 21
-7.47467
  0
LINE
  8
0
 10
-14.6168
 20
-7.47467
 11
-14.5382
 21
-7.27617
  0
LINE
  8
0
 10
-14.5382
 20
-7.27617
 11
-14.4353
 21
-7.08908
  0
LINE
  8
0
 10
-14.4353
 20
-7.08908
 11
-14.3099
 21
-6.91637
  0
LINE
  8
0
 10
-14.3099
 20
-6.91637
 11
-14.1637
 21
-6.76074
  0
LINE
  8
0
 10
-14.1637
 20
-6.76074
 11
-13.9992
 21
-6.62466
  0
LINE
  8
0
 10
-13.9992
 20
-6.62466
 11
-13.819
 21
-6.51027
  0
LINE
  8
0
 10
-13.819
 20
-6.51027
 11
-13.6258
 21
-6.41937
  0
LINE
  8
0
 10
-13.6258
 20
-6.41937
 11
-13.4228
 21
-6.35341
  0
LINE
  8
0
 10
-13.4228
 20
-6.35341
 11
-13.2131
 21
-6.3134
  0
LINE
  8
0
 10
-13.2131
 20
-6.3134
 11
-13
 21
-6.29999
  0
LINE
  8
0
 10
-13
 20
-6.29999
 11
-12.7869
 21
-6.3134
  0
LINE
  8
0
 10
-12.7869
 20
-6.3134
 11
-12.5772
 21
-6.35341
  0
LINE
  8
0
 10
-12.5772
 20
-6.35341
 11
-12.3742
 21
-6.41937
  0
LINE
  8
0
 10
-12.3742
 20
-6.41937
 11
-12.181
 21
-6.51027
  0
LINE
  8
0
 10
-12.181
 20
-6.51027
 11
-12.0008
 21
-6.62466
  0
LINE
  8
0
 10
-12.0008
 20
-6.62466
 11
-11.8363
 21
-6.76074
  0
LINE
  8
0
 10
-11.8363
 20
-6.76074
 11
-11.6901
 21
-6.91637
  0
LINE
  8
0
 10
-11.6901
 20
-6.91637
 11
-11.5646
 21
-7.08908
  0
LINE
  8
0
 10
-11.5646
 20
-7.08908
 11
-11.4618
 21
-7.27617
  0
LINE
  8
0
 10
-11.4618
 20
-7.27617
 11
-11.3832
 21
-7.47467
  0
LINE
  8
0
 10
-11.3832
 20
-7.47467
 11
-11.3301
 21
-7.68144
  0
LINE
  8
0
 10
-11.3301
 20
-7.68144
 11
-11.3033
 21
-7.89325
  0
LINE
  8
0
 10
-11.3033
 20
-7.89325
 11
-11.3033
 21
-8.10674
  0
LINE
  8
0
 10
-11.3033
 20
-8.10674
 11
-11.3301
 21
-8.31854
  0
LINE
  8
0
 10
-11.3301
 20
-8.31854
 11
-11.3832
 21
-8.52531
  0
LINE
  8
0
 10
-11.3832
 20
-8.52531
 11
-11.4618
 21
-8.72382
  0
LINE
  8
0
 10
-11.4618
 20
-8.72382
 11
-11.5646
 21
-8.9109
  0
LINE
  8
0
 10
-11.5646
 20
-8.9109
 11
-11.6901
 21
-9.08362
  0
LINE
  8
0
 10
-11.6901
 20
-9.08362
 11
-11.8363
 21
-9.23924
  0
LINE
  8
0
 10
-11.8363
 20
-9.23924
 11
-12.0008
 21
-9.37532
  0
LINE
  8
0
 10
-12.0008
 20
-9.37532
 11
-12.181
 21
-9.48972
  0
LINE
  8
0
 10
-12.181
 20
-9.48972
 11
-12.3742
 21
-9.58061
  0
LINE
  8
0
 10
-12.3742
 20
-9.58061
 11
-12.5772
 21
-9.64659
  0
LINE
  8
0
 10
-12.5772
 20
-9.64659
 11
-12.7869
 21
-9.68658
  0
LINE
  8
0
 10
-12.7869
 20
-9.68658
 11
-13
 21
-9.7
  0
LINE
  8
0
 10
-13
 20
-9.7
 11
-13.2131
 21
-9.68658
  0
LINE
  8
0
 10
12.7869
 20
-9.68658
 11
12.5772
 21
-9.64659
  0
LINE
  8
0
 10
12.5772
 20
-9.64659
 11
12.3742
 21
-9.58061
  0
LINE
  8
0
 10
12.3742
 20
-9.58061
 11
12.181
 21
-9.48972
  0
LINE
  8
0
 10
12.181
 20
-9.48972
 11
12.0008
 21
-9.37532
  0
LINE
  8
0
 10
12.0008
 20
-9.37532
 11
11.8363
 21
-9.23924
  0
LINE
  8
0
 10
11.8363
 20
-9.23924
 11
11.6901
 21
-9.08362
  0
LINE
  8
0
 10
11.6901
 20
-9.08362
 11
11.5646
 21
-8.9109
  0
LINE
  8
0
 10
11.5646
 20
-8.9109
 11
11.4618
 21
-8.72382
  0
LINE
  8
0
 10
11.4618
 20
-8.72382
 11
11.3832
 21
-8.52531
  0
LINE
  8
0
 10
11.3832
 20
-8.52531
 11
11.3301
 21
-8.31854
  0
LINE
  8
0
 10
11.3301
 20
-8.31854
 11
11.3033
 21
-8.10674
  0
LINE
  8
0
 10
11.3033
 20
-8.10674
 11
11.3033
 21
-7.89325
  0
LINE
  8
0
 10
11.3033
 20
-7.89325
 11
11.3301
 21
-7.68144
  0
LINE
  8
0
 10
11.3301
 20
-7.68144
 11
11.3832
 21
-7.47467
  0
LINE
  8
0
 10
11.3832
 20
-7.47467
 11
11.4618
 21
-7.27617
  0
LINE
  8
0
 10
11.4618
 20
-7.27617
 11
11.5646
 21
-7.08908
  0
LINE
  8
0
 10
11.5646
 20
-7.08908
 11
11.6901
 21
-6.91637
  0
LINE
  8
0
 10
11.6901
 20
-6.91637
 11
11.8363
 21
-6.76074
  0
LINE
  8
0
 10
11.8363
 20
-6.76074
 11
12.0008
 21
-6.62466
  0
LINE
  8
0
 10
12.0008
 20
-6.62466
 11
12.181
 21
-6.51027
  0
LINE
  8
0
 10
12.181
 20
-6.51027
 11
12.3742
 21
-6.41937
  0
LINE
  8
0
 10
12.3742
 20
-6.41937
 11
12.5772
 21
-6.35341
  0
LINE
  8
0
 10
12.5772
 20
-6.35341
 11
12.7869
 21
-6.3134
  0
LINE
  8
0
 10
12.7869
 20
-6.3134
 11
13
 21
-6.29999
  0
LINE
  8
0
 10
13
 20
-6.29999
 11
13.2131
 21
-6.3134
  0
LINE
  8
0
 10
13.2131
 20
-6.3134
 11
13.4228
 21
-6.35341
  0
LINE
  8
0
 10
13.4228
 20
-6.35341
 11
13.6258
 21
-6.41937
  0
LINE
  8
0
 10
13.6258
 20
-6.41937
 11
13.819
 21
-6.51027
  0
LINE
  8
0
 10
13.819
 20
-6.51027
 11
13.9992
 21
-6.62466
  0
LINE
  8
0
 10
13.9992
 20
-6.62466
 11
14.1637
 21
-6.76074
  0
LINE
  8
0
 10
14.1637
 20
-6.76074
 11
14.3099
 21
-6.91637
  0
LINE
  8
0
 10
14.3099
 20
-6.91637
 11
14.4353
 21
-7.08908
  0
LINE
  8
0
 10
14.4353
 20
-7.08908
 11
14.5382
 21
-7.27617
  0
LINE
  8
0
 10
14.5382
 20
-7.27617
 11
14.6168
 21
-7.47467
  0
LINE
  8
0
 10
14.6168
 20
-7.47467
 11
14.6699
 21
-7.68144
  0
LINE
  8
0
 10
14.6699
 20
-7.68144
 11
14.6966
 21
-7.89325
  0
LINE
  8
0
 10
14.6966
 20
-7.89325
 11
14.6966
 21
-8.10674
  0
LINE
  8
0
 10
14.6966
 20
-8.10674
 11
14.6699
 21
-8.31854
  0
LINE
  8
0
 10
14.6699
 20
-8.31854
 11
14.6168
 21
-8.52531
  0
LINE
  8
0
 10
14.6168
 20
-8.52531
 11
14.5382
 21
-8.72382
  0
LINE
  8
0
 10
14.5382
 20
-8.72382
 11
14.4353
 21
-8.9109
  0
LINE
  8
0
 10
14.4353
 20
-8.9109
 11
14.3099
 21
-9.08362
  0
LINE
  8
0
 10
14.3099
 20
-9.08362
 11
14.1637
 21
-9.23924
  0
LINE
  8
0
 10
14.1637
 20
-9.23924
 11
13.9992
 21
-9.37532
  0
LINE
  8
0
 10
13.9992
 20
-9.37532
 11
13.819
 21
-9.48972
  0
LINE
  8
0
 10
13.819
 20
-9.48972
 11
13.6258
 21
-9.58061
  0
LINE
  8
0
 10
13.6258
 20
-9.58061
 11
13.4228
 21
-9.64659
  0
LINE
  8
0
 10
13.4228
 20
-9.64659
 11
13.2131
 21
-9.68658
  0
LINE
  8
0
 10
13.2131
 20
-9.68658
 11
13
 21
-9.7
  0
LINE
  8
0
 10
13
 20
-9.7
 11
12.7869
 21
-9.68658
  0
LINE
  8
0
 10
6.58096
 20
-18.7334
 11
6.47858
 21
-18.7139
  0
LINE
  8
0
 10
6.47858
 20
-18.7139
 11
6.37946
 21
-18.6817
  0
LINE
  8
0
 10
6.37946
 20
-18.6817
 11
6.28514
 21
-18.6373
  0
LINE
  8
0
 10
6.28514
 20
-18.6373
 11
6.19713
 21
-18.5815
  0
LINE
  8
0
 10
6.19713
 20
-18.5815
 11
6.11682
 21
-18.515
  0
LINE
  8
0
 10
6.11682
 20
-18.515
 11
6.04547
 21
-18.4391
  0
LINE
  8
0
 10
6.04547
 20
-18.4391
 11
5.98421
 21
-18.3547
  0
LINE
  8
0
 10
5.98421
 20
-18.3547
 11
5.93399
 21
-18.2634
  0
LINE
  8
0
 10
5.93399
 20
-18.2634
 11
5.89561
 21
-18.1665
  0
LINE
  8
0
 10
5.89561
 20
-18.1665
 11
5.86969
 21
-18.0655
  0
LINE
  8
0
 10
5.86969
 20
-18.0655
 11
5.85663
 21
-17.9621
  0
LINE
  8
0
 10
5.85663
 20
-17.9621
 11
5.85663
 21
-17.8579
  0
LINE
  8
0
 10
5.85663
 20
-17.8579
 11
5.86969
 21
-17.7545
  0
LINE
  8
0
 10
5.86969
 20
-17.7545
 11
5.89561
 21
-17.6535
  0
LINE
  8
0
 10
5.89561
 20
-17.6535
 11
5.93399
 21
-17.5566
  0
LINE
  8
0
 10
5.93399
 20
-17.5566
 11
5.98421
 21
-17.4653
  0
LINE
  8
0
 10
5.98421
 20
-17.4653
 11
6.04547
 21
-17.3809
  0
LINE
  8
0
 10
6.04547
 20
-17.3809
 11
6.11682
 21
-17.3049
  0
LINE
  8
0
 10
6.11682
 20
-17.3049
 11
6.19713
 21
-17.2385
  0
LINE
  8
0
 10
6.19713
 20
-17.2385
 11
6.28514
 21
-17.1827
  0
LINE
  8
0
 10
6.28514
 20
-17.1827
 11
6.37946
 21
-17.1383
  0
LINE
  8
0
 10
6.37946
 20
-17.1383
 11
6.47858
 21
-17.1061
  0
LINE
  8
0
 10
6.47858
 20
-17.1061
 11
6.58096
 21
-17.0865
  0
LINE
  8
0
 10
6.58096
 20
-17.0865
 11
6.685
 21
-17.08
  0
LINE
  8
0
 10
6.685
 20
-17.08
 11
6.78902
 21
-17.0865
  0
LINE
  8
0
 10
6.78902
 20
-17.0865
 11
6.8914
 21
-17.1061
  0
LINE
  8
0
 10
6.8914
 20
-17.1061
 11
6.99054
 21
-17.1383
  0
LINE
  8
0
 10
6.99054
 20
-17.1383
 11
7.08485
 21
-17.1827
  0
LINE
  8
0
 10
7.08485
 20
-17.1827
 11
7.17285
 21
-17.2385
  0
LINE
  8
0
 10
7.17285
 20
-17.2385
 11
7.25316
 21
-17.3049
  0
LINE
  8
0
 10
7.25316
 20
-17.3049
 11
7.32452
 21
-17.3809
  0
LINE
  8
0
 10
7.32452
 20
-17.3809
 11
7.38579
 21
-17.4653
  0
LINE
  8
0
 10
7.38579
 20
-17.4653
 11
7.436
 21
-17.5566
  0
LINE
  8
0
 10
7.436
 20
-17.5566
 11
7.47437
 21
-17.6535
  0
LINE
  8
0
 10
7.47437
 20
-17.6535
 11
7.50029
 21
-17.7545
  0
LINE
  8
0
 10
7.50029
 20
-17.7545
 11
7.51335
 21
-17.8579
  0
LINE
  8
0
 10
7.51335
 20
-17.8579
 11
7.51335
 21
-17.9621
  0
LINE
  8
0
 10
7.51335
 20
-17.9621
 11
7.50029
 21
-18.0655
  0
LINE
  8
0
 10
7.50029
 20
-18.0655
 11
7.47437
 21
-18.1665
  0
LINE
  8
0
 10
7.47437
 20
-18.1665
 11
7.436
 21
-18.2634
  0
LINE
  8
0
 10
7.436
 20
-18.2634
 11
7.38579
 21
-18.3547
  0
LINE
  8
0
 10
7.38579
 20
-18.3547
 11
7.32452
 21
-18.4391
  0
LINE
  8
0
 10
7.32452
 20
-18.4391
 11
7.25316
 21
-18.515
  0
LINE
  8
0
 10
7.25316
 20
-18.515
 11
7.17285
 21
-18.5815
  0
LINE
  8
0
 10
7.17285
 20
-18.5815
 11
7.08485
 21
-18.6373
  0
LINE
  8
0
 10
7.08485
 20
-18.6373
 11
6.99054
 21
-18.6817
  0
LINE
  8
0
 10
6.99054
 20
-18.6817
 11
6.8914
 21
-18.7139
  0
LINE
  8
0
 10
6.8914
 20
-18.7139
 11
6.78902
 21
-18.7334
  0
LINE
  8
0
 10
6.78902
 20
-18.7334
 11
6.685
 21
-18.74
  0
LINE
  8
0
 10
6.685
 20
-18.74
 11
6.58096
 21
-18.7334
  0
LINE
  8
0
 10
2.89597
 20
-21.5484
 11
2.79358
 21
-21.5289
  0
LINE
  8
0
 10
2.79358
 20
-21.5289
 11
2.69444
 21
-21.4967
  0
LINE
  8
0
 10
2.69444
 20
-21.4967
 11
2.60014
 21
-21.4523
  0
LINE
  8
0
 10
2.60014
 20
-21.4523
 11
2.51213
 21
-21.3965
  0
LINE
  8
0
 10
2.51213
 20
-21.3965
 11
2.43182
 21
-21.33
  0
LINE
  8
0
 10
2.43182
 20
-21.33
 11
2.36047
 21
-21.2541
  0
LINE
  8
0
 10
2.36047
 20
-21.2541
 11
2.29919
 21
-21.1697
  0
LINE
  8
0
 10
2.29919
 20
-21.1697
 11
2.24899
 21
-21.0784
  0
LINE
  8
0
 10
2.24899
 20
-21.0784
 11
2.21062
 21
-20.9815
  0
LINE
  8
0
 10
2.21062
 20
-20.9815
 11
2.18469
 21
-20.8805
  0
LINE
  8
0
 10
2.18469
 20
-20.8805
 11
2.17163
 21
-20.7771
  0
LINE
  8
0
 10
2.17163
 20
-20.7771
 11
2.17163
 21
-20.6729
  0
LINE
  8
0
 10
2.17163
 20
-20.6729
 11
2.18469
 21
-20.5695
  0
LINE
  8
0
 10
2.18469
 20
-20.5695
 11
2.21062
 21
-20.4685
  0
LINE
  8
0
 10
2.21062
 20
-20.4685
 11
2.24899
 21
-20.3716
  0
LINE
  8
0
 10
2.24899
 20
-20.3716
 11
2.29919
 21
-20.2803
  0
LINE
  8
0
 10
2.29919
 20
-20.2803
 11
2.36047
 21
-20.1959
  0
LINE
  8
0
 10
2.36047
 20
-20.1959
 11
2.43182
 21
-20.1199
  0
LINE
  8
0
 10
2.43182
 20
-20.1199
 11
2.51213
 21
-20.0535
  0
LINE
  8
0
 10
2.51213
 20
-20.0535
 11
2.60014
 21
-19.9977
  0
LINE
  8
0
 10
2.60014
 20
-19.9977
 11
2.69444
 21
-19.9533
  0
LINE
  8
0
 10
2.69444
 20
-19.9533
 11
2.79358
 21
-19.9211
  0
LINE
  8
0
 10
2.79358
 20
-19.9211
 11
2.89597
 21
-19.9015
  0
LINE
  8
0
 10
2.89597
 20
-19.9015
 11
3
 21
-19.895
  0
LINE
  8
0
 10
3
 20
-19.895
 11
3.10402
 21
-19.9015
  0
LINE
  8
0
 10
3.10402
 20
-19.9015
 11
3.20641
 21
-19.9211
  0
LINE
  8
0
 10
3.20641
 20
-19.9211
 11
3.30554
 21
-19.9533
  0
LINE
  8
0
 10
3.30554
 20
-19.9533
 11
3.39984
 21
-19.9977
  0
LINE
  8
0
 10
3.39984
 20
-19.9977
 11
3.48785
 21
-20.0535
  0
LINE
  8
0
 10
3.48785
 20
-20.0535
 11
3.56816
 21
-20.1199
  0
LINE
  8
0
 10
3.56816
 20
-20.1199
 11
3.63951
 21
-20.1959
  0
LINE
  8
0
 10
3.63951
 20
-20.1959
 11
3.70079
 21
-20.2803
  0
LINE
  8
0
 10
3.70079
 20
-20.2803
 11
3.75099
 21
-20.3716
  0
LINE
  8
0
 10
3.75099
 20
-20.3716
 11
3.78937
 21
-20.4685
  0
LINE
  8
0
 10
3.78937
 20
-20.4685
 11
3.81529
 21
-20.5695
  0
LINE
  8
0
 10
3.81529
 20
-20.5695
 11
3.82835
 21
-20.6729
  0
LINE
  8
0
 10
3.82835
 20
-20.6729
 11
3.82835
 21
-20.7771
  0
LINE
  8
0
 10
3.82835
 20
-20.7771
 11
3.81529
 21
-20.8805
  0
LINE
  8
0
 10
3.81529
 20
-20.8805
 11
3.78937
 21
-20.9815
  0
LINE
  8
0
 10
3.78937
 20
-20.9815
 11
3.75099
 21
-21.0784
  0
LINE
  8
0
 10
3.75099
 20
-21.0784
 11
3.70079
 21
-21.1697
  0
LINE
  8
0
 10
3.70079
 20
-21.1697
 11
3.63951
 21
-21.2541
  0
LINE
  8
0
 10
3.63951
 20
-21.2541
 11
3.56816
 21
-21.33
  0
LINE
  8
0
 10
3.56816
 20
-21.33
 11
3.48785
 21
-21.3965
  0
LINE
  8
0
 10
3.48785
 20
-21.3965
 11
3.39984
 21
-21.4523
  0
LINE
  8
0
 10
3.39984
 20
-21.4523
 11
3.30554
 21
-21.4967
  0
LINE
  8
0
 10
3.30554
 20
-21.4967
 11
3.20641
 21
-21.5289
  0
LINE
  8
0
 10
3.20641
 20
-21.5289
 11
3.10402
 21
-21.5484
  0
LINE
  8
0
 10
3.10402
 20
-21.5484
 11
3
 21
-21.555
  0
LINE
  8
0
 10
3
 20
-21.555
 11
2.89597
 21
-21.5484
  0
LINE
  8
0
 10
12.7869
 20
-23.6866
 11
12.5772
 21
-23.6466
  0
LINE
  8
0
 10
12.5772
 20
-23.6466
 11
12.3742
 21
-23.5806
  0
LINE
  8
0
 10
12.3742
 20
-23.5806
 11
12.181
 21
-23.4897
  0
LINE
  8
0
 10
12.181
 20
-23.4897
 11
12.0008
 21
-23.3753
  0
LINE
  8
0
 10
12.0008
 20
-23.3753
 11
11.8363
 21
-23.2392
  0
LINE
  8
0
 10
11.8363
 20
-23.2392
 11
11.6901
 21
-23.0836
  0
LINE
  8
0
 10
11.6901
 20
-23.0836
 11
11.5646
 21
-22.9109
  0
LINE
  8
0
 10
11.5646
 20
-22.9109
 11
11.4618
 21
-22.7238
  0
LINE
  8
0
 10
11.4618
 20
-22.7238
 11
11.3832
 21
-22.5253
  0
LINE
  8
0
 10
11.3832
 20
-22.5253
 11
11.3301
 21
-22.3185
  0
LINE
  8
0
 10
11.3301
 20
-22.3185
 11
11.3033
 21
-22.1067
  0
LINE
  8
0
 10
11.3033
 20
-22.1067
 11
11.3033
 21
-21.8932
  0
LINE
  8
0
 10
11.3033
 20
-21.8932
 11
11.3301
 21
-21.6814
  0
LINE
  8
0
 10
11.3301
 20
-21.6814
 11
11.3832
 21
-21.4747
  0
LINE
  8
0
 10
11.3832
 20
-21.4747
 11
11.4618
 21
-21.2762
  0
LINE
  8
0
 10
11.4618
 20
-21.2762
 11
11.5646
 21
-21.0891
  0
LINE
  8
0
 10
11.5646
 20
-21.0891
 11
11.6901
 21
-20.9164
  0
LINE
  8
0
 10
11.6901
 20
-20.9164
 11
11.8363
 21
-20.7607
  0
LINE
  8
0
 10
11.8363
 20
-20.7607
 11
12.0008
 21
-20.6247
  0
LINE
  8
0
 10
12.0008
 20
-20.6247
 11
12.181
 21
-20.5103
  0
LINE
  8
0
 10
12.181
 20
-20.5103
 11
12.3742
 21
-20.4194
  0
LINE
  8
0
 10
12.3742
 20
-20.4194
 11
12.5772
 21
-20.3534
  0
LINE
  8
0
 10
12.5772
 20
-20.3534
 11
12.7869
 21
-20.3134
  0
LINE
  8
0
 10
12.7869
 20
-20.3134
 11
13
 21
-20.3
  0
LINE
  8
0
 10
13
 20
-20.3
 11
13.2131
 21
-20.3134
  0
LINE
  8
0
 10
13.2131
 20
-20.3134
 11
13.4228
 21
-20.3534
  0
LINE
  8
0
 10
13.4228
 20
-20.3534
 11
13.6258
 21
-20.4194
  0
LINE
  8
0
 10
13.6258
 20
-20.4194
 11
13.819
 21
-20.5103
  0
LINE
  8
0
 10
13.819
 20
-20.5103
 11
13.9992
 21
-20.6247
  0
LINE
  8
0
 10
13.9992
 20
-20.6247
 11
14.1637
 21
-20.7607
  0
LINE
  8
0
 10
14.1637
 20
-20.7607
 11
14.3099
 21
-20.9164
  0
LINE
  8
0
 10
14.3099
 20
-20.9164
 11
14.4353
 21
-21.0891
  0
LINE
  8
0
 10
14.4353
 20
-21.0891
 11
14.5382
 21
-21.2762
  0
LINE
  8
0
 10
14.5382
 20
-21.2762
 11
14.6168
 21
-21.4747
  0
LINE
  8
0
 10
14.6168
 20
-21.4747
 11
14.6699
 21
-21.6814
  0
LINE
  8
0
 10
14.6699
 20
-21.6814
 11
14.6966
 21
-21.8932
  0
LINE
  8
0
 10
14.6966
 20
-21.8932
 11
14.6966
 21
-22.1067
  0
LINE
  8
0
 10
14.6966
 20
-22.1067
 11
14.6699
 21
-22.3185
  0
LINE
  8
0
 10
14.6699
 20
-22.3185
 11
14.6168
 21
-22.5253
  0
LINE
  8
0
 10
14.6168
 20
-22.5253
 11
14.5382
 21
-22.7238
  0
LINE
  8
0
 10
14.5382
 20
-22.7238
 11
14.4353
 21
-22.9109
  0
LINE
  8
0
 10
14.4353
 20
-22.9109
 11
14.3099
 21
-23.0836
  0
LINE
  8
0
 10
14.3099
 20
-23.0836
 11
14.1637
 21
-23.2392
  0
LINE
  8
0
 10
14.1637
 20
-23.2392
 11
13.9992
 21
-23.3753
  0
LINE
  8
0
 10
13.9992
 20
-23.3753
 11
13.819
 21
-23.4897
  0
LINE
  8
0
 10
13.819
 20
-23.4897
 11
13.6258
 21
-23.5806
  0
LINE
  8
0
 10
13.6258
 20
-23.5806
 11
13.4228
 21
-23.6466
  0
LINE
  8
0
 10
13.4228
 20
-23.6466
 11
13.2131
 21
-23.6866
  0
LINE
  8
0
 10
13.2131
 20
-23.6866
 11
13
 21
-23.7
  0
LINE
  8
0
 10
13
 20
-23.7
 11
12.7869
 21
-23.6866
  0
LINE
  8
0
 10
-13.2131
 20
-23.6866
 11
-13.4228
 21
-23.6466
  0
LINE
  8
0
 10
-13.4228
 20
-23.6466
 11
-13.6258
 21
-23.5806
  0
LINE
  8
0
 10
-13.6258
 20
-23.5806
 11
-13.819
 21
-23.4897
  0
LINE
  8
0
 10
-13.819
 20
-23.4897
 11
-13.9992
 21
-23.3753
  0
LINE
  8
0
 10
-13.9992
 20
-23.3753
 11
-14.1637
 21
-23.2392
  0
LINE
  8
0
 10
-14.1637
 20
-23.2392
 11
-14.3099
 21
-23.0836
  0
LINE
  8
0
 10
-14.3099
 20
-23.0836
 11
-14.4353
 21
-22.9109
  0
LINE
  8
0
 10
-14.4353
 20
-22.9109
 11
-14.5382
 21
-22.7238
  0
LINE
  8
0
 10
-14.5382
 20
-22.7238
 11
-14.6168
 21
-22.5253
  0
LINE
  8
0
 10
-14.6168
 20
-22.5253
 11
-14.6699
 21
-22.3185
  0
LINE
  8
0
 10
-14.6699
 20
-22.3185
 11
-14.6966
 21
-22.1067
  0
LINE
  8
0
 10
-14.6966
 20
-22.1067
 11
-14.6966
 21
-21.8932
  0
LINE
  8
0
 10
-14.6966
 20
-21.8932
 11
-14.6699
 21
-21.6814
  0
LINE
  8
0
 10
-14.6699
 20
-21.6814
 11
-14.6168
 21
-21.4747
  0
LINE
  8
0
 10
-14.6168
 20
-21.4747
 11
-14.5382
 21
-21.2762
  0
LINE
  8
0
 10
-14.5382
 20
-21.2762
 11
-14.4353
 21
-21.0891
  0
LINE
  8
0
 10
-14.4353
 20
-21.0891
 11
-14.3099
 21
-20.9164
  0
LINE
  8
0
 10
-14.3099
 20
-20.9164
 11
-14.1637
 21
-20.7607
  0
LINE
  8
0
 10
-14.1637
 20
-20.7607
 11
-13.9992
 21
-20.6247
  0
LINE
  8
0
 10
-13.9992
 20
-20.6247
 11
-13.819
 21
-20.5103
  0
LINE
  8
0
 10
-13.819
 20
-20.5103
 11
-13.6258
 21
-20.4194
  0
LINE
  8
0
 10
-13.6258
 20
-20.4194
 11
-13.4228
 21
-20.3534
  0
LINE
  8
0
 10
-13.4228
 20
-20.3534
 11
-13.2131
 21
-20.3134
  0
LINE
  8
0
 10
-13.2131
 20
-20.3134
 11
-13
 21
-20.3
  0
LINE
  8
0
 10
-13
 20
-20.3
 11
-12.7869
 21
-20.3134
  0
LINE
  8
0
 10
-12.7869
 20
-20.3134
 11
-12.5772
 21
-20.3534
  0
LINE
  8
0
 10
-12.5772
 20
-20.3534
 11
-12.3742
 21
-20.4194
  0
LINE
  8
0
 10
-12.3742
 20
-20.4194
 11
-12.181
 21
-20.5103
  0
LINE
  8
0
 10
-12.181
 20
-20.5103
 11
-12.0008
 21
-20.6247
  0
LINE
  8
0
 10
-12.0008
 20
-20.6247
 11
-11.8363
 21
-20.7607
  0
LINE
  8
0
 10
-11.8363
 20
-20.7607
 11
-11.6901
 21
-20.9164
  0
LINE
  8
0
 10
-11.6901
 20
-20.9164
 11
-11.5646
 21
-21.0891
  0
LINE
  8
0
 10
-11.5646
 20
-21.0891
 11
-11.4618
 21
-21.2762
  0
LINE
  8
0
 10
-11.4618
 20
-21.2762
 11
-11.3832
 21
-21.4747
  0
LINE
  8
0
 10
-11.3832
 20
-21.4747
 11
-11.3301
 21
-21.6814
  0
LINE
  8
0
 10
-11.3301
 20
-21.6814
 11
-11.3033
 21
-21.8932
  0
LINE
  8
0
 10
-11.3033
 20
-21.8932
 11
-11.3033
 21
-22.1067
  0
LINE
  8
0
 10
-11.3033
 20
-22.1067
 11
-11.3301
 21
-22.3185
  0
LINE
  8
0
 10
-11.3301
 20
-22.3185
 11
-11.3832
 21
-22.5253
  0
LINE
  8
0
 10
-11.3832
 20
-22.5253
 11
-11.4618
 21
-22.7238
  0
LINE
  8
0
 10
-11.4618
 20
-22.7238
 11
-11.5646
 21
-22.9109
  0
LINE
  8
0
 10
-11.5646
 20
-22.9109
 11
-11.6901
 21
-23.0836
  0
LINE
  8
0
 10
-11.6901
 20
-23.0836
 11
-11.8363
 21
-23.2392
  0
LINE
  8
0
 10
-11.8363
 20
-23.2392
 11
-12.0008
 21
-23.3753
  0
LINE
  8
0
 10
-12.0008
 20
-23.3753
 11
-12.181
 21
-23.4897
  0
LINE
  8
0
 10
-12.181
 20
-23.4897
 11
-12.3742
 21
-23.5806
  0
LINE
  8
0
 10
-12.3742
 20
-23.5806
 11
-12.5772
 21
-23.6466
  0
LINE
  8
0
 10
-12.5772
 20
-23.6466
 11
-12.7869
 21
-23.6866
  0
LINE
  8
0
 10
-12.7869
 20
-23.6866
 11
-13
 21
-23.7
  0
LINE
  8
0
 10
-13
 20
-23.7
 11
-13.2131
 21
-23.6866
  0
LINE
  8
0
 10
4.84596
 20
-23.9234
 11
4.74358
 21
-23.9039
  0
LINE
  8
0
 10
4.74358
 20
-23.9039
 11
4.64445
 21
-23.8717
  0
LINE
  8
0
 10
4.64445
 20
-23.8717
 11
4.55014
 21
-23.8273
  0
LINE
  8
0
 10
4.55014
 20
-23.8273
 11
4.46213
 21
-23.7715
  0
LINE
  8
0
 10
4.46213
 20
-23.7715
 11
4.38182
 21
-23.705
  0
LINE
  8
0
 10
4.38182
 20
-23.705
 11
4.31047
 21
-23.6291
  0
LINE
  8
0
 10
4.31047
 20
-23.6291
 11
4.24921
 21
-23.5447
  0
LINE
  8
0
 10
4.24921
 20
-23.5447
 11
4.19899
 21
-23.4534
  0
LINE
  8
0
 10
4.19899
 20
-23.4534
 11
4.16061
 21
-23.3565
  0
LINE
  8
0
 10
4.16061
 20
-23.3565
 11
4.13469
 21
-23.2555
  0
LINE
  8
0
 10
4.13469
 20
-23.2555
 11
4.12163
 21
-23.1521
  0
LINE
  8
0
 10
4.12163
 20
-23.1521
 11
4.12163
 21
-23.0479
  0
LINE
  8
0
 10
4.12163
 20
-23.0479
 11
4.13469
 21
-22.9445
  0
LINE
  8
0
 10
4.13469
 20
-22.9445
 11
4.16061
 21
-22.8435
  0
LINE
  8
0
 10
4.16061
 20
-22.8435
 11
4.19899
 21
-22.7466
  0
LINE
  8
0
 10
4.19899
 20
-22.7466
 11
4.24921
 21
-22.6553
  0
LINE
  8
0
 10
4.24921
 20
-22.6553
 11
4.31047
 21
-22.5709
  0
LINE
  8
0
 10
4.31047
 20
-22.5709
 11
4.38182
 21
-22.4949
  0
LINE
  8
0
 10
4.38182
 20
-22.4949
 11
4.46213
 21
-22.4285
  0
LINE
  8
0
 10
4.46213
 20
-22.4285
 11
4.55014
 21
-22.3727
  0
LINE
  8
0
 10
4.55014
 20
-22.3727
 11
4.64445
 21
-22.3283
  0
LINE
  8
0
 10
4.64445
 20
-22.3283
 11
4.74358
 21
-22.2961
  0
LINE
  8
0
 10
4.74358
 20
-22.2961
 11
4.84596
 21
-22.2765
  0
LINE
  8
0
 10
4.84596
 20
-22.2765
 11
4.95
 21
-22.27
  0
LINE
  8
0
 10
4.95
 20
-22.27
 11
5.05402
 21
-22.2765
  0
LINE
  8
0
 10
5.05402
 20
-22.2765
 11
5.1564
 21
-22.2961
  0
LINE
  8
0
 10
5.1564
 20
-22.2961
 11
5.25554
 21
-22.3283
  0
LINE
  8
0
 10
5.25554
 20
-22.3283
 11
5.34985
 21
-22.3727
  0
LINE
  8
0
 10
5.34985
 20
-22.3727
 11
5.43785
 21
-22.4285
  0
LINE
  8
0
 10
5.43785
 20
-22.4285
 11
5.51817
 21
-22.4949
  0
LINE
  8
0
 10
5.51817
 20
-22.4949
 11
5.58952
 21
-22.5709
  0
LINE
  8
0
 10
5.58952
 20
-22.5709
 11
5.65079
 21
-22.6553
  0
LINE
  8
0
 10
5.65079
 20
-22.6553
 11
5.701
 21
-22.7466
  0
LINE
  8
0
 10
5.701
 20
-22.7466
 11
5.73936
 21
-22.8435
  0
LINE
  8
0
 10
5.73936
 20
-22.8435
 11
5.76529
 21
-22.9445
  0
LINE
  8
0
 10
5.76529
 20
-22.9445
 11
5.77835
 21
-23.0479
  0
LINE
  8
0
 10
5.77835
 20
-23.0479
 11
5.77835
 21
-23.1521
  0
LINE
  8
0
 10
5.77835
 20
-23.1521
 11
5.76529
 21
-23.2555
  0
LINE
  8
0
 10
5.76529
 20
-23.2555
 11
5.73936
 21
-23.3565
  0
LINE
  8
0
 10
5.73936
 20
-23.3565
 11
5.701
 21
-23.4534
  0
LINE
  8
0
 10
5.701
 20
-23.4534
 11
5.65079
 21
-23.5447
  0
LINE
  8
0
 10
5.65079
 20
-23.5447
 11
5.58952
 21
-23.6291
  0
LINE
  8
0
 10
5.58952
 20
-23.6291
 11
5.51817
 21
-23.705
  0
LINE
  8
0
 10
5.51817
 20
-23.705
 11
5.43785
 21
-23.7715
  0
LINE
  8
0
 10
5.43785
 20
-23.7715
 11
5.34985
 21
-23.8273
  0
LINE
  8
0
 10
5.34985
 20
-23.8273
 11
5.25554
 21
-23.8717
  0
LINE
  8
0
 10
5.25554
 20
-23.8717
 11
5.1564
 21
-23.9039
  0
LINE
  8
0
 10
5.1564
 20
-23.9039
 11
5.05402
 21
-23.9234
  0
LINE
  8
0
 10
5.05402
 20
-23.9234
 11
4.95
 21
-23.93
  0
LINE
  8
0
 10
4.95
 20
-23.93
 11
4.84596
 21
-23.9234
  0
LINE
  8
0
 10
-0.785019
 20
-23.9234
 11
-0.887405
 21
-23.9039
  0
LINE
  8
0
 10
-0.887405
 20
-23.9039
 11
-0.986542
 21
-23.8717
  0
LINE
  8
0
 10
-0.986542
 20
-23.8717
 11
-1.08084
 21
-23.8273
  0
LINE
  8
0
 10
-1.08084
 20
-23.8273
 11
-1.16885
 21
-23.7715
  0
LINE
  8
0
 10
-1.16885
 20
-23.7715
 11
-1.24916
 21
-23.705
  0
LINE
  8
0
 10
-1.24916
 20
-23.705
 11
-1.32051
 21
-23.6291
  0
LINE
  8
0
 10
-1.32051
 20
-23.6291
 11
-1.38179
 21
-23.5447
  0
LINE
  8
0
 10
-1.38179
 20
-23.5447
 11
-1.43199
 21
-23.4534
  0
LINE
  8
0
 10
-1.43199
 20
-23.4534
 11
-1.47037
 21
-23.3565
  0
LINE
  8
0
 10
-1.47037
 20
-23.3565
 11
-1.49629
 21
-23.2555
  0
LINE
  8
0
 10
-1.49629
 20
-23.2555
 11
-1.50935
 21
-23.1521
  0
LINE
  8
0
 10
-1.50935
 20
-23.1521
 11
-1.50935
 21
-23.0479
  0
LINE
  8
0
 10
-1.50935
 20
-23.0479
 11
-1.49629
 21
-22.9445
  0
LINE
  8
0
 10
-1.49629
 20
-22.9445
 11
-1.47037
 21
-22.8435
  0
LINE
  8
0
 10
-1.47037
 20
-22.8435
 11
-1.43199
 21
-22.7466
  0
LINE
  8
0
 10
-1.43199
 20
-22.7466
 11
-1.38179
 21
-22.6553
  0
LINE
  8
0
 10
-1.38179
 20
-22.6553
 11
-1.32051
 21
-22.5709
  0
LINE
  8
0
 10
-1.32051
 20
-22.5709
 11
-1.24916
 21
-22.4949
  0
LINE
  8
0
 10
-1.24916
 20
-22.4949
 11
-1.16885
 21
-22.4285
  0
LINE
  8
0
 10
-1.16885
 20
-22.4285
 11
-1.08084
 21
-22.3727
  0
LINE
  8
0
 10
-1.08084
 20
-22.3727
 11
-0.986542
 21
-22.3283
  0
LINE
  8
0
 10
-0.986542
 20
-22.3283
 11
-0.887405
 21
-22.2961
  0
LINE
  8
0
 10
-0.887405
 20
-22.2961
 11
-0.785019
 21
-22.2765
  0
LINE
  8
0
 10
-0.785019
 20
-22.2765
 11
-0.681
 21
-22.27
  0
LINE
  8
0
 10
-0.681
 20
-22.27
 11
-0.576965
 21
-22.2765
  0
LINE
  8
0
 10
-0.576965
 20
-22.2765
 11
-0.474579
 21
-22.2961
  0
LINE
  8
0
 10
-0.474579
 20
-22.2961
 11
-0.375443
 21
-22.3283
  0
LINE
  8
0
 10
-0.375443
 20
-22.3283
 11
-0.281143
 21
-22.3727
  0
LINE
  8
0
 10
-0.281143
 20
-22.3727
 11
-0.19313
 21
-22.4285
  0
LINE
  8
0
 10
-0.19313
 20
-22.4285
 11
-0.112823
 21
-22.4949
  0
LINE
  8
0
 10
-0.112823
 20
-22.4949
 11
-0.0414734
 21
-22.5709
  0
LINE
  8
0
 10
-0.0414734
 20
-22.5709
 11
0.0197906
 21
-22.6553
  0
LINE
  8
0
 10
0.0197906
 20
-22.6553
 11
0.0699921
 21
-22.7466
  0
LINE
  8
0
 10
0.0699921
 20
-22.7466
 11
0.108368
 21
-22.8435
  0
LINE
  8
0
 10
0.108368
 20
-22.8435
 11
0.134293
 21
-22.9445
  0
LINE
  8
0
 10
0.134293
 20
-22.9445
 11
0.147354
 21
-23.0479
  0
LINE
  8
0
 10
0.147354
 20
-23.0479
 11
0.147354
 21
-23.1521
  0
LINE
  8
0
 10
0.147354
 20
-23.1521
 11
0.134293
 21
-23.2555
  0
LINE
  8
0
 10
0.134293
 20
-23.2555
 11
0.108368
 21
-23.3565
  0
LINE
  8
0
 10
0.108368
 20
-23.3565
 11
0.0699921
 21
-23.4534
  0
LINE
  8
0
 10
0.0699921
 20
-23.4534
 11
0.0197906
 21
-23.5447
  0
LINE
  8
0
 10
0.0197906
 20
-23.5447
 11
-0.0414734
 21
-23.6291
  0
LINE
  8
0
 10
-0.0414734
 20
-23.6291
 11
-0.112823
 21
-23.705
  0
LINE
  8
0
 10
-0.112823
 20
-23.705
 11
-0.19313
 21
-23.7715
  0
LINE
  8
0
 10
-0.19313
 20
-23.7715
 11
-0.281143
 21
-23.8273
  0
LINE
  8
0
 10
-0.281143
 20
-23.8273
 11
-0.375443
 21
-23.8717
  0
LINE
  8
0
 10
-0.375443
 20
-23.8717
 11
-0.474579
 21
-23.9039
  0
LINE
  8
0
 10
-0.474579
 20
-23.9039
 11
-0.576965
 21
-23.9234
  0
LINE
  8
0
 10
-0.576965
 20
-23.9234
 11
-0.681
 21
-23.93
  0
LINE
  8
0
 10
-0.681
 20
-23.93
 11
-0.785019
 21
-23.9234
  0
LINE
  8
0
 10
1.56596
 20
-23.9234
 11
1.46358
 21
-23.9039
  0
LINE
  8
0
 10
1.46358
 20
-23.9039
 11
1.36446
 21
-23.8717
  0
LINE
  8
0
 10
1.36446
 20
-23.8717
 11
1.27014
 21
-23.8273
  0
LINE
  8
0
 10
1.27014
 20
-23.8273
 11
1.18213
 21
-23.7715
  0
LINE
  8
0
 10
1.18213
 20
-23.7715
 11
1.10182
 21
-23.705
  0
LINE
  8
0
 10
1.10182
 20
-23.705
 11
1.03047
 21
-23.6291
  0
LINE
  8
0
 10
1.03047
 20
-23.6291
 11
0.969208
 21
-23.5447
  0
LINE
  8
0
 10
0.969208
 20
-23.5447
 11
0.918991
 21
-23.4534
  0
LINE
  8
0
 10
0.918991
 20
-23.4534
 11
0.880615
 21
-23.3565
  0
LINE
  8
0
 10
0.880615
 20
-23.3565
 11
0.854691
 21
-23.2555
  0
LINE
  8
0
 10
0.854691
 20
-23.2555
 11
0.841629
 21
-23.1521
  0
LINE
  8
0
 10
0.841629
 20
-23.1521
 11
0.841629
 21
-23.0479
  0
LINE
  8
0
 10
0.841629
 20
-23.0479
 11
0.854691
 21
-22.9445
  0
LINE
  8
0
 10
0.854691
 20
-22.9445
 11
0.880615
 21
-22.8435
  0
LINE
  8
0
 10
0.880615
 20
-22.8435
 11
0.918991
 21
-22.7466
  0
LINE
  8
0
 10
0.918991
 20
-22.7466
 11
0.969208
 21
-22.6553
  0
LINE
  8
0
 10
0.969208
 20
-22.6553
 11
1.03047
 21
-22.5709
  0
LINE
  8
0
 10
1.03047
 20
-22.5709
 11
1.10182
 21
-22.4949
  0
LINE
  8
0
 10
1.10182
 20
-22.4949
 11
1.18213
 21
-22.4285
  0
LINE
  8
0
 10
1.18213
 20
-22.4285
 11
1.27014
 21
-22.3727
  0
LINE
  8
0
 10
1.27014
 20
-22.3727
 11
1.36446
 21
-22.3283
  0
LINE
  8
0
 10
1.36446
 20
-22.3283
 11
1.46358
 21
-22.2961
  0
LINE
  8
0
 10
1.46358
 20
-22.2961
 11
1.56596
 21
-22.2765
  0
LINE
  8
0
 10
1.56596
 20
-22.2765
 11
1.67
 21
-22.27
  0
LINE
  8
0
 10
1.67
 20
-22.27
 11
1.77402
 21
-22.2765
  0
LINE
  8
0
 10
1.77402
 20
-22.2765
 11
1.8764
 21
-22.2961
  0
LINE
  8
0
 10
1.8764
 20
-22.2961
 11
1.97554
 21
-22.3283
  0
LINE
  8
0
 10
1.97554
 20
-22.3283
 11
2.06985
 21
-22.3727
  0
LINE
  8
0
 10
2.06985
 20
-22.3727
 11
2.15785
 21
-22.4285
  0
LINE
  8
0
 10
2.15785
 20
-22.4285
 11
2.23816
 21
-22.4949
  0
LINE
  8
0
 10
2.23816
 20
-22.4949
 11
2.30952
 21
-22.5709
  0
LINE
  8
0
 10
2.30952
 20
-22.5709
 11
2.37079
 21
-22.6553
  0
LINE
  8
0
 10
2.37079
 20
-22.6553
 11
2.42101
 21
-22.7466
  0
LINE
  8
0
 10
2.42101
 20
-22.7466
 11
2.45937
 21
-22.8435
  0
LINE
  8
0
 10
2.45937
 20
-22.8435
 11
2.48529
 21
-22.9445
  0
LINE
  8
0
 10
2.48529
 20
-22.9445
 11
2.49835
 21
-23.0479
  0
LINE
  8
0
 10
2.49835
 20
-23.0479
 11
2.49835
 21
-23.1521
  0
LINE
  8
0
 10
2.49835
 20
-23.1521
 11
2.48529
 21
-23.2555
  0
LINE
  8
0
 10
2.48529
 20
-23.2555
 11
2.45937
 21
-23.3565
  0
LINE
  8
0
 10
2.45937
 20
-23.3565
 11
2.42101
 21
-23.4534
  0
LINE
  8
0
 10
2.42101
 20
-23.4534
 11
2.37079
 21
-23.5447
  0
LINE
  8
0
 10
2.37079
 20
-23.5447
 11
2.30952
 21
-23.6291
  0
LINE
  8
0
 10
2.30952
 20
-23.6291
 11
2.23816
 21
-23.705
  0
LINE
  8
0
 10
2.23816
 20
-23.705
 11
2.15785
 21
-23.7715
  0
LINE
  8
0
 10
2.15785
 20
-23.7715
 11
2.06985
 21
-23.8273
  0
LINE
  8
0
 10
2.06985
 20
-23.8273
 11
1.97554
 21
-23.8717
  0
LINE
  8
0
 10
1.97554
 20
-23.8717
 11
1.8764
 21
-23.9039
  0
LINE
  8
0
 10
1.8764
 20
-23.9039
 11
1.77402
 21
-23.9234
  0
LINE
  8
0
 10
1.77402
 20
-23.9234
 11
1.67
 21
-23.93
  0
LINE
  8
0
 10
1.67
 20
-23.93
 11
1.56596
 21
-23.9234
  0
LINE
  8
0
 10
-0.868988
 20
-6.64659
 11
-0.830612
 21
-6.74352
  0
LINE
  8
0
 10
-0.830612
 20
-6.74352
 11
-0.804688
 21
-6.84447
  0
LINE
  8
0
 10
-0.804688
 20
-6.84447
 11
-0.791626
 21
-6.94788
  0
LINE
  8
0
 10
-0.791626
 20
-6.94788
 11
-0.791626
 21
-7.05211
  0
LINE
  8
0
 10
-0.791626
 20
-7.05211
 11
-0.804688
 21
-7.15552
  0
LINE
  8
0
 10
-0.804688
 20
-7.15552
 11
-0.830612
 21
-7.25647
  0
LINE
  8
0
 10
-0.830612
 20
-7.25647
 11
-0.868988
 21
-7.35339
  0
LINE
  8
0
 10
-0.868988
 20
-7.35339
 11
-0.919205
 21
-7.44473
  0
LINE
  8
0
 10
-0.919205
 20
-7.44473
 11
-0.980469
 21
-7.52905
  0
LINE
  8
0
 10
-0.980469
 20
-7.52905
 11
-1.05182
 21
-7.60504
  0
LINE
  8
0
 10
-1.05182
 20
-7.60504
 11
-1.13213
 21
-7.67148
  0
LINE
  8
0
 10
-1.13213
 20
-7.67148
 11
-1.22014
 21
-7.72733
  0
LINE
  8
0
 10
-1.22014
 20
-7.72733
 11
-1.31445
 21
-7.77171
  0
LINE
  8
0
 10
-1.31445
 20
-7.77171
 11
-1.41357
 21
-7.80391
  0
LINE
  8
0
 10
-1.41357
 20
-7.80391
 11
-1.51596
 21
-7.82344
  0
LINE
  8
0
 10
-1.51596
 20
-7.82344
 11
-1.62
 21
-7.82999
  0
LINE
  8
0
 10
-1.62
 20
-7.82999
 11
-1.72401
 21
-7.82344
  0
LINE
  8
0
 10
-1.72401
 20
-7.82344
 11
-1.8264
 21
-7.80391
  0
LINE
  8
0
 10
-1.8264
 20
-7.80391
 11
-1.92554
 21
-7.77171
  0
LINE
  8
0
 10
-1.92554
 20
-7.77171
 11
-2.01985
 21
-7.72733
  0
LINE
  8
0
 10
-2.01985
 20
-7.72733
 11
-2.10785
 21
-7.67148
  0
LINE
  8
0
 10
-2.10785
 20
-7.67148
 11
-2.18817
 21
-7.60504
  0
LINE
  8
0
 10
-2.18817
 20
-7.60504
 11
-2.25952
 21
-7.52905
  0
LINE
  8
0
 10
-2.25952
 20
-7.52905
 11
-2.32079
 21
-7.44473
  0
LINE
  8
0
 10
-2.32079
 20
-7.44473
 11
-2.371
 21
-7.35339
  0
LINE
  8
0
 10
-2.371
 20
-7.35339
 11
-2.40936
 21
-7.25647
  0
LINE
  8
0
 10
-2.40936
 20
-7.25647
 11
-2.43529
 21
-7.15552
  0
LINE
  8
0
 10
-2.43529
 20
-7.15552
 11
-2.44835
 21
-7.05211
  0
LINE
  8
0
 10
-2.44835
 20
-7.05211
 11
-2.44835
 21
-6.94788
  0
LINE
  8
0
 10
-2.44835
 20
-6.94788
 11
-2.43529
 21
-6.84447
  0
LINE
  8
0
 10
-2.43529
 20
-6.84447
 11
-2.40936
 21
-6.74352
  0
LINE
  8
0
 10
-2.40936
 20
-6.74352
 11
-2.371
 21
-6.64659
  0
LINE
  8
0
 10
-2.371
 20
-6.64659
 11
-2.32079
 21
-6.55525
  0
LINE
  8
0
 10
-2.32079
 20
-6.55525
 11
-2.25952
 21
-6.47093
  0
LINE
  8
0
 10
-2.25952
 20
-6.47093
 11
-2.18817
 21
-6.39494
  0
LINE
  8
0
 10
-2.18817
 20
-6.39494
 11
-2.10785
 21
-6.32851
  0
LINE
  8
0
 10
-2.10785
 20
-6.32851
 11
-2.01985
 21
-6.27266
  0
LINE
  8
0
 10
-2.01985
 20
-6.27266
 11
-1.92554
 21
-6.22827
  0
LINE
  8
0
 10
-1.92554
 20
-6.22827
 11
-1.8264
 21
-6.19608
  0
LINE
  8
0
 10
-1.8264
 20
-6.19608
 11
-1.72401
 21
-6.17654
  0
LINE
  8
0
 10
-1.72401
 20
-6.17654
 11
-1.62
 21
-6.17
  0
LINE
  8
0
 10
-1.62
 20
-6.17
 11
-1.51596
 21
-6.17654
  0
LINE
  8
0
 10
-1.51596
 20
-6.17654
 11
-1.41357
 21
-6.19608
  0
LINE
  8
0
 10
-1.41357
 20
-6.19608
 11
-1.31445
 21
-6.22827
  0
LINE
  8
0
 10
-1.31445
 20
-6.22827
 11
-1.22014
 21
-6.27266
  0
LINE
  8
0
 10
-1.22014
 20
-6.27266
 11
-1.13213
 21
-6.32851
  0
LINE
  8
0
 10
-1.13213
 20
-6.32851
 11
-1.05182
 21
-6.39494
  0
LINE
  8
0
 10
-1.05182
 20
-6.39494
 11
-0.980469
 21
-6.47093
  0
LINE
  8
0
 10
-0.980469
 20
-6.47093
 11
-0.919205
 21
-6.55525
  0
LINE
  8
0
 10
-0.919205
 20
-6.55525
 11
-0.868988
 21
-6.64659
  0
LINE
  8
0
 10
0.130615
 20
-6.74352
 11
0.168991
 21
-6.64659
  0
LINE
  8
0
 10
0.168991
 20
-6.64659
 11
0.219208
 21
-6.55525
  0
LINE
  8
0
 10
0.219208
 20
-6.55525
 11
0.280472
 21
-6.47093
  0
LINE
  8
0
 10
0.280472
 20
-6.47093
 11
0.351822
 21
-6.39494
  0
LINE
  8
0
 10
0.351822
 20
-6.39494
 11
0.432129
 21
-6.32851
  0
LINE
  8
0
 10
0.432129
 20
-6.32851
 11
0.520142
 21
-6.27266
  0
LINE
  8
0
 10
0.520142
 20
-6.27266
 11
0.614456
 21
-6.22827
  0
LINE
  8
0
 10
0.614456
 20
-6.22827
 11
0.713577
 21
-6.19608
  0
LINE
  8
0
 10
0.713577
 20
-6.19608
 11
0.815964
 21
-6.17654
  0
LINE
  8
0
 10
0.815964
 20
-6.17654
 11
0.919998
 21
-6.17
  0
LINE
  8
0
 10
0.919998
 20
-6.17
 11
1.02402
 21
-6.17654
  0
LINE
  8
0
 10
1.02402
 20
-6.17654
 11
1.1264
 21
-6.19608
  0
LINE
  8
0
 10
1.1264
 20
-6.19608
 11
1.22554
 21
-6.22827
  0
LINE
  8
0
 10
1.22554
 20
-6.22827
 11
1.31984
 21
-6.27266
  0
LINE
  8
0
 10
1.31984
 20
-6.27266
 11
1.40785
 21
-6.32851
  0
LINE
  8
0
 10
1.40785
 20
-6.32851
 11
1.48816
 21
-6.39494
  0
LINE
  8
0
 10
1.48816
 20
-6.39494
 11
1.55952
 21
-6.47093
  0
LINE
  8
0
 10
1.55952
 20
-6.47093
 11
1.62079
 21
-6.55525
  0
LINE
  8
0
 10
1.62079
 20
-6.55525
 11
1.67101
 21
-6.64659
  0
LINE
  8
0
 10
1.67101
 20
-6.64659
 11
1.70937
 21
-6.74352
  0
LINE
  8
0
 10
1.70937
 20
-6.74352
 11
1.73529
 21
-6.84447
  0
LINE
  8
0
 10
1.73529
 20
-6.84447
 11
1.74835
 21
-6.94788
  0
LINE
  8
0
 10
1.74835
 20
-6.94788
 11
1.74835
 21
-7.05211
  0
LINE
  8
0
 10
1.74835
 20
-7.05211
 11
1.73529
 21
-7.15552
  0
LINE
  8
0
 10
1.73529
 20
-7.15552
 11
1.70937
 21
-7.25647
  0
LINE
  8
0
 10
1.70937
 20
-7.25647
 11
1.67101
 21
-7.35339
  0
LINE
  8
0
 10
1.67101
 20
-7.35339
 11
1.62079
 21
-7.44473
  0
LINE
  8
0
 10
1.62079
 20
-7.44473
 11
1.55952
 21
-7.52905
  0
LINE
  8
0
 10
1.55952
 20
-7.52905
 11
1.48816
 21
-7.60504
  0
LINE
  8
0
 10
1.48816
 20
-7.60504
 11
1.40785
 21
-7.67148
  0
LINE
  8
0
 10
1.40785
 20
-7.67148
 11
1.31984
 21
-7.72733
  0
LINE
  8
0
 10
1.31984
 20
-7.72733
 11
1.22554
 21
-7.77171
  0
LINE
  8
0
 10
1.22554
 20
-7.77171
 11
1.1264
 21
-7.80391
  0
LINE
  8
0
 10
1.1264
 20
-7.80391
 11
1.02402
 21
-7.82344
  0
LINE
  8
0
 10
1.02402
 20
-7.82344
 11
0.919998
 21
-7.82999
  0
LINE
  8
0
 10
0.919998
 20
-7.82999
 11
0.815964
 21
-7.82344
  0
LINE
  8
0
 10
0.815964
 20
-7.82344
 11
0.713577
 21
-7.80391
  0
LINE
  8
0
 10
0.713577
 20
-7.80391
 11
0.614456
 21
-7.77171
  0
LINE
  8
0
 10
0.614456
 20
-7.77171
 11
0.520142
 21
-7.72733
  0
LINE
  8
0
 10
0.520142
 20
-7.72733
 11
0.432129
 21
-7.67148
  0
LINE
  8
0
 10
0.432129
 20
-7.67148
 11
0.351822
 21
-7.60504
  0
LINE
  8
0
 10
0.351822
 20
-7.60504
 11
0.280472
 21
-7.52905
  0
LINE
  8
0
 10
0.280472
 20
-7.52905
 11
0.219208
 21
-7.44473
  0
LINE
  8
0
 10
0.219208
 20
-7.44473
 11
0.168991
 21
-7.35339
  0
LINE
  8
0
 10
0.168991
 20
-7.35339
 11
0.130615
 21
-7.25647
  0
LINE
  8
0
 10
0.130615
 20
-7.25647
 11
0.104691
 21
-7.15552
  0
LINE
  8
0
 10
0.104691
 20
-7.15552
 11
0.091629
 21
-7.05211
  0
LINE
  8
0
 10
0.091629
 20
-7.05211
 11
0.091629
 21
-6.94788
  0
LINE
  8
0
 10
0.091629
 20
-6.94788
 11
0.104691
 21
-6.84447
  0
LINE
  8
0
 10
0.104691
 20
-6.84447
 11
0.130615
 21
-6.74352
  0
ENDSEC
  0
SECTION
  2
OBJECTS
  0
DICTIONARY
  0
ENDSEC
  0
EOF
