  0
SECTION
  2
BLOCKS
  0
ENDSEC
  0
SECTION
  2
ENTITIES
  0
LINE
  8
0
 10
21.6267
 20
-40.9606
 11
22.2435
 21
-40.8429
  0
LINE
  8
0
 10
22.2435
 20
-40.8429
 11
22.8406
 21
-40.6489
  0
LINE
  8
0
 10
22.8406
 20
-40.6489
 11
23.4088
 21
-40.3815
  0
LINE
  8
0
 10
23.4088
 20
-40.3815
 11
23.9389
 21
-40.0451
  0
LINE
  8
0
 10
23.9389
 20
-40.0451
 11
24.4227
 21
-39.6448
  0
LINE
  8
0
 10
24.4227
 20
-39.6448
 11
24.8526
 21
-39.1871
  0
LINE
  8
0
 10
24.8526
 20
-39.1871
 11
25.2216
 21
-38.6791
  0
LINE
  8
0
 10
25.2216
 20
-38.6791
 11
25.5241
 21
-38.1289
  0
LINE
  8
0
 10
25.5241
 20
-38.1289
 11
25.7553
 21
-37.5451
  0
LINE
  8
0
 10
25.7553
 20
-37.5451
 11
25.9114
 21
-36.9369
  0
LINE
  8
0
 10
25.9114
 20
-36.9369
 11
26
 21
-36
  0
LINE
  8
0
 10
26
 20
-36
 11
26
 21
36
  0
LINE
  8
0
 10
26
 20
36
 11
25.9606
 21
36.6267
  0
LINE
  8
0
 10
25.9606
 20
36.6267
 11
25.8429
 21
37.2435
  0
LINE
  8
0
 10
25.8429
 20
37.2435
 11
25.6489
 21
37.8406
  0
LINE
  8
0
 10
25.6489
 20
37.8406
 11
25.3815
 21
38.4088
  0
LINE
  8
0
 10
25.3815
 20
38.4088
 11
25.0451
 21
38.9389
  0
LINE
  8
0
 10
25.0451
 20
38.9389
 11
24.6448
 21
39.4227
  0
LINE
  8
0
 10
24.6448
 20
39.4227
 11
24.1871
 21
39.8526
  0
LINE
  8
0
 10
24.1871
 20
39.8526
 11
23.6791
 21
40.2216
  0
LINE
  8
0
 10
23.6791
 20
40.2216
 11
23.1289
 21
40.5241
  0
LINE
  8
0
 10
23.1289
 20
40.5241
 11
22.5451
 21
40.7553
  0
LINE
  8
0
 10
22.5451
 20
40.7553
 11
21.9369
 21
40.9114
  0
LINE
  8
0
 10
21.9369
 20
40.9114
 11
21
 21
41
  0
LINE
  8
0
 10
21
 20
41
 11
-21
 21
41
  0
LINE
  8
0
 10
-21
 20
41
 11
-21.6267
 21
40.9606
  0
LINE
  8
0
 10
-21.6267
 20
40.9606
 11
-22.2435
 21
40.8429
  0
LINE
  8
0
 10
-22.2435
 20
40.8429
 11
-22.8406
 21
40.6489
  0
LINE
  8
0
 10
-22.8406
 20
40.6489
 11
-23.4088
 21
40.3815
  0
LINE
  8
0
 10
-23.4088
 20
40.3815
 11
-23.9389
 21
40.0451
  0
LINE
  8
0
 10
-23.9389
 20
40.0451
 11
-24.4227
 21
39.6448
  0
LINE
  8
0
 10
-24.4227
 20
39.6448
 11
-24.8526
 21
39.1871
  0
LINE
  8
0
 10
-24.8526
 20
39.1871
 11
-25.2216
 21
38.6791
  0
LINE
  8
0
 10
-25.2216
 20
38.6791
 11
-25.5241
 21
38.1289
  0
LINE
  8
0
 10
-25.5241
 20
38.1289
 11
-25.7553
 21
37.5451
  0
LINE
  8
0
 10
-25.7553
 20
37.5451
 11
-25.9114
 21
36.9369
  0
LINE
  8
0
 10
-25.9114
 20
36.9369
 11
-26
 21
36
  0
LINE
  8
0
 10
-26
 20
36
 11
-26
 21
-36
  0
LINE
  8
0
 10
-26
 20
-36
 11
-25.9606
 21
-36.6267
  0
LINE
  8
0
 10
-25.9606
 20
-36.6267
 11
-25.8429
 21
-37.2435
  0
LINE
  8
0
 10
-25.8429
 20
-37.2435
 11
-25.6489
 21
-37.8406
  0
LINE
  8
0
 10
-25.6489
 20
-37.8406
 11
-25.3815
 21
-38.4088
  0
LINE
  8
0
 10
-25.3815
 20
-38.4088
 11
-25.0451
 21
-38.9389
  0
LINE
  8
0
 10
-25.0451
 20
-38.9389
 11
-24.6448
 21
-39.4227
  0
LINE
  8
0
 10
-24.6448
 20
-39.4227
 11
-24.1871
 21
-39.8526
  0
LINE
  8
0
 10
-24.1871
 20
-39.8526
 11
-23.6791
 21
-40.2216
  0
LINE
  8
0
 10
-23.6791
 20
-40.2216
 11
-23.1289
 21
-40.5241
  0
LINE
  8
0
 10
-23.1289
 20
-40.5241
 11
-22.5451
 21
-40.7553
  0
LINE
  8
0
 10
-22.5451
 20
-40.7553
 11
-21.9369
 21
-40.9114
  0
LINE
  8
0
 10
-21.9369
 20
-40.9114
 11
-21
 21
-41
  0
LINE
  8
0
 10
-21
 20
-41
 11
21
 21
-41
  0
LINE
  8
0
 10
21
 20
-41
 11
21.6267
 21
-40.9606
  0
LINE
  8
0
 10
-5
 20
10
 11
-5
 21
20
  0
LINE
  8
0
 10
-5
 20
20
 11
5
 21
20
  0
LINE
  8
0
 10
5
 20
20
 11
5
 21
10
  0
LINE
  8
0
 10
5
 20
10
 11
-5
 21
10
  0
LINE
  8
0
 10
-8.10674
 20
13.3033
 11
-8.31854
 21
13.3301
  0
LINE
  8
0
 10
-8.31854
 20
13.3301
 11
-8.52531
 21
13.3832
  0
LINE
  8
0
 10
-8.52531
 20
13.3832
 11
-8.72382
 21
13.4618
  0
LINE
  8
0
 10
-8.72382
 20
13.4618
 11
-8.9109
 21
13.5646
  0
LINE
  8
0
 10
-8.9109
 20
13.5646
 11
-9.08362
 21
13.6901
  0
LINE
  8
0
 10
-9.08362
 20
13.6901
 11
-9.23924
 21
13.8363
  0
LINE
  8
0
 10
-9.23924
 20
13.8363
 11
-9.37532
 21
14.0008
  0
LINE
  8
0
 10
-9.37532
 20
14.0008
 11
-9.48972
 21
14.181
  0
LINE
  8
0
 10
-9.48972
 20
14.181
 11
-9.58061
 21
14.3742
  0
LINE
  8
0
 10
-9.58061
 20
14.3742
 11
-9.64659
 21
14.5772
  0
LINE
  8
0
 10
-9.64659
 20
14.5772
 11
-9.68658
 21
14.7869
  0
LINE
  8
0
 10
-9.68658
 20
14.7869
 11
-9.7
 21
15
  0
LINE
  8
0
 10
-9.7
 20
15
 11
-9.68658
 21
15.2131
  0
LINE
  8
0
 10
-9.68658
 20
15.2131
 11
-9.64659
 21
15.4228
  0
LINE
  8
0
 10
-9.64659
 20
15.4228
 11
-9.58061
 21
15.6258
  0
LINE
  8
0
 10
-9.58061
 20
15.6258
 11
-9.48972
 21
15.819
  0
LINE
  8
0
 10
-9.48972
 20
15.819
 11
-9.37532
 21
15.9992
  0
LINE
  8
0
 10
-9.37532
 20
15.9992
 11
-9.23924
 21
16.1637
  0
LINE
  8
0
 10
-9.23924
 20
16.1637
 11
-9.08362
 21
16.3099
  0
LINE
  8
0
 10
-9.08362
 20
16.3099
 11
-8.9109
 21
16.4353
  0
LINE
  8
0
 10
-8.9109
 20
16.4353
 11
-8.72382
 21
16.5382
  0
LINE
  8
0
 10
-8.72382
 20
16.5382
 11
-8.52531
 21
16.6168
  0
LINE
  8
0
 10
-8.52531
 20
16.6168
 11
-8.31854
 21
16.6699
  0
LINE
  8
0
 10
-8.31854
 20
16.6699
 11
-8.10674
 21
16.6966
  0
LINE
  8
0
 10
-8.10674
 20
16.6966
 11
-7.89325
 21
16.6966
  0
LINE
  8
0
 10
-7.89325
 20
16.6966
 11
-7.68144
 21
16.6699
  0
LINE
  8
0
 10
-7.68144
 20
16.6699
 11
-7.47467
 21
16.6168
  0
LINE
  8
0
 10
-7.47467
 20
16.6168
 11
-7.27617
 21
16.5382
  0
LINE
  8
0
 10
-7.27617
 20
16.5382
 11
-7.08908
 21
16.4353
  0
LINE
  8
0
 10
-7.08908
 20
16.4353
 11
-6.91637
 21
16.3099
  0
LINE
  8
0
 10
-6.91637
 20
16.3099
 11
-6.76074
 21
16.1637
  0
LINE
  8
0
 10
-6.76074
 20
16.1637
 11
-6.62466
 21
15.9992
  0
LINE
  8
0
 10
-6.62466
 20
15.9992
 11
-6.51027
 21
15.819
  0
LINE
  8
0
 10
-6.51027
 20
15.819
 11
-6.41937
 21
15.6258
  0
LINE
  8
0
 10
-6.41937
 20
15.6258
 11
-6.35339
 21
15.4228
  0
LINE
  8
0
 10
-6.35339
 20
15.4228
 11
-6.3134
 21
15.2131
  0
LINE
  8
0
 10
-6.3134
 20
15.2131
 11
-6.29999
 21
15
  0
LINE
  8
0
 10
-6.29999
 20
15
 11
-6.3134
 21
14.7869
  0
LINE
  8
0
 10
-6.3134
 20
14.7869
 11
-6.35339
 21
14.5772
  0
LINE
  8
0
 10
-6.35339
 20
14.5772
 11
-6.41937
 21
14.3742
  0
LINE
  8
0
 10
-6.41937
 20
14.3742
 11
-6.51027
 21
14.181
  0
LINE
  8
0
 10
-6.51027
 20
14.181
 11
-6.62466
 21
14.0008
  0
LINE
  8
0
 10
-6.62466
 20
14.0008
 11
-6.76074
 21
13.8363
  0
LINE
  8
0
 10
-6.76074
 20
13.8363
 11
-6.91637
 21
13.6901
  0
LINE
  8
0
 10
-6.91637
 20
13.6901
 11
-7.08908
 21
13.5646
  0
LINE
  8
0
 10
-7.08908
 20
13.5646
 11
-7.27617
 21
13.4618
  0
LINE
  8
0
 10
-7.27617
 20
13.4618
 11
-7.47467
 21
13.3832
  0
LINE
  8
0
 10
-7.47467
 20
13.3832
 11
-7.68144
 21
13.3301
  0
LINE
  8
0
 10
-7.68144
 20
13.3301
 11
-7.89325
 21
13.3033
  0
LINE
  8
0
 10
-7.89325
 20
13.3033
 11
-8.10674
 21
13.3033
  0
LINE
  8
0
 10
7.89325
 20
13.3033
 11
7.68144
 21
13.3301
  0
LINE
  8
0
 10
7.68144
 20
13.3301
 11
7.47467
 21
13.3832
  0
LINE
  8
0
 10
7.47467
 20
13.3832
 11
7.27617
 21
13.4618
  0
LINE
  8
0
 10
7.27617
 20
13.4618
 11
7.08908
 21
13.5646
  0
LINE
  8
0
 10
7.08908
 20
13.5646
 11
6.91637
 21
13.6901
  0
LINE
  8
0
 10
6.91637
 20
13.6901
 11
6.76074
 21
13.8363
  0
LINE
  8
0
 10
6.76074
 20
13.8363
 11
6.62466
 21
14.0008
  0
LINE
  8
0
 10
6.62466
 20
14.0008
 11
6.51027
 21
14.181
  0
LINE
  8
0
 10
6.51027
 20
14.181
 11
6.41937
 21
14.3742
  0
LINE
  8
0
 10
6.41937
 20
14.3742
 11
6.35339
 21
14.5772
  0
LINE
  8
0
 10
6.35339
 20
14.5772
 11
6.3134
 21
14.7869
  0
LINE
  8
0
 10
6.3134
 20
14.7869
 11
6.29999
 21
15
  0
LINE
  8
0
 10
6.29999
 20
15
 11
6.3134
 21
15.2131
  0
LINE
  8
0
 10
6.3134
 20
15.2131
 11
6.35339
 21
15.4228
  0
LINE
  8
0
 10
6.35339
 20
15.4228
 11
6.41937
 21
15.6258
  0
LINE
  8
0
 10
6.41937
 20
15.6258
 11
6.51027
 21
15.819
  0
LINE
  8
0
 10
6.51027
 20
15.819
 11
6.62466
 21
15.9992
  0
LINE
  8
0
 10
6.62466
 20
15.9992
 11
6.76074
 21
16.1637
  0
LINE
  8
0
 10
6.76074
 20
16.1637
 11
6.91637
 21
16.3099
  0
LINE
  8
0
 10
6.91637
 20
16.3099
 11
7.08908
 21
16.4353
  0
LINE
  8
0
 10
7.08908
 20
16.4353
 11
7.27617
 21
16.5382
  0
LINE
  8
0
 10
7.27617
 20
16.5382
 11
7.47467
 21
16.6168
  0
LINE
  8
0
 10
7.47467
 20
16.6168
 11
7.68144
 21
16.6699
  0
LINE
  8
0
 10
7.68144
 20
16.6699
 11
7.89325
 21
16.6966
  0
LINE
  8
0
 10
7.89325
 20
16.6966
 11
8.10674
 21
16.6966
  0
LINE
  8
0
 10
8.10674
 20
16.6966
 11
8.31854
 21
16.6699
  0
LINE
  8
0
 10
8.31854
 20
16.6699
 11
8.52531
 21
16.6168
  0
LINE
  8
0
 10
8.52531
 20
16.6168
 11
8.72382
 21
16.5382
  0
LINE
  8
0
 10
8.72382
 20
16.5382
 11
8.9109
 21
16.4353
  0
LINE
  8
0
 10
8.9109
 20
16.4353
 11
9.08362
 21
16.3099
  0
LINE
  8
0
 10
9.08362
 20
16.3099
 11
9.23924
 21
16.1637
  0
LINE
  8
0
 10
9.23924
 20
16.1637
 11
9.37532
 21
15.9992
  0
LINE
  8
0
 10
9.37532
 20
15.9992
 11
9.48972
 21
15.819
  0
LINE
  8
0
 10
9.48972
 20
15.819
 11
9.58061
 21
15.6258
  0
LINE
  8
0
 10
9.58061
 20
15.6258
 11
9.64659
 21
15.4228
  0
LINE
  8
0
 10
9.64659
 20
15.4228
 11
9.68658
 21
15.2131
  0
LINE
  8
0
 10
9.68658
 20
15.2131
 11
9.7
 21
15
  0
LINE
  8
0
 10
9.7
 20
15
 11
9.68658
 21
14.7869
  0
LINE
  8
0
 10
9.68658
 20
14.7869
 11
9.64659
 21
14.5772
  0
LINE
  8
0
 10
9.64659
 20
14.5772
 11
9.58061
 21
14.3742
  0
LINE
  8
0
 10
9.58061
 20
14.3742
 11
9.48972
 21
14.181
  0
LINE
  8
0
 10
9.48972
 20
14.181
 11
9.37532
 21
14.0008
  0
LINE
  8
0
 10
9.37532
 20
14.0008
 11
9.23924
 21
13.8363
  0
LINE
  8
0
 10
9.23924
 20
13.8363
 11
9.08362
 21
13.6901
  0
LINE
  8
0
 10
9.08362
 20
13.6901
 11
8.9109
 21
13.5646
  0
LINE
  8
0
 10
8.9109
 20
13.5646
 11
8.72382
 21
13.4618
  0
LINE
  8
0
 10
8.72382
 20
13.4618
 11
8.52531
 21
13.3832
  0
LINE
  8
0
 10
8.52531
 20
13.3832
 11
8.31854
 21
13.3301
  0
LINE
  8
0
 10
8.31854
 20
13.3301
 11
8.10674
 21
13.3033
  0
LINE
  8
0
 10
8.10674
 20
13.3033
 11
7.89325
 21
13.3033
  0
ENDSEC
  0
SECTION
  2
OBJECTS
  0
DICTIONARY
  0
ENDSEC
  0
EOF
