  0
SECTION
  2
BLOCKS
  0
ENDSEC
  0
SECTION
  2
ENTITIES
  0
LINE
  8
0
 10
21.6267
 20
-40.9606
 11
22.2435
 21
-40.8429
  0
LINE
  8
0
 10
22.2435
 20
-40.8429
 11
22.8406
 21
-40.6489
  0
LINE
  8
0
 10
22.8406
 20
-40.6489
 11
23.4088
 21
-40.3815
  0
LINE
  8
0
 10
23.4088
 20
-40.3815
 11
23.9389
 21
-40.0451
  0
LINE
  8
0
 10
23.9389
 20
-40.0451
 11
24.4227
 21
-39.6448
  0
LINE
  8
0
 10
24.4227
 20
-39.6448
 11
24.8526
 21
-39.1871
  0
LINE
  8
0
 10
24.8526
 20
-39.1871
 11
25.2216
 21
-38.6791
  0
LINE
  8
0
 10
25.2216
 20
-38.6791
 11
25.5241
 21
-38.1289
  0
LINE
  8
0
 10
25.5241
 20
-38.1289
 11
25.7553
 21
-37.5451
  0
LINE
  8
0
 10
25.7553
 20
-37.5451
 11
25.9114
 21
-36.9369
  0
LINE
  8
0
 10
25.9114
 20
-36.9369
 11
26
 21
-36
  0
LINE
  8
0
 10
26
 20
-36
 11
26
 21
36
  0
LINE
  8
0
 10
26
 20
36
 11
25.9606
 21
36.6267
  0
LINE
  8
0
 10
25.9606
 20
36.6267
 11
25.8429
 21
37.2435
  0
LINE
  8
0
 10
25.8429
 20
37.2435
 11
25.6489
 21
37.8406
  0
LINE
  8
0
 10
25.6489
 20
37.8406
 11
25.3815
 21
38.4088
  0
LINE
  8
0
 10
25.3815
 20
38.4088
 11
25.0451
 21
38.9389
  0
LINE
  8
0
 10
25.0451
 20
38.9389
 11
24.6448
 21
39.4227
  0
LINE
  8
0
 10
24.6448
 20
39.4227
 11
24.1871
 21
39.8526
  0
LINE
  8
0
 10
24.1871
 20
39.8526
 11
23.6791
 21
40.2216
  0
LINE
  8
0
 10
23.6791
 20
40.2216
 11
23.1289
 21
40.5241
  0
LINE
  8
0
 10
23.1289
 20
40.5241
 11
22.5451
 21
40.7553
  0
LINE
  8
0
 10
22.5451
 20
40.7553
 11
21.9369
 21
40.9114
  0
LINE
  8
0
 10
21.9369
 20
40.9114
 11
21
 21
41
  0
LINE
  8
0
 10
21
 20
41
 11
-21
 21
41
  0
LINE
  8
0
 10
-21
 20
41
 11
-21.6267
 21
40.9606
  0
LINE
  8
0
 10
-21.6267
 20
40.9606
 11
-22.2435
 21
40.8429
  0
LINE
  8
0
 10
-22.2435
 20
40.8429
 11
-22.8406
 21
40.6489
  0
LINE
  8
0
 10
-22.8406
 20
40.6489
 11
-23.4088
 21
40.3815
  0
LINE
  8
0
 10
-23.4088
 20
40.3815
 11
-23.9389
 21
40.0451
  0
LINE
  8
0
 10
-23.9389
 20
40.0451
 11
-24.4227
 21
39.6448
  0
LINE
  8
0
 10
-24.4227
 20
39.6448
 11
-24.8526
 21
39.1871
  0
LINE
  8
0
 10
-24.8526
 20
39.1871
 11
-25.2216
 21
38.6791
  0
LINE
  8
0
 10
-25.2216
 20
38.6791
 11
-25.5241
 21
38.1289
  0
LINE
  8
0
 10
-25.5241
 20
38.1289
 11
-25.7553
 21
37.5451
  0
LINE
  8
0
 10
-25.7553
 20
37.5451
 11
-25.9114
 21
36.9369
  0
LINE
  8
0
 10
-25.9114
 20
36.9369
 11
-26
 21
36
  0
LINE
  8
0
 10
-26
 20
36
 11
-26
 21
-36
  0
LINE
  8
0
 10
-26
 20
-36
 11
-25.9606
 21
-36.6267
  0
LINE
  8
0
 10
-25.9606
 20
-36.6267
 11
-25.8429
 21
-37.2435
  0
LINE
  8
0
 10
-25.8429
 20
-37.2435
 11
-25.6489
 21
-37.8406
  0
LINE
  8
0
 10
-25.6489
 20
-37.8406
 11
-25.3815
 21
-38.4088
  0
LINE
  8
0
 10
-25.3815
 20
-38.4088
 11
-25.0451
 21
-38.9389
  0
LINE
  8
0
 10
-25.0451
 20
-38.9389
 11
-24.6448
 21
-39.4227
  0
LINE
  8
0
 10
-24.6448
 20
-39.4227
 11
-24.1871
 21
-39.8526
  0
LINE
  8
0
 10
-24.1871
 20
-39.8526
 11
-23.6791
 21
-40.2216
  0
LINE
  8
0
 10
-23.6791
 20
-40.2216
 11
-23.1289
 21
-40.5241
  0
LINE
  8
0
 10
-23.1289
 20
-40.5241
 11
-22.5451
 21
-40.7553
  0
LINE
  8
0
 10
-22.5451
 20
-40.7553
 11
-21.9369
 21
-40.9114
  0
LINE
  8
0
 10
-21.9369
 20
-40.9114
 11
-21
 21
-41
  0
LINE
  8
0
 10
-21
 20
-41
 11
21
 21
-41
  0
LINE
  8
0
 10
21
 20
-41
 11
21.6267
 21
-40.9606
  0
LINE
  8
0
 10
-5
 20
15
 11
-5
 21
25
  0
LINE
  8
0
 10
-5
 20
25
 11
5
 21
25
  0
LINE
  8
0
 10
5
 20
25
 11
5
 21
15
  0
LINE
  8
0
 10
5
 20
15
 11
-5
 21
15
  0
LINE
  8
0
 10
7.89325
 20
18.3033
 11
7.68144
 21
18.3301
  0
LINE
  8
0
 10
7.68144
 20
18.3301
 11
7.47467
 21
18.3832
  0
LINE
  8
0
 10
7.47467
 20
18.3832
 11
7.27617
 21
18.4618
  0
LINE
  8
0
 10
7.27617
 20
18.4618
 11
7.08908
 21
18.5646
  0
LINE
  8
0
 10
7.08908
 20
18.5646
 11
6.91637
 21
18.6901
  0
LINE
  8
0
 10
6.91637
 20
18.6901
 11
6.76074
 21
18.8363
  0
LINE
  8
0
 10
6.76074
 20
18.8363
 11
6.62466
 21
19.0008
  0
LINE
  8
0
 10
6.62466
 20
19.0008
 11
6.51027
 21
19.181
  0
LINE
  8
0
 10
6.51027
 20
19.181
 11
6.41937
 21
19.3742
  0
LINE
  8
0
 10
6.41937
 20
19.3742
 11
6.35341
 21
19.5772
  0
LINE
  8
0
 10
6.35341
 20
19.5772
 11
6.3134
 21
19.7869
  0
LINE
  8
0
 10
6.3134
 20
19.7869
 11
6.29999
 21
20
  0
LINE
  8
0
 10
6.29999
 20
20
 11
6.3134
 21
20.2131
  0
LINE
  8
0
 10
6.3134
 20
20.2131
 11
6.35341
 21
20.4228
  0
LINE
  8
0
 10
6.35341
 20
20.4228
 11
6.41937
 21
20.6258
  0
LINE
  8
0
 10
6.41937
 20
20.6258
 11
6.51027
 21
20.819
  0
LINE
  8
0
 10
6.51027
 20
20.819
 11
6.62466
 21
20.9992
  0
LINE
  8
0
 10
6.62466
 20
20.9992
 11
6.76074
 21
21.1637
  0
LINE
  8
0
 10
6.76074
 20
21.1637
 11
6.91637
 21
21.3099
  0
LINE
  8
0
 10
6.91637
 20
21.3099
 11
7.08908
 21
21.4353
  0
LINE
  8
0
 10
7.08908
 20
21.4353
 11
7.27617
 21
21.5382
  0
LINE
  8
0
 10
7.27617
 20
21.5382
 11
7.47467
 21
21.6168
  0
LINE
  8
0
 10
7.47467
 20
21.6168
 11
7.68144
 21
21.6699
  0
LINE
  8
0
 10
7.68144
 20
21.6699
 11
7.89325
 21
21.6966
  0
LINE
  8
0
 10
7.89325
 20
21.6966
 11
8.10674
 21
21.6966
  0
LINE
  8
0
 10
8.10674
 20
21.6966
 11
8.31854
 21
21.6699
  0
LINE
  8
0
 10
8.31854
 20
21.6699
 11
8.52531
 21
21.6168
  0
LINE
  8
0
 10
8.52531
 20
21.6168
 11
8.72382
 21
21.5382
  0
LINE
  8
0
 10
8.72382
 20
21.5382
 11
8.9109
 21
21.4353
  0
LINE
  8
0
 10
8.9109
 20
21.4353
 11
9.08362
 21
21.3099
  0
LINE
  8
0
 10
9.08362
 20
21.3099
 11
9.23924
 21
21.1637
  0
LINE
  8
0
 10
9.23924
 20
21.1637
 11
9.37532
 21
20.9992
  0
LINE
  8
0
 10
9.37532
 20
20.9992
 11
9.48972
 21
20.819
  0
LINE
  8
0
 10
9.48972
 20
20.819
 11
9.58061
 21
20.6258
  0
LINE
  8
0
 10
9.58061
 20
20.6258
 11
9.64659
 21
20.4228
  0
LINE
  8
0
 10
9.64659
 20
20.4228
 11
9.68658
 21
20.2131
  0
LINE
  8
0
 10
9.68658
 20
20.2131
 11
9.7
 21
20
  0
LINE
  8
0
 10
9.7
 20
20
 11
9.68658
 21
19.7869
  0
LINE
  8
0
 10
9.68658
 20
19.7869
 11
9.64659
 21
19.5772
  0
LINE
  8
0
 10
9.64659
 20
19.5772
 11
9.58061
 21
19.3742
  0
LINE
  8
0
 10
9.58061
 20
19.3742
 11
9.48972
 21
19.181
  0
LINE
  8
0
 10
9.48972
 20
19.181
 11
9.37532
 21
19.0008
  0
LINE
  8
0
 10
9.37532
 20
19.0008
 11
9.23924
 21
18.8363
  0
LINE
  8
0
 10
9.23924
 20
18.8363
 11
9.08362
 21
18.6901
  0
LINE
  8
0
 10
9.08362
 20
18.6901
 11
8.9109
 21
18.5646
  0
LINE
  8
0
 10
8.9109
 20
18.5646
 11
8.72382
 21
18.4618
  0
LINE
  8
0
 10
8.72382
 20
18.4618
 11
8.52531
 21
18.3832
  0
LINE
  8
0
 10
8.52531
 20
18.3832
 11
8.31854
 21
18.3301
  0
LINE
  8
0
 10
8.31854
 20
18.3301
 11
8.10674
 21
18.3033
  0
LINE
  8
0
 10
8.10674
 20
18.3033
 11
7.89325
 21
18.3033
  0
LINE
  8
0
 10
-8.10674
 20
18.3033
 11
-8.31854
 21
18.3301
  0
LINE
  8
0
 10
-8.31854
 20
18.3301
 11
-8.52531
 21
18.3832
  0
LINE
  8
0
 10
-8.52531
 20
18.3832
 11
-8.72382
 21
18.4618
  0
LINE
  8
0
 10
-8.72382
 20
18.4618
 11
-8.9109
 21
18.5646
  0
LINE
  8
0
 10
-8.9109
 20
18.5646
 11
-9.08362
 21
18.6901
  0
LINE
  8
0
 10
-9.08362
 20
18.6901
 11
-9.23924
 21
18.8363
  0
LINE
  8
0
 10
-9.23924
 20
18.8363
 11
-9.37532
 21
19.0008
  0
LINE
  8
0
 10
-9.37532
 20
19.0008
 11
-9.48972
 21
19.181
  0
LINE
  8
0
 10
-9.48972
 20
19.181
 11
-9.58061
 21
19.3742
  0
LINE
  8
0
 10
-9.58061
 20
19.3742
 11
-9.64659
 21
19.5772
  0
LINE
  8
0
 10
-9.64659
 20
19.5772
 11
-9.68658
 21
19.7869
  0
LINE
  8
0
 10
-9.68658
 20
19.7869
 11
-9.7
 21
20
  0
LINE
  8
0
 10
-9.7
 20
20
 11
-9.68658
 21
20.2131
  0
LINE
  8
0
 10
-9.68658
 20
20.2131
 11
-9.64659
 21
20.4228
  0
LINE
  8
0
 10
-9.64659
 20
20.4228
 11
-9.58061
 21
20.6258
  0
LINE
  8
0
 10
-9.58061
 20
20.6258
 11
-9.48972
 21
20.819
  0
LINE
  8
0
 10
-9.48972
 20
20.819
 11
-9.37532
 21
20.9992
  0
LINE
  8
0
 10
-9.37532
 20
20.9992
 11
-9.23924
 21
21.1637
  0
LINE
  8
0
 10
-9.23924
 20
21.1637
 11
-9.08362
 21
21.3099
  0
LINE
  8
0
 10
-9.08362
 20
21.3099
 11
-8.9109
 21
21.4353
  0
LINE
  8
0
 10
-8.9109
 20
21.4353
 11
-8.72382
 21
21.5382
  0
LINE
  8
0
 10
-8.72382
 20
21.5382
 11
-8.52531
 21
21.6168
  0
LINE
  8
0
 10
-8.52531
 20
21.6168
 11
-8.31854
 21
21.6699
  0
LINE
  8
0
 10
-8.31854
 20
21.6699
 11
-8.10674
 21
21.6966
  0
LINE
  8
0
 10
-8.10674
 20
21.6966
 11
-7.89325
 21
21.6966
  0
LINE
  8
0
 10
-7.89325
 20
21.6966
 11
-7.68144
 21
21.6699
  0
LINE
  8
0
 10
-7.68144
 20
21.6699
 11
-7.47467
 21
21.6168
  0
LINE
  8
0
 10
-7.47467
 20
21.6168
 11
-7.27617
 21
21.5382
  0
LINE
  8
0
 10
-7.27617
 20
21.5382
 11
-7.08908
 21
21.4353
  0
LINE
  8
0
 10
-7.08908
 20
21.4353
 11
-6.91637
 21
21.3099
  0
LINE
  8
0
 10
-6.91637
 20
21.3099
 11
-6.76074
 21
21.1637
  0
LINE
  8
0
 10
-6.76074
 20
21.1637
 11
-6.62466
 21
20.9992
  0
LINE
  8
0
 10
-6.62466
 20
20.9992
 11
-6.51027
 21
20.819
  0
LINE
  8
0
 10
-6.51027
 20
20.819
 11
-6.41937
 21
20.6258
  0
LINE
  8
0
 10
-6.41937
 20
20.6258
 11
-6.35341
 21
20.4228
  0
LINE
  8
0
 10
-6.35341
 20
20.4228
 11
-6.3134
 21
20.2131
  0
LINE
  8
0
 10
-6.3134
 20
20.2131
 11
-6.29999
 21
20
  0
LINE
  8
0
 10
-6.29999
 20
20
 11
-6.3134
 21
19.7869
  0
LINE
  8
0
 10
-6.3134
 20
19.7869
 11
-6.35341
 21
19.5772
  0
LINE
  8
0
 10
-6.35341
 20
19.5772
 11
-6.41937
 21
19.3742
  0
LINE
  8
0
 10
-6.41937
 20
19.3742
 11
-6.51027
 21
19.181
  0
LINE
  8
0
 10
-6.51027
 20
19.181
 11
-6.62466
 21
19.0008
  0
LINE
  8
0
 10
-6.62466
 20
19.0008
 11
-6.76074
 21
18.8363
  0
LINE
  8
0
 10
-6.76074
 20
18.8363
 11
-6.91637
 21
18.6901
  0
LINE
  8
0
 10
-6.91637
 20
18.6901
 11
-7.08908
 21
18.5646
  0
LINE
  8
0
 10
-7.08908
 20
18.5646
 11
-7.27617
 21
18.4618
  0
LINE
  8
0
 10
-7.27617
 20
18.4618
 11
-7.47467
 21
18.3832
  0
LINE
  8
0
 10
-7.47467
 20
18.3832
 11
-7.68144
 21
18.3301
  0
LINE
  8
0
 10
-7.68144
 20
18.3301
 11
-7.89325
 21
18.3033
  0
LINE
  8
0
 10
-7.89325
 20
18.3033
 11
-8.10674
 21
18.3033
  0
LINE
  8
0
 10
-0.332779
 20
-0.289536
 11
-0.993118
 21
-0.206116
  0
LINE
  8
0
 10
-0.993118
 20
-0.206116
 11
-1.63779
 21
-0.0405884
  0
LINE
  8
0
 10
-1.63779
 20
-0.0405884
 11
-2.25662
 21
0.204407
  0
LINE
  8
0
 10
-2.25662
 20
0.204407
 11
-2.83987
 21
0.525055
  0
LINE
  8
0
 10
-2.83987
 20
0.525055
 11
-3.37834
 21
0.916275
  0
LINE
  8
0
 10
-3.37834
 20
0.916275
 11
-3.86353
 21
1.37189
  0
LINE
  8
0
 10
-3.86353
 20
1.37189
 11
-4.28778
 21
1.88474
  0
LINE
  8
0
 10
-4.28778
 20
1.88474
 11
-4.64442
 21
2.4467
  0
LINE
  8
0
 10
-4.64442
 20
2.4467
 11
-4.92781
 21
3.04893
  0
LINE
  8
0
 10
-4.92781
 20
3.04893
 11
-5.13348
 21
3.68193
  0
LINE
  8
0
 10
-5.13348
 20
3.68193
 11
-5.25819
 21
4.33572
  0
LINE
  8
0
 10
-5.25819
 20
4.33572
 11
-5.29999
 21
5
  0
LINE
  8
0
 10
-5.29999
 20
5
 11
-5.25819
 21
5.66426
  0
LINE
  8
0
 10
-5.25819
 20
5.66426
 11
-5.13348
 21
6.31805
  0
LINE
  8
0
 10
-5.13348
 20
6.31805
 11
-4.92781
 21
6.95105
  0
LINE
  8
0
 10
-4.92781
 20
6.95105
 11
-4.64442
 21
7.55328
  0
LINE
  8
0
 10
-4.64442
 20
7.55328
 11
-4.28778
 21
8.11525
  0
LINE
  8
0
 10
-4.28778
 20
8.11525
 11
-3.86353
 21
8.6281
  0
LINE
  8
0
 10
-3.86353
 20
8.6281
 11
-3.37834
 21
9.08371
  0
LINE
  8
0
 10
-3.37834
 20
9.08371
 11
-2.83987
 21
9.47493
  0
LINE
  8
0
 10
-2.83987
 20
9.47493
 11
-2.25662
 21
9.79558
  0
LINE
  8
0
 10
-2.25662
 20
9.79558
 11
-1.63779
 21
10.0406
  0
LINE
  8
0
 10
-1.63779
 20
10.0406
 11
-0.993118
 21
10.2061
  0
LINE
  8
0
 10
-0.993118
 20
10.2061
 11
-0.332779
 21
10.2895
  0
LINE
  8
0
 10
-0.332779
 20
10.2895
 11
0.332779
 21
10.2895
  0
LINE
  8
0
 10
0.332779
 20
10.2895
 11
0.993118
 21
10.2061
  0
LINE
  8
0
 10
0.993118
 20
10.2061
 11
1.63779
 21
10.0406
  0
LINE
  8
0
 10
1.63779
 20
10.0406
 11
2.25662
 21
9.79558
  0
LINE
  8
0
 10
2.25662
 20
9.79558
 11
2.83987
 21
9.47493
  0
LINE
  8
0
 10
2.83987
 20
9.47493
 11
3.37834
 21
9.08371
  0
LINE
  8
0
 10
3.37834
 20
9.08371
 11
3.86353
 21
8.6281
  0
LINE
  8
0
 10
3.86353
 20
8.6281
 11
4.28778
 21
8.11525
  0
LINE
  8
0
 10
4.28778
 20
8.11525
 11
4.64442
 21
7.55328
  0
LINE
  8
0
 10
4.64442
 20
7.55328
 11
4.92781
 21
6.95105
  0
LINE
  8
0
 10
4.92781
 20
6.95105
 11
5.13348
 21
6.31805
  0
LINE
  8
0
 10
5.13348
 20
6.31805
 11
5.25819
 21
5.66426
  0
LINE
  8
0
 10
5.25819
 20
5.66426
 11
5.29999
 21
5
  0
LINE
  8
0
 10
5.29999
 20
5
 11
5.25819
 21
4.33572
  0
LINE
  8
0
 10
5.25819
 20
4.33572
 11
5.13348
 21
3.68193
  0
LINE
  8
0
 10
5.13348
 20
3.68193
 11
4.92781
 21
3.04893
  0
LINE
  8
0
 10
4.92781
 20
3.04893
 11
4.64442
 21
2.4467
  0
LINE
  8
0
 10
4.64442
 20
2.4467
 11
4.28778
 21
1.88474
  0
LINE
  8
0
 10
4.28778
 20
1.88474
 11
3.86353
 21
1.37189
  0
LINE
  8
0
 10
3.86353
 20
1.37189
 11
3.37834
 21
0.916275
  0
LINE
  8
0
 10
3.37834
 20
0.916275
 11
2.83987
 21
0.525055
  0
LINE
  8
0
 10
2.83987
 20
0.525055
 11
2.25662
 21
0.204407
  0
LINE
  8
0
 10
2.25662
 20
0.204407
 11
1.63779
 21
-0.0405884
  0
LINE
  8
0
 10
1.63779
 20
-0.0405884
 11
0.993118
 21
-0.206116
  0
LINE
  8
0
 10
0.993118
 20
-0.206116
 11
0.332779
 21
-0.289536
  0
LINE
  8
0
 10
0.332779
 20
-0.289536
 11
-0.332779
 21
-0.289536
  0
LINE
  8
0
 10
-10
 20
-26.5
 11
-10
 21
-3.5
  0
LINE
  8
0
 10
-10
 20
-3.5
 11
10
 21
-3.5
  0
LINE
  8
0
 10
10
 20
-3.5
 11
10
 21
-26.5
  0
LINE
  8
0
 10
10
 20
-26.5
 11
-10
 21
-26.5
  0
LINE
  8
0
 10
12.7869
 20
-9.68658
 11
12.5772
 21
-9.64659
  0
LINE
  8
0
 10
12.5772
 20
-9.64659
 11
12.3742
 21
-9.58061
  0
LINE
  8
0
 10
12.3742
 20
-9.58061
 11
12.181
 21
-9.48972
  0
LINE
  8
0
 10
12.181
 20
-9.48972
 11
12.0008
 21
-9.37532
  0
LINE
  8
0
 10
12.0008
 20
-9.37532
 11
11.8363
 21
-9.23924
  0
LINE
  8
0
 10
11.8363
 20
-9.23924
 11
11.6901
 21
-9.08362
  0
LINE
  8
0
 10
11.6901
 20
-9.08362
 11
11.5646
 21
-8.9109
  0
LINE
  8
0
 10
11.5646
 20
-8.9109
 11
11.4618
 21
-8.72382
  0
LINE
  8
0
 10
11.4618
 20
-8.72382
 11
11.3832
 21
-8.52533
  0
LINE
  8
0
 10
11.3832
 20
-8.52533
 11
11.3301
 21
-8.31854
  0
LINE
  8
0
 10
11.3301
 20
-8.31854
 11
11.3033
 21
-8.10674
  0
LINE
  8
0
 10
11.3033
 20
-8.10674
 11
11.3033
 21
-7.89325
  0
LINE
  8
0
 10
11.3033
 20
-7.89325
 11
11.3301
 21
-7.68144
  0
LINE
  8
0
 10
11.3301
 20
-7.68144
 11
11.3832
 21
-7.47467
  0
LINE
  8
0
 10
11.3832
 20
-7.47467
 11
11.4618
 21
-7.27617
  0
LINE
  8
0
 10
11.4618
 20
-7.27617
 11
11.5646
 21
-7.08908
  0
LINE
  8
0
 10
11.5646
 20
-7.08908
 11
11.6901
 21
-6.91637
  0
LINE
  8
0
 10
11.6901
 20
-6.91637
 11
11.8363
 21
-6.76074
  0
LINE
  8
0
 10
11.8363
 20
-6.76074
 11
12.0008
 21
-6.62466
  0
LINE
  8
0
 10
12.0008
 20
-6.62466
 11
12.181
 21
-6.51027
  0
LINE
  8
0
 10
12.181
 20
-6.51027
 11
12.3742
 21
-6.41937
  0
LINE
  8
0
 10
12.3742
 20
-6.41937
 11
12.5772
 21
-6.35341
  0
LINE
  8
0
 10
12.5772
 20
-6.35341
 11
12.7869
 21
-6.3134
  0
LINE
  8
0
 10
12.7869
 20
-6.3134
 11
13
 21
-6.29999
  0
LINE
  8
0
 10
13
 20
-6.29999
 11
13.2131
 21
-6.3134
  0
LINE
  8
0
 10
13.2131
 20
-6.3134
 11
13.4228
 21
-6.35341
  0
LINE
  8
0
 10
13.4228
 20
-6.35341
 11
13.6258
 21
-6.41937
  0
LINE
  8
0
 10
13.6258
 20
-6.41937
 11
13.819
 21
-6.51027
  0
LINE
  8
0
 10
13.819
 20
-6.51027
 11
13.9992
 21
-6.62466
  0
LINE
  8
0
 10
13.9992
 20
-6.62466
 11
14.1637
 21
-6.76074
  0
LINE
  8
0
 10
14.1637
 20
-6.76074
 11
14.3099
 21
-6.91637
  0
LINE
  8
0
 10
14.3099
 20
-6.91637
 11
14.4353
 21
-7.08908
  0
LINE
  8
0
 10
14.4353
 20
-7.08908
 11
14.5382
 21
-7.27617
  0
LINE
  8
0
 10
14.5382
 20
-7.27617
 11
14.6168
 21
-7.47467
  0
LINE
  8
0
 10
14.6168
 20
-7.47467
 11
14.6699
 21
-7.68144
  0
LINE
  8
0
 10
14.6699
 20
-7.68144
 11
14.6966
 21
-7.89325
  0
LINE
  8
0
 10
14.6966
 20
-7.89325
 11
14.6966
 21
-8.10674
  0
LINE
  8
0
 10
14.6966
 20
-8.10674
 11
14.6699
 21
-8.31854
  0
LINE
  8
0
 10
14.6699
 20
-8.31854
 11
14.6168
 21
-8.52533
  0
LINE
  8
0
 10
14.6168
 20
-8.52533
 11
14.5382
 21
-8.72382
  0
LINE
  8
0
 10
14.5382
 20
-8.72382
 11
14.4353
 21
-8.9109
  0
LINE
  8
0
 10
14.4353
 20
-8.9109
 11
14.3099
 21
-9.08362
  0
LINE
  8
0
 10
14.3099
 20
-9.08362
 11
14.1637
 21
-9.23924
  0
LINE
  8
0
 10
14.1637
 20
-9.23924
 11
13.9992
 21
-9.37532
  0
LINE
  8
0
 10
13.9992
 20
-9.37532
 11
13.819
 21
-9.48972
  0
LINE
  8
0
 10
13.819
 20
-9.48972
 11
13.6258
 21
-9.58061
  0
LINE
  8
0
 10
13.6258
 20
-9.58061
 11
13.4228
 21
-9.64659
  0
LINE
  8
0
 10
13.4228
 20
-9.64659
 11
13.2131
 21
-9.68658
  0
LINE
  8
0
 10
13.2131
 20
-9.68658
 11
13
 21
-9.7
  0
LINE
  8
0
 10
13
 20
-9.7
 11
12.7869
 21
-9.68658
  0
LINE
  8
0
 10
-13.2131
 20
-9.68658
 11
-13.4228
 21
-9.64659
  0
LINE
  8
0
 10
-13.4228
 20
-9.64659
 11
-13.6258
 21
-9.58061
  0
LINE
  8
0
 10
-13.6258
 20
-9.58061
 11
-13.819
 21
-9.48972
  0
LINE
  8
0
 10
-13.819
 20
-9.48972
 11
-13.9992
 21
-9.37532
  0
LINE
  8
0
 10
-13.9992
 20
-9.37532
 11
-14.1637
 21
-9.23924
  0
LINE
  8
0
 10
-14.1637
 20
-9.23924
 11
-14.3099
 21
-9.08362
  0
LINE
  8
0
 10
-14.3099
 20
-9.08362
 11
-14.4353
 21
-8.9109
  0
LINE
  8
0
 10
-14.4353
 20
-8.9109
 11
-14.5382
 21
-8.72382
  0
LINE
  8
0
 10
-14.5382
 20
-8.72382
 11
-14.6168
 21
-8.52533
  0
LINE
  8
0
 10
-14.6168
 20
-8.52533
 11
-14.6699
 21
-8.31854
  0
LINE
  8
0
 10
-14.6699
 20
-8.31854
 11
-14.6966
 21
-8.10674
  0
LINE
  8
0
 10
-14.6966
 20
-8.10674
 11
-14.6966
 21
-7.89325
  0
LINE
  8
0
 10
-14.6966
 20
-7.89325
 11
-14.6699
 21
-7.68144
  0
LINE
  8
0
 10
-14.6699
 20
-7.68144
 11
-14.6168
 21
-7.47467
  0
LINE
  8
0
 10
-14.6168
 20
-7.47467
 11
-14.5382
 21
-7.27617
  0
LINE
  8
0
 10
-14.5382
 20
-7.27617
 11
-14.4353
 21
-7.08908
  0
LINE
  8
0
 10
-14.4353
 20
-7.08908
 11
-14.3099
 21
-6.91637
  0
LINE
  8
0
 10
-14.3099
 20
-6.91637
 11
-14.1637
 21
-6.76074
  0
LINE
  8
0
 10
-14.1637
 20
-6.76074
 11
-13.9992
 21
-6.62466
  0
LINE
  8
0
 10
-13.9992
 20
-6.62466
 11
-13.819
 21
-6.51027
  0
LINE
  8
0
 10
-13.819
 20
-6.51027
 11
-13.6258
 21
-6.41937
  0
LINE
  8
0
 10
-13.6258
 20
-6.41937
 11
-13.4228
 21
-6.35341
  0
LINE
  8
0
 10
-13.4228
 20
-6.35341
 11
-13.2131
 21
-6.3134
  0
LINE
  8
0
 10
-13.2131
 20
-6.3134
 11
-13
 21
-6.29999
  0
LINE
  8
0
 10
-13
 20
-6.29999
 11
-12.7869
 21
-6.3134
  0
LINE
  8
0
 10
-12.7869
 20
-6.3134
 11
-12.5772
 21
-6.35341
  0
LINE
  8
0
 10
-12.5772
 20
-6.35341
 11
-12.3742
 21
-6.41937
  0
LINE
  8
0
 10
-12.3742
 20
-6.41937
 11
-12.181
 21
-6.51027
  0
LINE
  8
0
 10
-12.181
 20
-6.51027
 11
-12.0008
 21
-6.62466
  0
LINE
  8
0
 10
-12.0008
 20
-6.62466
 11
-11.8363
 21
-6.76074
  0
LINE
  8
0
 10
-11.8363
 20
-6.76074
 11
-11.6901
 21
-6.91637
  0
LINE
  8
0
 10
-11.6901
 20
-6.91637
 11
-11.5646
 21
-7.08908
  0
LINE
  8
0
 10
-11.5646
 20
-7.08908
 11
-11.4618
 21
-7.27617
  0
LINE
  8
0
 10
-11.4618
 20
-7.27617
 11
-11.3832
 21
-7.47467
  0
LINE
  8
0
 10
-11.3832
 20
-7.47467
 11
-11.3301
 21
-7.68144
  0
LINE
  8
0
 10
-11.3301
 20
-7.68144
 11
-11.3033
 21
-7.89325
  0
LINE
  8
0
 10
-11.3033
 20
-7.89325
 11
-11.3033
 21
-8.10674
  0
LINE
  8
0
 10
-11.3033
 20
-8.10674
 11
-11.3301
 21
-8.31854
  0
LINE
  8
0
 10
-11.3301
 20
-8.31854
 11
-11.3832
 21
-8.52533
  0
LINE
  8
0
 10
-11.3832
 20
-8.52533
 11
-11.4618
 21
-8.72382
  0
LINE
  8
0
 10
-11.4618
 20
-8.72382
 11
-11.5646
 21
-8.9109
  0
LINE
  8
0
 10
-11.5646
 20
-8.9109
 11
-11.6901
 21
-9.08362
  0
LINE
  8
0
 10
-11.6901
 20
-9.08362
 11
-11.8363
 21
-9.23924
  0
LINE
  8
0
 10
-11.8363
 20
-9.23924
 11
-12.0008
 21
-9.37532
  0
LINE
  8
0
 10
-12.0008
 20
-9.37532
 11
-12.181
 21
-9.48972
  0
LINE
  8
0
 10
-12.181
 20
-9.48972
 11
-12.3742
 21
-9.58061
  0
LINE
  8
0
 10
-12.3742
 20
-9.58061
 11
-12.5772
 21
-9.64659
  0
LINE
  8
0
 10
-12.5772
 20
-9.64659
 11
-12.7869
 21
-9.68658
  0
LINE
  8
0
 10
-12.7869
 20
-9.68658
 11
-13
 21
-9.7
  0
LINE
  8
0
 10
-13
 20
-9.7
 11
-13.2131
 21
-9.68658
  0
LINE
  8
0
 10
-13.2131
 20
-23.6866
 11
-13.4228
 21
-23.6466
  0
LINE
  8
0
 10
-13.4228
 20
-23.6466
 11
-13.6258
 21
-23.5806
  0
LINE
  8
0
 10
-13.6258
 20
-23.5806
 11
-13.819
 21
-23.4897
  0
LINE
  8
0
 10
-13.819
 20
-23.4897
 11
-13.9992
 21
-23.3753
  0
LINE
  8
0
 10
-13.9992
 20
-23.3753
 11
-14.1637
 21
-23.2392
  0
LINE
  8
0
 10
-14.1637
 20
-23.2392
 11
-14.3099
 21
-23.0836
  0
LINE
  8
0
 10
-14.3099
 20
-23.0836
 11
-14.4353
 21
-22.9109
  0
LINE
  8
0
 10
-14.4353
 20
-22.9109
 11
-14.5382
 21
-22.7238
  0
LINE
  8
0
 10
-14.5382
 20
-22.7238
 11
-14.6168
 21
-22.5253
  0
LINE
  8
0
 10
-14.6168
 20
-22.5253
 11
-14.6699
 21
-22.3185
  0
LINE
  8
0
 10
-14.6699
 20
-22.3185
 11
-14.6966
 21
-22.1067
  0
LINE
  8
0
 10
-14.6966
 20
-22.1067
 11
-14.6966
 21
-21.8932
  0
LINE
  8
0
 10
-14.6966
 20
-21.8932
 11
-14.6699
 21
-21.6814
  0
LINE
  8
0
 10
-14.6699
 20
-21.6814
 11
-14.6168
 21
-21.4747
  0
LINE
  8
0
 10
-14.6168
 20
-21.4747
 11
-14.5382
 21
-21.2762
  0
LINE
  8
0
 10
-14.5382
 20
-21.2762
 11
-14.4353
 21
-21.0891
  0
LINE
  8
0
 10
-14.4353
 20
-21.0891
 11
-14.3099
 21
-20.9164
  0
LINE
  8
0
 10
-14.3099
 20
-20.9164
 11
-14.1637
 21
-20.7607
  0
LINE
  8
0
 10
-14.1637
 20
-20.7607
 11
-13.9992
 21
-20.6247
  0
LINE
  8
0
 10
-13.9992
 20
-20.6247
 11
-13.819
 21
-20.5103
  0
LINE
  8
0
 10
-13.819
 20
-20.5103
 11
-13.6258
 21
-20.4194
  0
LINE
  8
0
 10
-13.6258
 20
-20.4194
 11
-13.4228
 21
-20.3534
  0
LINE
  8
0
 10
-13.4228
 20
-20.3534
 11
-13.2131
 21
-20.3134
  0
LINE
  8
0
 10
-13.2131
 20
-20.3134
 11
-13
 21
-20.3
  0
LINE
  8
0
 10
-13
 20
-20.3
 11
-12.7869
 21
-20.3134
  0
LINE
  8
0
 10
-12.7869
 20
-20.3134
 11
-12.5772
 21
-20.3534
  0
LINE
  8
0
 10
-12.5772
 20
-20.3534
 11
-12.3742
 21
-20.4194
  0
LINE
  8
0
 10
-12.3742
 20
-20.4194
 11
-12.181
 21
-20.5103
  0
LINE
  8
0
 10
-12.181
 20
-20.5103
 11
-12.0008
 21
-20.6247
  0
LINE
  8
0
 10
-12.0008
 20
-20.6247
 11
-11.8363
 21
-20.7607
  0
LINE
  8
0
 10
-11.8363
 20
-20.7607
 11
-11.6901
 21
-20.9164
  0
LINE
  8
0
 10
-11.6901
 20
-20.9164
 11
-11.5646
 21
-21.0891
  0
LINE
  8
0
 10
-11.5646
 20
-21.0891
 11
-11.4618
 21
-21.2762
  0
LINE
  8
0
 10
-11.4618
 20
-21.2762
 11
-11.3832
 21
-21.4747
  0
LINE
  8
0
 10
-11.3832
 20
-21.4747
 11
-11.3301
 21
-21.6814
  0
LINE
  8
0
 10
-11.3301
 20
-21.6814
 11
-11.3033
 21
-21.8932
  0
LINE
  8
0
 10
-11.3033
 20
-21.8932
 11
-11.3033
 21
-22.1067
  0
LINE
  8
0
 10
-11.3033
 20
-22.1067
 11
-11.3301
 21
-22.3185
  0
LINE
  8
0
 10
-11.3301
 20
-22.3185
 11
-11.3832
 21
-22.5253
  0
LINE
  8
0
 10
-11.3832
 20
-22.5253
 11
-11.4618
 21
-22.7238
  0
LINE
  8
0
 10
-11.4618
 20
-22.7238
 11
-11.5646
 21
-22.9109
  0
LINE
  8
0
 10
-11.5646
 20
-22.9109
 11
-11.6901
 21
-23.0836
  0
LINE
  8
0
 10
-11.6901
 20
-23.0836
 11
-11.8363
 21
-23.2392
  0
LINE
  8
0
 10
-11.8363
 20
-23.2392
 11
-12.0008
 21
-23.3753
  0
LINE
  8
0
 10
-12.0008
 20
-23.3753
 11
-12.181
 21
-23.4897
  0
LINE
  8
0
 10
-12.181
 20
-23.4897
 11
-12.3742
 21
-23.5806
  0
LINE
  8
0
 10
-12.3742
 20
-23.5806
 11
-12.5772
 21
-23.6466
  0
LINE
  8
0
 10
-12.5772
 20
-23.6466
 11
-12.7869
 21
-23.6866
  0
LINE
  8
0
 10
-12.7869
 20
-23.6866
 11
-13
 21
-23.7
  0
LINE
  8
0
 10
-13
 20
-23.7
 11
-13.2131
 21
-23.6866
  0
LINE
  8
0
 10
12.7869
 20
-23.6866
 11
12.5772
 21
-23.6466
  0
LINE
  8
0
 10
12.5772
 20
-23.6466
 11
12.3742
 21
-23.5806
  0
LINE
  8
0
 10
12.3742
 20
-23.5806
 11
12.181
 21
-23.4897
  0
LINE
  8
0
 10
12.181
 20
-23.4897
 11
12.0008
 21
-23.3753
  0
LINE
  8
0
 10
12.0008
 20
-23.3753
 11
11.8363
 21
-23.2392
  0
LINE
  8
0
 10
11.8363
 20
-23.2392
 11
11.6901
 21
-23.0836
  0
LINE
  8
0
 10
11.6901
 20
-23.0836
 11
11.5646
 21
-22.9109
  0
LINE
  8
0
 10
11.5646
 20
-22.9109
 11
11.4618
 21
-22.7238
  0
LINE
  8
0
 10
11.4618
 20
-22.7238
 11
11.3832
 21
-22.5253
  0
LINE
  8
0
 10
11.3832
 20
-22.5253
 11
11.3301
 21
-22.3185
  0
LINE
  8
0
 10
11.3301
 20
-22.3185
 11
11.3033
 21
-22.1067
  0
LINE
  8
0
 10
11.3033
 20
-22.1067
 11
11.3033
 21
-21.8932
  0
LINE
  8
0
 10
11.3033
 20
-21.8932
 11
11.3301
 21
-21.6814
  0
LINE
  8
0
 10
11.3301
 20
-21.6814
 11
11.3832
 21
-21.4747
  0
LINE
  8
0
 10
11.3832
 20
-21.4747
 11
11.4618
 21
-21.2762
  0
LINE
  8
0
 10
11.4618
 20
-21.2762
 11
11.5646
 21
-21.0891
  0
LINE
  8
0
 10
11.5646
 20
-21.0891
 11
11.6901
 21
-20.9164
  0
LINE
  8
0
 10
11.6901
 20
-20.9164
 11
11.8363
 21
-20.7607
  0
LINE
  8
0
 10
11.8363
 20
-20.7607
 11
12.0008
 21
-20.6247
  0
LINE
  8
0
 10
12.0008
 20
-20.6247
 11
12.181
 21
-20.5103
  0
LINE
  8
0
 10
12.181
 20
-20.5103
 11
12.3742
 21
-20.4194
  0
LINE
  8
0
 10
12.3742
 20
-20.4194
 11
12.5772
 21
-20.3534
  0
LINE
  8
0
 10
12.5772
 20
-20.3534
 11
12.7869
 21
-20.3134
  0
LINE
  8
0
 10
12.7869
 20
-20.3134
 11
13
 21
-20.3
  0
LINE
  8
0
 10
13
 20
-20.3
 11
13.2131
 21
-20.3134
  0
LINE
  8
0
 10
13.2131
 20
-20.3134
 11
13.4228
 21
-20.3534
  0
LINE
  8
0
 10
13.4228
 20
-20.3534
 11
13.6258
 21
-20.4194
  0
LINE
  8
0
 10
13.6258
 20
-20.4194
 11
13.819
 21
-20.5103
  0
LINE
  8
0
 10
13.819
 20
-20.5103
 11
13.9992
 21
-20.6247
  0
LINE
  8
0
 10
13.9992
 20
-20.6247
 11
14.1637
 21
-20.7607
  0
LINE
  8
0
 10
14.1637
 20
-20.7607
 11
14.3099
 21
-20.9164
  0
LINE
  8
0
 10
14.3099
 20
-20.9164
 11
14.4353
 21
-21.0891
  0
LINE
  8
0
 10
14.4353
 20
-21.0891
 11
14.5382
 21
-21.2762
  0
LINE
  8
0
 10
14.5382
 20
-21.2762
 11
14.6168
 21
-21.4747
  0
LINE
  8
0
 10
14.6168
 20
-21.4747
 11
14.6699
 21
-21.6814
  0
LINE
  8
0
 10
14.6699
 20
-21.6814
 11
14.6966
 21
-21.8932
  0
LINE
  8
0
 10
14.6966
 20
-21.8932
 11
14.6966
 21
-22.1067
  0
LINE
  8
0
 10
14.6966
 20
-22.1067
 11
14.6699
 21
-22.3185
  0
LINE
  8
0
 10
14.6699
 20
-22.3185
 11
14.6168
 21
-22.5253
  0
LINE
  8
0
 10
14.6168
 20
-22.5253
 11
14.5382
 21
-22.7238
  0
LINE
  8
0
 10
14.5382
 20
-22.7238
 11
14.4353
 21
-22.9109
  0
LINE
  8
0
 10
14.4353
 20
-22.9109
 11
14.3099
 21
-23.0836
  0
LINE
  8
0
 10
14.3099
 20
-23.0836
 11
14.1637
 21
-23.2392
  0
LINE
  8
0
 10
14.1637
 20
-23.2392
 11
13.9992
 21
-23.3753
  0
LINE
  8
0
 10
13.9992
 20
-23.3753
 11
13.819
 21
-23.4897
  0
LINE
  8
0
 10
13.819
 20
-23.4897
 11
13.6258
 21
-23.5806
  0
LINE
  8
0
 10
13.6258
 20
-23.5806
 11
13.4228
 21
-23.6466
  0
LINE
  8
0
 10
13.4228
 20
-23.6466
 11
13.2131
 21
-23.6866
  0
LINE
  8
0
 10
13.2131
 20
-23.6866
 11
13
 21
-23.7
  0
LINE
  8
0
 10
13
 20
-23.7
 11
12.7869
 21
-23.6866
  0
ENDSEC
  0
SECTION
  2
OBJECTS
  0
DICTIONARY
  0
ENDSEC
  0
EOF
