<?xml version="1.0" standalone="no"?>
<!DOCTYPE svg PUBLIC "-//W3C//DTD SVG 1.1//EN" "http://www.w3.org/Graphics/SVG/1.1/DTD/svg11.dtd">
<svg width="88mm" height="28mm" viewBox="-44 -14 88 28" xmlns="http://www.w3.org/2000/svg" version="1.1">
<title>OpenSCAD Model</title>
<path d="
M 39.7435,13.3429 L 40.9088,12.8815 L 41.9227,12.1448 L 42.7216,11.1791 L 43.2553,10.0451 L 43.5,8.5
 L 43.5,-8.5 L 43.3429,-9.74345 L 42.8815,-10.9088 L 42.1448,-11.9227 L 41.1791,-12.7216 L 40.0451,-13.2553
 L 38.5,-13.5 L -38.5,-13.5 L -39.7435,-13.3429 L -40.9088,-12.8815 L -41.9227,-12.1448 L -42.7216,-11.1791
 L -43.2553,-10.0451 L -43.5,-8.5 L -43.5,8.5 L -43.3429,9.74345 L -42.8815,10.9088 L -42.1448,11.9227
 L -41.1791,12.7216 L -40.0451,13.2553 L -38.5,13.5 L 38.5,13.5 z
M -38.0621,-4.55313 L -38.7773,-4.78551 L -39.4123,-5.18845 L -39.927,-5.73663 L -40.2893,-6.39561 L -40.4763,-7.12399
 L -40.4763,-7.87599 L -40.2893,-8.60437 L -39.927,-9.26335 L -39.4123,-9.81154 L -38.7773,-10.2145 L -38.0621,-10.4469
 L -37.3116,-10.4941 L -36.5729,-10.3532 L -35.8925,-10.033 L -35.3131,-9.55363 L -34.8711,-8.94525 L -34.5942,-8.24606
 L -34.5,-7.5 L -34.5942,-6.75392 L -34.8711,-6.05473 L -35.3131,-5.44635 L -35.8925,-4.96701 L -36.5729,-4.64682
 L -37.3116,-4.50591 z
M -18.1,7.79999 L -18.1,-7.79999 L 38.1,-7.79999 L 38.1,7.79999 z
M -38.0621,10.4469 L -38.7773,10.2145 L -39.4123,9.81154 L -39.927,9.26335 L -40.2893,8.60437 L -40.4763,7.87599
 L -40.4763,7.12399 L -40.2893,6.39561 L -39.927,5.73663 L -39.4123,5.18845 L -38.7773,4.78551 L -38.0621,4.55313
 L -37.3116,4.50591 L -36.5729,4.64682 L -35.8925,4.96701 L -35.3131,5.44635 L -34.8711,6.05473 L -34.5942,6.75392
 L -34.5,7.5 L -34.5942,8.24606 L -34.8711,8.94525 L -35.3131,9.55363 L -35.8925,10.033 L -36.5729,10.3532
 L -37.3116,10.4941 z
" stroke="black" fill="lightgray" stroke-width="0.5"/>
</svg>
