<?xml version="1.0" standalone="no"?>
<!DOCTYPE svg PUBLIC "-//W3C//DTD SVG 1.1//EN" "http://www.w3.org/Graphics/SVG/1.1/DTD/svg11.dtd">
<svg width="42mm" height="72mm" viewBox="-21 -36 42 72" xmlns="http://www.w3.org/2000/svg" version="1.1">
<title>OpenSCAD Model</title>
<path d="
M 17.2435,35.8429 L 18.4088,35.3815 L 19.4227,34.6448 L 20.2216,33.6791 L 20.7553,32.5451 L 21,31
 L 21,-31 L 20.8429,-32.2435 L 20.3815,-33.4088 L 19.6448,-34.4227 L 18.6791,-35.2216 L 17.5451,-35.7553
 L 16,-36 L -16,-36 L -17.2435,-35.8429 L -18.4088,-35.3815 L -19.4227,-34.6448 L -20.2216,-33.6791
 L -20.7553,-32.5451 L -21,-31 L -21,31 L -20.8429,32.2435 L -20.3815,33.4088 L -19.6448,34.4227
 L -18.6791,35.2216 L -17.5451,35.7553 L -16,36 L 16,36 z
M -0.373032,-26.5471 L -0.722626,-26.6855 L -1.02681,-26.9065 L -1.26648,-27.1963 L -1.42657,-27.5365 L -1.49704,-27.9058
 L -1.47342,-28.2811 L -1.35724,-28.6387 L -1.15576,-28.9561 L -0.881668,-29.2135 L -0.552185,-29.3947 L -0.187988,-29.4882
 L 0.187988,-29.4882 L 0.552185,-29.3947 L 0.881668,-29.2135 L 1.15576,-28.9561 L 1.35724,-28.6387 L 1.47342,-28.2811
 L 1.49704,-27.9058 L 1.42657,-27.5365 L 1.26648,-27.1963 L 1.02681,-26.9065 L 0.722626,-26.6855 L 0.373032,-26.5471
 L 0,-26.5 z
M -5,-15 L -5,-25 L 5,-25 L 5,-15 z
M -0.373032,-10.5471 L -0.722626,-10.6855 L -1.02681,-10.9065 L -1.26648,-11.1963 L -1.42657,-11.5365 L -1.49704,-11.9058
 L -1.47342,-12.2811 L -1.35724,-12.6387 L -1.15576,-12.9561 L -0.881668,-13.2135 L -0.552185,-13.3947 L -0.187988,-13.4882
 L 0.187988,-13.4882 L 0.552185,-13.3947 L 0.881668,-13.2135 L 1.15576,-12.9561 L 1.35724,-12.6387 L 1.47342,-12.2811
 L 1.49704,-11.9058 L 1.42657,-11.5365 L 1.26648,-11.1963 L 1.02681,-10.9065 L 0.722626,-10.6855 L 0.373032,-10.5471
 L 0,-10.5 z
M -10,26.5 L -10,3.5 L 10,3.5 L 10,26.5 z
M -13.188,9.48816 L -13.5522,9.39465 L -13.8817,9.21352 L -14.1558,8.95613 L -14.3572,8.63866 L -14.4734,8.28107
 L -14.497,7.90581 L -14.4266,7.53647 L -14.2665,7.19626 L -14.0268,6.90654 L -13.7226,6.68553 L -13.373,6.54712
 L -13,6.5 L -12.627,6.54712 L -12.2774,6.68553 L -11.9732,6.90654 L -11.7335,7.19626 L -11.5734,7.53647
 L -11.5029,7.90581 L -11.5266,8.28107 L -11.6427,8.63866 L -11.8442,8.95613 L -12.1183,9.21352 L -12.4478,9.39465
 L -12.812,9.48816 z
M 12.812,9.48816 L 12.4478,9.39465 L 12.1183,9.21352 L 11.8442,8.95613 L 11.6427,8.63866 L 11.5266,8.28107
 L 11.5029,7.90581 L 11.5734,7.53647 L 11.7335,7.19626 L 11.9732,6.90654 L 12.2774,6.68553 L 12.627,6.54712
 L 13,6.5 L 13.373,6.54712 L 13.7226,6.68553 L 14.0268,6.90654 L 14.2665,7.19626 L 14.4266,7.53647
 L 14.497,7.90581 L 14.4734,8.28107 L 14.3572,8.63866 L 14.1558,8.95613 L 13.8817,9.21352 L 13.5522,9.39465
 L 13.188,9.48816 z
M 12.812,23.4882 L 12.4478,23.3947 L 12.1183,23.2135 L 11.8442,22.9561 L 11.6427,22.6387 L 11.5266,22.2811
 L 11.5029,21.9058 L 11.5734,21.5365 L 11.7335,21.1963 L 11.9732,20.9065 L 12.2774,20.6855 L 12.627,20.5471
 L 13,20.5 L 13.373,20.5471 L 13.7226,20.6855 L 14.0268,20.9065 L 14.2665,21.1963 L 14.4266,21.5365
 L 14.497,21.9058 L 14.4734,22.2811 L 14.3572,22.6387 L 14.1558,22.9561 L 13.8817,23.2135 L 13.5522,23.3947
 L 13.188,23.4882 z
M -13.188,23.4882 L -13.5522,23.3947 L -13.8817,23.2135 L -14.1558,22.9561 L -14.3572,22.6387 L -14.4734,22.2811
 L -14.497,21.9058 L -14.4266,21.5365 L -14.2665,21.1963 L -14.0268,20.9065 L -13.7226,20.6855 L -13.373,20.5471
 L -13,20.5 L -12.627,20.5471 L -12.2774,20.6855 L -11.9732,20.9065 L -11.7335,21.1963 L -11.5734,21.5365
 L -11.5029,21.9058 L -11.5266,22.2811 L -11.6427,22.6387 L -11.8442,22.9561 L -12.1183,23.2135 L -12.4478,23.3947
 L -12.812,23.4882 z
" stroke="black" fill="lightgray" stroke-width="0.5"/>
</svg>
