<?xml version="1.0" standalone="no"?>
<!DOCTYPE svg PUBLIC "-//W3C//DTD SVG 1.1//EN" "http://www.w3.org/Graphics/SVG/1.1/DTD/svg11.dtd">
<svg width="16mm" height="72mm" viewBox="-8 -36 16 72" xmlns="http://www.w3.org/2000/svg" version="1.1">
<title>OpenSCAD Model</title>
<path d="
M 3.74345,35.8429 L 4.90877,35.3815 L 5.92273,34.6448 L 6.72163,33.6791 L 7.25528,32.5451 L 7.5,31
 L 7.5,-31 L 7.34291,-32.2435 L 6.88153,-33.4088 L 6.14484,-34.4227 L 5.17914,-35.2216 L 4.04509,-35.7553
 L 2.5,-36 L -2.5,-36 L -3.74345,-35.8429 L -4.90877,-35.3815 L -5.92273,-34.6448 L -6.72163,-33.6791
 L -7.25528,-32.5451 L -7.5,-31 L -7.5,-10.7 L 4.89999,-10.7 L 4.89999,10.7 L -7.5,10.7
 L -7.5,31 L -7.34291,32.2435 L -6.88153,33.4088 L -6.14484,34.4227 L -5.17914,35.2216 L -4.04509,35.7553
 L -2.5,36 L 2.5,36 z
" stroke="black" fill="lightgray" stroke-width="0.5"/>
</svg>
