<?xml version="1.0" standalone="no"?>
<!DOCTYPE svg PUBLIC "-//W3C//DTD SVG 1.1//EN" "http://www.w3.org/Graphics/SVG/1.1/DTD/svg11.dtd">
<svg width="72mm" height="73mm" viewBox="-36 -44 72 73" xmlns="http://www.w3.org/2000/svg" version="1.1">
<title>OpenSCAD Model</title>
<path d="
M 32.2435,28.3429 L 33.4088,27.8815 L 34.4227,27.1448 L 35.2216,26.1791 L 35.7553,25.0451 L 36,23.5
 L 36,-38.5 L 35.8429,-39.7435 L 35.3815,-40.9088 L 34.6448,-41.9227 L 33.6791,-42.7216 L 32.5451,-43.2553
 L 31,-43.5 L -31,-43.5 L -32.2435,-43.3429 L -33.4088,-42.8815 L -34.4227,-42.1448 L -35.2216,-41.1791
 L -35.7553,-40.0451 L -36,-38.5 L -36,23.5 L -35.8429,24.7435 L -35.3815,25.9088 L -34.6448,26.9227
 L -33.6791,27.7216 L -32.5451,28.2553 L -31,28.5 L 31,28.5 z
M -30.5621,-34.5531 L -31.2773,-34.7855 L -31.9123,-35.1885 L -32.427,-35.7366 L -32.7893,-36.3956 L -32.9763,-37.124
 L -32.9763,-37.876 L -32.7893,-38.6044 L -32.427,-39.2634 L -31.9123,-39.8115 L -31.2773,-40.2145 L -30.5621,-40.4469
 L -29.8116,-40.4941 L -29.0729,-40.3532 L -28.3925,-40.033 L -27.8131,-39.5536 L -27.3711,-38.9453 L -27.0942,-38.2461
 L -27,-37.5 L -27.0942,-36.7539 L -27.3711,-36.0547 L -27.8131,-35.4464 L -28.3925,-34.967 L -29.0729,-34.6468
 L -29.8116,-34.5059 z
M 14.4379,-34.5531 L 13.7227,-34.7855 L 13.0877,-35.1885 L 12.5729,-35.7366 L 12.2107,-36.3956 L 12.0237,-37.124
 L 12.0237,-37.876 L 12.2107,-38.6044 L 12.5729,-39.2634 L 13.0877,-39.8115 L 13.7227,-40.2145 L 14.4379,-40.4469
 L 15.1884,-40.4941 L 15.927,-40.3532 L 16.6075,-40.033 L 17.1869,-39.5536 L 17.6289,-38.9453 L 17.9057,-38.2461
 L 18,-37.5 L 17.9057,-36.7539 L 17.6289,-36.0547 L 17.1869,-35.4464 L 16.6075,-34.967 L 15.927,-34.6468
 L 15.1884,-34.5059 z
M -15.5621,-34.5531 L -16.2773,-34.7855 L -16.9123,-35.1885 L -17.427,-35.7366 L -17.7893,-36.3956 L -17.9763,-37.124
 L -17.9763,-37.876 L -17.7893,-38.6044 L -17.427,-39.2634 L -16.9123,-39.8115 L -16.2773,-40.2145 L -15.5621,-40.4469
 L -14.8116,-40.4941 L -14.0729,-40.3532 L -13.3925,-40.033 L -12.8131,-39.5536 L -12.3711,-38.9453 L -12.0942,-38.2461
 L -12,-37.5 L -12.0942,-36.7539 L -12.3711,-36.0547 L -12.8131,-35.4464 L -13.3925,-34.967 L -14.0729,-34.6468
 L -14.8116,-34.5059 z
M -0.562134,-34.5531 L -1.27733,-34.7855 L -1.91226,-35.1885 L -2.42705,-35.7366 L -2.78932,-36.3956 L -2.97633,-37.124
 L -2.97633,-37.876 L -2.78932,-38.6044 L -2.42705,-39.2634 L -1.91226,-39.8115 L -1.27733,-40.2145 L -0.562134,-40.4469
 L 0.18837,-40.4941 L 0.927048,-40.3532 L 1.60747,-40.033 L 2.1869,-39.5536 L 2.62891,-38.9453 L 2.90575,-38.2461
 L 3,-37.5 L 2.90575,-36.7539 L 2.62891,-36.0547 L 2.1869,-35.4464 L 1.60747,-34.967 L 0.927048,-34.6468
 L 0.18837,-34.5059 z
M 29.4379,-34.5531 L 28.7227,-34.7855 L 28.0877,-35.1885 L 27.5729,-35.7366 L 27.2107,-36.3956 L 27.0237,-37.124
 L 27.0237,-37.876 L 27.2107,-38.6044 L 27.5729,-39.2634 L 28.0877,-39.8115 L 28.7227,-40.2145 L 29.4379,-40.4469
 L 30.1884,-40.4941 L 30.927,-40.3532 L 31.6075,-40.033 L 32.1869,-39.5536 L 32.6289,-38.9453 L 32.9057,-38.2461
 L 33,-37.5 L 32.9057,-36.7539 L 32.6289,-36.0547 L 32.1869,-35.4464 L 31.6075,-34.967 L 30.927,-34.6468
 L 30.1884,-34.5059 z
M -20.4369,-15.1385 L -21.6289,-15.5259 L -22.6871,-16.1974 L -23.5451,-17.1111 L -24.1489,-18.2094 L -24.4606,-19.4233
 L -24.4606,-20.6767 L -24.1489,-21.8906 L -23.5451,-22.9889 L -22.6871,-23.9026 L -21.6289,-24.5741 L -20.4369,-24.9614
 L -19.186,-25.0401 L -17.9549,-24.8053 L -16.8209,-24.2716 L -15.8551,-23.4727 L -15.1185,-22.4588 L -14.6571,-21.2934
 L -14.5,-20.05 L -14.6571,-18.8065 L -15.1185,-17.6412 L -15.8551,-16.6273 L -16.8209,-15.8284 L -17.9549,-15.2947
 L -19.186,-15.0599 z
M 19.5631,-15.1385 L 18.3711,-15.5259 L 17.3129,-16.1974 L 16.4549,-17.1111 L 15.8511,-18.2094 L 15.5394,-19.4233
 L 15.5394,-20.6767 L 15.8511,-21.8906 L 16.4549,-22.9889 L 17.3129,-23.9026 L 18.3711,-24.5741 L 19.5631,-24.9614
 L 20.8139,-25.0401 L 22.0451,-24.8053 L 23.1791,-24.2716 L 24.1448,-23.4727 L 24.8815,-22.4588 L 25.3429,-21.2934
 L 25.5,-20.05 L 25.3429,-18.8065 L 24.8815,-17.6412 L 24.1448,-16.6273 L 23.1791,-15.8284 L 22.0451,-15.2947
 L 20.8139,-15.0599 z
M -1.28107,-16.1266 L -1.63866,-16.2428 L -1.95613,-16.4442 L -2.21352,-16.7183 L -2.39465,-17.0478 L -2.48816,-17.412
 L -2.48816,-17.788 L -2.39465,-18.1522 L -2.21352,-18.4817 L -1.95613,-18.7558 L -1.63866,-18.9572 L -1.28107,-19.0734
 L -0.905807,-19.097 L -0.536469,-19.0266 L -0.196259,-18.8665 L 0.0934448,-18.6268 L 0.314453,-18.3226 L 0.452866,-17.973
 L 0.5,-17.6 L 0.452866,-17.227 L 0.314453,-16.8774 L 0.0934448,-16.5732 L -0.196259,-16.3335 L -0.536469,-16.1734
 L -0.905807,-16.103 z
M 23.4379,-4.55313 L 22.7227,-4.78551 L 22.0877,-5.18845 L 21.5729,-5.73663 L 21.2107,-6.39561 L 21.0237,-7.12399
 L 21.0237,-7.87599 L 21.2107,-8.60437 L 21.5729,-9.26335 L 22.0877,-9.81154 L 22.7227,-10.2145 L 23.4379,-10.4469
 L 24.1884,-10.4941 L 24.927,-10.3532 L 25.6075,-10.033 L 26.1869,-9.55363 L 26.6289,-8.94525 L 26.9057,-8.24606
 L 27,-7.5 L 26.9057,-6.75392 L 26.6289,-6.05473 L 26.1869,-5.44635 L 25.6075,-4.96701 L 24.927,-4.64682
 L 24.1884,-4.50591 z
M 9.43785,-4.55313 L 8.72266,-4.78551 L 8.08772,-5.18845 L 7.57294,-5.73663 L 7.21066,-6.39561 L 7.02365,-7.12399
 L 7.02365,-7.87599 L 7.21066,-8.60437 L 7.57294,-9.26335 L 8.08772,-9.81154 L 8.72266,-10.2145 L 9.43785,-10.4469
 L 10.1884,-10.4941 L 10.927,-10.3532 L 11.6075,-10.033 L 12.1869,-9.55363 L 12.6289,-8.94525 L 12.9057,-8.24606
 L 13,-7.5 L 12.9057,-6.75392 L 12.6289,-6.05473 L 12.1869,-5.44635 L 11.6075,-4.96701 L 10.927,-4.64682
 L 10.1884,-4.50591 z
M -18.7811,2.77342 L -19.1387,2.65723 L -19.4561,2.45576 L -19.7135,2.18167 L -19.8947,1.85217 L -19.9882,1.48799
 L -19.9882,1.112 L -19.8947,0.747803 L -19.7135,0.41832 L -19.4561,0.144226 L -19.1387,-0.0572357 L -18.7811,-0.173416
 L -18.4058,-0.197037 L -18.0365,-0.126572 L -17.6963,0.033493 L -17.4065,0.273178 L -17.1855,0.577362 L -17.0471,0.926956
 L -17,1.29999 L -17.0471,1.67303 L -17.1855,2.02263 L -17.4065,2.32681 L -17.6963,2.56648 L -18.0365,2.72658
 L -18.4058,2.79703 z
M -0.436905,25.0614 L -1.62889,24.6741 L -2.68712,24.0026 L -3.54507,23.0889 L -4.14888,21.9906 L -4.46057,20.7767
 L -4.46057,19.5233 L -4.14888,18.3094 L -3.54507,17.2111 L -2.68712,16.2974 L -1.62889,15.6259 L -0.436905,15.2386
 L 0.81395,15.1599 L 2.04507,15.3947 L 3.17912,15.9284 L 4.14484,16.7273 L 4.88153,17.7412 L 5.34291,18.9065
 L 5.5,20.15 L 5.34291,21.3934 L 4.88153,22.5588 L 4.14484,23.5727 L 3.17912,24.3716 L 2.04507,24.9053
 L 0.81395,25.1401 z
M -30.5621,25.4469 L -31.2773,25.2145 L -31.9123,24.8115 L -32.427,24.2634 L -32.7893,23.6044 L -32.9763,22.876
 L -32.9763,22.124 L -32.7893,21.3956 L -32.427,20.7366 L -31.9123,20.1884 L -31.2773,19.7855 L -30.5621,19.5531
 L -29.8116,19.5059 L -29.0729,19.6468 L -28.3925,19.967 L -27.8131,20.4464 L -27.3711,21.0547 L -27.0942,21.7539
 L -27,22.5 L -27.0942,23.2461 L -27.3711,23.9453 L -27.8131,24.5536 L -28.3925,25.033 L -29.0729,25.3532
 L -29.8116,25.4941 z
M -15.5621,25.4469 L -16.2773,25.2145 L -16.9123,24.8115 L -17.427,24.2634 L -17.7893,23.6044 L -17.9763,22.876
 L -17.9763,22.124 L -17.7893,21.3956 L -17.427,20.7366 L -16.9123,20.1884 L -16.2773,19.7855 L -15.5621,19.5531
 L -14.8116,19.5059 L -14.0729,19.6468 L -13.3925,19.967 L -12.8131,20.4464 L -12.3711,21.0547 L -12.0942,21.7539
 L -12,22.5 L -12.0942,23.2461 L -12.3711,23.9453 L -12.8131,24.5536 L -13.3925,25.033 L -14.0729,25.3532
 L -14.8116,25.4941 z
M 14.4379,25.4469 L 13.7227,25.2145 L 13.0877,24.8115 L 12.5729,24.2634 L 12.2107,23.6044 L 12.0237,22.876
 L 12.0237,22.124 L 12.2107,21.3956 L 12.5729,20.7366 L 13.0877,20.1884 L 13.7227,19.7855 L 14.4379,19.5531
 L 15.1884,19.5059 L 15.927,19.6468 L 16.6075,19.967 L 17.1869,20.4464 L 17.6289,21.0547 L 17.9057,21.7539
 L 18,22.5 L 17.9057,23.2461 L 17.6289,23.9453 L 17.1869,24.5536 L 16.6075,25.033 L 15.927,25.3532
 L 15.1884,25.4941 z
M 29.4379,25.4469 L 28.7227,25.2145 L 28.0877,24.8115 L 27.5729,24.2634 L 27.2107,23.6044 L 27.0237,22.876
 L 27.0237,22.124 L 27.2107,21.3956 L 27.5729,20.7366 L 28.0877,20.1884 L 28.7227,19.7855 L 29.4379,19.5531
 L 30.1884,19.5059 L 30.927,19.6468 L 31.6075,19.967 L 32.1869,20.4464 L 32.6289,21.0547 L 32.9057,21.7539
 L 33,22.5 L 32.9057,23.2461 L 32.6289,23.9453 L 32.1869,24.5536 L 31.6075,25.033 L 30.927,25.3532
 L 30.1884,25.4941 z
" stroke="black" fill="lightgray" stroke-width="0.5"/>
</svg>
