solid OpenSCAD_Model
  facet normal -0 0 1
    outer loop
      vertex -43.13 -6.525 0
      vertex -28.25 -9.75 0
      vertex -28.25 -6.525 0
    endloop
  endfacet
  facet normal 0 0 1
    outer loop
      vertex -28.25 -9.75 0
      vertex -41.8521 -21.6918 0
      vertex -41.75 -22.5 0
    endloop
  endfacet
  facet normal 0 0 1
    outer loop
      vertex -28.25 -9.75 0
      vertex -42.152 -20.9343 0
      vertex -41.8521 -21.6918 0
    endloop
  endfacet
  facet normal 0 0 1
    outer loop
      vertex -28.25 -9.75 0
      vertex -42.6309 -20.2752 0
      vertex -42.152 -20.9343 0
    endloop
  endfacet
  facet normal 0 0 1
    outer loop
      vertex -28.25 -9.75 0
      vertex -43.13 -6.525 0
      vertex -42.6309 -20.2752 0
    endloop
  endfacet
  facet normal 0 0 1
    outer loop
      vertex -43.13 -6.525 0
      vertex -43.2586 -19.7559 0
      vertex -42.6309 -20.2752 0
    endloop
  endfacet
  facet normal -0 0 1
    outer loop
      vertex -44.7959 19.2564 0
      vertex -43.13 6.525 0
      vertex -43.9957 19.4091 0
    endloop
  endfacet
  facet normal 0 0 1
    outer loop
      vertex -45.609 19.3076 0
      vertex -43.13 6.525 0
      vertex -44.7959 19.2564 0
    endloop
  endfacet
  facet normal 0 0 1
    outer loop
      vertex -43.13 -6.525 0
      vertex -43.9957 -19.4091 0
      vertex -43.2586 -19.7559 0
    endloop
  endfacet
  facet normal 0 0 1
    outer loop
      vertex -46.3838 19.5593 0
      vertex -43.13 6.525 0
      vertex -45.609 19.3076 0
    endloop
  endfacet
  facet normal 0 0 1
    outer loop
      vertex -43.13 -6.525 0
      vertex -44.7959 -19.2564 0
      vertex -43.9957 -19.4091 0
    endloop
  endfacet
  facet normal 0 0 1
    outer loop
      vertex -47.0716 19.9958 0
      vertex -43.13 6.525 0
      vertex -46.3838 19.5593 0
    endloop
  endfacet
  facet normal 0 0 1
    outer loop
      vertex -43.13 -6.525 0
      vertex -45.609 -19.3076 0
      vertex -44.7959 -19.2564 0
    endloop
  endfacet
  facet normal 0 0 1
    outer loop
      vertex -47.6293 20.5897 0
      vertex -43.13 6.525 0
      vertex -47.0716 19.9958 0
    endloop
  endfacet
  facet normal 0 0 1
    outer loop
      vertex -43.13 -6.525 0
      vertex -46.3838 -19.5593 0
      vertex -45.609 -19.3076 0
    endloop
  endfacet
  facet normal 0 0 1
    outer loop
      vertex -43.13 6.525 0
      vertex -51 23.5 0
      vertex -43.13 -6.525 0
    endloop
  endfacet
  facet normal 0 0 1
    outer loop
      vertex -43.13 -6.525 0
      vertex -47.0716 -19.9958 0
      vertex -46.3838 -19.5593 0
    endloop
  endfacet
  facet normal 0 0 1
    outer loop
      vertex -43.13 6.525 0
      vertex -47.6293 20.5897 0
      vertex -51 23.5 0
    endloop
  endfacet
  facet normal 0 0 1
    outer loop
      vertex -51 -23.5 0
      vertex -43.13 -6.525 0
      vertex -51 23.5 0
    endloop
  endfacet
  facet normal 0 0 1
    outer loop
      vertex -51 23.5 0
      vertex -47.6293 20.5897 0
      vertex -48.0218 21.3036 0
    endloop
  endfacet
  facet normal 0 -0 1
    outer loop
      vertex -47.6293 -20.5897 0
      vertex -43.13 -6.525 0
      vertex -51 -23.5 0
    endloop
  endfacet
  facet normal 0 0 1
    outer loop
      vertex -51 23.5 0
      vertex -48.0218 21.3036 0
      vertex -48.2244 22.0927 0
    endloop
  endfacet
  facet normal 0 0 1
    outer loop
      vertex -43.13 -6.525 0
      vertex -47.6293 -20.5897 0
      vertex -47.0716 -19.9958 0
    endloop
  endfacet
  facet normal 0 0 1
    outer loop
      vertex 47.3691 20.2752 0
      vertex 51 23.5 0
      vertex 47.848 20.9343 0
    endloop
  endfacet
  facet normal 0 0 1
    outer loop
      vertex 51 -23.5 0
      vertex 48.1479 -21.6918 0
      vertex 48.25 -22.5 0
    endloop
  endfacet
  facet normal 0 0 1
    outer loop
      vertex 39.7175 4.25 0
      vertex 51 23.5 0
      vertex 47.3691 20.2752 0
    endloop
  endfacet
  facet normal 0 0 1
    outer loop
      vertex 51 -23.5 0
      vertex 47.848 -20.9343 0
      vertex 48.1479 -21.6918 0
    endloop
  endfacet
  facet normal 0 0 1
    outer loop
      vertex 51 23.5 0
      vertex 39.7175 4.25 0
      vertex 51 -23.5 0
    endloop
  endfacet
  facet normal 0 0 1
    outer loop
      vertex 51 -23.5 0
      vertex 47.3691 -20.2752 0
      vertex 47.848 -20.9343 0
    endloop
  endfacet
  facet normal 0 0 1
    outer loop
      vertex 39.7175 4.25 0
      vertex 47.3691 20.2752 0
      vertex 46.7414 19.7559 0
    endloop
  endfacet
  facet normal -0 0 1
    outer loop
      vertex 39.7175 -4.25 0
      vertex 51 -23.5 0
      vertex 39.7175 4.25 0
    endloop
  endfacet
  facet normal 0 0 1
    outer loop
      vertex 39.25 9.75 0
      vertex 46.7414 19.7559 0
      vertex 46.0043 19.4091 0
    endloop
  endfacet
  facet normal 0 0 1
    outer loop
      vertex 51 -23.5 0
      vertex 39.7175 -4.25 0
      vertex 47.3691 -20.2752 0
    endloop
  endfacet
  facet normal 0 0 1
    outer loop
      vertex 39.25 9.75 0
      vertex 46.0043 19.4091 0
      vertex 45.2041 19.2564 0
    endloop
  endfacet
  facet normal 0 0 1
    outer loop
      vertex 47.3691 -20.2752 0
      vertex 39.7175 -4.25 0
      vertex 46.7414 -19.7559 0
    endloop
  endfacet
  facet normal 0 0 1
    outer loop
      vertex 39.25 9.75 0
      vertex 45.2041 19.2564 0
      vertex 44.391 19.3076 0
    endloop
  endfacet
  facet normal -0 0 1
    outer loop
      vertex 39.25 -9.75 0
      vertex 46.7414 -19.7559 0
      vertex 39.7175 -4.25 0
    endloop
  endfacet
  facet normal 0 0 1
    outer loop
      vertex 39.25 9.75 0
      vertex 44.391 19.3076 0
      vertex 43.6162 19.5593 0
    endloop
  endfacet
  facet normal 0 0 1
    outer loop
      vertex 46.7414 -19.7559 0
      vertex 39.25 -9.75 0
      vertex 46.0043 -19.4091 0
    endloop
  endfacet
  facet normal 0 0 1
    outer loop
      vertex 39.25 9.75 0
      vertex 43.6162 19.5593 0
      vertex 42.9284 19.9958 0
    endloop
  endfacet
  facet normal 0 0 1
    outer loop
      vertex 46.0043 -19.4091 0
      vertex 39.25 -9.75 0
      vertex 45.2041 -19.2564 0
    endloop
  endfacet
  facet normal 0 0 1
    outer loop
      vertex 39.25 9.75 0
      vertex 42.9284 19.9958 0
      vertex 42.3707 20.5897 0
    endloop
  endfacet
  facet normal 0 0 1
    outer loop
      vertex 45.2041 -19.2564 0
      vertex 39.25 -9.75 0
      vertex 44.391 -19.3076 0
    endloop
  endfacet
  facet normal 0 0 1
    outer loop
      vertex 39.25 9.75 0
      vertex 42.3707 20.5897 0
      vertex 41.9782 21.3036 0
    endloop
  endfacet
  facet normal 0 0 1
    outer loop
      vertex 44.391 -19.3076 0
      vertex 39.25 -9.75 0
      vertex 43.6162 -19.5593 0
    endloop
  endfacet
  facet normal 0 0 1
    outer loop
      vertex 39.25 9.75 0
      vertex 41.9782 21.3036 0
      vertex 41.7756 22.0927 0
    endloop
  endfacet
  facet normal 0 0 1
    outer loop
      vertex 43.6162 -19.5593 0
      vertex 39.25 -9.75 0
      vertex 42.9284 -19.9958 0
    endloop
  endfacet
  facet normal 0 0 1
    outer loop
      vertex 48.1479 23.3082 0
      vertex 51 23.5 0
      vertex 50.8429 24.7435 0
    endloop
  endfacet
  facet normal 0 0 1
    outer loop
      vertex 48.1479 21.6918 0
      vertex 51 23.5 0
      vertex 48.25 22.5 0
    endloop
  endfacet
  facet normal 0 0 1
    outer loop
      vertex 47.848 24.0657 0
      vertex 50.8429 24.7435 0
      vertex 50.3815 25.9088 0
    endloop
  endfacet
  facet normal 0 0 1
    outer loop
      vertex 47.848 20.9343 0
      vertex 51 23.5 0
      vertex 48.1479 21.6918 0
    endloop
  endfacet
  facet normal 0 0 1
    outer loop
      vertex 47.3691 24.7248 0
      vertex 50.3815 25.9088 0
      vertex 49.6448 26.9227 0
    endloop
  endfacet
  facet normal -0 0 1
    outer loop
      vertex 48.1479 -23.3082 0
      vertex 51 -23.5 0
      vertex 48.25 -22.5 0
    endloop
  endfacet
  facet normal 0 0 1
    outer loop
      vertex 47.3691 24.7248 0
      vertex 49.6448 26.9227 0
      vertex 48.6791 27.7216 0
    endloop
  endfacet
  facet normal 0 0 1
    outer loop
      vertex 51 -23.5 0
      vertex 48.1479 -23.3082 0
      vertex 50.7553 -25.0451 0
    endloop
  endfacet
  facet normal -0 0 1
    outer loop
      vertex 47.848 -24.0657 0
      vertex 50.7553 -25.0451 0
      vertex 48.1479 -23.3082 0
    endloop
  endfacet
  facet normal 0 0 1
    outer loop
      vertex 51 23.5 0
      vertex 48.1479 23.3082 0
      vertex 48.25 22.5 0
    endloop
  endfacet
  facet normal 0 0 1
    outer loop
      vertex 50.8429 24.7435 0
      vertex 47.848 24.0657 0
      vertex 48.1479 23.3082 0
    endloop
  endfacet
  facet normal 0 0 1
    outer loop
      vertex 46.7414 25.2441 0
      vertex 48.6791 27.7216 0
      vertex 47.5451 28.2553 0
    endloop
  endfacet
  facet normal 0 0 1
    outer loop
      vertex 50.3815 25.9088 0
      vertex 47.3691 24.7248 0
      vertex 47.848 24.0657 0
    endloop
  endfacet
  facet normal 0 0 1
    outer loop
      vertex 48.6791 27.7216 0
      vertex 46.7414 25.2441 0
      vertex 47.3691 24.7248 0
    endloop
  endfacet
  facet normal 0 0 1
    outer loop
      vertex 47.5451 28.2553 0
      vertex 46.0043 25.5909 0
      vertex 46.7414 25.2441 0
    endloop
  endfacet
  facet normal 0 0 1
    outer loop
      vertex 46 28.5 0
      vertex 46.0043 25.5909 0
      vertex 47.5451 28.2553 0
    endloop
  endfacet
  facet normal 0 0 1
    outer loop
      vertex 46 28.5 0
      vertex 45.2041 25.7436 0
      vertex 46.0043 25.5909 0
    endloop
  endfacet
  facet normal 0 0 1
    outer loop
      vertex 46 28.5 0
      vertex 44.391 25.6924 0
      vertex 45.2041 25.7436 0
    endloop
  endfacet
  facet normal 0 0 1
    outer loop
      vertex 46 28.5 0
      vertex 43.6162 25.4407 0
      vertex 44.391 25.6924 0
    endloop
  endfacet
  facet normal 0 0 1
    outer loop
      vertex 46 28.5 0
      vertex 42.9284 25.0042 0
      vertex 43.6162 25.4407 0
    endloop
  endfacet
  facet normal 0 0 1
    outer loop
      vertex -42.6309 24.7248 0
      vertex 42.9284 25.0042 0
      vertex 46 28.5 0
    endloop
  endfacet
  facet normal 0 0 1
    outer loop
      vertex 39.25 9.75 0
      vertex 41.7756 22.0927 0
      vertex 41.7756 22.9073 0
    endloop
  endfacet
  facet normal 0 0 1
    outer loop
      vertex 42.9284 -19.9958 0
      vertex 39.25 -9.75 0
      vertex 42.3707 -20.5897 0
    endloop
  endfacet
  facet normal 0 0 1
    outer loop
      vertex 42.3707 -20.5897 0
      vertex 39.25 -9.75 0
      vertex 41.9782 -21.3036 0
    endloop
  endfacet
  facet normal 0 0 1
    outer loop
      vertex 46.7414 19.7559 0
      vertex 39.25 9.75 0
      vertex 39.7175 4.25 0
    endloop
  endfacet
  facet normal 0 0 1
    outer loop
      vertex 41.7756 22.9073 0
      vertex -28.25 9.75 0
      vertex 39.25 9.75 0
    endloop
  endfacet
  facet normal 0 0 1
    outer loop
      vertex 41.9782 23.6964 0
      vertex -28.25 9.75 0
      vertex 41.7756 22.9073 0
    endloop
  endfacet
  facet normal 0 0 1
    outer loop
      vertex 42.3707 24.4103 0
      vertex -28.25 9.75 0
      vertex 41.9782 23.6964 0
    endloop
  endfacet
  facet normal 0 0 1
    outer loop
      vertex 42.9284 25.0042 0
      vertex -42.6309 24.7248 0
      vertex 42.3707 24.4103 0
    endloop
  endfacet
  facet normal -0 0 1
    outer loop
      vertex -41.8521 21.6918 0
      vertex -28.25 9.75 0
      vertex -41.75 22.5 0
    endloop
  endfacet
  facet normal 0 0 1
    outer loop
      vertex 42.3707 24.4103 0
      vertex -42.152 24.0657 0
      vertex -28.25 9.75 0
    endloop
  endfacet
  facet normal 0 0 1
    outer loop
      vertex -28.25 9.75 0
      vertex -41.8521 23.3082 0
      vertex -41.75 22.5 0
    endloop
  endfacet
  facet normal 0 0 1
    outer loop
      vertex -28.25 9.75 0
      vertex -42.152 24.0657 0
      vertex -41.8521 23.3082 0
    endloop
  endfacet
  facet normal 0 0 1
    outer loop
      vertex 42.3707 24.4103 0
      vertex -42.6309 24.7248 0
      vertex -42.152 24.0657 0
    endloop
  endfacet
  facet normal -0 0 1
    outer loop
      vertex -46 28.5 0
      vertex -42.6309 24.7248 0
      vertex 46 28.5 0
    endloop
  endfacet
  facet normal 0 0 1
    outer loop
      vertex -42.6309 24.7248 0
      vertex -46 28.5 0
      vertex -43.2586 25.2441 0
    endloop
  endfacet
  facet normal 0 0 1
    outer loop
      vertex -43.2586 25.2441 0
      vertex -46 28.5 0
      vertex -43.9957 25.5909 0
    endloop
  endfacet
  facet normal 0 0 1
    outer loop
      vertex -43.9957 25.5909 0
      vertex -46 28.5 0
      vertex -44.7959 25.7436 0
    endloop
  endfacet
  facet normal 0 0 1
    outer loop
      vertex -46 28.5 0
      vertex -45.609 25.6924 0
      vertex -44.7959 25.7436 0
    endloop
  endfacet
  facet normal -0 0 1
    outer loop
      vertex -47.2435 28.3429 0
      vertex -45.609 25.6924 0
      vertex -46 28.5 0
    endloop
  endfacet
  facet normal 0 0 1
    outer loop
      vertex -45.609 25.6924 0
      vertex -47.2435 28.3429 0
      vertex -46.3838 25.4407 0
    endloop
  endfacet
  facet normal -0 0 1
    outer loop
      vertex -48.4088 27.8815 0
      vertex -46.3838 25.4407 0
      vertex -47.2435 28.3429 0
    endloop
  endfacet
  facet normal 0 0 1
    outer loop
      vertex -46.3838 25.4407 0
      vertex -48.4088 27.8815 0
      vertex -47.0716 25.0042 0
    endloop
  endfacet
  facet normal -0 0 1
    outer loop
      vertex -49.4227 27.1448 0
      vertex -47.0716 25.0042 0
      vertex -48.4088 27.8815 0
    endloop
  endfacet
  facet normal 0 0 1
    outer loop
      vertex -47.0716 25.0042 0
      vertex -49.4227 27.1448 0
      vertex -47.6293 24.4103 0
    endloop
  endfacet
  facet normal 0 0 1
    outer loop
      vertex -51 23.5 0
      vertex -48.2244 22.0927 0
      vertex -48.2244 22.9073 0
    endloop
  endfacet
  facet normal 0 0 1
    outer loop
      vertex -47.6293 -20.5897 0
      vertex -51 -23.5 0
      vertex -48.0218 -21.3036 0
    endloop
  endfacet
  facet normal -0 0 1
    outer loop
      vertex -50.7553 25.0451 0
      vertex -47.6293 24.4103 0
      vertex -50.2216 26.1791 0
    endloop
  endfacet
  facet normal -0 0 1
    outer loop
      vertex -50.2216 26.1791 0
      vertex -47.6293 24.4103 0
      vertex -49.4227 27.1448 0
    endloop
  endfacet
  facet normal 0 0 1
    outer loop
      vertex 50.7553 -25.0451 0
      vertex 47.848 -24.0657 0
      vertex 50.2216 -26.1791 0
    endloop
  endfacet
  facet normal -0 0 1
    outer loop
      vertex 47.3691 -24.7248 0
      vertex 50.2216 -26.1791 0
      vertex 47.848 -24.0657 0
    endloop
  endfacet
  facet normal 0 0 1
    outer loop
      vertex 50.2216 -26.1791 0
      vertex 47.3691 -24.7248 0
      vertex 49.4227 -27.1448 0
    endloop
  endfacet
  facet normal -0 0 1
    outer loop
      vertex 46.7414 -25.2441 0
      vertex 49.4227 -27.1448 0
      vertex 47.3691 -24.7248 0
    endloop
  endfacet
  facet normal 0 0 1
    outer loop
      vertex 49.4227 -27.1448 0
      vertex 46.7414 -25.2441 0
      vertex 48.4088 -27.8815 0
    endloop
  endfacet
  facet normal 0 0 1
    outer loop
      vertex 48.4088 -27.8815 0
      vertex 46.7414 -25.2441 0
      vertex 47.2435 -28.3429 0
    endloop
  endfacet
  facet normal -0 0 1
    outer loop
      vertex 46.0043 -25.5909 0
      vertex 47.2435 -28.3429 0
      vertex 46.7414 -25.2441 0
    endloop
  endfacet
  facet normal 0 0 1
    outer loop
      vertex 46.0043 -25.5909 0
      vertex 46 -28.5 0
      vertex 47.2435 -28.3429 0
    endloop
  endfacet
  facet normal -0 0 1
    outer loop
      vertex 45.2041 -25.7436 0
      vertex 46 -28.5 0
      vertex 46.0043 -25.5909 0
    endloop
  endfacet
  facet normal 0 0 1
    outer loop
      vertex 44.391 -25.6924 0
      vertex 46 -28.5 0
      vertex 45.2041 -25.7436 0
    endloop
  endfacet
  facet normal 0 0 1
    outer loop
      vertex 43.6162 -25.4407 0
      vertex 46 -28.5 0
      vertex 44.391 -25.6924 0
    endloop
  endfacet
  facet normal 0 0 1
    outer loop
      vertex 42.9284 -25.0042 0
      vertex 46 -28.5 0
      vertex 43.6162 -25.4407 0
    endloop
  endfacet
  facet normal -0 0 1
    outer loop
      vertex -42.6309 -24.7248 0
      vertex 42.9284 -25.0042 0
      vertex 42.3707 -24.4103 0
    endloop
  endfacet
  facet normal 0 0 1
    outer loop
      vertex 41.9782 -21.3036 0
      vertex 39.25 -9.75 0
      vertex 41.7756 -22.0927 0
    endloop
  endfacet
  facet normal 0 0 1
    outer loop
      vertex 39.25 -9.75 0
      vertex 39.7175 -4.25 0
      vertex 39.25 -4.25 0
    endloop
  endfacet
  facet normal 0 0 1
    outer loop
      vertex 41.7756 -22.0927 0
      vertex 39.25 -9.75 0
      vertex 41.7756 -22.9073 0
    endloop
  endfacet
  facet normal -0 0 1
    outer loop
      vertex -28.25 -9.75 0
      vertex 41.7756 -22.9073 0
      vertex 39.25 -9.75 0
    endloop
  endfacet
  facet normal 0 0 1
    outer loop
      vertex -28.25 -9.75 0
      vertex 41.9782 -23.6964 0
      vertex 41.7756 -22.9073 0
    endloop
  endfacet
  facet normal 0 0 1
    outer loop
      vertex -28.25 -9.75 0
      vertex 42.3707 -24.4103 0
      vertex 41.9782 -23.6964 0
    endloop
  endfacet
  facet normal -0 0 1
    outer loop
      vertex -42.152 -24.0657 0
      vertex 42.3707 -24.4103 0
      vertex -28.25 -9.75 0
    endloop
  endfacet
  facet normal 0 0 1
    outer loop
      vertex -41.8521 -23.3082 0
      vertex -28.25 -9.75 0
      vertex -41.75 -22.5 0
    endloop
  endfacet
  facet normal 0 0 1
    outer loop
      vertex -42.152 -24.0657 0
      vertex -28.25 -9.75 0
      vertex -41.8521 -23.3082 0
    endloop
  endfacet
  facet normal 0 0 1
    outer loop
      vertex -42.6309 -24.7248 0
      vertex 42.3707 -24.4103 0
      vertex -42.152 -24.0657 0
    endloop
  endfacet
  facet normal 0 0 1
    outer loop
      vertex 42.9284 -25.0042 0
      vertex -42.6309 -24.7248 0
      vertex 46 -28.5 0
    endloop
  endfacet
  facet normal 0 0 1
    outer loop
      vertex -46 -28.5 0
      vertex -42.6309 -24.7248 0
      vertex -43.2586 -25.2441 0
    endloop
  endfacet
  facet normal 0 0 1
    outer loop
      vertex -46 -28.5 0
      vertex -43.2586 -25.2441 0
      vertex -43.9957 -25.5909 0
    endloop
  endfacet
  facet normal 0 0 1
    outer loop
      vertex -46 -28.5 0
      vertex -43.9957 -25.5909 0
      vertex -44.7959 -25.7436 0
    endloop
  endfacet
  facet normal 0 0 1
    outer loop
      vertex -42.6309 -24.7248 0
      vertex -46 -28.5 0
      vertex 46 -28.5 0
    endloop
  endfacet
  facet normal 0 0 1
    outer loop
      vertex -45.609 -25.6924 0
      vertex -46 -28.5 0
      vertex -44.7959 -25.7436 0
    endloop
  endfacet
  facet normal 0 0 1
    outer loop
      vertex -46.3838 -25.4407 0
      vertex -46 -28.5 0
      vertex -45.609 -25.6924 0
    endloop
  endfacet
  facet normal 0 0 1
    outer loop
      vertex -48.6791 -27.7216 0
      vertex -46.3838 -25.4407 0
      vertex -47.0716 -25.0042 0
    endloop
  endfacet
  facet normal 0 0 1
    outer loop
      vertex -46.3838 -25.4407 0
      vertex -47.5451 -28.2553 0
      vertex -46 -28.5 0
    endloop
  endfacet
  facet normal 0 0 1
    outer loop
      vertex -49.6448 -26.9227 0
      vertex -47.0716 -25.0042 0
      vertex -47.6293 -24.4103 0
    endloop
  endfacet
  facet normal 0 0 1
    outer loop
      vertex -50.3815 -25.9088 0
      vertex -47.6293 -24.4103 0
      vertex -48.0218 -23.6964 0
    endloop
  endfacet
  facet normal -0 0 1
    outer loop
      vertex -51 -23.5 0
      vertex -48.0218 -23.6964 0
      vertex -48.2244 -22.9073 0
    endloop
  endfacet
  facet normal 0 0 1
    outer loop
      vertex -46.3838 -25.4407 0
      vertex -48.6791 -27.7216 0
      vertex -47.5451 -28.2553 0
    endloop
  endfacet
  facet normal 0 0 1
    outer loop
      vertex -48.0218 -21.3036 0
      vertex -51 -23.5 0
      vertex -48.2244 -22.0927 0
    endloop
  endfacet
  facet normal 0 0 1
    outer loop
      vertex -47.6293 24.4103 0
      vertex -50.7553 25.0451 0
      vertex -48.0218 23.6964 0
    endloop
  endfacet
  facet normal 0 0 1
    outer loop
      vertex -48.2244 -22.0927 0
      vertex -51 -23.5 0
      vertex -48.2244 -22.9073 0
    endloop
  endfacet
  facet normal 0 0 1
    outer loop
      vertex -51 23.5 0
      vertex -48.0218 23.6964 0
      vertex -50.7553 25.0451 0
    endloop
  endfacet
  facet normal 0 0 1
    outer loop
      vertex -48.0218 -23.6964 0
      vertex -51 -23.5 0
      vertex -50.8429 -24.7435 0
    endloop
  endfacet
  facet normal 0 0 1
    outer loop
      vertex -48.0218 23.6964 0
      vertex -51 23.5 0
      vertex -48.2244 22.9073 0
    endloop
  endfacet
  facet normal 0 0 1
    outer loop
      vertex -47.0716 -25.0042 0
      vertex -49.6448 -26.9227 0
      vertex -48.6791 -27.7216 0
    endloop
  endfacet
  facet normal 0 0 1
    outer loop
      vertex -47.6293 -24.4103 0
      vertex -50.3815 -25.9088 0
      vertex -49.6448 -26.9227 0
    endloop
  endfacet
  facet normal 0 0 1
    outer loop
      vertex -48.0218 -23.6964 0
      vertex -50.8429 -24.7435 0
      vertex -50.3815 -25.9088 0
    endloop
  endfacet
  facet normal 0 0 1
    outer loop
      vertex 39.7175 4.25 0
      vertex 39.25 9.75 0
      vertex 39.25 4.25 0
    endloop
  endfacet
  facet normal -0 0 1
    outer loop
      vertex -42.152 20.9343 0
      vertex -28.25 9.75 0
      vertex -41.8521 21.6918 0
    endloop
  endfacet
  facet normal -0 0 1
    outer loop
      vertex -42.6309 20.2752 0
      vertex -28.25 9.75 0
      vertex -42.152 20.9343 0
    endloop
  endfacet
  facet normal 0 0 1
    outer loop
      vertex -43.13 6.525 0
      vertex -28.25 9.75 0
      vertex -42.6309 20.2752 0
    endloop
  endfacet
  facet normal 0 0 1
    outer loop
      vertex -28.25 9.75 0
      vertex -43.13 6.525 0
      vertex -28.25 6.525 0
    endloop
  endfacet
  facet normal -0 0 1
    outer loop
      vertex -43.9957 19.4091 0
      vertex -43.13 6.525 0
      vertex -43.2586 19.7559 0
    endloop
  endfacet
  facet normal -0 0 1
    outer loop
      vertex -43.2586 19.7559 0
      vertex -43.13 6.525 0
      vertex -42.6309 20.2752 0
    endloop
  endfacet
  facet normal 0 0 1
    outer loop
      vertex 39.25 9.75 0
      vertex 31.2175 4.25 0
      vertex 39.25 4.25 0
    endloop
  endfacet
  facet normal 0 0 1
    outer loop
      vertex 31.2175 4.25 0
      vertex -27.805 6.525 0
      vertex 31.2175 -4.25 0
    endloop
  endfacet
  facet normal -0 0 1
    outer loop
      vertex -28.25 9.75 0
      vertex 31.2175 4.25 0
      vertex 39.25 9.75 0
    endloop
  endfacet
  facet normal 0 0 1
    outer loop
      vertex 31.2175 4.25 0
      vertex -28.25 9.75 0
      vertex -27.805 6.525 0
    endloop
  endfacet
  facet normal 0 0 1
    outer loop
      vertex -27.805 6.525 0
      vertex -28.25 9.75 0
      vertex -28.25 6.525 0
    endloop
  endfacet
  facet normal -0 0 1
    outer loop
      vertex 31.2175 -4.25 0
      vertex 39.25 -9.75 0
      vertex 39.25 -4.25 0
    endloop
  endfacet
  facet normal 0 0 1
    outer loop
      vertex -27.805 -6.525 0
      vertex 31.2175 -4.25 0
      vertex -27.805 6.525 0
    endloop
  endfacet
  facet normal 0 0 1
    outer loop
      vertex -28.25 -9.75 0
      vertex 31.2175 -4.25 0
      vertex -27.805 -6.525 0
    endloop
  endfacet
  facet normal 0 0 1
    outer loop
      vertex -28.25 -9.75 0
      vertex -27.805 -6.525 0
      vertex -28.25 -6.525 0
    endloop
  endfacet
  facet normal 0 0 1
    outer loop
      vertex 31.2175 -4.25 0
      vertex -28.25 -9.75 0
      vertex 39.25 -9.75 0
    endloop
  endfacet
  facet normal -1 0 0
    outer loop
      vertex -27.805 -6.525 -3
      vertex -27.805 6.525 0
      vertex -27.805 6.525 -3
    endloop
  endfacet
  facet normal -1 -0 0
    outer loop
      vertex -27.805 6.525 0
      vertex -27.805 -6.525 -3
      vertex -27.805 -6.525 0
    endloop
  endfacet
  facet normal 1 -0 0
    outer loop
      vertex -43.13 -6.525 0
      vertex -43.13 6.525 -3
      vertex -43.13 6.525 0
    endloop
  endfacet
  facet normal 1 0 0
    outer loop
      vertex -43.13 6.525 -3
      vertex -43.13 -6.525 0
      vertex -43.13 -6.525 -3
    endloop
  endfacet
  facet normal 0 1 -0
    outer loop
      vertex -27.805 -6.525 -3
      vertex -28.25 -6.525 0
      vertex -27.805 -6.525 0
    endloop
  endfacet
  facet normal 0 1 0
    outer loop
      vertex -43.13 -6.525 -3
      vertex -28.25 -6.525 0
      vertex -27.805 -6.525 -3
    endloop
  endfacet
  facet normal 0 1 0
    outer loop
      vertex -28.25 -6.525 0
      vertex -43.13 -6.525 -3
      vertex -43.13 -6.525 0
    endloop
  endfacet
  facet normal 0 -1 0
    outer loop
      vertex -43.13 6.525 -3
      vertex -28.25 6.525 0
      vertex -43.13 6.525 0
    endloop
  endfacet
  facet normal 0 -1 0
    outer loop
      vertex -27.805 6.525 -3
      vertex -28.25 6.525 0
      vertex -43.13 6.525 -3
    endloop
  endfacet
  facet normal 0 -1 0
    outer loop
      vertex -28.25 6.525 0
      vertex -27.805 6.525 -3
      vertex -27.805 6.525 0
    endloop
  endfacet
  facet normal -1 0 0
    outer loop
      vertex 39.7175 -4.25 -3
      vertex 39.7175 4.25 0
      vertex 39.7175 4.25 -3
    endloop
  endfacet
  facet normal -1 -0 0
    outer loop
      vertex 39.7175 4.25 0
      vertex 39.7175 -4.25 -3
      vertex 39.7175 -4.25 0
    endloop
  endfacet
  facet normal 1 -0 0
    outer loop
      vertex 31.2175 -4.25 0
      vertex 31.2175 4.25 -3
      vertex 31.2175 4.25 0
    endloop
  endfacet
  facet normal 1 0 0
    outer loop
      vertex 31.2175 4.25 -3
      vertex 31.2175 -4.25 0
      vertex 31.2175 -4.25 -3
    endloop
  endfacet
  facet normal 0 1 -0
    outer loop
      vertex 39.7175 -4.25 -3
      vertex 39.25 -4.25 0
      vertex 39.7175 -4.25 0
    endloop
  endfacet
  facet normal 0 1 0
    outer loop
      vertex 31.2175 -4.25 -3
      vertex 39.25 -4.25 0
      vertex 39.7175 -4.25 -3
    endloop
  endfacet
  facet normal 0 1 0
    outer loop
      vertex 39.25 -4.25 0
      vertex 31.2175 -4.25 -3
      vertex 31.2175 -4.25 0
    endloop
  endfacet
  facet normal 0 -1 0
    outer loop
      vertex 31.2175 4.25 -3
      vertex 39.25 4.25 0
      vertex 31.2175 4.25 0
    endloop
  endfacet
  facet normal 0 -1 0
    outer loop
      vertex 39.7175 4.25 -3
      vertex 39.25 4.25 0
      vertex 31.2175 4.25 -3
    endloop
  endfacet
  facet normal 0 -1 0
    outer loop
      vertex 39.25 4.25 0
      vertex 39.7175 4.25 -3
      vertex 39.7175 4.25 0
    endloop
  endfacet
  facet normal 0.587816 -0.808995 0
    outer loop
      vertex 48.4088 -27.8815 -3
      vertex 49.4227 -27.1448 0
      vertex 48.4088 -27.8815 0
    endloop
  endfacet
  facet normal 0.587816 -0.808995 0
    outer loop
      vertex 49.4227 -27.1448 0
      vertex 48.4088 -27.8815 -3
      vertex 49.4227 -27.1448 -3
    endloop
  endfacet
  facet normal 0.368142 -0.92977 0
    outer loop
      vertex 47.2435 -28.3429 -3
      vertex 48.4088 -27.8815 0
      vertex 47.2435 -28.3429 0
    endloop
  endfacet
  facet normal 0.368142 -0.92977 0
    outer loop
      vertex 48.4088 -27.8815 0
      vertex 47.2435 -28.3429 -3
      vertex 48.4088 -27.8815 -3
    endloop
  endfacet
  facet normal -1 0 0
    outer loop
      vertex -51 -23.5 -3
      vertex -51 23.5 0
      vertex -51 23.5 -3
    endloop
  endfacet
  facet normal -1 -0 0
    outer loop
      vertex -51 23.5 0
      vertex -51 -23.5 -3
      vertex -51 -23.5 0
    endloop
  endfacet
  facet normal 0.125341 -0.992114 0
    outer loop
      vertex 46 -28.5 -3
      vertex 47.2435 -28.3429 0
      vertex 46 -28.5 0
    endloop
  endfacet
  facet normal 0.125341 -0.992114 0
    outer loop
      vertex 47.2435 -28.3429 0
      vertex 46 -28.5 -3
      vertex 47.2435 -28.3429 -3
    endloop
  endfacet
  facet normal 0.425832 0.904802 -0
    outer loop
      vertex 48.6791 27.7216 -3
      vertex 47.5451 28.2553 0
      vertex 48.6791 27.7216 0
    endloop
  endfacet
  facet normal 0.425832 0.904802 0
    outer loop
      vertex 47.5451 28.2553 0
      vertex 48.6791 27.7216 -3
      vertex 47.5451 28.2553 -3
    endloop
  endfacet
  facet normal -0.156422 -0.98769 0
    outer loop
      vertex -47.5451 -28.2553 -3
      vertex -46 -28.5 0
      vertex -47.5451 -28.2553 0
    endloop
  endfacet
  facet normal -0.156422 -0.98769 -0
    outer loop
      vertex -46 -28.5 0
      vertex -47.5451 -28.2553 -3
      vertex -46 -28.5 -3
    endloop
  endfacet
  facet normal -0.425832 -0.904802 0
    outer loop
      vertex -48.6791 -27.7216 -3
      vertex -47.5451 -28.2553 0
      vertex -48.6791 -27.7216 0
    endloop
  endfacet
  facet normal -0.425832 -0.904802 -0
    outer loop
      vertex -47.5451 -28.2553 0
      vertex -48.6791 -27.7216 -3
      vertex -47.5451 -28.2553 -3
    endloop
  endfacet
  facet normal 0 -1 0
    outer loop
      vertex -46 -28.5 -3
      vertex 46 -28.5 0
      vertex -46 -28.5 0
    endloop
  endfacet
  facet normal 0 -1 -0
    outer loop
      vertex 46 -28.5 0
      vertex -46 -28.5 -3
      vertex 46 -28.5 -3
    endloop
  endfacet
  facet normal 0 1 -0
    outer loop
      vertex 46 28.5 -3
      vertex -46 28.5 0
      vertex 46 28.5 0
    endloop
  endfacet
  facet normal 0 1 0
    outer loop
      vertex -46 28.5 0
      vertex 46 28.5 -3
      vertex -46 28.5 -3
    endloop
  endfacet
  facet normal 0.156422 0.98769 -0
    outer loop
      vertex 47.5451 28.2553 -3
      vertex 46 28.5 0
      vertex 47.5451 28.2553 0
    endloop
  endfacet
  facet normal 0.156422 0.98769 0
    outer loop
      vertex 46 28.5 0
      vertex 47.5451 28.2553 -3
      vertex 46 28.5 -3
    endloop
  endfacet
  facet normal -0.125341 0.992114 0
    outer loop
      vertex -46 28.5 -3
      vertex -47.2435 28.3429 0
      vertex -46 28.5 0
    endloop
  endfacet
  facet normal -0.125341 0.992114 0
    outer loop
      vertex -47.2435 28.3429 0
      vertex -46 28.5 -3
      vertex -47.2435 28.3429 -3
    endloop
  endfacet
  facet normal 0.98769 -0.156422 0
    outer loop
      vertex 50.7553 -25.0451 0
      vertex 51 -23.5 -3
      vertex 51 -23.5 0
    endloop
  endfacet
  facet normal 0.98769 -0.156422 0
    outer loop
      vertex 51 -23.5 -3
      vertex 50.7553 -25.0451 0
      vertex 50.7553 -25.0451 -3
    endloop
  endfacet
  facet normal -0.587816 0.808995 0
    outer loop
      vertex -48.4088 27.8815 -3
      vertex -49.4227 27.1448 0
      vertex -48.4088 27.8815 0
    endloop
  endfacet
  facet normal -0.587816 0.808995 0
    outer loop
      vertex -49.4227 27.1448 0
      vertex -48.4088 27.8815 -3
      vertex -49.4227 27.1448 -3
    endloop
  endfacet
  facet normal 0 0 -1
    outer loop
      vertex -27.805 6.525 -3
      vertex -41.8521 21.6918 -3
      vertex -41.75 22.5 -3
    endloop
  endfacet
  facet normal 0 0 -1
    outer loop
      vertex -27.805 6.525 -3
      vertex -42.152 20.9343 -3
      vertex -41.8521 21.6918 -3
    endloop
  endfacet
  facet normal 0 0 -1
    outer loop
      vertex -27.805 6.525 -3
      vertex -42.6309 20.2752 -3
      vertex -42.152 20.9343 -3
    endloop
  endfacet
  facet normal 0 0 -1
    outer loop
      vertex -43.13 6.525 -3
      vertex -42.6309 20.2752 -3
      vertex -27.805 6.525 -3
    endloop
  endfacet
  facet normal 0 0 -1
    outer loop
      vertex -43.13 6.525 -3
      vertex -43.2586 19.7559 -3
      vertex -42.6309 20.2752 -3
    endloop
  endfacet
  facet normal 0 0 -1
    outer loop
      vertex -44.7959 -19.2564 -3
      vertex -43.13 -6.525 -3
      vertex -43.9957 -19.4091 -3
    endloop
  endfacet
  facet normal 0 0 -1
    outer loop
      vertex -45.609 -19.3076 -3
      vertex -43.13 -6.525 -3
      vertex -44.7959 -19.2564 -3
    endloop
  endfacet
  facet normal 0 0 -1
    outer loop
      vertex -43.13 6.525 -3
      vertex -43.9957 19.4091 -3
      vertex -43.2586 19.7559 -3
    endloop
  endfacet
  facet normal 0 0 -1
    outer loop
      vertex -46.3838 -19.5593 -3
      vertex -43.13 -6.525 -3
      vertex -45.609 -19.3076 -3
    endloop
  endfacet
  facet normal 0 0 -1
    outer loop
      vertex -43.13 6.525 -3
      vertex -44.7959 19.2564 -3
      vertex -43.9957 19.4091 -3
    endloop
  endfacet
  facet normal 0 0 -1
    outer loop
      vertex -47.0716 -19.9958 -3
      vertex -43.13 -6.525 -3
      vertex -46.3838 -19.5593 -3
    endloop
  endfacet
  facet normal 0 0 -1
    outer loop
      vertex -43.13 6.525 -3
      vertex -45.609 19.3076 -3
      vertex -44.7959 19.2564 -3
    endloop
  endfacet
  facet normal 0 0 -1
    outer loop
      vertex -47.6293 -20.5897 -3
      vertex -43.13 -6.525 -3
      vertex -47.0716 -19.9958 -3
    endloop
  endfacet
  facet normal 0 0 -1
    outer loop
      vertex -43.13 6.525 -3
      vertex -46.3838 19.5593 -3
      vertex -45.609 19.3076 -3
    endloop
  endfacet
  facet normal -0 0 -1
    outer loop
      vertex -43.13 -6.525 -3
      vertex -51 -23.5 -3
      vertex -43.13 6.525 -3
    endloop
  endfacet
  facet normal 0 0 -1
    outer loop
      vertex -43.13 6.525 -3
      vertex -47.0716 19.9958 -3
      vertex -46.3838 19.5593 -3
    endloop
  endfacet
  facet normal 0 0 -1
    outer loop
      vertex -43.13 -6.525 -3
      vertex -47.6293 -20.5897 -3
      vertex -51 -23.5 -3
    endloop
  endfacet
  facet normal 0 0 -1
    outer loop
      vertex -51 23.5 -3
      vertex -43.13 6.525 -3
      vertex -51 -23.5 -3
    endloop
  endfacet
  facet normal 0 0 -1
    outer loop
      vertex -51 -23.5 -3
      vertex -47.6293 -20.5897 -3
      vertex -48.0218 -21.3036 -3
    endloop
  endfacet
  facet normal -0 -0 -1
    outer loop
      vertex -47.6293 20.5897 -3
      vertex -43.13 6.525 -3
      vertex -51 23.5 -3
    endloop
  endfacet
  facet normal 0 0 -1
    outer loop
      vertex -51 -23.5 -3
      vertex -48.0218 -21.3036 -3
      vertex -48.2244 -22.0927 -3
    endloop
  endfacet
  facet normal 0 0 -1
    outer loop
      vertex -43.13 6.525 -3
      vertex -47.6293 20.5897 -3
      vertex -47.0716 19.9958 -3
    endloop
  endfacet
  facet normal 0 0 -1
    outer loop
      vertex 47.3691 -20.2752 -3
      vertex 51 -23.5 -3
      vertex 47.848 -20.9343 -3
    endloop
  endfacet
  facet normal 0 0 -1
    outer loop
      vertex 51 23.5 -3
      vertex 48.1479 21.6918 -3
      vertex 48.25 22.5 -3
    endloop
  endfacet
  facet normal 0 0 -1
    outer loop
      vertex 39.7175 -4.25 -3
      vertex 51 -23.5 -3
      vertex 47.3691 -20.2752 -3
    endloop
  endfacet
  facet normal 0 0 -1
    outer loop
      vertex 51 23.5 -3
      vertex 47.848 20.9343 -3
      vertex 48.1479 21.6918 -3
    endloop
  endfacet
  facet normal 0 0 -1
    outer loop
      vertex 51 -23.5 -3
      vertex 39.7175 -4.25 -3
      vertex 51 23.5 -3
    endloop
  endfacet
  facet normal 0 0 -1
    outer loop
      vertex 51 23.5 -3
      vertex 47.3691 20.2752 -3
      vertex 47.848 20.9343 -3
    endloop
  endfacet
  facet normal 0 0 -1
    outer loop
      vertex 39.7175 -4.25 -3
      vertex 47.3691 -20.2752 -3
      vertex 46.7414 -19.7559 -3
    endloop
  endfacet
  facet normal 0 0 -1
    outer loop
      vertex 39.7175 4.25 -3
      vertex 51 23.5 -3
      vertex 39.7175 -4.25 -3
    endloop
  endfacet
  facet normal 0 0 -1
    outer loop
      vertex 39.7175 -4.25 -3
      vertex 46.7414 -19.7559 -3
      vertex 46.0043 -19.4091 -3
    endloop
  endfacet
  facet normal 0 0 -1
    outer loop
      vertex 51 23.5 -3
      vertex 39.7175 4.25 -3
      vertex 47.3691 20.2752 -3
    endloop
  endfacet
  facet normal 0 0 -1
    outer loop
      vertex 39.7175 -4.25 -3
      vertex 46.0043 -19.4091 -3
      vertex 45.2041 -19.2564 -3
    endloop
  endfacet
  facet normal 0 0 -1
    outer loop
      vertex 47.3691 20.2752 -3
      vertex 39.7175 4.25 -3
      vertex 46.7414 19.7559 -3
    endloop
  endfacet
  facet normal 0 0 -1
    outer loop
      vertex 39.7175 -4.25 -3
      vertex 45.2041 -19.2564 -3
      vertex 44.391 -19.3076 -3
    endloop
  endfacet
  facet normal 0 0 -1
    outer loop
      vertex 46.7414 19.7559 -3
      vertex 39.7175 4.25 -3
      vertex 46.0043 19.4091 -3
    endloop
  endfacet
  facet normal 0 0 -1
    outer loop
      vertex 39.7175 -4.25 -3
      vertex 44.391 -19.3076 -3
      vertex 43.6162 -19.5593 -3
    endloop
  endfacet
  facet normal 0 0 -1
    outer loop
      vertex 46.0043 19.4091 -3
      vertex 39.7175 4.25 -3
      vertex 45.2041 19.2564 -3
    endloop
  endfacet
  facet normal 0 0 -1
    outer loop
      vertex 39.7175 -4.25 -3
      vertex 43.6162 -19.5593 -3
      vertex 42.9284 -19.9958 -3
    endloop
  endfacet
  facet normal -0 0 -1
    outer loop
      vertex 45.2041 19.2564 -3
      vertex 39.7175 4.25 -3
      vertex 44.391 19.3076 -3
    endloop
  endfacet
  facet normal 0 0 -1
    outer loop
      vertex 31.2175 -4.25 -3
      vertex 42.9284 -19.9958 -3
      vertex 42.3707 -20.5897 -3
    endloop
  endfacet
  facet normal -0 0 -1
    outer loop
      vertex 44.391 19.3076 -3
      vertex 39.7175 4.25 -3
      vertex 43.6162 19.5593 -3
    endloop
  endfacet
  facet normal 0 0 -1
    outer loop
      vertex 31.2175 -4.25 -3
      vertex 42.3707 -20.5897 -3
      vertex 41.9782 -21.3036 -3
    endloop
  endfacet
  facet normal -0 0 -1
    outer loop
      vertex 43.6162 19.5593 -3
      vertex 39.7175 4.25 -3
      vertex 42.9284 19.9958 -3
    endloop
  endfacet
  facet normal 0 0 -1
    outer loop
      vertex 31.2175 -4.25 -3
      vertex 41.9782 -21.3036 -3
      vertex 41.7756 -22.0927 -3
    endloop
  endfacet
  facet normal 0 0 -1
    outer loop
      vertex 31.2175 4.25 -3
      vertex 42.9284 19.9958 -3
      vertex 39.7175 4.25 -3
    endloop
  endfacet
  facet normal 0 0 -1
    outer loop
      vertex 51 -23.5 -3
      vertex 48.1479 -23.3082 -3
      vertex 48.25 -22.5 -3
    endloop
  endfacet
  facet normal 0 0 -1
    outer loop
      vertex 49.4227 -27.1448 -3
      vertex 47.848 -24.0657 -3
      vertex 48.1479 -23.3082 -3
    endloop
  endfacet
  facet normal 0 0 -1
    outer loop
      vertex 49.4227 -27.1448 -3
      vertex 47.3691 -24.7248 -3
      vertex 47.848 -24.0657 -3
    endloop
  endfacet
  facet normal 0 0 -1
    outer loop
      vertex 46.7414 -25.2441 -3
      vertex 48.4088 -27.8815 -3
      vertex 47.2435 -28.3429 -3
    endloop
  endfacet
  facet normal 0 0 -1
    outer loop
      vertex 49.4227 -27.1448 -3
      vertex 46.7414 -25.2441 -3
      vertex 47.3691 -24.7248 -3
    endloop
  endfacet
  facet normal 0 0 -1
    outer loop
      vertex 47.2435 -28.3429 -3
      vertex 46.0043 -25.5909 -3
      vertex 46.7414 -25.2441 -3
    endloop
  endfacet
  facet normal 0 0 -1
    outer loop
      vertex 46 -28.5 -3
      vertex 46.0043 -25.5909 -3
      vertex 47.2435 -28.3429 -3
    endloop
  endfacet
  facet normal 0 0 -1
    outer loop
      vertex 46 -28.5 -3
      vertex 45.2041 -25.7436 -3
      vertex 46.0043 -25.5909 -3
    endloop
  endfacet
  facet normal 0 0 -1
    outer loop
      vertex 46 -28.5 -3
      vertex 44.391 -25.6924 -3
      vertex 45.2041 -25.7436 -3
    endloop
  endfacet
  facet normal 0 0 -1
    outer loop
      vertex 46 -28.5 -3
      vertex 43.6162 -25.4407 -3
      vertex 44.391 -25.6924 -3
    endloop
  endfacet
  facet normal 0 0 -1
    outer loop
      vertex 46 -28.5 -3
      vertex 42.9284 -25.0042 -3
      vertex 43.6162 -25.4407 -3
    endloop
  endfacet
  facet normal 0 0 -1
    outer loop
      vertex -42.6309 -24.7248 -3
      vertex 42.9284 -25.0042 -3
      vertex 46 -28.5 -3
    endloop
  endfacet
  facet normal 0 0 -1
    outer loop
      vertex 31.2175 -4.25 -3
      vertex 41.7756 -22.0927 -3
      vertex 41.7756 -22.9073 -3
    endloop
  endfacet
  facet normal -0 0 -1
    outer loop
      vertex 42.9284 19.9958 -3
      vertex 31.2175 4.25 -3
      vertex 42.3707 20.5897 -3
    endloop
  endfacet
  facet normal -0 0 -1
    outer loop
      vertex 42.3707 20.5897 -3
      vertex 31.2175 4.25 -3
      vertex 41.9782 21.3036 -3
    endloop
  endfacet
  facet normal 0 0 -1
    outer loop
      vertex 42.9284 -19.9958 -3
      vertex 31.2175 -4.25 -3
      vertex 39.7175 -4.25 -3
    endloop
  endfacet
  facet normal 0 0 -1
    outer loop
      vertex -27.805 -6.525 -3
      vertex 41.7756 -22.9073 -3
      vertex 41.9782 -23.6964 -3
    endloop
  endfacet
  facet normal 0 0 -1
    outer loop
      vertex -42.152 -24.0657 -3
      vertex 41.9782 -23.6964 -3
      vertex 42.3707 -24.4103 -3
    endloop
  endfacet
  facet normal -0 0 -1
    outer loop
      vertex 31.2175 -4.25 -3
      vertex -27.805 -6.525 -3
      vertex 31.2175 4.25 -3
    endloop
  endfacet
  facet normal 0 0 -1
    outer loop
      vertex 41.7756 -22.9073 -3
      vertex -27.805 -6.525 -3
      vertex 31.2175 -4.25 -3
    endloop
  endfacet
  facet normal 0 0 -1
    outer loop
      vertex 42.9284 -25.0042 -3
      vertex -42.6309 -24.7248 -3
      vertex 42.3707 -24.4103 -3
    endloop
  endfacet
  facet normal -0 0 -1
    outer loop
      vertex 41.9782 -23.6964 -3
      vertex -42.152 -24.0657 -3
      vertex -27.805 -6.525 -3
    endloop
  endfacet
  facet normal 0 0 -1
    outer loop
      vertex -27.805 -6.525 -3
      vertex -41.8521 -23.3082 -3
      vertex -41.75 -22.5 -3
    endloop
  endfacet
  facet normal 0 0 -1
    outer loop
      vertex -27.805 -6.525 -3
      vertex -42.152 -24.0657 -3
      vertex -41.8521 -23.3082 -3
    endloop
  endfacet
  facet normal -0 0 -1
    outer loop
      vertex 42.3707 -24.4103 -3
      vertex -42.6309 -24.7248 -3
      vertex -42.152 -24.0657 -3
    endloop
  endfacet
  facet normal 0 0 -1
    outer loop
      vertex -46 -28.5 -3
      vertex -42.6309 -24.7248 -3
      vertex 46 -28.5 -3
    endloop
  endfacet
  facet normal 0 0 -1
    outer loop
      vertex -42.6309 -24.7248 -3
      vertex -46 -28.5 -3
      vertex -43.2586 -25.2441 -3
    endloop
  endfacet
  facet normal 0 0 -1
    outer loop
      vertex -43.2586 -25.2441 -3
      vertex -46 -28.5 -3
      vertex -43.9957 -25.5909 -3
    endloop
  endfacet
  facet normal 0 0 -1
    outer loop
      vertex -43.9957 -25.5909 -3
      vertex -46 -28.5 -3
      vertex -44.7959 -25.7436 -3
    endloop
  endfacet
  facet normal 0 0 -1
    outer loop
      vertex -46 -28.5 -3
      vertex -45.609 -25.6924 -3
      vertex -44.7959 -25.7436 -3
    endloop
  endfacet
  facet normal 0 0 -1
    outer loop
      vertex -46 -28.5 -3
      vertex -46.3838 -25.4407 -3
      vertex -45.609 -25.6924 -3
    endloop
  endfacet
  facet normal 0 0 -1
    outer loop
      vertex -47.5451 -28.2553 -3
      vertex -46.3838 -25.4407 -3
      vertex -46 -28.5 -3
    endloop
  endfacet
  facet normal 0 0 -1
    outer loop
      vertex -48.6791 -27.7216 -3
      vertex -46.3838 -25.4407 -3
      vertex -47.5451 -28.2553 -3
    endloop
  endfacet
  facet normal -0 0 -1
    outer loop
      vertex -46.3838 -25.4407 -3
      vertex -48.6791 -27.7216 -3
      vertex -47.0716 -25.0042 -3
    endloop
  endfacet
  facet normal 0 0 -1
    outer loop
      vertex -49.6448 -26.9227 -3
      vertex -47.0716 -25.0042 -3
      vertex -48.6791 -27.7216 -3
    endloop
  endfacet
  facet normal -0 0 -1
    outer loop
      vertex -47.0716 -25.0042 -3
      vertex -49.6448 -26.9227 -3
      vertex -47.6293 -24.4103 -3
    endloop
  endfacet
  facet normal 0 0 -1
    outer loop
      vertex -51 -23.5 -3
      vertex -48.2244 -22.0927 -3
      vertex -48.2244 -22.9073 -3
    endloop
  endfacet
  facet normal 0 0 -1
    outer loop
      vertex -47.6293 20.5897 -3
      vertex -51 23.5 -3
      vertex -48.0218 21.3036 -3
    endloop
  endfacet
  facet normal 0 0 -1
    outer loop
      vertex -48.2244 22.0927 -3
      vertex -51 23.5 -3
      vertex -48.2244 22.9073 -3
    endloop
  endfacet
  facet normal 0 0 -1
    outer loop
      vertex -50.3815 -25.9088 -3
      vertex -47.6293 -24.4103 -3
      vertex -49.6448 -26.9227 -3
    endloop
  endfacet
  facet normal -0 0 -1
    outer loop
      vertex -47.6293 -24.4103 -3
      vertex -50.3815 -25.9088 -3
      vertex -48.0218 -23.6964 -3
    endloop
  endfacet
  facet normal 0 0 -1
    outer loop
      vertex -48.0218 21.3036 -3
      vertex -51 23.5 -3
      vertex -48.2244 22.0927 -3
    endloop
  endfacet
  facet normal 0 0 -1
    outer loop
      vertex -50.8429 -24.7435 -3
      vertex -48.0218 -23.6964 -3
      vertex -50.3815 -25.9088 -3
    endloop
  endfacet
  facet normal 0 -0 -1
    outer loop
      vertex -50.7553 25.0451 -3
      vertex -48.2244 22.9073 -3
      vertex -51 23.5 -3
    endloop
  endfacet
  facet normal 0 0 -1
    outer loop
      vertex -51 -23.5 -3
      vertex -48.0218 -23.6964 -3
      vertex -50.8429 -24.7435 -3
    endloop
  endfacet
  facet normal 0 0 -1
    outer loop
      vertex -48.2244 22.9073 -3
      vertex -49.4227 27.1448 -3
      vertex -48.4088 27.8815 -3
    endloop
  endfacet
  facet normal 0 0 -1
    outer loop
      vertex -48.0218 -23.6964 -3
      vertex -51 -23.5 -3
      vertex -48.2244 -22.9073 -3
    endloop
  endfacet
  facet normal 0 0 -1
    outer loop
      vertex -48.2244 22.9073 -3
      vertex -50.2216 26.1791 -3
      vertex -49.4227 27.1448 -3
    endloop
  endfacet
  facet normal 0 0 -1
    outer loop
      vertex -48.2244 22.9073 -3
      vertex -50.7553 25.0451 -3
      vertex -50.2216 26.1791 -3
    endloop
  endfacet
  facet normal 0 0 -1
    outer loop
      vertex 47.848 -20.9343 -3
      vertex 51 -23.5 -3
      vertex 48.1479 -21.6918 -3
    endloop
  endfacet
  facet normal 0 0 -1
    outer loop
      vertex 48.1479 -23.3082 -3
      vertex 51 -23.5 -3
      vertex 50.7553 -25.0451 -3
    endloop
  endfacet
  facet normal 0 0 -1
    outer loop
      vertex 48.1479 -21.6918 -3
      vertex 51 -23.5 -3
      vertex 48.25 -22.5 -3
    endloop
  endfacet
  facet normal 0 0 -1
    outer loop
      vertex 48.1479 -23.3082 -3
      vertex 50.7553 -25.0451 -3
      vertex 50.2216 -26.1791 -3
    endloop
  endfacet
  facet normal 0 0 -1
    outer loop
      vertex 48.1479 23.3082 -3
      vertex 51 23.5 -3
      vertex 48.25 22.5 -3
    endloop
  endfacet
  facet normal 0 0 -1
    outer loop
      vertex 48.1479 -23.3082 -3
      vertex 50.2216 -26.1791 -3
      vertex 49.4227 -27.1448 -3
    endloop
  endfacet
  facet normal -0 0 -1
    outer loop
      vertex 51 23.5 -3
      vertex 48.1479 23.3082 -3
      vertex 50.8429 24.7435 -3
    endloop
  endfacet
  facet normal 0 0 -1
    outer loop
      vertex 46.7414 -25.2441 -3
      vertex 49.4227 -27.1448 -3
      vertex 48.4088 -27.8815 -3
    endloop
  endfacet
  facet normal 0 0 -1
    outer loop
      vertex 47.848 24.0657 -3
      vertex 50.8429 24.7435 -3
      vertex 48.1479 23.3082 -3
    endloop
  endfacet
  facet normal -0 0 -1
    outer loop
      vertex 50.8429 24.7435 -3
      vertex 47.848 24.0657 -3
      vertex 50.3815 25.9088 -3
    endloop
  endfacet
  facet normal 0 0 -1
    outer loop
      vertex 47.3691 24.7248 -3
      vertex 50.3815 25.9088 -3
      vertex 47.848 24.0657 -3
    endloop
  endfacet
  facet normal -0 0 -1
    outer loop
      vertex 50.3815 25.9088 -3
      vertex 47.3691 24.7248 -3
      vertex 49.6448 26.9227 -3
    endloop
  endfacet
  facet normal -0 0 -1
    outer loop
      vertex 49.6448 26.9227 -3
      vertex 47.3691 24.7248 -3
      vertex 48.6791 27.7216 -3
    endloop
  endfacet
  facet normal 0 0 -1
    outer loop
      vertex 46.7414 25.2441 -3
      vertex 48.6791 27.7216 -3
      vertex 47.3691 24.7248 -3
    endloop
  endfacet
  facet normal -0 0 -1
    outer loop
      vertex 48.6791 27.7216 -3
      vertex 46.7414 25.2441 -3
      vertex 47.5451 28.2553 -3
    endloop
  endfacet
  facet normal 0 0 -1
    outer loop
      vertex 46.0043 25.5909 -3
      vertex 47.5451 28.2553 -3
      vertex 46.7414 25.2441 -3
    endloop
  endfacet
  facet normal 0 0 -1
    outer loop
      vertex 46.0043 25.5909 -3
      vertex 46 28.5 -3
      vertex 47.5451 28.2553 -3
    endloop
  endfacet
  facet normal 0 0 -1
    outer loop
      vertex 45.2041 25.7436 -3
      vertex 46 28.5 -3
      vertex 46.0043 25.5909 -3
    endloop
  endfacet
  facet normal 0 0 -1
    outer loop
      vertex 44.391 25.6924 -3
      vertex 46 28.5 -3
      vertex 45.2041 25.7436 -3
    endloop
  endfacet
  facet normal 0 0 -1
    outer loop
      vertex 43.6162 25.4407 -3
      vertex 46 28.5 -3
      vertex 44.391 25.6924 -3
    endloop
  endfacet
  facet normal 0 0 -1
    outer loop
      vertex 42.9284 25.0042 -3
      vertex 46 28.5 -3
      vertex 43.6162 25.4407 -3
    endloop
  endfacet
  facet normal 0 0 -1
    outer loop
      vertex -42.6309 24.7248 -3
      vertex 42.9284 25.0042 -3
      vertex 42.3707 24.4103 -3
    endloop
  endfacet
  facet normal -0 0 -1
    outer loop
      vertex 41.9782 21.3036 -3
      vertex 31.2175 4.25 -3
      vertex 41.7756 22.0927 -3
    endloop
  endfacet
  facet normal -0 0 -1
    outer loop
      vertex 41.7756 22.0927 -3
      vertex 31.2175 4.25 -3
      vertex 41.7756 22.9073 -3
    endloop
  endfacet
  facet normal 0 0 -1
    outer loop
      vertex -27.805 6.525 -3
      vertex 41.7756 22.9073 -3
      vertex 31.2175 4.25 -3
    endloop
  endfacet
  facet normal -0 0 -1
    outer loop
      vertex 41.7756 22.9073 -3
      vertex -27.805 6.525 -3
      vertex 41.9782 23.6964 -3
    endloop
  endfacet
  facet normal 0 0 -1
    outer loop
      vertex -27.805 6.525 -3
      vertex 31.2175 4.25 -3
      vertex -27.805 -6.525 -3
    endloop
  endfacet
  facet normal 0 0 -1
    outer loop
      vertex -42.152 24.0657 -3
      vertex 41.9782 23.6964 -3
      vertex -27.805 6.525 -3
    endloop
  endfacet
  facet normal 0 0 -1
    outer loop
      vertex 41.9782 23.6964 -3
      vertex -42.152 24.0657 -3
      vertex 42.3707 24.4103 -3
    endloop
  endfacet
  facet normal 0 0 -1
    outer loop
      vertex -41.8521 23.3082 -3
      vertex -27.805 6.525 -3
      vertex -41.75 22.5 -3
    endloop
  endfacet
  facet normal 0 0 -1
    outer loop
      vertex -42.152 24.0657 -3
      vertex -27.805 6.525 -3
      vertex -41.8521 23.3082 -3
    endloop
  endfacet
  facet normal 0 0 -1
    outer loop
      vertex -42.6309 24.7248 -3
      vertex 42.3707 24.4103 -3
      vertex -42.152 24.0657 -3
    endloop
  endfacet
  facet normal -0 0 -1
    outer loop
      vertex 42.9284 25.0042 -3
      vertex -42.6309 24.7248 -3
      vertex 46 28.5 -3
    endloop
  endfacet
  facet normal 0 0 -1
    outer loop
      vertex -46 28.5 -3
      vertex -42.6309 24.7248 -3
      vertex -43.2586 25.2441 -3
    endloop
  endfacet
  facet normal 0 0 -1
    outer loop
      vertex -46 28.5 -3
      vertex -43.2586 25.2441 -3
      vertex -43.9957 25.5909 -3
    endloop
  endfacet
  facet normal 0 0 -1
    outer loop
      vertex -46 28.5 -3
      vertex -43.9957 25.5909 -3
      vertex -44.7959 25.7436 -3
    endloop
  endfacet
  facet normal 0 0 -1
    outer loop
      vertex -42.6309 24.7248 -3
      vertex -46 28.5 -3
      vertex 46 28.5 -3
    endloop
  endfacet
  facet normal 0 0 -1
    outer loop
      vertex -45.609 25.6924 -3
      vertex -46 28.5 -3
      vertex -44.7959 25.7436 -3
    endloop
  endfacet
  facet normal 0 0 -1
    outer loop
      vertex -47.2435 28.3429 -3
      vertex -45.609 25.6924 -3
      vertex -46.3838 25.4407 -3
    endloop
  endfacet
  facet normal 0 0 -1
    outer loop
      vertex -48.4088 27.8815 -3
      vertex -46.3838 25.4407 -3
      vertex -47.0716 25.0042 -3
    endloop
  endfacet
  facet normal 0 0 -1
    outer loop
      vertex -45.609 25.6924 -3
      vertex -47.2435 28.3429 -3
      vertex -46 28.5 -3
    endloop
  endfacet
  facet normal 0 0 -1
    outer loop
      vertex -48.4088 27.8815 -3
      vertex -47.0716 25.0042 -3
      vertex -47.6293 24.4103 -3
    endloop
  endfacet
  facet normal 0 0 -1
    outer loop
      vertex -48.4088 27.8815 -3
      vertex -47.6293 24.4103 -3
      vertex -48.0218 23.6964 -3
    endloop
  endfacet
  facet normal 0 0 -1
    outer loop
      vertex -48.4088 27.8815 -3
      vertex -48.0218 23.6964 -3
      vertex -48.2244 22.9073 -3
    endloop
  endfacet
  facet normal 0 0 -1
    outer loop
      vertex -46.3838 25.4407 -3
      vertex -48.4088 27.8815 -3
      vertex -47.2435 28.3429 -3
    endloop
  endfacet
  facet normal 0 0 -1
    outer loop
      vertex -41.8521 -21.6918 -3
      vertex -27.805 -6.525 -3
      vertex -41.75 -22.5 -3
    endloop
  endfacet
  facet normal 0 0 -1
    outer loop
      vertex -42.152 -20.9343 -3
      vertex -27.805 -6.525 -3
      vertex -41.8521 -21.6918 -3
    endloop
  endfacet
  facet normal 0 0 -1
    outer loop
      vertex -42.6309 -20.2752 -3
      vertex -27.805 -6.525 -3
      vertex -42.152 -20.9343 -3
    endloop
  endfacet
  facet normal 0 0 -1
    outer loop
      vertex -42.6309 -20.2752 -3
      vertex -43.13 -6.525 -3
      vertex -27.805 -6.525 -3
    endloop
  endfacet
  facet normal 0 0 -1
    outer loop
      vertex -43.9957 -19.4091 -3
      vertex -43.13 -6.525 -3
      vertex -43.2586 -19.7559 -3
    endloop
  endfacet
  facet normal 0 0 -1
    outer loop
      vertex -43.2586 -19.7559 -3
      vertex -43.13 -6.525 -3
      vertex -42.6309 -20.2752 -3
    endloop
  endfacet
  facet normal -0.808995 -0.587816 0
    outer loop
      vertex -49.6448 -26.9227 -3
      vertex -50.3815 -25.9088 0
      vertex -50.3815 -25.9088 -3
    endloop
  endfacet
  facet normal -0.808995 -0.587816 0
    outer loop
      vertex -50.3815 -25.9088 0
      vertex -49.6448 -26.9227 -3
      vertex -49.6448 -26.9227 0
    endloop
  endfacet
  facet normal -0.368142 0.92977 0
    outer loop
      vertex -47.2435 28.3429 -3
      vertex -48.4088 27.8815 0
      vertex -47.2435 28.3429 0
    endloop
  endfacet
  facet normal -0.368142 0.92977 0
    outer loop
      vertex -48.4088 27.8815 0
      vertex -47.2435 28.3429 -3
      vertex -48.4088 27.8815 -3
    endloop
  endfacet
  facet normal 1 -0 0
    outer loop
      vertex 51 -23.5 0
      vertex 51 23.5 -3
      vertex 51 23.5 0
    endloop
  endfacet
  facet normal 1 0 0
    outer loop
      vertex 51 23.5 -3
      vertex 51 -23.5 0
      vertex 51 -23.5 -3
    endloop
  endfacet
  facet normal 0.92977 0.368142 0
    outer loop
      vertex 50.8429 24.7435 0
      vertex 50.3815 25.9088 -3
      vertex 50.3815 25.9088 0
    endloop
  endfacet
  facet normal 0.92977 0.368142 0
    outer loop
      vertex 50.3815 25.9088 -3
      vertex 50.8429 24.7435 0
      vertex 50.8429 24.7435 -3
    endloop
  endfacet
  facet normal 0.808995 0.587816 0
    outer loop
      vertex 50.3815 25.9088 0
      vertex 49.6448 26.9227 -3
      vertex 49.6448 26.9227 0
    endloop
  endfacet
  facet normal 0.808995 0.587816 0
    outer loop
      vertex 49.6448 26.9227 -3
      vertex 50.3815 25.9088 0
      vertex 50.3815 25.9088 -3
    endloop
  endfacet
  facet normal 0.992114 0.125341 0
    outer loop
      vertex 51 23.5 0
      vertex 50.8429 24.7435 -3
      vertex 50.8429 24.7435 0
    endloop
  endfacet
  facet normal 0.992114 0.125341 0
    outer loop
      vertex 50.8429 24.7435 -3
      vertex 51 23.5 0
      vertex 51 23.5 -3
    endloop
  endfacet
  facet normal 0.637426 0.770512 -0
    outer loop
      vertex 49.6448 26.9227 -3
      vertex 48.6791 27.7216 0
      vertex 49.6448 26.9227 0
    endloop
  endfacet
  facet normal 0.637426 0.770512 0
    outer loop
      vertex 48.6791 27.7216 0
      vertex 49.6448 26.9227 -3
      vertex 48.6791 27.7216 -3
    endloop
  endfacet
  facet normal -0.98769 0.156422 0
    outer loop
      vertex -51 23.5 -3
      vertex -50.7553 25.0451 0
      vertex -50.7553 25.0451 -3
    endloop
  endfacet
  facet normal -0.98769 0.156422 0
    outer loop
      vertex -50.7553 25.0451 0
      vertex -51 23.5 -3
      vertex -51 23.5 0
    endloop
  endfacet
  facet normal -0.904802 0.425832 0
    outer loop
      vertex -50.7553 25.0451 -3
      vertex -50.2216 26.1791 0
      vertex -50.2216 26.1791 -3
    endloop
  endfacet
  facet normal -0.904802 0.425832 0
    outer loop
      vertex -50.2216 26.1791 0
      vertex -50.7553 25.0451 -3
      vertex -50.7553 25.0451 0
    endloop
  endfacet
  facet normal -0.770512 0.637426 0
    outer loop
      vertex -50.2216 26.1791 -3
      vertex -49.4227 27.1448 0
      vertex -49.4227 27.1448 -3
    endloop
  endfacet
  facet normal -0.770512 0.637426 0
    outer loop
      vertex -49.4227 27.1448 0
      vertex -50.2216 26.1791 -3
      vertex -50.2216 26.1791 0
    endloop
  endfacet
  facet normal -0.637426 -0.770512 0
    outer loop
      vertex -49.6448 -26.9227 -3
      vertex -48.6791 -27.7216 0
      vertex -49.6448 -26.9227 0
    endloop
  endfacet
  facet normal -0.637426 -0.770512 -0
    outer loop
      vertex -48.6791 -27.7216 0
      vertex -49.6448 -26.9227 -3
      vertex -48.6791 -27.7216 -3
    endloop
  endfacet
  facet normal -0.992114 -0.125341 0
    outer loop
      vertex -50.8429 -24.7435 -3
      vertex -51 -23.5 0
      vertex -51 -23.5 -3
    endloop
  endfacet
  facet normal -0.992114 -0.125341 0
    outer loop
      vertex -51 -23.5 0
      vertex -50.8429 -24.7435 -3
      vertex -50.8429 -24.7435 0
    endloop
  endfacet
  facet normal 0.770512 -0.637426 0
    outer loop
      vertex 49.4227 -27.1448 0
      vertex 50.2216 -26.1791 -3
      vertex 50.2216 -26.1791 0
    endloop
  endfacet
  facet normal 0.770512 -0.637426 0
    outer loop
      vertex 50.2216 -26.1791 -3
      vertex 49.4227 -27.1448 0
      vertex 49.4227 -27.1448 -3
    endloop
  endfacet
  facet normal -0.92977 -0.368142 0
    outer loop
      vertex -50.3815 -25.9088 -3
      vertex -50.8429 -24.7435 0
      vertex -50.8429 -24.7435 -3
    endloop
  endfacet
  facet normal -0.92977 -0.368142 0
    outer loop
      vertex -50.8429 -24.7435 0
      vertex -50.3815 -25.9088 -3
      vertex -50.3815 -25.9088 0
    endloop
  endfacet
  facet normal 0.904802 -0.425832 0
    outer loop
      vertex 50.2216 -26.1791 0
      vertex 50.7553 -25.0451 -3
      vertex 50.7553 -25.0451 0
    endloop
  endfacet
  facet normal 0.904802 -0.425832 0
    outer loop
      vertex 50.7553 -25.0451 -3
      vertex 50.2216 -26.1791 0
      vertex 50.2216 -26.1791 -3
    endloop
  endfacet
  facet normal -0.992115 0.125334 0
    outer loop
      vertex 48.1479 21.6918 -3
      vertex 48.25 22.5 0
      vertex 48.25 22.5 -3
    endloop
  endfacet
  facet normal -0.992115 0.125334 0
    outer loop
      vertex 48.25 22.5 0
      vertex 48.1479 21.6918 -3
      vertex 48.1479 21.6918 0
    endloop
  endfacet
  facet normal -0.992115 -0.125334 0
    outer loop
      vertex 48.25 22.5 -3
      vertex 48.1479 23.3082 0
      vertex 48.1479 23.3082 -3
    endloop
  endfacet
  facet normal -0.992115 -0.125334 0
    outer loop
      vertex 48.1479 23.3082 0
      vertex 48.25 22.5 -3
      vertex 48.25 22.5 0
    endloop
  endfacet
  facet normal 0.876291 0.481782 0
    outer loop
      vertex 42.3707 20.5897 0
      vertex 41.9782 21.3036 -3
      vertex 41.9782 21.3036 0
    endloop
  endfacet
  facet normal 0.876291 0.481782 0
    outer loop
      vertex 41.9782 21.3036 -3
      vertex 42.3707 20.5897 0
      vertex 42.3707 20.5897 -3
    endloop
  endfacet
  facet normal -0.808996 0.587814 0
    outer loop
      vertex 47.3691 20.2752 -3
      vertex 47.848 20.9343 0
      vertex 47.848 20.9343 -3
    endloop
  endfacet
  facet normal -0.808996 0.587814 0
    outer loop
      vertex 47.848 20.9343 0
      vertex 47.3691 20.2752 -3
      vertex 47.3691 20.2752 0
    endloop
  endfacet
  facet normal -0.929783 0.368108 0
    outer loop
      vertex 47.848 20.9343 -3
      vertex 48.1479 21.6918 0
      vertex 48.1479 21.6918 -3
    endloop
  endfacet
  facet normal -0.929783 0.368108 0
    outer loop
      vertex 48.1479 21.6918 0
      vertex 47.848 20.9343 -3
      vertex 47.848 20.9343 0
    endloop
  endfacet
  facet normal -0.425726 -0.904852 0
    outer loop
      vertex 46.0043 25.5909 -3
      vertex 46.7414 25.2441 0
      vertex 46.0043 25.5909 0
    endloop
  endfacet
  facet normal -0.425726 -0.904852 -0
    outer loop
      vertex 46.7414 25.2441 0
      vertex 46.0043 25.5909 -3
      vertex 46.7414 25.2441 -3
    endloop
  endfacet
  facet normal 0.968585 0.248682 0
    outer loop
      vertex 41.9782 21.3036 0
      vertex 41.7756 22.0927 -3
      vertex 41.7756 22.0927 0
    endloop
  endfacet
  facet normal 0.968585 0.248682 0
    outer loop
      vertex 41.7756 22.0927 -3
      vertex 41.9782 21.3036 0
      vertex 41.9782 21.3036 -3
    endloop
  endfacet
  facet normal 0.728974 0.684541 0
    outer loop
      vertex 42.9284 19.9958 0
      vertex 42.3707 20.5897 -3
      vertex 42.3707 20.5897 0
    endloop
  endfacet
  facet normal 0.728974 0.684541 0
    outer loop
      vertex 42.3707 20.5897 -3
      vertex 42.9284 19.9958 0
      vertex 42.9284 19.9958 -3
    endloop
  endfacet
  facet normal 0.308964 0.951074 -0
    outer loop
      vertex 44.391 19.3076 -3
      vertex 43.6162 19.5593 0
      vertex 44.391 19.3076 0
    endloop
  endfacet
  facet normal 0.308964 0.951074 0
    outer loop
      vertex 43.6162 19.5593 0
      vertex 44.391 19.3076 -3
      vertex 43.6162 19.5593 -3
    endloop
  endfacet
  facet normal 0.535835 0.844323 -0
    outer loop
      vertex 43.6162 19.5593 -3
      vertex 42.9284 19.9958 0
      vertex 43.6162 19.5593 0
    endloop
  endfacet
  facet normal 0.535835 0.844323 0
    outer loop
      vertex 42.9284 19.9958 0
      vertex 43.6162 19.5593 -3
      vertex 42.9284 19.9958 -3
    endloop
  endfacet
  facet normal 0.0628444 0.998023 -0
    outer loop
      vertex 45.2041 19.2564 -3
      vertex 44.391 19.3076 0
      vertex 45.2041 19.2564 0
    endloop
  endfacet
  facet normal 0.0628444 0.998023 0
    outer loop
      vertex 44.391 19.3076 0
      vertex 45.2041 19.2564 -3
      vertex 44.391 19.3076 -3
    endloop
  endfacet
  facet normal -0.187445 0.982275 0
    outer loop
      vertex 46.0043 19.4091 -3
      vertex 45.2041 19.2564 0
      vertex 46.0043 19.4091 0
    endloop
  endfacet
  facet normal -0.187445 0.982275 0
    outer loop
      vertex 45.2041 19.2564 0
      vertex 46.0043 19.4091 -3
      vertex 45.2041 19.2564 -3
    endloop
  endfacet
  facet normal -0.63744 0.7705 0
    outer loop
      vertex 47.3691 20.2752 -3
      vertex 46.7414 19.7559 0
      vertex 47.3691 20.2752 0
    endloop
  endfacet
  facet normal -0.63744 0.7705 0
    outer loop
      vertex 46.7414 19.7559 0
      vertex 47.3691 20.2752 -3
      vertex 46.7414 19.7559 -3
    endloop
  endfacet
  facet normal 1 -0 0
    outer loop
      vertex 41.7756 22.0927 0
      vertex 41.7756 22.9073 -3
      vertex 41.7756 22.9073 0
    endloop
  endfacet
  facet normal 1 0 0
    outer loop
      vertex 41.7756 22.9073 -3
      vertex 41.7756 22.0927 0
      vertex 41.7756 22.0927 -3
    endloop
  endfacet
  facet normal 0.968585 -0.248682 0
    outer loop
      vertex 41.7756 22.9073 0
      vertex 41.9782 23.6964 -3
      vertex 41.9782 23.6964 0
    endloop
  endfacet
  facet normal 0.968585 -0.248682 0
    outer loop
      vertex 41.9782 23.6964 -3
      vertex 41.7756 22.9073 0
      vertex 41.7756 22.9073 -3
    endloop
  endfacet
  facet normal 0.0628444 -0.998023 0
    outer loop
      vertex 44.391 25.6924 -3
      vertex 45.2041 25.7436 0
      vertex 44.391 25.6924 0
    endloop
  endfacet
  facet normal 0.0628444 -0.998023 0
    outer loop
      vertex 45.2041 25.7436 0
      vertex 44.391 25.6924 -3
      vertex 45.2041 25.7436 -3
    endloop
  endfacet
  facet normal -0.63744 -0.7705 0
    outer loop
      vertex 46.7414 25.2441 -3
      vertex 47.3691 24.7248 0
      vertex 46.7414 25.2441 0
    endloop
  endfacet
  facet normal -0.63744 -0.7705 -0
    outer loop
      vertex 47.3691 24.7248 0
      vertex 46.7414 25.2441 -3
      vertex 47.3691 24.7248 -3
    endloop
  endfacet
  facet normal 0.876291 -0.481782 0
    outer loop
      vertex 41.9782 23.6964 0
      vertex 42.3707 24.4103 -3
      vertex 42.3707 24.4103 0
    endloop
  endfacet
  facet normal 0.876291 -0.481782 0
    outer loop
      vertex 42.3707 24.4103 -3
      vertex 41.9782 23.6964 0
      vertex 41.9782 23.6964 -3
    endloop
  endfacet
  facet normal 0.728974 -0.684541 0
    outer loop
      vertex 42.3707 24.4103 0
      vertex 42.9284 25.0042 -3
      vertex 42.9284 25.0042 0
    endloop
  endfacet
  facet normal 0.728974 -0.684541 0
    outer loop
      vertex 42.9284 25.0042 -3
      vertex 42.3707 24.4103 0
      vertex 42.3707 24.4103 -3
    endloop
  endfacet
  facet normal -0.187445 -0.982275 0
    outer loop
      vertex 45.2041 25.7436 -3
      vertex 46.0043 25.5909 0
      vertex 45.2041 25.7436 0
    endloop
  endfacet
  facet normal -0.187445 -0.982275 -0
    outer loop
      vertex 46.0043 25.5909 0
      vertex 45.2041 25.7436 -3
      vertex 46.0043 25.5909 -3
    endloop
  endfacet
  facet normal 0.535835 -0.844323 0
    outer loop
      vertex 42.9284 25.0042 -3
      vertex 43.6162 25.4407 0
      vertex 42.9284 25.0042 0
    endloop
  endfacet
  facet normal 0.535835 -0.844323 0
    outer loop
      vertex 43.6162 25.4407 0
      vertex 42.9284 25.0042 -3
      vertex 43.6162 25.4407 -3
    endloop
  endfacet
  facet normal -0.425726 0.904852 0
    outer loop
      vertex 46.7414 19.7559 -3
      vertex 46.0043 19.4091 0
      vertex 46.7414 19.7559 0
    endloop
  endfacet
  facet normal -0.425726 0.904852 0
    outer loop
      vertex 46.0043 19.4091 0
      vertex 46.7414 19.7559 -3
      vertex 46.0043 19.4091 -3
    endloop
  endfacet
  facet normal -0.808996 -0.587814 0
    outer loop
      vertex 47.848 24.0657 -3
      vertex 47.3691 24.7248 0
      vertex 47.3691 24.7248 -3
    endloop
  endfacet
  facet normal -0.808996 -0.587814 0
    outer loop
      vertex 47.3691 24.7248 0
      vertex 47.848 24.0657 -3
      vertex 47.848 24.0657 0
    endloop
  endfacet
  facet normal 0.308964 -0.951074 0
    outer loop
      vertex 43.6162 25.4407 -3
      vertex 44.391 25.6924 0
      vertex 43.6162 25.4407 0
    endloop
  endfacet
  facet normal 0.308964 -0.951074 0
    outer loop
      vertex 44.391 25.6924 0
      vertex 43.6162 25.4407 -3
      vertex 44.391 25.6924 -3
    endloop
  endfacet
  facet normal -0.929783 -0.368108 0
    outer loop
      vertex 48.1479 23.3082 -3
      vertex 47.848 24.0657 0
      vertex 47.848 24.0657 -3
    endloop
  endfacet
  facet normal -0.929783 -0.368108 0
    outer loop
      vertex 47.848 24.0657 0
      vertex 48.1479 23.3082 -3
      vertex 48.1479 23.3082 0
    endloop
  endfacet
  facet normal -0.992115 0.125334 0
    outer loop
      vertex 48.1479 -23.3082 -3
      vertex 48.25 -22.5 0
      vertex 48.25 -22.5 -3
    endloop
  endfacet
  facet normal -0.992115 0.125334 0
    outer loop
      vertex 48.25 -22.5 0
      vertex 48.1479 -23.3082 -3
      vertex 48.1479 -23.3082 0
    endloop
  endfacet
  facet normal -0.992115 -0.125334 0
    outer loop
      vertex 48.25 -22.5 -3
      vertex 48.1479 -21.6918 0
      vertex 48.1479 -21.6918 -3
    endloop
  endfacet
  facet normal -0.992115 -0.125334 0
    outer loop
      vertex 48.1479 -21.6918 0
      vertex 48.25 -22.5 -3
      vertex 48.25 -22.5 0
    endloop
  endfacet
  facet normal 1 -0 0
    outer loop
      vertex 41.7756 -22.9073 0
      vertex 41.7756 -22.0927 -3
      vertex 41.7756 -22.0927 0
    endloop
  endfacet
  facet normal 1 0 0
    outer loop
      vertex 41.7756 -22.0927 -3
      vertex 41.7756 -22.9073 0
      vertex 41.7756 -22.9073 -3
    endloop
  endfacet
  facet normal 0.0628444 0.998023 -0
    outer loop
      vertex 45.2041 -25.7436 -3
      vertex 44.391 -25.6924 0
      vertex 45.2041 -25.7436 0
    endloop
  endfacet
  facet normal 0.0628444 0.998023 0
    outer loop
      vertex 44.391 -25.6924 0
      vertex 45.2041 -25.7436 -3
      vertex 44.391 -25.6924 -3
    endloop
  endfacet
  facet normal 0.0628444 -0.998023 0
    outer loop
      vertex 44.391 -19.3076 -3
      vertex 45.2041 -19.2564 0
      vertex 44.391 -19.3076 0
    endloop
  endfacet
  facet normal 0.0628444 -0.998023 0
    outer loop
      vertex 45.2041 -19.2564 0
      vertex 44.391 -19.3076 -3
      vertex 45.2041 -19.2564 -3
    endloop
  endfacet
  facet normal -0.63744 0.7705 0
    outer loop
      vertex 47.3691 -24.7248 -3
      vertex 46.7414 -25.2441 0
      vertex 47.3691 -24.7248 0
    endloop
  endfacet
  facet normal -0.63744 0.7705 0
    outer loop
      vertex 46.7414 -25.2441 0
      vertex 47.3691 -24.7248 -3
      vertex 46.7414 -25.2441 -3
    endloop
  endfacet
  facet normal -0.808996 0.587814 0
    outer loop
      vertex 47.3691 -24.7248 -3
      vertex 47.848 -24.0657 0
      vertex 47.848 -24.0657 -3
    endloop
  endfacet
  facet normal -0.808996 0.587814 0
    outer loop
      vertex 47.848 -24.0657 0
      vertex 47.3691 -24.7248 -3
      vertex 47.3691 -24.7248 0
    endloop
  endfacet
  facet normal 0.535835 0.844323 -0
    outer loop
      vertex 43.6162 -25.4407 -3
      vertex 42.9284 -25.0042 0
      vertex 43.6162 -25.4407 0
    endloop
  endfacet
  facet normal 0.535835 0.844323 0
    outer loop
      vertex 42.9284 -25.0042 0
      vertex 43.6162 -25.4407 -3
      vertex 42.9284 -25.0042 -3
    endloop
  endfacet
  facet normal -0.929783 0.368108 0
    outer loop
      vertex 47.848 -24.0657 -3
      vertex 48.1479 -23.3082 0
      vertex 48.1479 -23.3082 -3
    endloop
  endfacet
  facet normal -0.929783 0.368108 0
    outer loop
      vertex 48.1479 -23.3082 0
      vertex 47.848 -24.0657 -3
      vertex 47.848 -24.0657 0
    endloop
  endfacet
  facet normal 0.968585 -0.248682 0
    outer loop
      vertex 41.7756 -22.0927 0
      vertex 41.9782 -21.3036 -3
      vertex 41.9782 -21.3036 0
    endloop
  endfacet
  facet normal 0.968585 -0.248682 0
    outer loop
      vertex 41.9782 -21.3036 -3
      vertex 41.7756 -22.0927 0
      vertex 41.7756 -22.0927 -3
    endloop
  endfacet
  facet normal -0.808996 -0.587814 0
    outer loop
      vertex 47.848 -20.9343 -3
      vertex 47.3691 -20.2752 0
      vertex 47.3691 -20.2752 -3
    endloop
  endfacet
  facet normal -0.808996 -0.587814 0
    outer loop
      vertex 47.3691 -20.2752 0
      vertex 47.848 -20.9343 -3
      vertex 47.848 -20.9343 0
    endloop
  endfacet
  facet normal 0.728974 -0.684541 0
    outer loop
      vertex 42.3707 -20.5897 0
      vertex 42.9284 -19.9958 -3
      vertex 42.9284 -19.9958 0
    endloop
  endfacet
  facet normal 0.728974 -0.684541 0
    outer loop
      vertex 42.9284 -19.9958 -3
      vertex 42.3707 -20.5897 0
      vertex 42.3707 -20.5897 -3
    endloop
  endfacet
  facet normal 0.876291 -0.481782 0
    outer loop
      vertex 41.9782 -21.3036 0
      vertex 42.3707 -20.5897 -3
      vertex 42.3707 -20.5897 0
    endloop
  endfacet
  facet normal 0.876291 -0.481782 0
    outer loop
      vertex 42.3707 -20.5897 -3
      vertex 41.9782 -21.3036 0
      vertex 41.9782 -21.3036 -3
    endloop
  endfacet
  facet normal 0.728974 0.684541 0
    outer loop
      vertex 42.9284 -25.0042 0
      vertex 42.3707 -24.4103 -3
      vertex 42.3707 -24.4103 0
    endloop
  endfacet
  facet normal 0.728974 0.684541 0
    outer loop
      vertex 42.3707 -24.4103 -3
      vertex 42.9284 -25.0042 0
      vertex 42.9284 -25.0042 -3
    endloop
  endfacet
  facet normal 0.876291 0.481782 0
    outer loop
      vertex 42.3707 -24.4103 0
      vertex 41.9782 -23.6964 -3
      vertex 41.9782 -23.6964 0
    endloop
  endfacet
  facet normal 0.876291 0.481782 0
    outer loop
      vertex 41.9782 -23.6964 -3
      vertex 42.3707 -24.4103 0
      vertex 42.3707 -24.4103 -3
    endloop
  endfacet
  facet normal 0.968585 0.248682 0
    outer loop
      vertex 41.9782 -23.6964 0
      vertex 41.7756 -22.9073 -3
      vertex 41.7756 -22.9073 0
    endloop
  endfacet
  facet normal 0.968585 0.248682 0
    outer loop
      vertex 41.7756 -22.9073 -3
      vertex 41.9782 -23.6964 0
      vertex 41.9782 -23.6964 -3
    endloop
  endfacet
  facet normal 0.308964 0.951074 -0
    outer loop
      vertex 44.391 -25.6924 -3
      vertex 43.6162 -25.4407 0
      vertex 44.391 -25.6924 0
    endloop
  endfacet
  facet normal 0.308964 0.951074 0
    outer loop
      vertex 43.6162 -25.4407 0
      vertex 44.391 -25.6924 -3
      vertex 43.6162 -25.4407 -3
    endloop
  endfacet
  facet normal -0.187445 0.982275 0
    outer loop
      vertex 46.0043 -25.5909 -3
      vertex 45.2041 -25.7436 0
      vertex 46.0043 -25.5909 0
    endloop
  endfacet
  facet normal -0.187445 0.982275 0
    outer loop
      vertex 45.2041 -25.7436 0
      vertex 46.0043 -25.5909 -3
      vertex 45.2041 -25.7436 -3
    endloop
  endfacet
  facet normal -0.187445 -0.982275 0
    outer loop
      vertex 45.2041 -19.2564 -3
      vertex 46.0043 -19.4091 0
      vertex 45.2041 -19.2564 0
    endloop
  endfacet
  facet normal -0.187445 -0.982275 -0
    outer loop
      vertex 46.0043 -19.4091 0
      vertex 45.2041 -19.2564 -3
      vertex 46.0043 -19.4091 -3
    endloop
  endfacet
  facet normal -0.63744 -0.7705 0
    outer loop
      vertex 46.7414 -19.7559 -3
      vertex 47.3691 -20.2752 0
      vertex 46.7414 -19.7559 0
    endloop
  endfacet
  facet normal -0.63744 -0.7705 -0
    outer loop
      vertex 47.3691 -20.2752 0
      vertex 46.7414 -19.7559 -3
      vertex 47.3691 -20.2752 -3
    endloop
  endfacet
  facet normal -0.425726 -0.904852 0
    outer loop
      vertex 46.0043 -19.4091 -3
      vertex 46.7414 -19.7559 0
      vertex 46.0043 -19.4091 0
    endloop
  endfacet
  facet normal -0.425726 -0.904852 -0
    outer loop
      vertex 46.7414 -19.7559 0
      vertex 46.0043 -19.4091 -3
      vertex 46.7414 -19.7559 -3
    endloop
  endfacet
  facet normal -0.425726 0.904852 0
    outer loop
      vertex 46.7414 -25.2441 -3
      vertex 46.0043 -25.5909 0
      vertex 46.7414 -25.2441 0
    endloop
  endfacet
  facet normal -0.425726 0.904852 0
    outer loop
      vertex 46.0043 -25.5909 0
      vertex 46.7414 -25.2441 -3
      vertex 46.0043 -25.5909 -3
    endloop
  endfacet
  facet normal 0.535835 -0.844323 0
    outer loop
      vertex 42.9284 -19.9958 -3
      vertex 43.6162 -19.5593 0
      vertex 42.9284 -19.9958 0
    endloop
  endfacet
  facet normal 0.535835 -0.844323 0
    outer loop
      vertex 43.6162 -19.5593 0
      vertex 42.9284 -19.9958 -3
      vertex 43.6162 -19.5593 -3
    endloop
  endfacet
  facet normal 0.308964 -0.951074 0
    outer loop
      vertex 43.6162 -19.5593 -3
      vertex 44.391 -19.3076 0
      vertex 43.6162 -19.5593 0
    endloop
  endfacet
  facet normal 0.308964 -0.951074 0
    outer loop
      vertex 44.391 -19.3076 0
      vertex 43.6162 -19.5593 -3
      vertex 44.391 -19.3076 -3
    endloop
  endfacet
  facet normal -0.929783 -0.368108 0
    outer loop
      vertex 48.1479 -21.6918 -3
      vertex 47.848 -20.9343 0
      vertex 47.848 -20.9343 -3
    endloop
  endfacet
  facet normal -0.929783 -0.368108 0
    outer loop
      vertex 47.848 -20.9343 0
      vertex 48.1479 -21.6918 -3
      vertex 48.1479 -21.6918 0
    endloop
  endfacet
  facet normal -0.929783 0.368108 0
    outer loop
      vertex -42.152 20.9343 -3
      vertex -41.8521 21.6918 0
      vertex -41.8521 21.6918 -3
    endloop
  endfacet
  facet normal -0.929783 0.368108 0
    outer loop
      vertex -41.8521 21.6918 0
      vertex -42.152 20.9343 -3
      vertex -42.152 20.9343 0
    endloop
  endfacet
  facet normal -0.992115 0.125334 0
    outer loop
      vertex -41.8521 21.6918 -3
      vertex -41.75 22.5 0
      vertex -41.75 22.5 -3
    endloop
  endfacet
  facet normal -0.992115 0.125334 0
    outer loop
      vertex -41.75 22.5 0
      vertex -41.8521 21.6918 -3
      vertex -41.8521 21.6918 0
    endloop
  endfacet
  facet normal -0.992115 -0.125334 0
    outer loop
      vertex -41.75 22.5 -3
      vertex -41.8521 23.3082 0
      vertex -41.8521 23.3082 -3
    endloop
  endfacet
  facet normal -0.992115 -0.125334 0
    outer loop
      vertex -41.8521 23.3082 0
      vertex -41.75 22.5 -3
      vertex -41.75 22.5 0
    endloop
  endfacet
  facet normal 1 -0 0
    outer loop
      vertex -48.2244 22.0927 0
      vertex -48.2244 22.9073 -3
      vertex -48.2244 22.9073 0
    endloop
  endfacet
  facet normal 1 0 0
    outer loop
      vertex -48.2244 22.9073 -3
      vertex -48.2244 22.0927 0
      vertex -48.2244 22.0927 -3
    endloop
  endfacet
  facet normal 0.0628444 -0.998023 0
    outer loop
      vertex -45.609 25.6924 -3
      vertex -44.7959 25.7436 0
      vertex -45.609 25.6924 0
    endloop
  endfacet
  facet normal 0.0628444 -0.998023 0
    outer loop
      vertex -44.7959 25.7436 0
      vertex -45.609 25.6924 -3
      vertex -44.7959 25.7436 -3
    endloop
  endfacet
  facet normal -0.63744 0.7705 0
    outer loop
      vertex -42.6309 20.2752 -3
      vertex -43.2586 19.7559 0
      vertex -42.6309 20.2752 0
    endloop
  endfacet
  facet normal -0.63744 0.7705 0
    outer loop
      vertex -43.2586 19.7559 0
      vertex -42.6309 20.2752 -3
      vertex -43.2586 19.7559 -3
    endloop
  endfacet
  facet normal -0.808996 0.587814 0
    outer loop
      vertex -42.6309 20.2752 -3
      vertex -42.152 20.9343 0
      vertex -42.152 20.9343 -3
    endloop
  endfacet
  facet normal -0.808996 0.587814 0
    outer loop
      vertex -42.152 20.9343 0
      vertex -42.6309 20.2752 -3
      vertex -42.6309 20.2752 0
    endloop
  endfacet
  facet normal 0.535835 0.844323 -0
    outer loop
      vertex -46.3838 19.5593 -3
      vertex -47.0716 19.9958 0
      vertex -46.3838 19.5593 0
    endloop
  endfacet
  facet normal 0.535835 0.844323 0
    outer loop
      vertex -47.0716 19.9958 0
      vertex -46.3838 19.5593 -3
      vertex -47.0716 19.9958 -3
    endloop
  endfacet
  facet normal 0.0628444 0.998023 -0
    outer loop
      vertex -44.7959 19.2564 -3
      vertex -45.609 19.3076 0
      vertex -44.7959 19.2564 0
    endloop
  endfacet
  facet normal 0.0628444 0.998023 0
    outer loop
      vertex -45.609 19.3076 0
      vertex -44.7959 19.2564 -3
      vertex -45.609 19.3076 -3
    endloop
  endfacet
  facet normal 0.968585 -0.248682 0
    outer loop
      vertex -48.2244 22.9073 0
      vertex -48.0218 23.6964 -3
      vertex -48.0218 23.6964 0
    endloop
  endfacet
  facet normal 0.968585 -0.248682 0
    outer loop
      vertex -48.0218 23.6964 -3
      vertex -48.2244 22.9073 0
      vertex -48.2244 22.9073 -3
    endloop
  endfacet
  facet normal -0.808996 -0.587814 0
    outer loop
      vertex -42.152 24.0657 -3
      vertex -42.6309 24.7248 0
      vertex -42.6309 24.7248 -3
    endloop
  endfacet
  facet normal -0.808996 -0.587814 0
    outer loop
      vertex -42.6309 24.7248 0
      vertex -42.152 24.0657 -3
      vertex -42.152 24.0657 0
    endloop
  endfacet
  facet normal 0.728974 -0.684541 0
    outer loop
      vertex -47.6293 24.4103 0
      vertex -47.0716 25.0042 -3
      vertex -47.0716 25.0042 0
    endloop
  endfacet
  facet normal 0.728974 -0.684541 0
    outer loop
      vertex -47.0716 25.0042 -3
      vertex -47.6293 24.4103 0
      vertex -47.6293 24.4103 -3
    endloop
  endfacet
  facet normal 0.876291 -0.481782 0
    outer loop
      vertex -48.0218 23.6964 0
      vertex -47.6293 24.4103 -3
      vertex -47.6293 24.4103 0
    endloop
  endfacet
  facet normal 0.876291 -0.481782 0
    outer loop
      vertex -47.6293 24.4103 -3
      vertex -48.0218 23.6964 0
      vertex -48.0218 23.6964 -3
    endloop
  endfacet
  facet normal 0.728974 0.684541 0
    outer loop
      vertex -47.0716 19.9958 0
      vertex -47.6293 20.5897 -3
      vertex -47.6293 20.5897 0
    endloop
  endfacet
  facet normal 0.728974 0.684541 0
    outer loop
      vertex -47.6293 20.5897 -3
      vertex -47.0716 19.9958 0
      vertex -47.0716 19.9958 -3
    endloop
  endfacet
  facet normal 0.876291 0.481782 0
    outer loop
      vertex -47.6293 20.5897 0
      vertex -48.0218 21.3036 -3
      vertex -48.0218 21.3036 0
    endloop
  endfacet
  facet normal 0.876291 0.481782 0
    outer loop
      vertex -48.0218 21.3036 -3
      vertex -47.6293 20.5897 0
      vertex -47.6293 20.5897 -3
    endloop
  endfacet
  facet normal 0.968585 0.248682 0
    outer loop
      vertex -48.0218 21.3036 0
      vertex -48.2244 22.0927 -3
      vertex -48.2244 22.0927 0
    endloop
  endfacet
  facet normal 0.968585 0.248682 0
    outer loop
      vertex -48.2244 22.0927 -3
      vertex -48.0218 21.3036 0
      vertex -48.0218 21.3036 -3
    endloop
  endfacet
  facet normal 0.308964 0.951074 -0
    outer loop
      vertex -45.609 19.3076 -3
      vertex -46.3838 19.5593 0
      vertex -45.609 19.3076 0
    endloop
  endfacet
  facet normal 0.308964 0.951074 0
    outer loop
      vertex -46.3838 19.5593 0
      vertex -45.609 19.3076 -3
      vertex -46.3838 19.5593 -3
    endloop
  endfacet
  facet normal -0.187445 0.982275 0
    outer loop
      vertex -43.9957 19.4091 -3
      vertex -44.7959 19.2564 0
      vertex -43.9957 19.4091 0
    endloop
  endfacet
  facet normal -0.187445 0.982275 0
    outer loop
      vertex -44.7959 19.2564 0
      vertex -43.9957 19.4091 -3
      vertex -44.7959 19.2564 -3
    endloop
  endfacet
  facet normal -0.187445 -0.982275 0
    outer loop
      vertex -44.7959 25.7436 -3
      vertex -43.9957 25.5909 0
      vertex -44.7959 25.7436 0
    endloop
  endfacet
  facet normal -0.187445 -0.982275 -0
    outer loop
      vertex -43.9957 25.5909 0
      vertex -44.7959 25.7436 -3
      vertex -43.9957 25.5909 -3
    endloop
  endfacet
  facet normal -0.63744 -0.7705 0
    outer loop
      vertex -43.2586 25.2441 -3
      vertex -42.6309 24.7248 0
      vertex -43.2586 25.2441 0
    endloop
  endfacet
  facet normal -0.63744 -0.7705 -0
    outer loop
      vertex -42.6309 24.7248 0
      vertex -43.2586 25.2441 -3
      vertex -42.6309 24.7248 -3
    endloop
  endfacet
  facet normal -0.425726 -0.904852 0
    outer loop
      vertex -43.9957 25.5909 -3
      vertex -43.2586 25.2441 0
      vertex -43.9957 25.5909 0
    endloop
  endfacet
  facet normal -0.425726 -0.904852 -0
    outer loop
      vertex -43.2586 25.2441 0
      vertex -43.9957 25.5909 -3
      vertex -43.2586 25.2441 -3
    endloop
  endfacet
  facet normal -0.425726 0.904852 0
    outer loop
      vertex -43.2586 19.7559 -3
      vertex -43.9957 19.4091 0
      vertex -43.2586 19.7559 0
    endloop
  endfacet
  facet normal -0.425726 0.904852 0
    outer loop
      vertex -43.9957 19.4091 0
      vertex -43.2586 19.7559 -3
      vertex -43.9957 19.4091 -3
    endloop
  endfacet
  facet normal -0.929783 -0.368108 0
    outer loop
      vertex -41.8521 23.3082 -3
      vertex -42.152 24.0657 0
      vertex -42.152 24.0657 -3
    endloop
  endfacet
  facet normal -0.929783 -0.368108 0
    outer loop
      vertex -42.152 24.0657 0
      vertex -41.8521 23.3082 -3
      vertex -41.8521 23.3082 0
    endloop
  endfacet
  facet normal 0.535835 -0.844323 0
    outer loop
      vertex -47.0716 25.0042 -3
      vertex -46.3838 25.4407 0
      vertex -47.0716 25.0042 0
    endloop
  endfacet
  facet normal 0.535835 -0.844323 0
    outer loop
      vertex -46.3838 25.4407 0
      vertex -47.0716 25.0042 -3
      vertex -46.3838 25.4407 -3
    endloop
  endfacet
  facet normal 0.308964 -0.951074 0
    outer loop
      vertex -46.3838 25.4407 -3
      vertex -45.609 25.6924 0
      vertex -46.3838 25.4407 0
    endloop
  endfacet
  facet normal 0.308964 -0.951074 0
    outer loop
      vertex -45.609 25.6924 0
      vertex -46.3838 25.4407 -3
      vertex -45.609 25.6924 -3
    endloop
  endfacet
  facet normal -0.992115 0.125334 0
    outer loop
      vertex -41.8521 -23.3082 -3
      vertex -41.75 -22.5 0
      vertex -41.75 -22.5 -3
    endloop
  endfacet
  facet normal -0.992115 0.125334 0
    outer loop
      vertex -41.75 -22.5 0
      vertex -41.8521 -23.3082 -3
      vertex -41.8521 -23.3082 0
    endloop
  endfacet
  facet normal -0.992115 -0.125334 0
    outer loop
      vertex -41.75 -22.5 -3
      vertex -41.8521 -21.6918 0
      vertex -41.8521 -21.6918 -3
    endloop
  endfacet
  facet normal -0.992115 -0.125334 0
    outer loop
      vertex -41.8521 -21.6918 0
      vertex -41.75 -22.5 -3
      vertex -41.75 -22.5 0
    endloop
  endfacet
  facet normal 1 -0 0
    outer loop
      vertex -48.2244 -22.9073 0
      vertex -48.2244 -22.0927 -3
      vertex -48.2244 -22.0927 0
    endloop
  endfacet
  facet normal 1 0 0
    outer loop
      vertex -48.2244 -22.0927 -3
      vertex -48.2244 -22.9073 0
      vertex -48.2244 -22.9073 -3
    endloop
  endfacet
  facet normal 0.0628444 -0.998023 0
    outer loop
      vertex -45.609 -19.3076 -3
      vertex -44.7959 -19.2564 0
      vertex -45.609 -19.3076 0
    endloop
  endfacet
  facet normal 0.0628444 -0.998023 0
    outer loop
      vertex -44.7959 -19.2564 0
      vertex -45.609 -19.3076 -3
      vertex -44.7959 -19.2564 -3
    endloop
  endfacet
  facet normal -0.63744 0.7705 0
    outer loop
      vertex -42.6309 -24.7248 -3
      vertex -43.2586 -25.2441 0
      vertex -42.6309 -24.7248 0
    endloop
  endfacet
  facet normal -0.63744 0.7705 0
    outer loop
      vertex -43.2586 -25.2441 0
      vertex -42.6309 -24.7248 -3
      vertex -43.2586 -25.2441 -3
    endloop
  endfacet
  facet normal -0.808996 0.587814 0
    outer loop
      vertex -42.6309 -24.7248 -3
      vertex -42.152 -24.0657 0
      vertex -42.152 -24.0657 -3
    endloop
  endfacet
  facet normal -0.808996 0.587814 0
    outer loop
      vertex -42.152 -24.0657 0
      vertex -42.6309 -24.7248 -3
      vertex -42.6309 -24.7248 0
    endloop
  endfacet
  facet normal 0.535835 0.844323 -0
    outer loop
      vertex -46.3838 -25.4407 -3
      vertex -47.0716 -25.0042 0
      vertex -46.3838 -25.4407 0
    endloop
  endfacet
  facet normal 0.535835 0.844323 0
    outer loop
      vertex -47.0716 -25.0042 0
      vertex -46.3838 -25.4407 -3
      vertex -47.0716 -25.0042 -3
    endloop
  endfacet
  facet normal 0.0628444 0.998023 -0
    outer loop
      vertex -44.7959 -25.7436 -3
      vertex -45.609 -25.6924 0
      vertex -44.7959 -25.7436 0
    endloop
  endfacet
  facet normal 0.0628444 0.998023 0
    outer loop
      vertex -45.609 -25.6924 0
      vertex -44.7959 -25.7436 -3
      vertex -45.609 -25.6924 -3
    endloop
  endfacet
  facet normal -0.929783 0.368108 0
    outer loop
      vertex -42.152 -24.0657 -3
      vertex -41.8521 -23.3082 0
      vertex -41.8521 -23.3082 -3
    endloop
  endfacet
  facet normal -0.929783 0.368108 0
    outer loop
      vertex -41.8521 -23.3082 0
      vertex -42.152 -24.0657 -3
      vertex -42.152 -24.0657 0
    endloop
  endfacet
  facet normal 0.968585 -0.248682 0
    outer loop
      vertex -48.2244 -22.0927 0
      vertex -48.0218 -21.3036 -3
      vertex -48.0218 -21.3036 0
    endloop
  endfacet
  facet normal 0.968585 -0.248682 0
    outer loop
      vertex -48.0218 -21.3036 -3
      vertex -48.2244 -22.0927 0
      vertex -48.2244 -22.0927 -3
    endloop
  endfacet
  facet normal -0.808996 -0.587814 0
    outer loop
      vertex -42.152 -20.9343 -3
      vertex -42.6309 -20.2752 0
      vertex -42.6309 -20.2752 -3
    endloop
  endfacet
  facet normal -0.808996 -0.587814 0
    outer loop
      vertex -42.6309 -20.2752 0
      vertex -42.152 -20.9343 -3
      vertex -42.152 -20.9343 0
    endloop
  endfacet
  facet normal 0.728974 -0.684541 0
    outer loop
      vertex -47.6293 -20.5897 0
      vertex -47.0716 -19.9958 -3
      vertex -47.0716 -19.9958 0
    endloop
  endfacet
  facet normal 0.728974 -0.684541 0
    outer loop
      vertex -47.0716 -19.9958 -3
      vertex -47.6293 -20.5897 0
      vertex -47.6293 -20.5897 -3
    endloop
  endfacet
  facet normal 0.876291 -0.481782 0
    outer loop
      vertex -48.0218 -21.3036 0
      vertex -47.6293 -20.5897 -3
      vertex -47.6293 -20.5897 0
    endloop
  endfacet
  facet normal 0.876291 -0.481782 0
    outer loop
      vertex -47.6293 -20.5897 -3
      vertex -48.0218 -21.3036 0
      vertex -48.0218 -21.3036 -3
    endloop
  endfacet
  facet normal 0.728974 0.684541 0
    outer loop
      vertex -47.0716 -25.0042 0
      vertex -47.6293 -24.4103 -3
      vertex -47.6293 -24.4103 0
    endloop
  endfacet
  facet normal 0.728974 0.684541 0
    outer loop
      vertex -47.6293 -24.4103 -3
      vertex -47.0716 -25.0042 0
      vertex -47.0716 -25.0042 -3
    endloop
  endfacet
  facet normal 0.876291 0.481782 0
    outer loop
      vertex -47.6293 -24.4103 0
      vertex -48.0218 -23.6964 -3
      vertex -48.0218 -23.6964 0
    endloop
  endfacet
  facet normal 0.876291 0.481782 0
    outer loop
      vertex -48.0218 -23.6964 -3
      vertex -47.6293 -24.4103 0
      vertex -47.6293 -24.4103 -3
    endloop
  endfacet
  facet normal 0.968585 0.248682 0
    outer loop
      vertex -48.0218 -23.6964 0
      vertex -48.2244 -22.9073 -3
      vertex -48.2244 -22.9073 0
    endloop
  endfacet
  facet normal 0.968585 0.248682 0
    outer loop
      vertex -48.2244 -22.9073 -3
      vertex -48.0218 -23.6964 0
      vertex -48.0218 -23.6964 -3
    endloop
  endfacet
  facet normal 0.308964 0.951074 -0
    outer loop
      vertex -45.609 -25.6924 -3
      vertex -46.3838 -25.4407 0
      vertex -45.609 -25.6924 0
    endloop
  endfacet
  facet normal 0.308964 0.951074 0
    outer loop
      vertex -46.3838 -25.4407 0
      vertex -45.609 -25.6924 -3
      vertex -46.3838 -25.4407 -3
    endloop
  endfacet
  facet normal -0.187445 0.982275 0
    outer loop
      vertex -43.9957 -25.5909 -3
      vertex -44.7959 -25.7436 0
      vertex -43.9957 -25.5909 0
    endloop
  endfacet
  facet normal -0.187445 0.982275 0
    outer loop
      vertex -44.7959 -25.7436 0
      vertex -43.9957 -25.5909 -3
      vertex -44.7959 -25.7436 -3
    endloop
  endfacet
  facet normal -0.187445 -0.982275 0
    outer loop
      vertex -44.7959 -19.2564 -3
      vertex -43.9957 -19.4091 0
      vertex -44.7959 -19.2564 0
    endloop
  endfacet
  facet normal -0.187445 -0.982275 -0
    outer loop
      vertex -43.9957 -19.4091 0
      vertex -44.7959 -19.2564 -3
      vertex -43.9957 -19.4091 -3
    endloop
  endfacet
  facet normal -0.63744 -0.7705 0
    outer loop
      vertex -43.2586 -19.7559 -3
      vertex -42.6309 -20.2752 0
      vertex -43.2586 -19.7559 0
    endloop
  endfacet
  facet normal -0.63744 -0.7705 -0
    outer loop
      vertex -42.6309 -20.2752 0
      vertex -43.2586 -19.7559 -3
      vertex -42.6309 -20.2752 -3
    endloop
  endfacet
  facet normal -0.425726 -0.904852 0
    outer loop
      vertex -43.9957 -19.4091 -3
      vertex -43.2586 -19.7559 0
      vertex -43.9957 -19.4091 0
    endloop
  endfacet
  facet normal -0.425726 -0.904852 -0
    outer loop
      vertex -43.2586 -19.7559 0
      vertex -43.9957 -19.4091 -3
      vertex -43.2586 -19.7559 -3
    endloop
  endfacet
  facet normal -0.425726 0.904852 0
    outer loop
      vertex -43.2586 -25.2441 -3
      vertex -43.9957 -25.5909 0
      vertex -43.2586 -25.2441 0
    endloop
  endfacet
  facet normal -0.425726 0.904852 0
    outer loop
      vertex -43.9957 -25.5909 0
      vertex -43.2586 -25.2441 -3
      vertex -43.9957 -25.5909 -3
    endloop
  endfacet
  facet normal -0.929783 -0.368108 0
    outer loop
      vertex -41.8521 -21.6918 -3
      vertex -42.152 -20.9343 0
      vertex -42.152 -20.9343 -3
    endloop
  endfacet
  facet normal -0.929783 -0.368108 0
    outer loop
      vertex -42.152 -20.9343 0
      vertex -41.8521 -21.6918 -3
      vertex -41.8521 -21.6918 0
    endloop
  endfacet
  facet normal 0.535835 -0.844323 0
    outer loop
      vertex -47.0716 -19.9958 -3
      vertex -46.3838 -19.5593 0
      vertex -47.0716 -19.9958 0
    endloop
  endfacet
  facet normal 0.535835 -0.844323 0
    outer loop
      vertex -46.3838 -19.5593 0
      vertex -47.0716 -19.9958 -3
      vertex -46.3838 -19.5593 -3
    endloop
  endfacet
  facet normal 0.308964 -0.951074 0
    outer loop
      vertex -46.3838 -19.5593 -3
      vertex -45.609 -19.3076 0
      vertex -46.3838 -19.5593 0
    endloop
  endfacet
  facet normal 0.308964 -0.951074 0
    outer loop
      vertex -45.609 -19.3076 0
      vertex -46.3838 -19.5593 -3
      vertex -45.609 -19.3076 -3
    endloop
  endfacet
endsolid OpenSCAD_Model
