  0
SECTION
  2
BLOCKS
  0
ENDSEC
  0
SECTION
  2
ENTITIES
  0
LINE
  8
0
 10
17.2435
 20
-35.8429
 11
18.4088
 21
-35.3815
  0
LINE
  8
0
 10
18.4088
 20
-35.3815
 11
19.4227
 21
-34.6448
  0
LINE
  8
0
 10
19.4227
 20
-34.6448
 11
20.2216
 21
-33.6791
  0
LINE
  8
0
 10
20.2216
 20
-33.6791
 11
20.7553
 21
-32.5451
  0
LINE
  8
0
 10
20.7553
 20
-32.5451
 11
21
 21
-31
  0
LINE
  8
0
 10
21
 20
-31
 11
21
 21
31
  0
LINE
  8
0
 10
21
 20
31
 11
20.8429
 21
32.2435
  0
LINE
  8
0
 10
20.8429
 20
32.2435
 11
20.3815
 21
33.4088
  0
LINE
  8
0
 10
20.3815
 20
33.4088
 11
19.6448
 21
34.4227
  0
LINE
  8
0
 10
19.6448
 20
34.4227
 11
18.6791
 21
35.2216
  0
LINE
  8
0
 10
18.6791
 20
35.2216
 11
17.5451
 21
35.7553
  0
LINE
  8
0
 10
17.5451
 20
35.7553
 11
16
 21
36
  0
LINE
  8
0
 10
16
 20
36
 11
-16
 21
36
  0
LINE
  8
0
 10
-16
 20
36
 11
-17.2435
 21
35.8429
  0
LINE
  8
0
 10
-17.2435
 20
35.8429
 11
-18.4088
 21
35.3815
  0
LINE
  8
0
 10
-18.4088
 20
35.3815
 11
-19.4227
 21
34.6448
  0
LINE
  8
0
 10
-19.4227
 20
34.6448
 11
-20.2216
 21
33.6791
  0
LINE
  8
0
 10
-20.2216
 20
33.6791
 11
-20.7553
 21
32.5451
  0
LINE
  8
0
 10
-20.7553
 20
32.5451
 11
-21
 21
31
  0
LINE
  8
0
 10
-21
 20
31
 11
-21
 21
-31
  0
LINE
  8
0
 10
-21
 20
-31
 11
-20.8429
 21
-32.2435
  0
LINE
  8
0
 10
-20.8429
 20
-32.2435
 11
-20.3815
 21
-33.4088
  0
LINE
  8
0
 10
-20.3815
 20
-33.4088
 11
-19.6448
 21
-34.4227
  0
LINE
  8
0
 10
-19.6448
 20
-34.4227
 11
-18.6791
 21
-35.2216
  0
LINE
  8
0
 10
-18.6791
 20
-35.2216
 11
-17.5451
 21
-35.7553
  0
LINE
  8
0
 10
-17.5451
 20
-35.7553
 11
-16
 21
-36
  0
LINE
  8
0
 10
-16
 20
-36
 11
16
 21
-36
  0
LINE
  8
0
 10
16
 20
-36
 11
17.2435
 21
-35.8429
  0
LINE
  8
0
 10
-0.373032
 20
26.5471
 11
-0.722626
 21
26.6855
  0
LINE
  8
0
 10
-0.722626
 20
26.6855
 11
-1.02681
 21
26.9065
  0
LINE
  8
0
 10
-1.02681
 20
26.9065
 11
-1.26648
 21
27.1963
  0
LINE
  8
0
 10
-1.26648
 20
27.1963
 11
-1.42657
 21
27.5365
  0
LINE
  8
0
 10
-1.42657
 20
27.5365
 11
-1.49704
 21
27.9058
  0
LINE
  8
0
 10
-1.49704
 20
27.9058
 11
-1.47342
 21
28.2811
  0
LINE
  8
0
 10
-1.47342
 20
28.2811
 11
-1.35724
 21
28.6387
  0
LINE
  8
0
 10
-1.35724
 20
28.6387
 11
-1.15576
 21
28.9561
  0
LINE
  8
0
 10
-1.15576
 20
28.9561
 11
-0.881668
 21
29.2135
  0
LINE
  8
0
 10
-0.881668
 20
29.2135
 11
-0.552185
 21
29.3947
  0
LINE
  8
0
 10
-0.552185
 20
29.3947
 11
-0.187988
 21
29.4882
  0
LINE
  8
0
 10
-0.187988
 20
29.4882
 11
0.187988
 21
29.4882
  0
LINE
  8
0
 10
0.187988
 20
29.4882
 11
0.552185
 21
29.3947
  0
LINE
  8
0
 10
0.552185
 20
29.3947
 11
0.881668
 21
29.2135
  0
LINE
  8
0
 10
0.881668
 20
29.2135
 11
1.15576
 21
28.9561
  0
LINE
  8
0
 10
1.15576
 20
28.9561
 11
1.35724
 21
28.6387
  0
LINE
  8
0
 10
1.35724
 20
28.6387
 11
1.47342
 21
28.2811
  0
LINE
  8
0
 10
1.47342
 20
28.2811
 11
1.49704
 21
27.9058
  0
LINE
  8
0
 10
1.49704
 20
27.9058
 11
1.42657
 21
27.5365
  0
LINE
  8
0
 10
1.42657
 20
27.5365
 11
1.26648
 21
27.1963
  0
LINE
  8
0
 10
1.26648
 20
27.1963
 11
1.02681
 21
26.9065
  0
LINE
  8
0
 10
1.02681
 20
26.9065
 11
0.722626
 21
26.6855
  0
LINE
  8
0
 10
0.722626
 20
26.6855
 11
0.373032
 21
26.5471
  0
LINE
  8
0
 10
0.373032
 20
26.5471
 11
0
 21
26.5
  0
LINE
  8
0
 10
0
 20
26.5
 11
-0.373032
 21
26.5471
  0
LINE
  8
0
 10
-5
 20
15
 11
-5
 21
25
  0
LINE
  8
0
 10
-5
 20
25
 11
5
 21
25
  0
LINE
  8
0
 10
5
 20
25
 11
5
 21
15
  0
LINE
  8
0
 10
5
 20
15
 11
-5
 21
15
  0
LINE
  8
0
 10
-0.373032
 20
10.5471
 11
-0.722626
 21
10.6855
  0
LINE
  8
0
 10
-0.722626
 20
10.6855
 11
-1.02681
 21
10.9065
  0
LINE
  8
0
 10
-1.02681
 20
10.9065
 11
-1.26648
 21
11.1963
  0
LINE
  8
0
 10
-1.26648
 20
11.1963
 11
-1.42657
 21
11.5365
  0
LINE
  8
0
 10
-1.42657
 20
11.5365
 11
-1.49704
 21
11.9058
  0
LINE
  8
0
 10
-1.49704
 20
11.9058
 11
-1.47342
 21
12.2811
  0
LINE
  8
0
 10
-1.47342
 20
12.2811
 11
-1.35724
 21
12.6387
  0
LINE
  8
0
 10
-1.35724
 20
12.6387
 11
-1.15576
 21
12.9561
  0
LINE
  8
0
 10
-1.15576
 20
12.9561
 11
-0.881668
 21
13.2135
  0
LINE
  8
0
 10
-0.881668
 20
13.2135
 11
-0.552185
 21
13.3947
  0
LINE
  8
0
 10
-0.552185
 20
13.3947
 11
-0.187988
 21
13.4882
  0
LINE
  8
0
 10
-0.187988
 20
13.4882
 11
0.187988
 21
13.4882
  0
LINE
  8
0
 10
0.187988
 20
13.4882
 11
0.552185
 21
13.3947
  0
LINE
  8
0
 10
0.552185
 20
13.3947
 11
0.881668
 21
13.2135
  0
LINE
  8
0
 10
0.881668
 20
13.2135
 11
1.15576
 21
12.9561
  0
LINE
  8
0
 10
1.15576
 20
12.9561
 11
1.35724
 21
12.6387
  0
LINE
  8
0
 10
1.35724
 20
12.6387
 11
1.47342
 21
12.2811
  0
LINE
  8
0
 10
1.47342
 20
12.2811
 11
1.49704
 21
11.9058
  0
LINE
  8
0
 10
1.49704
 20
11.9058
 11
1.42657
 21
11.5365
  0
LINE
  8
0
 10
1.42657
 20
11.5365
 11
1.26648
 21
11.1963
  0
LINE
  8
0
 10
1.26648
 20
11.1963
 11
1.02681
 21
10.9065
  0
LINE
  8
0
 10
1.02681
 20
10.9065
 11
0.722626
 21
10.6855
  0
LINE
  8
0
 10
0.722626
 20
10.6855
 11
0.373032
 21
10.5471
  0
LINE
  8
0
 10
0.373032
 20
10.5471
 11
0
 21
10.5
  0
LINE
  8
0
 10
0
 20
10.5
 11
-0.373032
 21
10.5471
  0
LINE
  8
0
 10
-10
 20
-26.5
 11
-10
 21
-3.5
  0
LINE
  8
0
 10
-10
 20
-3.5
 11
10
 21
-3.5
  0
LINE
  8
0
 10
10
 20
-3.5
 11
10
 21
-26.5
  0
LINE
  8
0
 10
10
 20
-26.5
 11
-10
 21
-26.5
  0
LINE
  8
0
 10
12.812
 20
-9.48816
 11
12.4478
 21
-9.39465
  0
LINE
  8
0
 10
12.4478
 20
-9.39465
 11
12.1183
 21
-9.21352
  0
LINE
  8
0
 10
12.1183
 20
-9.21352
 11
11.8442
 21
-8.95613
  0
LINE
  8
0
 10
11.8442
 20
-8.95613
 11
11.6427
 21
-8.63866
  0
LINE
  8
0
 10
11.6427
 20
-8.63866
 11
11.5266
 21
-8.28107
  0
LINE
  8
0
 10
11.5266
 20
-8.28107
 11
11.5029
 21
-7.90581
  0
LINE
  8
0
 10
11.5029
 20
-7.90581
 11
11.5734
 21
-7.53647
  0
LINE
  8
0
 10
11.5734
 20
-7.53647
 11
11.7335
 21
-7.19626
  0
LINE
  8
0
 10
11.7335
 20
-7.19626
 11
11.9732
 21
-6.90654
  0
LINE
  8
0
 10
11.9732
 20
-6.90654
 11
12.2774
 21
-6.68553
  0
LINE
  8
0
 10
12.2774
 20
-6.68553
 11
12.627
 21
-6.54712
  0
LINE
  8
0
 10
12.627
 20
-6.54712
 11
13
 21
-6.5
  0
LINE
  8
0
 10
13
 20
-6.5
 11
13.373
 21
-6.54712
  0
LINE
  8
0
 10
13.373
 20
-6.54712
 11
13.7226
 21
-6.68553
  0
LINE
  8
0
 10
13.7226
 20
-6.68553
 11
14.0268
 21
-6.90654
  0
LINE
  8
0
 10
14.0268
 20
-6.90654
 11
14.2665
 21
-7.19626
  0
LINE
  8
0
 10
14.2665
 20
-7.19626
 11
14.4266
 21
-7.53647
  0
LINE
  8
0
 10
14.4266
 20
-7.53647
 11
14.497
 21
-7.90581
  0
LINE
  8
0
 10
14.497
 20
-7.90581
 11
14.4734
 21
-8.28107
  0
LINE
  8
0
 10
14.4734
 20
-8.28107
 11
14.3572
 21
-8.63866
  0
LINE
  8
0
 10
14.3572
 20
-8.63866
 11
14.1558
 21
-8.95613
  0
LINE
  8
0
 10
14.1558
 20
-8.95613
 11
13.8817
 21
-9.21352
  0
LINE
  8
0
 10
13.8817
 20
-9.21352
 11
13.5522
 21
-9.39465
  0
LINE
  8
0
 10
13.5522
 20
-9.39465
 11
13.188
 21
-9.48816
  0
LINE
  8
0
 10
13.188
 20
-9.48816
 11
12.812
 21
-9.48816
  0
LINE
  8
0
 10
-13.188
 20
-9.48816
 11
-13.5522
 21
-9.39465
  0
LINE
  8
0
 10
-13.5522
 20
-9.39465
 11
-13.8817
 21
-9.21352
  0
LINE
  8
0
 10
-13.8817
 20
-9.21352
 11
-14.1558
 21
-8.95613
  0
LINE
  8
0
 10
-14.1558
 20
-8.95613
 11
-14.3572
 21
-8.63866
  0
LINE
  8
0
 10
-14.3572
 20
-8.63866
 11
-14.4734
 21
-8.28107
  0
LINE
  8
0
 10
-14.4734
 20
-8.28107
 11
-14.497
 21
-7.90581
  0
LINE
  8
0
 10
-14.497
 20
-7.90581
 11
-14.4266
 21
-7.53647
  0
LINE
  8
0
 10
-14.4266
 20
-7.53647
 11
-14.2665
 21
-7.19626
  0
LINE
  8
0
 10
-14.2665
 20
-7.19626
 11
-14.0268
 21
-6.90654
  0
LINE
  8
0
 10
-14.0268
 20
-6.90654
 11
-13.7226
 21
-6.68553
  0
LINE
  8
0
 10
-13.7226
 20
-6.68553
 11
-13.373
 21
-6.54712
  0
LINE
  8
0
 10
-13.373
 20
-6.54712
 11
-13
 21
-6.5
  0
LINE
  8
0
 10
-13
 20
-6.5
 11
-12.627
 21
-6.54712
  0
LINE
  8
0
 10
-12.627
 20
-6.54712
 11
-12.2774
 21
-6.68553
  0
LINE
  8
0
 10
-12.2774
 20
-6.68553
 11
-11.9732
 21
-6.90654
  0
LINE
  8
0
 10
-11.9732
 20
-6.90654
 11
-11.7335
 21
-7.19626
  0
LINE
  8
0
 10
-11.7335
 20
-7.19626
 11
-11.5734
 21
-7.53647
  0
LINE
  8
0
 10
-11.5734
 20
-7.53647
 11
-11.5029
 21
-7.90581
  0
LINE
  8
0
 10
-11.5029
 20
-7.90581
 11
-11.5266
 21
-8.28107
  0
LINE
  8
0
 10
-11.5266
 20
-8.28107
 11
-11.6427
 21
-8.63866
  0
LINE
  8
0
 10
-11.6427
 20
-8.63866
 11
-11.8442
 21
-8.95613
  0
LINE
  8
0
 10
-11.8442
 20
-8.95613
 11
-12.1183
 21
-9.21352
  0
LINE
  8
0
 10
-12.1183
 20
-9.21352
 11
-12.4478
 21
-9.39465
  0
LINE
  8
0
 10
-12.4478
 20
-9.39465
 11
-12.812
 21
-9.48816
  0
LINE
  8
0
 10
-12.812
 20
-9.48816
 11
-13.188
 21
-9.48816
  0
LINE
  8
0
 10
12.812
 20
-23.4882
 11
12.4478
 21
-23.3947
  0
LINE
  8
0
 10
12.4478
 20
-23.3947
 11
12.1183
 21
-23.2135
  0
LINE
  8
0
 10
12.1183
 20
-23.2135
 11
11.8442
 21
-22.9561
  0
LINE
  8
0
 10
11.8442
 20
-22.9561
 11
11.6427
 21
-22.6387
  0
LINE
  8
0
 10
11.6427
 20
-22.6387
 11
11.5266
 21
-22.2811
  0
LINE
  8
0
 10
11.5266
 20
-22.2811
 11
11.5029
 21
-21.9058
  0
LINE
  8
0
 10
11.5029
 20
-21.9058
 11
11.5734
 21
-21.5365
  0
LINE
  8
0
 10
11.5734
 20
-21.5365
 11
11.7335
 21
-21.1963
  0
LINE
  8
0
 10
11.7335
 20
-21.1963
 11
11.9732
 21
-20.9065
  0
LINE
  8
0
 10
11.9732
 20
-20.9065
 11
12.2774
 21
-20.6855
  0
LINE
  8
0
 10
12.2774
 20
-20.6855
 11
12.627
 21
-20.5471
  0
LINE
  8
0
 10
12.627
 20
-20.5471
 11
13
 21
-20.5
  0
LINE
  8
0
 10
13
 20
-20.5
 11
13.373
 21
-20.5471
  0
LINE
  8
0
 10
13.373
 20
-20.5471
 11
13.7226
 21
-20.6855
  0
LINE
  8
0
 10
13.7226
 20
-20.6855
 11
14.0268
 21
-20.9065
  0
LINE
  8
0
 10
14.0268
 20
-20.9065
 11
14.2665
 21
-21.1963
  0
LINE
  8
0
 10
14.2665
 20
-21.1963
 11
14.4266
 21
-21.5365
  0
LINE
  8
0
 10
14.4266
 20
-21.5365
 11
14.497
 21
-21.9058
  0
LINE
  8
0
 10
14.497
 20
-21.9058
 11
14.4734
 21
-22.2811
  0
LINE
  8
0
 10
14.4734
 20
-22.2811
 11
14.3572
 21
-22.6387
  0
LINE
  8
0
 10
14.3572
 20
-22.6387
 11
14.1558
 21
-22.9561
  0
LINE
  8
0
 10
14.1558
 20
-22.9561
 11
13.8817
 21
-23.2135
  0
LINE
  8
0
 10
13.8817
 20
-23.2135
 11
13.5522
 21
-23.3947
  0
LINE
  8
0
 10
13.5522
 20
-23.3947
 11
13.188
 21
-23.4882
  0
LINE
  8
0
 10
13.188
 20
-23.4882
 11
12.812
 21
-23.4882
  0
LINE
  8
0
 10
-13.188
 20
-23.4882
 11
-13.5522
 21
-23.3947
  0
LINE
  8
0
 10
-13.5522
 20
-23.3947
 11
-13.8817
 21
-23.2135
  0
LINE
  8
0
 10
-13.8817
 20
-23.2135
 11
-14.1558
 21
-22.9561
  0
LINE
  8
0
 10
-14.1558
 20
-22.9561
 11
-14.3572
 21
-22.6387
  0
LINE
  8
0
 10
-14.3572
 20
-22.6387
 11
-14.4734
 21
-22.2811
  0
LINE
  8
0
 10
-14.4734
 20
-22.2811
 11
-14.497
 21
-21.9058
  0
LINE
  8
0
 10
-14.497
 20
-21.9058
 11
-14.4266
 21
-21.5365
  0
LINE
  8
0
 10
-14.4266
 20
-21.5365
 11
-14.2665
 21
-21.1963
  0
LINE
  8
0
 10
-14.2665
 20
-21.1963
 11
-14.0268
 21
-20.9065
  0
LINE
  8
0
 10
-14.0268
 20
-20.9065
 11
-13.7226
 21
-20.6855
  0
LINE
  8
0
 10
-13.7226
 20
-20.6855
 11
-13.373
 21
-20.5471
  0
LINE
  8
0
 10
-13.373
 20
-20.5471
 11
-13
 21
-20.5
  0
LINE
  8
0
 10
-13
 20
-20.5
 11
-12.627
 21
-20.5471
  0
LINE
  8
0
 10
-12.627
 20
-20.5471
 11
-12.2774
 21
-20.6855
  0
LINE
  8
0
 10
-12.2774
 20
-20.6855
 11
-11.9732
 21
-20.9065
  0
LINE
  8
0
 10
-11.9732
 20
-20.9065
 11
-11.7335
 21
-21.1963
  0
LINE
  8
0
 10
-11.7335
 20
-21.1963
 11
-11.5734
 21
-21.5365
  0
LINE
  8
0
 10
-11.5734
 20
-21.5365
 11
-11.5029
 21
-21.9058
  0
LINE
  8
0
 10
-11.5029
 20
-21.9058
 11
-11.5266
 21
-22.2811
  0
LINE
  8
0
 10
-11.5266
 20
-22.2811
 11
-11.6427
 21
-22.6387
  0
LINE
  8
0
 10
-11.6427
 20
-22.6387
 11
-11.8442
 21
-22.9561
  0
LINE
  8
0
 10
-11.8442
 20
-22.9561
 11
-12.1183
 21
-23.2135
  0
LINE
  8
0
 10
-12.1183
 20
-23.2135
 11
-12.4478
 21
-23.3947
  0
LINE
  8
0
 10
-12.4478
 20
-23.3947
 11
-12.812
 21
-23.4882
  0
LINE
  8
0
 10
-12.812
 20
-23.4882
 11
-13.188
 21
-23.4882
  0
ENDSEC
  0
SECTION
  2
OBJECTS
  0
DICTIONARY
  0
ENDSEC
  0
EOF
