  0
SECTION
  2
BLOCKS
  0
ENDSEC
  0
SECTION
  2
ENTITIES
  0
LINE
  8
0
 10
5.62143
 20
-29.4686
 11
9.27051
 21
-28.5317
  0
LINE
  8
0
 10
9.27051
 20
-28.5317
 11
12.7734
 21
-27.1448
  0
LINE
  8
0
 10
12.7734
 20
-27.1448
 11
16.0748
 21
-25.3298
  0
LINE
  8
0
 10
16.0748
 20
-25.3298
 11
19.1227
 21
-23.1154
  0
LINE
  8
0
 10
19.1227
 20
-23.1154
 11
21.869
 21
-20.5364
  0
LINE
  8
0
 10
21.869
 20
-20.5364
 11
24.2705
 21
-17.6335
  0
LINE
  8
0
 10
24.2705
 20
-17.6335
 11
26.2892
 21
-14.4526
  0
LINE
  8
0
 10
26.2892
 20
-14.4526
 11
27.8933
 21
-11.0437
  0
LINE
  8
0
 10
27.8933
 20
-11.0437
 11
29.0575
 21
-7.46069
  0
LINE
  8
0
 10
29.0575
 20
-7.46069
 11
29.7634
 21
-3.75999
  0
LINE
  8
0
 10
29.7634
 20
-3.75999
 11
30
 21
0
  0
LINE
  8
0
 10
30
 20
0
 11
29.7634
 21
3.75999
  0
LINE
  8
0
 10
29.7634
 20
3.75999
 11
29.0575
 21
7.46069
  0
LINE
  8
0
 10
29.0575
 20
7.46069
 11
27.8933
 21
11.0437
  0
LINE
  8
0
 10
27.8933
 20
11.0437
 11
26.2892
 21
14.4526
  0
LINE
  8
0
 10
26.2892
 20
14.4526
 11
24.2705
 21
17.6335
  0
LINE
  8
0
 10
24.2705
 20
17.6335
 11
21.869
 21
20.5364
  0
LINE
  8
0
 10
21.869
 20
20.5364
 11
19.1227
 21
23.1154
  0
LINE
  8
0
 10
19.1227
 20
23.1154
 11
16.0748
 21
25.3298
  0
LINE
  8
0
 10
16.0748
 20
25.3298
 11
12.7734
 21
27.1448
  0
LINE
  8
0
 10
12.7734
 20
27.1448
 11
9.27051
 21
28.5317
  0
LINE
  8
0
 10
9.27051
 20
28.5317
 11
5.62143
 21
29.4686
  0
LINE
  8
0
 10
5.62143
 20
29.4686
 11
1.88371
 21
29.9408
  0
LINE
  8
0
 10
1.88371
 20
29.9408
 11
-1.88371
 21
29.9408
  0
LINE
  8
0
 10
-1.88371
 20
29.9408
 11
-5.62143
 21
29.4686
  0
LINE
  8
0
 10
-5.62143
 20
29.4686
 11
-9.27051
 21
28.5317
  0
LINE
  8
0
 10
-9.27051
 20
28.5317
 11
-12.7734
 21
27.1448
  0
LINE
  8
0
 10
-12.7734
 20
27.1448
 11
-16.0748
 21
25.3298
  0
LINE
  8
0
 10
-16.0748
 20
25.3298
 11
-19.1227
 21
23.1154
  0
LINE
  8
0
 10
-19.1227
 20
23.1154
 11
-21.869
 21
20.5364
  0
LINE
  8
0
 10
-21.869
 20
20.5364
 11
-24.2705
 21
17.6335
  0
LINE
  8
0
 10
-24.2705
 20
17.6335
 11
-26.2892
 21
14.4526
  0
LINE
  8
0
 10
-26.2892
 20
14.4526
 11
-27.8933
 21
11.0437
  0
LINE
  8
0
 10
-27.8933
 20
11.0437
 11
-29.0575
 21
7.46069
  0
LINE
  8
0
 10
-29.0575
 20
7.46069
 11
-29.7634
 21
3.75999
  0
LINE
  8
0
 10
-29.7634
 20
3.75999
 11
-30
 21
0
  0
LINE
  8
0
 10
-30
 20
0
 11
-29.7634
 21
-3.75999
  0
LINE
  8
0
 10
-29.7634
 20
-3.75999
 11
-29.0575
 21
-7.46069
  0
LINE
  8
0
 10
-29.0575
 20
-7.46069
 11
-27.8933
 21
-11.0437
  0
LINE
  8
0
 10
-27.8933
 20
-11.0437
 11
-26.2892
 21
-14.4526
  0
LINE
  8
0
 10
-26.2892
 20
-14.4526
 11
-24.2705
 21
-17.6335
  0
LINE
  8
0
 10
-24.2705
 20
-17.6335
 11
-21.869
 21
-20.5364
  0
LINE
  8
0
 10
-21.869
 20
-20.5364
 11
-19.1227
 21
-23.1154
  0
LINE
  8
0
 10
-19.1227
 20
-23.1154
 11
-16.0748
 21
-25.3298
  0
LINE
  8
0
 10
-16.0748
 20
-25.3298
 11
-12.7734
 21
-27.1448
  0
LINE
  8
0
 10
-12.7734
 20
-27.1448
 11
-9.27051
 21
-28.5317
  0
LINE
  8
0
 10
-9.27051
 20
-28.5317
 11
-5.62143
 21
-29.4686
  0
LINE
  8
0
 10
-5.62143
 20
-29.4686
 11
-1.88371
 21
-29.9408
  0
LINE
  8
0
 10
-1.88371
 20
-29.9408
 11
1.88371
 21
-29.9408
  0
LINE
  8
0
 10
1.88371
 20
-29.9408
 11
5.62143
 21
-29.4686
  0
LINE
  8
0
 10
-5.89149
 20
4.17531
 11
-6.07533
 21
4.2164
  0
LINE
  8
0
 10
-6.07533
 20
4.2164
 11
-6.25256
 21
4.28021
  0
LINE
  8
0
 10
-6.25256
 20
4.28021
 11
-6.42041
 21
4.36574
  0
LINE
  8
0
 10
-6.42041
 20
4.36574
 11
-6.5762
 21
4.47162
  0
LINE
  8
0
 10
-6.5762
 20
4.47162
 11
-6.71751
 21
4.59619
  0
LINE
  8
0
 10
-6.71751
 20
4.59619
 11
-6.84207
 21
4.73749
  0
LINE
  8
0
 10
-6.84207
 20
4.73749
 11
-6.94795
 21
4.89328
  0
LINE
  8
0
 10
-6.94795
 20
4.89328
 11
-7.03348
 21
5.06113
  0
LINE
  8
0
 10
-7.03348
 20
5.06113
 11
-7.09729
 21
5.23836
  0
LINE
  8
0
 10
-7.09729
 20
5.23836
 11
-7.13838
 21
5.4222
  0
LINE
  8
0
 10
-7.13838
 20
5.4222
 11
-7.15611
 21
5.60973
  0
LINE
  8
0
 10
-7.15611
 20
5.60973
 11
-7.15019
 21
5.798
  0
LINE
  8
0
 10
-7.15019
 20
5.798
 11
-7.12073
 21
5.98405
  0
LINE
  8
0
 10
-7.12073
 20
5.98405
 11
-7.06816
 21
6.16495
  0
LINE
  8
0
 10
-7.06816
 20
6.16495
 11
-6.99336
 21
6.33783
  0
LINE
  8
0
 10
-6.99336
 20
6.33783
 11
-6.89746
 21
6.49997
  0
LINE
  8
0
 10
-6.89746
 20
6.49997
 11
-6.78201
 21
6.64882
  0
LINE
  8
0
 10
-6.78201
 20
6.64882
 11
-6.64882
 21
6.78201
  0
LINE
  8
0
 10
-6.64882
 20
6.78201
 11
-6.49997
 21
6.89746
  0
LINE
  8
0
 10
-6.49997
 20
6.89746
 11
-6.33783
 21
6.99336
  0
LINE
  8
0
 10
-6.33783
 20
6.99336
 11
-6.16495
 21
7.06816
  0
LINE
  8
0
 10
-6.16495
 20
7.06816
 11
-5.98405
 21
7.12073
  0
LINE
  8
0
 10
-5.98405
 20
7.12073
 11
-5.798
 21
7.15019
  0
LINE
  8
0
 10
-5.798
 20
7.15019
 11
-5.60973
 21
7.15611
  0
LINE
  8
0
 10
-5.60973
 20
7.15611
 11
-5.4222
 21
7.13838
  0
LINE
  8
0
 10
-5.4222
 20
7.13838
 11
-5.23836
 21
7.09729
  0
LINE
  8
0
 10
-5.23836
 20
7.09729
 11
-5.06113
 21
7.03348
  0
LINE
  8
0
 10
-5.06113
 20
7.03348
 11
-4.89328
 21
6.94795
  0
LINE
  8
0
 10
-4.89328
 20
6.94795
 11
-4.73749
 21
6.84207
  0
LINE
  8
0
 10
-4.73749
 20
6.84207
 11
-4.59619
 21
6.71751
  0
LINE
  8
0
 10
-4.59619
 20
6.71751
 11
-4.47162
 21
6.5762
  0
LINE
  8
0
 10
-4.47162
 20
6.5762
 11
-4.36574
 21
6.42041
  0
LINE
  8
0
 10
-4.36574
 20
6.42041
 11
-4.28021
 21
6.25256
  0
LINE
  8
0
 10
-4.28021
 20
6.25256
 11
-4.2164
 21
6.07533
  0
LINE
  8
0
 10
-4.2164
 20
6.07533
 11
-4.17531
 21
5.89149
  0
LINE
  8
0
 10
-4.17531
 20
5.89149
 11
-4.15759
 21
5.70396
  0
LINE
  8
0
 10
-4.15759
 20
5.70396
 11
-4.1635
 21
5.51569
  0
LINE
  8
0
 10
-4.1635
 20
5.51569
 11
-4.19298
 21
5.32964
  0
LINE
  8
0
 10
-4.19298
 20
5.32964
 11
-4.24553
 21
5.14874
  0
LINE
  8
0
 10
-4.24553
 20
5.14874
 11
-4.32034
 21
4.97586
  0
LINE
  8
0
 10
-4.32034
 20
4.97586
 11
-4.41623
 21
4.81372
  0
LINE
  8
0
 10
-4.41623
 20
4.81372
 11
-4.53168
 21
4.66487
  0
LINE
  8
0
 10
-4.53168
 20
4.66487
 11
-4.66487
 21
4.53168
  0
LINE
  8
0
 10
-4.66487
 20
4.53168
 11
-4.81372
 21
4.41623
  0
LINE
  8
0
 10
-4.81372
 20
4.41623
 11
-4.97586
 21
4.32034
  0
LINE
  8
0
 10
-4.97586
 20
4.32034
 11
-5.14874
 21
4.24553
  0
LINE
  8
0
 10
-5.14874
 20
4.24553
 11
-5.32964
 21
4.19298
  0
LINE
  8
0
 10
-5.32964
 20
4.19298
 11
-5.51569
 21
4.1635
  0
LINE
  8
0
 10
-5.51569
 20
4.1635
 11
-5.70396
 21
4.15759
  0
LINE
  8
0
 10
-5.70396
 20
4.15759
 11
-5.89149
 21
4.17531
  0
LINE
  8
0
 10
5.4222
 20
4.17531
 11
5.23836
 21
4.2164
  0
LINE
  8
0
 10
5.23836
 20
4.2164
 11
5.06113
 21
4.28021
  0
LINE
  8
0
 10
5.06113
 20
4.28021
 11
4.89328
 21
4.36574
  0
LINE
  8
0
 10
4.89328
 20
4.36574
 11
4.73749
 21
4.47162
  0
LINE
  8
0
 10
4.73749
 20
4.47162
 11
4.59619
 21
4.59619
  0
LINE
  8
0
 10
4.59619
 20
4.59619
 11
4.47162
 21
4.73749
  0
LINE
  8
0
 10
4.47162
 20
4.73749
 11
4.36574
 21
4.89328
  0
LINE
  8
0
 10
4.36574
 20
4.89328
 11
4.28021
 21
5.06113
  0
LINE
  8
0
 10
4.28021
 20
5.06113
 11
4.2164
 21
5.23836
  0
LINE
  8
0
 10
4.2164
 20
5.23836
 11
4.17531
 21
5.4222
  0
LINE
  8
0
 10
4.17531
 20
5.4222
 11
4.15759
 21
5.60973
  0
LINE
  8
0
 10
4.15759
 20
5.60973
 11
4.1635
 21
5.798
  0
LINE
  8
0
 10
4.1635
 20
5.798
 11
4.19298
 21
5.98405
  0
LINE
  8
0
 10
4.19298
 20
5.98405
 11
4.24553
 21
6.16495
  0
LINE
  8
0
 10
4.24553
 20
6.16495
 11
4.32034
 21
6.33783
  0
LINE
  8
0
 10
4.32034
 20
6.33783
 11
4.41623
 21
6.49997
  0
LINE
  8
0
 10
4.41623
 20
6.49997
 11
4.53168
 21
6.64882
  0
LINE
  8
0
 10
4.53168
 20
6.64882
 11
4.66487
 21
6.78201
  0
LINE
  8
0
 10
4.66487
 20
6.78201
 11
4.81372
 21
6.89746
  0
LINE
  8
0
 10
4.81372
 20
6.89746
 11
4.97586
 21
6.99336
  0
LINE
  8
0
 10
4.97586
 20
6.99336
 11
5.14874
 21
7.06816
  0
LINE
  8
0
 10
5.14874
 20
7.06816
 11
5.32964
 21
7.12073
  0
LINE
  8
0
 10
5.32964
 20
7.12073
 11
5.51569
 21
7.15019
  0
LINE
  8
0
 10
5.51569
 20
7.15019
 11
5.70396
 21
7.15611
  0
LINE
  8
0
 10
5.70396
 20
7.15611
 11
5.89149
 21
7.13838
  0
LINE
  8
0
 10
5.89149
 20
7.13838
 11
6.07533
 21
7.09729
  0
LINE
  8
0
 10
6.07533
 20
7.09729
 11
6.25256
 21
7.03348
  0
LINE
  8
0
 10
6.25256
 20
7.03348
 11
6.42041
 21
6.94795
  0
LINE
  8
0
 10
6.42041
 20
6.94795
 11
6.5762
 21
6.84207
  0
LINE
  8
0
 10
6.5762
 20
6.84207
 11
6.71751
 21
6.71751
  0
LINE
  8
0
 10
6.71751
 20
6.71751
 11
6.84207
 21
6.5762
  0
LINE
  8
0
 10
6.84207
 20
6.5762
 11
6.94795
 21
6.42041
  0
LINE
  8
0
 10
6.94795
 20
6.42041
 11
7.03348
 21
6.25256
  0
LINE
  8
0
 10
7.03348
 20
6.25256
 11
7.09729
 21
6.07533
  0
LINE
  8
0
 10
7.09729
 20
6.07533
 11
7.13838
 21
5.89149
  0
LINE
  8
0
 10
7.13838
 20
5.89149
 11
7.15611
 21
5.70396
  0
LINE
  8
0
 10
7.15611
 20
5.70396
 11
7.15019
 21
5.51569
  0
LINE
  8
0
 10
7.15019
 20
5.51569
 11
7.12073
 21
5.32964
  0
LINE
  8
0
 10
7.12073
 20
5.32964
 11
7.06816
 21
5.14874
  0
LINE
  8
0
 10
7.06816
 20
5.14874
 11
6.99336
 21
4.97586
  0
LINE
  8
0
 10
6.99336
 20
4.97586
 11
6.89746
 21
4.81372
  0
LINE
  8
0
 10
6.89746
 20
4.81372
 11
6.78201
 21
4.66487
  0
LINE
  8
0
 10
6.78201
 20
4.66487
 11
6.64882
 21
4.53168
  0
LINE
  8
0
 10
6.64882
 20
4.53168
 11
6.49997
 21
4.41623
  0
LINE
  8
0
 10
6.49997
 20
4.41623
 11
6.33783
 21
4.32034
  0
LINE
  8
0
 10
6.33783
 20
4.32034
 11
6.16495
 21
4.24553
  0
LINE
  8
0
 10
6.16495
 20
4.24553
 11
5.98405
 21
4.19298
  0
LINE
  8
0
 10
5.98405
 20
4.19298
 11
5.798
 21
4.1635
  0
LINE
  8
0
 10
5.798
 20
4.1635
 11
5.60973
 21
4.15759
  0
LINE
  8
0
 10
5.60973
 20
4.15759
 11
5.4222
 21
4.17531
  0
LINE
  8
0
 10
-0.469299
 20
-2.96306
 11
-0.83696
 21
-2.88087
  0
LINE
  8
0
 10
-0.83696
 20
-2.88087
 11
-1.19144
 21
-2.75325
  0
LINE
  8
0
 10
-1.19144
 20
-2.75325
 11
-1.52711
 21
-2.58221
  0
LINE
  8
0
 10
-1.52711
 20
-2.58221
 11
-1.83871
 21
-2.37045
  0
LINE
  8
0
 10
-1.83871
 20
-2.37045
 11
-2.12131
 21
-2.12131
  0
LINE
  8
0
 10
-2.12131
 20
-2.12131
 11
-2.37045
 21
-1.83871
  0
LINE
  8
0
 10
-2.37045
 20
-1.83871
 11
-2.58221
 21
-1.52711
  0
LINE
  8
0
 10
-2.58221
 20
-1.52711
 11
-2.75325
 21
-1.19144
  0
LINE
  8
0
 10
-2.75325
 20
-1.19144
 11
-2.88087
 21
-0.83696
  0
LINE
  8
0
 10
-2.88087
 20
-0.83696
 11
-2.96306
 21
-0.469299
  0
LINE
  8
0
 10
-2.96306
 20
-0.469299
 11
-2.9985
 21
-0.094223
  0
LINE
  8
0
 10
-2.9985
 20
-0.094223
 11
-2.98668
 21
0.282318
  0
LINE
  8
0
 10
-2.98668
 20
0.282318
 11
-2.92773
 21
0.654419
  0
LINE
  8
0
 10
-2.92773
 20
0.654419
 11
-2.82263
 21
1.0162
  0
LINE
  8
0
 10
-2.82263
 20
1.0162
 11
-2.673
 21
1.36197
  0
LINE
  8
0
 10
-2.673
 20
1.36197
 11
-2.48123
 21
1.68625
  0
LINE
  8
0
 10
-2.48123
 20
1.68625
 11
-2.25032
 21
1.98393
  0
LINE
  8
0
 10
-2.25032
 20
1.98393
 11
-1.98393
 21
2.25032
  0
LINE
  8
0
 10
-1.98393
 20
2.25032
 11
-1.68625
 21
2.48123
  0
LINE
  8
0
 10
-1.68625
 20
2.48123
 11
-1.36197
 21
2.673
  0
LINE
  8
0
 10
-1.36197
 20
2.673
 11
-1.0162
 21
2.82263
  0
LINE
  8
0
 10
-1.0162
 20
2.82263
 11
-0.654419
 21
2.92773
  0
LINE
  8
0
 10
-0.654419
 20
2.92773
 11
-0.282318
 21
2.98668
  0
LINE
  8
0
 10
-0.282318
 20
2.98668
 11
0.094223
 21
2.9985
  0
LINE
  8
0
 10
0.094223
 20
2.9985
 11
0.469299
 21
2.96306
  0
LINE
  8
0
 10
0.469299
 20
2.96306
 11
0.83696
 21
2.88087
  0
LINE
  8
0
 10
0.83696
 20
2.88087
 11
1.19144
 21
2.75325
  0
LINE
  8
0
 10
1.19144
 20
2.75325
 11
1.52711
 21
2.58221
  0
LINE
  8
0
 10
1.52711
 20
2.58221
 11
1.83871
 21
2.37045
  0
LINE
  8
0
 10
1.83871
 20
2.37045
 11
2.12131
 21
2.12131
  0
LINE
  8
0
 10
2.12131
 20
2.12131
 11
2.37045
 21
1.83871
  0
LINE
  8
0
 10
2.37045
 20
1.83871
 11
2.58221
 21
1.52711
  0
LINE
  8
0
 10
2.58221
 20
1.52711
 11
2.75325
 21
1.19144
  0
LINE
  8
0
 10
2.75325
 20
1.19144
 11
2.88087
 21
0.83696
  0
LINE
  8
0
 10
2.88087
 20
0.83696
 11
2.96306
 21
0.469299
  0
LINE
  8
0
 10
2.96306
 20
0.469299
 11
2.9985
 21
0.094223
  0
LINE
  8
0
 10
2.9985
 20
0.094223
 11
2.98668
 21
-0.282318
  0
LINE
  8
0
 10
2.98668
 20
-0.282318
 11
2.92773
 21
-0.654419
  0
LINE
  8
0
 10
2.92773
 20
-0.654419
 11
2.82263
 21
-1.0162
  0
LINE
  8
0
 10
2.82263
 20
-1.0162
 11
2.673
 21
-1.36197
  0
LINE
  8
0
 10
2.673
 20
-1.36197
 11
2.48123
 21
-1.68625
  0
LINE
  8
0
 10
2.48123
 20
-1.68625
 11
2.25032
 21
-1.98393
  0
LINE
  8
0
 10
2.25032
 20
-1.98393
 11
1.98393
 21
-2.25032
  0
LINE
  8
0
 10
1.98393
 20
-2.25032
 11
1.68625
 21
-2.48123
  0
LINE
  8
0
 10
1.68625
 20
-2.48123
 11
1.36197
 21
-2.673
  0
LINE
  8
0
 10
1.36197
 20
-2.673
 11
1.0162
 21
-2.82263
  0
LINE
  8
0
 10
1.0162
 20
-2.82263
 11
0.654419
 21
-2.92773
  0
LINE
  8
0
 10
0.654419
 20
-2.92773
 11
0.282318
 21
-2.98668
  0
LINE
  8
0
 10
0.282318
 20
-2.98668
 11
-0.094223
 21
-2.9985
  0
LINE
  8
0
 10
-0.094223
 20
-2.9985
 11
-0.469299
 21
-2.96306
  0
LINE
  8
0
 10
21.5
 20
-2.5
 11
21.5
 21
2.5
  0
LINE
  8
0
 10
21.5
 20
2.5
 11
24.5
 21
2.5
  0
LINE
  8
0
 10
24.5
 20
2.5
 11
24.5
 21
-2.5
  0
LINE
  8
0
 10
24.5
 20
-2.5
 11
21.5
 21
-2.5
  0
LINE
  8
0
 10
5.5
 20
-2.5
 11
5.5
 21
2.5
  0
LINE
  8
0
 10
5.5
 20
2.5
 11
8.5
 21
2.5
  0
LINE
  8
0
 10
8.5
 20
2.5
 11
8.5
 21
-2.5
  0
LINE
  8
0
 10
8.5
 20
-2.5
 11
5.5
 21
-2.5
  0
LINE
  8
0
 10
-5.89149
 20
-7.13838
 11
-6.07533
 21
-7.09729
  0
LINE
  8
0
 10
-6.07533
 20
-7.09729
 11
-6.25256
 21
-7.03348
  0
LINE
  8
0
 10
-6.25256
 20
-7.03348
 11
-6.42041
 21
-6.94795
  0
LINE
  8
0
 10
-6.42041
 20
-6.94795
 11
-6.5762
 21
-6.84207
  0
LINE
  8
0
 10
-6.5762
 20
-6.84207
 11
-6.71751
 21
-6.71751
  0
LINE
  8
0
 10
-6.71751
 20
-6.71751
 11
-6.84207
 21
-6.5762
  0
LINE
  8
0
 10
-6.84207
 20
-6.5762
 11
-6.94795
 21
-6.42041
  0
LINE
  8
0
 10
-6.94795
 20
-6.42041
 11
-7.03348
 21
-6.25256
  0
LINE
  8
0
 10
-7.03348
 20
-6.25256
 11
-7.09729
 21
-6.07533
  0
LINE
  8
0
 10
-7.09729
 20
-6.07533
 11
-7.13838
 21
-5.89149
  0
LINE
  8
0
 10
-7.13838
 20
-5.89149
 11
-7.15611
 21
-5.70396
  0
LINE
  8
0
 10
-7.15611
 20
-5.70396
 11
-7.15019
 21
-5.51569
  0
LINE
  8
0
 10
-7.15019
 20
-5.51569
 11
-7.12073
 21
-5.32964
  0
LINE
  8
0
 10
-7.12073
 20
-5.32964
 11
-7.06816
 21
-5.14874
  0
LINE
  8
0
 10
-7.06816
 20
-5.14874
 11
-6.99336
 21
-4.97586
  0
LINE
  8
0
 10
-6.99336
 20
-4.97586
 11
-6.89746
 21
-4.81372
  0
LINE
  8
0
 10
-6.89746
 20
-4.81372
 11
-6.78201
 21
-4.66487
  0
LINE
  8
0
 10
-6.78201
 20
-4.66487
 11
-6.64882
 21
-4.53168
  0
LINE
  8
0
 10
-6.64882
 20
-4.53168
 11
-6.49997
 21
-4.41623
  0
LINE
  8
0
 10
-6.49997
 20
-4.41623
 11
-6.33783
 21
-4.32034
  0
LINE
  8
0
 10
-6.33783
 20
-4.32034
 11
-6.16495
 21
-4.24553
  0
LINE
  8
0
 10
-6.16495
 20
-4.24553
 11
-5.98405
 21
-4.19298
  0
LINE
  8
0
 10
-5.98405
 20
-4.19298
 11
-5.798
 21
-4.1635
  0
LINE
  8
0
 10
-5.798
 20
-4.1635
 11
-5.60973
 21
-4.15759
  0
LINE
  8
0
 10
-5.60973
 20
-4.15759
 11
-5.4222
 21
-4.17531
  0
LINE
  8
0
 10
-5.4222
 20
-4.17531
 11
-5.23836
 21
-4.2164
  0
LINE
  8
0
 10
-5.23836
 20
-4.2164
 11
-5.06113
 21
-4.28021
  0
LINE
  8
0
 10
-5.06113
 20
-4.28021
 11
-4.89328
 21
-4.36574
  0
LINE
  8
0
 10
-4.89328
 20
-4.36574
 11
-4.73749
 21
-4.47162
  0
LINE
  8
0
 10
-4.73749
 20
-4.47162
 11
-4.59619
 21
-4.59619
  0
LINE
  8
0
 10
-4.59619
 20
-4.59619
 11
-4.47162
 21
-4.73749
  0
LINE
  8
0
 10
-4.47162
 20
-4.73749
 11
-4.36574
 21
-4.89328
  0
LINE
  8
0
 10
-4.36574
 20
-4.89328
 11
-4.28021
 21
-5.06113
  0
LINE
  8
0
 10
-4.28021
 20
-5.06113
 11
-4.2164
 21
-5.23836
  0
LINE
  8
0
 10
-4.2164
 20
-5.23836
 11
-4.17531
 21
-5.4222
  0
LINE
  8
0
 10
-4.17531
 20
-5.4222
 11
-4.15759
 21
-5.60973
  0
LINE
  8
0
 10
-4.15759
 20
-5.60973
 11
-4.1635
 21
-5.798
  0
LINE
  8
0
 10
-4.1635
 20
-5.798
 11
-4.19298
 21
-5.98405
  0
LINE
  8
0
 10
-4.19298
 20
-5.98405
 11
-4.24553
 21
-6.16495
  0
LINE
  8
0
 10
-4.24553
 20
-6.16495
 11
-4.32034
 21
-6.33783
  0
LINE
  8
0
 10
-4.32034
 20
-6.33783
 11
-4.41623
 21
-6.49997
  0
LINE
  8
0
 10
-4.41623
 20
-6.49997
 11
-4.53168
 21
-6.64882
  0
LINE
  8
0
 10
-4.53168
 20
-6.64882
 11
-4.66487
 21
-6.78201
  0
LINE
  8
0
 10
-4.66487
 20
-6.78201
 11
-4.81372
 21
-6.89746
  0
LINE
  8
0
 10
-4.81372
 20
-6.89746
 11
-4.97586
 21
-6.99336
  0
LINE
  8
0
 10
-4.97586
 20
-6.99336
 11
-5.14874
 21
-7.06816
  0
LINE
  8
0
 10
-5.14874
 20
-7.06816
 11
-5.32964
 21
-7.12073
  0
LINE
  8
0
 10
-5.32964
 20
-7.12073
 11
-5.51569
 21
-7.15019
  0
LINE
  8
0
 10
-5.51569
 20
-7.15019
 11
-5.70396
 21
-7.15611
  0
LINE
  8
0
 10
-5.70396
 20
-7.15611
 11
-5.89149
 21
-7.13838
  0
LINE
  8
0
 10
5.4222
 20
-7.13838
 11
5.23836
 21
-7.09729
  0
LINE
  8
0
 10
5.23836
 20
-7.09729
 11
5.06113
 21
-7.03348
  0
LINE
  8
0
 10
5.06113
 20
-7.03348
 11
4.89328
 21
-6.94795
  0
LINE
  8
0
 10
4.89328
 20
-6.94795
 11
4.73749
 21
-6.84207
  0
LINE
  8
0
 10
4.73749
 20
-6.84207
 11
4.59619
 21
-6.71751
  0
LINE
  8
0
 10
4.59619
 20
-6.71751
 11
4.47162
 21
-6.5762
  0
LINE
  8
0
 10
4.47162
 20
-6.5762
 11
4.36574
 21
-6.42041
  0
LINE
  8
0
 10
4.36574
 20
-6.42041
 11
4.28021
 21
-6.25256
  0
LINE
  8
0
 10
4.28021
 20
-6.25256
 11
4.2164
 21
-6.07533
  0
LINE
  8
0
 10
4.2164
 20
-6.07533
 11
4.17531
 21
-5.89149
  0
LINE
  8
0
 10
4.17531
 20
-5.89149
 11
4.15759
 21
-5.70396
  0
LINE
  8
0
 10
4.15759
 20
-5.70396
 11
4.1635
 21
-5.51569
  0
LINE
  8
0
 10
4.1635
 20
-5.51569
 11
4.19298
 21
-5.32964
  0
LINE
  8
0
 10
4.19298
 20
-5.32964
 11
4.24553
 21
-5.14874
  0
LINE
  8
0
 10
4.24553
 20
-5.14874
 11
4.32034
 21
-4.97586
  0
LINE
  8
0
 10
4.32034
 20
-4.97586
 11
4.41623
 21
-4.81372
  0
LINE
  8
0
 10
4.41623
 20
-4.81372
 11
4.53168
 21
-4.66487
  0
LINE
  8
0
 10
4.53168
 20
-4.66487
 11
4.66487
 21
-4.53168
  0
LINE
  8
0
 10
4.66487
 20
-4.53168
 11
4.81372
 21
-4.41623
  0
LINE
  8
0
 10
4.81372
 20
-4.41623
 11
4.97586
 21
-4.32034
  0
LINE
  8
0
 10
4.97586
 20
-4.32034
 11
5.14874
 21
-4.24553
  0
LINE
  8
0
 10
5.14874
 20
-4.24553
 11
5.32964
 21
-4.19298
  0
LINE
  8
0
 10
5.32964
 20
-4.19298
 11
5.51569
 21
-4.1635
  0
LINE
  8
0
 10
5.51569
 20
-4.1635
 11
5.70396
 21
-4.15759
  0
LINE
  8
0
 10
5.70396
 20
-4.15759
 11
5.89149
 21
-4.17531
  0
LINE
  8
0
 10
5.89149
 20
-4.17531
 11
6.07533
 21
-4.2164
  0
LINE
  8
0
 10
6.07533
 20
-4.2164
 11
6.25256
 21
-4.28021
  0
LINE
  8
0
 10
6.25256
 20
-4.28021
 11
6.42041
 21
-4.36574
  0
LINE
  8
0
 10
6.42041
 20
-4.36574
 11
6.5762
 21
-4.47162
  0
LINE
  8
0
 10
6.5762
 20
-4.47162
 11
6.71751
 21
-4.59619
  0
LINE
  8
0
 10
6.71751
 20
-4.59619
 11
6.84207
 21
-4.73749
  0
LINE
  8
0
 10
6.84207
 20
-4.73749
 11
6.94795
 21
-4.89328
  0
LINE
  8
0
 10
6.94795
 20
-4.89328
 11
7.03348
 21
-5.06113
  0
LINE
  8
0
 10
7.03348
 20
-5.06113
 11
7.09729
 21
-5.23836
  0
LINE
  8
0
 10
7.09729
 20
-5.23836
 11
7.13838
 21
-5.4222
  0
LINE
  8
0
 10
7.13838
 20
-5.4222
 11
7.15611
 21
-5.60973
  0
LINE
  8
0
 10
7.15611
 20
-5.60973
 11
7.15019
 21
-5.798
  0
LINE
  8
0
 10
7.15019
 20
-5.798
 11
7.12073
 21
-5.98405
  0
LINE
  8
0
 10
7.12073
 20
-5.98405
 11
7.06816
 21
-6.16495
  0
LINE
  8
0
 10
7.06816
 20
-6.16495
 11
6.99336
 21
-6.33783
  0
LINE
  8
0
 10
6.99336
 20
-6.33783
 11
6.89746
 21
-6.49997
  0
LINE
  8
0
 10
6.89746
 20
-6.49997
 11
6.78201
 21
-6.64882
  0
LINE
  8
0
 10
6.78201
 20
-6.64882
 11
6.64882
 21
-6.78201
  0
LINE
  8
0
 10
6.64882
 20
-6.78201
 11
6.49997
 21
-6.89746
  0
LINE
  8
0
 10
6.49997
 20
-6.89746
 11
6.33783
 21
-6.99336
  0
LINE
  8
0
 10
6.33783
 20
-6.99336
 11
6.16495
 21
-7.06816
  0
LINE
  8
0
 10
6.16495
 20
-7.06816
 11
5.98405
 21
-7.12073
  0
LINE
  8
0
 10
5.98405
 20
-7.12073
 11
5.798
 21
-7.15019
  0
LINE
  8
0
 10
5.798
 20
-7.15019
 11
5.60973
 21
-7.15611
  0
LINE
  8
0
 10
5.60973
 20
-7.15611
 11
5.4222
 21
-7.13838
  0
ENDSEC
  0
SECTION
  2
OBJECTS
  0
DICTIONARY
  0
ENDSEC
  0
EOF
