  0
SECTION
  2
BLOCKS
  0
ENDSEC
  0
SECTION
  2
ENTITIES
  0
LINE
  8
0
 10
21
 20
31
 11
20.8429
 21
32.2435
  0
LINE
  8
0
 10
20.8429
 20
32.2435
 11
20.3815
 21
33.4088
  0
LINE
  8
0
 10
20.3815
 20
33.4088
 11
19.6448
 21
34.4227
  0
LINE
  8
0
 10
19.6448
 20
34.4227
 11
18.6791
 21
35.2216
  0
LINE
  8
0
 10
18.6791
 20
35.2216
 11
17.5451
 21
35.7553
  0
LINE
  8
0
 10
17.5451
 20
35.7553
 11
16
 21
36
  0
LINE
  8
0
 10
16
 20
36
 11
-16
 21
36
  0
LINE
  8
0
 10
-16
 20
36
 11
-17.2435
 21
35.8429
  0
LINE
  8
0
 10
-17.2435
 20
35.8429
 11
-18.4088
 21
35.3815
  0
LINE
  8
0
 10
-18.4088
 20
35.3815
 11
-19.4227
 21
34.6448
  0
LINE
  8
0
 10
-19.4227
 20
34.6448
 11
-20.2216
 21
33.6791
  0
LINE
  8
0
 10
-20.2216
 20
33.6791
 11
-20.7553
 21
32.5451
  0
LINE
  8
0
 10
-20.7553
 20
32.5451
 11
-21
 21
31
  0
LINE
  8
0
 10
-21
 20
31
 11
-21
 21
-31
  0
LINE
  8
0
 10
-21
 20
-31
 11
-20.8429
 21
-32.2435
  0
LINE
  8
0
 10
-20.8429
 20
-32.2435
 11
-20.3815
 21
-33.4088
  0
LINE
  8
0
 10
-20.3815
 20
-33.4088
 11
-19.6448
 21
-34.4227
  0
LINE
  8
0
 10
-19.6448
 20
-34.4227
 11
-18.6791
 21
-35.2216
  0
LINE
  8
0
 10
-18.6791
 20
-35.2216
 11
-17.5451
 21
-35.7553
  0
LINE
  8
0
 10
-17.5451
 20
-35.7553
 11
-16
 21
-36
  0
LINE
  8
0
 10
-16
 20
-36
 11
16
 21
-36
  0
LINE
  8
0
 10
16
 20
-36
 11
17.2435
 21
-35.8429
  0
LINE
  8
0
 10
17.2435
 20
-35.8429
 11
18.4088
 21
-35.3815
  0
LINE
  8
0
 10
18.4088
 20
-35.3815
 11
19.4227
 21
-34.6448
  0
LINE
  8
0
 10
19.4227
 20
-34.6448
 11
20.2216
 21
-33.6791
  0
LINE
  8
0
 10
20.2216
 20
-33.6791
 11
20.7553
 21
-32.5451
  0
LINE
  8
0
 10
20.7553
 20
-32.5451
 11
21
 21
-31
  0
LINE
  8
0
 10
21
 20
-31
 11
21
 21
31
  0
LINE
  8
0
 10
-14.7741
 20
-19
 11
-14.3711
 21
-18.4453
  0
LINE
  8
0
 10
-14.3711
 20
-18.4453
 11
-14.0942
 21
-17.7461
  0
LINE
  8
0
 10
-14.0942
 20
-17.7461
 11
-14
 21
-17
  0
LINE
  8
0
 10
-14
 20
-17
 11
-14.0942
 21
-16.2539
  0
LINE
  8
0
 10
-14.0942
 20
-16.2539
 11
-14.3711
 21
-15.5547
  0
LINE
  8
0
 10
-14.3711
 20
-15.5547
 11
-14.8131
 21
-14.9464
  0
LINE
  8
0
 10
-14.8131
 20
-14.9464
 11
-15.3925
 21
-14.467
  0
LINE
  8
0
 10
-15.3925
 20
-14.467
 11
-16.0729
 21
-14.1468
  0
LINE
  8
0
 10
-16.0729
 20
-14.1468
 11
-16.8116
 21
-14.0059
  0
LINE
  8
0
 10
-16.8116
 20
-14.0059
 11
-17.5621
 21
-14.0531
  0
LINE
  8
0
 10
-17.5621
 20
-14.0531
 11
-18.2773
 21
-14.2855
  0
LINE
  8
0
 10
-18.2773
 20
-14.2855
 11
-18.9123
 21
-14.6884
  0
LINE
  8
0
 10
-18.9123
 20
-14.6884
 11
-19
 21
-14.7819
  0
LINE
  8
0
 10
-19
 20
-14.7819
 11
-19
 21
14.7819
  0
LINE
  8
0
 10
-19
 20
14.7819
 11
-18.9123
 21
14.6884
  0
LINE
  8
0
 10
-18.9123
 20
14.6884
 11
-18.2773
 21
14.2855
  0
LINE
  8
0
 10
-18.2773
 20
14.2855
 11
-17.5621
 21
14.0531
  0
LINE
  8
0
 10
-17.5621
 20
14.0531
 11
-16.8116
 21
14.0059
  0
LINE
  8
0
 10
-16.8116
 20
14.0059
 11
-16.0729
 21
14.1468
  0
LINE
  8
0
 10
-16.0729
 20
14.1468
 11
-15.3925
 21
14.467
  0
LINE
  8
0
 10
-15.3925
 20
14.467
 11
-14.8131
 21
14.9464
  0
LINE
  8
0
 10
-14.8131
 20
14.9464
 11
-14.3711
 21
15.5547
  0
LINE
  8
0
 10
-14.3711
 20
15.5547
 11
-14.0942
 21
16.2539
  0
LINE
  8
0
 10
-14.0942
 20
16.2539
 11
-14
 21
17
  0
LINE
  8
0
 10
-14
 20
17
 11
-14.0942
 21
17.7461
  0
LINE
  8
0
 10
-14.0942
 20
17.7461
 11
-14.3711
 21
18.4453
  0
LINE
  8
0
 10
-14.3711
 20
18.4453
 11
-14.7741
 21
19
  0
LINE
  8
0
 10
-14.7741
 20
19
 11
14.7952
 21
19
  0
LINE
  8
0
 10
14.7952
 20
19
 11
14.5729
 21
18.7634
  0
LINE
  8
0
 10
14.5729
 20
18.7634
 11
14.2107
 21
18.1044
  0
LINE
  8
0
 10
14.2107
 20
18.1044
 11
14.0237
 21
17.376
  0
LINE
  8
0
 10
14.0237
 20
17.376
 11
14.0237
 21
16.624
  0
LINE
  8
0
 10
14.0237
 20
16.624
 11
14.2107
 21
15.8956
  0
LINE
  8
0
 10
14.2107
 20
15.8956
 11
14.5729
 21
15.2366
  0
LINE
  8
0
 10
14.5729
 20
15.2366
 11
15.0877
 21
14.6884
  0
LINE
  8
0
 10
15.0877
 20
14.6884
 11
15.7227
 21
14.2855
  0
LINE
  8
0
 10
15.7227
 20
14.2855
 11
16.4379
 21
14.0531
  0
LINE
  8
0
 10
16.4379
 20
14.0531
 11
17.1884
 21
14.0059
  0
LINE
  8
0
 10
17.1884
 20
14.0059
 11
17.927
 21
14.1468
  0
LINE
  8
0
 10
17.927
 20
14.1468
 11
18.6075
 21
14.467
  0
LINE
  8
0
 10
18.6075
 20
14.467
 11
19
 21
14.7917
  0
LINE
  8
0
 10
19
 20
14.7917
 11
19
 21
-14.7917
  0
LINE
  8
0
 10
19
 20
-14.7917
 11
18.6075
 21
-14.467
  0
LINE
  8
0
 10
18.6075
 20
-14.467
 11
17.927
 21
-14.1468
  0
LINE
  8
0
 10
17.927
 20
-14.1468
 11
17.1884
 21
-14.0059
  0
LINE
  8
0
 10
17.1884
 20
-14.0059
 11
16.4379
 21
-14.0531
  0
LINE
  8
0
 10
16.4379
 20
-14.0531
 11
15.7227
 21
-14.2855
  0
LINE
  8
0
 10
15.7227
 20
-14.2855
 11
15.0877
 21
-14.6884
  0
LINE
  8
0
 10
15.0877
 20
-14.6884
 11
14.5729
 21
-15.2366
  0
LINE
  8
0
 10
14.5729
 20
-15.2366
 11
14.2107
 21
-15.8956
  0
LINE
  8
0
 10
14.2107
 20
-15.8956
 11
14.0237
 21
-16.624
  0
LINE
  8
0
 10
14.0237
 20
-16.624
 11
14.0237
 21
-17.376
  0
LINE
  8
0
 10
14.0237
 20
-17.376
 11
14.2107
 21
-18.1044
  0
LINE
  8
0
 10
14.2107
 20
-18.1044
 11
14.5729
 21
-18.7634
  0
LINE
  8
0
 10
14.5729
 20
-18.7634
 11
14.7952
 21
-19
  0
LINE
  8
0
 10
14.7952
 20
-19
 11
-14.7741
 21
-19
  0
LINE
  8
0
 10
-17.1874
 20
16.0177
 11
-17.4258
 21
16.0952
  0
LINE
  8
0
 10
-17.4258
 20
16.0952
 11
-17.6374
 21
16.2295
  0
LINE
  8
0
 10
-17.6374
 20
16.2295
 11
-17.809
 21
16.4122
  0
LINE
  8
0
 10
-17.809
 20
16.4122
 11
-17.9298
 21
16.6319
  0
LINE
  8
0
 10
-17.9298
 20
16.6319
 11
-17.9921
 21
16.8747
  0
LINE
  8
0
 10
-17.9921
 20
16.8747
 11
-17.9921
 21
17.1253
  0
LINE
  8
0
 10
-17.9921
 20
17.1253
 11
-17.9298
 21
17.3681
  0
LINE
  8
0
 10
-17.9298
 20
17.3681
 11
-17.809
 21
17.5878
  0
LINE
  8
0
 10
-17.809
 20
17.5878
 11
-17.6374
 21
17.7705
  0
LINE
  8
0
 10
-17.6374
 20
17.7705
 11
-17.4258
 21
17.9048
  0
LINE
  8
0
 10
-17.4258
 20
17.9048
 11
-17.1874
 21
17.9823
  0
LINE
  8
0
 10
-17.1874
 20
17.9823
 11
-16.9372
 21
17.998
  0
LINE
  8
0
 10
-16.9372
 20
17.998
 11
-16.691
 21
17.951
  0
LINE
  8
0
 10
-16.691
 20
17.951
 11
-16.4642
 21
17.8443
  0
LINE
  8
0
 10
-16.4642
 20
17.8443
 11
-16.271
 21
17.6845
  0
LINE
  8
0
 10
-16.271
 20
17.6845
 11
-16.1237
 21
17.4818
  0
LINE
  8
0
 10
-16.1237
 20
17.4818
 11
-16.0314
 21
17.2487
  0
LINE
  8
0
 10
-16.0314
 20
17.2487
 11
-16
 21
17
  0
LINE
  8
0
 10
-16
 20
17
 11
-16.0314
 21
16.7513
  0
LINE
  8
0
 10
-16.0314
 20
16.7513
 11
-16.1237
 21
16.5182
  0
LINE
  8
0
 10
-16.1237
 20
16.5182
 11
-16.271
 21
16.3154
  0
LINE
  8
0
 10
-16.271
 20
16.3154
 11
-16.4642
 21
16.1557
  0
LINE
  8
0
 10
-16.4642
 20
16.1557
 11
-16.691
 21
16.0489
  0
LINE
  8
0
 10
-16.691
 20
16.0489
 11
-16.9372
 21
16.002
  0
LINE
  8
0
 10
-16.9372
 20
16.002
 11
-17.1874
 21
16.0177
  0
LINE
  8
0
 10
16.8126
 20
16.0177
 11
16.5742
 21
16.0952
  0
LINE
  8
0
 10
16.5742
 20
16.0952
 11
16.3626
 21
16.2295
  0
LINE
  8
0
 10
16.3626
 20
16.2295
 11
16.191
 21
16.4122
  0
LINE
  8
0
 10
16.191
 20
16.4122
 11
16.0702
 21
16.6319
  0
LINE
  8
0
 10
16.0702
 20
16.6319
 11
16.0079
 21
16.8747
  0
LINE
  8
0
 10
16.0079
 20
16.8747
 11
16.0079
 21
17.1253
  0
LINE
  8
0
 10
16.0079
 20
17.1253
 11
16.0702
 21
17.3681
  0
LINE
  8
0
 10
16.0702
 20
17.3681
 11
16.191
 21
17.5878
  0
LINE
  8
0
 10
16.191
 20
17.5878
 11
16.3626
 21
17.7705
  0
LINE
  8
0
 10
16.3626
 20
17.7705
 11
16.5742
 21
17.9048
  0
LINE
  8
0
 10
16.5742
 20
17.9048
 11
16.8126
 21
17.9823
  0
LINE
  8
0
 10
16.8126
 20
17.9823
 11
17.0628
 21
17.998
  0
LINE
  8
0
 10
17.0628
 20
17.998
 11
17.309
 21
17.951
  0
LINE
  8
0
 10
17.309
 20
17.951
 11
17.5358
 21
17.8443
  0
LINE
  8
0
 10
17.5358
 20
17.8443
 11
17.729
 21
17.6845
  0
LINE
  8
0
 10
17.729
 20
17.6845
 11
17.8763
 21
17.4818
  0
LINE
  8
0
 10
17.8763
 20
17.4818
 11
17.9686
 21
17.2487
  0
LINE
  8
0
 10
17.9686
 20
17.2487
 11
18
 21
17
  0
LINE
  8
0
 10
18
 20
17
 11
17.9686
 21
16.7513
  0
LINE
  8
0
 10
17.9686
 20
16.7513
 11
17.8763
 21
16.5182
  0
LINE
  8
0
 10
17.8763
 20
16.5182
 11
17.729
 21
16.3154
  0
LINE
  8
0
 10
17.729
 20
16.3154
 11
17.5358
 21
16.1557
  0
LINE
  8
0
 10
17.5358
 20
16.1557
 11
17.309
 21
16.0489
  0
LINE
  8
0
 10
17.309
 20
16.0489
 11
17.0628
 21
16.002
  0
LINE
  8
0
 10
17.0628
 20
16.002
 11
16.8126
 21
16.0177
  0
LINE
  8
0
 10
16.8126
 20
-17.9823
 11
16.5742
 21
-17.9048
  0
LINE
  8
0
 10
16.5742
 20
-17.9048
 11
16.3626
 21
-17.7705
  0
LINE
  8
0
 10
16.3626
 20
-17.7705
 11
16.191
 21
-17.5878
  0
LINE
  8
0
 10
16.191
 20
-17.5878
 11
16.0702
 21
-17.3681
  0
LINE
  8
0
 10
16.0702
 20
-17.3681
 11
16.0079
 21
-17.1253
  0
LINE
  8
0
 10
16.0079
 20
-17.1253
 11
16.0079
 21
-16.8747
  0
LINE
  8
0
 10
16.0079
 20
-16.8747
 11
16.0702
 21
-16.6319
  0
LINE
  8
0
 10
16.0702
 20
-16.6319
 11
16.191
 21
-16.4122
  0
LINE
  8
0
 10
16.191
 20
-16.4122
 11
16.3626
 21
-16.2295
  0
LINE
  8
0
 10
16.3626
 20
-16.2295
 11
16.5742
 21
-16.0952
  0
LINE
  8
0
 10
16.5742
 20
-16.0952
 11
16.8126
 21
-16.0177
  0
LINE
  8
0
 10
16.8126
 20
-16.0177
 11
17.0628
 21
-16.002
  0
LINE
  8
0
 10
17.0628
 20
-16.002
 11
17.309
 21
-16.0489
  0
LINE
  8
0
 10
17.309
 20
-16.0489
 11
17.5358
 21
-16.1557
  0
LINE
  8
0
 10
17.5358
 20
-16.1557
 11
17.729
 21
-16.3154
  0
LINE
  8
0
 10
17.729
 20
-16.3154
 11
17.8763
 21
-16.5182
  0
LINE
  8
0
 10
17.8763
 20
-16.5182
 11
17.9686
 21
-16.7513
  0
LINE
  8
0
 10
17.9686
 20
-16.7513
 11
18
 21
-17
  0
LINE
  8
0
 10
18
 20
-17
 11
17.9686
 21
-17.2487
  0
LINE
  8
0
 10
17.9686
 20
-17.2487
 11
17.8763
 21
-17.4818
  0
LINE
  8
0
 10
17.8763
 20
-17.4818
 11
17.729
 21
-17.6845
  0
LINE
  8
0
 10
17.729
 20
-17.6845
 11
17.5358
 21
-17.8443
  0
LINE
  8
0
 10
17.5358
 20
-17.8443
 11
17.309
 21
-17.951
  0
LINE
  8
0
 10
17.309
 20
-17.951
 11
17.0628
 21
-17.998
  0
LINE
  8
0
 10
17.0628
 20
-17.998
 11
16.8126
 21
-17.9823
  0
LINE
  8
0
 10
-17.1874
 20
-17.9823
 11
-17.4258
 21
-17.9048
  0
LINE
  8
0
 10
-17.4258
 20
-17.9048
 11
-17.6374
 21
-17.7705
  0
LINE
  8
0
 10
-17.6374
 20
-17.7705
 11
-17.809
 21
-17.5878
  0
LINE
  8
0
 10
-17.809
 20
-17.5878
 11
-17.9298
 21
-17.3681
  0
LINE
  8
0
 10
-17.9298
 20
-17.3681
 11
-17.9921
 21
-17.1253
  0
LINE
  8
0
 10
-17.9921
 20
-17.1253
 11
-17.9921
 21
-16.8747
  0
LINE
  8
0
 10
-17.9921
 20
-16.8747
 11
-17.9298
 21
-16.6319
  0
LINE
  8
0
 10
-17.9298
 20
-16.6319
 11
-17.809
 21
-16.4122
  0
LINE
  8
0
 10
-17.809
 20
-16.4122
 11
-17.6374
 21
-16.2295
  0
LINE
  8
0
 10
-17.6374
 20
-16.2295
 11
-17.4258
 21
-16.0952
  0
LINE
  8
0
 10
-17.4258
 20
-16.0952
 11
-17.1874
 21
-16.0177
  0
LINE
  8
0
 10
-17.1874
 20
-16.0177
 11
-16.9372
 21
-16.002
  0
LINE
  8
0
 10
-16.9372
 20
-16.002
 11
-16.691
 21
-16.0489
  0
LINE
  8
0
 10
-16.691
 20
-16.0489
 11
-16.4642
 21
-16.1557
  0
LINE
  8
0
 10
-16.4642
 20
-16.1557
 11
-16.271
 21
-16.3154
  0
LINE
  8
0
 10
-16.271
 20
-16.3154
 11
-16.1237
 21
-16.5182
  0
LINE
  8
0
 10
-16.1237
 20
-16.5182
 11
-16.0314
 21
-16.7513
  0
LINE
  8
0
 10
-16.0314
 20
-16.7513
 11
-16
 21
-17
  0
LINE
  8
0
 10
-16
 20
-17
 11
-16.0314
 21
-17.2487
  0
LINE
  8
0
 10
-16.0314
 20
-17.2487
 11
-16.1237
 21
-17.4818
  0
LINE
  8
0
 10
-16.1237
 20
-17.4818
 11
-16.271
 21
-17.6845
  0
LINE
  8
0
 10
-16.271
 20
-17.6845
 11
-16.4642
 21
-17.8443
  0
LINE
  8
0
 10
-16.4642
 20
-17.8443
 11
-16.691
 21
-17.951
  0
LINE
  8
0
 10
-16.691
 20
-17.951
 11
-16.9372
 21
-17.998
  0
LINE
  8
0
 10
-16.9372
 20
-17.998
 11
-17.1874
 21
-17.9823
  0
ENDSEC
  0
SECTION
  2
OBJECTS
  0
DICTIONARY
  0
ENDSEC
  0
EOF
