  0
SECTION
  2
BLOCKS
  0
ENDSEC
  0
SECTION
  2
ENTITIES
  0
LINE
  8
0
 10
17.2435
 20
-65.8429
 11
18.4088
 21
-65.3815
  0
LINE
  8
0
 10
18.4088
 20
-65.3815
 11
19.4227
 21
-64.6448
  0
LINE
  8
0
 10
19.4227
 20
-64.6448
 11
20.2216
 21
-63.6791
  0
LINE
  8
0
 10
20.2216
 20
-63.6791
 11
20.7553
 21
-62.5451
  0
LINE
  8
0
 10
20.7553
 20
-62.5451
 11
21
 21
-61
  0
LINE
  8
0
 10
21
 20
-61
 11
21
 21
31
  0
LINE
  8
0
 10
21
 20
31
 11
20.8429
 21
32.2435
  0
LINE
  8
0
 10
20.8429
 20
32.2435
 11
20.3815
 21
33.4088
  0
LINE
  8
0
 10
20.3815
 20
33.4088
 11
19.6448
 21
34.4227
  0
LINE
  8
0
 10
19.6448
 20
34.4227
 11
18.6791
 21
35.2216
  0
LINE
  8
0
 10
18.6791
 20
35.2216
 11
17.5451
 21
35.7553
  0
LINE
  8
0
 10
17.5451
 20
35.7553
 11
16
 21
36
  0
LINE
  8
0
 10
16
 20
36
 11
-16
 21
36
  0
LINE
  8
0
 10
-16
 20
36
 11
-17.2435
 21
35.8429
  0
LINE
  8
0
 10
-17.2435
 20
35.8429
 11
-18.4088
 21
35.3815
  0
LINE
  8
0
 10
-18.4088
 20
35.3815
 11
-19.4227
 21
34.6448
  0
LINE
  8
0
 10
-19.4227
 20
34.6448
 11
-20.2216
 21
33.6791
  0
LINE
  8
0
 10
-20.2216
 20
33.6791
 11
-20.7553
 21
32.5451
  0
LINE
  8
0
 10
-20.7553
 20
32.5451
 11
-21
 21
31
  0
LINE
  8
0
 10
-21
 20
31
 11
-21
 21
-61
  0
LINE
  8
0
 10
-21
 20
-61
 11
-20.8429
 21
-62.2435
  0
LINE
  8
0
 10
-20.8429
 20
-62.2435
 11
-20.3815
 21
-63.4088
  0
LINE
  8
0
 10
-20.3815
 20
-63.4088
 11
-19.6448
 21
-64.4227
  0
LINE
  8
0
 10
-19.6448
 20
-64.4227
 11
-18.6791
 21
-65.2216
  0
LINE
  8
0
 10
-18.6791
 20
-65.2216
 11
-17.5451
 21
-65.7553
  0
LINE
  8
0
 10
-17.5451
 20
-65.7553
 11
-16
 21
-66
  0
LINE
  8
0
 10
-16
 20
-66
 11
16
 21
-66
  0
LINE
  8
0
 10
16
 20
-66
 11
17.2435
 21
-65.8429
  0
LINE
  8
0
 10
0.126953
 20
-0.902863
 11
-0.222626
 21
-0.76445
  0
LINE
  8
0
 10
-0.222626
 20
-0.76445
 11
-0.52681
 21
-0.543442
  0
LINE
  8
0
 10
-0.52681
 20
-0.543442
 11
-0.766479
 21
-0.253738
  0
LINE
  8
0
 10
-0.766479
 20
-0.253738
 11
-0.926575
 21
0.0864716
  0
LINE
  8
0
 10
-0.926575
 20
0.0864716
 11
-0.99704
 21
0.455811
  0
LINE
  8
0
 10
-0.99704
 20
0.455811
 11
-0.973419
 21
0.83107
  0
LINE
  8
0
 10
-0.973419
 20
0.83107
 11
-0.857239
 21
1.18866
  0
LINE
  8
0
 10
-0.857239
 20
1.18866
 11
-0.655762
 21
1.50613
  0
LINE
  8
0
 10
-0.655762
 20
1.50613
 11
-0.381668
 21
1.76352
  0
LINE
  8
0
 10
-0.381668
 20
1.76352
 11
-0.0521851
 21
1.94466
  0
LINE
  8
0
 10
-0.0521851
 20
1.94466
 11
0.311996
 21
2.03816
  0
LINE
  8
0
 10
0.311996
 20
2.03816
 11
0.687988
 21
2.03816
  0
LINE
  8
0
 10
0.687988
 20
2.03816
 11
1.05219
 21
1.94466
  0
LINE
  8
0
 10
1.05219
 20
1.94466
 11
1.38167
 21
1.76352
  0
LINE
  8
0
 10
1.38167
 20
1.76352
 11
1.65576
 21
1.50613
  0
LINE
  8
0
 10
1.65576
 20
1.50613
 11
1.85724
 21
1.18866
  0
LINE
  8
0
 10
1.85724
 20
1.18866
 11
1.97342
 21
0.83107
  0
LINE
  8
0
 10
1.97342
 20
0.83107
 11
1.99704
 21
0.455811
  0
LINE
  8
0
 10
1.99704
 20
0.455811
 11
1.92657
 21
0.0864716
  0
LINE
  8
0
 10
1.92657
 20
0.0864716
 11
1.76648
 21
-0.253738
  0
LINE
  8
0
 10
1.76648
 20
-0.253738
 11
1.52681
 21
-0.543442
  0
LINE
  8
0
 10
1.52681
 20
-0.543442
 11
1.22263
 21
-0.76445
  0
LINE
  8
0
 10
1.22263
 20
-0.76445
 11
0.873032
 21
-0.902863
  0
LINE
  8
0
 10
0.873032
 20
-0.902863
 11
0.5
 21
-0.949997
  0
LINE
  8
0
 10
0.5
 20
-0.949997
 11
0.126953
 21
-0.902863
  0
LINE
  8
0
 10
-4.5
 20
-12.45
 11
-4.5
 21
-2.45
  0
LINE
  8
0
 10
-4.5
 20
-2.45
 11
5.5
 21
-2.45
  0
LINE
  8
0
 10
5.5
 20
-2.45
 11
5.5
 21
-12.45
  0
LINE
  8
0
 10
5.5
 20
-12.45
 11
-4.5
 21
-12.45
  0
LINE
  8
0
 10
0.126953
 20
-16.9029
 11
-0.222626
 21
-16.7645
  0
LINE
  8
0
 10
-0.222626
 20
-16.7645
 11
-0.52681
 21
-16.5434
  0
LINE
  8
0
 10
-0.52681
 20
-16.5434
 11
-0.766479
 21
-16.2537
  0
LINE
  8
0
 10
-0.766479
 20
-16.2537
 11
-0.926575
 21
-15.9135
  0
LINE
  8
0
 10
-0.926575
 20
-15.9135
 11
-0.99704
 21
-15.5442
  0
LINE
  8
0
 10
-0.99704
 20
-15.5442
 11
-0.973419
 21
-15.1689
  0
LINE
  8
0
 10
-0.973419
 20
-15.1689
 11
-0.857239
 21
-14.8113
  0
LINE
  8
0
 10
-0.857239
 20
-14.8113
 11
-0.655762
 21
-14.4939
  0
LINE
  8
0
 10
-0.655762
 20
-14.4939
 11
-0.381668
 21
-14.2365
  0
LINE
  8
0
 10
-0.381668
 20
-14.2365
 11
-0.0521851
 21
-14.0553
  0
LINE
  8
0
 10
-0.0521851
 20
-14.0553
 11
0.311996
 21
-13.9618
  0
LINE
  8
0
 10
0.311996
 20
-13.9618
 11
0.687988
 21
-13.9618
  0
LINE
  8
0
 10
0.687988
 20
-13.9618
 11
1.05219
 21
-14.0553
  0
LINE
  8
0
 10
1.05219
 20
-14.0553
 11
1.38167
 21
-14.2365
  0
LINE
  8
0
 10
1.38167
 20
-14.2365
 11
1.65576
 21
-14.4939
  0
LINE
  8
0
 10
1.65576
 20
-14.4939
 11
1.85724
 21
-14.8113
  0
LINE
  8
0
 10
1.85724
 20
-14.8113
 11
1.97342
 21
-15.1689
  0
LINE
  8
0
 10
1.97342
 20
-15.1689
 11
1.99704
 21
-15.5442
  0
LINE
  8
0
 10
1.99704
 20
-15.5442
 11
1.92657
 21
-15.9135
  0
LINE
  8
0
 10
1.92657
 20
-15.9135
 11
1.76648
 21
-16.2537
  0
LINE
  8
0
 10
1.76648
 20
-16.2537
 11
1.52681
 21
-16.5434
  0
LINE
  8
0
 10
1.52681
 20
-16.5434
 11
1.22263
 21
-16.7645
  0
LINE
  8
0
 10
1.22263
 20
-16.7645
 11
0.873032
 21
-16.9029
  0
LINE
  8
0
 10
0.873032
 20
-16.9029
 11
0.5
 21
-16.95
  0
LINE
  8
0
 10
0.5
 20
-16.95
 11
0.126953
 21
-16.9029
  0
LINE
  8
0
 10
-10
 20
-61.5
 11
-10
 21
-38.5
  0
LINE
  8
0
 10
-10
 20
-38.5
 11
10
 21
-38.5
  0
LINE
  8
0
 10
10
 20
-38.5
 11
10
 21
-61.5
  0
LINE
  8
0
 10
10
 20
-61.5
 11
-10
 21
-61.5
  0
LINE
  8
0
 10
-13.188
 20
-44.4882
 11
-13.5522
 21
-44.3947
  0
LINE
  8
0
 10
-13.5522
 20
-44.3947
 11
-13.8817
 21
-44.2135
  0
LINE
  8
0
 10
-13.8817
 20
-44.2135
 11
-14.1558
 21
-43.9561
  0
LINE
  8
0
 10
-14.1558
 20
-43.9561
 11
-14.3572
 21
-43.6387
  0
LINE
  8
0
 10
-14.3572
 20
-43.6387
 11
-14.4734
 21
-43.2811
  0
LINE
  8
0
 10
-14.4734
 20
-43.2811
 11
-14.497
 21
-42.9058
  0
LINE
  8
0
 10
-14.497
 20
-42.9058
 11
-14.4266
 21
-42.5365
  0
LINE
  8
0
 10
-14.4266
 20
-42.5365
 11
-14.2665
 21
-42.1963
  0
LINE
  8
0
 10
-14.2665
 20
-42.1963
 11
-14.0268
 21
-41.9065
  0
LINE
  8
0
 10
-14.0268
 20
-41.9065
 11
-13.7226
 21
-41.6855
  0
LINE
  8
0
 10
-13.7226
 20
-41.6855
 11
-13.373
 21
-41.5471
  0
LINE
  8
0
 10
-13.373
 20
-41.5471
 11
-13
 21
-41.5
  0
LINE
  8
0
 10
-13
 20
-41.5
 11
-12.627
 21
-41.5471
  0
LINE
  8
0
 10
-12.627
 20
-41.5471
 11
-12.2774
 21
-41.6855
  0
LINE
  8
0
 10
-12.2774
 20
-41.6855
 11
-11.9732
 21
-41.9065
  0
LINE
  8
0
 10
-11.9732
 20
-41.9065
 11
-11.7335
 21
-42.1963
  0
LINE
  8
0
 10
-11.7335
 20
-42.1963
 11
-11.5734
 21
-42.5365
  0
LINE
  8
0
 10
-11.5734
 20
-42.5365
 11
-11.5029
 21
-42.9058
  0
LINE
  8
0
 10
-11.5029
 20
-42.9058
 11
-11.5266
 21
-43.2811
  0
LINE
  8
0
 10
-11.5266
 20
-43.2811
 11
-11.6427
 21
-43.6387
  0
LINE
  8
0
 10
-11.6427
 20
-43.6387
 11
-11.8442
 21
-43.9561
  0
LINE
  8
0
 10
-11.8442
 20
-43.9561
 11
-12.1183
 21
-44.2135
  0
LINE
  8
0
 10
-12.1183
 20
-44.2135
 11
-12.4478
 21
-44.3947
  0
LINE
  8
0
 10
-12.4478
 20
-44.3947
 11
-12.812
 21
-44.4882
  0
LINE
  8
0
 10
-12.812
 20
-44.4882
 11
-13.188
 21
-44.4882
  0
LINE
  8
0
 10
12.812
 20
-44.4882
 11
12.4478
 21
-44.3947
  0
LINE
  8
0
 10
12.4478
 20
-44.3947
 11
12.1183
 21
-44.2135
  0
LINE
  8
0
 10
12.1183
 20
-44.2135
 11
11.8442
 21
-43.9561
  0
LINE
  8
0
 10
11.8442
 20
-43.9561
 11
11.6427
 21
-43.6387
  0
LINE
  8
0
 10
11.6427
 20
-43.6387
 11
11.5266
 21
-43.2811
  0
LINE
  8
0
 10
11.5266
 20
-43.2811
 11
11.5029
 21
-42.9058
  0
LINE
  8
0
 10
11.5029
 20
-42.9058
 11
11.5734
 21
-42.5365
  0
LINE
  8
0
 10
11.5734
 20
-42.5365
 11
11.7335
 21
-42.1963
  0
LINE
  8
0
 10
11.7335
 20
-42.1963
 11
11.9732
 21
-41.9065
  0
LINE
  8
0
 10
11.9732
 20
-41.9065
 11
12.2774
 21
-41.6855
  0
LINE
  8
0
 10
12.2774
 20
-41.6855
 11
12.627
 21
-41.5471
  0
LINE
  8
0
 10
12.627
 20
-41.5471
 11
13
 21
-41.5
  0
LINE
  8
0
 10
13
 20
-41.5
 11
13.373
 21
-41.5471
  0
LINE
  8
0
 10
13.373
 20
-41.5471
 11
13.7226
 21
-41.6855
  0
LINE
  8
0
 10
13.7226
 20
-41.6855
 11
14.0268
 21
-41.9065
  0
LINE
  8
0
 10
14.0268
 20
-41.9065
 11
14.2665
 21
-42.1963
  0
LINE
  8
0
 10
14.2665
 20
-42.1963
 11
14.4266
 21
-42.5365
  0
LINE
  8
0
 10
14.4266
 20
-42.5365
 11
14.497
 21
-42.9058
  0
LINE
  8
0
 10
14.497
 20
-42.9058
 11
14.4734
 21
-43.2811
  0
LINE
  8
0
 10
14.4734
 20
-43.2811
 11
14.3572
 21
-43.6387
  0
LINE
  8
0
 10
14.3572
 20
-43.6387
 11
14.1558
 21
-43.9561
  0
LINE
  8
0
 10
14.1558
 20
-43.9561
 11
13.8817
 21
-44.2135
  0
LINE
  8
0
 10
13.8817
 20
-44.2135
 11
13.5522
 21
-44.3947
  0
LINE
  8
0
 10
13.5522
 20
-44.3947
 11
13.188
 21
-44.4882
  0
LINE
  8
0
 10
13.188
 20
-44.4882
 11
12.812
 21
-44.4882
  0
LINE
  8
0
 10
12.812
 20
-58.4882
 11
12.4478
 21
-58.3947
  0
LINE
  8
0
 10
12.4478
 20
-58.3947
 11
12.1183
 21
-58.2135
  0
LINE
  8
0
 10
12.1183
 20
-58.2135
 11
11.8442
 21
-57.9561
  0
LINE
  8
0
 10
11.8442
 20
-57.9561
 11
11.6427
 21
-57.6387
  0
LINE
  8
0
 10
11.6427
 20
-57.6387
 11
11.5266
 21
-57.2811
  0
LINE
  8
0
 10
11.5266
 20
-57.2811
 11
11.5029
 21
-56.9058
  0
LINE
  8
0
 10
11.5029
 20
-56.9058
 11
11.5734
 21
-56.5365
  0
LINE
  8
0
 10
11.5734
 20
-56.5365
 11
11.7335
 21
-56.1963
  0
LINE
  8
0
 10
11.7335
 20
-56.1963
 11
11.9732
 21
-55.9065
  0
LINE
  8
0
 10
11.9732
 20
-55.9065
 11
12.2774
 21
-55.6855
  0
LINE
  8
0
 10
12.2774
 20
-55.6855
 11
12.627
 21
-55.5471
  0
LINE
  8
0
 10
12.627
 20
-55.5471
 11
13
 21
-55.5
  0
LINE
  8
0
 10
13
 20
-55.5
 11
13.373
 21
-55.5471
  0
LINE
  8
0
 10
13.373
 20
-55.5471
 11
13.7226
 21
-55.6855
  0
LINE
  8
0
 10
13.7226
 20
-55.6855
 11
14.0268
 21
-55.9065
  0
LINE
  8
0
 10
14.0268
 20
-55.9065
 11
14.2665
 21
-56.1963
  0
LINE
  8
0
 10
14.2665
 20
-56.1963
 11
14.4266
 21
-56.5365
  0
LINE
  8
0
 10
14.4266
 20
-56.5365
 11
14.497
 21
-56.9058
  0
LINE
  8
0
 10
14.497
 20
-56.9058
 11
14.4734
 21
-57.2811
  0
LINE
  8
0
 10
14.4734
 20
-57.2811
 11
14.3572
 21
-57.6387
  0
LINE
  8
0
 10
14.3572
 20
-57.6387
 11
14.1558
 21
-57.9561
  0
LINE
  8
0
 10
14.1558
 20
-57.9561
 11
13.8817
 21
-58.2135
  0
LINE
  8
0
 10
13.8817
 20
-58.2135
 11
13.5522
 21
-58.3947
  0
LINE
  8
0
 10
13.5522
 20
-58.3947
 11
13.188
 21
-58.4882
  0
LINE
  8
0
 10
13.188
 20
-58.4882
 11
12.812
 21
-58.4882
  0
LINE
  8
0
 10
-13.188
 20
-58.4882
 11
-13.5522
 21
-58.3947
  0
LINE
  8
0
 10
-13.5522
 20
-58.3947
 11
-13.8817
 21
-58.2135
  0
LINE
  8
0
 10
-13.8817
 20
-58.2135
 11
-14.1558
 21
-57.9561
  0
LINE
  8
0
 10
-14.1558
 20
-57.9561
 11
-14.3572
 21
-57.6387
  0
LINE
  8
0
 10
-14.3572
 20
-57.6387
 11
-14.4734
 21
-57.2811
  0
LINE
  8
0
 10
-14.4734
 20
-57.2811
 11
-14.497
 21
-56.9058
  0
LINE
  8
0
 10
-14.497
 20
-56.9058
 11
-14.4266
 21
-56.5365
  0
LINE
  8
0
 10
-14.4266
 20
-56.5365
 11
-14.2665
 21
-56.1963
  0
LINE
  8
0
 10
-14.2665
 20
-56.1963
 11
-14.0268
 21
-55.9065
  0
LINE
  8
0
 10
-14.0268
 20
-55.9065
 11
-13.7226
 21
-55.6855
  0
LINE
  8
0
 10
-13.7226
 20
-55.6855
 11
-13.373
 21
-55.5471
  0
LINE
  8
0
 10
-13.373
 20
-55.5471
 11
-13
 21
-55.5
  0
LINE
  8
0
 10
-13
 20
-55.5
 11
-12.627
 21
-55.5471
  0
LINE
  8
0
 10
-12.627
 20
-55.5471
 11
-12.2774
 21
-55.6855
  0
LINE
  8
0
 10
-12.2774
 20
-55.6855
 11
-11.9732
 21
-55.9065
  0
LINE
  8
0
 10
-11.9732
 20
-55.9065
 11
-11.7335
 21
-56.1963
  0
LINE
  8
0
 10
-11.7335
 20
-56.1963
 11
-11.5734
 21
-56.5365
  0
LINE
  8
0
 10
-11.5734
 20
-56.5365
 11
-11.5029
 21
-56.9058
  0
LINE
  8
0
 10
-11.5029
 20
-56.9058
 11
-11.5266
 21
-57.2811
  0
LINE
  8
0
 10
-11.5266
 20
-57.2811
 11
-11.6427
 21
-57.6387
  0
LINE
  8
0
 10
-11.6427
 20
-57.6387
 11
-11.8442
 21
-57.9561
  0
LINE
  8
0
 10
-11.8442
 20
-57.9561
 11
-12.1183
 21
-58.2135
  0
LINE
  8
0
 10
-12.1183
 20
-58.2135
 11
-12.4478
 21
-58.3947
  0
LINE
  8
0
 10
-12.4478
 20
-58.3947
 11
-12.812
 21
-58.4882
  0
LINE
  8
0
 10
-12.812
 20
-58.4882
 11
-13.188
 21
-58.4882
  0
ENDSEC
  0
SECTION
  2
OBJECTS
  0
DICTIONARY
  0
ENDSEC
  0
EOF
