<?xml version="1.0" standalone="no"?>
<!DOCTYPE svg PUBLIC "-//W3C//DTD SVG 1.1//EN" "http://www.w3.org/Graphics/SVG/1.1/DTD/svg11.dtd">
<svg width="102mm" height="28mm" viewBox="-51 -14 102 28" xmlns="http://www.w3.org/2000/svg" version="1.1">
<title>OpenSCAD Model</title>
<path d="
M 47.2435,13.3429 L 48.4088,12.8815 L 49.4227,12.1448 L 50.2216,11.1791 L 50.7553,10.0451 L 51,8.5
 L 51,-8.5 L 50.8429,-9.74345 L 50.3815,-10.9088 L 49.6448,-11.9227 L 48.6791,-12.7216 L 47.5451,-13.2553
 L 46,-13.5 L -46,-13.5 L -47.2435,-13.3429 L -48.4088,-12.8815 L -49.4227,-12.1448 L -50.2216,-11.1791
 L -50.7553,-10.0451 L -51,-8.5 L -51,8.5 L -50.8429,9.74345 L -50.3815,10.9088 L -49.6448,11.9227
 L -48.6791,12.7216 L -47.5451,13.2553 L -46,13.5 L 46,13.5 z
M -45.5621,-4.55313 L -46.2773,-4.78551 L -46.9123,-5.18845 L -47.427,-5.73663 L -47.7893,-6.39561 L -47.9763,-7.12399
 L -47.9763,-7.87599 L -47.7893,-8.60437 L -47.427,-9.26335 L -46.9123,-9.81154 L -46.2773,-10.2145 L -45.5621,-10.4469
 L -44.8116,-10.4941 L -44.0729,-10.3532 L -43.3925,-10.033 L -42.8131,-9.55363 L -42.3711,-8.94525 L -42.0942,-8.24606
 L -42,-7.5 L -42.0942,-6.75392 L -42.3711,-6.05473 L -42.8131,-5.44635 L -43.3925,-4.96701 L -44.0729,-4.64682
 L -44.8116,-4.50591 z
M -45.5621,10.4469 L -46.2773,10.2145 L -46.9123,9.81154 L -47.427,9.26335 L -47.7893,8.60437 L -47.9763,7.87599
 L -47.9763,7.12399 L -47.7893,6.39561 L -47.427,5.73663 L -46.9123,5.18845 L -46.2773,4.78551 L -45.5621,4.55313
 L -44.8116,4.50591 L -44.0729,4.64682 L -43.3925,4.96701 L -42.8131,5.44635 L -42.3711,6.05473 L -42.0942,6.75392
 L -42,7.5 L -42.0942,8.24606 L -42.3711,8.94525 L -42.8131,9.55363 L -43.3925,10.033 L -44.0729,10.3532
 L -44.8116,10.4941 z
" stroke="black" fill="lightgray" stroke-width="0.5"/>
</svg>
