  0
SECTION
  2
BLOCKS
  0
ENDSEC
  0
SECTION
  2
ENTITIES
  0
LINE
  8
0
 10
16.6267
 20
-35.9606
 11
17.2435
 21
-35.8429
  0
LINE
  8
0
 10
17.2435
 20
-35.8429
 11
17.8406
 21
-35.6489
  0
LINE
  8
0
 10
17.8406
 20
-35.6489
 11
18.4088
 21
-35.3815
  0
LINE
  8
0
 10
18.4088
 20
-35.3815
 11
18.9389
 21
-35.0451
  0
LINE
  8
0
 10
18.9389
 20
-35.0451
 11
19.4227
 21
-34.6448
  0
LINE
  8
0
 10
19.4227
 20
-34.6448
 11
19.8526
 21
-34.1871
  0
LINE
  8
0
 10
19.8526
 20
-34.1871
 11
20.2216
 21
-33.6791
  0
LINE
  8
0
 10
20.2216
 20
-33.6791
 11
20.5241
 21
-33.1289
  0
LINE
  8
0
 10
20.5241
 20
-33.1289
 11
20.7553
 21
-32.5451
  0
LINE
  8
0
 10
20.7553
 20
-32.5451
 11
20.9114
 21
-31.9369
  0
LINE
  8
0
 10
20.9114
 20
-31.9369
 11
21
 21
-31
  0
LINE
  8
0
 10
21
 20
-31
 11
21
 21
31
  0
LINE
  8
0
 10
21
 20
31
 11
20.9606
 21
31.6267
  0
LINE
  8
0
 10
20.9606
 20
31.6267
 11
20.8429
 21
32.2435
  0
LINE
  8
0
 10
20.8429
 20
32.2435
 11
20.6489
 21
32.8406
  0
LINE
  8
0
 10
20.6489
 20
32.8406
 11
20.3815
 21
33.4088
  0
LINE
  8
0
 10
20.3815
 20
33.4088
 11
20.0451
 21
33.9389
  0
LINE
  8
0
 10
20.0451
 20
33.9389
 11
19.6448
 21
34.4227
  0
LINE
  8
0
 10
19.6448
 20
34.4227
 11
19.1871
 21
34.8526
  0
LINE
  8
0
 10
19.1871
 20
34.8526
 11
18.6791
 21
35.2216
  0
LINE
  8
0
 10
18.6791
 20
35.2216
 11
18.1289
 21
35.5241
  0
LINE
  8
0
 10
18.1289
 20
35.5241
 11
17.5451
 21
35.7553
  0
LINE
  8
0
 10
17.5451
 20
35.7553
 11
16.9369
 21
35.9114
  0
LINE
  8
0
 10
16.9369
 20
35.9114
 11
16
 21
36
  0
LINE
  8
0
 10
16
 20
36
 11
-16
 21
36
  0
LINE
  8
0
 10
-16
 20
36
 11
-16.6267
 21
35.9606
  0
LINE
  8
0
 10
-16.6267
 20
35.9606
 11
-17.2435
 21
35.8429
  0
LINE
  8
0
 10
-17.2435
 20
35.8429
 11
-17.8406
 21
35.6489
  0
LINE
  8
0
 10
-17.8406
 20
35.6489
 11
-18.4088
 21
35.3815
  0
LINE
  8
0
 10
-18.4088
 20
35.3815
 11
-18.9389
 21
35.0451
  0
LINE
  8
0
 10
-18.9389
 20
35.0451
 11
-19.4227
 21
34.6448
  0
LINE
  8
0
 10
-19.4227
 20
34.6448
 11
-19.8526
 21
34.1871
  0
LINE
  8
0
 10
-19.8526
 20
34.1871
 11
-20.2216
 21
33.6791
  0
LINE
  8
0
 10
-20.2216
 20
33.6791
 11
-20.5241
 21
33.1289
  0
LINE
  8
0
 10
-20.5241
 20
33.1289
 11
-20.7553
 21
32.5451
  0
LINE
  8
0
 10
-20.7553
 20
32.5451
 11
-20.9114
 21
31.9369
  0
LINE
  8
0
 10
-20.9114
 20
31.9369
 11
-21
 21
31
  0
LINE
  8
0
 10
-21
 20
31
 11
-21
 21
-31
  0
LINE
  8
0
 10
-21
 20
-31
 11
-20.9606
 21
-31.6267
  0
LINE
  8
0
 10
-20.9606
 20
-31.6267
 11
-20.8429
 21
-32.2435
  0
LINE
  8
0
 10
-20.8429
 20
-32.2435
 11
-20.6489
 21
-32.8406
  0
LINE
  8
0
 10
-20.6489
 20
-32.8406
 11
-20.3815
 21
-33.4088
  0
LINE
  8
0
 10
-20.3815
 20
-33.4088
 11
-20.0451
 21
-33.9389
  0
LINE
  8
0
 10
-20.0451
 20
-33.9389
 11
-19.6448
 21
-34.4227
  0
LINE
  8
0
 10
-19.6448
 20
-34.4227
 11
-19.1871
 21
-34.8526
  0
LINE
  8
0
 10
-19.1871
 20
-34.8526
 11
-18.6791
 21
-35.2216
  0
LINE
  8
0
 10
-18.6791
 20
-35.2216
 11
-18.1289
 21
-35.5241
  0
LINE
  8
0
 10
-18.1289
 20
-35.5241
 11
-17.5451
 21
-35.7553
  0
LINE
  8
0
 10
-17.5451
 20
-35.7553
 11
-16.9369
 21
-35.9114
  0
LINE
  8
0
 10
-16.9369
 20
-35.9114
 11
-16
 21
-36
  0
LINE
  8
0
 10
-16
 20
-36
 11
16
 21
-36
  0
LINE
  8
0
 10
16
 20
-36
 11
16.6267
 21
-35.9606
  0
LINE
  8
0
 10
-5
 20
15
 11
-5
 21
25
  0
LINE
  8
0
 10
-5
 20
25
 11
5
 21
25
  0
LINE
  8
0
 10
5
 20
25
 11
5
 21
15
  0
LINE
  8
0
 10
5
 20
15
 11
-5
 21
15
  0
LINE
  8
0
 10
-8.09418
 20
18.503
 11
-8.28107
 21
18.5266
  0
LINE
  8
0
 10
-8.28107
 20
18.5266
 11
-8.46352
 21
18.5734
  0
LINE
  8
0
 10
-8.46352
 20
18.5734
 11
-8.63866
 21
18.6428
  0
LINE
  8
0
 10
-8.63866
 20
18.6428
 11
-8.80373
 21
18.7335
  0
LINE
  8
0
 10
-8.80373
 20
18.7335
 11
-8.95613
 21
18.8442
  0
LINE
  8
0
 10
-8.95613
 20
18.8442
 11
-9.09344
 21
18.9732
  0
LINE
  8
0
 10
-9.09344
 20
18.9732
 11
-9.21352
 21
19.1183
  0
LINE
  8
0
 10
-9.21352
 20
19.1183
 11
-9.31445
 21
19.2774
  0
LINE
  8
0
 10
-9.31445
 20
19.2774
 11
-9.39465
 21
19.4478
  0
LINE
  8
0
 10
-9.39465
 20
19.4478
 11
-9.45287
 21
19.627
  0
LINE
  8
0
 10
-9.45287
 20
19.627
 11
-9.48816
 21
19.812
  0
LINE
  8
0
 10
-9.48816
 20
19.812
 11
-9.5
 21
20
  0
LINE
  8
0
 10
-9.5
 20
20
 11
-9.48816
 21
20.188
  0
LINE
  8
0
 10
-9.48816
 20
20.188
 11
-9.45287
 21
20.373
  0
LINE
  8
0
 10
-9.45287
 20
20.373
 11
-9.39465
 21
20.5522
  0
LINE
  8
0
 10
-9.39465
 20
20.5522
 11
-9.31445
 21
20.7226
  0
LINE
  8
0
 10
-9.31445
 20
20.7226
 11
-9.21352
 21
20.8817
  0
LINE
  8
0
 10
-9.21352
 20
20.8817
 11
-9.09344
 21
21.0268
  0
LINE
  8
0
 10
-9.09344
 20
21.0268
 11
-8.95613
 21
21.1558
  0
LINE
  8
0
 10
-8.95613
 20
21.1558
 11
-8.80373
 21
21.2665
  0
LINE
  8
0
 10
-8.80373
 20
21.2665
 11
-8.63866
 21
21.3572
  0
LINE
  8
0
 10
-8.63866
 20
21.3572
 11
-8.46352
 21
21.4266
  0
LINE
  8
0
 10
-8.46352
 20
21.4266
 11
-8.28107
 21
21.4734
  0
LINE
  8
0
 10
-8.28107
 20
21.4734
 11
-8.09418
 21
21.497
  0
LINE
  8
0
 10
-8.09418
 20
21.497
 11
-7.90581
 21
21.497
  0
LINE
  8
0
 10
-7.90581
 20
21.497
 11
-7.71892
 21
21.4734
  0
LINE
  8
0
 10
-7.71892
 20
21.4734
 11
-7.53647
 21
21.4266
  0
LINE
  8
0
 10
-7.53647
 20
21.4266
 11
-7.36133
 21
21.3572
  0
LINE
  8
0
 10
-7.36133
 20
21.3572
 11
-7.19626
 21
21.2665
  0
LINE
  8
0
 10
-7.19626
 20
21.2665
 11
-7.04385
 21
21.1558
  0
LINE
  8
0
 10
-7.04385
 20
21.1558
 11
-6.90654
 21
21.0268
  0
LINE
  8
0
 10
-6.90654
 20
21.0268
 11
-6.78647
 21
20.8817
  0
LINE
  8
0
 10
-6.78647
 20
20.8817
 11
-6.68553
 21
20.7226
  0
LINE
  8
0
 10
-6.68553
 20
20.7226
 11
-6.60533
 21
20.5522
  0
LINE
  8
0
 10
-6.60533
 20
20.5522
 11
-6.54712
 21
20.373
  0
LINE
  8
0
 10
-6.54712
 20
20.373
 11
-6.51183
 21
20.188
  0
LINE
  8
0
 10
-6.51183
 20
20.188
 11
-6.5
 21
20
  0
LINE
  8
0
 10
-6.5
 20
20
 11
-6.51183
 21
19.812
  0
LINE
  8
0
 10
-6.51183
 20
19.812
 11
-6.54712
 21
19.627
  0
LINE
  8
0
 10
-6.54712
 20
19.627
 11
-6.60533
 21
19.4478
  0
LINE
  8
0
 10
-6.60533
 20
19.4478
 11
-6.68553
 21
19.2774
  0
LINE
  8
0
 10
-6.68553
 20
19.2774
 11
-6.78647
 21
19.1183
  0
LINE
  8
0
 10
-6.78647
 20
19.1183
 11
-6.90654
 21
18.9732
  0
LINE
  8
0
 10
-6.90654
 20
18.9732
 11
-7.04385
 21
18.8442
  0
LINE
  8
0
 10
-7.04385
 20
18.8442
 11
-7.19626
 21
18.7335
  0
LINE
  8
0
 10
-7.19626
 20
18.7335
 11
-7.36133
 21
18.6428
  0
LINE
  8
0
 10
-7.36133
 20
18.6428
 11
-7.53647
 21
18.5734
  0
LINE
  8
0
 10
-7.53647
 20
18.5734
 11
-7.71892
 21
18.5266
  0
LINE
  8
0
 10
-7.71892
 20
18.5266
 11
-7.90581
 21
18.503
  0
LINE
  8
0
 10
-7.90581
 20
18.503
 11
-8.09418
 21
18.503
  0
LINE
  8
0
 10
7.90581
 20
18.503
 11
7.71892
 21
18.5266
  0
LINE
  8
0
 10
7.71892
 20
18.5266
 11
7.53647
 21
18.5734
  0
LINE
  8
0
 10
7.53647
 20
18.5734
 11
7.36133
 21
18.6428
  0
LINE
  8
0
 10
7.36133
 20
18.6428
 11
7.19626
 21
18.7335
  0
LINE
  8
0
 10
7.19626
 20
18.7335
 11
7.04385
 21
18.8442
  0
LINE
  8
0
 10
7.04385
 20
18.8442
 11
6.90654
 21
18.9732
  0
LINE
  8
0
 10
6.90654
 20
18.9732
 11
6.78647
 21
19.1183
  0
LINE
  8
0
 10
6.78647
 20
19.1183
 11
6.68553
 21
19.2774
  0
LINE
  8
0
 10
6.68553
 20
19.2774
 11
6.60533
 21
19.4478
  0
LINE
  8
0
 10
6.60533
 20
19.4478
 11
6.54712
 21
19.627
  0
LINE
  8
0
 10
6.54712
 20
19.627
 11
6.51183
 21
19.812
  0
LINE
  8
0
 10
6.51183
 20
19.812
 11
6.5
 21
20
  0
LINE
  8
0
 10
6.5
 20
20
 11
6.51183
 21
20.188
  0
LINE
  8
0
 10
6.51183
 20
20.188
 11
6.54712
 21
20.373
  0
LINE
  8
0
 10
6.54712
 20
20.373
 11
6.60533
 21
20.5522
  0
LINE
  8
0
 10
6.60533
 20
20.5522
 11
6.68553
 21
20.7226
  0
LINE
  8
0
 10
6.68553
 20
20.7226
 11
6.78647
 21
20.8817
  0
LINE
  8
0
 10
6.78647
 20
20.8817
 11
6.90654
 21
21.0268
  0
LINE
  8
0
 10
6.90654
 20
21.0268
 11
7.04385
 21
21.1558
  0
LINE
  8
0
 10
7.04385
 20
21.1558
 11
7.19626
 21
21.2665
  0
LINE
  8
0
 10
7.19626
 20
21.2665
 11
7.36133
 21
21.3572
  0
LINE
  8
0
 10
7.36133
 20
21.3572
 11
7.53647
 21
21.4266
  0
LINE
  8
0
 10
7.53647
 20
21.4266
 11
7.71892
 21
21.4734
  0
LINE
  8
0
 10
7.71892
 20
21.4734
 11
7.90581
 21
21.497
  0
LINE
  8
0
 10
7.90581
 20
21.497
 11
8.09418
 21
21.497
  0
LINE
  8
0
 10
8.09418
 20
21.497
 11
8.28107
 21
21.4734
  0
LINE
  8
0
 10
8.28107
 20
21.4734
 11
8.46352
 21
21.4266
  0
LINE
  8
0
 10
8.46352
 20
21.4266
 11
8.63866
 21
21.3572
  0
LINE
  8
0
 10
8.63866
 20
21.3572
 11
8.80373
 21
21.2665
  0
LINE
  8
0
 10
8.80373
 20
21.2665
 11
8.95613
 21
21.1558
  0
LINE
  8
0
 10
8.95613
 20
21.1558
 11
9.09344
 21
21.0268
  0
LINE
  8
0
 10
9.09344
 20
21.0268
 11
9.21352
 21
20.8817
  0
LINE
  8
0
 10
9.21352
 20
20.8817
 11
9.31445
 21
20.7226
  0
LINE
  8
0
 10
9.31445
 20
20.7226
 11
9.39465
 21
20.5522
  0
LINE
  8
0
 10
9.39465
 20
20.5522
 11
9.45287
 21
20.373
  0
LINE
  8
0
 10
9.45287
 20
20.373
 11
9.48816
 21
20.188
  0
LINE
  8
0
 10
9.48816
 20
20.188
 11
9.5
 21
20
  0
LINE
  8
0
 10
9.5
 20
20
 11
9.48816
 21
19.812
  0
LINE
  8
0
 10
9.48816
 20
19.812
 11
9.45287
 21
19.627
  0
LINE
  8
0
 10
9.45287
 20
19.627
 11
9.39465
 21
19.4478
  0
LINE
  8
0
 10
9.39465
 20
19.4478
 11
9.31445
 21
19.2774
  0
LINE
  8
0
 10
9.31445
 20
19.2774
 11
9.21352
 21
19.1183
  0
LINE
  8
0
 10
9.21352
 20
19.1183
 11
9.09344
 21
18.9732
  0
LINE
  8
0
 10
9.09344
 20
18.9732
 11
8.95613
 21
18.8442
  0
LINE
  8
0
 10
8.95613
 20
18.8442
 11
8.80373
 21
18.7335
  0
LINE
  8
0
 10
8.80373
 20
18.7335
 11
8.63866
 21
18.6428
  0
LINE
  8
0
 10
8.63866
 20
18.6428
 11
8.46352
 21
18.5734
  0
LINE
  8
0
 10
8.46352
 20
18.5734
 11
8.28107
 21
18.5266
  0
LINE
  8
0
 10
8.28107
 20
18.5266
 11
8.09418
 21
18.503
  0
LINE
  8
0
 10
8.09418
 20
18.503
 11
7.90581
 21
18.503
  0
LINE
  8
0
 10
-0.31395
 20
0.00985718
 11
-0.936905
 21
0.088562
  0
LINE
  8
0
 10
-0.936905
 20
0.088562
 11
-1.54507
 21
0.244705
  0
LINE
  8
0
 10
-1.54507
 20
0.244705
 11
-2.12889
 21
0.475861
  0
LINE
  8
0
 10
-2.12889
 20
0.475861
 11
-2.67912
 21
0.778351
  0
LINE
  8
0
 10
-2.67912
 20
0.778351
 11
-3.18712
 21
1.14743
  0
LINE
  8
0
 10
-3.18712
 20
1.14743
 11
-3.64484
 21
1.57726
  0
LINE
  8
0
 10
-3.64484
 20
1.57726
 11
-4.04507
 21
2.06107
  0
LINE
  8
0
 10
-4.04507
 20
2.06107
 11
-4.38153
 21
2.59123
  0
LINE
  8
0
 10
-4.38153
 20
2.59123
 11
-4.64888
 21
3.15938
  0
LINE
  8
0
 10
-4.64888
 20
3.15938
 11
-4.84291
 21
3.75655
  0
LINE
  8
0
 10
-4.84291
 20
3.75655
 11
-4.96057
 21
4.37332
  0
LINE
  8
0
 10
-4.96057
 20
4.37332
 11
-5
 21
5
  0
LINE
  8
0
 10
-5
 20
5
 11
-4.96057
 21
5.62666
  0
LINE
  8
0
 10
-4.96057
 20
5.62666
 11
-4.84291
 21
6.24344
  0
LINE
  8
0
 10
-4.84291
 20
6.24344
 11
-4.64888
 21
6.84062
  0
LINE
  8
0
 10
-4.64888
 20
6.84062
 11
-4.38153
 21
7.40877
  0
LINE
  8
0
 10
-4.38153
 20
7.40877
 11
-4.04507
 21
7.93892
  0
LINE
  8
0
 10
-4.04507
 20
7.93892
 11
-3.64484
 21
8.42273
  0
LINE
  8
0
 10
-3.64484
 20
8.42273
 11
-3.18712
 21
8.85255
  0
LINE
  8
0
 10
-3.18712
 20
8.85255
 11
-2.67912
 21
9.22163
  0
LINE
  8
0
 10
-2.67912
 20
9.22163
 11
-2.12889
 21
9.52412
  0
LINE
  8
0
 10
-2.12889
 20
9.52412
 11
-1.54507
 21
9.75528
  0
LINE
  8
0
 10
-1.54507
 20
9.75528
 11
-0.936905
 21
9.91142
  0
LINE
  8
0
 10
-0.936905
 20
9.91142
 11
-0.31395
 21
9.99013
  0
LINE
  8
0
 10
-0.31395
 20
9.99013
 11
0.31395
 21
9.99013
  0
LINE
  8
0
 10
0.31395
 20
9.99013
 11
0.936905
 21
9.91142
  0
LINE
  8
0
 10
0.936905
 20
9.91142
 11
1.54507
 21
9.75528
  0
LINE
  8
0
 10
1.54507
 20
9.75528
 11
2.12889
 21
9.52412
  0
LINE
  8
0
 10
2.12889
 20
9.52412
 11
2.67912
 21
9.22163
  0
LINE
  8
0
 10
2.67912
 20
9.22163
 11
3.18712
 21
8.85255
  0
LINE
  8
0
 10
3.18712
 20
8.85255
 11
3.64484
 21
8.42273
  0
LINE
  8
0
 10
3.64484
 20
8.42273
 11
4.04507
 21
7.93892
  0
LINE
  8
0
 10
4.04507
 20
7.93892
 11
4.38153
 21
7.40877
  0
LINE
  8
0
 10
4.38153
 20
7.40877
 11
4.64888
 21
6.84062
  0
LINE
  8
0
 10
4.64888
 20
6.84062
 11
4.84291
 21
6.24344
  0
LINE
  8
0
 10
4.84291
 20
6.24344
 11
4.96057
 21
5.62666
  0
LINE
  8
0
 10
4.96057
 20
5.62666
 11
5
 21
5
  0
LINE
  8
0
 10
5
 20
5
 11
4.96057
 21
4.37332
  0
LINE
  8
0
 10
4.96057
 20
4.37332
 11
4.84291
 21
3.75655
  0
LINE
  8
0
 10
4.84291
 20
3.75655
 11
4.64888
 21
3.15938
  0
LINE
  8
0
 10
4.64888
 20
3.15938
 11
4.38153
 21
2.59123
  0
LINE
  8
0
 10
4.38153
 20
2.59123
 11
4.04507
 21
2.06107
  0
LINE
  8
0
 10
4.04507
 20
2.06107
 11
3.64484
 21
1.57726
  0
LINE
  8
0
 10
3.64484
 20
1.57726
 11
3.18712
 21
1.14743
  0
LINE
  8
0
 10
3.18712
 20
1.14743
 11
2.67912
 21
0.778351
  0
LINE
  8
0
 10
2.67912
 20
0.778351
 11
2.12889
 21
0.475861
  0
LINE
  8
0
 10
2.12889
 20
0.475861
 11
1.54507
 21
0.244705
  0
LINE
  8
0
 10
1.54507
 20
0.244705
 11
0.936905
 21
0.088562
  0
LINE
  8
0
 10
0.936905
 20
0.088562
 11
0.31395
 21
0.00985718
  0
LINE
  8
0
 10
0.31395
 20
0.00985718
 11
-0.31395
 21
0.00985718
  0
LINE
  8
0
 10
-10
 20
-26.5
 11
-10
 21
-3.5
  0
LINE
  8
0
 10
-10
 20
-3.5
 11
10
 21
-3.5
  0
LINE
  8
0
 10
10
 20
-3.5
 11
10
 21
-26.5
  0
LINE
  8
0
 10
10
 20
-26.5
 11
-10
 21
-26.5
  0
LINE
  8
0
 10
12.812
 20
-9.48816
 11
12.627
 21
-9.45287
  0
LINE
  8
0
 10
12.627
 20
-9.45287
 11
12.4478
 21
-9.39465
  0
LINE
  8
0
 10
12.4478
 20
-9.39465
 11
12.2774
 21
-9.31445
  0
LINE
  8
0
 10
12.2774
 20
-9.31445
 11
12.1183
 21
-9.21352
  0
LINE
  8
0
 10
12.1183
 20
-9.21352
 11
11.9732
 21
-9.09344
  0
LINE
  8
0
 10
11.9732
 20
-9.09344
 11
11.8442
 21
-8.95613
  0
LINE
  8
0
 10
11.8442
 20
-8.95613
 11
11.7335
 21
-8.80373
  0
LINE
  8
0
 10
11.7335
 20
-8.80373
 11
11.6427
 21
-8.63866
  0
LINE
  8
0
 10
11.6427
 20
-8.63866
 11
11.5734
 21
-8.46352
  0
LINE
  8
0
 10
11.5734
 20
-8.46352
 11
11.5266
 21
-8.28107
  0
LINE
  8
0
 10
11.5266
 20
-8.28107
 11
11.5029
 21
-8.09418
  0
LINE
  8
0
 10
11.5029
 20
-8.09418
 11
11.5029
 21
-7.90581
  0
LINE
  8
0
 10
11.5029
 20
-7.90581
 11
11.5266
 21
-7.71892
  0
LINE
  8
0
 10
11.5266
 20
-7.71892
 11
11.5734
 21
-7.53647
  0
LINE
  8
0
 10
11.5734
 20
-7.53647
 11
11.6427
 21
-7.36133
  0
LINE
  8
0
 10
11.6427
 20
-7.36133
 11
11.7335
 21
-7.19626
  0
LINE
  8
0
 10
11.7335
 20
-7.19626
 11
11.8442
 21
-7.04385
  0
LINE
  8
0
 10
11.8442
 20
-7.04385
 11
11.9732
 21
-6.90654
  0
LINE
  8
0
 10
11.9732
 20
-6.90654
 11
12.1183
 21
-6.78647
  0
LINE
  8
0
 10
12.1183
 20
-6.78647
 11
12.2774
 21
-6.68553
  0
LINE
  8
0
 10
12.2774
 20
-6.68553
 11
12.4478
 21
-6.60533
  0
LINE
  8
0
 10
12.4478
 20
-6.60533
 11
12.627
 21
-6.54712
  0
LINE
  8
0
 10
12.627
 20
-6.54712
 11
12.812
 21
-6.51183
  0
LINE
  8
0
 10
12.812
 20
-6.51183
 11
13
 21
-6.5
  0
LINE
  8
0
 10
13
 20
-6.5
 11
13.188
 21
-6.51183
  0
LINE
  8
0
 10
13.188
 20
-6.51183
 11
13.373
 21
-6.54712
  0
LINE
  8
0
 10
13.373
 20
-6.54712
 11
13.5522
 21
-6.60533
  0
LINE
  8
0
 10
13.5522
 20
-6.60533
 11
13.7226
 21
-6.68553
  0
LINE
  8
0
 10
13.7226
 20
-6.68553
 11
13.8817
 21
-6.78647
  0
LINE
  8
0
 10
13.8817
 20
-6.78647
 11
14.0268
 21
-6.90654
  0
LINE
  8
0
 10
14.0268
 20
-6.90654
 11
14.1558
 21
-7.04385
  0
LINE
  8
0
 10
14.1558
 20
-7.04385
 11
14.2665
 21
-7.19626
  0
LINE
  8
0
 10
14.2665
 20
-7.19626
 11
14.3572
 21
-7.36133
  0
LINE
  8
0
 10
14.3572
 20
-7.36133
 11
14.4266
 21
-7.53647
  0
LINE
  8
0
 10
14.4266
 20
-7.53647
 11
14.4734
 21
-7.71892
  0
LINE
  8
0
 10
14.4734
 20
-7.71892
 11
14.497
 21
-7.90581
  0
LINE
  8
0
 10
14.497
 20
-7.90581
 11
14.497
 21
-8.09418
  0
LINE
  8
0
 10
14.497
 20
-8.09418
 11
14.4734
 21
-8.28107
  0
LINE
  8
0
 10
14.4734
 20
-8.28107
 11
14.4266
 21
-8.46352
  0
LINE
  8
0
 10
14.4266
 20
-8.46352
 11
14.3572
 21
-8.63866
  0
LINE
  8
0
 10
14.3572
 20
-8.63866
 11
14.2665
 21
-8.80373
  0
LINE
  8
0
 10
14.2665
 20
-8.80373
 11
14.1558
 21
-8.95613
  0
LINE
  8
0
 10
14.1558
 20
-8.95613
 11
14.0268
 21
-9.09344
  0
LINE
  8
0
 10
14.0268
 20
-9.09344
 11
13.8817
 21
-9.21352
  0
LINE
  8
0
 10
13.8817
 20
-9.21352
 11
13.7226
 21
-9.31445
  0
LINE
  8
0
 10
13.7226
 20
-9.31445
 11
13.5522
 21
-9.39465
  0
LINE
  8
0
 10
13.5522
 20
-9.39465
 11
13.373
 21
-9.45287
  0
LINE
  8
0
 10
13.373
 20
-9.45287
 11
13.188
 21
-9.48816
  0
LINE
  8
0
 10
13.188
 20
-9.48816
 11
13
 21
-9.5
  0
LINE
  8
0
 10
13
 20
-9.5
 11
12.812
 21
-9.48816
  0
LINE
  8
0
 10
-13.188
 20
-9.48816
 11
-13.373
 21
-9.45287
  0
LINE
  8
0
 10
-13.373
 20
-9.45287
 11
-13.5522
 21
-9.39465
  0
LINE
  8
0
 10
-13.5522
 20
-9.39465
 11
-13.7226
 21
-9.31445
  0
LINE
  8
0
 10
-13.7226
 20
-9.31445
 11
-13.8817
 21
-9.21352
  0
LINE
  8
0
 10
-13.8817
 20
-9.21352
 11
-14.0268
 21
-9.09344
  0
LINE
  8
0
 10
-14.0268
 20
-9.09344
 11
-14.1558
 21
-8.95613
  0
LINE
  8
0
 10
-14.1558
 20
-8.95613
 11
-14.2665
 21
-8.80373
  0
LINE
  8
0
 10
-14.2665
 20
-8.80373
 11
-14.3572
 21
-8.63866
  0
LINE
  8
0
 10
-14.3572
 20
-8.63866
 11
-14.4266
 21
-8.46352
  0
LINE
  8
0
 10
-14.4266
 20
-8.46352
 11
-14.4734
 21
-8.28107
  0
LINE
  8
0
 10
-14.4734
 20
-8.28107
 11
-14.497
 21
-8.09418
  0
LINE
  8
0
 10
-14.497
 20
-8.09418
 11
-14.497
 21
-7.90581
  0
LINE
  8
0
 10
-14.497
 20
-7.90581
 11
-14.4734
 21
-7.71892
  0
LINE
  8
0
 10
-14.4734
 20
-7.71892
 11
-14.4266
 21
-7.53647
  0
LINE
  8
0
 10
-14.4266
 20
-7.53647
 11
-14.3572
 21
-7.36133
  0
LINE
  8
0
 10
-14.3572
 20
-7.36133
 11
-14.2665
 21
-7.19626
  0
LINE
  8
0
 10
-14.2665
 20
-7.19626
 11
-14.1558
 21
-7.04385
  0
LINE
  8
0
 10
-14.1558
 20
-7.04385
 11
-14.0268
 21
-6.90654
  0
LINE
  8
0
 10
-14.0268
 20
-6.90654
 11
-13.8817
 21
-6.78647
  0
LINE
  8
0
 10
-13.8817
 20
-6.78647
 11
-13.7226
 21
-6.68553
  0
LINE
  8
0
 10
-13.7226
 20
-6.68553
 11
-13.5522
 21
-6.60533
  0
LINE
  8
0
 10
-13.5522
 20
-6.60533
 11
-13.373
 21
-6.54712
  0
LINE
  8
0
 10
-13.373
 20
-6.54712
 11
-13.188
 21
-6.51183
  0
LINE
  8
0
 10
-13.188
 20
-6.51183
 11
-13
 21
-6.5
  0
LINE
  8
0
 10
-13
 20
-6.5
 11
-12.812
 21
-6.51183
  0
LINE
  8
0
 10
-12.812
 20
-6.51183
 11
-12.627
 21
-6.54712
  0
LINE
  8
0
 10
-12.627
 20
-6.54712
 11
-12.4478
 21
-6.60533
  0
LINE
  8
0
 10
-12.4478
 20
-6.60533
 11
-12.2774
 21
-6.68553
  0
LINE
  8
0
 10
-12.2774
 20
-6.68553
 11
-12.1183
 21
-6.78647
  0
LINE
  8
0
 10
-12.1183
 20
-6.78647
 11
-11.9732
 21
-6.90654
  0
LINE
  8
0
 10
-11.9732
 20
-6.90654
 11
-11.8442
 21
-7.04385
  0
LINE
  8
0
 10
-11.8442
 20
-7.04385
 11
-11.7335
 21
-7.19626
  0
LINE
  8
0
 10
-11.7335
 20
-7.19626
 11
-11.6427
 21
-7.36133
  0
LINE
  8
0
 10
-11.6427
 20
-7.36133
 11
-11.5734
 21
-7.53647
  0
LINE
  8
0
 10
-11.5734
 20
-7.53647
 11
-11.5266
 21
-7.71892
  0
LINE
  8
0
 10
-11.5266
 20
-7.71892
 11
-11.5029
 21
-7.90581
  0
LINE
  8
0
 10
-11.5029
 20
-7.90581
 11
-11.5029
 21
-8.09418
  0
LINE
  8
0
 10
-11.5029
 20
-8.09418
 11
-11.5266
 21
-8.28107
  0
LINE
  8
0
 10
-11.5266
 20
-8.28107
 11
-11.5734
 21
-8.46352
  0
LINE
  8
0
 10
-11.5734
 20
-8.46352
 11
-11.6427
 21
-8.63866
  0
LINE
  8
0
 10
-11.6427
 20
-8.63866
 11
-11.7335
 21
-8.80373
  0
LINE
  8
0
 10
-11.7335
 20
-8.80373
 11
-11.8442
 21
-8.95613
  0
LINE
  8
0
 10
-11.8442
 20
-8.95613
 11
-11.9732
 21
-9.09344
  0
LINE
  8
0
 10
-11.9732
 20
-9.09344
 11
-12.1183
 21
-9.21352
  0
LINE
  8
0
 10
-12.1183
 20
-9.21352
 11
-12.2774
 21
-9.31445
  0
LINE
  8
0
 10
-12.2774
 20
-9.31445
 11
-12.4478
 21
-9.39465
  0
LINE
  8
0
 10
-12.4478
 20
-9.39465
 11
-12.627
 21
-9.45287
  0
LINE
  8
0
 10
-12.627
 20
-9.45287
 11
-12.812
 21
-9.48816
  0
LINE
  8
0
 10
-12.812
 20
-9.48816
 11
-13
 21
-9.5
  0
LINE
  8
0
 10
-13
 20
-9.5
 11
-13.188
 21
-9.48816
  0
LINE
  8
0
 10
-13.188
 20
-23.4882
 11
-13.373
 21
-23.4529
  0
LINE
  8
0
 10
-13.373
 20
-23.4529
 11
-13.5522
 21
-23.3947
  0
LINE
  8
0
 10
-13.5522
 20
-23.3947
 11
-13.7226
 21
-23.3145
  0
LINE
  8
0
 10
-13.7226
 20
-23.3145
 11
-13.8817
 21
-23.2135
  0
LINE
  8
0
 10
-13.8817
 20
-23.2135
 11
-14.0268
 21
-23.0934
  0
LINE
  8
0
 10
-14.0268
 20
-23.0934
 11
-14.1558
 21
-22.9561
  0
LINE
  8
0
 10
-14.1558
 20
-22.9561
 11
-14.2665
 21
-22.8037
  0
LINE
  8
0
 10
-14.2665
 20
-22.8037
 11
-14.3572
 21
-22.6387
  0
LINE
  8
0
 10
-14.3572
 20
-22.6387
 11
-14.4266
 21
-22.4635
  0
LINE
  8
0
 10
-14.4266
 20
-22.4635
 11
-14.4734
 21
-22.2811
  0
LINE
  8
0
 10
-14.4734
 20
-22.2811
 11
-14.497
 21
-22.0942
  0
LINE
  8
0
 10
-14.497
 20
-22.0942
 11
-14.497
 21
-21.9058
  0
LINE
  8
0
 10
-14.497
 20
-21.9058
 11
-14.4734
 21
-21.7189
  0
LINE
  8
0
 10
-14.4734
 20
-21.7189
 11
-14.4266
 21
-21.5365
  0
LINE
  8
0
 10
-14.4266
 20
-21.5365
 11
-14.3572
 21
-21.3613
  0
LINE
  8
0
 10
-14.3572
 20
-21.3613
 11
-14.2665
 21
-21.1963
  0
LINE
  8
0
 10
-14.2665
 20
-21.1963
 11
-14.1558
 21
-21.0439
  0
LINE
  8
0
 10
-14.1558
 20
-21.0439
 11
-14.0268
 21
-20.9065
  0
LINE
  8
0
 10
-14.0268
 20
-20.9065
 11
-13.8817
 21
-20.7865
  0
LINE
  8
0
 10
-13.8817
 20
-20.7865
 11
-13.7226
 21
-20.6855
  0
LINE
  8
0
 10
-13.7226
 20
-20.6855
 11
-13.5522
 21
-20.6053
  0
LINE
  8
0
 10
-13.5522
 20
-20.6053
 11
-13.373
 21
-20.5471
  0
LINE
  8
0
 10
-13.373
 20
-20.5471
 11
-13.188
 21
-20.5118
  0
LINE
  8
0
 10
-13.188
 20
-20.5118
 11
-13
 21
-20.5
  0
LINE
  8
0
 10
-13
 20
-20.5
 11
-12.812
 21
-20.5118
  0
LINE
  8
0
 10
-12.812
 20
-20.5118
 11
-12.627
 21
-20.5471
  0
LINE
  8
0
 10
-12.627
 20
-20.5471
 11
-12.4478
 21
-20.6053
  0
LINE
  8
0
 10
-12.4478
 20
-20.6053
 11
-12.2774
 21
-20.6855
  0
LINE
  8
0
 10
-12.2774
 20
-20.6855
 11
-12.1183
 21
-20.7865
  0
LINE
  8
0
 10
-12.1183
 20
-20.7865
 11
-11.9732
 21
-20.9065
  0
LINE
  8
0
 10
-11.9732
 20
-20.9065
 11
-11.8442
 21
-21.0439
  0
LINE
  8
0
 10
-11.8442
 20
-21.0439
 11
-11.7335
 21
-21.1963
  0
LINE
  8
0
 10
-11.7335
 20
-21.1963
 11
-11.6427
 21
-21.3613
  0
LINE
  8
0
 10
-11.6427
 20
-21.3613
 11
-11.5734
 21
-21.5365
  0
LINE
  8
0
 10
-11.5734
 20
-21.5365
 11
-11.5266
 21
-21.7189
  0
LINE
  8
0
 10
-11.5266
 20
-21.7189
 11
-11.5029
 21
-21.9058
  0
LINE
  8
0
 10
-11.5029
 20
-21.9058
 11
-11.5029
 21
-22.0942
  0
LINE
  8
0
 10
-11.5029
 20
-22.0942
 11
-11.5266
 21
-22.2811
  0
LINE
  8
0
 10
-11.5266
 20
-22.2811
 11
-11.5734
 21
-22.4635
  0
LINE
  8
0
 10
-11.5734
 20
-22.4635
 11
-11.6427
 21
-22.6387
  0
LINE
  8
0
 10
-11.6427
 20
-22.6387
 11
-11.7335
 21
-22.8037
  0
LINE
  8
0
 10
-11.7335
 20
-22.8037
 11
-11.8442
 21
-22.9561
  0
LINE
  8
0
 10
-11.8442
 20
-22.9561
 11
-11.9732
 21
-23.0934
  0
LINE
  8
0
 10
-11.9732
 20
-23.0934
 11
-12.1183
 21
-23.2135
  0
LINE
  8
0
 10
-12.1183
 20
-23.2135
 11
-12.2774
 21
-23.3145
  0
LINE
  8
0
 10
-12.2774
 20
-23.3145
 11
-12.4478
 21
-23.3947
  0
LINE
  8
0
 10
-12.4478
 20
-23.3947
 11
-12.627
 21
-23.4529
  0
LINE
  8
0
 10
-12.627
 20
-23.4529
 11
-12.812
 21
-23.4882
  0
LINE
  8
0
 10
-12.812
 20
-23.4882
 11
-13
 21
-23.5
  0
LINE
  8
0
 10
-13
 20
-23.5
 11
-13.188
 21
-23.4882
  0
LINE
  8
0
 10
12.812
 20
-23.4882
 11
12.627
 21
-23.4529
  0
LINE
  8
0
 10
12.627
 20
-23.4529
 11
12.4478
 21
-23.3947
  0
LINE
  8
0
 10
12.4478
 20
-23.3947
 11
12.2774
 21
-23.3145
  0
LINE
  8
0
 10
12.2774
 20
-23.3145
 11
12.1183
 21
-23.2135
  0
LINE
  8
0
 10
12.1183
 20
-23.2135
 11
11.9732
 21
-23.0934
  0
LINE
  8
0
 10
11.9732
 20
-23.0934
 11
11.8442
 21
-22.9561
  0
LINE
  8
0
 10
11.8442
 20
-22.9561
 11
11.7335
 21
-22.8037
  0
LINE
  8
0
 10
11.7335
 20
-22.8037
 11
11.6427
 21
-22.6387
  0
LINE
  8
0
 10
11.6427
 20
-22.6387
 11
11.5734
 21
-22.4635
  0
LINE
  8
0
 10
11.5734
 20
-22.4635
 11
11.5266
 21
-22.2811
  0
LINE
  8
0
 10
11.5266
 20
-22.2811
 11
11.5029
 21
-22.0942
  0
LINE
  8
0
 10
11.5029
 20
-22.0942
 11
11.5029
 21
-21.9058
  0
LINE
  8
0
 10
11.5029
 20
-21.9058
 11
11.5266
 21
-21.7189
  0
LINE
  8
0
 10
11.5266
 20
-21.7189
 11
11.5734
 21
-21.5365
  0
LINE
  8
0
 10
11.5734
 20
-21.5365
 11
11.6427
 21
-21.3613
  0
LINE
  8
0
 10
11.6427
 20
-21.3613
 11
11.7335
 21
-21.1963
  0
LINE
  8
0
 10
11.7335
 20
-21.1963
 11
11.8442
 21
-21.0439
  0
LINE
  8
0
 10
11.8442
 20
-21.0439
 11
11.9732
 21
-20.9065
  0
LINE
  8
0
 10
11.9732
 20
-20.9065
 11
12.1183
 21
-20.7865
  0
LINE
  8
0
 10
12.1183
 20
-20.7865
 11
12.2774
 21
-20.6855
  0
LINE
  8
0
 10
12.2774
 20
-20.6855
 11
12.4478
 21
-20.6053
  0
LINE
  8
0
 10
12.4478
 20
-20.6053
 11
12.627
 21
-20.5471
  0
LINE
  8
0
 10
12.627
 20
-20.5471
 11
12.812
 21
-20.5118
  0
LINE
  8
0
 10
12.812
 20
-20.5118
 11
13
 21
-20.5
  0
LINE
  8
0
 10
13
 20
-20.5
 11
13.188
 21
-20.5118
  0
LINE
  8
0
 10
13.188
 20
-20.5118
 11
13.373
 21
-20.5471
  0
LINE
  8
0
 10
13.373
 20
-20.5471
 11
13.5522
 21
-20.6053
  0
LINE
  8
0
 10
13.5522
 20
-20.6053
 11
13.7226
 21
-20.6855
  0
LINE
  8
0
 10
13.7226
 20
-20.6855
 11
13.8817
 21
-20.7865
  0
LINE
  8
0
 10
13.8817
 20
-20.7865
 11
14.0268
 21
-20.9065
  0
LINE
  8
0
 10
14.0268
 20
-20.9065
 11
14.1558
 21
-21.0439
  0
LINE
  8
0
 10
14.1558
 20
-21.0439
 11
14.2665
 21
-21.1963
  0
LINE
  8
0
 10
14.2665
 20
-21.1963
 11
14.3572
 21
-21.3613
  0
LINE
  8
0
 10
14.3572
 20
-21.3613
 11
14.4266
 21
-21.5365
  0
LINE
  8
0
 10
14.4266
 20
-21.5365
 11
14.4734
 21
-21.7189
  0
LINE
  8
0
 10
14.4734
 20
-21.7189
 11
14.497
 21
-21.9058
  0
LINE
  8
0
 10
14.497
 20
-21.9058
 11
14.497
 21
-22.0942
  0
LINE
  8
0
 10
14.497
 20
-22.0942
 11
14.4734
 21
-22.2811
  0
LINE
  8
0
 10
14.4734
 20
-22.2811
 11
14.4266
 21
-22.4635
  0
LINE
  8
0
 10
14.4266
 20
-22.4635
 11
14.3572
 21
-22.6387
  0
LINE
  8
0
 10
14.3572
 20
-22.6387
 11
14.2665
 21
-22.8037
  0
LINE
  8
0
 10
14.2665
 20
-22.8037
 11
14.1558
 21
-22.9561
  0
LINE
  8
0
 10
14.1558
 20
-22.9561
 11
14.0268
 21
-23.0934
  0
LINE
  8
0
 10
14.0268
 20
-23.0934
 11
13.8817
 21
-23.2135
  0
LINE
  8
0
 10
13.8817
 20
-23.2135
 11
13.7226
 21
-23.3145
  0
LINE
  8
0
 10
13.7226
 20
-23.3145
 11
13.5522
 21
-23.3947
  0
LINE
  8
0
 10
13.5522
 20
-23.3947
 11
13.373
 21
-23.4529
  0
LINE
  8
0
 10
13.373
 20
-23.4529
 11
13.188
 21
-23.4882
  0
LINE
  8
0
 10
13.188
 20
-23.4882
 11
13
 21
-23.5
  0
LINE
  8
0
 10
13
 20
-23.5
 11
12.812
 21
-23.4882
  0
ENDSEC
  0
SECTION
  2
OBJECTS
  0
DICTIONARY
  0
ENDSEC
  0
EOF
