  0
SECTION
  2
BLOCKS
  0
ENDSEC
  0
SECTION
  2
ENTITIES
  0
LINE
  8
0
 10
47.2435
 20
-13.3429
 11
48.4088
 21
-12.8815
  0
LINE
  8
0
 10
48.4088
 20
-12.8815
 11
49.4227
 21
-12.1448
  0
LINE
  8
0
 10
49.4227
 20
-12.1448
 11
50.2216
 21
-11.1791
  0
LINE
  8
0
 10
50.2216
 20
-11.1791
 11
50.7553
 21
-10.0451
  0
LINE
  8
0
 10
50.7553
 20
-10.0451
 11
51
 21
-8.5
  0
LINE
  8
0
 10
51
 20
-8.5
 11
51
 21
8.5
  0
LINE
  8
0
 10
51
 20
8.5
 11
50.8429
 21
9.74345
  0
LINE
  8
0
 10
50.8429
 20
9.74345
 11
50.3815
 21
10.9088
  0
LINE
  8
0
 10
50.3815
 20
10.9088
 11
49.6448
 21
11.9227
  0
LINE
  8
0
 10
49.6448
 20
11.9227
 11
48.6791
 21
12.7216
  0
LINE
  8
0
 10
48.6791
 20
12.7216
 11
47.5451
 21
13.2553
  0
LINE
  8
0
 10
47.5451
 20
13.2553
 11
46
 21
13.5
  0
LINE
  8
0
 10
46
 20
13.5
 11
-46
 21
13.5
  0
LINE
  8
0
 10
-46
 20
13.5
 11
-47.2435
 21
13.3429
  0
LINE
  8
0
 10
-47.2435
 20
13.3429
 11
-48.4088
 21
12.8815
  0
LINE
  8
0
 10
-48.4088
 20
12.8815
 11
-49.4227
 21
12.1448
  0
LINE
  8
0
 10
-49.4227
 20
12.1448
 11
-50.2216
 21
11.1791
  0
LINE
  8
0
 10
-50.2216
 20
11.1791
 11
-50.7553
 21
10.0451
  0
LINE
  8
0
 10
-50.7553
 20
10.0451
 11
-51
 21
8.5
  0
LINE
  8
0
 10
-51
 20
8.5
 11
-51
 21
-8.5
  0
LINE
  8
0
 10
-51
 20
-8.5
 11
-50.8429
 21
-9.74345
  0
LINE
  8
0
 10
-50.8429
 20
-9.74345
 11
-50.3815
 21
-10.9088
  0
LINE
  8
0
 10
-50.3815
 20
-10.9088
 11
-49.6448
 21
-11.9227
  0
LINE
  8
0
 10
-49.6448
 20
-11.9227
 11
-48.6791
 21
-12.7216
  0
LINE
  8
0
 10
-48.6791
 20
-12.7216
 11
-47.5451
 21
-13.2553
  0
LINE
  8
0
 10
-47.5451
 20
-13.2553
 11
-46
 21
-13.5
  0
LINE
  8
0
 10
-46
 20
-13.5
 11
46
 21
-13.5
  0
LINE
  8
0
 10
46
 20
-13.5
 11
47.2435
 21
-13.3429
  0
LINE
  8
0
 10
-45.5621
 20
4.55313
 11
-46.2773
 21
4.78551
  0
LINE
  8
0
 10
-46.2773
 20
4.78551
 11
-46.9123
 21
5.18845
  0
LINE
  8
0
 10
-46.9123
 20
5.18845
 11
-47.427
 21
5.73663
  0
LINE
  8
0
 10
-47.427
 20
5.73663
 11
-47.7893
 21
6.39561
  0
LINE
  8
0
 10
-47.7893
 20
6.39561
 11
-47.9763
 21
7.12399
  0
LINE
  8
0
 10
-47.9763
 20
7.12399
 11
-47.9763
 21
7.87599
  0
LINE
  8
0
 10
-47.9763
 20
7.87599
 11
-47.7893
 21
8.60437
  0
LINE
  8
0
 10
-47.7893
 20
8.60437
 11
-47.427
 21
9.26335
  0
LINE
  8
0
 10
-47.427
 20
9.26335
 11
-46.9123
 21
9.81154
  0
LINE
  8
0
 10
-46.9123
 20
9.81154
 11
-46.2773
 21
10.2145
  0
LINE
  8
0
 10
-46.2773
 20
10.2145
 11
-45.5621
 21
10.4469
  0
LINE
  8
0
 10
-45.5621
 20
10.4469
 11
-44.8116
 21
10.4941
  0
LINE
  8
0
 10
-44.8116
 20
10.4941
 11
-44.0729
 21
10.3532
  0
LINE
  8
0
 10
-44.0729
 20
10.3532
 11
-43.3925
 21
10.033
  0
LINE
  8
0
 10
-43.3925
 20
10.033
 11
-42.8131
 21
9.55363
  0
LINE
  8
0
 10
-42.8131
 20
9.55363
 11
-42.3711
 21
8.94525
  0
LINE
  8
0
 10
-42.3711
 20
8.94525
 11
-42.0942
 21
8.24606
  0
LINE
  8
0
 10
-42.0942
 20
8.24606
 11
-42
 21
7.5
  0
LINE
  8
0
 10
-42
 20
7.5
 11
-42.0942
 21
6.75392
  0
LINE
  8
0
 10
-42.0942
 20
6.75392
 11
-42.3711
 21
6.05473
  0
LINE
  8
0
 10
-42.3711
 20
6.05473
 11
-42.8131
 21
5.44635
  0
LINE
  8
0
 10
-42.8131
 20
5.44635
 11
-43.3925
 21
4.96701
  0
LINE
  8
0
 10
-43.3925
 20
4.96701
 11
-44.0729
 21
4.64682
  0
LINE
  8
0
 10
-44.0729
 20
4.64682
 11
-44.8116
 21
4.50591
  0
LINE
  8
0
 10
-44.8116
 20
4.50591
 11
-45.5621
 21
4.55313
  0
LINE
  8
0
 10
-45.5621
 20
-10.4469
 11
-46.2773
 21
-10.2145
  0
LINE
  8
0
 10
-46.2773
 20
-10.2145
 11
-46.9123
 21
-9.81154
  0
LINE
  8
0
 10
-46.9123
 20
-9.81154
 11
-47.427
 21
-9.26335
  0
LINE
  8
0
 10
-47.427
 20
-9.26335
 11
-47.7893
 21
-8.60437
  0
LINE
  8
0
 10
-47.7893
 20
-8.60437
 11
-47.9763
 21
-7.87599
  0
LINE
  8
0
 10
-47.9763
 20
-7.87599
 11
-47.9763
 21
-7.12399
  0
LINE
  8
0
 10
-47.9763
 20
-7.12399
 11
-47.7893
 21
-6.39561
  0
LINE
  8
0
 10
-47.7893
 20
-6.39561
 11
-47.427
 21
-5.73663
  0
LINE
  8
0
 10
-47.427
 20
-5.73663
 11
-46.9123
 21
-5.18845
  0
LINE
  8
0
 10
-46.9123
 20
-5.18845
 11
-46.2773
 21
-4.78551
  0
LINE
  8
0
 10
-46.2773
 20
-4.78551
 11
-45.5621
 21
-4.55313
  0
LINE
  8
0
 10
-45.5621
 20
-4.55313
 11
-44.8116
 21
-4.50591
  0
LINE
  8
0
 10
-44.8116
 20
-4.50591
 11
-44.0729
 21
-4.64682
  0
LINE
  8
0
 10
-44.0729
 20
-4.64682
 11
-43.3925
 21
-4.96701
  0
LINE
  8
0
 10
-43.3925
 20
-4.96701
 11
-42.8131
 21
-5.44635
  0
LINE
  8
0
 10
-42.8131
 20
-5.44635
 11
-42.3711
 21
-6.05473
  0
LINE
  8
0
 10
-42.3711
 20
-6.05473
 11
-42.0942
 21
-6.75392
  0
LINE
  8
0
 10
-42.0942
 20
-6.75392
 11
-42
 21
-7.5
  0
LINE
  8
0
 10
-42
 20
-7.5
 11
-42.0942
 21
-8.24606
  0
LINE
  8
0
 10
-42.0942
 20
-8.24606
 11
-42.3711
 21
-8.94525
  0
LINE
  8
0
 10
-42.3711
 20
-8.94525
 11
-42.8131
 21
-9.55363
  0
LINE
  8
0
 10
-42.8131
 20
-9.55363
 11
-43.3925
 21
-10.033
  0
LINE
  8
0
 10
-43.3925
 20
-10.033
 11
-44.0729
 21
-10.3532
  0
LINE
  8
0
 10
-44.0729
 20
-10.3532
 11
-44.8116
 21
-10.4941
  0
LINE
  8
0
 10
-44.8116
 20
-10.4941
 11
-45.5621
 21
-10.4469
  0
ENDSEC
  0
SECTION
  2
OBJECTS
  0
DICTIONARY
  0
ENDSEC
  0
EOF
