<?xml version="1.0" standalone="no"?>
<!DOCTYPE svg PUBLIC "-//W3C//DTD SVG 1.1//EN" "http://www.w3.org/Graphics/SVG/1.1/DTD/svg11.dtd">
<svg width="42mm" height="72mm" viewBox="-21 -36 42 72" xmlns="http://www.w3.org/2000/svg" version="1.1">
<title>OpenSCAD Model</title>
<path d="
M 16.6267,35.9606 L 17.2435,35.8429 L 17.8406,35.6489 L 18.4088,35.3815 L 18.9389,35.0451 L 19.4227,34.6448
 L 19.8526,34.1871 L 20.2216,33.6791 L 20.5241,33.1289 L 20.7553,32.5451 L 20.9114,31.9369 L 21,31
 L 21,-31 L 20.9606,-31.6267 L 20.8429,-32.2435 L 20.6489,-32.8406 L 20.3815,-33.4088 L 20.0451,-33.9389
 L 19.6448,-34.4227 L 19.1871,-34.8526 L 18.6791,-35.2216 L 18.1289,-35.5241 L 17.5451,-35.7553 L 16.9369,-35.9114
 L 16,-36 L -16,-36 L -16.6267,-35.9606 L -17.2435,-35.8429 L -17.8406,-35.6489 L -18.4088,-35.3815
 L -18.9389,-35.0451 L -19.4227,-34.6448 L -19.8526,-34.1871 L -20.2216,-33.6791 L -20.5241,-33.1289 L -20.7553,-32.5451
 L -20.9114,-31.9369 L -21,-31 L -21,31 L -20.9606,31.6267 L -20.8429,32.2435 L -20.6489,32.8406
 L -20.3815,33.4088 L -20.0451,33.9389 L -19.6448,34.4227 L -19.1871,34.8526 L -18.6791,35.2216 L -18.1289,35.5241
 L -17.5451,35.7553 L -16.9369,35.9114 L -16,36 L 16,36 z
M -5,-15 L -5,-25 L 5,-25 L 5,-15 z
M 7.90581,-18.503 L 7.71892,-18.5266 L 7.53647,-18.5734 L 7.36133,-18.6428 L 7.19626,-18.7335 L 7.04385,-18.8442
 L 6.90654,-18.9732 L 6.78647,-19.1183 L 6.68553,-19.2774 L 6.60533,-19.4478 L 6.54712,-19.627 L 6.51183,-19.812
 L 6.5,-20 L 6.51183,-20.188 L 6.54712,-20.373 L 6.60533,-20.5522 L 6.68553,-20.7226 L 6.78647,-20.8817
 L 6.90654,-21.0268 L 7.04385,-21.1558 L 7.19626,-21.2665 L 7.36133,-21.3572 L 7.53647,-21.4266 L 7.71892,-21.4734
 L 7.90581,-21.497 L 8.09418,-21.497 L 8.28107,-21.4734 L 8.46352,-21.4266 L 8.63866,-21.3572 L 8.80373,-21.2665
 L 8.95613,-21.1558 L 9.09344,-21.0268 L 9.21352,-20.8817 L 9.31445,-20.7226 L 9.39465,-20.5522 L 9.45287,-20.373
 L 9.48816,-20.188 L 9.5,-20 L 9.48816,-19.812 L 9.45287,-19.627 L 9.39465,-19.4478 L 9.31445,-19.2774
 L 9.21352,-19.1183 L 9.09344,-18.9732 L 8.95613,-18.8442 L 8.80373,-18.7335 L 8.63866,-18.6428 L 8.46352,-18.5734
 L 8.28107,-18.5266 L 8.09418,-18.503 z
M -8.09418,-18.503 L -8.28107,-18.5266 L -8.46352,-18.5734 L -8.63866,-18.6428 L -8.80373,-18.7335 L -8.95613,-18.8442
 L -9.09344,-18.9732 L -9.21352,-19.1183 L -9.31445,-19.2774 L -9.39465,-19.4478 L -9.45287,-19.627 L -9.48816,-19.812
 L -9.5,-20 L -9.48816,-20.188 L -9.45287,-20.373 L -9.39465,-20.5522 L -9.31445,-20.7226 L -9.21352,-20.8817
 L -9.09344,-21.0268 L -8.95613,-21.1558 L -8.80373,-21.2665 L -8.63866,-21.3572 L -8.46352,-21.4266 L -8.28107,-21.4734
 L -8.09418,-21.497 L -7.90581,-21.497 L -7.71892,-21.4734 L -7.53647,-21.4266 L -7.36133,-21.3572 L -7.19626,-21.2665
 L -7.04385,-21.1558 L -6.90654,-21.0268 L -6.78647,-20.8817 L -6.68553,-20.7226 L -6.60533,-20.5522 L -6.54712,-20.373
 L -6.51183,-20.188 L -6.5,-20 L -6.51183,-19.812 L -6.54712,-19.627 L -6.60533,-19.4478 L -6.68553,-19.2774
 L -6.78647,-19.1183 L -6.90654,-18.9732 L -7.04385,-18.8442 L -7.19626,-18.7335 L -7.36133,-18.6428 L -7.53647,-18.5734
 L -7.71892,-18.5266 L -7.90581,-18.503 z
M -0.31395,-0.00985718 L -0.936905,-0.088562 L -1.54507,-0.244705 L -2.12889,-0.475861 L -2.67912,-0.778351 L -3.18712,-1.14743
 L -3.64484,-1.57726 L -4.04507,-2.06107 L -4.38153,-2.59123 L -4.64888,-3.15938 L -4.84291,-3.75655 L -4.96057,-4.37332
 L -5,-5 L -4.96057,-5.62666 L -4.84291,-6.24344 L -4.64888,-6.84062 L -4.38153,-7.40877 L -4.04507,-7.93892
 L -3.64484,-8.42273 L -3.18712,-8.85255 L -2.67912,-9.22163 L -2.12889,-9.52412 L -1.54507,-9.75528 L -0.936905,-9.91142
 L -0.31395,-9.99013 L 0.31395,-9.99013 L 0.936905,-9.91142 L 1.54507,-9.75528 L 2.12889,-9.52412 L 2.67912,-9.22163
 L 3.18712,-8.85255 L 3.64484,-8.42273 L 4.04507,-7.93892 L 4.38153,-7.40877 L 4.64888,-6.84062 L 4.84291,-6.24344
 L 4.96057,-5.62666 L 5,-5 L 4.96057,-4.37332 L 4.84291,-3.75655 L 4.64888,-3.15938 L 4.38153,-2.59123
 L 4.04507,-2.06107 L 3.64484,-1.57726 L 3.18712,-1.14743 L 2.67912,-0.778351 L 2.12889,-0.475861 L 1.54507,-0.244705
 L 0.936905,-0.088562 L 0.31395,-0.00985718 z
M -10,26.5 L -10,3.5 L 10,3.5 L 10,26.5 z
M 12.812,9.48816 L 12.627,9.45287 L 12.4478,9.39465 L 12.2774,9.31445 L 12.1183,9.21352 L 11.9732,9.09344
 L 11.8442,8.95613 L 11.7335,8.80373 L 11.6427,8.63866 L 11.5734,8.46352 L 11.5266,8.28107 L 11.5029,8.09418
 L 11.5029,7.90581 L 11.5266,7.71892 L 11.5734,7.53647 L 11.6427,7.36133 L 11.7335,7.19626 L 11.8442,7.04385
 L 11.9732,6.90654 L 12.1183,6.78647 L 12.2774,6.68553 L 12.4478,6.60533 L 12.627,6.54712 L 12.812,6.51183
 L 13,6.5 L 13.188,6.51183 L 13.373,6.54712 L 13.5522,6.60533 L 13.7226,6.68553 L 13.8817,6.78647
 L 14.0268,6.90654 L 14.1558,7.04385 L 14.2665,7.19626 L 14.3572,7.36133 L 14.4266,7.53647 L 14.4734,7.71892
 L 14.497,7.90581 L 14.497,8.09418 L 14.4734,8.28107 L 14.4266,8.46352 L 14.3572,8.63866 L 14.2665,8.80373
 L 14.1558,8.95613 L 14.0268,9.09344 L 13.8817,9.21352 L 13.7226,9.31445 L 13.5522,9.39465 L 13.373,9.45287
 L 13.188,9.48816 L 13,9.5 z
M -13.188,9.48816 L -13.373,9.45287 L -13.5522,9.39465 L -13.7226,9.31445 L -13.8817,9.21352 L -14.0268,9.09344
 L -14.1558,8.95613 L -14.2665,8.80373 L -14.3572,8.63866 L -14.4266,8.46352 L -14.4734,8.28107 L -14.497,8.09418
 L -14.497,7.90581 L -14.4734,7.71892 L -14.4266,7.53647 L -14.3572,7.36133 L -14.2665,7.19626 L -14.1558,7.04385
 L -14.0268,6.90654 L -13.8817,6.78647 L -13.7226,6.68553 L -13.5522,6.60533 L -13.373,6.54712 L -13.188,6.51183
 L -13,6.5 L -12.812,6.51183 L -12.627,6.54712 L -12.4478,6.60533 L -12.2774,6.68553 L -12.1183,6.78647
 L -11.9732,6.90654 L -11.8442,7.04385 L -11.7335,7.19626 L -11.6427,7.36133 L -11.5734,7.53647 L -11.5266,7.71892
 L -11.5029,7.90581 L -11.5029,8.09418 L -11.5266,8.28107 L -11.5734,8.46352 L -11.6427,8.63866 L -11.7335,8.80373
 L -11.8442,8.95613 L -11.9732,9.09344 L -12.1183,9.21352 L -12.2774,9.31445 L -12.4478,9.39465 L -12.627,9.45287
 L -12.812,9.48816 L -13,9.5 z
M -13.188,23.4882 L -13.373,23.4529 L -13.5522,23.3947 L -13.7226,23.3145 L -13.8817,23.2135 L -14.0268,23.0934
 L -14.1558,22.9561 L -14.2665,22.8037 L -14.3572,22.6387 L -14.4266,22.4635 L -14.4734,22.2811 L -14.497,22.0942
 L -14.497,21.9058 L -14.4734,21.7189 L -14.4266,21.5365 L -14.3572,21.3613 L -14.2665,21.1963 L -14.1558,21.0439
 L -14.0268,20.9065 L -13.8817,20.7865 L -13.7226,20.6855 L -13.5522,20.6053 L -13.373,20.5471 L -13.188,20.5118
 L -13,20.5 L -12.812,20.5118 L -12.627,20.5471 L -12.4478,20.6053 L -12.2774,20.6855 L -12.1183,20.7865
 L -11.9732,20.9065 L -11.8442,21.0439 L -11.7335,21.1963 L -11.6427,21.3613 L -11.5734,21.5365 L -11.5266,21.7189
 L -11.5029,21.9058 L -11.5029,22.0942 L -11.5266,22.2811 L -11.5734,22.4635 L -11.6427,22.6387 L -11.7335,22.8037
 L -11.8442,22.9561 L -11.9732,23.0934 L -12.1183,23.2135 L -12.2774,23.3145 L -12.4478,23.3947 L -12.627,23.4529
 L -12.812,23.4882 L -13,23.5 z
M 12.812,23.4882 L 12.627,23.4529 L 12.4478,23.3947 L 12.2774,23.3145 L 12.1183,23.2135 L 11.9732,23.0934
 L 11.8442,22.9561 L 11.7335,22.8037 L 11.6427,22.6387 L 11.5734,22.4635 L 11.5266,22.2811 L 11.5029,22.0942
 L 11.5029,21.9058 L 11.5266,21.7189 L 11.5734,21.5365 L 11.6427,21.3613 L 11.7335,21.1963 L 11.8442,21.0439
 L 11.9732,20.9065 L 12.1183,20.7865 L 12.2774,20.6855 L 12.4478,20.6053 L 12.627,20.5471 L 12.812,20.5118
 L 13,20.5 L 13.188,20.5118 L 13.373,20.5471 L 13.5522,20.6053 L 13.7226,20.6855 L 13.8817,20.7865
 L 14.0268,20.9065 L 14.1558,21.0439 L 14.2665,21.1963 L 14.3572,21.3613 L 14.4266,21.5365 L 14.4734,21.7189
 L 14.497,21.9058 L 14.497,22.0942 L 14.4734,22.2811 L 14.4266,22.4635 L 14.3572,22.6387 L 14.2665,22.8037
 L 14.1558,22.9561 L 14.0268,23.0934 L 13.8817,23.2135 L 13.7226,23.3145 L 13.5522,23.3947 L 13.373,23.4529
 L 13.188,23.4882 L 13,23.5 z
" stroke="black" fill="lightgray" stroke-width="0.5"/>
</svg>
