  0
SECTION
  2
BLOCKS
  0
ENDSEC
  0
SECTION
  2
ENTITIES
  0
LINE
  8
0
 10
47.2435
 20
-88.3429
 11
48.4088
 21
-87.8815
  0
LINE
  8
0
 10
48.4088
 20
-87.8815
 11
49.4227
 21
-87.1448
  0
LINE
  8
0
 10
49.4227
 20
-87.1448
 11
50.2216
 21
-86.1791
  0
LINE
  8
0
 10
50.2216
 20
-86.1791
 11
50.7553
 21
-85.0451
  0
LINE
  8
0
 10
50.7553
 20
-85.0451
 11
51
 21
-83.5
  0
LINE
  8
0
 10
51
 20
-83.5
 11
51
 21
83.5
  0
LINE
  8
0
 10
51
 20
83.5
 11
50.8429
 21
84.7435
  0
LINE
  8
0
 10
50.8429
 20
84.7435
 11
50.3815
 21
85.9088
  0
LINE
  8
0
 10
50.3815
 20
85.9088
 11
49.6448
 21
86.9227
  0
LINE
  8
0
 10
49.6448
 20
86.9227
 11
48.6791
 21
87.7216
  0
LINE
  8
0
 10
48.6791
 20
87.7216
 11
47.5451
 21
88.2553
  0
LINE
  8
0
 10
47.5451
 20
88.2553
 11
46
 21
88.5
  0
LINE
  8
0
 10
46
 20
88.5
 11
-46
 21
88.5
  0
LINE
  8
0
 10
-46
 20
88.5
 11
-47.2435
 21
88.3429
  0
LINE
  8
0
 10
-47.2435
 20
88.3429
 11
-48.4088
 21
87.8815
  0
LINE
  8
0
 10
-48.4088
 20
87.8815
 11
-49.4227
 21
87.1448
  0
LINE
  8
0
 10
-49.4227
 20
87.1448
 11
-50.2216
 21
86.1791
  0
LINE
  8
0
 10
-50.2216
 20
86.1791
 11
-50.7553
 21
85.0451
  0
LINE
  8
0
 10
-50.7553
 20
85.0451
 11
-51
 21
83.5
  0
LINE
  8
0
 10
-51
 20
83.5
 11
-51
 21
-83.5
  0
LINE
  8
0
 10
-51
 20
-83.5
 11
-50.8429
 21
-84.7435
  0
LINE
  8
0
 10
-50.8429
 20
-84.7435
 11
-50.3815
 21
-85.9088
  0
LINE
  8
0
 10
-50.3815
 20
-85.9088
 11
-49.6448
 21
-86.9227
  0
LINE
  8
0
 10
-49.6448
 20
-86.9227
 11
-48.6791
 21
-87.7216
  0
LINE
  8
0
 10
-48.6791
 20
-87.7216
 11
-47.5451
 21
-88.2553
  0
LINE
  8
0
 10
-47.5451
 20
-88.2553
 11
-46
 21
-88.5
  0
LINE
  8
0
 10
-46
 20
-88.5
 11
46
 21
-88.5
  0
LINE
  8
0
 10
46
 20
-88.5
 11
47.2435
 21
-88.3429
  0
LINE
  8
0
 10
-45.5621
 20
79.5531
 11
-46.2773
 21
79.7855
  0
LINE
  8
0
 10
-46.2773
 20
79.7855
 11
-46.9123
 21
80.1885
  0
LINE
  8
0
 10
-46.9123
 20
80.1885
 11
-47.427
 21
80.7366
  0
LINE
  8
0
 10
-47.427
 20
80.7366
 11
-47.7893
 21
81.3956
  0
LINE
  8
0
 10
-47.7893
 20
81.3956
 11
-47.9763
 21
82.124
  0
LINE
  8
0
 10
-47.9763
 20
82.124
 11
-47.9763
 21
82.876
  0
LINE
  8
0
 10
-47.9763
 20
82.876
 11
-47.7893
 21
83.6044
  0
LINE
  8
0
 10
-47.7893
 20
83.6044
 11
-47.427
 21
84.2634
  0
LINE
  8
0
 10
-47.427
 20
84.2634
 11
-46.9123
 21
84.8115
  0
LINE
  8
0
 10
-46.9123
 20
84.8115
 11
-46.2773
 21
85.2145
  0
LINE
  8
0
 10
-46.2773
 20
85.2145
 11
-45.5621
 21
85.4469
  0
LINE
  8
0
 10
-45.5621
 20
85.4469
 11
-44.8116
 21
85.4941
  0
LINE
  8
0
 10
-44.8116
 20
85.4941
 11
-44.0729
 21
85.3532
  0
LINE
  8
0
 10
-44.0729
 20
85.3532
 11
-43.3925
 21
85.033
  0
LINE
  8
0
 10
-43.3925
 20
85.033
 11
-42.8131
 21
84.5536
  0
LINE
  8
0
 10
-42.8131
 20
84.5536
 11
-42.3711
 21
83.9453
  0
LINE
  8
0
 10
-42.3711
 20
83.9453
 11
-42.0942
 21
83.2461
  0
LINE
  8
0
 10
-42.0942
 20
83.2461
 11
-42
 21
82.5
  0
LINE
  8
0
 10
-42
 20
82.5
 11
-42.0942
 21
81.7539
  0
LINE
  8
0
 10
-42.0942
 20
81.7539
 11
-42.3711
 21
81.0547
  0
LINE
  8
0
 10
-42.3711
 20
81.0547
 11
-42.8131
 21
80.4464
  0
LINE
  8
0
 10
-42.8131
 20
80.4464
 11
-43.3925
 21
79.967
  0
LINE
  8
0
 10
-43.3925
 20
79.967
 11
-44.0729
 21
79.6468
  0
LINE
  8
0
 10
-44.0729
 20
79.6468
 11
-44.8116
 21
79.5059
  0
LINE
  8
0
 10
-44.8116
 20
79.5059
 11
-45.5621
 21
79.5531
  0
LINE
  8
0
 10
44.4379
 20
79.5531
 11
43.7227
 21
79.7855
  0
LINE
  8
0
 10
43.7227
 20
79.7855
 11
43.0877
 21
80.1885
  0
LINE
  8
0
 10
43.0877
 20
80.1885
 11
42.5729
 21
80.7366
  0
LINE
  8
0
 10
42.5729
 20
80.7366
 11
42.2107
 21
81.3956
  0
LINE
  8
0
 10
42.2107
 20
81.3956
 11
42.0237
 21
82.124
  0
LINE
  8
0
 10
42.0237
 20
82.124
 11
42.0237
 21
82.876
  0
LINE
  8
0
 10
42.0237
 20
82.876
 11
42.2107
 21
83.6044
  0
LINE
  8
0
 10
42.2107
 20
83.6044
 11
42.5729
 21
84.2634
  0
LINE
  8
0
 10
42.5729
 20
84.2634
 11
43.0877
 21
84.8115
  0
LINE
  8
0
 10
43.0877
 20
84.8115
 11
43.7227
 21
85.2145
  0
LINE
  8
0
 10
43.7227
 20
85.2145
 11
44.4379
 21
85.4469
  0
LINE
  8
0
 10
44.4379
 20
85.4469
 11
45.1884
 21
85.4941
  0
LINE
  8
0
 10
45.1884
 20
85.4941
 11
45.927
 21
85.3532
  0
LINE
  8
0
 10
45.927
 20
85.3532
 11
46.6075
 21
85.033
  0
LINE
  8
0
 10
46.6075
 20
85.033
 11
47.1869
 21
84.5536
  0
LINE
  8
0
 10
47.1869
 20
84.5536
 11
47.6289
 21
83.9453
  0
LINE
  8
0
 10
47.6289
 20
83.9453
 11
47.9057
 21
83.2461
  0
LINE
  8
0
 10
47.9057
 20
83.2461
 11
48
 21
82.5
  0
LINE
  8
0
 10
48
 20
82.5
 11
47.9057
 21
81.7539
  0
LINE
  8
0
 10
47.9057
 20
81.7539
 11
47.6289
 21
81.0547
  0
LINE
  8
0
 10
47.6289
 20
81.0547
 11
47.1869
 21
80.4464
  0
LINE
  8
0
 10
47.1869
 20
80.4464
 11
46.6075
 21
79.967
  0
LINE
  8
0
 10
46.6075
 20
79.967
 11
45.927
 21
79.6468
  0
LINE
  8
0
 10
45.927
 20
79.6468
 11
45.1884
 21
79.5059
  0
LINE
  8
0
 10
45.1884
 20
79.5059
 11
44.4379
 21
79.5531
  0
LINE
  8
0
 10
-43.33
 20
56.275
 11
-43.33
 21
69.725
  0
LINE
  8
0
 10
-43.33
 20
69.725
 11
-27.605
 21
69.725
  0
LINE
  8
0
 10
-27.605
 20
69.725
 11
-27.605
 21
56.275
  0
LINE
  8
0
 10
-27.605
 20
56.275
 11
-43.33
 21
56.275
  0
LINE
  8
0
 10
31.0175
 20
58.55
 11
31.0175
 21
67.45
  0
LINE
  8
0
 10
31.0175
 20
67.45
 11
39.9175
 21
67.45
  0
LINE
  8
0
 10
39.9175
 20
67.45
 11
39.9175
 21
58.55
  0
LINE
  8
0
 10
39.9175
 20
58.55
 11
31.0175
 21
58.55
  0
LINE
  8
0
 10
-43.28
 20
35.325
 11
-43.28
 21
48.675
  0
LINE
  8
0
 10
-43.28
 20
48.675
 11
-27.655
 21
48.675
  0
LINE
  8
0
 10
-27.655
 20
48.675
 11
-27.655
 21
35.325
  0
LINE
  8
0
 10
-27.655
 20
35.325
 11
-43.28
 21
35.325
  0
LINE
  8
0
 10
31.0675
 20
37.6
 11
31.0675
 21
46.4
  0
LINE
  8
0
 10
31.0675
 20
46.4
 11
39.8675
 21
46.4
  0
LINE
  8
0
 10
39.8675
 20
46.4
 11
39.8675
 21
37.6
  0
LINE
  8
0
 10
39.8675
 20
37.6
 11
31.0675
 21
37.6
  0
LINE
  8
0
 10
-43.23
 20
14.375
 11
-43.23
 21
27.625
  0
LINE
  8
0
 10
-43.23
 20
27.625
 11
-27.705
 21
27.625
  0
LINE
  8
0
 10
-27.705
 20
27.625
 11
-27.705
 21
14.375
  0
LINE
  8
0
 10
-27.705
 20
14.375
 11
-43.23
 21
14.375
  0
LINE
  8
0
 10
31.1175
 20
16.65
 11
31.1175
 21
25.35
  0
LINE
  8
0
 10
31.1175
 20
25.35
 11
39.8175
 21
25.35
  0
LINE
  8
0
 10
39.8175
 20
25.35
 11
39.8175
 21
16.65
  0
LINE
  8
0
 10
39.8175
 20
16.65
 11
31.1175
 21
16.65
  0
LINE
  8
0
 10
-43.18
 20
-6.575
 11
-43.18
 21
6.575
  0
LINE
  8
0
 10
-43.18
 20
6.575
 11
-27.755
 21
6.575
  0
LINE
  8
0
 10
-27.755
 20
6.575
 11
-27.755
 21
-6.575
  0
LINE
  8
0
 10
-27.755
 20
-6.575
 11
-43.18
 21
-6.575
  0
LINE
  8
0
 10
31.1675
 20
-4.29999
 11
31.1675
 21
4.29999
  0
LINE
  8
0
 10
31.1675
 20
4.29999
 11
39.7675
 21
4.29999
  0
LINE
  8
0
 10
39.7675
 20
4.29999
 11
39.7675
 21
-4.29999
  0
LINE
  8
0
 10
39.7675
 20
-4.29999
 11
31.1675
 21
-4.29999
  0
LINE
  8
0
 10
-43.13
 20
-27.525
 11
-43.13
 21
-14.475
  0
LINE
  8
0
 10
-43.13
 20
-14.475
 11
-27.805
 21
-14.475
  0
LINE
  8
0
 10
-27.805
 20
-14.475
 11
-27.805
 21
-27.525
  0
LINE
  8
0
 10
-27.805
 20
-27.525
 11
-43.13
 21
-27.525
  0
LINE
  8
0
 10
31.2175
 20
-25.25
 11
31.2175
 21
-16.75
  0
LINE
  8
0
 10
31.2175
 20
-16.75
 11
39.7175
 21
-16.75
  0
LINE
  8
0
 10
39.7175
 20
-16.75
 11
39.7175
 21
-25.25
  0
LINE
  8
0
 10
39.7175
 20
-25.25
 11
31.2175
 21
-25.25
  0
LINE
  8
0
 10
-43.08
 20
-48.475
 11
-43.08
 21
-35.525
  0
LINE
  8
0
 10
-43.08
 20
-35.525
 11
-27.855
 21
-35.525
  0
LINE
  8
0
 10
-27.855
 20
-35.525
 11
-27.855
 21
-48.475
  0
LINE
  8
0
 10
-27.855
 20
-48.475
 11
-43.08
 21
-48.475
  0
LINE
  8
0
 10
31.2675
 20
-46.2
 11
31.2675
 21
-37.8
  0
LINE
  8
0
 10
31.2675
 20
-37.8
 11
39.6675
 21
-37.8
  0
LINE
  8
0
 10
39.6675
 20
-37.8
 11
39.6675
 21
-46.2
  0
LINE
  8
0
 10
39.6675
 20
-46.2
 11
31.2675
 21
-46.2
  0
LINE
  8
0
 10
-43.03
 20
-69.425
 11
-43.03
 21
-56.575
  0
LINE
  8
0
 10
-43.03
 20
-56.575
 11
-27.905
 21
-56.575
  0
LINE
  8
0
 10
-27.905
 20
-56.575
 11
-27.905
 21
-69.425
  0
LINE
  8
0
 10
-27.905
 20
-69.425
 11
-43.03
 21
-69.425
  0
LINE
  8
0
 10
31.3175
 20
-67.15
 11
31.3175
 21
-58.85
  0
LINE
  8
0
 10
31.3175
 20
-58.85
 11
39.6175
 21
-58.85
  0
LINE
  8
0
 10
39.6175
 20
-58.85
 11
39.6175
 21
-67.15
  0
LINE
  8
0
 10
39.6175
 20
-67.15
 11
31.3175
 21
-67.15
  0
LINE
  8
0
 10
-45.5621
 20
-85.4469
 11
-46.2773
 21
-85.2145
  0
LINE
  8
0
 10
-46.2773
 20
-85.2145
 11
-46.9123
 21
-84.8115
  0
LINE
  8
0
 10
-46.9123
 20
-84.8115
 11
-47.427
 21
-84.2634
  0
LINE
  8
0
 10
-47.427
 20
-84.2634
 11
-47.7893
 21
-83.6044
  0
LINE
  8
0
 10
-47.7893
 20
-83.6044
 11
-47.9763
 21
-82.876
  0
LINE
  8
0
 10
-47.9763
 20
-82.876
 11
-47.9763
 21
-82.124
  0
LINE
  8
0
 10
-47.9763
 20
-82.124
 11
-47.7893
 21
-81.3956
  0
LINE
  8
0
 10
-47.7893
 20
-81.3956
 11
-47.427
 21
-80.7366
  0
LINE
  8
0
 10
-47.427
 20
-80.7366
 11
-46.9123
 21
-80.1885
  0
LINE
  8
0
 10
-46.9123
 20
-80.1885
 11
-46.2773
 21
-79.7855
  0
LINE
  8
0
 10
-46.2773
 20
-79.7855
 11
-45.5621
 21
-79.5531
  0
LINE
  8
0
 10
-45.5621
 20
-79.5531
 11
-44.8116
 21
-79.5059
  0
LINE
  8
0
 10
-44.8116
 20
-79.5059
 11
-44.0729
 21
-79.6468
  0
LINE
  8
0
 10
-44.0729
 20
-79.6468
 11
-43.3925
 21
-79.967
  0
LINE
  8
0
 10
-43.3925
 20
-79.967
 11
-42.8131
 21
-80.4464
  0
LINE
  8
0
 10
-42.8131
 20
-80.4464
 11
-42.3711
 21
-81.0547
  0
LINE
  8
0
 10
-42.3711
 20
-81.0547
 11
-42.0942
 21
-81.7539
  0
LINE
  8
0
 10
-42.0942
 20
-81.7539
 11
-42
 21
-82.5
  0
LINE
  8
0
 10
-42
 20
-82.5
 11
-42.0942
 21
-83.2461
  0
LINE
  8
0
 10
-42.0942
 20
-83.2461
 11
-42.3711
 21
-83.9453
  0
LINE
  8
0
 10
-42.3711
 20
-83.9453
 11
-42.8131
 21
-84.5536
  0
LINE
  8
0
 10
-42.8131
 20
-84.5536
 11
-43.3925
 21
-85.033
  0
LINE
  8
0
 10
-43.3925
 20
-85.033
 11
-44.0729
 21
-85.3532
  0
LINE
  8
0
 10
-44.0729
 20
-85.3532
 11
-44.8116
 21
-85.4941
  0
LINE
  8
0
 10
-44.8116
 20
-85.4941
 11
-45.5621
 21
-85.4469
  0
LINE
  8
0
 10
44.4379
 20
-85.4469
 11
43.7227
 21
-85.2145
  0
LINE
  8
0
 10
43.7227
 20
-85.2145
 11
43.0877
 21
-84.8115
  0
LINE
  8
0
 10
43.0877
 20
-84.8115
 11
42.5729
 21
-84.2634
  0
LINE
  8
0
 10
42.5729
 20
-84.2634
 11
42.2107
 21
-83.6044
  0
LINE
  8
0
 10
42.2107
 20
-83.6044
 11
42.0237
 21
-82.876
  0
LINE
  8
0
 10
42.0237
 20
-82.876
 11
42.0237
 21
-82.124
  0
LINE
  8
0
 10
42.0237
 20
-82.124
 11
42.2107
 21
-81.3956
  0
LINE
  8
0
 10
42.2107
 20
-81.3956
 11
42.5729
 21
-80.7366
  0
LINE
  8
0
 10
42.5729
 20
-80.7366
 11
43.0877
 21
-80.1885
  0
LINE
  8
0
 10
43.0877
 20
-80.1885
 11
43.7227
 21
-79.7855
  0
LINE
  8
0
 10
43.7227
 20
-79.7855
 11
44.4379
 21
-79.5531
  0
LINE
  8
0
 10
44.4379
 20
-79.5531
 11
45.1884
 21
-79.5059
  0
LINE
  8
0
 10
45.1884
 20
-79.5059
 11
45.927
 21
-79.6468
  0
LINE
  8
0
 10
45.927
 20
-79.6468
 11
46.6075
 21
-79.967
  0
LINE
  8
0
 10
46.6075
 20
-79.967
 11
47.1869
 21
-80.4464
  0
LINE
  8
0
 10
47.1869
 20
-80.4464
 11
47.6289
 21
-81.0547
  0
LINE
  8
0
 10
47.6289
 20
-81.0547
 11
47.9057
 21
-81.7539
  0
LINE
  8
0
 10
47.9057
 20
-81.7539
 11
48
 21
-82.5
  0
LINE
  8
0
 10
48
 20
-82.5
 11
47.9057
 21
-83.2461
  0
LINE
  8
0
 10
47.9057
 20
-83.2461
 11
47.6289
 21
-83.9453
  0
LINE
  8
0
 10
47.6289
 20
-83.9453
 11
47.1869
 21
-84.5536
  0
LINE
  8
0
 10
47.1869
 20
-84.5536
 11
46.6075
 21
-85.033
  0
LINE
  8
0
 10
46.6075
 20
-85.033
 11
45.927
 21
-85.3532
  0
LINE
  8
0
 10
45.927
 20
-85.3532
 11
45.1884
 21
-85.4941
  0
LINE
  8
0
 10
45.1884
 20
-85.4941
 11
44.4379
 21
-85.4469
  0
ENDSEC
  0
SECTION
  2
OBJECTS
  0
DICTIONARY
  0
ENDSEC
  0
EOF
