  0
SECTION
  2
BLOCKS
  0
ENDSEC
  0
SECTION
  2
ENTITIES
  0
LINE
  8
0
 10
3.74345
 20
-35.8429
 11
4.90877
 21
-35.3815
  0
LINE
  8
0
 10
4.90877
 20
-35.3815
 11
5.92273
 21
-34.6448
  0
LINE
  8
0
 10
5.92273
 20
-34.6448
 11
6.72163
 21
-33.6791
  0
LINE
  8
0
 10
6.72163
 20
-33.6791
 11
7.25528
 21
-32.5451
  0
LINE
  8
0
 10
7.25528
 20
-32.5451
 11
7.5
 21
-31
  0
LINE
  8
0
 10
7.5
 20
-31
 11
7.5
 21
31
  0
LINE
  8
0
 10
7.5
 20
31
 11
7.34291
 21
32.2435
  0
LINE
  8
0
 10
7.34291
 20
32.2435
 11
6.88153
 21
33.4088
  0
LINE
  8
0
 10
6.88153
 20
33.4088
 11
6.14484
 21
34.4227
  0
LINE
  8
0
 10
6.14484
 20
34.4227
 11
5.17914
 21
35.2216
  0
LINE
  8
0
 10
5.17914
 20
35.2216
 11
4.04509
 21
35.7553
  0
LINE
  8
0
 10
4.04509
 20
35.7553
 11
2.5
 21
36
  0
LINE
  8
0
 10
2.5
 20
36
 11
-2.5
 21
36
  0
LINE
  8
0
 10
-2.5
 20
36
 11
-3.74345
 21
35.8429
  0
LINE
  8
0
 10
-3.74345
 20
35.8429
 11
-4.90877
 21
35.3815
  0
LINE
  8
0
 10
-4.90877
 20
35.3815
 11
-5.92273
 21
34.6448
  0
LINE
  8
0
 10
-5.92273
 20
34.6448
 11
-6.72163
 21
33.6791
  0
LINE
  8
0
 10
-6.72163
 20
33.6791
 11
-7.25528
 21
32.5451
  0
LINE
  8
0
 10
-7.25528
 20
32.5451
 11
-7.5
 21
31
  0
LINE
  8
0
 10
-7.5
 20
31
 11
-7.5
 21
10.7
  0
LINE
  8
0
 10
-7.5
 20
10.7
 11
4.89999
 21
10.7
  0
LINE
  8
0
 10
4.89999
 20
10.7
 11
4.89999
 21
-10.7
  0
LINE
  8
0
 10
4.89999
 20
-10.7
 11
-7.5
 21
-10.7
  0
LINE
  8
0
 10
-7.5
 20
-10.7
 11
-7.5
 21
-31
  0
LINE
  8
0
 10
-7.5
 20
-31
 11
-7.34291
 21
-32.2435
  0
LINE
  8
0
 10
-7.34291
 20
-32.2435
 11
-6.88153
 21
-33.4088
  0
LINE
  8
0
 10
-6.88153
 20
-33.4088
 11
-6.14484
 21
-34.4227
  0
LINE
  8
0
 10
-6.14484
 20
-34.4227
 11
-5.17914
 21
-35.2216
  0
LINE
  8
0
 10
-5.17914
 20
-35.2216
 11
-4.04509
 21
-35.7553
  0
LINE
  8
0
 10
-4.04509
 20
-35.7553
 11
-2.5
 21
-36
  0
LINE
  8
0
 10
-2.5
 20
-36
 11
2.5
 21
-36
  0
LINE
  8
0
 10
2.5
 20
-36
 11
3.74345
 21
-35.8429
  0
ENDSEC
  0
SECTION
  2
OBJECTS
  0
DICTIONARY
  0
ENDSEC
  0
EOF
