  0
SECTION
  2
BLOCKS
  0
ENDSEC
  0
SECTION
  2
ENTITIES
  0
LINE
  8
0
 10
39.1267
 20
-13.4606
 11
39.7435
 21
-13.3429
  0
LINE
  8
0
 10
39.7435
 20
-13.3429
 11
40.3406
 21
-13.1489
  0
LINE
  8
0
 10
40.3406
 20
-13.1489
 11
40.9088
 21
-12.8815
  0
LINE
  8
0
 10
40.9088
 20
-12.8815
 11
41.4389
 21
-12.5451
  0
LINE
  8
0
 10
41.4389
 20
-12.5451
 11
41.9227
 21
-12.1448
  0
LINE
  8
0
 10
41.9227
 20
-12.1448
 11
42.3526
 21
-11.6871
  0
LINE
  8
0
 10
42.3526
 20
-11.6871
 11
42.7216
 21
-11.1791
  0
LINE
  8
0
 10
42.7216
 20
-11.1791
 11
43.0241
 21
-10.6289
  0
LINE
  8
0
 10
43.0241
 20
-10.6289
 11
43.2553
 21
-10.0451
  0
LINE
  8
0
 10
43.2553
 20
-10.0451
 11
43.4114
 21
-9.4369
  0
LINE
  8
0
 10
43.4114
 20
-9.4369
 11
43.5
 21
-8.5
  0
LINE
  8
0
 10
43.5
 20
-8.5
 11
43.5
 21
8.5
  0
LINE
  8
0
 10
43.5
 20
8.5
 11
43.4606
 21
9.12666
  0
LINE
  8
0
 10
43.4606
 20
9.12666
 11
43.3429
 21
9.74345
  0
LINE
  8
0
 10
43.3429
 20
9.74345
 11
43.1489
 21
10.3406
  0
LINE
  8
0
 10
43.1489
 20
10.3406
 11
42.8815
 21
10.9088
  0
LINE
  8
0
 10
42.8815
 20
10.9088
 11
42.5451
 21
11.4389
  0
LINE
  8
0
 10
42.5451
 20
11.4389
 11
42.1448
 21
11.9227
  0
LINE
  8
0
 10
42.1448
 20
11.9227
 11
41.6871
 21
12.3526
  0
LINE
  8
0
 10
41.6871
 20
12.3526
 11
41.1791
 21
12.7216
  0
LINE
  8
0
 10
41.1791
 20
12.7216
 11
40.6289
 21
13.0241
  0
LINE
  8
0
 10
40.6289
 20
13.0241
 11
40.0451
 21
13.2553
  0
LINE
  8
0
 10
40.0451
 20
13.2553
 11
39.4369
 21
13.4114
  0
LINE
  8
0
 10
39.4369
 20
13.4114
 11
38.5
 21
13.5
  0
LINE
  8
0
 10
38.5
 20
13.5
 11
-38.5
 21
13.5
  0
LINE
  8
0
 10
-38.5
 20
13.5
 11
-39.1267
 21
13.4606
  0
LINE
  8
0
 10
-39.1267
 20
13.4606
 11
-39.7435
 21
13.3429
  0
LINE
  8
0
 10
-39.7435
 20
13.3429
 11
-40.3406
 21
13.1489
  0
LINE
  8
0
 10
-40.3406
 20
13.1489
 11
-40.9088
 21
12.8815
  0
LINE
  8
0
 10
-40.9088
 20
12.8815
 11
-41.4389
 21
12.5451
  0
LINE
  8
0
 10
-41.4389
 20
12.5451
 11
-41.9227
 21
12.1448
  0
LINE
  8
0
 10
-41.9227
 20
12.1448
 11
-42.3526
 21
11.6871
  0
LINE
  8
0
 10
-42.3526
 20
11.6871
 11
-42.7216
 21
11.1791
  0
LINE
  8
0
 10
-42.7216
 20
11.1791
 11
-43.0241
 21
10.6289
  0
LINE
  8
0
 10
-43.0241
 20
10.6289
 11
-43.2553
 21
10.0451
  0
LINE
  8
0
 10
-43.2553
 20
10.0451
 11
-43.4114
 21
9.4369
  0
LINE
  8
0
 10
-43.4114
 20
9.4369
 11
-43.5
 21
8.5
  0
LINE
  8
0
 10
-43.5
 20
8.5
 11
-43.5
 21
-8.5
  0
LINE
  8
0
 10
-43.5
 20
-8.5
 11
-43.4606
 21
-9.12666
  0
LINE
  8
0
 10
-43.4606
 20
-9.12666
 11
-43.3429
 21
-9.74345
  0
LINE
  8
0
 10
-43.3429
 20
-9.74345
 11
-43.1489
 21
-10.3406
  0
LINE
  8
0
 10
-43.1489
 20
-10.3406
 11
-42.8815
 21
-10.9088
  0
LINE
  8
0
 10
-42.8815
 20
-10.9088
 11
-42.5451
 21
-11.4389
  0
LINE
  8
0
 10
-42.5451
 20
-11.4389
 11
-42.1448
 21
-11.9227
  0
LINE
  8
0
 10
-42.1448
 20
-11.9227
 11
-41.6871
 21
-12.3526
  0
LINE
  8
0
 10
-41.6871
 20
-12.3526
 11
-41.1791
 21
-12.7216
  0
LINE
  8
0
 10
-41.1791
 20
-12.7216
 11
-40.6289
 21
-13.0241
  0
LINE
  8
0
 10
-40.6289
 20
-13.0241
 11
-40.0451
 21
-13.2553
  0
LINE
  8
0
 10
-40.0451
 20
-13.2553
 11
-39.4369
 21
-13.4114
  0
LINE
  8
0
 10
-39.4369
 20
-13.4114
 11
-38.5
 21
-13.5
  0
LINE
  8
0
 10
-38.5
 20
-13.5
 11
38.5
 21
-13.5
  0
LINE
  8
0
 10
38.5
 20
-13.5
 11
39.1267
 21
-13.4606
  0
LINE
  8
0
 10
-37.6884
 20
4.50591
 11
-38.0621
 21
4.55313
  0
LINE
  8
0
 10
-38.0621
 20
4.55313
 11
-38.427
 21
4.64682
  0
LINE
  8
0
 10
-38.427
 20
4.64682
 11
-38.7773
 21
4.78551
  0
LINE
  8
0
 10
-38.7773
 20
4.78551
 11
-39.1075
 21
4.96701
  0
LINE
  8
0
 10
-39.1075
 20
4.96701
 11
-39.4123
 21
5.18845
  0
LINE
  8
0
 10
-39.4123
 20
5.18845
 11
-39.6869
 21
5.44635
  0
LINE
  8
0
 10
-39.6869
 20
5.44635
 11
-39.927
 21
5.73663
  0
LINE
  8
0
 10
-39.927
 20
5.73663
 11
-40.1289
 21
6.05473
  0
LINE
  8
0
 10
-40.1289
 20
6.05473
 11
-40.2893
 21
6.39561
  0
LINE
  8
0
 10
-40.2893
 20
6.39561
 11
-40.4057
 21
6.75392
  0
LINE
  8
0
 10
-40.4057
 20
6.75392
 11
-40.4763
 21
7.12399
  0
LINE
  8
0
 10
-40.4763
 20
7.12399
 11
-40.5
 21
7.5
  0
LINE
  8
0
 10
-40.5
 20
7.5
 11
-40.4763
 21
7.87599
  0
LINE
  8
0
 10
-40.4763
 20
7.87599
 11
-40.4057
 21
8.24606
  0
LINE
  8
0
 10
-40.4057
 20
8.24606
 11
-40.2893
 21
8.60437
  0
LINE
  8
0
 10
-40.2893
 20
8.60437
 11
-40.1289
 21
8.94525
  0
LINE
  8
0
 10
-40.1289
 20
8.94525
 11
-39.927
 21
9.26335
  0
LINE
  8
0
 10
-39.927
 20
9.26335
 11
-39.6869
 21
9.55363
  0
LINE
  8
0
 10
-39.6869
 20
9.55363
 11
-39.4123
 21
9.81154
  0
LINE
  8
0
 10
-39.4123
 20
9.81154
 11
-39.1075
 21
10.033
  0
LINE
  8
0
 10
-39.1075
 20
10.033
 11
-38.7773
 21
10.2145
  0
LINE
  8
0
 10
-38.7773
 20
10.2145
 11
-38.427
 21
10.3532
  0
LINE
  8
0
 10
-38.427
 20
10.3532
 11
-38.0621
 21
10.4469
  0
LINE
  8
0
 10
-38.0621
 20
10.4469
 11
-37.6884
 21
10.4941
  0
LINE
  8
0
 10
-37.6884
 20
10.4941
 11
-37.3116
 21
10.4941
  0
LINE
  8
0
 10
-37.3116
 20
10.4941
 11
-36.9379
 21
10.4469
  0
LINE
  8
0
 10
-36.9379
 20
10.4469
 11
-36.5729
 21
10.3532
  0
LINE
  8
0
 10
-36.5729
 20
10.3532
 11
-36.2227
 21
10.2145
  0
LINE
  8
0
 10
-36.2227
 20
10.2145
 11
-35.8925
 21
10.033
  0
LINE
  8
0
 10
-35.8925
 20
10.033
 11
-35.5877
 21
9.81154
  0
LINE
  8
0
 10
-35.5877
 20
9.81154
 11
-35.3131
 21
9.55363
  0
LINE
  8
0
 10
-35.3131
 20
9.55363
 11
-35.0729
 21
9.26335
  0
LINE
  8
0
 10
-35.0729
 20
9.26335
 11
-34.8711
 21
8.94525
  0
LINE
  8
0
 10
-34.8711
 20
8.94525
 11
-34.7107
 21
8.60437
  0
LINE
  8
0
 10
-34.7107
 20
8.60437
 11
-34.5942
 21
8.24606
  0
LINE
  8
0
 10
-34.5942
 20
8.24606
 11
-34.5237
 21
7.87599
  0
LINE
  8
0
 10
-34.5237
 20
7.87599
 11
-34.5
 21
7.5
  0
LINE
  8
0
 10
-34.5
 20
7.5
 11
-34.5237
 21
7.12399
  0
LINE
  8
0
 10
-34.5237
 20
7.12399
 11
-34.5942
 21
6.75392
  0
LINE
  8
0
 10
-34.5942
 20
6.75392
 11
-34.7107
 21
6.39561
  0
LINE
  8
0
 10
-34.7107
 20
6.39561
 11
-34.8711
 21
6.05473
  0
LINE
  8
0
 10
-34.8711
 20
6.05473
 11
-35.0729
 21
5.73663
  0
LINE
  8
0
 10
-35.0729
 20
5.73663
 11
-35.3131
 21
5.44635
  0
LINE
  8
0
 10
-35.3131
 20
5.44635
 11
-35.5877
 21
5.18845
  0
LINE
  8
0
 10
-35.5877
 20
5.18845
 11
-35.8925
 21
4.96701
  0
LINE
  8
0
 10
-35.8925
 20
4.96701
 11
-36.2227
 21
4.78551
  0
LINE
  8
0
 10
-36.2227
 20
4.78551
 11
-36.5729
 21
4.64682
  0
LINE
  8
0
 10
-36.5729
 20
4.64682
 11
-36.9379
 21
4.55313
  0
LINE
  8
0
 10
-36.9379
 20
4.55313
 11
-37.3116
 21
4.50591
  0
LINE
  8
0
 10
-37.3116
 20
4.50591
 11
-37.6884
 21
4.50591
  0
LINE
  8
0
 10
-18.1
 20
-7.79999
 11
-18.1
 21
7.79999
  0
LINE
  8
0
 10
-18.1
 20
7.79999
 11
38.1
 21
7.79999
  0
LINE
  8
0
 10
38.1
 20
7.79999
 11
38.1
 21
-7.79999
  0
LINE
  8
0
 10
38.1
 20
-7.79999
 11
-18.1
 21
-7.79999
  0
LINE
  8
0
 10
-37.6884
 20
-10.4941
 11
-38.0621
 21
-10.4469
  0
LINE
  8
0
 10
-38.0621
 20
-10.4469
 11
-38.427
 21
-10.3532
  0
LINE
  8
0
 10
-38.427
 20
-10.3532
 11
-38.7773
 21
-10.2145
  0
LINE
  8
0
 10
-38.7773
 20
-10.2145
 11
-39.1075
 21
-10.033
  0
LINE
  8
0
 10
-39.1075
 20
-10.033
 11
-39.4123
 21
-9.81154
  0
LINE
  8
0
 10
-39.4123
 20
-9.81154
 11
-39.6869
 21
-9.55363
  0
LINE
  8
0
 10
-39.6869
 20
-9.55363
 11
-39.927
 21
-9.26335
  0
LINE
  8
0
 10
-39.927
 20
-9.26335
 11
-40.1289
 21
-8.94525
  0
LINE
  8
0
 10
-40.1289
 20
-8.94525
 11
-40.2893
 21
-8.60437
  0
LINE
  8
0
 10
-40.2893
 20
-8.60437
 11
-40.4057
 21
-8.24606
  0
LINE
  8
0
 10
-40.4057
 20
-8.24606
 11
-40.4763
 21
-7.87599
  0
LINE
  8
0
 10
-40.4763
 20
-7.87599
 11
-40.5
 21
-7.5
  0
LINE
  8
0
 10
-40.5
 20
-7.5
 11
-40.4763
 21
-7.12399
  0
LINE
  8
0
 10
-40.4763
 20
-7.12399
 11
-40.4057
 21
-6.75392
  0
LINE
  8
0
 10
-40.4057
 20
-6.75392
 11
-40.2893
 21
-6.39561
  0
LINE
  8
0
 10
-40.2893
 20
-6.39561
 11
-40.1289
 21
-6.05473
  0
LINE
  8
0
 10
-40.1289
 20
-6.05473
 11
-39.927
 21
-5.73663
  0
LINE
  8
0
 10
-39.927
 20
-5.73663
 11
-39.6869
 21
-5.44635
  0
LINE
  8
0
 10
-39.6869
 20
-5.44635
 11
-39.4123
 21
-5.18845
  0
LINE
  8
0
 10
-39.4123
 20
-5.18845
 11
-39.1075
 21
-4.96701
  0
LINE
  8
0
 10
-39.1075
 20
-4.96701
 11
-38.7773
 21
-4.78551
  0
LINE
  8
0
 10
-38.7773
 20
-4.78551
 11
-38.427
 21
-4.64682
  0
LINE
  8
0
 10
-38.427
 20
-4.64682
 11
-38.0621
 21
-4.55313
  0
LINE
  8
0
 10
-38.0621
 20
-4.55313
 11
-37.6884
 21
-4.50591
  0
LINE
  8
0
 10
-37.6884
 20
-4.50591
 11
-37.3116
 21
-4.50591
  0
LINE
  8
0
 10
-37.3116
 20
-4.50591
 11
-36.9379
 21
-4.55313
  0
LINE
  8
0
 10
-36.9379
 20
-4.55313
 11
-36.5729
 21
-4.64682
  0
LINE
  8
0
 10
-36.5729
 20
-4.64682
 11
-36.2227
 21
-4.78551
  0
LINE
  8
0
 10
-36.2227
 20
-4.78551
 11
-35.8925
 21
-4.96701
  0
LINE
  8
0
 10
-35.8925
 20
-4.96701
 11
-35.5877
 21
-5.18845
  0
LINE
  8
0
 10
-35.5877
 20
-5.18845
 11
-35.3131
 21
-5.44635
  0
LINE
  8
0
 10
-35.3131
 20
-5.44635
 11
-35.0729
 21
-5.73663
  0
LINE
  8
0
 10
-35.0729
 20
-5.73663
 11
-34.8711
 21
-6.05473
  0
LINE
  8
0
 10
-34.8711
 20
-6.05473
 11
-34.7107
 21
-6.39561
  0
LINE
  8
0
 10
-34.7107
 20
-6.39561
 11
-34.5942
 21
-6.75392
  0
LINE
  8
0
 10
-34.5942
 20
-6.75392
 11
-34.5237
 21
-7.12399
  0
LINE
  8
0
 10
-34.5237
 20
-7.12399
 11
-34.5
 21
-7.5
  0
LINE
  8
0
 10
-34.5
 20
-7.5
 11
-34.5237
 21
-7.87599
  0
LINE
  8
0
 10
-34.5237
 20
-7.87599
 11
-34.5942
 21
-8.24606
  0
LINE
  8
0
 10
-34.5942
 20
-8.24606
 11
-34.7107
 21
-8.60437
  0
LINE
  8
0
 10
-34.7107
 20
-8.60437
 11
-34.8711
 21
-8.94525
  0
LINE
  8
0
 10
-34.8711
 20
-8.94525
 11
-35.0729
 21
-9.26335
  0
LINE
  8
0
 10
-35.0729
 20
-9.26335
 11
-35.3131
 21
-9.55363
  0
LINE
  8
0
 10
-35.3131
 20
-9.55363
 11
-35.5877
 21
-9.81154
  0
LINE
  8
0
 10
-35.5877
 20
-9.81154
 11
-35.8925
 21
-10.033
  0
LINE
  8
0
 10
-35.8925
 20
-10.033
 11
-36.2227
 21
-10.2145
  0
LINE
  8
0
 10
-36.2227
 20
-10.2145
 11
-36.5729
 21
-10.3532
  0
LINE
  8
0
 10
-36.5729
 20
-10.3532
 11
-36.9379
 21
-10.4469
  0
LINE
  8
0
 10
-36.9379
 20
-10.4469
 11
-37.3116
 21
-10.4941
  0
LINE
  8
0
 10
-37.3116
 20
-10.4941
 11
-37.6884
 21
-10.4941
  0
ENDSEC
  0
SECTION
  2
OBJECTS
  0
DICTIONARY
  0
ENDSEC
  0
EOF
