  0
SECTION
  2
BLOCKS
  0
ENDSEC
  0
SECTION
  2
ENTITIES
  0
LINE
  8
0
 10
47.2435
 20
-28.3429
 11
48.4088
 21
-27.8815
  0
LINE
  8
0
 10
48.4088
 20
-27.8815
 11
49.4227
 21
-27.1448
  0
LINE
  8
0
 10
49.4227
 20
-27.1448
 11
50.2216
 21
-26.1791
  0
LINE
  8
0
 10
50.2216
 20
-26.1791
 11
50.7553
 21
-25.0451
  0
LINE
  8
0
 10
50.7553
 20
-25.0451
 11
51
 21
-23.5
  0
LINE
  8
0
 10
51
 20
-23.5
 11
51
 21
23.5
  0
LINE
  8
0
 10
51
 20
23.5
 11
50.8429
 21
24.7435
  0
LINE
  8
0
 10
50.8429
 20
24.7435
 11
50.3815
 21
25.9088
  0
LINE
  8
0
 10
50.3815
 20
25.9088
 11
49.6448
 21
26.9227
  0
LINE
  8
0
 10
49.6448
 20
26.9227
 11
48.6791
 21
27.7216
  0
LINE
  8
0
 10
48.6791
 20
27.7216
 11
47.5451
 21
28.2553
  0
LINE
  8
0
 10
47.5451
 20
28.2553
 11
46
 21
28.5
  0
LINE
  8
0
 10
46
 20
28.5
 11
-46
 21
28.5
  0
LINE
  8
0
 10
-46
 20
28.5
 11
-47.2435
 21
28.3429
  0
LINE
  8
0
 10
-47.2435
 20
28.3429
 11
-48.4088
 21
27.8815
  0
LINE
  8
0
 10
-48.4088
 20
27.8815
 11
-49.4227
 21
27.1448
  0
LINE
  8
0
 10
-49.4227
 20
27.1448
 11
-50.2216
 21
26.1791
  0
LINE
  8
0
 10
-50.2216
 20
26.1791
 11
-50.7553
 21
25.0451
  0
LINE
  8
0
 10
-50.7553
 20
25.0451
 11
-51
 21
23.5
  0
LINE
  8
0
 10
-51
 20
23.5
 11
-51
 21
-23.5
  0
LINE
  8
0
 10
-51
 20
-23.5
 11
-50.8429
 21
-24.7435
  0
LINE
  8
0
 10
-50.8429
 20
-24.7435
 11
-50.3815
 21
-25.9088
  0
LINE
  8
0
 10
-50.3815
 20
-25.9088
 11
-49.6448
 21
-26.9227
  0
LINE
  8
0
 10
-49.6448
 20
-26.9227
 11
-48.6791
 21
-27.7216
  0
LINE
  8
0
 10
-48.6791
 20
-27.7216
 11
-47.5451
 21
-28.2553
  0
LINE
  8
0
 10
-47.5451
 20
-28.2553
 11
-46
 21
-28.5
  0
LINE
  8
0
 10
-46
 20
-28.5
 11
46
 21
-28.5
  0
LINE
  8
0
 10
46
 20
-28.5
 11
47.2435
 21
-28.3429
  0
LINE
  8
0
 10
-45.5621
 20
19.5531
 11
-46.2773
 21
19.7855
  0
LINE
  8
0
 10
-46.2773
 20
19.7855
 11
-46.9123
 21
20.1884
  0
LINE
  8
0
 10
-46.9123
 20
20.1884
 11
-47.427
 21
20.7366
  0
LINE
  8
0
 10
-47.427
 20
20.7366
 11
-47.7893
 21
21.3956
  0
LINE
  8
0
 10
-47.7893
 20
21.3956
 11
-47.9763
 21
22.124
  0
LINE
  8
0
 10
-47.9763
 20
22.124
 11
-47.9763
 21
22.876
  0
LINE
  8
0
 10
-47.9763
 20
22.876
 11
-47.7893
 21
23.6044
  0
LINE
  8
0
 10
-47.7893
 20
23.6044
 11
-47.427
 21
24.2634
  0
LINE
  8
0
 10
-47.427
 20
24.2634
 11
-46.9123
 21
24.8115
  0
LINE
  8
0
 10
-46.9123
 20
24.8115
 11
-46.2773
 21
25.2145
  0
LINE
  8
0
 10
-46.2773
 20
25.2145
 11
-45.5621
 21
25.4469
  0
LINE
  8
0
 10
-45.5621
 20
25.4469
 11
-44.8116
 21
25.4941
  0
LINE
  8
0
 10
-44.8116
 20
25.4941
 11
-44.0729
 21
25.3532
  0
LINE
  8
0
 10
-44.0729
 20
25.3532
 11
-43.3925
 21
25.033
  0
LINE
  8
0
 10
-43.3925
 20
25.033
 11
-42.8131
 21
24.5536
  0
LINE
  8
0
 10
-42.8131
 20
24.5536
 11
-42.3711
 21
23.9453
  0
LINE
  8
0
 10
-42.3711
 20
23.9453
 11
-42.0942
 21
23.2461
  0
LINE
  8
0
 10
-42.0942
 20
23.2461
 11
-42
 21
22.5
  0
LINE
  8
0
 10
-42
 20
22.5
 11
-42.0942
 21
21.7539
  0
LINE
  8
0
 10
-42.0942
 20
21.7539
 11
-42.3711
 21
21.0547
  0
LINE
  8
0
 10
-42.3711
 20
21.0547
 11
-42.8131
 21
20.4464
  0
LINE
  8
0
 10
-42.8131
 20
20.4464
 11
-43.3925
 21
19.967
  0
LINE
  8
0
 10
-43.3925
 20
19.967
 11
-44.0729
 21
19.6468
  0
LINE
  8
0
 10
-44.0729
 20
19.6468
 11
-44.8116
 21
19.5059
  0
LINE
  8
0
 10
-44.8116
 20
19.5059
 11
-45.5621
 21
19.5531
  0
LINE
  8
0
 10
44.4379
 20
19.5531
 11
43.7227
 21
19.7855
  0
LINE
  8
0
 10
43.7227
 20
19.7855
 11
43.0877
 21
20.1884
  0
LINE
  8
0
 10
43.0877
 20
20.1884
 11
42.5729
 21
20.7366
  0
LINE
  8
0
 10
42.5729
 20
20.7366
 11
42.2107
 21
21.3956
  0
LINE
  8
0
 10
42.2107
 20
21.3956
 11
42.0237
 21
22.124
  0
LINE
  8
0
 10
42.0237
 20
22.124
 11
42.0237
 21
22.876
  0
LINE
  8
0
 10
42.0237
 20
22.876
 11
42.2107
 21
23.6044
  0
LINE
  8
0
 10
42.2107
 20
23.6044
 11
42.5729
 21
24.2634
  0
LINE
  8
0
 10
42.5729
 20
24.2634
 11
43.0877
 21
24.8115
  0
LINE
  8
0
 10
43.0877
 20
24.8115
 11
43.7227
 21
25.2145
  0
LINE
  8
0
 10
43.7227
 20
25.2145
 11
44.4379
 21
25.4469
  0
LINE
  8
0
 10
44.4379
 20
25.4469
 11
45.1884
 21
25.4941
  0
LINE
  8
0
 10
45.1884
 20
25.4941
 11
45.927
 21
25.3532
  0
LINE
  8
0
 10
45.927
 20
25.3532
 11
46.6075
 21
25.033
  0
LINE
  8
0
 10
46.6075
 20
25.033
 11
47.1869
 21
24.5536
  0
LINE
  8
0
 10
47.1869
 20
24.5536
 11
47.6289
 21
23.9453
  0
LINE
  8
0
 10
47.6289
 20
23.9453
 11
47.9057
 21
23.2461
  0
LINE
  8
0
 10
47.9057
 20
23.2461
 11
48
 21
22.5
  0
LINE
  8
0
 10
48
 20
22.5
 11
47.9057
 21
21.7539
  0
LINE
  8
0
 10
47.9057
 20
21.7539
 11
47.6289
 21
21.0547
  0
LINE
  8
0
 10
47.6289
 20
21.0547
 11
47.1869
 21
20.4464
  0
LINE
  8
0
 10
47.1869
 20
20.4464
 11
46.6075
 21
19.967
  0
LINE
  8
0
 10
46.6075
 20
19.967
 11
45.927
 21
19.6468
  0
LINE
  8
0
 10
45.927
 20
19.6468
 11
45.1884
 21
19.5059
  0
LINE
  8
0
 10
45.1884
 20
19.5059
 11
44.4379
 21
19.5531
  0
LINE
  8
0
 10
-42.88
 20
-6.27499
 11
-42.88
 21
6.27499
  0
LINE
  8
0
 10
-42.88
 20
6.27499
 11
-28.055
 21
6.27499
  0
LINE
  8
0
 10
-28.055
 20
6.27499
 11
-28.055
 21
-6.27499
  0
LINE
  8
0
 10
-28.055
 20
-6.27499
 11
-42.88
 21
-6.27499
  0
LINE
  8
0
 10
31.4675
 20
-4
 11
31.4675
 21
4
  0
LINE
  8
0
 10
31.4675
 20
4
 11
39.4675
 21
4
  0
LINE
  8
0
 10
39.4675
 20
4
 11
39.4675
 21
-4
  0
LINE
  8
0
 10
39.4675
 20
-4
 11
31.4675
 21
-4
  0
LINE
  8
0
 10
-45.5621
 20
-25.4469
 11
-46.2773
 21
-25.2145
  0
LINE
  8
0
 10
-46.2773
 20
-25.2145
 11
-46.9123
 21
-24.8115
  0
LINE
  8
0
 10
-46.9123
 20
-24.8115
 11
-47.427
 21
-24.2634
  0
LINE
  8
0
 10
-47.427
 20
-24.2634
 11
-47.7893
 21
-23.6044
  0
LINE
  8
0
 10
-47.7893
 20
-23.6044
 11
-47.9763
 21
-22.876
  0
LINE
  8
0
 10
-47.9763
 20
-22.876
 11
-47.9763
 21
-22.124
  0
LINE
  8
0
 10
-47.9763
 20
-22.124
 11
-47.7893
 21
-21.3956
  0
LINE
  8
0
 10
-47.7893
 20
-21.3956
 11
-47.427
 21
-20.7366
  0
LINE
  8
0
 10
-47.427
 20
-20.7366
 11
-46.9123
 21
-20.1884
  0
LINE
  8
0
 10
-46.9123
 20
-20.1884
 11
-46.2773
 21
-19.7855
  0
LINE
  8
0
 10
-46.2773
 20
-19.7855
 11
-45.5621
 21
-19.5531
  0
LINE
  8
0
 10
-45.5621
 20
-19.5531
 11
-44.8116
 21
-19.5059
  0
LINE
  8
0
 10
-44.8116
 20
-19.5059
 11
-44.0729
 21
-19.6468
  0
LINE
  8
0
 10
-44.0729
 20
-19.6468
 11
-43.3925
 21
-19.967
  0
LINE
  8
0
 10
-43.3925
 20
-19.967
 11
-42.8131
 21
-20.4464
  0
LINE
  8
0
 10
-42.8131
 20
-20.4464
 11
-42.3711
 21
-21.0547
  0
LINE
  8
0
 10
-42.3711
 20
-21.0547
 11
-42.0942
 21
-21.7539
  0
LINE
  8
0
 10
-42.0942
 20
-21.7539
 11
-42
 21
-22.5
  0
LINE
  8
0
 10
-42
 20
-22.5
 11
-42.0942
 21
-23.2461
  0
LINE
  8
0
 10
-42.0942
 20
-23.2461
 11
-42.3711
 21
-23.9453
  0
LINE
  8
0
 10
-42.3711
 20
-23.9453
 11
-42.8131
 21
-24.5536
  0
LINE
  8
0
 10
-42.8131
 20
-24.5536
 11
-43.3925
 21
-25.033
  0
LINE
  8
0
 10
-43.3925
 20
-25.033
 11
-44.0729
 21
-25.3532
  0
LINE
  8
0
 10
-44.0729
 20
-25.3532
 11
-44.8116
 21
-25.4941
  0
LINE
  8
0
 10
-44.8116
 20
-25.4941
 11
-45.5621
 21
-25.4469
  0
LINE
  8
0
 10
44.4379
 20
-25.4469
 11
43.7227
 21
-25.2145
  0
LINE
  8
0
 10
43.7227
 20
-25.2145
 11
43.0877
 21
-24.8115
  0
LINE
  8
0
 10
43.0877
 20
-24.8115
 11
42.5729
 21
-24.2634
  0
LINE
  8
0
 10
42.5729
 20
-24.2634
 11
42.2107
 21
-23.6044
  0
LINE
  8
0
 10
42.2107
 20
-23.6044
 11
42.0237
 21
-22.876
  0
LINE
  8
0
 10
42.0237
 20
-22.876
 11
42.0237
 21
-22.124
  0
LINE
  8
0
 10
42.0237
 20
-22.124
 11
42.2107
 21
-21.3956
  0
LINE
  8
0
 10
42.2107
 20
-21.3956
 11
42.5729
 21
-20.7366
  0
LINE
  8
0
 10
42.5729
 20
-20.7366
 11
43.0877
 21
-20.1884
  0
LINE
  8
0
 10
43.0877
 20
-20.1884
 11
43.7227
 21
-19.7855
  0
LINE
  8
0
 10
43.7227
 20
-19.7855
 11
44.4379
 21
-19.5531
  0
LINE
  8
0
 10
44.4379
 20
-19.5531
 11
45.1884
 21
-19.5059
  0
LINE
  8
0
 10
45.1884
 20
-19.5059
 11
45.927
 21
-19.6468
  0
LINE
  8
0
 10
45.927
 20
-19.6468
 11
46.6075
 21
-19.967
  0
LINE
  8
0
 10
46.6075
 20
-19.967
 11
47.1869
 21
-20.4464
  0
LINE
  8
0
 10
47.1869
 20
-20.4464
 11
47.6289
 21
-21.0547
  0
LINE
  8
0
 10
47.6289
 20
-21.0547
 11
47.9057
 21
-21.7539
  0
LINE
  8
0
 10
47.9057
 20
-21.7539
 11
48
 21
-22.5
  0
LINE
  8
0
 10
48
 20
-22.5
 11
47.9057
 21
-23.2461
  0
LINE
  8
0
 10
47.9057
 20
-23.2461
 11
47.6289
 21
-23.9453
  0
LINE
  8
0
 10
47.6289
 20
-23.9453
 11
47.1869
 21
-24.5536
  0
LINE
  8
0
 10
47.1869
 20
-24.5536
 11
46.6075
 21
-25.033
  0
LINE
  8
0
 10
46.6075
 20
-25.033
 11
45.927
 21
-25.3532
  0
LINE
  8
0
 10
45.927
 20
-25.3532
 11
45.1884
 21
-25.4941
  0
LINE
  8
0
 10
45.1884
 20
-25.4941
 11
44.4379
 21
-25.4469
  0
ENDSEC
  0
SECTION
  2
OBJECTS
  0
DICTIONARY
  0
ENDSEC
  0
EOF
