solid OpenSCAD_Model
  facet normal 0 0 1
    outer loop
      vertex 40.1 9.8 -2.6
      vertex 38.1 7.8 -2.6
      vertex 40.1 -9.8 -2.6
    endloop
  endfacet
  facet normal 0 0 1
    outer loop
      vertex 40.1 9.8 -2.6
      vertex -18.1 7.8 -2.6
      vertex 38.1 7.8 -2.6
    endloop
  endfacet
  facet normal 0 0 1
    outer loop
      vertex -18.1 7.8 -2.6
      vertex -20.1 9.8 -2.6
      vertex -18.1 -7.8 -2.6
    endloop
  endfacet
  facet normal -0 0 1
    outer loop
      vertex -20.1 9.8 -2.6
      vertex -18.1 7.8 -2.6
      vertex 40.1 9.8 -2.6
    endloop
  endfacet
  facet normal -0 0 1
    outer loop
      vertex 38.1 -7.8 -2.6
      vertex 40.1 -9.8 -2.6
      vertex 38.1 7.8 -2.6
    endloop
  endfacet
  facet normal -0 0 1
    outer loop
      vertex -18.1 -7.8 -2.6
      vertex 40.1 -9.8 -2.6
      vertex 38.1 -7.8 -2.6
    endloop
  endfacet
  facet normal 0 0 1
    outer loop
      vertex -18.1 -7.8 -2.6
      vertex -20.1 -9.8 -2.6
      vertex 40.1 -9.8 -2.6
    endloop
  endfacet
  facet normal 0 0 1
    outer loop
      vertex -20.1 -9.8 -2.6
      vertex -18.1 -7.8 -2.6
      vertex -20.1 9.8 -2.6
    endloop
  endfacet
  facet normal -1 0 0
    outer loop
      vertex 40.1 -9.8 -2.6
      vertex 40.1 9.8 0
      vertex 40.1 9.8 -2.6
    endloop
  endfacet
  facet normal -1 -0 0
    outer loop
      vertex 40.1 9.8 0
      vertex 40.1 -9.8 -2.6
      vertex 40.1 -9.8 0
    endloop
  endfacet
  facet normal 1 -0 0
    outer loop
      vertex -20.1 -9.8 0
      vertex -20.1 9.8 -2.6
      vertex -20.1 9.8 0
    endloop
  endfacet
  facet normal 1 0 0
    outer loop
      vertex -20.1 9.8 -2.6
      vertex -20.1 -9.8 0
      vertex -20.1 -9.8 -2.6
    endloop
  endfacet
  facet normal 0 1 -0
    outer loop
      vertex 40.1 -9.8 -2.6
      vertex -20.1 -9.8 0
      vertex 40.1 -9.8 0
    endloop
  endfacet
  facet normal 0 1 0
    outer loop
      vertex -20.1 -9.8 0
      vertex 40.1 -9.8 -2.6
      vertex -20.1 -9.8 -2.6
    endloop
  endfacet
  facet normal 0 -1 0
    outer loop
      vertex -20.1 9.8 -2.6
      vertex 40.1 9.8 0
      vertex -20.1 9.8 0
    endloop
  endfacet
  facet normal 0 -1 -0
    outer loop
      vertex 40.1 9.8 0
      vertex -20.1 9.8 -2.6
      vertex 40.1 9.8 -2.6
    endloop
  endfacet
  facet normal 0 0 1
    outer loop
      vertex -20.1 9.8 0
      vertex -34.652 5.9343 0
      vertex -20.1 -9.8 0
    endloop
  endfacet
  facet normal 0 0 1
    outer loop
      vertex -20.1 -9.8 0
      vertex -34.3521 -6.69176 0
      vertex -34.25 -7.5 0
    endloop
  endfacet
  facet normal -0 0 1
    outer loop
      vertex -34.652 -5.9343 0
      vertex -20.1 -9.8 0
      vertex -34.652 5.9343 0
    endloop
  endfacet
  facet normal 0 0 1
    outer loop
      vertex -20.1 -9.8 0
      vertex -34.652 -5.9343 0
      vertex -34.3521 -6.69176 0
    endloop
  endfacet
  facet normal -0 0 1
    outer loop
      vertex -35.1309 5.27522 0
      vertex -34.652 -5.9343 0
      vertex -34.652 5.9343 0
    endloop
  endfacet
  facet normal 0 0 1
    outer loop
      vertex -35.1309 5.27522 0
      vertex -35.1309 -5.27522 0
      vertex -34.652 -5.9343 0
    endloop
  endfacet
  facet normal -0 0 1
    outer loop
      vertex -35.7586 4.75593 0
      vertex -35.1309 -5.27522 0
      vertex -35.1309 5.27522 0
    endloop
  endfacet
  facet normal 0 0 1
    outer loop
      vertex -35.7586 4.75593 0
      vertex -35.7586 -4.75593 0
      vertex -35.1309 -5.27522 0
    endloop
  endfacet
  facet normal -0 0 1
    outer loop
      vertex -36.4957 4.40907 0
      vertex -35.7586 -4.75593 0
      vertex -35.7586 4.75593 0
    endloop
  endfacet
  facet normal 0 0 1
    outer loop
      vertex -36.4957 4.40907 0
      vertex -36.4957 -4.40907 0
      vertex -35.7586 -4.75593 0
    endloop
  endfacet
  facet normal -0 0 1
    outer loop
      vertex -37.2959 4.25641 0
      vertex -36.4957 -4.40907 0
      vertex -36.4957 4.40907 0
    endloop
  endfacet
  facet normal 0 0 1
    outer loop
      vertex -37.2959 4.25641 0
      vertex -37.2959 -4.25641 0
      vertex -36.4957 -4.40907 0
    endloop
  endfacet
  facet normal 0 0 1
    outer loop
      vertex -38.109 4.30757 0
      vertex -37.2959 -4.25641 0
      vertex -37.2959 4.25641 0
    endloop
  endfacet
  facet normal 0 0 1
    outer loop
      vertex -38.109 4.30757 0
      vertex -38.109 -4.30757 0
      vertex -37.2959 -4.25641 0
    endloop
  endfacet
  facet normal 0 0 1
    outer loop
      vertex -38.8838 4.55931 0
      vertex -38.109 -4.30757 0
      vertex -38.109 4.30757 0
    endloop
  endfacet
  facet normal 0 0 1
    outer loop
      vertex -38.8838 4.55931 0
      vertex -38.8838 -4.55931 0
      vertex -38.109 -4.30757 0
    endloop
  endfacet
  facet normal 0 0 1
    outer loop
      vertex -39.5716 4.99583 0
      vertex -38.8838 -4.55931 0
      vertex -38.8838 4.55931 0
    endloop
  endfacet
  facet normal 0 0 1
    outer loop
      vertex -39.5716 4.99583 0
      vertex -39.5716 -4.99583 0
      vertex -38.8838 -4.55931 0
    endloop
  endfacet
  facet normal 0 0 1
    outer loop
      vertex -40.1293 5.5897 0
      vertex -39.5716 -4.99583 0
      vertex -39.5716 4.99583 0
    endloop
  endfacet
  facet normal 0 0 1
    outer loop
      vertex -40.1293 5.5897 0
      vertex -40.1293 -5.5897 0
      vertex -39.5716 -4.99583 0
    endloop
  endfacet
  facet normal 0 0 1
    outer loop
      vertex -43.5 8.5 0
      vertex -40.1293 5.5897 0
      vertex -40.5218 6.30359 0
    endloop
  endfacet
  facet normal 0 0 1
    outer loop
      vertex -40.1293 5.5897 0
      vertex -43.5 8.5 0
      vertex -40.1293 -5.5897 0
    endloop
  endfacet
  facet normal 0 0 1
    outer loop
      vertex -43.5 8.5 0
      vertex -40.5218 6.30359 0
      vertex -40.7244 7.09267 0
    endloop
  endfacet
  facet normal 0 0 1
    outer loop
      vertex -43.5 -8.5 0
      vertex -40.1293 -5.5897 0
      vertex -43.5 8.5 0
    endloop
  endfacet
  facet normal 0 0 1
    outer loop
      vertex 40.1 9.8 0
      vertex 43.5 8.5 0
      vertex 43.3429 9.74345 0
    endloop
  endfacet
  facet normal 0 0 1
    outer loop
      vertex 43.5 8.5 0
      vertex 40.1 9.8 0
      vertex 43.5 -8.5 0
    endloop
  endfacet
  facet normal -0 0 1
    outer loop
      vertex 40.1 9.8 0
      vertex 43.3429 9.74345 0
      vertex 42.8815 10.9088 0
    endloop
  endfacet
  facet normal 0 0 1
    outer loop
      vertex 43.5 -8.5 0
      vertex 40.1 9.8 0
      vertex 40.1 -9.8 0
    endloop
  endfacet
  facet normal 0 0 1
    outer loop
      vertex 40.1 9.8 0
      vertex 42.8815 10.9088 0
      vertex 42.1448 11.9227 0
    endloop
  endfacet
  facet normal 0 0 1
    outer loop
      vertex 43.5 -8.5 0
      vertex 40.1 -9.8 0
      vertex 43.2553 -10.0451 0
    endloop
  endfacet
  facet normal 0 0 1
    outer loop
      vertex 40.1 9.8 0
      vertex 42.1448 11.9227 0
      vertex 41.1791 12.7216 0
    endloop
  endfacet
  facet normal 0 0 1
    outer loop
      vertex 43.2553 -10.0451 0
      vertex 40.1 -9.8 0
      vertex 42.7216 -11.1791 0
    endloop
  endfacet
  facet normal 0 0 1
    outer loop
      vertex 42.7216 -11.1791 0
      vertex 40.1 -9.8 0
      vertex 41.9227 -12.1448 0
    endloop
  endfacet
  facet normal 0 0 1
    outer loop
      vertex 40.0451 13.2553 0
      vertex 40.1 9.8 0
      vertex 41.1791 12.7216 0
    endloop
  endfacet
  facet normal 0 0 1
    outer loop
      vertex 38.5 13.5 0
      vertex 40.1 9.8 0
      vertex 40.0451 13.2553 0
    endloop
  endfacet
  facet normal 0 0 1
    outer loop
      vertex 38.5 13.5 0
      vertex -20.1 9.8 0
      vertex 40.1 9.8 0
    endloop
  endfacet
  facet normal 0 0 1
    outer loop
      vertex -34.3521 6.69176 0
      vertex -20.1 9.8 0
      vertex -34.25 7.5 0
    endloop
  endfacet
  facet normal 0 0 1
    outer loop
      vertex -20.1 9.8 0
      vertex -34.3521 8.30824 0
      vertex -34.25 7.5 0
    endloop
  endfacet
  facet normal 0 0 1
    outer loop
      vertex -20.1 9.8 0
      vertex -34.652 9.0657 0
      vertex -34.3521 8.30824 0
    endloop
  endfacet
  facet normal -0 0 1
    outer loop
      vertex -38.5 13.5 0
      vertex -20.1 9.8 0
      vertex 38.5 13.5 0
    endloop
  endfacet
  facet normal 0 0 1
    outer loop
      vertex -20.1 9.8 0
      vertex -35.1309 9.72478 0
      vertex -34.652 9.0657 0
    endloop
  endfacet
  facet normal -0 -0 1
    outer loop
      vertex -35.7586 10.2441 0
      vertex -20.1 9.8 0
      vertex -38.5 13.5 0
    endloop
  endfacet
  facet normal 0 0 1
    outer loop
      vertex -20.1 9.8 0
      vertex -35.7586 10.2441 0
      vertex -35.1309 9.72478 0
    endloop
  endfacet
  facet normal 0 0 1
    outer loop
      vertex -35.7586 10.2441 0
      vertex -38.5 13.5 0
      vertex -36.4957 10.5909 0
    endloop
  endfacet
  facet normal 0 0 1
    outer loop
      vertex -36.4957 10.5909 0
      vertex -38.5 13.5 0
      vertex -37.2959 10.7436 0
    endloop
  endfacet
  facet normal 0 0 1
    outer loop
      vertex -38.5 13.5 0
      vertex -38.109 10.6924 0
      vertex -37.2959 10.7436 0
    endloop
  endfacet
  facet normal -0 0 1
    outer loop
      vertex -39.7435 13.3429 0
      vertex -38.109 10.6924 0
      vertex -38.5 13.5 0
    endloop
  endfacet
  facet normal 0 0 1
    outer loop
      vertex -38.109 10.6924 0
      vertex -39.7435 13.3429 0
      vertex -38.8838 10.4407 0
    endloop
  endfacet
  facet normal -0 0 1
    outer loop
      vertex -40.9088 12.8815 0
      vertex -38.8838 10.4407 0
      vertex -39.7435 13.3429 0
    endloop
  endfacet
  facet normal 0 0 1
    outer loop
      vertex -38.8838 10.4407 0
      vertex -40.9088 12.8815 0
      vertex -39.5716 10.0042 0
    endloop
  endfacet
  facet normal -0 0 1
    outer loop
      vertex -41.9227 12.1448 0
      vertex -39.5716 10.0042 0
      vertex -40.9088 12.8815 0
    endloop
  endfacet
  facet normal 0 0 1
    outer loop
      vertex -39.5716 10.0042 0
      vertex -41.9227 12.1448 0
      vertex -40.1293 9.4103 0
    endloop
  endfacet
  facet normal 0 0 1
    outer loop
      vertex -43.5 8.5 0
      vertex -40.7244 7.09267 0
      vertex -40.7244 7.90733 0
    endloop
  endfacet
  facet normal 0 0 1
    outer loop
      vertex -40.1293 -5.5897 0
      vertex -43.5 -8.5 0
      vertex -40.5218 -6.30359 0
    endloop
  endfacet
  facet normal -0 0 1
    outer loop
      vertex -43.2553 10.0451 0
      vertex -40.1293 9.4103 0
      vertex -42.7216 11.1791 0
    endloop
  endfacet
  facet normal -0 0 1
    outer loop
      vertex -42.7216 11.1791 0
      vertex -40.1293 9.4103 0
      vertex -41.9227 12.1448 0
    endloop
  endfacet
  facet normal 0 0 1
    outer loop
      vertex 41.9227 -12.1448 0
      vertex 40.1 -9.8 0
      vertex 40.9088 -12.8815 0
    endloop
  endfacet
  facet normal 0 0 1
    outer loop
      vertex 40.1 -9.8 0
      vertex 39.7435 -13.3429 0
      vertex 40.9088 -12.8815 0
    endloop
  endfacet
  facet normal 0 0 1
    outer loop
      vertex 40.1 -9.8 0
      vertex 38.5 -13.5 0
      vertex 39.7435 -13.3429 0
    endloop
  endfacet
  facet normal -0 0 1
    outer loop
      vertex -20.1 -9.8 0
      vertex 38.5 -13.5 0
      vertex 40.1 -9.8 0
    endloop
  endfacet
  facet normal 0 0 1
    outer loop
      vertex -34.652 5.9343 0
      vertex -20.1 9.8 0
      vertex -34.3521 6.69176 0
    endloop
  endfacet
  facet normal -0 0 1
    outer loop
      vertex -34.3521 -8.30824 0
      vertex -20.1 -9.8 0
      vertex -34.25 -7.5 0
    endloop
  endfacet
  facet normal -0 0 1
    outer loop
      vertex -34.652 -9.0657 0
      vertex -20.1 -9.8 0
      vertex -34.3521 -8.30824 0
    endloop
  endfacet
  facet normal -0 0 1
    outer loop
      vertex -35.1309 -9.72478 0
      vertex -20.1 -9.8 0
      vertex -34.652 -9.0657 0
    endloop
  endfacet
  facet normal 0 0 1
    outer loop
      vertex -35.7586 -10.2441 0
      vertex -20.1 -9.8 0
      vertex -35.1309 -9.72478 0
    endloop
  endfacet
  facet normal 0 0 1
    outer loop
      vertex -20.1 -9.8 0
      vertex -35.7586 -10.2441 0
      vertex -38.5 -13.5 0
    endloop
  endfacet
  facet normal 0 0 1
    outer loop
      vertex -38.5 -13.5 0
      vertex -35.7586 -10.2441 0
      vertex -36.4957 -10.5909 0
    endloop
  endfacet
  facet normal 0 0 1
    outer loop
      vertex -38.5 -13.5 0
      vertex -36.4957 -10.5909 0
      vertex -37.2959 -10.7436 0
    endloop
  endfacet
  facet normal 0 0 1
    outer loop
      vertex -20.1 -9.8 0
      vertex -38.5 -13.5 0
      vertex 38.5 -13.5 0
    endloop
  endfacet
  facet normal 0 0 1
    outer loop
      vertex -38.109 -10.6924 0
      vertex -38.5 -13.5 0
      vertex -37.2959 -10.7436 0
    endloop
  endfacet
  facet normal 0 0 1
    outer loop
      vertex -38.8838 -10.4407 0
      vertex -38.5 -13.5 0
      vertex -38.109 -10.6924 0
    endloop
  endfacet
  facet normal 0 0 1
    outer loop
      vertex -41.1791 -12.7216 0
      vertex -38.8838 -10.4407 0
      vertex -39.5716 -10.0042 0
    endloop
  endfacet
  facet normal 0 0 1
    outer loop
      vertex -38.8838 -10.4407 0
      vertex -40.0451 -13.2553 0
      vertex -38.5 -13.5 0
    endloop
  endfacet
  facet normal 0 0 1
    outer loop
      vertex -42.1448 -11.9227 0
      vertex -39.5716 -10.0042 0
      vertex -40.1293 -9.4103 0
    endloop
  endfacet
  facet normal 0 0 1
    outer loop
      vertex -42.8815 -10.9088 0
      vertex -40.1293 -9.4103 0
      vertex -40.5218 -8.6964 0
    endloop
  endfacet
  facet normal -0 0 1
    outer loop
      vertex -43.5 -8.5 0
      vertex -40.5218 -8.6964 0
      vertex -40.7244 -7.90733 0
    endloop
  endfacet
  facet normal 0 0 1
    outer loop
      vertex -38.8838 -10.4407 0
      vertex -41.1791 -12.7216 0
      vertex -40.0451 -13.2553 0
    endloop
  endfacet
  facet normal 0 0 1
    outer loop
      vertex -40.5218 -6.30359 0
      vertex -43.5 -8.5 0
      vertex -40.7244 -7.09267 0
    endloop
  endfacet
  facet normal 0 0 1
    outer loop
      vertex -40.1293 9.4103 0
      vertex -43.2553 10.0451 0
      vertex -40.5218 8.6964 0
    endloop
  endfacet
  facet normal 0 0 1
    outer loop
      vertex -40.7244 -7.09267 0
      vertex -43.5 -8.5 0
      vertex -40.7244 -7.90733 0
    endloop
  endfacet
  facet normal 0 0 1
    outer loop
      vertex -43.5 8.5 0
      vertex -40.5218 8.6964 0
      vertex -43.2553 10.0451 0
    endloop
  endfacet
  facet normal 0 0 1
    outer loop
      vertex -40.5218 -8.6964 0
      vertex -43.5 -8.5 0
      vertex -43.3429 -9.74345 0
    endloop
  endfacet
  facet normal 0 0 1
    outer loop
      vertex -40.5218 8.6964 0
      vertex -43.5 8.5 0
      vertex -40.7244 7.90733 0
    endloop
  endfacet
  facet normal 0 0 1
    outer loop
      vertex -39.5716 -10.0042 0
      vertex -42.1448 -11.9227 0
      vertex -41.1791 -12.7216 0
    endloop
  endfacet
  facet normal 0 0 1
    outer loop
      vertex -40.1293 -9.4103 0
      vertex -42.8815 -10.9088 0
      vertex -42.1448 -11.9227 0
    endloop
  endfacet
  facet normal 0 0 1
    outer loop
      vertex -40.5218 -8.6964 0
      vertex -43.3429 -9.74345 0
      vertex -42.8815 -10.9088 0
    endloop
  endfacet
  facet normal -1 0 0
    outer loop
      vertex 38.1 -7.8 -12
      vertex 38.1 7.8 -2.6
      vertex 38.1 7.8 -12
    endloop
  endfacet
  facet normal -1 -0 0
    outer loop
      vertex 38.1 7.8 -2.6
      vertex 38.1 -7.8 -12
      vertex 38.1 -7.8 -2.6
    endloop
  endfacet
  facet normal 1 -0 0
    outer loop
      vertex -18.1 -7.8 -2.6
      vertex -18.1 7.8 -12
      vertex -18.1 7.8 -2.6
    endloop
  endfacet
  facet normal 1 0 0
    outer loop
      vertex -18.1 7.8 -12
      vertex -18.1 -7.8 -2.6
      vertex -18.1 -7.8 -12
    endloop
  endfacet
  facet normal 0 1 -0
    outer loop
      vertex 38.1 -7.8 -12
      vertex -18.1 -7.8 -2.6
      vertex 38.1 -7.8 -2.6
    endloop
  endfacet
  facet normal 0 1 0
    outer loop
      vertex -18.1 -7.8 -2.6
      vertex 38.1 -7.8 -12
      vertex -18.1 -7.8 -12
    endloop
  endfacet
  facet normal 0 -1 0
    outer loop
      vertex -18.1 7.8 -12
      vertex 38.1 7.8 -2.6
      vertex -18.1 7.8 -2.6
    endloop
  endfacet
  facet normal 0 -1 -0
    outer loop
      vertex 38.1 7.8 -2.6
      vertex -18.1 7.8 -12
      vertex 38.1 7.8 -12
    endloop
  endfacet
  facet normal 0.587816 -0.808995 0
    outer loop
      vertex 40.9088 -12.8815 -12
      vertex 41.9227 -12.1448 0
      vertex 40.9088 -12.8815 0
    endloop
  endfacet
  facet normal 0.587816 -0.808995 0
    outer loop
      vertex 41.9227 -12.1448 0
      vertex 40.9088 -12.8815 -12
      vertex 41.9227 -12.1448 -12
    endloop
  endfacet
  facet normal -0.368142 0.92977 0
    outer loop
      vertex -39.7435 13.3429 -12
      vertex -40.9088 12.8815 0
      vertex -39.7435 13.3429 0
    endloop
  endfacet
  facet normal -0.368142 0.92977 0
    outer loop
      vertex -40.9088 12.8815 0
      vertex -39.7435 13.3429 -12
      vertex -40.9088 12.8815 -12
    endloop
  endfacet
  facet normal 0.368142 -0.92977 0
    outer loop
      vertex 39.7435 -13.3429 -12
      vertex 40.9088 -12.8815 0
      vertex 39.7435 -13.3429 0
    endloop
  endfacet
  facet normal 0.368142 -0.92977 0
    outer loop
      vertex 40.9088 -12.8815 0
      vertex 39.7435 -13.3429 -12
      vertex 40.9088 -12.8815 -12
    endloop
  endfacet
  facet normal 0.425832 0.904802 -0
    outer loop
      vertex 41.1791 12.7216 -12
      vertex 40.0451 13.2553 0
      vertex 41.1791 12.7216 0
    endloop
  endfacet
  facet normal 0.425832 0.904802 0
    outer loop
      vertex 40.0451 13.2553 0
      vertex 41.1791 12.7216 -12
      vertex 40.0451 13.2553 -12
    endloop
  endfacet
  facet normal -0.156422 -0.98769 0
    outer loop
      vertex -40.0451 -13.2553 -12
      vertex -38.5 -13.5 0
      vertex -40.0451 -13.2553 0
    endloop
  endfacet
  facet normal -0.156422 -0.98769 -0
    outer loop
      vertex -38.5 -13.5 0
      vertex -40.0451 -13.2553 -12
      vertex -38.5 -13.5 -12
    endloop
  endfacet
  facet normal -1 0 0
    outer loop
      vertex -43.5 -8.5 -12
      vertex -43.5 8.5 0
      vertex -43.5 8.5 -12
    endloop
  endfacet
  facet normal -1 -0 0
    outer loop
      vertex -43.5 8.5 0
      vertex -43.5 -8.5 -12
      vertex -43.5 -8.5 0
    endloop
  endfacet
  facet normal 0 0 -1
    outer loop
      vertex -18.1 -7.8 -12
      vertex -34.652 -5.9343 -12
      vertex -18.1 7.8 -12
    endloop
  endfacet
  facet normal 0 0 -1
    outer loop
      vertex -18.1 7.8 -12
      vertex -34.3521 6.69176 -12
      vertex -34.25 7.5 -12
    endloop
  endfacet
  facet normal 0 0 -1
    outer loop
      vertex -34.652 5.9343 -12
      vertex -18.1 7.8 -12
      vertex -34.652 -5.9343 -12
    endloop
  endfacet
  facet normal 0 0 -1
    outer loop
      vertex -18.1 7.8 -12
      vertex -34.652 5.9343 -12
      vertex -34.3521 6.69176 -12
    endloop
  endfacet
  facet normal 0 0 -1
    outer loop
      vertex -35.1309 -5.27522 -12
      vertex -34.652 5.9343 -12
      vertex -34.652 -5.9343 -12
    endloop
  endfacet
  facet normal 0 0 -1
    outer loop
      vertex -35.1309 -5.27522 -12
      vertex -35.1309 5.27522 -12
      vertex -34.652 5.9343 -12
    endloop
  endfacet
  facet normal 0 0 -1
    outer loop
      vertex -35.7586 -4.75593 -12
      vertex -35.1309 5.27522 -12
      vertex -35.1309 -5.27522 -12
    endloop
  endfacet
  facet normal 0 0 -1
    outer loop
      vertex -35.7586 -4.75593 -12
      vertex -35.7586 4.75593 -12
      vertex -35.1309 5.27522 -12
    endloop
  endfacet
  facet normal 0 0 -1
    outer loop
      vertex -36.4957 -4.40907 -12
      vertex -35.7586 4.75593 -12
      vertex -35.7586 -4.75593 -12
    endloop
  endfacet
  facet normal 0 0 -1
    outer loop
      vertex -36.4957 -4.40907 -12
      vertex -36.4957 4.40907 -12
      vertex -35.7586 4.75593 -12
    endloop
  endfacet
  facet normal 0 0 -1
    outer loop
      vertex -37.2959 -4.25641 -12
      vertex -36.4957 4.40907 -12
      vertex -36.4957 -4.40907 -12
    endloop
  endfacet
  facet normal 0 0 -1
    outer loop
      vertex -37.2959 -4.25641 -12
      vertex -37.2959 4.25641 -12
      vertex -36.4957 4.40907 -12
    endloop
  endfacet
  facet normal 0 0 -1
    outer loop
      vertex -38.109 -4.30757 -12
      vertex -37.2959 4.25641 -12
      vertex -37.2959 -4.25641 -12
    endloop
  endfacet
  facet normal 0 0 -1
    outer loop
      vertex -38.109 -4.30757 -12
      vertex -38.109 4.30757 -12
      vertex -37.2959 4.25641 -12
    endloop
  endfacet
  facet normal 0 0 -1
    outer loop
      vertex -38.8838 -4.55931 -12
      vertex -38.109 4.30757 -12
      vertex -38.109 -4.30757 -12
    endloop
  endfacet
  facet normal 0 0 -1
    outer loop
      vertex -38.8838 -4.55931 -12
      vertex -38.8838 4.55931 -12
      vertex -38.109 4.30757 -12
    endloop
  endfacet
  facet normal 0 0 -1
    outer loop
      vertex -39.5716 -4.99583 -12
      vertex -38.8838 4.55931 -12
      vertex -38.8838 -4.55931 -12
    endloop
  endfacet
  facet normal 0 0 -1
    outer loop
      vertex -39.5716 -4.99583 -12
      vertex -39.5716 4.99583 -12
      vertex -38.8838 4.55931 -12
    endloop
  endfacet
  facet normal 0 0 -1
    outer loop
      vertex -40.1293 -5.5897 -12
      vertex -39.5716 4.99583 -12
      vertex -39.5716 -4.99583 -12
    endloop
  endfacet
  facet normal 0 0 -1
    outer loop
      vertex -40.1293 -5.5897 -12
      vertex -40.1293 5.5897 -12
      vertex -39.5716 4.99583 -12
    endloop
  endfacet
  facet normal 0 0 -1
    outer loop
      vertex -43.5 -8.5 -12
      vertex -40.1293 -5.5897 -12
      vertex -40.5218 -6.30359 -12
    endloop
  endfacet
  facet normal -0 0 -1
    outer loop
      vertex -40.1293 -5.5897 -12
      vertex -43.5 -8.5 -12
      vertex -40.1293 5.5897 -12
    endloop
  endfacet
  facet normal 0 0 -1
    outer loop
      vertex -43.5 -8.5 -12
      vertex -40.5218 -6.30359 -12
      vertex -40.7244 -7.09267 -12
    endloop
  endfacet
  facet normal 0 0 -1
    outer loop
      vertex -43.5 8.5 -12
      vertex -40.1293 5.5897 -12
      vertex -43.5 -8.5 -12
    endloop
  endfacet
  facet normal 0 0 -1
    outer loop
      vertex 38.1 7.8 -12
      vertex 43.5 8.5 -12
      vertex 43.5 -8.5 -12
    endloop
  endfacet
  facet normal 0 0 -1
    outer loop
      vertex 38.1 -7.8 -12
      vertex 43.5 -8.5 -12
      vertex 43.2553 -10.0451 -12
    endloop
  endfacet
  facet normal 0 0 -1
    outer loop
      vertex 38.1 7.8 -12
      vertex 43.5 -8.5 -12
      vertex 38.1 -7.8 -12
    endloop
  endfacet
  facet normal 0 0 -1
    outer loop
      vertex 38.1 -7.8 -12
      vertex 43.2553 -10.0451 -12
      vertex 42.7216 -11.1791 -12
    endloop
  endfacet
  facet normal -0 0 -1
    outer loop
      vertex 43.5 8.5 -12
      vertex 38.1 7.8 -12
      vertex 43.3429 9.74345 -12
    endloop
  endfacet
  facet normal 0 0 -1
    outer loop
      vertex 38.1 -7.8 -12
      vertex 42.7216 -11.1791 -12
      vertex 41.9227 -12.1448 -12
    endloop
  endfacet
  facet normal -0 0 -1
    outer loop
      vertex 43.3429 9.74345 -12
      vertex 38.1 7.8 -12
      vertex 42.8815 10.9088 -12
    endloop
  endfacet
  facet normal 0 0 -1
    outer loop
      vertex 38.1 -7.8 -12
      vertex 41.9227 -12.1448 -12
      vertex 40.9088 -12.8815 -12
    endloop
  endfacet
  facet normal -0 0 -1
    outer loop
      vertex 42.8815 10.9088 -12
      vertex 38.1 7.8 -12
      vertex 42.1448 11.9227 -12
    endloop
  endfacet
  facet normal 0 0 -1
    outer loop
      vertex 38.1 -7.8 -12
      vertex 40.9088 -12.8815 -12
      vertex 39.7435 -13.3429 -12
    endloop
  endfacet
  facet normal 0 0 -1
    outer loop
      vertex 38.1 -7.8 -12
      vertex 39.7435 -13.3429 -12
      vertex 38.5 -13.5 -12
    endloop
  endfacet
  facet normal -0 0 -1
    outer loop
      vertex 42.1448 11.9227 -12
      vertex 38.1 7.8 -12
      vertex 41.1791 12.7216 -12
    endloop
  endfacet
  facet normal -0 0 -1
    outer loop
      vertex 41.1791 12.7216 -12
      vertex 38.1 7.8 -12
      vertex 40.0451 13.2553 -12
    endloop
  endfacet
  facet normal 0 0 -1
    outer loop
      vertex 38.5 -13.5 -12
      vertex -18.1 -7.8 -12
      vertex 38.1 -7.8 -12
    endloop
  endfacet
  facet normal 0 0 -1
    outer loop
      vertex -34.3521 -6.69176 -12
      vertex -18.1 -7.8 -12
      vertex -34.25 -7.5 -12
    endloop
  endfacet
  facet normal 0 0 -1
    outer loop
      vertex -38.5 -13.5 -12
      vertex -18.1 -7.8 -12
      vertex 38.5 -13.5 -12
    endloop
  endfacet
  facet normal -0 0 -1
    outer loop
      vertex -18.1 -7.8 -12
      vertex -34.3521 -8.30824 -12
      vertex -34.25 -7.5 -12
    endloop
  endfacet
  facet normal 0 0 -1
    outer loop
      vertex -18.1 -7.8 -12
      vertex -34.652 -9.0657 -12
      vertex -34.3521 -8.30824 -12
    endloop
  endfacet
  facet normal 0 0 -1
    outer loop
      vertex -18.1 -7.8 -12
      vertex -35.1309 -9.72478 -12
      vertex -34.652 -9.0657 -12
    endloop
  endfacet
  facet normal 0 0 -1
    outer loop
      vertex -18.1 -7.8 -12
      vertex -38.5 -13.5 -12
      vertex -35.1309 -9.72478 -12
    endloop
  endfacet
  facet normal 0 0 -1
    outer loop
      vertex -35.1309 -9.72478 -12
      vertex -38.5 -13.5 -12
      vertex -35.7586 -10.2441 -12
    endloop
  endfacet
  facet normal 0 0 -1
    outer loop
      vertex -35.7586 -10.2441 -12
      vertex -38.5 -13.5 -12
      vertex -36.4957 -10.5909 -12
    endloop
  endfacet
  facet normal 0 0 -1
    outer loop
      vertex -36.4957 -10.5909 -12
      vertex -38.5 -13.5 -12
      vertex -37.2959 -10.7436 -12
    endloop
  endfacet
  facet normal 0 0 -1
    outer loop
      vertex -38.5 -13.5 -12
      vertex -38.109 -10.6924 -12
      vertex -37.2959 -10.7436 -12
    endloop
  endfacet
  facet normal 0 0 -1
    outer loop
      vertex -38.5 -13.5 -12
      vertex -38.8838 -10.4407 -12
      vertex -38.109 -10.6924 -12
    endloop
  endfacet
  facet normal 0 0 -1
    outer loop
      vertex -40.0451 -13.2553 -12
      vertex -38.8838 -10.4407 -12
      vertex -38.5 -13.5 -12
    endloop
  endfacet
  facet normal 0 0 -1
    outer loop
      vertex -41.1791 -12.7216 -12
      vertex -38.8838 -10.4407 -12
      vertex -40.0451 -13.2553 -12
    endloop
  endfacet
  facet normal -0 0 -1
    outer loop
      vertex -38.8838 -10.4407 -12
      vertex -41.1791 -12.7216 -12
      vertex -39.5716 -10.0042 -12
    endloop
  endfacet
  facet normal 0 0 -1
    outer loop
      vertex -42.1448 -11.9227 -12
      vertex -39.5716 -10.0042 -12
      vertex -41.1791 -12.7216 -12
    endloop
  endfacet
  facet normal -0 0 -1
    outer loop
      vertex -39.5716 -10.0042 -12
      vertex -42.1448 -11.9227 -12
      vertex -40.1293 -9.4103 -12
    endloop
  endfacet
  facet normal 0 0 -1
    outer loop
      vertex -43.5 -8.5 -12
      vertex -40.7244 -7.09267 -12
      vertex -40.7244 -7.90733 -12
    endloop
  endfacet
  facet normal 0 0 -1
    outer loop
      vertex -40.1293 5.5897 -12
      vertex -43.5 8.5 -12
      vertex -40.5218 6.30359 -12
    endloop
  endfacet
  facet normal 0 0 -1
    outer loop
      vertex -40.7244 7.09267 -12
      vertex -43.5 8.5 -12
      vertex -40.7244 7.90733 -12
    endloop
  endfacet
  facet normal 0 0 -1
    outer loop
      vertex -42.8815 -10.9088 -12
      vertex -40.1293 -9.4103 -12
      vertex -42.1448 -11.9227 -12
    endloop
  endfacet
  facet normal -0 0 -1
    outer loop
      vertex -40.1293 -9.4103 -12
      vertex -42.8815 -10.9088 -12
      vertex -40.5218 -8.6964 -12
    endloop
  endfacet
  facet normal 0 0 -1
    outer loop
      vertex -40.5218 6.30359 -12
      vertex -43.5 8.5 -12
      vertex -40.7244 7.09267 -12
    endloop
  endfacet
  facet normal 0 0 -1
    outer loop
      vertex -43.3429 -9.74345 -12
      vertex -40.5218 -8.6964 -12
      vertex -42.8815 -10.9088 -12
    endloop
  endfacet
  facet normal 0 -0 -1
    outer loop
      vertex -43.2553 10.0451 -12
      vertex -40.7244 7.90733 -12
      vertex -43.5 8.5 -12
    endloop
  endfacet
  facet normal 0 0 -1
    outer loop
      vertex -43.5 -8.5 -12
      vertex -40.5218 -8.6964 -12
      vertex -43.3429 -9.74345 -12
    endloop
  endfacet
  facet normal 0 0 -1
    outer loop
      vertex -40.7244 7.90733 -12
      vertex -41.9227 12.1448 -12
      vertex -40.9088 12.8815 -12
    endloop
  endfacet
  facet normal 0 0 -1
    outer loop
      vertex -40.5218 -8.6964 -12
      vertex -43.5 -8.5 -12
      vertex -40.7244 -7.90733 -12
    endloop
  endfacet
  facet normal 0 0 -1
    outer loop
      vertex -40.7244 7.90733 -12
      vertex -42.7216 11.1791 -12
      vertex -41.9227 12.1448 -12
    endloop
  endfacet
  facet normal 0 0 -1
    outer loop
      vertex -40.7244 7.90733 -12
      vertex -43.2553 10.0451 -12
      vertex -42.7216 11.1791 -12
    endloop
  endfacet
  facet normal -0 0 -1
    outer loop
      vertex 40.0451 13.2553 -12
      vertex 38.1 7.8 -12
      vertex 38.5 13.5 -12
    endloop
  endfacet
  facet normal 0 0 -1
    outer loop
      vertex -18.1 7.8 -12
      vertex 38.5 13.5 -12
      vertex 38.1 7.8 -12
    endloop
  endfacet
  facet normal 0 0 -1
    outer loop
      vertex -34.652 -5.9343 -12
      vertex -18.1 -7.8 -12
      vertex -34.3521 -6.69176 -12
    endloop
  endfacet
  facet normal 0 0 -1
    outer loop
      vertex -34.3521 8.30824 -12
      vertex -18.1 7.8 -12
      vertex -34.25 7.5 -12
    endloop
  endfacet
  facet normal 0 0 -1
    outer loop
      vertex -34.652 9.0657 -12
      vertex -18.1 7.8 -12
      vertex -34.3521 8.30824 -12
    endloop
  endfacet
  facet normal 0 0 -1
    outer loop
      vertex -35.1309 9.72478 -12
      vertex -18.1 7.8 -12
      vertex -34.652 9.0657 -12
    endloop
  endfacet
  facet normal 0 0 -1
    outer loop
      vertex -38.5 13.5 -12
      vertex -18.1 7.8 -12
      vertex -35.1309 9.72478 -12
    endloop
  endfacet
  facet normal 0 0 -1
    outer loop
      vertex -38.5 13.5 -12
      vertex -35.1309 9.72478 -12
      vertex -35.7586 10.2441 -12
    endloop
  endfacet
  facet normal 0 0 -1
    outer loop
      vertex -38.5 13.5 -12
      vertex -35.7586 10.2441 -12
      vertex -36.4957 10.5909 -12
    endloop
  endfacet
  facet normal 0 0 -1
    outer loop
      vertex -38.5 13.5 -12
      vertex -36.4957 10.5909 -12
      vertex -37.2959 10.7436 -12
    endloop
  endfacet
  facet normal 0 0 -1
    outer loop
      vertex -18.1 7.8 -12
      vertex -38.5 13.5 -12
      vertex 38.5 13.5 -12
    endloop
  endfacet
  facet normal 0 0 -1
    outer loop
      vertex -38.109 10.6924 -12
      vertex -38.5 13.5 -12
      vertex -37.2959 10.7436 -12
    endloop
  endfacet
  facet normal 0 0 -1
    outer loop
      vertex -39.7435 13.3429 -12
      vertex -38.109 10.6924 -12
      vertex -38.8838 10.4407 -12
    endloop
  endfacet
  facet normal 0 0 -1
    outer loop
      vertex -40.9088 12.8815 -12
      vertex -38.8838 10.4407 -12
      vertex -39.5716 10.0042 -12
    endloop
  endfacet
  facet normal 0 0 -1
    outer loop
      vertex -38.109 10.6924 -12
      vertex -39.7435 13.3429 -12
      vertex -38.5 13.5 -12
    endloop
  endfacet
  facet normal 0 0 -1
    outer loop
      vertex -40.9088 12.8815 -12
      vertex -39.5716 10.0042 -12
      vertex -40.1293 9.4103 -12
    endloop
  endfacet
  facet normal 0 0 -1
    outer loop
      vertex -40.9088 12.8815 -12
      vertex -40.1293 9.4103 -12
      vertex -40.5218 8.6964 -12
    endloop
  endfacet
  facet normal 0 0 -1
    outer loop
      vertex -40.9088 12.8815 -12
      vertex -40.5218 8.6964 -12
      vertex -40.7244 7.90733 -12
    endloop
  endfacet
  facet normal 0 0 -1
    outer loop
      vertex -38.8838 10.4407 -12
      vertex -40.9088 12.8815 -12
      vertex -39.7435 13.3429 -12
    endloop
  endfacet
  facet normal 0 -1 0
    outer loop
      vertex -38.5 -13.5 -12
      vertex 38.5 -13.5 0
      vertex -38.5 -13.5 0
    endloop
  endfacet
  facet normal 0 -1 -0
    outer loop
      vertex 38.5 -13.5 0
      vertex -38.5 -13.5 -12
      vertex 38.5 -13.5 -12
    endloop
  endfacet
  facet normal 0 1 -0
    outer loop
      vertex 38.5 13.5 -12
      vertex -38.5 13.5 0
      vertex 38.5 13.5 0
    endloop
  endfacet
  facet normal 0 1 0
    outer loop
      vertex -38.5 13.5 0
      vertex 38.5 13.5 -12
      vertex -38.5 13.5 -12
    endloop
  endfacet
  facet normal 0.156422 0.98769 -0
    outer loop
      vertex 40.0451 13.2553 -12
      vertex 38.5 13.5 0
      vertex 40.0451 13.2553 0
    endloop
  endfacet
  facet normal 0.156422 0.98769 0
    outer loop
      vertex 38.5 13.5 0
      vertex 40.0451 13.2553 -12
      vertex 38.5 13.5 -12
    endloop
  endfacet
  facet normal -0.125341 0.992114 0
    outer loop
      vertex -38.5 13.5 -12
      vertex -39.7435 13.3429 0
      vertex -38.5 13.5 0
    endloop
  endfacet
  facet normal -0.125341 0.992114 0
    outer loop
      vertex -39.7435 13.3429 0
      vertex -38.5 13.5 -12
      vertex -39.7435 13.3429 -12
    endloop
  endfacet
  facet normal -0.98769 0.156422 0
    outer loop
      vertex -43.5 8.5 -12
      vertex -43.2553 10.0451 0
      vertex -43.2553 10.0451 -12
    endloop
  endfacet
  facet normal -0.98769 0.156422 0
    outer loop
      vertex -43.2553 10.0451 0
      vertex -43.5 8.5 -12
      vertex -43.5 8.5 0
    endloop
  endfacet
  facet normal -0.992113 -0.125346 0
    outer loop
      vertex -43.3429 -9.74345 -12
      vertex -43.5 -8.5 0
      vertex -43.5 -8.5 -12
    endloop
  endfacet
  facet normal -0.992113 -0.125346 0
    outer loop
      vertex -43.5 -8.5 0
      vertex -43.3429 -9.74345 -12
      vertex -43.3429 -9.74345 0
    endloop
  endfacet
  facet normal 0.125341 -0.992114 0
    outer loop
      vertex 38.5 -13.5 -12
      vertex 39.7435 -13.3429 0
      vertex 38.5 -13.5 0
    endloop
  endfacet
  facet normal 0.125341 -0.992114 0
    outer loop
      vertex 39.7435 -13.3429 0
      vertex 38.5 -13.5 -12
      vertex 39.7435 -13.3429 -12
    endloop
  endfacet
  facet normal 0.929775 0.368128 0
    outer loop
      vertex 43.3429 9.74345 0
      vertex 42.8815 10.9088 -12
      vertex 42.8815 10.9088 0
    endloop
  endfacet
  facet normal 0.929775 0.368128 0
    outer loop
      vertex 42.8815 10.9088 -12
      vertex 43.3429 9.74345 0
      vertex 43.3429 9.74345 -12
    endloop
  endfacet
  facet normal 0.992113 0.125346 0
    outer loop
      vertex 43.5 8.5 0
      vertex 43.3429 9.74345 -12
      vertex 43.3429 9.74345 0
    endloop
  endfacet
  facet normal 0.992113 0.125346 0
    outer loop
      vertex 43.3429 9.74345 -12
      vertex 43.5 8.5 0
      vertex 43.5 8.5 -12
    endloop
  endfacet
  facet normal 1 -0 0
    outer loop
      vertex 43.5 -8.5 0
      vertex 43.5 8.5 -12
      vertex 43.5 8.5 0
    endloop
  endfacet
  facet normal 1 0 0
    outer loop
      vertex 43.5 8.5 -12
      vertex 43.5 -8.5 0
      vertex 43.5 -8.5 -12
    endloop
  endfacet
  facet normal -0.770512 0.637426 0
    outer loop
      vertex -42.7216 11.1791 -12
      vertex -41.9227 12.1448 0
      vertex -41.9227 12.1448 -12
    endloop
  endfacet
  facet normal -0.770512 0.637426 0
    outer loop
      vertex -41.9227 12.1448 0
      vertex -42.7216 11.1791 -12
      vertex -42.7216 11.1791 0
    endloop
  endfacet
  facet normal -0.587816 0.808995 0
    outer loop
      vertex -40.9088 12.8815 -12
      vertex -41.9227 12.1448 0
      vertex -40.9088 12.8815 0
    endloop
  endfacet
  facet normal -0.587816 0.808995 0
    outer loop
      vertex -41.9227 12.1448 0
      vertex -40.9088 12.8815 -12
      vertex -41.9227 12.1448 -12
    endloop
  endfacet
  facet normal -0.904802 0.425832 0
    outer loop
      vertex -43.2553 10.0451 -12
      vertex -42.7216 11.1791 0
      vertex -42.7216 11.1791 -12
    endloop
  endfacet
  facet normal -0.904802 0.425832 0
    outer loop
      vertex -42.7216 11.1791 0
      vertex -43.2553 10.0451 -12
      vertex -43.2553 10.0451 0
    endloop
  endfacet
  facet normal -0.808995 -0.587816 0
    outer loop
      vertex -42.1448 -11.9227 -12
      vertex -42.8815 -10.9088 0
      vertex -42.8815 -10.9088 -12
    endloop
  endfacet
  facet normal -0.808995 -0.587816 0
    outer loop
      vertex -42.8815 -10.9088 0
      vertex -42.1448 -11.9227 -12
      vertex -42.1448 -11.9227 0
    endloop
  endfacet
  facet normal -0.425832 -0.904802 0
    outer loop
      vertex -41.1791 -12.7216 -12
      vertex -40.0451 -13.2553 0
      vertex -41.1791 -12.7216 0
    endloop
  endfacet
  facet normal -0.425832 -0.904802 -0
    outer loop
      vertex -40.0451 -13.2553 0
      vertex -41.1791 -12.7216 -12
      vertex -40.0451 -13.2553 -12
    endloop
  endfacet
  facet normal -0.929775 -0.368128 0
    outer loop
      vertex -42.8815 -10.9088 -12
      vertex -43.3429 -9.74345 0
      vertex -43.3429 -9.74345 -12
    endloop
  endfacet
  facet normal -0.929775 -0.368128 0
    outer loop
      vertex -43.3429 -9.74345 0
      vertex -42.8815 -10.9088 -12
      vertex -42.8815 -10.9088 0
    endloop
  endfacet
  facet normal 0.808995 0.587816 0
    outer loop
      vertex 42.8815 10.9088 0
      vertex 42.1448 11.9227 -12
      vertex 42.1448 11.9227 0
    endloop
  endfacet
  facet normal 0.808995 0.587816 0
    outer loop
      vertex 42.1448 11.9227 -12
      vertex 42.8815 10.9088 0
      vertex 42.8815 10.9088 -12
    endloop
  endfacet
  facet normal 0.637426 0.770512 -0
    outer loop
      vertex 42.1448 11.9227 -12
      vertex 41.1791 12.7216 0
      vertex 42.1448 11.9227 0
    endloop
  endfacet
  facet normal 0.637426 0.770512 0
    outer loop
      vertex 41.1791 12.7216 0
      vertex 42.1448 11.9227 -12
      vertex 41.1791 12.7216 -12
    endloop
  endfacet
  facet normal 0.98769 -0.156422 0
    outer loop
      vertex 43.2553 -10.0451 0
      vertex 43.5 -8.5 -12
      vertex 43.5 -8.5 0
    endloop
  endfacet
  facet normal 0.98769 -0.156422 0
    outer loop
      vertex 43.5 -8.5 -12
      vertex 43.2553 -10.0451 0
      vertex 43.2553 -10.0451 -12
    endloop
  endfacet
  facet normal 0.770512 -0.637426 0
    outer loop
      vertex 41.9227 -12.1448 0
      vertex 42.7216 -11.1791 -12
      vertex 42.7216 -11.1791 0
    endloop
  endfacet
  facet normal 0.770512 -0.637426 0
    outer loop
      vertex 42.7216 -11.1791 -12
      vertex 41.9227 -12.1448 0
      vertex 41.9227 -12.1448 -12
    endloop
  endfacet
  facet normal -0.637426 -0.770512 0
    outer loop
      vertex -42.1448 -11.9227 -12
      vertex -41.1791 -12.7216 0
      vertex -42.1448 -11.9227 0
    endloop
  endfacet
  facet normal -0.637426 -0.770512 -0
    outer loop
      vertex -41.1791 -12.7216 0
      vertex -42.1448 -11.9227 -12
      vertex -41.1791 -12.7216 -12
    endloop
  endfacet
  facet normal 0.904802 -0.425832 0
    outer loop
      vertex 42.7216 -11.1791 0
      vertex 43.2553 -10.0451 -12
      vertex 43.2553 -10.0451 0
    endloop
  endfacet
  facet normal 0.904802 -0.425832 0
    outer loop
      vertex 43.2553 -10.0451 -12
      vertex 42.7216 -11.1791 0
      vertex 42.7216 -11.1791 -12
    endloop
  endfacet
  facet normal -0.929776 0.368125 0
    outer loop
      vertex -34.652 -9.0657 -12
      vertex -34.3521 -8.30824 0
      vertex -34.3521 -8.30824 -12
    endloop
  endfacet
  facet normal -0.929776 0.368125 0
    outer loop
      vertex -34.3521 -8.30824 0
      vertex -34.652 -9.0657 -12
      vertex -34.652 -9.0657 0
    endloop
  endfacet
  facet normal -0.992115 0.125328 0
    outer loop
      vertex -34.3521 -8.30824 -12
      vertex -34.25 -7.5 0
      vertex -34.25 -7.5 -12
    endloop
  endfacet
  facet normal -0.992115 0.125328 0
    outer loop
      vertex -34.25 -7.5 0
      vertex -34.3521 -8.30824 -12
      vertex -34.3521 -8.30824 0
    endloop
  endfacet
  facet normal -0.992115 -0.125328 0
    outer loop
      vertex -34.25 -7.5 -12
      vertex -34.3521 -6.69176 0
      vertex -34.3521 -6.69176 -12
    endloop
  endfacet
  facet normal -0.992115 -0.125328 0
    outer loop
      vertex -34.3521 -6.69176 0
      vertex -34.25 -7.5 -12
      vertex -34.25 -7.5 0
    endloop
  endfacet
  facet normal 1 -0 0
    outer loop
      vertex -40.7244 -7.90733 0
      vertex -40.7244 -7.09267 -12
      vertex -40.7244 -7.09267 0
    endloop
  endfacet
  facet normal 1 0 0
    outer loop
      vertex -40.7244 -7.09267 -12
      vertex -40.7244 -7.90733 0
      vertex -40.7244 -7.90733 -12
    endloop
  endfacet
  facet normal 0.0627955 -0.998026 0
    outer loop
      vertex -38.109 -4.30757 -12
      vertex -37.2959 -4.25641 0
      vertex -38.109 -4.30757 0
    endloop
  endfacet
  facet normal 0.0627955 -0.998026 0
    outer loop
      vertex -37.2959 -4.25641 0
      vertex -38.109 -4.30757 -12
      vertex -37.2959 -4.25641 -12
    endloop
  endfacet
  facet normal -0.637454 0.770488 0
    outer loop
      vertex -35.1309 -9.72478 -12
      vertex -35.7586 -10.2441 0
      vertex -35.1309 -9.72478 0
    endloop
  endfacet
  facet normal -0.637454 0.770488 0
    outer loop
      vertex -35.7586 -10.2441 0
      vertex -35.1309 -9.72478 -12
      vertex -35.7586 -10.2441 -12
    endloop
  endfacet
  facet normal -0.808988 0.587826 0
    outer loop
      vertex -35.1309 -9.72478 -12
      vertex -34.652 -9.0657 0
      vertex -34.652 -9.0657 -12
    endloop
  endfacet
  facet normal -0.808988 0.587826 0
    outer loop
      vertex -34.652 -9.0657 0
      vertex -35.1309 -9.72478 -12
      vertex -35.1309 -9.72478 0
    endloop
  endfacet
  facet normal 0.535835 0.844323 -0
    outer loop
      vertex -38.8838 -10.4407 -12
      vertex -39.5716 -10.0042 0
      vertex -38.8838 -10.4407 0
    endloop
  endfacet
  facet normal 0.535835 0.844323 0
    outer loop
      vertex -39.5716 -10.0042 0
      vertex -38.8838 -10.4407 -12
      vertex -39.5716 -10.0042 -12
    endloop
  endfacet
  facet normal 0.0628444 0.998023 -0
    outer loop
      vertex -37.2959 -10.7436 -12
      vertex -38.109 -10.6924 0
      vertex -37.2959 -10.7436 0
    endloop
  endfacet
  facet normal 0.0628444 0.998023 0
    outer loop
      vertex -38.109 -10.6924 0
      vertex -37.2959 -10.7436 -12
      vertex -38.109 -10.6924 -12
    endloop
  endfacet
  facet normal 0.968584 -0.248688 0
    outer loop
      vertex -40.7244 -7.09267 0
      vertex -40.5218 -6.30359 -12
      vertex -40.5218 -6.30359 0
    endloop
  endfacet
  facet normal 0.968584 -0.248688 0
    outer loop
      vertex -40.5218 -6.30359 -12
      vertex -40.7244 -7.09267 0
      vertex -40.7244 -7.09267 -12
    endloop
  endfacet
  facet normal -0.808988 -0.587826 0
    outer loop
      vertex -34.652 -5.9343 -12
      vertex -35.1309 -5.27522 0
      vertex -35.1309 -5.27522 -12
    endloop
  endfacet
  facet normal -0.808988 -0.587826 0
    outer loop
      vertex -35.1309 -5.27522 0
      vertex -34.652 -5.9343 -12
      vertex -34.652 -5.9343 0
    endloop
  endfacet
  facet normal 0.728957 -0.684559 0
    outer loop
      vertex -40.1293 -5.5897 0
      vertex -39.5716 -4.99583 -12
      vertex -39.5716 -4.99583 0
    endloop
  endfacet
  facet normal 0.728957 -0.684559 0
    outer loop
      vertex -39.5716 -4.99583 -12
      vertex -40.1293 -5.5897 0
      vertex -40.1293 -5.5897 -12
    endloop
  endfacet
  facet normal 0.876288 -0.481787 0
    outer loop
      vertex -40.5218 -6.30359 0
      vertex -40.1293 -5.5897 -12
      vertex -40.1293 -5.5897 0
    endloop
  endfacet
  facet normal 0.876288 -0.481787 0
    outer loop
      vertex -40.1293 -5.5897 -12
      vertex -40.5218 -6.30359 0
      vertex -40.5218 -6.30359 -12
    endloop
  endfacet
  facet normal 0.728974 0.684541 0
    outer loop
      vertex -39.5716 -10.0042 0
      vertex -40.1293 -9.4103 -12
      vertex -40.1293 -9.4103 0
    endloop
  endfacet
  facet normal 0.728974 0.684541 0
    outer loop
      vertex -40.1293 -9.4103 -12
      vertex -39.5716 -10.0042 0
      vertex -39.5716 -10.0042 -12
    endloop
  endfacet
  facet normal 0.876291 0.481782 0
    outer loop
      vertex -40.1293 -9.4103 0
      vertex -40.5218 -8.6964 -12
      vertex -40.5218 -8.6964 0
    endloop
  endfacet
  facet normal 0.876291 0.481782 0
    outer loop
      vertex -40.5218 -8.6964 -12
      vertex -40.1293 -9.4103 0
      vertex -40.1293 -9.4103 -12
    endloop
  endfacet
  facet normal 0.968583 0.248691 0
    outer loop
      vertex -40.5218 -8.6964 0
      vertex -40.7244 -7.90733 -12
      vertex -40.7244 -7.90733 0
    endloop
  endfacet
  facet normal 0.968583 0.248691 0
    outer loop
      vertex -40.7244 -7.90733 -12
      vertex -40.5218 -8.6964 0
      vertex -40.5218 -8.6964 -12
    endloop
  endfacet
  facet normal 0.308964 0.951074 -0
    outer loop
      vertex -38.109 -10.6924 -12
      vertex -38.8838 -10.4407 0
      vertex -38.109 -10.6924 0
    endloop
  endfacet
  facet normal 0.308964 0.951074 0
    outer loop
      vertex -38.8838 -10.4407 0
      vertex -38.109 -10.6924 -12
      vertex -38.8838 -10.4407 -12
    endloop
  endfacet
  facet normal -0.187445 0.982275 0
    outer loop
      vertex -36.4957 -10.5909 -12
      vertex -37.2959 -10.7436 0
      vertex -36.4957 -10.5909 0
    endloop
  endfacet
  facet normal -0.187445 0.982275 0
    outer loop
      vertex -37.2959 -10.7436 0
      vertex -36.4957 -10.5909 -12
      vertex -37.2959 -10.7436 -12
    endloop
  endfacet
  facet normal -0.187398 -0.982284 0
    outer loop
      vertex -37.2959 -4.25641 -12
      vertex -36.4957 -4.40907 0
      vertex -37.2959 -4.25641 0
    endloop
  endfacet
  facet normal -0.187398 -0.982284 -0
    outer loop
      vertex -36.4957 -4.40907 0
      vertex -37.2959 -4.25641 -12
      vertex -36.4957 -4.40907 -12
    endloop
  endfacet
  facet normal -0.637432 -0.770506 0
    outer loop
      vertex -35.7586 -4.75593 -12
      vertex -35.1309 -5.27522 0
      vertex -35.7586 -4.75593 0
    endloop
  endfacet
  facet normal -0.637432 -0.770506 -0
    outer loop
      vertex -35.1309 -5.27522 0
      vertex -35.7586 -4.75593 -12
      vertex -35.1309 -5.27522 -12
    endloop
  endfacet
  facet normal -0.425786 -0.904824 0
    outer loop
      vertex -36.4957 -4.40907 -12
      vertex -35.7586 -4.75593 0
      vertex -36.4957 -4.40907 0
    endloop
  endfacet
  facet normal -0.425786 -0.904824 -0
    outer loop
      vertex -35.7586 -4.75593 0
      vertex -36.4957 -4.40907 -12
      vertex -35.7586 -4.75593 -12
    endloop
  endfacet
  facet normal -0.425726 0.904852 0
    outer loop
      vertex -35.7586 -10.2441 -12
      vertex -36.4957 -10.5909 0
      vertex -35.7586 -10.2441 0
    endloop
  endfacet
  facet normal -0.425726 0.904852 0
    outer loop
      vertex -36.4957 -10.5909 0
      vertex -35.7586 -10.2441 -12
      vertex -36.4957 -10.5909 -12
    endloop
  endfacet
  facet normal -0.929776 -0.368125 0
    outer loop
      vertex -34.3521 -6.69176 -12
      vertex -34.652 -5.9343 0
      vertex -34.652 -5.9343 -12
    endloop
  endfacet
  facet normal -0.929776 -0.368125 0
    outer loop
      vertex -34.652 -5.9343 0
      vertex -34.3521 -6.69176 -12
      vertex -34.3521 -6.69176 0
    endloop
  endfacet
  facet normal 0.535852 -0.844312 0
    outer loop
      vertex -39.5716 -4.99583 -12
      vertex -38.8838 -4.55931 0
      vertex -39.5716 -4.99583 0
    endloop
  endfacet
  facet normal 0.535852 -0.844312 0
    outer loop
      vertex -38.8838 -4.55931 0
      vertex -39.5716 -4.99583 -12
      vertex -38.8838 -4.55931 -12
    endloop
  endfacet
  facet normal 0.309008 -0.951059 0
    outer loop
      vertex -38.8838 -4.55931 -12
      vertex -38.109 -4.30757 0
      vertex -38.8838 -4.55931 0
    endloop
  endfacet
  facet normal 0.309008 -0.951059 0
    outer loop
      vertex -38.109 -4.30757 0
      vertex -38.8838 -4.55931 -12
      vertex -38.109 -4.30757 -12
    endloop
  endfacet
  facet normal -0.992115 0.125328 0
    outer loop
      vertex -34.3521 6.69176 -12
      vertex -34.25 7.5 0
      vertex -34.25 7.5 -12
    endloop
  endfacet
  facet normal -0.992115 0.125328 0
    outer loop
      vertex -34.25 7.5 0
      vertex -34.3521 6.69176 -12
      vertex -34.3521 6.69176 0
    endloop
  endfacet
  facet normal -0.992115 -0.125328 0
    outer loop
      vertex -34.25 7.5 -12
      vertex -34.3521 8.30824 0
      vertex -34.3521 8.30824 -12
    endloop
  endfacet
  facet normal -0.992115 -0.125328 0
    outer loop
      vertex -34.3521 8.30824 0
      vertex -34.25 7.5 -12
      vertex -34.25 7.5 0
    endloop
  endfacet
  facet normal 0.876288 0.481787 0
    outer loop
      vertex -40.1293 5.5897 0
      vertex -40.5218 6.30359 -12
      vertex -40.5218 6.30359 0
    endloop
  endfacet
  facet normal 0.876288 0.481787 0
    outer loop
      vertex -40.5218 6.30359 -12
      vertex -40.1293 5.5897 0
      vertex -40.1293 5.5897 -12
    endloop
  endfacet
  facet normal -0.808988 0.587826 0
    outer loop
      vertex -35.1309 5.27522 -12
      vertex -34.652 5.9343 0
      vertex -34.652 5.9343 -12
    endloop
  endfacet
  facet normal -0.808988 0.587826 0
    outer loop
      vertex -34.652 5.9343 0
      vertex -35.1309 5.27522 -12
      vertex -35.1309 5.27522 0
    endloop
  endfacet
  facet normal -0.929776 0.368125 0
    outer loop
      vertex -34.652 5.9343 -12
      vertex -34.3521 6.69176 0
      vertex -34.3521 6.69176 -12
    endloop
  endfacet
  facet normal -0.929776 0.368125 0
    outer loop
      vertex -34.3521 6.69176 0
      vertex -34.652 5.9343 -12
      vertex -34.652 5.9343 0
    endloop
  endfacet
  facet normal 0.968584 0.248688 0
    outer loop
      vertex -40.5218 6.30359 0
      vertex -40.7244 7.09267 -12
      vertex -40.7244 7.09267 0
    endloop
  endfacet
  facet normal 0.968584 0.248688 0
    outer loop
      vertex -40.7244 7.09267 -12
      vertex -40.5218 6.30359 0
      vertex -40.5218 6.30359 -12
    endloop
  endfacet
  facet normal 0.728957 0.684559 0
    outer loop
      vertex -39.5716 4.99583 0
      vertex -40.1293 5.5897 -12
      vertex -40.1293 5.5897 0
    endloop
  endfacet
  facet normal 0.728957 0.684559 0
    outer loop
      vertex -40.1293 5.5897 -12
      vertex -39.5716 4.99583 0
      vertex -39.5716 4.99583 -12
    endloop
  endfacet
  facet normal 0.309008 0.951059 -0
    outer loop
      vertex -38.109 4.30757 -12
      vertex -38.8838 4.55931 0
      vertex -38.109 4.30757 0
    endloop
  endfacet
  facet normal 0.309008 0.951059 0
    outer loop
      vertex -38.8838 4.55931 0
      vertex -38.109 4.30757 -12
      vertex -38.8838 4.55931 -12
    endloop
  endfacet
  facet normal 0.535852 0.844312 -0
    outer loop
      vertex -38.8838 4.55931 -12
      vertex -39.5716 4.99583 0
      vertex -38.8838 4.55931 0
    endloop
  endfacet
  facet normal 0.535852 0.844312 0
    outer loop
      vertex -39.5716 4.99583 0
      vertex -38.8838 4.55931 -12
      vertex -39.5716 4.99583 -12
    endloop
  endfacet
  facet normal 0.0627955 0.998026 -0
    outer loop
      vertex -37.2959 4.25641 -12
      vertex -38.109 4.30757 0
      vertex -37.2959 4.25641 0
    endloop
  endfacet
  facet normal 0.0627955 0.998026 0
    outer loop
      vertex -38.109 4.30757 0
      vertex -37.2959 4.25641 -12
      vertex -38.109 4.30757 -12
    endloop
  endfacet
  facet normal -0.187398 0.982284 0
    outer loop
      vertex -36.4957 4.40907 -12
      vertex -37.2959 4.25641 0
      vertex -36.4957 4.40907 0
    endloop
  endfacet
  facet normal -0.187398 0.982284 0
    outer loop
      vertex -37.2959 4.25641 0
      vertex -36.4957 4.40907 -12
      vertex -37.2959 4.25641 -12
    endloop
  endfacet
  facet normal -0.637432 0.770506 0
    outer loop
      vertex -35.1309 5.27522 -12
      vertex -35.7586 4.75593 0
      vertex -35.1309 5.27522 0
    endloop
  endfacet
  facet normal -0.637432 0.770506 0
    outer loop
      vertex -35.7586 4.75593 0
      vertex -35.1309 5.27522 -12
      vertex -35.7586 4.75593 -12
    endloop
  endfacet
  facet normal 1 -0 0
    outer loop
      vertex -40.7244 7.09267 0
      vertex -40.7244 7.90733 -12
      vertex -40.7244 7.90733 0
    endloop
  endfacet
  facet normal 1 0 0
    outer loop
      vertex -40.7244 7.90733 -12
      vertex -40.7244 7.09267 0
      vertex -40.7244 7.09267 -12
    endloop
  endfacet
  facet normal 0.968583 -0.248691 0
    outer loop
      vertex -40.7244 7.90733 0
      vertex -40.5218 8.6964 -12
      vertex -40.5218 8.6964 0
    endloop
  endfacet
  facet normal 0.968583 -0.248691 0
    outer loop
      vertex -40.5218 8.6964 -12
      vertex -40.7244 7.90733 0
      vertex -40.7244 7.90733 -12
    endloop
  endfacet
  facet normal 0.0628444 -0.998023 0
    outer loop
      vertex -38.109 10.6924 -12
      vertex -37.2959 10.7436 0
      vertex -38.109 10.6924 0
    endloop
  endfacet
  facet normal 0.0628444 -0.998023 0
    outer loop
      vertex -37.2959 10.7436 0
      vertex -38.109 10.6924 -12
      vertex -37.2959 10.7436 -12
    endloop
  endfacet
  facet normal -0.637454 -0.770488 0
    outer loop
      vertex -35.7586 10.2441 -12
      vertex -35.1309 9.72478 0
      vertex -35.7586 10.2441 0
    endloop
  endfacet
  facet normal -0.637454 -0.770488 -0
    outer loop
      vertex -35.1309 9.72478 0
      vertex -35.7586 10.2441 -12
      vertex -35.1309 9.72478 -12
    endloop
  endfacet
  facet normal 0.876291 -0.481782 0
    outer loop
      vertex -40.5218 8.6964 0
      vertex -40.1293 9.4103 -12
      vertex -40.1293 9.4103 0
    endloop
  endfacet
  facet normal 0.876291 -0.481782 0
    outer loop
      vertex -40.1293 9.4103 -12
      vertex -40.5218 8.6964 0
      vertex -40.5218 8.6964 -12
    endloop
  endfacet
  facet normal 0.728974 -0.684541 0
    outer loop
      vertex -40.1293 9.4103 0
      vertex -39.5716 10.0042 -12
      vertex -39.5716 10.0042 0
    endloop
  endfacet
  facet normal 0.728974 -0.684541 0
    outer loop
      vertex -39.5716 10.0042 -12
      vertex -40.1293 9.4103 0
      vertex -40.1293 9.4103 -12
    endloop
  endfacet
  facet normal -0.187445 -0.982275 0
    outer loop
      vertex -37.2959 10.7436 -12
      vertex -36.4957 10.5909 0
      vertex -37.2959 10.7436 0
    endloop
  endfacet
  facet normal -0.187445 -0.982275 -0
    outer loop
      vertex -36.4957 10.5909 0
      vertex -37.2959 10.7436 -12
      vertex -36.4957 10.5909 -12
    endloop
  endfacet
  facet normal 0.535835 -0.844323 0
    outer loop
      vertex -39.5716 10.0042 -12
      vertex -38.8838 10.4407 0
      vertex -39.5716 10.0042 0
    endloop
  endfacet
  facet normal 0.535835 -0.844323 0
    outer loop
      vertex -38.8838 10.4407 0
      vertex -39.5716 10.0042 -12
      vertex -38.8838 10.4407 -12
    endloop
  endfacet
  facet normal -0.425786 0.904824 0
    outer loop
      vertex -35.7586 4.75593 -12
      vertex -36.4957 4.40907 0
      vertex -35.7586 4.75593 0
    endloop
  endfacet
  facet normal -0.425786 0.904824 0
    outer loop
      vertex -36.4957 4.40907 0
      vertex -35.7586 4.75593 -12
      vertex -36.4957 4.40907 -12
    endloop
  endfacet
  facet normal -0.425726 -0.904852 0
    outer loop
      vertex -36.4957 10.5909 -12
      vertex -35.7586 10.2441 0
      vertex -36.4957 10.5909 0
    endloop
  endfacet
  facet normal -0.425726 -0.904852 -0
    outer loop
      vertex -35.7586 10.2441 0
      vertex -36.4957 10.5909 -12
      vertex -35.7586 10.2441 -12
    endloop
  endfacet
  facet normal -0.808988 -0.587826 0
    outer loop
      vertex -34.652 9.0657 -12
      vertex -35.1309 9.72478 0
      vertex -35.1309 9.72478 -12
    endloop
  endfacet
  facet normal -0.808988 -0.587826 0
    outer loop
      vertex -35.1309 9.72478 0
      vertex -34.652 9.0657 -12
      vertex -34.652 9.0657 0
    endloop
  endfacet
  facet normal 0.308964 -0.951074 0
    outer loop
      vertex -38.8838 10.4407 -12
      vertex -38.109 10.6924 0
      vertex -38.8838 10.4407 0
    endloop
  endfacet
  facet normal 0.308964 -0.951074 0
    outer loop
      vertex -38.109 10.6924 0
      vertex -38.8838 10.4407 -12
      vertex -38.109 10.6924 -12
    endloop
  endfacet
  facet normal -0.929776 -0.368125 0
    outer loop
      vertex -34.3521 8.30824 -12
      vertex -34.652 9.0657 0
      vertex -34.652 9.0657 -12
    endloop
  endfacet
  facet normal -0.929776 -0.368125 0
    outer loop
      vertex -34.652 9.0657 0
      vertex -34.3521 8.30824 -12
      vertex -34.3521 8.30824 0
    endloop
  endfacet
endsolid OpenSCAD_Model
