<?xml version="1.0" standalone="no"?>
<!DOCTYPE svg PUBLIC "-//W3C//DTD SVG 1.1//EN" "http://www.w3.org/Graphics/SVG/1.1/DTD/svg11.dtd">
<svg width="42mm" height="72mm" viewBox="-21 -36 42 72" xmlns="http://www.w3.org/2000/svg" version="1.1">
<title>OpenSCAD Model</title>
<path d="
M 21,-31 L 20.8429,-32.2435 L 20.3815,-33.4088 L 19.6448,-34.4227 L 18.6791,-35.2216 L 17.5451,-35.7553
 L 16,-36 L -16,-36 L -17.2435,-35.8429 L -18.4088,-35.3815 L -19.4227,-34.6448 L -20.2216,-33.6791
 L -20.7553,-32.5451 L -21,-31 L -21,31 L -20.8429,32.2435 L -20.3815,33.4088 L -19.6448,34.4227
 L -18.6791,35.2216 L -17.5451,35.7553 L -16,36 L 16,36 L 17.2435,35.8429 L 18.4088,35.3815
 L 19.4227,34.6448 L 20.2216,33.6791 L 20.7553,32.5451 L 21,31 z
M -14.7741,19 L -14.3711,18.4453 L -14.0942,17.7461 L -14,17 L -14.0942,16.2539 L -14.3711,15.5547
 L -14.8131,14.9464 L -15.3925,14.467 L -16.0729,14.1468 L -16.8116,14.0059 L -17.5621,14.0531 L -18.2773,14.2855
 L -18.9123,14.6884 L -19,14.7819 L -19,-14.7819 L -18.9123,-14.6884 L -18.2773,-14.2855 L -17.5621,-14.0531
 L -16.8116,-14.0059 L -16.0729,-14.1468 L -15.3925,-14.467 L -14.8131,-14.9464 L -14.3711,-15.5547 L -14.0942,-16.2539
 L -14,-17 L -14.0942,-17.7461 L -14.3711,-18.4453 L -14.7741,-19 L 14.7952,-19 L 14.5729,-18.7634
 L 14.2107,-18.1044 L 14.0237,-17.376 L 14.0237,-16.624 L 14.2107,-15.8956 L 14.5729,-15.2366 L 15.0877,-14.6884
 L 15.7227,-14.2855 L 16.4379,-14.0531 L 17.1884,-14.0059 L 17.927,-14.1468 L 18.6075,-14.467 L 19,-14.7917
 L 19,14.7917 L 18.6075,14.467 L 17.927,14.1468 L 17.1884,14.0059 L 16.4379,14.0531 L 15.7227,14.2855
 L 15.0877,14.6884 L 14.5729,15.2366 L 14.2107,15.8956 L 14.0237,16.624 L 14.0237,17.376 L 14.2107,18.1044
 L 14.5729,18.7634 L 14.7952,19 z
M -17.1874,-16.0177 L -17.4258,-16.0952 L -17.6374,-16.2295 L -17.809,-16.4122 L -17.9298,-16.6319 L -17.9921,-16.8747
 L -17.9921,-17.1253 L -17.9298,-17.3681 L -17.809,-17.5878 L -17.6374,-17.7705 L -17.4258,-17.9048 L -17.1874,-17.9823
 L -16.9372,-17.998 L -16.691,-17.951 L -16.4642,-17.8443 L -16.271,-17.6845 L -16.1237,-17.4818 L -16.0314,-17.2487
 L -16,-17 L -16.0314,-16.7513 L -16.1237,-16.5182 L -16.271,-16.3154 L -16.4642,-16.1557 L -16.691,-16.0489
 L -16.9372,-16.002 z
M 16.8126,-16.0177 L 16.5742,-16.0952 L 16.3626,-16.2295 L 16.191,-16.4122 L 16.0702,-16.6319 L 16.0079,-16.8747
 L 16.0079,-17.1253 L 16.0702,-17.3681 L 16.191,-17.5878 L 16.3626,-17.7705 L 16.5742,-17.9048 L 16.8126,-17.9823
 L 17.0628,-17.998 L 17.309,-17.951 L 17.5358,-17.8443 L 17.729,-17.6845 L 17.8763,-17.4818 L 17.9686,-17.2487
 L 18,-17 L 17.9686,-16.7513 L 17.8763,-16.5182 L 17.729,-16.3154 L 17.5358,-16.1557 L 17.309,-16.0489
 L 17.0628,-16.002 z
M 16.8126,17.9823 L 16.5742,17.9048 L 16.3626,17.7705 L 16.191,17.5878 L 16.0702,17.3681 L 16.0079,17.1253
 L 16.0079,16.8747 L 16.0702,16.6319 L 16.191,16.4122 L 16.3626,16.2295 L 16.5742,16.0952 L 16.8126,16.0177
 L 17.0628,16.002 L 17.309,16.0489 L 17.5358,16.1557 L 17.729,16.3154 L 17.8763,16.5182 L 17.9686,16.7513
 L 18,17 L 17.9686,17.2487 L 17.8763,17.4818 L 17.729,17.6845 L 17.5358,17.8443 L 17.309,17.951
 L 17.0628,17.998 z
M -17.1874,17.9823 L -17.4258,17.9048 L -17.6374,17.7705 L -17.809,17.5878 L -17.9298,17.3681 L -17.9921,17.1253
 L -17.9921,16.8747 L -17.9298,16.6319 L -17.809,16.4122 L -17.6374,16.2295 L -17.4258,16.0952 L -17.1874,16.0177
 L -16.9372,16.002 L -16.691,16.0489 L -16.4642,16.1557 L -16.271,16.3154 L -16.1237,16.5182 L -16.0314,16.7513
 L -16,17 L -16.0314,17.2487 L -16.1237,17.4818 L -16.271,17.6845 L -16.4642,17.8443 L -16.691,17.951
 L -16.9372,17.998 z
" stroke="black" fill="lightgray" stroke-width="0.5"/>
</svg>
