  0
SECTION
  2
BLOCKS
  0
ENDSEC
  0
SECTION
  2
ENTITIES
  0
LINE
  8
0
 10
32.2435
 20
-28.3429
 11
33.4088
 21
-27.8815
  0
LINE
  8
0
 10
33.4088
 20
-27.8815
 11
34.4227
 21
-27.1448
  0
LINE
  8
0
 10
34.4227
 20
-27.1448
 11
35.2216
 21
-26.1791
  0
LINE
  8
0
 10
35.2216
 20
-26.1791
 11
35.7553
 21
-25.0451
  0
LINE
  8
0
 10
35.7553
 20
-25.0451
 11
36
 21
-23.5
  0
LINE
  8
0
 10
36
 20
-23.5
 11
36
 21
38.5
  0
LINE
  8
0
 10
36
 20
38.5
 11
35.8429
 21
39.7435
  0
LINE
  8
0
 10
35.8429
 20
39.7435
 11
35.3815
 21
40.9088
  0
LINE
  8
0
 10
35.3815
 20
40.9088
 11
34.6448
 21
41.9227
  0
LINE
  8
0
 10
34.6448
 20
41.9227
 11
33.6791
 21
42.7216
  0
LINE
  8
0
 10
33.6791
 20
42.7216
 11
32.5451
 21
43.2553
  0
LINE
  8
0
 10
32.5451
 20
43.2553
 11
31
 21
43.5
  0
LINE
  8
0
 10
31
 20
43.5
 11
-31
 21
43.5
  0
LINE
  8
0
 10
-31
 20
43.5
 11
-32.2435
 21
43.3429
  0
LINE
  8
0
 10
-32.2435
 20
43.3429
 11
-33.4088
 21
42.8815
  0
LINE
  8
0
 10
-33.4088
 20
42.8815
 11
-34.4227
 21
42.1448
  0
LINE
  8
0
 10
-34.4227
 20
42.1448
 11
-35.2216
 21
41.1791
  0
LINE
  8
0
 10
-35.2216
 20
41.1791
 11
-35.7553
 21
40.0451
  0
LINE
  8
0
 10
-35.7553
 20
40.0451
 11
-36
 21
38.5
  0
LINE
  8
0
 10
-36
 20
38.5
 11
-36
 21
-23.5
  0
LINE
  8
0
 10
-36
 20
-23.5
 11
-35.8429
 21
-24.7435
  0
LINE
  8
0
 10
-35.8429
 20
-24.7435
 11
-35.3815
 21
-25.9088
  0
LINE
  8
0
 10
-35.3815
 20
-25.9088
 11
-34.6448
 21
-26.9227
  0
LINE
  8
0
 10
-34.6448
 20
-26.9227
 11
-33.6791
 21
-27.7216
  0
LINE
  8
0
 10
-33.6791
 20
-27.7216
 11
-32.5451
 21
-28.2553
  0
LINE
  8
0
 10
-32.5451
 20
-28.2553
 11
-31
 21
-28.5
  0
LINE
  8
0
 10
-31
 20
-28.5
 11
31
 21
-28.5
  0
LINE
  8
0
 10
31
 20
-28.5
 11
32.2435
 21
-28.3429
  0
LINE
  8
0
 10
14.4379
 20
34.5531
 11
13.7227
 21
34.7855
  0
LINE
  8
0
 10
13.7227
 20
34.7855
 11
13.0877
 21
35.1885
  0
LINE
  8
0
 10
13.0877
 20
35.1885
 11
12.5729
 21
35.7366
  0
LINE
  8
0
 10
12.5729
 20
35.7366
 11
12.2107
 21
36.3956
  0
LINE
  8
0
 10
12.2107
 20
36.3956
 11
12.0237
 21
37.124
  0
LINE
  8
0
 10
12.0237
 20
37.124
 11
12.0237
 21
37.876
  0
LINE
  8
0
 10
12.0237
 20
37.876
 11
12.2107
 21
38.6044
  0
LINE
  8
0
 10
12.2107
 20
38.6044
 11
12.5729
 21
39.2634
  0
LINE
  8
0
 10
12.5729
 20
39.2634
 11
13.0877
 21
39.8115
  0
LINE
  8
0
 10
13.0877
 20
39.8115
 11
13.7227
 21
40.2145
  0
LINE
  8
0
 10
13.7227
 20
40.2145
 11
14.4379
 21
40.4469
  0
LINE
  8
0
 10
14.4379
 20
40.4469
 11
15.1884
 21
40.4941
  0
LINE
  8
0
 10
15.1884
 20
40.4941
 11
15.927
 21
40.3532
  0
LINE
  8
0
 10
15.927
 20
40.3532
 11
16.6075
 21
40.033
  0
LINE
  8
0
 10
16.6075
 20
40.033
 11
17.1869
 21
39.5536
  0
LINE
  8
0
 10
17.1869
 20
39.5536
 11
17.6289
 21
38.9453
  0
LINE
  8
0
 10
17.6289
 20
38.9453
 11
17.9057
 21
38.2461
  0
LINE
  8
0
 10
17.9057
 20
38.2461
 11
18
 21
37.5
  0
LINE
  8
0
 10
18
 20
37.5
 11
17.9057
 21
36.7539
  0
LINE
  8
0
 10
17.9057
 20
36.7539
 11
17.6289
 21
36.0547
  0
LINE
  8
0
 10
17.6289
 20
36.0547
 11
17.1869
 21
35.4464
  0
LINE
  8
0
 10
17.1869
 20
35.4464
 11
16.6075
 21
34.967
  0
LINE
  8
0
 10
16.6075
 20
34.967
 11
15.927
 21
34.6468
  0
LINE
  8
0
 10
15.927
 20
34.6468
 11
15.1884
 21
34.5059
  0
LINE
  8
0
 10
15.1884
 20
34.5059
 11
14.4379
 21
34.5531
  0
LINE
  8
0
 10
29.4379
 20
34.5531
 11
28.7227
 21
34.7855
  0
LINE
  8
0
 10
28.7227
 20
34.7855
 11
28.0877
 21
35.1885
  0
LINE
  8
0
 10
28.0877
 20
35.1885
 11
27.5729
 21
35.7366
  0
LINE
  8
0
 10
27.5729
 20
35.7366
 11
27.2107
 21
36.3956
  0
LINE
  8
0
 10
27.2107
 20
36.3956
 11
27.0237
 21
37.124
  0
LINE
  8
0
 10
27.0237
 20
37.124
 11
27.0237
 21
37.876
  0
LINE
  8
0
 10
27.0237
 20
37.876
 11
27.2107
 21
38.6044
  0
LINE
  8
0
 10
27.2107
 20
38.6044
 11
27.5729
 21
39.2634
  0
LINE
  8
0
 10
27.5729
 20
39.2634
 11
28.0877
 21
39.8115
  0
LINE
  8
0
 10
28.0877
 20
39.8115
 11
28.7227
 21
40.2145
  0
LINE
  8
0
 10
28.7227
 20
40.2145
 11
29.4379
 21
40.4469
  0
LINE
  8
0
 10
29.4379
 20
40.4469
 11
30.1884
 21
40.4941
  0
LINE
  8
0
 10
30.1884
 20
40.4941
 11
30.927
 21
40.3532
  0
LINE
  8
0
 10
30.927
 20
40.3532
 11
31.6075
 21
40.033
  0
LINE
  8
0
 10
31.6075
 20
40.033
 11
32.1869
 21
39.5536
  0
LINE
  8
0
 10
32.1869
 20
39.5536
 11
32.6289
 21
38.9453
  0
LINE
  8
0
 10
32.6289
 20
38.9453
 11
32.9057
 21
38.2461
  0
LINE
  8
0
 10
32.9057
 20
38.2461
 11
33
 21
37.5
  0
LINE
  8
0
 10
33
 20
37.5
 11
32.9057
 21
36.7539
  0
LINE
  8
0
 10
32.9057
 20
36.7539
 11
32.6289
 21
36.0547
  0
LINE
  8
0
 10
32.6289
 20
36.0547
 11
32.1869
 21
35.4464
  0
LINE
  8
0
 10
32.1869
 20
35.4464
 11
31.6075
 21
34.967
  0
LINE
  8
0
 10
31.6075
 20
34.967
 11
30.927
 21
34.6468
  0
LINE
  8
0
 10
30.927
 20
34.6468
 11
30.1884
 21
34.5059
  0
LINE
  8
0
 10
30.1884
 20
34.5059
 11
29.4379
 21
34.5531
  0
LINE
  8
0
 10
-0.562134
 20
34.5531
 11
-1.27733
 21
34.7855
  0
LINE
  8
0
 10
-1.27733
 20
34.7855
 11
-1.91226
 21
35.1885
  0
LINE
  8
0
 10
-1.91226
 20
35.1885
 11
-2.42705
 21
35.7366
  0
LINE
  8
0
 10
-2.42705
 20
35.7366
 11
-2.78932
 21
36.3956
  0
LINE
  8
0
 10
-2.78932
 20
36.3956
 11
-2.97633
 21
37.124
  0
LINE
  8
0
 10
-2.97633
 20
37.124
 11
-2.97633
 21
37.876
  0
LINE
  8
0
 10
-2.97633
 20
37.876
 11
-2.78932
 21
38.6044
  0
LINE
  8
0
 10
-2.78932
 20
38.6044
 11
-2.42705
 21
39.2634
  0
LINE
  8
0
 10
-2.42705
 20
39.2634
 11
-1.91226
 21
39.8115
  0
LINE
  8
0
 10
-1.91226
 20
39.8115
 11
-1.27733
 21
40.2145
  0
LINE
  8
0
 10
-1.27733
 20
40.2145
 11
-0.562134
 21
40.4469
  0
LINE
  8
0
 10
-0.562134
 20
40.4469
 11
0.18837
 21
40.4941
  0
LINE
  8
0
 10
0.18837
 20
40.4941
 11
0.927048
 21
40.3532
  0
LINE
  8
0
 10
0.927048
 20
40.3532
 11
1.60747
 21
40.033
  0
LINE
  8
0
 10
1.60747
 20
40.033
 11
2.1869
 21
39.5536
  0
LINE
  8
0
 10
2.1869
 20
39.5536
 11
2.62891
 21
38.9453
  0
LINE
  8
0
 10
2.62891
 20
38.9453
 11
2.90575
 21
38.2461
  0
LINE
  8
0
 10
2.90575
 20
38.2461
 11
3
 21
37.5
  0
LINE
  8
0
 10
3
 20
37.5
 11
2.90575
 21
36.7539
  0
LINE
  8
0
 10
2.90575
 20
36.7539
 11
2.62891
 21
36.0547
  0
LINE
  8
0
 10
2.62891
 20
36.0547
 11
2.1869
 21
35.4464
  0
LINE
  8
0
 10
2.1869
 20
35.4464
 11
1.60747
 21
34.967
  0
LINE
  8
0
 10
1.60747
 20
34.967
 11
0.927048
 21
34.6468
  0
LINE
  8
0
 10
0.927048
 20
34.6468
 11
0.18837
 21
34.5059
  0
LINE
  8
0
 10
0.18837
 20
34.5059
 11
-0.562134
 21
34.5531
  0
LINE
  8
0
 10
-30.5621
 20
34.5531
 11
-31.2773
 21
34.7855
  0
LINE
  8
0
 10
-31.2773
 20
34.7855
 11
-31.9123
 21
35.1885
  0
LINE
  8
0
 10
-31.9123
 20
35.1885
 11
-32.427
 21
35.7366
  0
LINE
  8
0
 10
-32.427
 20
35.7366
 11
-32.7893
 21
36.3956
  0
LINE
  8
0
 10
-32.7893
 20
36.3956
 11
-32.9763
 21
37.124
  0
LINE
  8
0
 10
-32.9763
 20
37.124
 11
-32.9763
 21
37.876
  0
LINE
  8
0
 10
-32.9763
 20
37.876
 11
-32.7893
 21
38.6044
  0
LINE
  8
0
 10
-32.7893
 20
38.6044
 11
-32.427
 21
39.2634
  0
LINE
  8
0
 10
-32.427
 20
39.2634
 11
-31.9123
 21
39.8115
  0
LINE
  8
0
 10
-31.9123
 20
39.8115
 11
-31.2773
 21
40.2145
  0
LINE
  8
0
 10
-31.2773
 20
40.2145
 11
-30.5621
 21
40.4469
  0
LINE
  8
0
 10
-30.5621
 20
40.4469
 11
-29.8116
 21
40.4941
  0
LINE
  8
0
 10
-29.8116
 20
40.4941
 11
-29.0729
 21
40.3532
  0
LINE
  8
0
 10
-29.0729
 20
40.3532
 11
-28.3925
 21
40.033
  0
LINE
  8
0
 10
-28.3925
 20
40.033
 11
-27.8131
 21
39.5536
  0
LINE
  8
0
 10
-27.8131
 20
39.5536
 11
-27.3711
 21
38.9453
  0
LINE
  8
0
 10
-27.3711
 20
38.9453
 11
-27.0942
 21
38.2461
  0
LINE
  8
0
 10
-27.0942
 20
38.2461
 11
-27
 21
37.5
  0
LINE
  8
0
 10
-27
 20
37.5
 11
-27.0942
 21
36.7539
  0
LINE
  8
0
 10
-27.0942
 20
36.7539
 11
-27.3711
 21
36.0547
  0
LINE
  8
0
 10
-27.3711
 20
36.0547
 11
-27.8131
 21
35.4464
  0
LINE
  8
0
 10
-27.8131
 20
35.4464
 11
-28.3925
 21
34.967
  0
LINE
  8
0
 10
-28.3925
 20
34.967
 11
-29.0729
 21
34.6468
  0
LINE
  8
0
 10
-29.0729
 20
34.6468
 11
-29.8116
 21
34.5059
  0
LINE
  8
0
 10
-29.8116
 20
34.5059
 11
-30.5621
 21
34.5531
  0
LINE
  8
0
 10
-15.5621
 20
34.5531
 11
-16.2773
 21
34.7855
  0
LINE
  8
0
 10
-16.2773
 20
34.7855
 11
-16.9123
 21
35.1885
  0
LINE
  8
0
 10
-16.9123
 20
35.1885
 11
-17.427
 21
35.7366
  0
LINE
  8
0
 10
-17.427
 20
35.7366
 11
-17.7893
 21
36.3956
  0
LINE
  8
0
 10
-17.7893
 20
36.3956
 11
-17.9763
 21
37.124
  0
LINE
  8
0
 10
-17.9763
 20
37.124
 11
-17.9763
 21
37.876
  0
LINE
  8
0
 10
-17.9763
 20
37.876
 11
-17.7893
 21
38.6044
  0
LINE
  8
0
 10
-17.7893
 20
38.6044
 11
-17.427
 21
39.2634
  0
LINE
  8
0
 10
-17.427
 20
39.2634
 11
-16.9123
 21
39.8115
  0
LINE
  8
0
 10
-16.9123
 20
39.8115
 11
-16.2773
 21
40.2145
  0
LINE
  8
0
 10
-16.2773
 20
40.2145
 11
-15.5621
 21
40.4469
  0
LINE
  8
0
 10
-15.5621
 20
40.4469
 11
-14.8116
 21
40.4941
  0
LINE
  8
0
 10
-14.8116
 20
40.4941
 11
-14.0729
 21
40.3532
  0
LINE
  8
0
 10
-14.0729
 20
40.3532
 11
-13.3925
 21
40.033
  0
LINE
  8
0
 10
-13.3925
 20
40.033
 11
-12.8131
 21
39.5536
  0
LINE
  8
0
 10
-12.8131
 20
39.5536
 11
-12.3711
 21
38.9453
  0
LINE
  8
0
 10
-12.3711
 20
38.9453
 11
-12.0942
 21
38.2461
  0
LINE
  8
0
 10
-12.0942
 20
38.2461
 11
-12
 21
37.5
  0
LINE
  8
0
 10
-12
 20
37.5
 11
-12.0942
 21
36.7539
  0
LINE
  8
0
 10
-12.0942
 20
36.7539
 11
-12.3711
 21
36.0547
  0
LINE
  8
0
 10
-12.3711
 20
36.0547
 11
-12.8131
 21
35.4464
  0
LINE
  8
0
 10
-12.8131
 20
35.4464
 11
-13.3925
 21
34.967
  0
LINE
  8
0
 10
-13.3925
 20
34.967
 11
-14.0729
 21
34.6468
  0
LINE
  8
0
 10
-14.0729
 20
34.6468
 11
-14.8116
 21
34.5059
  0
LINE
  8
0
 10
-14.8116
 20
34.5059
 11
-15.5621
 21
34.5531
  0
LINE
  8
0
 10
-20.4369
 20
15.1385
 11
-21.6289
 21
15.5259
  0
LINE
  8
0
 10
-21.6289
 20
15.5259
 11
-22.6871
 21
16.1974
  0
LINE
  8
0
 10
-22.6871
 20
16.1974
 11
-23.5451
 21
17.1111
  0
LINE
  8
0
 10
-23.5451
 20
17.1111
 11
-24.1489
 21
18.2094
  0
LINE
  8
0
 10
-24.1489
 20
18.2094
 11
-24.4606
 21
19.4233
  0
LINE
  8
0
 10
-24.4606
 20
19.4233
 11
-24.4606
 21
20.6767
  0
LINE
  8
0
 10
-24.4606
 20
20.6767
 11
-24.1489
 21
21.8906
  0
LINE
  8
0
 10
-24.1489
 20
21.8906
 11
-23.5451
 21
22.9889
  0
LINE
  8
0
 10
-23.5451
 20
22.9889
 11
-22.6871
 21
23.9026
  0
LINE
  8
0
 10
-22.6871
 20
23.9026
 11
-21.6289
 21
24.5741
  0
LINE
  8
0
 10
-21.6289
 20
24.5741
 11
-20.4369
 21
24.9614
  0
LINE
  8
0
 10
-20.4369
 20
24.9614
 11
-19.186
 21
25.0401
  0
LINE
  8
0
 10
-19.186
 20
25.0401
 11
-17.9549
 21
24.8053
  0
LINE
  8
0
 10
-17.9549
 20
24.8053
 11
-16.8209
 21
24.2716
  0
LINE
  8
0
 10
-16.8209
 20
24.2716
 11
-15.8551
 21
23.4727
  0
LINE
  8
0
 10
-15.8551
 20
23.4727
 11
-15.1185
 21
22.4588
  0
LINE
  8
0
 10
-15.1185
 20
22.4588
 11
-14.6571
 21
21.2934
  0
LINE
  8
0
 10
-14.6571
 20
21.2934
 11
-14.5
 21
20.05
  0
LINE
  8
0
 10
-14.5
 20
20.05
 11
-14.6571
 21
18.8065
  0
LINE
  8
0
 10
-14.6571
 20
18.8065
 11
-15.1185
 21
17.6412
  0
LINE
  8
0
 10
-15.1185
 20
17.6412
 11
-15.8551
 21
16.6273
  0
LINE
  8
0
 10
-15.8551
 20
16.6273
 11
-16.8209
 21
15.8284
  0
LINE
  8
0
 10
-16.8209
 20
15.8284
 11
-17.9549
 21
15.2947
  0
LINE
  8
0
 10
-17.9549
 20
15.2947
 11
-19.186
 21
15.0599
  0
LINE
  8
0
 10
-19.186
 20
15.0599
 11
-20.4369
 21
15.1385
  0
LINE
  8
0
 10
19.5631
 20
15.1385
 11
18.3711
 21
15.5259
  0
LINE
  8
0
 10
18.3711
 20
15.5259
 11
17.3129
 21
16.1974
  0
LINE
  8
0
 10
17.3129
 20
16.1974
 11
16.4549
 21
17.1111
  0
LINE
  8
0
 10
16.4549
 20
17.1111
 11
15.8511
 21
18.2094
  0
LINE
  8
0
 10
15.8511
 20
18.2094
 11
15.5394
 21
19.4233
  0
LINE
  8
0
 10
15.5394
 20
19.4233
 11
15.5394
 21
20.6767
  0
LINE
  8
0
 10
15.5394
 20
20.6767
 11
15.8511
 21
21.8906
  0
LINE
  8
0
 10
15.8511
 20
21.8906
 11
16.4549
 21
22.9889
  0
LINE
  8
0
 10
16.4549
 20
22.9889
 11
17.3129
 21
23.9026
  0
LINE
  8
0
 10
17.3129
 20
23.9026
 11
18.3711
 21
24.5741
  0
LINE
  8
0
 10
18.3711
 20
24.5741
 11
19.5631
 21
24.9614
  0
LINE
  8
0
 10
19.5631
 20
24.9614
 11
20.8139
 21
25.0401
  0
LINE
  8
0
 10
20.8139
 20
25.0401
 11
22.0451
 21
24.8053
  0
LINE
  8
0
 10
22.0451
 20
24.8053
 11
23.1791
 21
24.2716
  0
LINE
  8
0
 10
23.1791
 20
24.2716
 11
24.1448
 21
23.4727
  0
LINE
  8
0
 10
24.1448
 20
23.4727
 11
24.8815
 21
22.4588
  0
LINE
  8
0
 10
24.8815
 20
22.4588
 11
25.3429
 21
21.2934
  0
LINE
  8
0
 10
25.3429
 20
21.2934
 11
25.5
 21
20.05
  0
LINE
  8
0
 10
25.5
 20
20.05
 11
25.3429
 21
18.8065
  0
LINE
  8
0
 10
25.3429
 20
18.8065
 11
24.8815
 21
17.6412
  0
LINE
  8
0
 10
24.8815
 20
17.6412
 11
24.1448
 21
16.6273
  0
LINE
  8
0
 10
24.1448
 20
16.6273
 11
23.1791
 21
15.8284
  0
LINE
  8
0
 10
23.1791
 20
15.8284
 11
22.0451
 21
15.2947
  0
LINE
  8
0
 10
22.0451
 20
15.2947
 11
20.8139
 21
15.0599
  0
LINE
  8
0
 10
20.8139
 20
15.0599
 11
19.5631
 21
15.1385
  0
LINE
  8
0
 10
-1.28107
 20
16.1266
 11
-1.63866
 21
16.2428
  0
LINE
  8
0
 10
-1.63866
 20
16.2428
 11
-1.95613
 21
16.4442
  0
LINE
  8
0
 10
-1.95613
 20
16.4442
 11
-2.21352
 21
16.7183
  0
LINE
  8
0
 10
-2.21352
 20
16.7183
 11
-2.39465
 21
17.0478
  0
LINE
  8
0
 10
-2.39465
 20
17.0478
 11
-2.48816
 21
17.412
  0
LINE
  8
0
 10
-2.48816
 20
17.412
 11
-2.48816
 21
17.788
  0
LINE
  8
0
 10
-2.48816
 20
17.788
 11
-2.39465
 21
18.1522
  0
LINE
  8
0
 10
-2.39465
 20
18.1522
 11
-2.21352
 21
18.4817
  0
LINE
  8
0
 10
-2.21352
 20
18.4817
 11
-1.95613
 21
18.7558
  0
LINE
  8
0
 10
-1.95613
 20
18.7558
 11
-1.63866
 21
18.9572
  0
LINE
  8
0
 10
-1.63866
 20
18.9572
 11
-1.28107
 21
19.0734
  0
LINE
  8
0
 10
-1.28107
 20
19.0734
 11
-0.905807
 21
19.097
  0
LINE
  8
0
 10
-0.905807
 20
19.097
 11
-0.536469
 21
19.0266
  0
LINE
  8
0
 10
-0.536469
 20
19.0266
 11
-0.196259
 21
18.8665
  0
LINE
  8
0
 10
-0.196259
 20
18.8665
 11
0.0934448
 21
18.6268
  0
LINE
  8
0
 10
0.0934448
 20
18.6268
 11
0.314453
 21
18.3226
  0
LINE
  8
0
 10
0.314453
 20
18.3226
 11
0.452866
 21
17.973
  0
LINE
  8
0
 10
0.452866
 20
17.973
 11
0.5
 21
17.6
  0
LINE
  8
0
 10
0.5
 20
17.6
 11
0.452866
 21
17.227
  0
LINE
  8
0
 10
0.452866
 20
17.227
 11
0.314453
 21
16.8774
  0
LINE
  8
0
 10
0.314453
 20
16.8774
 11
0.0934448
 21
16.5732
  0
LINE
  8
0
 10
0.0934448
 20
16.5732
 11
-0.196259
 21
16.3335
  0
LINE
  8
0
 10
-0.196259
 20
16.3335
 11
-0.536469
 21
16.1734
  0
LINE
  8
0
 10
-0.536469
 20
16.1734
 11
-0.905807
 21
16.103
  0
LINE
  8
0
 10
-0.905807
 20
16.103
 11
-1.28107
 21
16.1266
  0
LINE
  8
0
 10
23.4379
 20
4.55313
 11
22.7227
 21
4.78551
  0
LINE
  8
0
 10
22.7227
 20
4.78551
 11
22.0877
 21
5.18845
  0
LINE
  8
0
 10
22.0877
 20
5.18845
 11
21.5729
 21
5.73663
  0
LINE
  8
0
 10
21.5729
 20
5.73663
 11
21.2107
 21
6.39561
  0
LINE
  8
0
 10
21.2107
 20
6.39561
 11
21.0237
 21
7.12399
  0
LINE
  8
0
 10
21.0237
 20
7.12399
 11
21.0237
 21
7.87599
  0
LINE
  8
0
 10
21.0237
 20
7.87599
 11
21.2107
 21
8.60437
  0
LINE
  8
0
 10
21.2107
 20
8.60437
 11
21.5729
 21
9.26335
  0
LINE
  8
0
 10
21.5729
 20
9.26335
 11
22.0877
 21
9.81154
  0
LINE
  8
0
 10
22.0877
 20
9.81154
 11
22.7227
 21
10.2145
  0
LINE
  8
0
 10
22.7227
 20
10.2145
 11
23.4379
 21
10.4469
  0
LINE
  8
0
 10
23.4379
 20
10.4469
 11
24.1884
 21
10.4941
  0
LINE
  8
0
 10
24.1884
 20
10.4941
 11
24.927
 21
10.3532
  0
LINE
  8
0
 10
24.927
 20
10.3532
 11
25.6075
 21
10.033
  0
LINE
  8
0
 10
25.6075
 20
10.033
 11
26.1869
 21
9.55363
  0
LINE
  8
0
 10
26.1869
 20
9.55363
 11
26.6289
 21
8.94525
  0
LINE
  8
0
 10
26.6289
 20
8.94525
 11
26.9057
 21
8.24606
  0
LINE
  8
0
 10
26.9057
 20
8.24606
 11
27
 21
7.5
  0
LINE
  8
0
 10
27
 20
7.5
 11
26.9057
 21
6.75392
  0
LINE
  8
0
 10
26.9057
 20
6.75392
 11
26.6289
 21
6.05473
  0
LINE
  8
0
 10
26.6289
 20
6.05473
 11
26.1869
 21
5.44635
  0
LINE
  8
0
 10
26.1869
 20
5.44635
 11
25.6075
 21
4.96701
  0
LINE
  8
0
 10
25.6075
 20
4.96701
 11
24.927
 21
4.64682
  0
LINE
  8
0
 10
24.927
 20
4.64682
 11
24.1884
 21
4.50591
  0
LINE
  8
0
 10
24.1884
 20
4.50591
 11
23.4379
 21
4.55313
  0
LINE
  8
0
 10
9.43785
 20
4.55313
 11
8.72266
 21
4.78551
  0
LINE
  8
0
 10
8.72266
 20
4.78551
 11
8.08772
 21
5.18845
  0
LINE
  8
0
 10
8.08772
 20
5.18845
 11
7.57294
 21
5.73663
  0
LINE
  8
0
 10
7.57294
 20
5.73663
 11
7.21066
 21
6.39561
  0
LINE
  8
0
 10
7.21066
 20
6.39561
 11
7.02365
 21
7.12399
  0
LINE
  8
0
 10
7.02365
 20
7.12399
 11
7.02365
 21
7.87599
  0
LINE
  8
0
 10
7.02365
 20
7.87599
 11
7.21066
 21
8.60437
  0
LINE
  8
0
 10
7.21066
 20
8.60437
 11
7.57294
 21
9.26335
  0
LINE
  8
0
 10
7.57294
 20
9.26335
 11
8.08772
 21
9.81154
  0
LINE
  8
0
 10
8.08772
 20
9.81154
 11
8.72266
 21
10.2145
  0
LINE
  8
0
 10
8.72266
 20
10.2145
 11
9.43785
 21
10.4469
  0
LINE
  8
0
 10
9.43785
 20
10.4469
 11
10.1884
 21
10.4941
  0
LINE
  8
0
 10
10.1884
 20
10.4941
 11
10.927
 21
10.3532
  0
LINE
  8
0
 10
10.927
 20
10.3532
 11
11.6075
 21
10.033
  0
LINE
  8
0
 10
11.6075
 20
10.033
 11
12.1869
 21
9.55363
  0
LINE
  8
0
 10
12.1869
 20
9.55363
 11
12.6289
 21
8.94525
  0
LINE
  8
0
 10
12.6289
 20
8.94525
 11
12.9057
 21
8.24606
  0
LINE
  8
0
 10
12.9057
 20
8.24606
 11
13
 21
7.5
  0
LINE
  8
0
 10
13
 20
7.5
 11
12.9057
 21
6.75392
  0
LINE
  8
0
 10
12.9057
 20
6.75392
 11
12.6289
 21
6.05473
  0
LINE
  8
0
 10
12.6289
 20
6.05473
 11
12.1869
 21
5.44635
  0
LINE
  8
0
 10
12.1869
 20
5.44635
 11
11.6075
 21
4.96701
  0
LINE
  8
0
 10
11.6075
 20
4.96701
 11
10.927
 21
4.64682
  0
LINE
  8
0
 10
10.927
 20
4.64682
 11
10.1884
 21
4.50591
  0
LINE
  8
0
 10
10.1884
 20
4.50591
 11
9.43785
 21
4.55313
  0
LINE
  8
0
 10
-18.7811
 20
-2.77342
 11
-19.1387
 21
-2.65723
  0
LINE
  8
0
 10
-19.1387
 20
-2.65723
 11
-19.4561
 21
-2.45576
  0
LINE
  8
0
 10
-19.4561
 20
-2.45576
 11
-19.7135
 21
-2.18167
  0
LINE
  8
0
 10
-19.7135
 20
-2.18167
 11
-19.8947
 21
-1.85217
  0
LINE
  8
0
 10
-19.8947
 20
-1.85217
 11
-19.9882
 21
-1.48799
  0
LINE
  8
0
 10
-19.9882
 20
-1.48799
 11
-19.9882
 21
-1.112
  0
LINE
  8
0
 10
-19.9882
 20
-1.112
 11
-19.8947
 21
-0.747803
  0
LINE
  8
0
 10
-19.8947
 20
-0.747803
 11
-19.7135
 21
-0.41832
  0
LINE
  8
0
 10
-19.7135
 20
-0.41832
 11
-19.4561
 21
-0.144226
  0
LINE
  8
0
 10
-19.4561
 20
-0.144226
 11
-19.1387
 21
0.0572357
  0
LINE
  8
0
 10
-19.1387
 20
0.0572357
 11
-18.7811
 21
0.173416
  0
LINE
  8
0
 10
-18.7811
 20
0.173416
 11
-18.4058
 21
0.197037
  0
LINE
  8
0
 10
-18.4058
 20
0.197037
 11
-18.0365
 21
0.126572
  0
LINE
  8
0
 10
-18.0365
 20
0.126572
 11
-17.6963
 21
-0.033493
  0
LINE
  8
0
 10
-17.6963
 20
-0.033493
 11
-17.4065
 21
-0.273178
  0
LINE
  8
0
 10
-17.4065
 20
-0.273178
 11
-17.1855
 21
-0.577362
  0
LINE
  8
0
 10
-17.1855
 20
-0.577362
 11
-17.0471
 21
-0.926956
  0
LINE
  8
0
 10
-17.0471
 20
-0.926956
 11
-17
 21
-1.29999
  0
LINE
  8
0
 10
-17
 20
-1.29999
 11
-17.0471
 21
-1.67303
  0
LINE
  8
0
 10
-17.0471
 20
-1.67303
 11
-17.1855
 21
-2.02263
  0
LINE
  8
0
 10
-17.1855
 20
-2.02263
 11
-17.4065
 21
-2.32681
  0
LINE
  8
0
 10
-17.4065
 20
-2.32681
 11
-17.6963
 21
-2.56648
  0
LINE
  8
0
 10
-17.6963
 20
-2.56648
 11
-18.0365
 21
-2.72658
  0
LINE
  8
0
 10
-18.0365
 20
-2.72658
 11
-18.4058
 21
-2.79703
  0
LINE
  8
0
 10
-18.4058
 20
-2.79703
 11
-18.7811
 21
-2.77342
  0
LINE
  8
0
 10
-0.436905
 20
-25.0614
 11
-1.62889
 21
-24.6741
  0
LINE
  8
0
 10
-1.62889
 20
-24.6741
 11
-2.68712
 21
-24.0026
  0
LINE
  8
0
 10
-2.68712
 20
-24.0026
 11
-3.54507
 21
-23.0889
  0
LINE
  8
0
 10
-3.54507
 20
-23.0889
 11
-4.14888
 21
-21.9906
  0
LINE
  8
0
 10
-4.14888
 20
-21.9906
 11
-4.46057
 21
-20.7767
  0
LINE
  8
0
 10
-4.46057
 20
-20.7767
 11
-4.46057
 21
-19.5233
  0
LINE
  8
0
 10
-4.46057
 20
-19.5233
 11
-4.14888
 21
-18.3094
  0
LINE
  8
0
 10
-4.14888
 20
-18.3094
 11
-3.54507
 21
-17.2111
  0
LINE
  8
0
 10
-3.54507
 20
-17.2111
 11
-2.68712
 21
-16.2974
  0
LINE
  8
0
 10
-2.68712
 20
-16.2974
 11
-1.62889
 21
-15.6259
  0
LINE
  8
0
 10
-1.62889
 20
-15.6259
 11
-0.436905
 21
-15.2386
  0
LINE
  8
0
 10
-0.436905
 20
-15.2386
 11
0.81395
 21
-15.1599
  0
LINE
  8
0
 10
0.81395
 20
-15.1599
 11
2.04507
 21
-15.3947
  0
LINE
  8
0
 10
2.04507
 20
-15.3947
 11
3.17912
 21
-15.9284
  0
LINE
  8
0
 10
3.17912
 20
-15.9284
 11
4.14484
 21
-16.7273
  0
LINE
  8
0
 10
4.14484
 20
-16.7273
 11
4.88153
 21
-17.7412
  0
LINE
  8
0
 10
4.88153
 20
-17.7412
 11
5.34291
 21
-18.9065
  0
LINE
  8
0
 10
5.34291
 20
-18.9065
 11
5.5
 21
-20.15
  0
LINE
  8
0
 10
5.5
 20
-20.15
 11
5.34291
 21
-21.3934
  0
LINE
  8
0
 10
5.34291
 20
-21.3934
 11
4.88153
 21
-22.5588
  0
LINE
  8
0
 10
4.88153
 20
-22.5588
 11
4.14484
 21
-23.5727
  0
LINE
  8
0
 10
4.14484
 20
-23.5727
 11
3.17912
 21
-24.3716
  0
LINE
  8
0
 10
3.17912
 20
-24.3716
 11
2.04507
 21
-24.9053
  0
LINE
  8
0
 10
2.04507
 20
-24.9053
 11
0.81395
 21
-25.1401
  0
LINE
  8
0
 10
0.81395
 20
-25.1401
 11
-0.436905
 21
-25.0614
  0
LINE
  8
0
 10
-30.5621
 20
-25.4469
 11
-31.2773
 21
-25.2145
  0
LINE
  8
0
 10
-31.2773
 20
-25.2145
 11
-31.9123
 21
-24.8115
  0
LINE
  8
0
 10
-31.9123
 20
-24.8115
 11
-32.427
 21
-24.2634
  0
LINE
  8
0
 10
-32.427
 20
-24.2634
 11
-32.7893
 21
-23.6044
  0
LINE
  8
0
 10
-32.7893
 20
-23.6044
 11
-32.9763
 21
-22.876
  0
LINE
  8
0
 10
-32.9763
 20
-22.876
 11
-32.9763
 21
-22.124
  0
LINE
  8
0
 10
-32.9763
 20
-22.124
 11
-32.7893
 21
-21.3956
  0
LINE
  8
0
 10
-32.7893
 20
-21.3956
 11
-32.427
 21
-20.7366
  0
LINE
  8
0
 10
-32.427
 20
-20.7366
 11
-31.9123
 21
-20.1884
  0
LINE
  8
0
 10
-31.9123
 20
-20.1884
 11
-31.2773
 21
-19.7855
  0
LINE
  8
0
 10
-31.2773
 20
-19.7855
 11
-30.5621
 21
-19.5531
  0
LINE
  8
0
 10
-30.5621
 20
-19.5531
 11
-29.8116
 21
-19.5059
  0
LINE
  8
0
 10
-29.8116
 20
-19.5059
 11
-29.0729
 21
-19.6468
  0
LINE
  8
0
 10
-29.0729
 20
-19.6468
 11
-28.3925
 21
-19.967
  0
LINE
  8
0
 10
-28.3925
 20
-19.967
 11
-27.8131
 21
-20.4464
  0
LINE
  8
0
 10
-27.8131
 20
-20.4464
 11
-27.3711
 21
-21.0547
  0
LINE
  8
0
 10
-27.3711
 20
-21.0547
 11
-27.0942
 21
-21.7539
  0
LINE
  8
0
 10
-27.0942
 20
-21.7539
 11
-27
 21
-22.5
  0
LINE
  8
0
 10
-27
 20
-22.5
 11
-27.0942
 21
-23.2461
  0
LINE
  8
0
 10
-27.0942
 20
-23.2461
 11
-27.3711
 21
-23.9453
  0
LINE
  8
0
 10
-27.3711
 20
-23.9453
 11
-27.8131
 21
-24.5536
  0
LINE
  8
0
 10
-27.8131
 20
-24.5536
 11
-28.3925
 21
-25.033
  0
LINE
  8
0
 10
-28.3925
 20
-25.033
 11
-29.0729
 21
-25.3532
  0
LINE
  8
0
 10
-29.0729
 20
-25.3532
 11
-29.8116
 21
-25.4941
  0
LINE
  8
0
 10
-29.8116
 20
-25.4941
 11
-30.5621
 21
-25.4469
  0
LINE
  8
0
 10
-15.5621
 20
-25.4469
 11
-16.2773
 21
-25.2145
  0
LINE
  8
0
 10
-16.2773
 20
-25.2145
 11
-16.9123
 21
-24.8115
  0
LINE
  8
0
 10
-16.9123
 20
-24.8115
 11
-17.427
 21
-24.2634
  0
LINE
  8
0
 10
-17.427
 20
-24.2634
 11
-17.7893
 21
-23.6044
  0
LINE
  8
0
 10
-17.7893
 20
-23.6044
 11
-17.9763
 21
-22.876
  0
LINE
  8
0
 10
-17.9763
 20
-22.876
 11
-17.9763
 21
-22.124
  0
LINE
  8
0
 10
-17.9763
 20
-22.124
 11
-17.7893
 21
-21.3956
  0
LINE
  8
0
 10
-17.7893
 20
-21.3956
 11
-17.427
 21
-20.7366
  0
LINE
  8
0
 10
-17.427
 20
-20.7366
 11
-16.9123
 21
-20.1884
  0
LINE
  8
0
 10
-16.9123
 20
-20.1884
 11
-16.2773
 21
-19.7855
  0
LINE
  8
0
 10
-16.2773
 20
-19.7855
 11
-15.5621
 21
-19.5531
  0
LINE
  8
0
 10
-15.5621
 20
-19.5531
 11
-14.8116
 21
-19.5059
  0
LINE
  8
0
 10
-14.8116
 20
-19.5059
 11
-14.0729
 21
-19.6468
  0
LINE
  8
0
 10
-14.0729
 20
-19.6468
 11
-13.3925
 21
-19.967
  0
LINE
  8
0
 10
-13.3925
 20
-19.967
 11
-12.8131
 21
-20.4464
  0
LINE
  8
0
 10
-12.8131
 20
-20.4464
 11
-12.3711
 21
-21.0547
  0
LINE
  8
0
 10
-12.3711
 20
-21.0547
 11
-12.0942
 21
-21.7539
  0
LINE
  8
0
 10
-12.0942
 20
-21.7539
 11
-12
 21
-22.5
  0
LINE
  8
0
 10
-12
 20
-22.5
 11
-12.0942
 21
-23.2461
  0
LINE
  8
0
 10
-12.0942
 20
-23.2461
 11
-12.3711
 21
-23.9453
  0
LINE
  8
0
 10
-12.3711
 20
-23.9453
 11
-12.8131
 21
-24.5536
  0
LINE
  8
0
 10
-12.8131
 20
-24.5536
 11
-13.3925
 21
-25.033
  0
LINE
  8
0
 10
-13.3925
 20
-25.033
 11
-14.0729
 21
-25.3532
  0
LINE
  8
0
 10
-14.0729
 20
-25.3532
 11
-14.8116
 21
-25.4941
  0
LINE
  8
0
 10
-14.8116
 20
-25.4941
 11
-15.5621
 21
-25.4469
  0
LINE
  8
0
 10
14.4379
 20
-25.4469
 11
13.7227
 21
-25.2145
  0
LINE
  8
0
 10
13.7227
 20
-25.2145
 11
13.0877
 21
-24.8115
  0
LINE
  8
0
 10
13.0877
 20
-24.8115
 11
12.5729
 21
-24.2634
  0
LINE
  8
0
 10
12.5729
 20
-24.2634
 11
12.2107
 21
-23.6044
  0
LINE
  8
0
 10
12.2107
 20
-23.6044
 11
12.0237
 21
-22.876
  0
LINE
  8
0
 10
12.0237
 20
-22.876
 11
12.0237
 21
-22.124
  0
LINE
  8
0
 10
12.0237
 20
-22.124
 11
12.2107
 21
-21.3956
  0
LINE
  8
0
 10
12.2107
 20
-21.3956
 11
12.5729
 21
-20.7366
  0
LINE
  8
0
 10
12.5729
 20
-20.7366
 11
13.0877
 21
-20.1884
  0
LINE
  8
0
 10
13.0877
 20
-20.1884
 11
13.7227
 21
-19.7855
  0
LINE
  8
0
 10
13.7227
 20
-19.7855
 11
14.4379
 21
-19.5531
  0
LINE
  8
0
 10
14.4379
 20
-19.5531
 11
15.1884
 21
-19.5059
  0
LINE
  8
0
 10
15.1884
 20
-19.5059
 11
15.927
 21
-19.6468
  0
LINE
  8
0
 10
15.927
 20
-19.6468
 11
16.6075
 21
-19.967
  0
LINE
  8
0
 10
16.6075
 20
-19.967
 11
17.1869
 21
-20.4464
  0
LINE
  8
0
 10
17.1869
 20
-20.4464
 11
17.6289
 21
-21.0547
  0
LINE
  8
0
 10
17.6289
 20
-21.0547
 11
17.9057
 21
-21.7539
  0
LINE
  8
0
 10
17.9057
 20
-21.7539
 11
18
 21
-22.5
  0
LINE
  8
0
 10
18
 20
-22.5
 11
17.9057
 21
-23.2461
  0
LINE
  8
0
 10
17.9057
 20
-23.2461
 11
17.6289
 21
-23.9453
  0
LINE
  8
0
 10
17.6289
 20
-23.9453
 11
17.1869
 21
-24.5536
  0
LINE
  8
0
 10
17.1869
 20
-24.5536
 11
16.6075
 21
-25.033
  0
LINE
  8
0
 10
16.6075
 20
-25.033
 11
15.927
 21
-25.3532
  0
LINE
  8
0
 10
15.927
 20
-25.3532
 11
15.1884
 21
-25.4941
  0
LINE
  8
0
 10
15.1884
 20
-25.4941
 11
14.4379
 21
-25.4469
  0
LINE
  8
0
 10
29.4379
 20
-25.4469
 11
28.7227
 21
-25.2145
  0
LINE
  8
0
 10
28.7227
 20
-25.2145
 11
28.0877
 21
-24.8115
  0
LINE
  8
0
 10
28.0877
 20
-24.8115
 11
27.5729
 21
-24.2634
  0
LINE
  8
0
 10
27.5729
 20
-24.2634
 11
27.2107
 21
-23.6044
  0
LINE
  8
0
 10
27.2107
 20
-23.6044
 11
27.0237
 21
-22.876
  0
LINE
  8
0
 10
27.0237
 20
-22.876
 11
27.0237
 21
-22.124
  0
LINE
  8
0
 10
27.0237
 20
-22.124
 11
27.2107
 21
-21.3956
  0
LINE
  8
0
 10
27.2107
 20
-21.3956
 11
27.5729
 21
-20.7366
  0
LINE
  8
0
 10
27.5729
 20
-20.7366
 11
28.0877
 21
-20.1884
  0
LINE
  8
0
 10
28.0877
 20
-20.1884
 11
28.7227
 21
-19.7855
  0
LINE
  8
0
 10
28.7227
 20
-19.7855
 11
29.4379
 21
-19.5531
  0
LINE
  8
0
 10
29.4379
 20
-19.5531
 11
30.1884
 21
-19.5059
  0
LINE
  8
0
 10
30.1884
 20
-19.5059
 11
30.927
 21
-19.6468
  0
LINE
  8
0
 10
30.927
 20
-19.6468
 11
31.6075
 21
-19.967
  0
LINE
  8
0
 10
31.6075
 20
-19.967
 11
32.1869
 21
-20.4464
  0
LINE
  8
0
 10
32.1869
 20
-20.4464
 11
32.6289
 21
-21.0547
  0
LINE
  8
0
 10
32.6289
 20
-21.0547
 11
32.9057
 21
-21.7539
  0
LINE
  8
0
 10
32.9057
 20
-21.7539
 11
33
 21
-22.5
  0
LINE
  8
0
 10
33
 20
-22.5
 11
32.9057
 21
-23.2461
  0
LINE
  8
0
 10
32.9057
 20
-23.2461
 11
32.6289
 21
-23.9453
  0
LINE
  8
0
 10
32.6289
 20
-23.9453
 11
32.1869
 21
-24.5536
  0
LINE
  8
0
 10
32.1869
 20
-24.5536
 11
31.6075
 21
-25.033
  0
LINE
  8
0
 10
31.6075
 20
-25.033
 11
30.927
 21
-25.3532
  0
LINE
  8
0
 10
30.927
 20
-25.3532
 11
30.1884
 21
-25.4941
  0
LINE
  8
0
 10
30.1884
 20
-25.4941
 11
29.4379
 21
-25.4469
  0
ENDSEC
  0
SECTION
  2
OBJECTS
  0
DICTIONARY
  0
ENDSEC
  0
EOF
