<?xml version="1.0" standalone="no"?>
<!DOCTYPE svg PUBLIC "-//W3C//DTD SVG 1.1//EN" "http://www.w3.org/Graphics/SVG/1.1/DTD/svg11.dtd">
<svg width="60mm" height="60mm" viewBox="-30 -30 60 60" xmlns="http://www.w3.org/2000/svg" version="1.1">
<title>OpenSCAD Model</title>
<path d="
M 5.62143,29.4686 L 9.27051,28.5317 L 12.7734,27.1448 L 16.0748,25.3298 L 19.1227,23.1154 L 21.869,20.5364
 L 24.2705,17.6335 L 26.2892,14.4526 L 27.8933,11.0437 L 29.0575,7.46069 L 29.7634,3.75999 L 30,-0
 L 29.7634,-3.75999 L 29.0575,-7.46069 L 27.8933,-11.0437 L 26.2892,-14.4526 L 24.2705,-17.6335 L 21.869,-20.5364
 L 19.1227,-23.1154 L 16.0748,-25.3298 L 12.7734,-27.1448 L 9.27051,-28.5317 L 5.62143,-29.4686 L 1.88371,-29.9408
 L -1.88371,-29.9408 L -5.62143,-29.4686 L -9.27051,-28.5317 L -12.7734,-27.1448 L -16.0748,-25.3298 L -19.1227,-23.1154
 L -21.869,-20.5364 L -24.2705,-17.6335 L -26.2892,-14.4526 L -27.8933,-11.0437 L -29.0575,-7.46069 L -29.7634,-3.75999
 L -30,-0 L -29.7634,3.75999 L -29.0575,7.46069 L -27.8933,11.0437 L -26.2892,14.4526 L -24.2705,17.6335
 L -21.869,20.5364 L -19.1227,23.1154 L -16.0748,25.3298 L -12.7734,27.1448 L -9.27051,28.5317 L -5.62143,29.4686
 L -1.88371,29.9408 L 1.88371,29.9408 z
M -5.89149,-4.17531 L -6.07533,-4.2164 L -6.25256,-4.28021 L -6.42041,-4.36574 L -6.5762,-4.47162 L -6.71751,-4.59619
 L -6.84207,-4.73749 L -6.94795,-4.89328 L -7.03348,-5.06113 L -7.09729,-5.23836 L -7.13838,-5.4222 L -7.15611,-5.60973
 L -7.15019,-5.798 L -7.12073,-5.98405 L -7.06816,-6.16495 L -6.99336,-6.33783 L -6.89746,-6.49997 L -6.78201,-6.64882
 L -6.64882,-6.78201 L -6.49997,-6.89746 L -6.33783,-6.99336 L -6.16495,-7.06816 L -5.98405,-7.12073 L -5.798,-7.15019
 L -5.60973,-7.15611 L -5.4222,-7.13838 L -5.23836,-7.09729 L -5.06113,-7.03348 L -4.89328,-6.94795 L -4.73749,-6.84207
 L -4.59619,-6.71751 L -4.47162,-6.5762 L -4.36574,-6.42041 L -4.28021,-6.25256 L -4.2164,-6.07533 L -4.17531,-5.89149
 L -4.15759,-5.70396 L -4.1635,-5.51569 L -4.19298,-5.32964 L -4.24553,-5.14874 L -4.32034,-4.97586 L -4.41623,-4.81372
 L -4.53168,-4.66487 L -4.66487,-4.53168 L -4.81372,-4.41623 L -4.97586,-4.32034 L -5.14874,-4.24553 L -5.32964,-4.19298
 L -5.51569,-4.1635 L -5.70396,-4.15759 z
M 5.4222,-4.17531 L 5.23836,-4.2164 L 5.06113,-4.28021 L 4.89328,-4.36574 L 4.73749,-4.47162 L 4.59619,-4.59619
 L 4.47162,-4.73749 L 4.36574,-4.89328 L 4.28021,-5.06113 L 4.2164,-5.23836 L 4.17531,-5.4222 L 4.15759,-5.60973
 L 4.1635,-5.798 L 4.19298,-5.98405 L 4.24553,-6.16495 L 4.32034,-6.33783 L 4.41623,-6.49997 L 4.53168,-6.64882
 L 4.66487,-6.78201 L 4.81372,-6.89746 L 4.97586,-6.99336 L 5.14874,-7.06816 L 5.32964,-7.12073 L 5.51569,-7.15019
 L 5.70396,-7.15611 L 5.89149,-7.13838 L 6.07533,-7.09729 L 6.25256,-7.03348 L 6.42041,-6.94795 L 6.5762,-6.84207
 L 6.71751,-6.71751 L 6.84207,-6.5762 L 6.94795,-6.42041 L 7.03348,-6.25256 L 7.09729,-6.07533 L 7.13838,-5.89149
 L 7.15611,-5.70396 L 7.15019,-5.51569 L 7.12073,-5.32964 L 7.06816,-5.14874 L 6.99336,-4.97586 L 6.89746,-4.81372
 L 6.78201,-4.66487 L 6.64882,-4.53168 L 6.49997,-4.41623 L 6.33783,-4.32034 L 6.16495,-4.24553 L 5.98405,-4.19298
 L 5.798,-4.1635 L 5.60973,-4.15759 z
M -0.469299,2.96306 L -0.83696,2.88087 L -1.19144,2.75325 L -1.52711,2.58221 L -1.83871,2.37045 L -2.12131,2.12131
 L -2.37045,1.83871 L -2.58221,1.52711 L -2.75325,1.19144 L -2.88087,0.83696 L -2.96306,0.469299 L -2.9985,0.094223
 L -2.98668,-0.282318 L -2.92773,-0.654419 L -2.82263,-1.0162 L -2.673,-1.36197 L -2.48123,-1.68625 L -2.25032,-1.98393
 L -1.98393,-2.25032 L -1.68625,-2.48123 L -1.36197,-2.673 L -1.0162,-2.82263 L -0.654419,-2.92773 L -0.282318,-2.98668
 L 0.094223,-2.9985 L 0.469299,-2.96306 L 0.83696,-2.88087 L 1.19144,-2.75325 L 1.52711,-2.58221 L 1.83871,-2.37045
 L 2.12131,-2.12131 L 2.37045,-1.83871 L 2.58221,-1.52711 L 2.75325,-1.19144 L 2.88087,-0.83696 L 2.96306,-0.469299
 L 2.9985,-0.094223 L 2.98668,0.282318 L 2.92773,0.654419 L 2.82263,1.0162 L 2.673,1.36197 L 2.48123,1.68625
 L 2.25032,1.98393 L 1.98393,2.25032 L 1.68625,2.48123 L 1.36197,2.673 L 1.0162,2.82263 L 0.654419,2.92773
 L 0.282318,2.98668 L -0.094223,2.9985 z
M 21.5,2.5 L 21.5,-2.5 L 24.5,-2.5 L 24.5,2.5 z
M 5.5,2.5 L 5.5,-2.5 L 8.5,-2.5 L 8.5,2.5 z
M -5.89149,7.13838 L -6.07533,7.09729 L -6.25256,7.03348 L -6.42041,6.94795 L -6.5762,6.84207 L -6.71751,6.71751
 L -6.84207,6.5762 L -6.94795,6.42041 L -7.03348,6.25256 L -7.09729,6.07533 L -7.13838,5.89149 L -7.15611,5.70396
 L -7.15019,5.51569 L -7.12073,5.32964 L -7.06816,5.14874 L -6.99336,4.97586 L -6.89746,4.81372 L -6.78201,4.66487
 L -6.64882,4.53168 L -6.49997,4.41623 L -6.33783,4.32034 L -6.16495,4.24553 L -5.98405,4.19298 L -5.798,4.1635
 L -5.60973,4.15759 L -5.4222,4.17531 L -5.23836,4.2164 L -5.06113,4.28021 L -4.89328,4.36574 L -4.73749,4.47162
 L -4.59619,4.59619 L -4.47162,4.73749 L -4.36574,4.89328 L -4.28021,5.06113 L -4.2164,5.23836 L -4.17531,5.4222
 L -4.15759,5.60973 L -4.1635,5.798 L -4.19298,5.98405 L -4.24553,6.16495 L -4.32034,6.33783 L -4.41623,6.49997
 L -4.53168,6.64882 L -4.66487,6.78201 L -4.81372,6.89746 L -4.97586,6.99336 L -5.14874,7.06816 L -5.32964,7.12073
 L -5.51569,7.15019 L -5.70396,7.15611 z
M 5.4222,7.13838 L 5.23836,7.09729 L 5.06113,7.03348 L 4.89328,6.94795 L 4.73749,6.84207 L 4.59619,6.71751
 L 4.47162,6.5762 L 4.36574,6.42041 L 4.28021,6.25256 L 4.2164,6.07533 L 4.17531,5.89149 L 4.15759,5.70396
 L 4.1635,5.51569 L 4.19298,5.32964 L 4.24553,5.14874 L 4.32034,4.97586 L 4.41623,4.81372 L 4.53168,4.66487
 L 4.66487,4.53168 L 4.81372,4.41623 L 4.97586,4.32034 L 5.14874,4.24553 L 5.32964,4.19298 L 5.51569,4.1635
 L 5.70396,4.15759 L 5.89149,4.17531 L 6.07533,4.2164 L 6.25256,4.28021 L 6.42041,4.36574 L 6.5762,4.47162
 L 6.71751,4.59619 L 6.84207,4.73749 L 6.94795,4.89328 L 7.03348,5.06113 L 7.09729,5.23836 L 7.13838,5.4222
 L 7.15611,5.60973 L 7.15019,5.798 L 7.12073,5.98405 L 7.06816,6.16495 L 6.99336,6.33783 L 6.89746,6.49997
 L 6.78201,6.64882 L 6.64882,6.78201 L 6.49997,6.89746 L 6.33783,6.99336 L 6.16495,7.06816 L 5.98405,7.12073
 L 5.798,7.15019 L 5.60973,7.15611 z
" stroke="black" fill="lightgray" stroke-width="0.5"/>
</svg>
