<?xml version="1.0" standalone="no"?>
<!DOCTYPE svg PUBLIC "-//W3C//DTD SVG 1.1//EN" "http://www.w3.org/Graphics/SVG/1.1/DTD/svg11.dtd">
<svg width="102mm" height="178mm" viewBox="-51 -89 102 178" xmlns="http://www.w3.org/2000/svg" version="1.1">
<title>OpenSCAD Model</title>
<path d="
M 47.2435,88.3429 L 48.4088,87.8815 L 49.4227,87.1448 L 50.2216,86.1791 L 50.7553,85.0451 L 51,83.5
 L 51,-83.5 L 50.8429,-84.7435 L 50.3815,-85.9088 L 49.6448,-86.9227 L 48.6791,-87.7216 L 47.5451,-88.2553
 L 46,-88.5 L -46,-88.5 L -47.2435,-88.3429 L -48.4088,-87.8815 L -49.4227,-87.1448 L -50.2216,-86.1791
 L -50.7553,-85.0451 L -51,-83.5 L -51,83.5 L -50.8429,84.7435 L -50.3815,85.9088 L -49.6448,86.9227
 L -48.6791,87.7216 L -47.5451,88.2553 L -46,88.5 L 46,88.5 z
M -45.5621,-79.5531 L -46.2773,-79.7855 L -46.9123,-80.1885 L -47.427,-80.7366 L -47.7893,-81.3956 L -47.9763,-82.124
 L -47.9763,-82.876 L -47.7893,-83.6044 L -47.427,-84.2634 L -46.9123,-84.8115 L -46.2773,-85.2145 L -45.5621,-85.4469
 L -44.8116,-85.4941 L -44.0729,-85.3532 L -43.3925,-85.033 L -42.8131,-84.5536 L -42.3711,-83.9453 L -42.0942,-83.2461
 L -42,-82.5 L -42.0942,-81.7539 L -42.3711,-81.0547 L -42.8131,-80.4464 L -43.3925,-79.967 L -44.0729,-79.6468
 L -44.8116,-79.5059 z
M 44.4379,-79.5531 L 43.7227,-79.7855 L 43.0877,-80.1885 L 42.5729,-80.7366 L 42.2107,-81.3956 L 42.0237,-82.124
 L 42.0237,-82.876 L 42.2107,-83.6044 L 42.5729,-84.2634 L 43.0877,-84.8115 L 43.7227,-85.2145 L 44.4379,-85.4469
 L 45.1884,-85.4941 L 45.927,-85.3532 L 46.6075,-85.033 L 47.1869,-84.5536 L 47.6289,-83.9453 L 47.9057,-83.2461
 L 48,-82.5 L 47.9057,-81.7539 L 47.6289,-81.0547 L 47.1869,-80.4464 L 46.6075,-79.967 L 45.927,-79.6468
 L 45.1884,-79.5059 z
M -43.13,-56.475 L -43.13,-69.525 L -27.805,-69.525 L -27.805,-56.475 z
M 31.2175,-58.75 L 31.2175,-67.25 L 39.7175,-67.25 L 39.7175,-58.75 z
M -43.13,-35.475 L -43.13,-48.525 L -27.805,-48.525 L -27.805,-35.475 z
M 31.2175,-37.75 L 31.2175,-46.25 L 39.7175,-46.25 L 39.7175,-37.75 z
M -43.13,-14.475 L -43.13,-27.525 L -27.805,-27.525 L -27.805,-14.475 z
M 31.2175,-16.75 L 31.2175,-25.25 L 39.7175,-25.25 L 39.7175,-16.75 z
M -43.13,6.52499 L -43.13,-6.52499 L -27.805,-6.52499 L -27.805,6.52499 z
M 31.2175,4.25 L 31.2175,-4.25 L 39.7175,-4.25 L 39.7175,4.25 z
M -43.13,27.525 L -43.13,14.475 L -27.805,14.475 L -27.805,27.525 z
M 31.2175,25.25 L 31.2175,16.75 L 39.7175,16.75 L 39.7175,25.25 z
M -43.13,48.525 L -43.13,35.475 L -27.805,35.475 L -27.805,48.525 z
M 31.2175,46.25 L 31.2175,37.75 L 39.7175,37.75 L 39.7175,46.25 z
M -43.13,69.525 L -43.13,56.475 L -27.805,56.475 L -27.805,69.525 z
M 31.2175,67.25 L 31.2175,58.75 L 39.7175,58.75 L 39.7175,67.25 z
M -45.5621,85.4469 L -46.2773,85.2145 L -46.9123,84.8115 L -47.427,84.2634 L -47.7893,83.6044 L -47.9763,82.876
 L -47.9763,82.124 L -47.7893,81.3956 L -47.427,80.7366 L -46.9123,80.1885 L -46.2773,79.7855 L -45.5621,79.5531
 L -44.8116,79.5059 L -44.0729,79.6468 L -43.3925,79.967 L -42.8131,80.4464 L -42.3711,81.0547 L -42.0942,81.7539
 L -42,82.5 L -42.0942,83.2461 L -42.3711,83.9453 L -42.8131,84.5536 L -43.3925,85.033 L -44.0729,85.3532
 L -44.8116,85.4941 z
M 44.4379,85.4469 L 43.7227,85.2145 L 43.0877,84.8115 L 42.5729,84.2634 L 42.2107,83.6044 L 42.0237,82.876
 L 42.0237,82.124 L 42.2107,81.3956 L 42.5729,80.7366 L 43.0877,80.1885 L 43.7227,79.7855 L 44.4379,79.5531
 L 45.1884,79.5059 L 45.927,79.6468 L 46.6075,79.967 L 47.1869,80.4464 L 47.6289,81.0547 L 47.9057,81.7539
 L 48,82.5 L 47.9057,83.2461 L 47.6289,83.9453 L 47.1869,84.5536 L 46.6075,85.033 L 45.927,85.3532
 L 45.1884,85.4941 z
" stroke="black" fill="lightgray" stroke-width="0.5"/>
</svg>
