  0
SECTION
  2
BLOCKS
  0
ENDSEC
  0
SECTION
  2
ENTITIES
  0
LINE
  8
0
 10
5.62143
 20
-29.4686
 11
9.27051
 21
-28.5317
  0
LINE
  8
0
 10
9.27051
 20
-28.5317
 11
12.7734
 21
-27.1448
  0
LINE
  8
0
 10
12.7734
 20
-27.1448
 11
16.0748
 21
-25.3298
  0
LINE
  8
0
 10
16.0748
 20
-25.3298
 11
19.1227
 21
-23.1154
  0
LINE
  8
0
 10
19.1227
 20
-23.1154
 11
21.869
 21
-20.5364
  0
LINE
  8
0
 10
21.869
 20
-20.5364
 11
24.2705
 21
-17.6335
  0
LINE
  8
0
 10
24.2705
 20
-17.6335
 11
26.2892
 21
-14.4526
  0
LINE
  8
0
 10
26.2892
 20
-14.4526
 11
27.8933
 21
-11.0437
  0
LINE
  8
0
 10
27.8933
 20
-11.0437
 11
29.0575
 21
-7.46069
  0
LINE
  8
0
 10
29.0575
 20
-7.46069
 11
29.7634
 21
-3.75999
  0
LINE
  8
0
 10
29.7634
 20
-3.75999
 11
30
 21
0
  0
LINE
  8
0
 10
30
 20
0
 11
29.7634
 21
3.75999
  0
LINE
  8
0
 10
29.7634
 20
3.75999
 11
29.0575
 21
7.46069
  0
LINE
  8
0
 10
29.0575
 20
7.46069
 11
27.8933
 21
11.0437
  0
LINE
  8
0
 10
27.8933
 20
11.0437
 11
26.2892
 21
14.4526
  0
LINE
  8
0
 10
26.2892
 20
14.4526
 11
24.2705
 21
17.6335
  0
LINE
  8
0
 10
24.2705
 20
17.6335
 11
21.869
 21
20.5364
  0
LINE
  8
0
 10
21.869
 20
20.5364
 11
19.1227
 21
23.1154
  0
LINE
  8
0
 10
19.1227
 20
23.1154
 11
16.0748
 21
25.3298
  0
LINE
  8
0
 10
16.0748
 20
25.3298
 11
12.7734
 21
27.1448
  0
LINE
  8
0
 10
12.7734
 20
27.1448
 11
9.27051
 21
28.5317
  0
LINE
  8
0
 10
9.27051
 20
28.5317
 11
5.62143
 21
29.4686
  0
LINE
  8
0
 10
5.62143
 20
29.4686
 11
1.88371
 21
29.9408
  0
LINE
  8
0
 10
1.88371
 20
29.9408
 11
-1.88371
 21
29.9408
  0
LINE
  8
0
 10
-1.88371
 20
29.9408
 11
-5.62143
 21
29.4686
  0
LINE
  8
0
 10
-5.62143
 20
29.4686
 11
-9.27051
 21
28.5317
  0
LINE
  8
0
 10
-9.27051
 20
28.5317
 11
-12.7734
 21
27.1448
  0
LINE
  8
0
 10
-12.7734
 20
27.1448
 11
-16.0748
 21
25.3298
  0
LINE
  8
0
 10
-16.0748
 20
25.3298
 11
-19.1227
 21
23.1154
  0
LINE
  8
0
 10
-19.1227
 20
23.1154
 11
-21.869
 21
20.5364
  0
LINE
  8
0
 10
-21.869
 20
20.5364
 11
-24.2705
 21
17.6335
  0
LINE
  8
0
 10
-24.2705
 20
17.6335
 11
-26.2892
 21
14.4526
  0
LINE
  8
0
 10
-26.2892
 20
14.4526
 11
-27.8933
 21
11.0437
  0
LINE
  8
0
 10
-27.8933
 20
11.0437
 11
-29.0575
 21
7.46069
  0
LINE
  8
0
 10
-29.0575
 20
7.46069
 11
-29.7634
 21
3.75999
  0
LINE
  8
0
 10
-29.7634
 20
3.75999
 11
-30
 21
0
  0
LINE
  8
0
 10
-30
 20
0
 11
-29.7634
 21
-3.75999
  0
LINE
  8
0
 10
-29.7634
 20
-3.75999
 11
-29.0575
 21
-7.46069
  0
LINE
  8
0
 10
-29.0575
 20
-7.46069
 11
-27.8933
 21
-11.0437
  0
LINE
  8
0
 10
-27.8933
 20
-11.0437
 11
-26.2892
 21
-14.4526
  0
LINE
  8
0
 10
-26.2892
 20
-14.4526
 11
-24.2705
 21
-17.6335
  0
LINE
  8
0
 10
-24.2705
 20
-17.6335
 11
-21.869
 21
-20.5364
  0
LINE
  8
0
 10
-21.869
 20
-20.5364
 11
-19.1227
 21
-23.1154
  0
LINE
  8
0
 10
-19.1227
 20
-23.1154
 11
-16.0748
 21
-25.3298
  0
LINE
  8
0
 10
-16.0748
 20
-25.3298
 11
-12.7734
 21
-27.1448
  0
LINE
  8
0
 10
-12.7734
 20
-27.1448
 11
-9.27051
 21
-28.5317
  0
LINE
  8
0
 10
-9.27051
 20
-28.5317
 11
-5.62143
 21
-29.4686
  0
LINE
  8
0
 10
-5.62143
 20
-29.4686
 11
-1.88371
 21
-29.9408
  0
LINE
  8
0
 10
-1.88371
 20
-29.9408
 11
1.88371
 21
-29.9408
  0
LINE
  8
0
 10
1.88371
 20
-29.9408
 11
5.62143
 21
-29.4686
  0
LINE
  8
0
 10
-5.92279
 20
3.97778
 11
-6.13113
 21
4.02435
  0
LINE
  8
0
 10
-6.13113
 20
4.02435
 11
-6.332
 21
4.09666
  0
LINE
  8
0
 10
-6.332
 20
4.09666
 11
-6.52222
 21
4.19359
  0
LINE
  8
0
 10
-6.52222
 20
4.19359
 11
-6.69879
 21
4.31358
  0
LINE
  8
0
 10
-6.69879
 20
4.31358
 11
-6.85893
 21
4.45477
  0
LINE
  8
0
 10
-6.85893
 20
4.45477
 11
-7.00011
 21
4.6149
  0
LINE
  8
0
 10
-7.00011
 20
4.6149
 11
-7.1201
 21
4.79147
  0
LINE
  8
0
 10
-7.1201
 20
4.79147
 11
-7.21703
 21
4.98169
  0
LINE
  8
0
 10
-7.21703
 20
4.98169
 11
-7.28935
 21
5.18256
  0
LINE
  8
0
 10
-7.28935
 20
5.18256
 11
-7.33592
 21
5.39091
  0
LINE
  8
0
 10
-7.33592
 20
5.39091
 11
-7.356
 21
5.60345
  0
LINE
  8
0
 10
-7.356
 20
5.60345
 11
-7.3493
 21
5.81683
  0
LINE
  8
0
 10
-7.3493
 20
5.81683
 11
-7.3159
 21
6.02769
  0
LINE
  8
0
 10
-7.3159
 20
6.02769
 11
-7.25635
 21
6.2327
  0
LINE
  8
0
 10
-7.25635
 20
6.2327
 11
-7.17155
 21
6.42863
  0
LINE
  8
0
 10
-7.17155
 20
6.42863
 11
-7.06288
 21
6.61238
  0
LINE
  8
0
 10
-7.06288
 20
6.61238
 11
-6.93204
 21
6.78108
  0
LINE
  8
0
 10
-6.93204
 20
6.78108
 11
-6.78108
 21
6.93204
  0
LINE
  8
0
 10
-6.78108
 20
6.93204
 11
-6.61238
 21
7.06288
  0
LINE
  8
0
 10
-6.61238
 20
7.06288
 11
-6.42863
 21
7.17155
  0
LINE
  8
0
 10
-6.42863
 20
7.17155
 11
-6.2327
 21
7.25635
  0
LINE
  8
0
 10
-6.2327
 20
7.25635
 11
-6.02769
 21
7.3159
  0
LINE
  8
0
 10
-6.02769
 20
7.3159
 11
-5.81683
 21
7.3493
  0
LINE
  8
0
 10
-5.81683
 20
7.3493
 11
-5.60345
 21
7.356
  0
LINE
  8
0
 10
-5.60345
 20
7.356
 11
-5.39091
 21
7.33592
  0
LINE
  8
0
 10
-5.39091
 20
7.33592
 11
-5.18256
 21
7.28935
  0
LINE
  8
0
 10
-5.18256
 20
7.28935
 11
-4.98169
 21
7.21703
  0
LINE
  8
0
 10
-4.98169
 20
7.21703
 11
-4.79147
 21
7.1201
  0
LINE
  8
0
 10
-4.79147
 20
7.1201
 11
-4.6149
 21
7.00011
  0
LINE
  8
0
 10
-4.6149
 20
7.00011
 11
-4.45477
 21
6.85893
  0
LINE
  8
0
 10
-4.45477
 20
6.85893
 11
-4.31358
 21
6.69879
  0
LINE
  8
0
 10
-4.31358
 20
6.69879
 11
-4.19359
 21
6.52222
  0
LINE
  8
0
 10
-4.19359
 20
6.52222
 11
-4.09666
 21
6.332
  0
LINE
  8
0
 10
-4.09666
 20
6.332
 11
-4.02435
 21
6.13113
  0
LINE
  8
0
 10
-4.02435
 20
6.13113
 11
-3.97778
 21
5.92279
  0
LINE
  8
0
 10
-3.97778
 20
5.92279
 11
-3.95769
 21
5.71025
  0
LINE
  8
0
 10
-3.95769
 20
5.71025
 11
-3.96439
 21
5.49686
  0
LINE
  8
0
 10
-3.96439
 20
5.49686
 11
-3.99779
 21
5.286
  0
LINE
  8
0
 10
-3.99779
 20
5.286
 11
-4.05734
 21
5.08099
  0
LINE
  8
0
 10
-4.05734
 20
5.08099
 11
-4.14214
 21
4.88506
  0
LINE
  8
0
 10
-4.14214
 20
4.88506
 11
-4.25081
 21
4.70131
  0
LINE
  8
0
 10
-4.25081
 20
4.70131
 11
-4.38165
 21
4.53262
  0
LINE
  8
0
 10
-4.38165
 20
4.53262
 11
-4.53262
 21
4.38165
  0
LINE
  8
0
 10
-4.53262
 20
4.38165
 11
-4.70131
 21
4.25081
  0
LINE
  8
0
 10
-4.70131
 20
4.25081
 11
-4.88506
 21
4.14214
  0
LINE
  8
0
 10
-4.88506
 20
4.14214
 11
-5.08099
 21
4.05734
  0
LINE
  8
0
 10
-5.08099
 20
4.05734
 11
-5.286
 21
3.99779
  0
LINE
  8
0
 10
-5.286
 20
3.99779
 11
-5.49686
 21
3.96439
  0
LINE
  8
0
 10
-5.49686
 20
3.96439
 11
-5.71025
 21
3.95769
  0
LINE
  8
0
 10
-5.71025
 20
3.95769
 11
-5.92279
 21
3.97778
  0
LINE
  8
0
 10
5.39091
 20
3.97778
 11
5.18256
 21
4.02435
  0
LINE
  8
0
 10
5.18256
 20
4.02435
 11
4.98169
 21
4.09666
  0
LINE
  8
0
 10
4.98169
 20
4.09666
 11
4.79147
 21
4.19359
  0
LINE
  8
0
 10
4.79147
 20
4.19359
 11
4.6149
 21
4.31358
  0
LINE
  8
0
 10
4.6149
 20
4.31358
 11
4.45476
 21
4.45476
  0
LINE
  8
0
 10
4.45476
 20
4.45476
 11
4.31358
 21
4.6149
  0
LINE
  8
0
 10
4.31358
 20
4.6149
 11
4.19359
 21
4.79147
  0
LINE
  8
0
 10
4.19359
 20
4.79147
 11
4.09666
 21
4.98169
  0
LINE
  8
0
 10
4.09666
 20
4.98169
 11
4.02435
 21
5.18256
  0
LINE
  8
0
 10
4.02435
 20
5.18256
 11
3.97778
 21
5.39091
  0
LINE
  8
0
 10
3.97778
 20
5.39091
 11
3.95769
 21
5.60345
  0
LINE
  8
0
 10
3.95769
 20
5.60345
 11
3.96439
 21
5.81683
  0
LINE
  8
0
 10
3.96439
 20
5.81683
 11
3.99779
 21
6.02769
  0
LINE
  8
0
 10
3.99779
 20
6.02769
 11
4.05734
 21
6.2327
  0
LINE
  8
0
 10
4.05734
 20
6.2327
 11
4.14214
 21
6.42863
  0
LINE
  8
0
 10
4.14214
 20
6.42863
 11
4.25081
 21
6.61238
  0
LINE
  8
0
 10
4.25081
 20
6.61238
 11
4.38165
 21
6.78108
  0
LINE
  8
0
 10
4.38165
 20
6.78108
 11
4.53262
 21
6.93204
  0
LINE
  8
0
 10
4.53262
 20
6.93204
 11
4.70131
 21
7.06288
  0
LINE
  8
0
 10
4.70131
 20
7.06288
 11
4.88507
 21
7.17155
  0
LINE
  8
0
 10
4.88507
 20
7.17155
 11
5.08099
 21
7.25635
  0
LINE
  8
0
 10
5.08099
 20
7.25635
 11
5.28601
 21
7.3159
  0
LINE
  8
0
 10
5.28601
 20
7.3159
 11
5.49686
 21
7.3493
  0
LINE
  8
0
 10
5.49686
 20
7.3493
 11
5.71025
 21
7.356
  0
LINE
  8
0
 10
5.71025
 20
7.356
 11
5.92279
 21
7.33592
  0
LINE
  8
0
 10
5.92279
 20
7.33592
 11
6.13113
 21
7.28935
  0
LINE
  8
0
 10
6.13113
 20
7.28935
 11
6.332
 21
7.21703
  0
LINE
  8
0
 10
6.332
 20
7.21703
 11
6.52222
 21
7.1201
  0
LINE
  8
0
 10
6.52222
 20
7.1201
 11
6.69879
 21
7.00011
  0
LINE
  8
0
 10
6.69879
 20
7.00011
 11
6.85893
 21
6.85893
  0
LINE
  8
0
 10
6.85893
 20
6.85893
 11
7.00011
 21
6.69879
  0
LINE
  8
0
 10
7.00011
 20
6.69879
 11
7.1201
 21
6.52222
  0
LINE
  8
0
 10
7.1201
 20
6.52222
 11
7.21703
 21
6.332
  0
LINE
  8
0
 10
7.21703
 20
6.332
 11
7.28935
 21
6.13113
  0
LINE
  8
0
 10
7.28935
 20
6.13113
 11
7.33592
 21
5.92279
  0
LINE
  8
0
 10
7.33592
 20
5.92279
 11
7.356
 21
5.71025
  0
LINE
  8
0
 10
7.356
 20
5.71025
 11
7.3493
 21
5.49686
  0
LINE
  8
0
 10
7.3493
 20
5.49686
 11
7.3159
 21
5.28601
  0
LINE
  8
0
 10
7.3159
 20
5.28601
 11
7.25635
 21
5.08099
  0
LINE
  8
0
 10
7.25635
 20
5.08099
 11
7.17155
 21
4.88507
  0
LINE
  8
0
 10
7.17155
 20
4.88507
 11
7.06288
 21
4.70131
  0
LINE
  8
0
 10
7.06288
 20
4.70131
 11
6.93204
 21
4.53262
  0
LINE
  8
0
 10
6.93204
 20
4.53262
 11
6.78108
 21
4.38165
  0
LINE
  8
0
 10
6.78108
 20
4.38165
 11
6.61238
 21
4.25081
  0
LINE
  8
0
 10
6.61238
 20
4.25081
 11
6.42863
 21
4.14214
  0
LINE
  8
0
 10
6.42863
 20
4.14214
 11
6.2327
 21
4.05734
  0
LINE
  8
0
 10
6.2327
 20
4.05734
 11
6.02769
 21
3.99779
  0
LINE
  8
0
 10
6.02769
 20
3.99779
 11
5.81683
 21
3.96439
  0
LINE
  8
0
 10
5.81683
 20
3.96439
 11
5.60345
 21
3.95769
  0
LINE
  8
0
 10
5.60345
 20
3.95769
 11
5.39091
 21
3.97778
  0
LINE
  8
0
 10
-0.508408
 20
-3.20998
 11
-0.906708
 21
-3.12094
  0
LINE
  8
0
 10
-0.906708
 20
-3.12094
 11
-1.29073
 21
-2.9827
  0
LINE
  8
0
 10
-1.29073
 20
-2.9827
 11
-1.65437
 21
-2.79741
  0
LINE
  8
0
 10
-1.65437
 20
-2.79741
 11
-1.99194
 21
-2.56799
  0
LINE
  8
0
 10
-1.99194
 20
-2.56799
 11
-2.2981
 21
-2.2981
  0
LINE
  8
0
 10
-2.2981
 20
-2.2981
 11
-2.56799
 21
-1.99194
  0
LINE
  8
0
 10
-2.56799
 20
-1.99194
 11
-2.79741
 21
-1.65437
  0
LINE
  8
0
 10
-2.79741
 20
-1.65437
 11
-2.9827
 21
-1.29073
  0
LINE
  8
0
 10
-2.9827
 20
-1.29073
 11
-3.12094
 21
-0.906708
  0
LINE
  8
0
 10
-3.12094
 20
-0.906708
 11
-3.20998
 21
-0.508408
  0
LINE
  8
0
 10
-3.20998
 20
-0.508408
 11
-3.24838
 21
-0.102081
  0
LINE
  8
0
 10
-3.24838
 20
-0.102081
 11
-3.23557
 21
0.305847
  0
LINE
  8
0
 10
-3.23557
 20
0.305847
 11
-3.17172
 21
0.708954
  0
LINE
  8
0
 10
-3.17172
 20
0.708954
 11
-3.05786
 21
1.10089
  0
LINE
  8
0
 10
-3.05786
 20
1.10089
 11
-2.89577
 21
1.47546
  0
LINE
  8
0
 10
-2.89577
 20
1.47546
 11
-2.688
 21
1.82677
  0
LINE
  8
0
 10
-2.688
 20
1.82677
 11
-2.43785
 21
2.14926
  0
LINE
  8
0
 10
-2.43785
 20
2.14926
 11
-2.14926
 21
2.43785
  0
LINE
  8
0
 10
-2.14926
 20
2.43785
 11
-1.82677
 21
2.688
  0
LINE
  8
0
 10
-1.82677
 20
2.688
 11
-1.47546
 21
2.89577
  0
LINE
  8
0
 10
-1.47546
 20
2.89577
 11
-1.10089
 21
3.05786
  0
LINE
  8
0
 10
-1.10089
 20
3.05786
 11
-0.708954
 21
3.17172
  0
LINE
  8
0
 10
-0.708954
 20
3.17172
 11
-0.305847
 21
3.23557
  0
LINE
  8
0
 10
-0.305847
 20
3.23557
 11
0.102081
 21
3.24838
  0
LINE
  8
0
 10
0.102081
 20
3.24838
 11
0.508408
 21
3.20998
  0
LINE
  8
0
 10
0.508408
 20
3.20998
 11
0.906708
 21
3.12094
  0
LINE
  8
0
 10
0.906708
 20
3.12094
 11
1.29073
 21
2.9827
  0
LINE
  8
0
 10
1.29073
 20
2.9827
 11
1.65437
 21
2.79741
  0
LINE
  8
0
 10
1.65437
 20
2.79741
 11
1.99194
 21
2.56799
  0
LINE
  8
0
 10
1.99194
 20
2.56799
 11
2.2981
 21
2.2981
  0
LINE
  8
0
 10
2.2981
 20
2.2981
 11
2.56799
 21
1.99194
  0
LINE
  8
0
 10
2.56799
 20
1.99194
 11
2.79741
 21
1.65437
  0
LINE
  8
0
 10
2.79741
 20
1.65437
 11
2.9827
 21
1.29073
  0
LINE
  8
0
 10
2.9827
 20
1.29073
 11
3.12094
 21
0.906708
  0
LINE
  8
0
 10
3.12094
 20
0.906708
 11
3.20998
 21
0.508408
  0
LINE
  8
0
 10
3.20998
 20
0.508408
 11
3.24838
 21
0.102081
  0
LINE
  8
0
 10
3.24838
 20
0.102081
 11
3.23557
 21
-0.305847
  0
LINE
  8
0
 10
3.23557
 20
-0.305847
 11
3.17172
 21
-0.708954
  0
LINE
  8
0
 10
3.17172
 20
-0.708954
 11
3.05786
 21
-1.10089
  0
LINE
  8
0
 10
3.05786
 20
-1.10089
 11
2.89577
 21
-1.47546
  0
LINE
  8
0
 10
2.89577
 20
-1.47546
 11
2.688
 21
-1.82677
  0
LINE
  8
0
 10
2.688
 20
-1.82677
 11
2.43785
 21
-2.14926
  0
LINE
  8
0
 10
2.43785
 20
-2.14926
 11
2.14926
 21
-2.43785
  0
LINE
  8
0
 10
2.14926
 20
-2.43785
 11
1.82677
 21
-2.688
  0
LINE
  8
0
 10
1.82677
 20
-2.688
 11
1.47546
 21
-2.89577
  0
LINE
  8
0
 10
1.47546
 20
-2.89577
 11
1.10089
 21
-3.05786
  0
LINE
  8
0
 10
1.10089
 20
-3.05786
 11
0.708954
 21
-3.17172
  0
LINE
  8
0
 10
0.708954
 20
-3.17172
 11
0.305847
 21
-3.23557
  0
LINE
  8
0
 10
0.305847
 20
-3.23557
 11
-0.102081
 21
-3.24838
  0
LINE
  8
0
 10
-0.102081
 20
-3.24838
 11
-0.508408
 21
-3.20998
  0
LINE
  8
0
 10
5.5
 20
-2.5
 11
5.5
 21
2.5
  0
LINE
  8
0
 10
5.5
 20
2.5
 11
8.5
 21
2.5
  0
LINE
  8
0
 10
8.5
 20
2.5
 11
8.5
 21
-2.5
  0
LINE
  8
0
 10
8.5
 20
-2.5
 11
5.5
 21
-2.5
  0
LINE
  8
0
 10
21.5
 20
-2.5
 11
21.5
 21
2.5
  0
LINE
  8
0
 10
21.5
 20
2.5
 11
24.5
 21
2.5
  0
LINE
  8
0
 10
24.5
 20
2.5
 11
24.5
 21
-2.5
  0
LINE
  8
0
 10
24.5
 20
-2.5
 11
21.5
 21
-2.5
  0
LINE
  8
0
 10
-5.92279
 20
-7.33592
 11
-6.13113
 21
-7.28935
  0
LINE
  8
0
 10
-6.13113
 20
-7.28935
 11
-6.332
 21
-7.21703
  0
LINE
  8
0
 10
-6.332
 20
-7.21703
 11
-6.52222
 21
-7.1201
  0
LINE
  8
0
 10
-6.52222
 20
-7.1201
 11
-6.69879
 21
-7.00011
  0
LINE
  8
0
 10
-6.69879
 20
-7.00011
 11
-6.85893
 21
-6.85893
  0
LINE
  8
0
 10
-6.85893
 20
-6.85893
 11
-7.00011
 21
-6.69879
  0
LINE
  8
0
 10
-7.00011
 20
-6.69879
 11
-7.1201
 21
-6.52222
  0
LINE
  8
0
 10
-7.1201
 20
-6.52222
 11
-7.21703
 21
-6.332
  0
LINE
  8
0
 10
-7.21703
 20
-6.332
 11
-7.28935
 21
-6.13113
  0
LINE
  8
0
 10
-7.28935
 20
-6.13113
 11
-7.33592
 21
-5.92279
  0
LINE
  8
0
 10
-7.33592
 20
-5.92279
 11
-7.356
 21
-5.71025
  0
LINE
  8
0
 10
-7.356
 20
-5.71025
 11
-7.3493
 21
-5.49686
  0
LINE
  8
0
 10
-7.3493
 20
-5.49686
 11
-7.3159
 21
-5.28601
  0
LINE
  8
0
 10
-7.3159
 20
-5.28601
 11
-7.25635
 21
-5.08099
  0
LINE
  8
0
 10
-7.25635
 20
-5.08099
 11
-7.17155
 21
-4.88507
  0
LINE
  8
0
 10
-7.17155
 20
-4.88507
 11
-7.06288
 21
-4.70131
  0
LINE
  8
0
 10
-7.06288
 20
-4.70131
 11
-6.93204
 21
-4.53262
  0
LINE
  8
0
 10
-6.93204
 20
-4.53262
 11
-6.78108
 21
-4.38165
  0
LINE
  8
0
 10
-6.78108
 20
-4.38165
 11
-6.61238
 21
-4.25081
  0
LINE
  8
0
 10
-6.61238
 20
-4.25081
 11
-6.42863
 21
-4.14214
  0
LINE
  8
0
 10
-6.42863
 20
-4.14214
 11
-6.2327
 21
-4.05734
  0
LINE
  8
0
 10
-6.2327
 20
-4.05734
 11
-6.02769
 21
-3.99779
  0
LINE
  8
0
 10
-6.02769
 20
-3.99779
 11
-5.81683
 21
-3.96439
  0
LINE
  8
0
 10
-5.81683
 20
-3.96439
 11
-5.60345
 21
-3.95769
  0
LINE
  8
0
 10
-5.60345
 20
-3.95769
 11
-5.39091
 21
-3.97778
  0
LINE
  8
0
 10
-5.39091
 20
-3.97778
 11
-5.18256
 21
-4.02435
  0
LINE
  8
0
 10
-5.18256
 20
-4.02435
 11
-4.98169
 21
-4.09666
  0
LINE
  8
0
 10
-4.98169
 20
-4.09666
 11
-4.79147
 21
-4.19359
  0
LINE
  8
0
 10
-4.79147
 20
-4.19359
 11
-4.6149
 21
-4.31358
  0
LINE
  8
0
 10
-4.6149
 20
-4.31358
 11
-4.45476
 21
-4.45476
  0
LINE
  8
0
 10
-4.45476
 20
-4.45476
 11
-4.31358
 21
-4.6149
  0
LINE
  8
0
 10
-4.31358
 20
-4.6149
 11
-4.19359
 21
-4.79147
  0
LINE
  8
0
 10
-4.19359
 20
-4.79147
 11
-4.09666
 21
-4.98169
  0
LINE
  8
0
 10
-4.09666
 20
-4.98169
 11
-4.02435
 21
-5.18256
  0
LINE
  8
0
 10
-4.02435
 20
-5.18256
 11
-3.97778
 21
-5.39091
  0
LINE
  8
0
 10
-3.97778
 20
-5.39091
 11
-3.95769
 21
-5.60345
  0
LINE
  8
0
 10
-3.95769
 20
-5.60345
 11
-3.96439
 21
-5.81683
  0
LINE
  8
0
 10
-3.96439
 20
-5.81683
 11
-3.99779
 21
-6.02769
  0
LINE
  8
0
 10
-3.99779
 20
-6.02769
 11
-4.05734
 21
-6.2327
  0
LINE
  8
0
 10
-4.05734
 20
-6.2327
 11
-4.14214
 21
-6.42863
  0
LINE
  8
0
 10
-4.14214
 20
-6.42863
 11
-4.25081
 21
-6.61238
  0
LINE
  8
0
 10
-4.25081
 20
-6.61238
 11
-4.38165
 21
-6.78108
  0
LINE
  8
0
 10
-4.38165
 20
-6.78108
 11
-4.53262
 21
-6.93204
  0
LINE
  8
0
 10
-4.53262
 20
-6.93204
 11
-4.70131
 21
-7.06288
  0
LINE
  8
0
 10
-4.70131
 20
-7.06288
 11
-4.88507
 21
-7.17155
  0
LINE
  8
0
 10
-4.88507
 20
-7.17155
 11
-5.08099
 21
-7.25635
  0
LINE
  8
0
 10
-5.08099
 20
-7.25635
 11
-5.28601
 21
-7.3159
  0
LINE
  8
0
 10
-5.28601
 20
-7.3159
 11
-5.49686
 21
-7.3493
  0
LINE
  8
0
 10
-5.49686
 20
-7.3493
 11
-5.71025
 21
-7.356
  0
LINE
  8
0
 10
-5.71025
 20
-7.356
 11
-5.92279
 21
-7.33592
  0
LINE
  8
0
 10
5.39091
 20
-7.33592
 11
5.18256
 21
-7.28935
  0
LINE
  8
0
 10
5.18256
 20
-7.28935
 11
4.98169
 21
-7.21703
  0
LINE
  8
0
 10
4.98169
 20
-7.21703
 11
4.79147
 21
-7.1201
  0
LINE
  8
0
 10
4.79147
 20
-7.1201
 11
4.6149
 21
-7.00011
  0
LINE
  8
0
 10
4.6149
 20
-7.00011
 11
4.45477
 21
-6.85893
  0
LINE
  8
0
 10
4.45477
 20
-6.85893
 11
4.31358
 21
-6.69879
  0
LINE
  8
0
 10
4.31358
 20
-6.69879
 11
4.19359
 21
-6.52222
  0
LINE
  8
0
 10
4.19359
 20
-6.52222
 11
4.09666
 21
-6.332
  0
LINE
  8
0
 10
4.09666
 20
-6.332
 11
4.02435
 21
-6.13113
  0
LINE
  8
0
 10
4.02435
 20
-6.13113
 11
3.97778
 21
-5.92279
  0
LINE
  8
0
 10
3.97778
 20
-5.92279
 11
3.95769
 21
-5.71025
  0
LINE
  8
0
 10
3.95769
 20
-5.71025
 11
3.96439
 21
-5.49686
  0
LINE
  8
0
 10
3.96439
 20
-5.49686
 11
3.99779
 21
-5.286
  0
LINE
  8
0
 10
3.99779
 20
-5.286
 11
4.05734
 21
-5.08099
  0
LINE
  8
0
 10
4.05734
 20
-5.08099
 11
4.14214
 21
-4.88506
  0
LINE
  8
0
 10
4.14214
 20
-4.88506
 11
4.25081
 21
-4.70131
  0
LINE
  8
0
 10
4.25081
 20
-4.70131
 11
4.38165
 21
-4.53262
  0
LINE
  8
0
 10
4.38165
 20
-4.53262
 11
4.53262
 21
-4.38165
  0
LINE
  8
0
 10
4.53262
 20
-4.38165
 11
4.70131
 21
-4.25081
  0
LINE
  8
0
 10
4.70131
 20
-4.25081
 11
4.88506
 21
-4.14214
  0
LINE
  8
0
 10
4.88506
 20
-4.14214
 11
5.08099
 21
-4.05734
  0
LINE
  8
0
 10
5.08099
 20
-4.05734
 11
5.286
 21
-3.99779
  0
LINE
  8
0
 10
5.286
 20
-3.99779
 11
5.49686
 21
-3.96439
  0
LINE
  8
0
 10
5.49686
 20
-3.96439
 11
5.71025
 21
-3.95769
  0
LINE
  8
0
 10
5.71025
 20
-3.95769
 11
5.92279
 21
-3.97778
  0
LINE
  8
0
 10
5.92279
 20
-3.97778
 11
6.13113
 21
-4.02435
  0
LINE
  8
0
 10
6.13113
 20
-4.02435
 11
6.332
 21
-4.09666
  0
LINE
  8
0
 10
6.332
 20
-4.09666
 11
6.52222
 21
-4.19359
  0
LINE
  8
0
 10
6.52222
 20
-4.19359
 11
6.69879
 21
-4.31358
  0
LINE
  8
0
 10
6.69879
 20
-4.31358
 11
6.85893
 21
-4.45477
  0
LINE
  8
0
 10
6.85893
 20
-4.45477
 11
7.00011
 21
-4.6149
  0
LINE
  8
0
 10
7.00011
 20
-4.6149
 11
7.1201
 21
-4.79147
  0
LINE
  8
0
 10
7.1201
 20
-4.79147
 11
7.21703
 21
-4.98169
  0
LINE
  8
0
 10
7.21703
 20
-4.98169
 11
7.28935
 21
-5.18256
  0
LINE
  8
0
 10
7.28935
 20
-5.18256
 11
7.33592
 21
-5.39091
  0
LINE
  8
0
 10
7.33592
 20
-5.39091
 11
7.356
 21
-5.60345
  0
LINE
  8
0
 10
7.356
 20
-5.60345
 11
7.3493
 21
-5.81683
  0
LINE
  8
0
 10
7.3493
 20
-5.81683
 11
7.3159
 21
-6.02769
  0
LINE
  8
0
 10
7.3159
 20
-6.02769
 11
7.25635
 21
-6.2327
  0
LINE
  8
0
 10
7.25635
 20
-6.2327
 11
7.17155
 21
-6.42863
  0
LINE
  8
0
 10
7.17155
 20
-6.42863
 11
7.06288
 21
-6.61238
  0
LINE
  8
0
 10
7.06288
 20
-6.61238
 11
6.93204
 21
-6.78108
  0
LINE
  8
0
 10
6.93204
 20
-6.78108
 11
6.78108
 21
-6.93204
  0
LINE
  8
0
 10
6.78108
 20
-6.93204
 11
6.61238
 21
-7.06288
  0
LINE
  8
0
 10
6.61238
 20
-7.06288
 11
6.42863
 21
-7.17155
  0
LINE
  8
0
 10
6.42863
 20
-7.17155
 11
6.2327
 21
-7.25635
  0
LINE
  8
0
 10
6.2327
 20
-7.25635
 11
6.02769
 21
-7.3159
  0
LINE
  8
0
 10
6.02769
 20
-7.3159
 11
5.81683
 21
-7.3493
  0
LINE
  8
0
 10
5.81683
 20
-7.3493
 11
5.60345
 21
-7.356
  0
LINE
  8
0
 10
5.60345
 20
-7.356
 11
5.39091
 21
-7.33592
  0
ENDSEC
  0
SECTION
  2
OBJECTS
  0
DICTIONARY
  0
ENDSEC
  0
EOF
